<svg xmlns="http://www.w3.org/2000/svg" viewBox="0 0 512 512" role="img" aria-label="rami.party">
  <defs>
    <radialGradient id="bg" cx="50%" cy="38%" r="75%">
      <stop offset="0%" stop-color="#1b0f4a"/>
      <stop offset="100%" stop-color="#06030f"/>
    </radialGradient>
    <linearGradient id="spell" x1="0" y1="0" x2="1" y2="1">
      <stop offset="0%" stop-color="#a855f7"/>
      <stop offset="45%" stop-color="#ec4899"/>
      <stop offset="80%" stop-color="#22d3ee"/>
      <stop offset="100%" stop-color="#fbbf24"/>
    </linearGradient>
  </defs>
  <rect width="512" height="512" rx="112" fill="url(#bg)"/>
  <g fill="#fff">
    <circle cx="120" cy="130" r="4"/>
    <circle cx="400" cy="150" r="5"/>
    <circle cx="150" cy="380" r="4"/>
    <circle cx="380" cy="360" r="3"/>
    <circle cx="256" cy="90" r="3"/>
  </g>
  <!-- Four-point sparkle -->
  <path fill="url(#spell)" d="M256 116c14 78 46 110 124 124-78 14-110 46-124 124-14-78-46-110-124-124 78-14 110-46 124-124z"/>
  <path fill="#ffffff" opacity="0.9" d="M256 176c7 44 25 62 69 69-44 7-62 25-69 69-7-44-25-62-69-69 44-7 62-25 69-69z"/>
</svg>
