<svg xmlns="http://www.w3.org/2000/svg" viewBox="0 0 2048 2048"><path fill-rule="evenodd" d="M1097.965 586.942c-16.333 3.447-28.725 10.093-40.057 21.484-17.681 17.771-22.862 40.856-14.774 65.827 5.521 17.047 18.465 32.237 40.866 47.956 3.575 2.508 13.925 9.182 23 14.83 31.281 19.467 39.52 25.887 44.846 34.947 2.197 3.736 2.654 5.733 2.654 11.592 0 6.138-.403 7.731-3.033 11.985-8.019 12.97-29.929 15.005-50.721 4.712-5.315-2.632-9.424-5.779-15.419-11.811-6.899-6.941-8.959-9.84-13.211-18.593-2.771-5.704-5.599-12.509-6.284-15.121-1.247-4.75-1.247-4.75-11.429-4.75h-10.183l-.642 20.75c-.354 11.413-.741 28.175-.86 37.25l-.218 16.5h9.842c9.841 0 9.841 0 12.27-5.971 1.336-3.284 2.834-6.375 3.329-6.87.533-.533 3.887.961 8.23 3.666 9.199 5.732 16.166 8.823 26.282 11.662 40.372 11.328 82.929 2.275 100.487-21.377 8.366-11.27 11.533-19.009 12.946-31.636 3.045-27.218-8.435-51.774-34.386-73.551-8.652-7.26-14.838-11.547-50-34.651-17.799-11.695-25.198-18.412-29.127-26.442-2.296-4.692-2.572-6.26-2.113-11.984.699-8.704 4.102-13.688 12.161-17.809 4.931-2.522 6.955-2.979 12.961-2.926 13.148.115 24.963 5.43 35.118 15.798 8.027 8.195 13.567 17.559 17.259 29.175 2.57 8.083 2.57 8.083 13.314 8.313s10.744.23 11.375-7.084c.786-9.121 2.383-62.158 1.888-62.743-.199-.236-4.092-.626-8.65-.865-8.288-.435-8.288-.435-11.116 6.218-2.539 5.975-2.993 6.508-4.449 5.228-2.668-2.347-13.542-7.473-21.328-10.053-17.159-5.687-43.658-7.28-60.828-3.656m-218.715.808-39.25.273v8.427c0 8.427 0 8.427 4.614 9.119 6.628.994 10.956 5.094 12.384 11.732.792 3.678 1.029 31.243.811 94.199-.341 98.207.041 92.67-6.707 97.213-2.246 1.512-4.873 2.287-7.75 2.287-4.352 0-4.352 0-4.353 8.75l-.001 8.75 43.251-.664c23.788-.366 64.896-.98 91.35-1.366l48.099-.703.634-14.657c.349-8.062.939-24.435 1.31-36.384l.675-21.726h-10.43c-10.431 0-10.431 0-12.129 8.25-3.499 17.002-13.99 32.46-25.758 37.953-7.891 3.684-14.358 4.786-32.213 5.489l-15.787.621v-92.534l10.75.41c8.636.329 11.589.848 15.013 2.637 5.665 2.96 9.924 9.04 11.426 16.308C966.4 738 966.4 738 976.2 738h9.8v-70h-9.763c-9.764 0-9.764 0-11.004 5.22-1.568 6.602-5.526 11.624-11.538 14.638-3.718 1.864-6.899 2.47-15.199 2.894l-10.496.535v-82.549l18.75.512c21.259.58 28.065 2.087 35.691 7.903 7.874 6.006 13.512 17.253 15.085 30.097.704 5.75.704 5.75 9.978 5.75s9.273 0 9.832-3.25c.308-1.788.87-16.638 1.249-33l.689-29.75-50.387.238c-27.713.131-68.05.361-89.637.512M1222 622.862V656h8c4.4 0 8.275.112 8.611.25s1.69-3.489 3.009-8.059c2.873-9.951 5.365-15.074 10.461-21.506 7.804-9.85 14.133-12.825 28.689-13.484l10.27-.465-.27 94.382c-.264 92.331-.313 94.456-2.27 97.777-3.459 5.873-6.699 7.554-15.318 7.946-7.682.351-7.682.351-7.682 9.299 0 8.15.178 8.983 2 9.344 1.1.217 23.6 1.331 50 2.474s52.388 2.361 57.75 2.704c9.75.624 9.75.624 9.75-8.519s0-9.143-2.818-9.143c-9.999 0-19.191-6.466-21.066-14.817-.682-3.036-1.151-36.86-1.334-96.147-.282-91.463-.282-91.463 4.718-91.184 8.232.459 18.45 2.929 22.894 5.533 5.628 3.298 13.302 11.674 15.735 17.174 1.093 2.471 2.778 8.169 3.745 12.663 2.011 9.347 2.169 9.46 13.766 9.881 7.478.271 6.749 4.61 6.499-38.706l-.139-24.102-10.25-.65c-50.333-3.19-86.578-4.882-176.5-8.24l-18.25-.681zm-531.5-29.227c-13.062.651-59.955 3.397-68.75 4.026-8.75.626-8.75.626-8.75 9.982s0 9.357 4.25 9.359c6.051.002 10.864 2.725 13.25 7.498 1.949 3.898 2.007 6.29 2.276 93.881.275 89.5.267 89.899-1.821 94.212-2.376 4.908-6.296 7.713-13.205 9.45-4.75 1.194-4.75 1.194-4.75 9.84v8.645l12.25-.725c6.737-.399 32.275-1.877 56.75-3.285 57.06-3.283 67.467-4.125 80.905-6.545 23.308-4.197 38.873-11.004 50.018-21.876 17.303-16.88 20.861-43.471 9.061-67.718-4.937-10.144-13.1-18.135-24.674-24.157-8.301-4.319-22.105-8.553-31.857-9.771-3.049-.381-5.37-.867-5.158-1.08.213-.212 3.946-1.309 8.296-2.438 18.884-4.897 34.184-15.763 40.79-28.967 4.66-9.315 5.948-16.219 5.419-29.049-.4-9.704-.756-11.291-4.124-18.384-7.202-15.165-21.24-24.975-43.176-30.17-10.387-2.46-12.645-2.618-40.5-2.841-16.225-.129-32.65-.079-36.5.113m23 21.388c11.267 1.261 19.679 5.101 25.393 11.593 6.165 7.004 7.614 12.441 7.567 28.384-.035 11.669-.352 14.284-2.334 19.282-5.97 15.049-17.103 22.587-35.949 24.338l-7.177.667v-42.643c0-39.95.111-42.643 1.75-42.636.962.005 5.8.462 10.75 1.015m-191.364 62.659c-3.606 29.755-11.544 45.012-27.464 52.79-6.18 3.019-12.796 5.076-26.172 8.136-3 .687-3 .687 1 1.582 2.2.492 7.15 1.604 11 2.472 15.098 3.403 26.916 12.56 33.388 25.87 3.511 7.219 7.421 23.68 8.694 36.602.374 3.801 1.032 7.127 1.461 7.392.813.503 1.208-1.52 3-15.376 1.295-10.013 5.06-23.446 8.443-30.122 1.353-2.671 4.989-7.587 8.079-10.925 8.185-8.841 19.599-13.891 35.45-15.684 3.27-.37 5.743-1.002 5.494-1.404-.248-.402-3.952-1.295-8.23-1.985-29.977-4.829-42.618-17.167-48.838-47.665-1.331-6.526-2.456-13.215-2.501-14.865s-.42-3.866-.834-4.924c-.494-1.26-1.174 1.538-1.97 8.106m988.382-3.432c-1.746 16.081-6.262 32.477-11.112 40.341-3.216 5.214-8.306 10.477-13.544 14.002-5.829 3.922-17.897 7.972-26.736 8.972-7.802.883-7.58 2.671.457 3.672 13.712 1.708 27.039 7.979 34.102 16.046 7.718 8.816 12.312 20.942 15.323 40.448 1.084 7.023 1.976 13.422 1.981 14.219.007.866.346 1.068.843.5.457-.522 1.368-5.47 2.025-10.994 4.365-36.745 16.699-53.501 43.351-58.896 4.239-.858 8.825-1.56 10.191-1.56s2.741-.418 3.057-.928c.689-1.116-1.188-1.702-8.375-2.617-6.88-.875-17.612-4.51-23.495-7.957-13.501-7.912-21.65-24.707-24.782-51.075-.681-5.733-1.546-10.423-1.923-10.423-.376 0-.99 2.813-1.363 6.25m-984.181 43.175c3.174 6.932 9.398 13.672 16.907 18.307 5.916 3.651 5.916 3.651 1.458 5.917-7.882 4.006-17.365 15.175-19.246 22.668-.718 2.863-2.456 3.692-2.456 1.172 0-6.342-11.282-19.859-19.913-23.857-4.985-2.31-4.985-2.31-1.786-3.838 8.669-4.142 19.436-15.912 21.282-23.267.348-1.39.777-2.527.952-2.527s1.436 2.441 2.802 5.425M1513 713.533c0 3.111 5.334 11.922 9.914 16.378 2.595 2.524 7.163 5.793 10.152 7.265 4.473 2.203 5.08 2.789 3.434 3.314-8.929 2.846-18.888 12.017-22.466 20.688l-2.342 5.678-2.837-5.999c-3.832-8.103-12.859-17.066-19.598-19.459-5.119-1.818-5.119-1.818.562-4.546 3.125-1.501 7.539-4.32 9.811-6.265 4.572-3.916 9.859-11.593 10.908-15.837.722-2.926 2.462-3.786 2.462-1.217m-785.5 6.504c13.76 4.311 23.401 13.678 27.621 26.836 4.465 13.921 3.518 33.929-2.164 45.703-6.528 13.528-17.19 18.74-41.136 20.11l-10.747.615-.055-48.297-.055-48.297 9.768.569c5.733.333 12.66 1.474 16.768 2.761m881.801 33.735c-1.209.951-2.701 3.073-3.316 4.718-3.941 10.54 8.751 19.186 17.149 11.681 2.671-2.386 3.182-3.572 3.266-7.581.088-4.166-.303-5.114-3.166-7.671-2.533-2.265-4.215-2.914-7.5-2.897-2.467.013-5.152.744-6.433 1.75m-1184.088.696c-4.551 2.031-6.835 7.511-5.287 12.68 1.702 5.68 5.46 8.155 11.51 7.579 3.544-.337 5.452-1.106 6.763-2.725 7.624-9.414-2.016-22.431-12.986-17.534M462.725 809c-.295.825-1.032 4.753-1.637 8.728-2.861 18.803-11.055 28.715-27.989 33.854-2.529.768-6.061 1.401-7.849 1.407-5.689.019-3.501 1.529 3.906 2.695 4.303.678 9.768 2.46 13.706 4.472 11.006 5.62 16.021 14.537 18.629 33.119.768 5.47 1.609 10.158 1.87 10.419s.779-2.151 1.152-5.36c3.294-28.351 10.719-38.671 30.487-42.371 9.693-1.814 10.056-2.171 3.5-3.448-17.128-3.338-25.224-9.052-30.004-21.175-.903-2.287-2.449-8.587-3.437-14-.988-5.412-2.038-9.165-2.334-8.34m1114.119 8.224c-3.144 18.1-8.136 26.37-19.136 31.701-3.414 1.654-9.283 3.526-13.041 4.159-3.758.632-6.458 1.484-6 1.892s4.134 1.266 8.169 1.907c19.687 3.125 27.402 13.768 30.773 42.449.37 3.148.984 5.917 1.365 6.152.38.235 1.251-3.848 1.935-9.074 1.77-13.533 4.303-21.748 8.647-28.057 5.178-7.517 10.952-10.288 26.796-12.857 2.119-.344 3.609-.868 3.313-1.165-.297-.297-3.677-1.137-7.51-1.868-3.833-.73-9.251-2.309-12.039-3.509-5.881-2.53-12.419-9.161-15.02-15.234-2.102-4.908-5.064-16.254-5.166-19.784-.197-6.818-1.588-5.336-3.086 3.288M373.741 827.397c-2.068.755-4.389 1.896-5.158 2.534-2.449 2.032-4.583 7.729-4.579 12.22.013 15.518 20.614 20.537 27.811 6.775 6.54-12.506-5.036-26.295-18.074-21.529m1285.902-.4c-3.764 1.169-6.433 3.674-8.749 8.213-2.434 4.767-2.392 8.13.166 13.414 3.826 7.903 13.53 10.344 21.604 5.434 8.357-5.082 8.257-20.403-.164-25.198-3.874-2.207-9.246-2.985-12.857-1.863M1001 861.147c-22.521 1.004-39.119 5.036-57.5 13.969-15.852 7.704-29.729 19.345-40.988 34.384-5.432 7.256-14.631 25.572-17.326 34.5-12.733 42.173-9.153 98.112 8.545 133.5 14.133 28.261 38.984 49.141 70.113 58.909 16.007 5.022 25.191 6.026 55.156 6.029 24.721.002 28.53-.223 37.688-2.224 45.664-9.979 73.869-34.216 88.111-75.714 5.324-15.515 7.402-29.4 7.939-53.048.411-18.064.176-23.045-1.654-35.126-3.691-24.37-9.614-40.546-21.632-59.074-6.861-10.577-22.832-26.688-33.452-33.743-26.731-17.759-54.045-24.189-95-22.362m161 15.573c0 10.026 0 10.026 4.759 10.483 10.425 1.002 14.703 5.65 15.715 17.072.351 3.974.501 50.65.333 103.725-.307 96.5-.307 96.5-2.81 100.97-3.17 5.661-8.481 8.708-16.715 9.59-6.282.673-6.282.673-6.282 9.477s0 8.804 6.25 9.366c3.438.309 18.625 1.017 33.75 1.574s33.255 1.291 40.289 1.632l12.789.618-.289-9.363c-.289-9.364-.289-9.364-6.289-9.946-3.3-.32-7.658-1.133-9.684-1.806-5.434-1.805-10.394-7.816-11.767-14.26-.753-3.541-1.388-30.906-1.875-80.852-.405-41.525-.668-75.63-.584-75.788s1.623 4.117 3.42 9.5c6.43 19.267 61.45 162.272 68.638 178.4 2.799 6.279.6 5.677 27.358 7.501l9.506.648 9.168-25.381c5.042-13.959 11.704-32.58 14.803-41.38s8.502-24.1 12.004-34 12.193-34.65 19.312-55 13.191-37.675 13.493-38.5c.303-.825.595.3.65 2.5 3.434 138.212 3.684 160.678 1.857 166.776-2.514 8.391-9.486 12.707-20.549 12.718-5.25.006-5.25.006-5.25 9.006 0 8.664.084 9 2.25 9.007 8.106.027 123.3 10.851 133.5 12.544 3.25.54 3.25.54 3.25-9.394s0-9.934-3.75-10.625c-8.895-1.637-17.76-7.677-21.193-14.437-3.974-7.826-4.322-13.525-7.544-123.595-1.898-64.811-2.084-86.368-.772-89.5.576-1.375 2.256-3.625 3.733-5 2.399-2.232 3.54-2.5 10.637-2.5 7.95 0 7.95 0 7.669-11-.28-11-.28-11-9.28-11.687-4.95-.378-27.225-1.833-49.5-3.233s-43.018-2.729-46.096-2.954c-6.381-.466-2.195-9.942-32.852 74.374-16.089 44.248-26.468 72.333-28.81 77.952-1.438 3.453-1.438 3.453-4.917-5.5-1.914-4.923-6.329-16.827-9.812-26.452s-8.418-22.9-10.966-29.5a3225 3225 0 0 1-9.503-25c-2.679-7.15-9.675-25.6-15.546-41-5.872-15.4-11.101-29.154-11.62-30.565-.944-2.564-.944-2.564-39.161-4.326-21.019-.969-45.754-2.021-54.967-2.338l-16.75-.576zm-353.5-7.142c-17.6.714-36.115 1.589-41.145 1.946-9.146.647-9.146.647-13.299 12.058-2.285 6.275-7.012 19.849-10.505 30.164-3.492 10.315-9.81 28.879-14.04 41.254a13323 13323 0 0 0-16.569 48.885c-4.884 14.512-9.049 26.556-9.257 26.764s-3.664-8.066-7.68-18.386a51821 51821 0 0 0-14.716-37.763c-4.078-10.45-8.707-22.375-10.287-26.5s-5.187-13.35-8.016-20.5-8.092-20.763-11.696-30.25c-6.553-17.25-6.553-17.25-11.671-17.244-2.816.003-28.025 1.803-56.021 4s-51.172 3.998-51.5 4.002c-.81.011-1.198 11.529-.557 16.492.517 4 .517 4 7.432 4.03 6.175.027 7.323.355 10.721 3.064 2.093 1.669 4.653 4.74 5.689 6.825 1.792 3.609 1.907 8.351 2.396 98.763.392 72.406.223 96.598-.71 101.818-2.236 12.512-10.131 21.731-21.48 25.082-4.589 1.355-4.589 1.355-4.589 10.136 0 10.433-2.606 9.74 25.5 6.776a5380 5380 0 0 1 39.5-3.98c32.606-3.144 29-1.611 28.998-12.325-.001-9.189-.001-9.189-5.553-9.384-9.128-.32-16.045-2.851-20.784-7.605-2.303-2.31-4.808-6-5.567-8.2-1.054-3.052-1.559-15.379-2.131-52-1.12-71.728-1.029-110.637.251-107 2.02 5.736 30.713 77.121 38.789 96.5 4.469 10.725 9.93 24 12.135 29.5s8.769 21.199 14.584 34.888l10.575 24.888 13.601-.756c7.481-.415 14.219-.777 14.973-.804s2.052-1.662 2.886-3.633c.833-1.971 11.767-33.958 24.298-71.083 29.55-87.547 41.341-121.937 41.69-121.589.154.155.93 28.813 1.722 63.685.793 34.872 1.706 69.929 2.03 77.904.462 11.413.264 15.573-.931 19.54-2.492 8.271-8.779 12.819-19.38 14.018-6.186.7-6.186.7-6.186 10.123s0 9.423 8.25 8.833c7.1-.508 115.693-4.514 122.36-4.514 2.223 0 2.39-.375 2.39-5.36 0-2.949-.286-7.449-.636-10-.636-4.64-.636-4.64-5.788-4.64-9.476 0-16.893-5.626-19.621-14.882-1.617-5.487-4.591-107.256-5.207-178.191-.271-31.205-.045-32.688 5.417-35.512 1.505-.778 4.793-1.415 7.308-1.415 4.572 0 4.572 0 4.404-10l-.168-10-10.105.14c-5.557.076-24.504.723-42.104 1.438m219.5 17.376c13.543 6.959 20.813 18.212 25.997 40.239 6.638 28.212 8.882 94.705 4.469 132.435-3.618 30.928-10.981 47.356-24.607 54.904-4.987 2.762-6.088 2.968-15.859 2.968-9.2 0-11.119-.31-15.5-2.5-17.585-8.793-26.945-30.319-30.435-70-3.532-40.153-1.47-99.195 4.34-124.246 3.046-13.136 10.492-26.332 17.661-31.3 5.962-4.132 11.437-5.471 20.934-5.124 6.483.238 9.568.86 13 2.624m-716.563 2.112c-2.364 2.467-2.937 3.947-2.937 7.586 0 3.714.501 4.952 2.806 6.935 3.906 3.359 10.826 3.372 14.173.025 3.246-3.247 4.135-8.523 2.099-12.461-1.989-3.847-4.35-5.151-9.325-5.151-3.023 0-4.527.677-6.816 3.066m1402.486-.143c-7.167 7.167-.225 19.126 9.662 16.645 7.22-1.812 10.01-11.7 4.779-16.932-3.862-3.861-10.423-3.731-14.441.287m-1304.382 15.54c-1.272 11.877-5.392 27.778-9.207 35.533-4.507 9.164-11.997 17.3-19.334 21.002-7.239 3.653-20.474 7.665-30.191 9.153-8.197 1.254-10.445 2.84-4.059 2.862 7.094.025 22.687 3.901 29.767 7.399 9.186 4.539 17.288 12.72 22.48 22.699 4.309 8.283 7.731 21.023 10.579 39.389.938 6.05 2.015 11.35 2.393 11.778s1.469-4.522 2.424-11c5.808-39.391 14.202-54.872 34.823-64.222 7.11-3.224 19.355-6.056 26.183-6.056 7.934 0 5.804-1.623-5.188-3.953-22.182-4.701-33.736-10.001-41.449-19.012-7.04-8.225-12.871-23.308-15.476-40.035-.9-5.775-1.951-10.871-2.336-11.325-.386-.454-1.02 2.15-1.409 5.788M1632 902.89c0 4.449-2.855 18.874-5.168 26.11-5.247 16.413-14.547 27.193-28.468 32.997-9.207 3.838-18.381 6.584-27.114 8.113-3.437.603-6.25 1.467-6.25 1.921s2.588 1.114 5.75 1.468c17.581 1.966 31.718 8.092 41.868 18.143 10.071 9.972 14.823 21.933 19.384 48.789 1.114 6.561 2.19 12.095 2.392 12.296.53.531 1.2-2.648 3.631-17.227 5.355-32.113 14.076-46.991 32.649-55.694 8.53-3.998 18.904-6.758 25.517-6.789 2.03-.009 3.961-.454 4.291-.988.641-1.036.415-1.102-12.278-3.568-10.116-1.965-21.083-5.614-26.612-8.854-13.636-7.992-22.723-25.541-26.71-51.586-1.203-7.859-2.882-10.849-2.882-5.131m6.825 48.347c4.576 6.639 13.617 14.618 19.742 17.422 5.572 2.551 5.572 2.551.515 4.894-9.623 4.459-19.094 15.387-23.047 26.594-2.081 5.9-1.592 6.146-4.954-2.498-2.366-6.086-8.691-14.102-14.524-18.41-3.331-2.46-6.507-4.632-7.057-4.826-7.321-2.587-7.181-2.211-1.864-5.017 10.777-5.687 21.185-16.309 24.145-24.641 1.69-4.758 1.69-4.758 2.898-1.269.664 1.919 2.53 5.407 4.146 7.751m-1224.37-3.485c3.912 7.61 13.872 17.275 20.968 20.348 3.048 1.32 5.539 2.625 5.534 2.9s-1.806 1.329-4.003 2.342c-6.881 3.173-14.349 10.915-18.719 19.405-2.194 4.264-4.564 9.544-5.266 11.733-1.276 3.979-1.276 3.979-2.94-2.102-3.321-12.13-12.426-23.286-23.142-28.354l-5.685-2.688 6.149-2.876c8.085-3.782 17.372-13.09 20.681-20.729 1.357-3.133 2.693-5.703 2.968-5.712s1.83 2.572 3.455 5.733m-113.034 49.144c-7.909 3.592-11.494 11.454-9.336 20.474 2.251 9.406 10.744 14.802 20.018 12.718 5.69-1.278 8.948-3.826 11.647-9.108 5.09-9.961.646-21.403-9.649-24.844-4.737-1.583-7.943-1.391-12.68.76m1428.079-.449c-4.907 1.778-10.244 7.671-11.105 12.262-2.377 12.668 6.593 23.219 18.745 22.052 8.949-.86 14.055-6.466 14.669-16.104.317-4.984-.037-7.183-1.672-10.389-3.717-7.286-12.71-10.694-20.637-7.821m-1255.201 39.454c-9.291 5.835-8.321 20.93 1.685 26.247 9.763 5.188 21.016-1.983 21.016-13.392 0-8.835-4.903-13.934-13.955-14.512-4.263-.272-6.285.111-8.746 1.657m1083.344-.917c-6.051 1.906-9.643 7.344-9.643 14.598 0 8.683 5.654 14.422 14.2 14.414 10.93-.009 17.78-10.928 13.413-21.379-2.588-6.194-11.083-9.802-17.97-7.633m-1303.385 26.712c-1.232.242-3.595 1.795-5.25 3.449-2.456 2.457-3.008 3.837-3.008 7.528 0 5.91 2.463 9.895 7.316 11.837 7.056 2.823 14.346-1.572 15.379-9.272.591-4.404-1.532-10.03-4.478-11.87-2.29-1.431-7.09-2.237-9.959-1.672m1526.063 1.917c-3.287 1.621-6.321 6.583-6.321 10.338 0 2.77 2.216 7.029 4.939 9.494 1.53 1.385 3.599 1.94 7.232 1.94 4.585 0 5.422-.365 8.459-3.678 5.272-5.753 4.421-13.876-1.855-17.703-3.919-2.389-8.134-2.521-12.454-.391m-1410.557 16.168c-7.471 11.289-20.893 22.16-36.037 29.188-4.525 2.1-15.652 6.381-24.727 9.513-26.185 9.038-24.648 9.279 12.5 1.963 64.68-12.737 112.217-16.675 171-14.166 15.214.65 15.828.604 12.5-.929-4.824-2.222-29.187-6.997-42.5-8.329-27.54-2.754-61.904-2.26-89.573 1.288l-9.573 1.228 4.915-7.243c4.825-7.111 7.114-14.321 4.967-15.648-.545-.337-2.108 1.073-3.472 3.135m1297.277-1.281c-.027 3.767 3.978 12.474 8.179 17.777 3.204 4.046 3.204 4.046.551 3.38-10.282-2.58-31.243-4.006-59.271-4.032-32.827-.031-47.417 1.4-70.454 6.908-15.765 3.77-14.671 5.185 3.204 4.143 19.14-1.116 70.234-.114 91.25 1.789 27.379 2.479 47.444 5.514 89.897 13.596 11.494 2.187 21.121 3.754 21.394 3.482.272-.273-.132-.721-.898-.996-41.714-14.976-52.457-19.719-63.511-28.038-3.951-2.974-8.998-7.567-11.217-10.208-10.159-12.091-9.099-11.185-9.124-7.801M347.5 1152.623c-8.386 1.75-21.386 7.732-28.694 13.205-12.734 9.536-23.853 23.769-27.197 34.812-1.81 5.978-1.81 5.978-16.096 10.702-18.297 6.051-39.853 16.701-48.749 24.086-22.091 18.341-15.32 36.12 16.056 42.157 11.037 2.123 38.128 3.611 51.923 2.85 12.244-.675 12.244-.675 21.063 7.695 6.286 5.966 10.992 9.436 16.384 12.083 29.034 14.247 59.993 10.457 85.024-10.409 9.466-7.892 20.251-24.105 24.2-36.385 1.634-5.081 1.634-5.081 13.355-10.5 31.54-14.582 50.442-31.119 52.903-46.283.765-4.713-.131-7.84-3.339-11.652-8.859-10.529-27.436-14.586-62.833-13.723-21 .511-21 .511-28-4.769-3.85-2.904-8.8-6.166-11-7.248-5.47-2.692-15.785-5.927-22.934-7.193-8.203-1.453-23.682-1.177-32.066.572m1310.263-.653c-11.893 2.161-25.402 8.349-34.42 15.768-5.843 4.807-5.843 4.807-13.343 3.975-11.044-1.225-46.204-.148-54.018 1.655-22.511 5.194-30.831 17.219-22.813 32.974 2.804 5.509 12.611 15.019 21.582 20.926 7.829 5.157 24.12 13.81 33.749 17.926 5.84 2.497 6.064 2.736 8.393 8.936 7.461 19.861 22.446 37.616 38.979 46.187 12.984 6.73 19.085 8.187 34.128 8.148 10.875-.029 15.016-.469 21.299-2.261 13.561-3.868 27.274-11.945 36.612-21.565 4.412-4.544 4.412-4.544 28.5-4.537 25.669.007 35.305-1.053 48.265-5.307 19.586-6.43 25.078-21.1 12.931-34.545-8.049-8.909-27.838-19.509-54.327-29.101-7.82-2.832-14.624-5.149-15.12-5.149s-1.449-1.961-2.12-4.358c-2.049-7.318-8.806-18.357-15.727-25.694-14.955-15.852-33.066-23.795-55.813-24.479-6.6-.198-14.131.027-16.737.501m-1271.559 12.985c6.974 2.181 12.257 5.771 13.292 9.032.866 2.73-2.676 9.039-7.545 13.438-4.854 4.386-15.817 9.813-24.451 12.104-18.147 4.816-43.123 1.823-50.524-6.054-3.281-3.493-1.948-6.782 5.843-14.424 7.908-7.756 18.357-13.585 27.956-15.594 9.39-1.965 26.695-1.233 35.429 1.498m1302.532-.389c3.17.805 9.028 3.058 13.018 5.006 10.934 5.338 24.46 18.821 22.917 22.844-.823 2.143-10.519 6.446-18.188 8.07-15.338 3.249-33.428 1.182-47.118-5.382-16.907-8.108-23.575-18.368-16.334-25.133 7.659-7.155 28.917-9.669 45.705-5.405m-798.741.785c-12.022 3.244-25.866 18.352-38.993 42.556-4.661 8.593-4.661 8.593-15.014 8.88-5.694.158-10.954.056-11.69-.226-.979-.376.365-3.924 5.036-13.287 7.599-15.234 8.268-17.442 5.9-19.499-2.631-2.285-7.048-2.991-10.853-1.736-2.78.918-4.675 3.056-10.15 11.452-3.702 5.678-7.953 12.587-9.446 15.353-2.714 5.031-2.714 5.031-12 2.479a9109 9109 0 0 0-16.217-4.437c-7.895-2.148-17.013-2.432-22.761-.71-5.014 1.502-12.278 7.883-15.024 13.196-3.205 6.201-3.103 16.072.217 20.937 2.729 3.999 8.088 6.691 13.32 6.691 4.847 0 5.907-1.58 3.599-5.365-1.251-2.052-1.913-4.983-1.915-8.485-.004-4.753.375-5.729 3.396-8.75 3.198-3.198 3.803-3.4 10.181-3.4 3.729 0 11.806.979 17.947 2.176l11.166 2.176-5.735 12.074c-24.549 51.683-25.028 76.935-1.459 76.915 8.016-.007 15.067-3.652 23.308-12.049 6.308-6.427 6.308-6.427 5.651-2.925-.782 4.167 1.018 10.283 3.401 11.558.935.5 4.345 1.032 7.578 1.182 5.878.272 5.878.272 9.607-11.167 5.224-16.03 12.944-29.939 23.709-42.716 4.478-5.315 10.246-9.34 10.246-7.15 0 .619-2.046 6.238-4.546 12.488-5.249 13.118-7.582 23.027-7.756 32.938-.198 11.232 4.388 16.576 14.289 16.653 6.984.054 12.953-3.142 19.414-10.395 5.402-6.065 5.402-6.065 7.403-2.161 4.161 8.114 10.721 11.869 20.696 11.844 12.688-.032 24.887-7.734 34.026-21.479 7.517-11.308 10.594-22.948 6.283-23.765-1.2-.228-2.531 1.371-4.582 5.504-6.048 12.191-13.495 20.249-22.482 24.328-10.167 4.615-17.745.32-17.745-10.057 0-3.276.376-4.011 2.25-4.396 11.204-2.299 13.66-3.251 20.653-8.008 8.3-5.645 14.246-12.634 16.586-19.496 3.229-9.465.815-17.793-5.979-20.632-5.512-2.304-16.113-1.846-22.01.95-11.756 5.573-22.589 19.746-27.982 36.61-.968 3.025-3.088 7.862-4.712 10.749-3.584 6.374-12.426 16.251-14.546 16.251-2.459 0-1.076-8.234 4.703-28 2.813-9.625 5.386-20.509 5.716-24.187.582-6.477.504-6.784-2.462-9.75-2.595-2.594-3.822-3.063-8.026-3.063-4.11 0-5.971.674-10.827 3.922-5.634 3.768-11.707 10.086-17.857 18.578-5.356 7.396-5.433 7.913 1.367-9.218 1.14-2.871 3.85-8.756 6.024-13.079 3.952-7.86 3.952-7.86 12.745-10.183 18.388-4.858 33.655-15.656 39.701-28.081 9.788-20.115-2.5-36.214-23.349-30.588m321.703.093c-5.742 2.048-11.457 6.395-16.422 12.49-4.356 5.348-12.238 19.914-16.431 30.367-4.298 10.715-13.682 39.704-17.383 53.699-3.326 12.581-4.484 15.455-8.749 21.716-5.664 8.314-12.789 15.284-15.623 15.284-5.024 0-3.473-9.131 6.684-39.356 7.682-22.857 7.682-22.857 5.343-24.75-4.472-3.621-13.547-2.249-15.47 2.338-.392.936-.809.831-1.593-.401-.585-.918-3.089-2.443-5.565-3.388-16.311-6.23-40.321 9.277-52.772 34.082-7.175 14.293-8.657 29.513-3.601 36.982 4.761 7.034 15.807 9.527 24.574 5.547 4.883-2.217 11.954-8.462 17.613-15.554 3.989-5 3.989-5 3.3-1.265-.907 4.921.941 11.6 4.149 14.992 7.487 7.919 19.718 5.461 30.572-6.143 2.616-2.796 4.963-5.084 5.216-5.084s.46 1.283.46 2.852 1.014 4.357 2.253 6.196c7.468 11.081 23.67 9.476 35.55-3.522 4.922-5.387 4.922-5.387 6.082-1.515 1.59 5.305 8.024 10.703 13.788 11.567 8.52 1.278 19.117-5.106 28.037-16.889l4.79-6.327.034 6.569c.06 11.675 5.058 17.058 15.844 17.065 10.738.007 20.18-7.412 28.017-22.014 5.442-10.14 8.735-19.87 7.504-22.171-1.724-3.221-3.651-1.948-7.475 4.939-5.711 10.284-10.791 17.446-15.205 21.434-6.904 6.236-10.171 6.017-10.202-.684-.025-5.283 4.66-22.525 10.98-40.409 6.941-19.645 6.925-19.895-1.367-20.829-4.186-.472-4.861-.228-7.925 2.861-3.349 3.377-3.349 3.377-5.548.694-4.455-5.437-17.5-5.734-28.028-.638-5.647 2.734-17.072 13.481-22.668 21.324-2.376 3.329-6.597 10.766-9.381 16.525-8.22 17.01-17.993 27.399-22.884 24.329-2.414-1.515-2.72-11.905-.628-21.308 1.675-7.527 1.675-7.527 14.723-21.038 30.584-31.67 45.709-56.043 45.709-73.656 0-5.565-1.437-9.145-5.267-13.115-4.912-5.093-13.204-6.589-21.035-3.796m12.903 13.103c2.095 8.348-5.535 26.969-19.442 47.451-4.568 6.727-20.478 26.964-20.896 26.579-.13-.12 1.967-6.261 4.661-13.647 13.705-37.573 20.245-51.983 26.601-58.618 4.786-4.994 8.104-5.639 9.076-1.765m-321.61-.058c2.988 3.601-2.927 17.287-10.753 24.879-2.725 2.643-6.256 5.669-7.847 6.724-3.464 2.298-13.454 6.178-14.14 5.492-.267-.267 1.645-4.445 4.249-9.285 11.653-21.656 23.777-33.49 28.491-27.81m-433.843 2.83c10.135 3.323 14.84 7.75 14.848 13.971.022 16.57-46.127 43.129-99.326 57.163-31.45 8.296-54.229 11.577-85.17 12.269-33.505.75-52.741-2.466-58.958-9.855-8.541-10.15 6.044-24.674 36.643-36.492 4.807-1.856 9.469-3.375 10.361-3.375 3.474 0 .442 2.573-8.174 6.939-14.396 7.295-20.372 13.028-20.372 19.547 0 7.173 7.945 11.313 23.897 12.455 40.111 2.87 98.506-9.745 159.103-34.373 13.237-5.379 18.391-8.223 22.232-12.265 10.324-10.865-4.43-22.259-28.867-22.295-4.35-.007-5.382-.385-6.75-2.473-.888-1.355-1.615-2.76-1.615-3.12 0-1.35 37.374.339 42.148 1.904m1137.524-1.495c4.083.662 4.135.72 2.473 2.76-1.422 1.746-3.238 2.188-11.171 2.718-11.444.765-18.52 2.756-22.286 6.27-5.144 4.799-5.485 9.16-1.167 14.928 4.444 5.939 10.867 8.868 52.979 24.161 10.356 3.76 34.388 11.006 47.5 14.32 23.222 5.871 47.769 9.222 68.5 9.351 21.035.132 32.734-2.932 36.445-9.544 1.383-2.463 1.327-3.048-.692-7.205-2.732-5.621-8.702-10.107-21.003-15.78-6.573-3.031-9.25-4.777-9.25-6.034 0-2.303.533-2.253 9.19.858 25.249 9.076 42.81 21.892 42.81 31.242 0 4.37-1.296 6.533-5.454 9.103-9.627 5.949-29.176 8.547-58.046 7.713-22.711-.657-37.822-2.431-58-6.809-71.445-15.501-127.757-44.699-124.074-64.332 1.209-6.444 9.833-11.696 22.074-13.444 7.317-1.044 23.484-1.197 29.172-.276m-1161.762 14.25c5.731 1.229 10.09 4.22 10.09 6.922 0 1.018-1.172 3.244-2.605 4.947-2.599 3.088-11.094 8.692-11.922 7.864-.239-.24-1.094-3.878-1.899-8.084s-1.938-8.535-2.519-9.619c-.58-1.085-1.055-2.227-1.055-2.538 0-.892 4.446-.664 9.91.508m1157.626.676c-1.577 4.066-3.536 12.91-3.536 15.96 0 1.81-.277 3.29-.615 3.29s-2.7-1.136-5.25-2.524c-4.992-2.719-9.514-8.292-8.971-11.057.732-3.722 7.933-7.08 15.693-7.317 2.808-.085 3.246.184 2.679 1.648m-1019.506 5.529c-3.571 1.807-7.03 7.45-7.03 11.468 0 4.775 2.726 10.06 6.085 11.797 1.549.801 4.645 1.456 6.88 1.456 3.213 0 4.827-.699 7.704-3.335 3.182-2.916 3.698-4.047 4.108-8.995.458-5.516.369-5.759-3.536-9.664-3.304-3.304-4.684-4.003-7.873-3.991-2.128.008-4.979.577-6.338 1.264m-265.251 5.606c10.455 5.273 33.788 11.098 44.579 11.13 3.689.011 4.718.29 3.642.985-2.453 1.585-24.819 1.197-31.54-.547-11.168-2.899-19.971-7.85-22.587-12.703-1.256-2.329-.785-2.239 5.906 1.135m1407.832.586c-2.261 3.45-8.454 7.397-15.365 9.791-4.539 1.572-9.002 2.061-21.246 2.327-16.611.36-16.287-.144 2-3.114 10.353-1.681 22.203-5.451 31-9.862 2.475-1.241 4.673-2.126 4.885-1.966s-.361 1.43-1.274 2.824M289.008 1229.25c.004 1.787.857 6.799 1.895 11.136 1.887 7.887 1.887 7.887-5.392 7.336-7.353-.556-13.179-2.692-14.135-5.184-1.182-3.082 4.538-10.184 11.624-14.432 4.844-2.904 5.999-2.684 6.008 1.144m1467.57-.319c6.233 3.575 11.648 9.515 11.229 12.318-.403 2.695-4.499 5.66-9.384 6.794-3.79.878-13.423 1.317-13.423.611 0-.191.686-1.721 1.524-3.401s1.804-6.699 2.148-11.154c.375-4.863 1.065-8.095 1.726-8.09.606.006 3.387 1.32 6.18 2.922m-915.885-.681c-.287.688-2.518 5.975-4.958 11.75s-6.161 15.225-8.268 21c-4.861 13.32-10.3 22.592-18.228 31.071-6.32 6.759-10.936 9.643-13.721 8.574-2.242-.86-1.956-10.455.58-19.495 2.567-9.148 11.321-31.234 17.599-44.4 4.648-9.75 4.648-9.75 16.083-9.75 8.759 0 11.312.292 10.913 1.25m183.951 5.83c-11.956 4.851-23.491 16.496-30.134 30.42-6.489 13.6-8.009 22.766-5.284 31.86 2.554 8.525 12.763 14.803 21.429 13.177 8.124-1.524 17.684-8.719 24.631-18.537 1.769-2.5 1.769-2.5 1.166 0-.332 1.375-3.109 9.752-6.17 18.617l-5.566 16.116-10.91.691c-21.789 1.378-37.927 5.085-51.794 11.895-10.746 5.278-22.212 16.131-26.601 25.181-2.56 5.277-2.911 7.094-2.911 15.078 0 8.357.24 9.467 3.022 13.967 5.88 9.511 15.833 13.88 31.478 13.818 10.748-.042 19.37-2.006 28.059-6.393 9.177-4.632 20.263-14.246 27.434-23.789 6.093-8.109 14.947-24.082 18.848-34 1.698-4.32 1.698-4.32 7.429-3.648 16.654 1.954 38.654 6.57 92.73 19.455 74.985 17.867 89.126 20.368 115.5 20.429 14.834.035 15.875-.097 24.222-3.062 4.798-1.703 11.998-4.972 16-7.264 8.243-4.719 21.118-14.989 22.851-18.227 1.058-1.977.958-2.102-1.21-1.504-7.551 2.087-30.528 5.728-42.477 6.732-20.094 1.688-52.567.607-74.606-2.485-9.746-1.368-36.296-6.104-59-10.525-48.505-9.446-66.912-12.582-83.28-14.189-6.6-.647-12.153-1.304-12.34-1.458-.187-.155 1.726-7.016 4.25-15.248s6.648-23.004 9.165-32.827 5.892-22.705 7.5-28.627c3.604-13.268 3.633-14.513.36-15.758-4.908-1.866-9.381-1.183-12.467 1.903-2.87 2.87-2.884 2.872-4.673.862-.987-1.109-3.243-2.629-5.013-3.378-4.731-2.003-15.843-1.634-21.638.718m-353.144.802c-12.237 5.622-22.682 16.676-41.712 44.147-1.533 2.212-1.518 1.894.145-3.029 1.021-3.025 4.379-11.866 7.462-19.647S643 1241.511 643 1240.66c0-4.165-8.824-6.014-15.463-3.24-3.017 1.261-4.283 3.201-11.262 17.25-10.614 21.368-18.257 33.335-26.903 42.123-6.011 6.109-7.701 7.298-9.987 7.03-7.135-.837-4.789-16.769 7.236-49.131 5.657-15.225 5.098-16.692-6.358-16.692-5.15 0-5.846.288-9.182 3.794-2.474 2.6-4.956 7.241-7.891 14.75-6.163 15.77-8.23 24.425-8.826 36.956-.482 10.131-.339 11.355 1.806 15.496 3.28 6.329 8.307 8.966 17.13 8.988 10.192.024 16.234-3.7 25.676-15.83 3.012-3.869 5.575-6.937 5.695-6.816.12.12-.196 2.006-.702 4.19-2.696 11.626.238 16.488 9.927 16.45 3.772-.015 6.319-.587 7.791-1.75 1.203-.951 6.187-8.769 11.076-17.375s11.555-19.355 14.813-23.886c9.127-12.696 21.231-24.493 23.156-22.569.368.369-2.189 9.075-5.682 19.349-5.514 16.217-6.407 19.87-6.777 27.716-.377 7.995-.158 9.556 1.9 13.537 5.891 11.394 24.278 13.108 40.744 3.799 7.965-4.503 20.768-17.708 26.912-27.757 2.844-4.652 5.171-9.463 5.171-10.691 0-4.71-2.371-3.638-9.662 4.368-12.654 13.894-28.386 25.146-37.469 26.798-3.076.56-3.878.308-5.25-1.651-3.167-4.521-1.68-11.524 8.291-39.035 3.322-9.168 6.333-18.5 6.691-20.739.819-5.119-.805-9.191-4.548-11.401-3.933-2.324-14.301-2.222-19.553.191m772.466-1.062c-4.303 1.908-6.724 5.28-15.273 21.276-5.116 9.572-11.497 20.73-14.18 24.795-9.109 13.798-19.715 23.397-24.025 21.743-4.096-1.572.051-20.606 10.114-46.416 2.419-6.205 4.398-12.415 4.398-13.801 0-5.026-11.374-7.023-17.424-3.059-2.466 1.616-2.994 2.605-12.084 22.642-6.678 14.719-12.226 23.387-19.94 31.151-6.279 6.32-11.548 9.303-14.677 8.309-2.645-.839-6.175-8.745-8.115-18.174-1.482-7.204-1.482-7.204 14.809-23.174 18.637-18.269 20.068-20.054 18.467-23.045-3.152-5.889-13.803.197-27.974 15.985-4.425 4.93-8.376 9.072-8.781 9.205-.404.134-1.753-4.482-2.998-10.257-2.864-13.283-3.917-14.359-13.522-13.817-5.348.303-7.24.852-9.001 2.613-2.23 2.229-2.23 2.229.676 16.467 1.598 7.83 3.646 17.236 4.551 20.902 1.645 6.666 1.645 6.666-3.335 12.343-4.487 5.115-16.532 15.535-22.583 19.537-2.202 1.456-2.238 1.643-.631 3.25 3.098 3.098 7.775 2.119 15.926-3.333 4.143-2.77 9.33-7.08 11.528-9.577 3.996-4.539 3.996-4.539 6.55.501 5.724 11.296 12.87 15.878 23.113 14.82 3.211-.331 7.326-1.618 9.79-3.062 4.988-2.924 14.157-12.095 17.408-17.413 2.28-3.731 2.28-3.731 1.751 1.769-.665 6.912 1.846 14.49 5.757 17.372 1.896 1.398 4.793 2.164 9.251 2.448 5.526.352 7.308.013 11.989-2.277 9.846-4.817 21.275-17.146 29.472-31.793 1.77-3.162 3.329-5.75 3.466-5.75.136 0-1.461 7.313-3.549 16.25s-4.571 19.749-5.519 24.026c-1.723 7.775-1.723 7.775-11.797 10.799-34.328 10.303-56.529 22.071-70.086 37.15-16.871 18.764-14.777 40.538 4.74 49.297 5.01 2.248 8.145 2.897 15.785 3.265 33.959 1.635 60.117-22.843 75.68-70.819 5.687-17.532 5.687-17.532 19.16-22.963 17.796-7.173 31.661-15.45 40.224-24.013 7.644-7.644 10.923-13.219 10.923-18.574 0-3.661 0-3.661-6.368 3.21-10.703 11.552-27.196 22.034-46.803 29.748-7.853 3.089-9.141 3.223-8.445.874 1.561-5.26 14.616-73.952 14.616-76.901 0-2.971-8.872-5.373-13.034-3.529m-496.94 9.712c2.906 3.501-3.869 15.926-12.332 22.616-5.725 4.525-13.578 9.302-14.226 8.653-.823-.823 8.024-17.266 12.379-23.009 4.109-5.417 9.317-9.738 11.781-9.775.62-.009 1.699.672 2.398 1.515m98.871 1.587c1.968 2.114 1.967 2.14-.586 9.25-4.615 12.859-10.647 23.119-19.431 33.053-5.009 5.664-12.235 10.578-15.557 10.578-8.611 0 1.119-29.462 14.583-44.156 5.964-6.509 12.484-10.697 16.805-10.794 1.216-.028 3.1.904 4.186 2.069m80.101-.322c2.219 1.798 2.219 1.798-1.971 12.515-8.817 22.553-28.126 45.243-34.895 41.007-7.664-4.796 7.388-37.573 22.654-49.328 4.523-3.483 8.697-5.756 10.853-5.91.627-.044 2.138.728 3.359 1.716m130.535.239c2.199 2.43 1.722 4.189-5.069 18.698-7.681 16.411-19.587 31.354-27.654 34.708-3.373 1.403-3.834 1.391-5.366-.141-1.332-1.332-1.547-2.766-1.049-7.006 1.77-15.057 16.579-38.224 28.981-45.337 6.077-3.486 7.703-3.633 10.157-.922M1661 1268.949c15.797 4.229 39.243 9.051 44.007 9.051 4.787 0 3.49 1.9-3.443 5.044-23.842 10.81-56.688 2.324-75.648-19.544-6.778-7.817-7.002-7.726 7.245-2.927 7.336 2.472 19.864 6.241 27.839 8.376m-1247.143-6.778c-16.246 19.404-44.085 29.643-66.335 24.397-6.644-1.566-15.522-5.8-15.522-7.402 0-.413 5.063-1.543 11.25-2.512 15.351-2.403 35.914-7.528 56.25-14.02 9.35-2.984 17.379-5.473 17.843-5.53s-1.105 2.223-3.486 5.067m72.691 11.504c-2.411 20.032-10.003 32.358-22.903 37.185-2.831 1.059-8.635 2.512-12.897 3.228-8.012 1.346-10.331 2.912-4.313 2.912 5.242 0 17.146 2.746 21.471 4.952 4.446 2.268 9.286 6.854 12.647 11.983 2.719 4.15 6.077 15.676 7.036 24.151.72 6.36 2.411 8.116 2.411 2.502 0-5.802 2.822-18.52 5.31-23.932 3.045-6.623 6.845-11.077 12.059-14.132 4.848-2.841 15.216-5.488 21.581-5.509 5.868-.02 4.208-1.316-4.281-3.344-10.636-2.541-18.079-6.332-23.222-11.831-5.562-5.946-8.712-12.781-11.028-23.931-.961-4.625-2.068-8.78-2.459-9.234s-1.026 1.796-1.412 5m1060.007-1.175c-2.678 17.798-7.075 27.598-15.141 33.746-5.374 4.096-13.917 7.302-22.282 8.362-6.466.82-5.072 1.871 3.754 2.829 19.496 2.116 29.726 12.603 34.034 34.89 1.992 10.305 3.08 13.105 3.08 7.928 0-5.866 2.921-18.308 5.522-23.519 4.946-9.91 11.744-15.122 23.973-18.379 2.753-.733 6.917-1.339 9.255-1.345 6.584-.019 5.025-1.492-3.005-2.841-7.806-1.312-16.205-4.759-21.576-8.855-6.504-4.962-12.504-17.317-15.693-32.316-1.169-5.5-1.169-5.5-1.921-.5M295.5 1317.945c-8.279 3.389-8.272 15.812.011 19.761 2.885 1.376 4.052 1.442 7.458.421 5.044-1.511 7.531-5.115 7.531-10.915 0-3.679-.52-4.841-3.266-7.294-3.348-2.991-7.528-3.694-11.734-1.973m1437.611 1.615c-8.428 7.091-1.729 21.092 9.118 19.057 5.376-1.009 8.271-4.782 8.271-10.78 0-4.385-.402-5.361-3.266-7.919-4.322-3.862-9.794-4-14.123-.358m-321.189 21.69c-3.932 10.073-11.623 25.361-16.43 32.657-6.974 10.586-16.743 20.111-24.528 23.916-10.804 5.281-20.463 4.256-23.009-2.44-5.164-13.585 10.598-34.776 35.307-47.469 8.116-4.169 26.672-11.498 29.973-11.838.405-.042-.186 2.286-1.313 5.174m-395.327 2.561c-9.943 19.745-25.906 38.263-38.201 44.316-5.44 2.678-8.005 3.344-12.933 3.357-10.699.028-14.959-3.983-14.853-13.984.232-21.846 27.961-40.021 61.655-40.41 7.762-.09 7.762-.09 4.332 6.721m-627.285 4.266c-3.55 2.274-7.31 9.1-7.31 13.271 0 7.391 6.27 14.59 13.407 15.394 5.648.637 9.695-.956 13.53-5.323 5.991-6.824 4.393-18.809-3.119-23.389-4.465-2.722-12.22-2.7-16.508.047m1247.69-1.01c-7.029 2.945-10.954 10.678-9.035 17.802 2.802 10.408 13.937 15.399 22.045 9.881 5.529-3.763 7.49-7.232 7.49-13.25 0-5.724-1.781-9.128-6.698-12.798-3.032-2.264-10.257-3.12-13.802-1.635m-785.5 2.922c-73.683 4.768-145.897 17.394-196.964 34.436-25.683 8.571-35.894 13.758-36.564 18.575-.434 3.117.162 3.811 5.09 5.931 9.774 4.205 12.566 3.945 30.938-2.88 18.832-6.997 49.469-16.627 66.746-20.982 55.841-14.074 120.516-23.167 184.185-25.897 9.327-.4 17.295-1.065 17.708-1.477 1.644-1.644-3.506-4.772-10.174-6.18-8.651-1.827-43.024-2.687-60.965-1.526m-312.291 5.679c-6.58 3.242-9.99 10.638-8.742 18.959 1.011 6.744 7.085 12.883 13.731 13.88 9.258 1.388 16.818-3.313 19.353-12.036 1.875-6.449.843-11.661-3.281-16.562-4.855-5.77-14.159-7.643-21.061-4.241m940.311.619c-10.044 5.689-11.469 20.529-2.681 27.924 11.753 9.89 28.197 2.34 28.145-12.921-.034-9.625-7.545-17.257-16.984-17.257-2.825 0-5.981.839-8.48 2.254m-401.153 23.631c-4.602 2.806-6.367 5.902-6.367 11.17 0 5.216 2.327 8.996 7.039 11.432 5.431 2.809 11.694 1.177 15.873-4.135 2.603-3.309 2.79-10.389.382-14.465-3.31-5.603-11.231-7.475-16.927-4.002M790.4 1401.4c-2.902 2.902-3.4 4.088-3.4 8.1s.498 5.198 3.4 8.1c3.901 3.901 8.013 4.45 12.68 1.694 2.923-1.727 5.92-6.684 5.92-9.794 0-3.194-3.267-8.587-6.085-10.044-4.776-2.47-8.713-1.858-12.515 1.944m74.63 1.122c-7.397 3.339-11.03 9.301-11.03 18.1 0 10.97 7.317 18.378 18.152 18.378 6.755 0 11.414-2.39 15.275-7.836 2.461-3.471 2.936-5.126 2.984-10.396.067-7.394-2.577-12.973-7.867-16.597-4.383-3.004-12.765-3.792-17.514-1.649m374.226 1.456c-2.906 1.235-6.247 6.75-6.252 10.322-.014 10.38 12.584 14.53 19.224 6.333 2.605-3.217 2.346-10.854-.48-14.139-2.5-2.907-8.654-4.147-12.492-2.516m-85.601 7.481c-14.04 5.006-16.999 24.008-5.333 34.25 6.251 5.489 17.617 5.863 24.257.799 5.136-3.918 8.86-12.287 8.061-18.116-1.911-13.946-14.032-21.552-26.985-16.933m-136.309 12.508c-2.986 18.963-14.023 30.233-32.802 33.494-4.219.733-7.861 1.523-8.094 1.756-.233.232 3.436.939 8.152 1.57 18.265 2.444 27.505 10.26 31.821 26.917.868 3.347 1.577 7.257 1.577 8.69 0 5.4 1.748 2.336 2.252-3.948.362-4.511 1.496-8.523 3.637-12.872 5.728-11.635 14.923-17.515 30.266-19.356 7.88-.946 7.671-1.335-1.655-3.081-8.358-1.565-17.703-6.402-22.08-11.429-4.517-5.186-8.073-12.908-9.85-21.385-.742-3.54-1.528-6.614-1.746-6.832s-.883 2.696-1.478 6.476"/></svg>