<svg xmlns="http://www.w3.org/2000/svg" viewBox="0 0 2048 2048"><path fill-rule="evenodd" d="M1018.211 292.891c-12.022.479-15.491.929-16.235 2.109-1.14 1.809-1.14.123.002 68.412.772 46.183 1.153 55.147 2.393 56.387 1.256 1.256 4.039 1.343 18.801.588l17.328-.887.268-19.5.268-19.5 6.29.327c4.822.25 6.56.762 7.454 2.192.641 1.026 5.055 8.979 9.809 17.673 4.754 8.695 9.336 16.596 10.183 17.558 1.357 1.544 3.644 1.75 19.449 1.75 10.445 0 18.718-.432 19.847-1.036l1.936-1.036-2.143-4.214c-1.178-2.318-5.147-9.389-8.819-15.714s-8.196-14.358-10.053-17.852l-3.376-6.352 1.83-1.024c3.71-2.076 9.739-8.227 12.228-12.474 4.072-6.949 6.332-15.599 6.305-24.137-.014-4.214-.487-9.667-1.052-12.119-1.411-6.123-5.431-13.886-9.243-17.848-4.594-4.775-11.763-9.105-18.933-11.436-5.375-1.748-9.251-2.063-27.748-2.254-11.825-.122-28.38.052-36.789.387m-55.711 2.125c-6.05.389-24.5 1.466-41 2.393s-31.457 1.908-33.238 2.181-3.622 1.264-4.091 2.203c-.484.967-.304 10.598.414 22.207.698 11.275 2.196 36.025 3.329 55 2.656 44.446 2.881 46.707 4.713 47.41.817.314 15.747-.299 33.179-1.362s37.877-2.244 45.433-2.625c9.255-.466 14.088-1.112 14.809-1.981.723-.871.84-5.715.361-14.943-.534-10.293-1.09-14.037-2.26-15.207-1.324-1.325-3.465-1.443-14.6-.809-26.558 1.512-41.069 2.126-41.799 1.767-.413-.202-.75-3.652-.75-7.667v-7.298l10.75-.633c5.913-.349 17.275-.922 25.25-1.276 7.975-.353 15.118-1.133 15.873-1.733 1.101-.876 1.236-3.569.682-13.617-.38-6.889-.951-13.606-1.269-14.925l-.578-2.4-14.104.648c-7.757.356-19.548.939-26.201 1.294l-12.097.647-.694-6.771c-.381-3.724-.414-7.05-.072-7.392.736-.737 33.43-2.948 45.139-3.053 11.403-.103 11.573-.33 10.819-14.442-.327-6.122-.811-12.551-1.074-14.285-.455-2.999-2.192-4.53-4.756-4.193-.642.084-6.118.472-12.168.862m222.639.331c-.521.634-1.459 13.528-2.086 28.653a16039 16039 0 0 1-2.588 59c-.796 17.325-1.444 32.625-1.441 34 .004 1.375.346 3.034.761 3.686.525.826 13.204 1.811 41.735 3.243 34.475 1.73 62.982 3.577 84.339 5.465l4.36.385 4.358-9.39c3.639-7.841 4.734-9.388 6.64-9.386 2.608.004 31.198 2.702 37.385 3.528l4.102.547 1.778 8.711c.979 4.791 2.292 9.266 2.919 9.945 1.436 1.556 37.677 5.309 39.099 4.05.652-.578-3.13-17.296-10.879-48.085-15.691-62.343-20.612-81.018-21.631-82.076-.81-.842-34.502-4.495-42.248-4.581l-3.757-.042-9.605 19.75c-8.723 17.936-24.902 51.765-32.642 68.25-1.678 3.575-5.487 11.675-8.463 18l-5.411 11.5.589-12.5c.324-6.875.201-13.085-.272-13.8-.624-.943-7.993-1.717-26.747-2.81-14.237-.83-25.985-1.607-26.105-1.728-.121-.12.202-8.981.718-19.69 2.163-44.955 2.834-71.41 1.843-72.605-1.034-1.245-7.924-1.982-25.598-2.737-6.981-.299-10.507-.072-11.153.717M861 301.677c-1.925.196-14.3 1.272-27.5 2.39-20.425 1.73-38.142 3.458-67.754 6.607-3.165.336-6.491 1.15-7.391 1.809l-1.637 1.196 1.766 13.911c.972 7.65 2.338 14.522 3.036 15.269 1.069 1.145 3.841 1.106 17.578-.247 8.97-.883 16.61-1.269 16.978-.859.604.673 6.972 61.633 8.565 81.994.393 5.02 1.177 8.687 2.003 9.373 1.008.836 5.611.797 17.877-.152 9.086-.702 17.183-1.77 17.994-2.373 1.29-.958.979-6.416-2.482-43.595-2.177-23.375-4.15-44.142-4.386-46.148l-.429-3.649 5.141-.555c2.827-.305 10.654-1.093 17.392-1.75 7.555-.736 12.666-1.696 13.336-2.503.785-.946.687-5.235-.352-15.451-1.397-13.735-2.217-16.205-5.235-15.769-.55.08-2.575.306-4.5.502m555.044 10.77c-1.63 1.964-4.558 29.439-3.274 30.723.54.54 8.277 1.812 17.192 2.826s16.446 2.078 16.733 2.365-1.122 13.036-3.132 28.331c-7.034 53.524-8.195 63.286-7.631 64.159.312.484 1.468 1.15 2.568 1.48 2.851.856 33.737 4.765 34.177 4.326.615-.616 3.07-15.587 4.288-26.157 1.263-10.959 9.053-66.871 9.35-67.116.102-.083 8.201.833 17.998 2.035s17.982 1.913 18.189 1.578c.587-.951 3.498-24.023 3.498-27.73 0-2.53-.534-3.511-2.25-4.136-1.237-.451-7.875-1.563-14.75-2.473-27.747-3.67-74.894-9.584-81-10.161-3.575-.337-7.461-.808-8.636-1.046-1.174-.237-2.668.211-3.32.996M705.5 318.479c-55.545 7.554-62.482 8.677-64.589 10.456l-1.852 1.565 2.235 13.9c1.539 9.571 2.716 14.203 3.779 14.874 1.045.66 6.968.19 18.342-1.454 11.221-1.621 16.917-2.077 17.155-1.374.196.58 3.23 20.988 6.741 45.352 3.512 24.364 6.907 44.82 7.546 45.459.88.88 5.163.652 17.763-.946 10.091-1.28 17.136-2.639 17.962-3.464 1.084-1.085 1.151-2.665.333-7.852-2.274-14.42-11.706-84.517-11.413-84.82.315-.325 31.979-5.101 34.141-5.149.629-.014 1.425-.76 1.769-1.658.91-2.371-2.433-25.466-4.069-28.118-.923-1.495-2.304-2.22-4.116-2.162-1.5.048-20.277 2.475-41.727 5.391m361.489 7.015c1.589.822 3.592 2.497 4.45 3.723 1.974 2.818 2.032 10.971.105 14.698-2.315 4.477-6.956 6.034-19.312 6.478l-10.969.394-.632-6.04c-.347-3.322-.631-9.349-.631-13.394V324h12.05c8.734 0 12.844.411 14.939 1.494m474.022 4.756c-.52 1.238-2.758 12.825-4.974 25.75-12.451 72.633-16.137 95.297-15.688 96.466.275.716 3.571 1.819 7.325 2.45s24.525 4.337 46.156 8.235c26.993 4.865 39.653 6.766 40.36 6.059 1.577-1.577 5.7-27.416 4.688-29.379-.474-.918-2.103-1.914-3.62-2.213-8.725-1.724-35.975-6.779-43.071-7.991-4.572-.781-8.473-1.58-8.669-1.776-.485-.485 1.959-14.661 2.646-15.348.302-.302 11.622 1.487 25.157 3.974s25.251 4.523 26.036 4.523c1.701 0 2.309-2.152 4.559-16.137.957-5.945 1.372-11.557.941-12.721-.424-1.145-1.802-2.32-3.064-2.612-1.261-.291-12.643-2.375-25.293-4.631s-23.063-4.169-23.139-4.25c-.365-.39 2.217-13.579 2.764-14.117.343-.338 10.705 1.175 23.026 3.362s24.706 4.283 27.521 4.657c4.467.592 5.192.441 5.679-1.186.308-1.026 1.53-7.147 2.716-13.602 1.186-6.456 1.891-12.795 1.566-14.088l-.589-2.35-15.772-2.687c-37.785-6.439-74.832-12.636-75.543-12.637-.425 0-1.198 1.011-1.718 2.249m-962.525 8.625c-23.107 4.243-42.57 8.059-43.25 8.479S534 349.13 534 350.368s2.227 14.148 4.95 28.691c2.722 14.542 7.692 41.066 11.044 58.941s6.644 33.053 7.315 33.728c1.355 1.366 7.249.468 57.191-8.714 15.4-2.832 29.8-5.474 32-5.872l4-.724-.058-4.959c-.067-5.81-3.135-23.346-4.459-25.484-.788-1.273-4.712-.829-28.675 3.248-15.269 2.598-28.085 4.398-28.479 4-.738-.744-3.136-14.258-2.619-14.755.16-.153 9.515-1.909 20.79-3.902 29.369-5.191 30.764-5.509 31.395-7.153.708-1.846-3.932-27.35-5.209-28.627-.578-.578-5.262-.132-12.31 1.173-12.826 2.376-31.49 5.585-37.123 6.383-4.151.588-3.914.956-5.685-8.841-.496-2.75-.805-5.098-.685-5.218.286-.286 42.726-7.959 48.822-8.827 2.588-.368 5.41-1.185 6.271-1.815l1.567-1.146-2.528-13.497c-1.39-7.424-2.736-14.06-2.99-14.748-.266-.72-2.066-1.216-4.244-1.17-2.079.045-22.687 3.552-45.795 7.795m773.548 23.429c2.308 10.889 3.98 20.015 3.716 20.28-.405.405-23.872-1.49-24.443-1.974-.107-.09 3.486-8.784 7.984-19.319 4.498-10.536 8.261-19.073 8.362-18.971.102.101 2.073 9.094 4.381 19.984M475 361.525c-12.023 2.009-69.105 15.175-70.057 16.158-.434.449 5.456 27.367 13.091 59.817s14.133 60.012 14.442 61.25c.353 1.412 1.32 2.25 2.598 2.25 2.671 0 45.219-9.262 59.926-13.045 6.325-1.627 14.71-4.531 18.633-6.453s9.411-5.634 12.196-8.249c2.833-2.66 6.047-6.955 7.297-9.753 1.714-3.834 2.233-6.866 2.228-13-.005-4.486-.731-10.444-1.655-13.564-.906-3.06-2.989-7.417-4.631-9.683-3.526-4.868-9.875-8.83-16.776-10.469l-4.973-1.182 2.86-2.406c1.573-1.324 4.061-4.455 5.528-6.959 2.14-3.651 2.749-6.155 3.077-12.645.328-6.469-.007-9.195-1.667-13.592-1.142-3.025-3.452-7.167-5.132-9.205-4.236-5.135-13.78-9.559-21.985-10.19-3.575-.275-10.325.139-15 .92m2.343 31.585c2.602 1.186 4.657 4.711 4.657 7.987 0 2.909-2.699 7.672-5.066 8.938-2.07 1.108-23.102 6.131-23.597 5.636-.147-.148-1.382-4.433-2.745-9.523-1.799-6.725-2.15-9.364-1.284-9.652 2.881-.959 20.446-4.349 22.895-4.419 1.487-.042 3.799.423 5.14 1.033m13.044 45.847c2.885 1.097 5.613 5.734 5.613 9.543 0 4.022-2.578 8.072-6.246 9.812-3.897 1.85-24.588 6.187-25.442 5.334-.576-.577-5.357-19.959-4.999-20.266.59-.505 23.637-5.22 25.872-5.293 1.477-.048 3.818.344 5.202.87m550.112 36.409c-4.951.708-13.226 2.331-18.389 3.607l-9.388 2.32-7.611-2.162c-4.186-1.188-10.035-2.604-12.997-3.146-7.946-1.453-27.635-1.197-37.278.484-20.577 3.589-37.658 11.638-72.792 34.305l-5.456 3.52-1.044-1.808c-3.006-5.205-9.75-12.327-15.209-16.063-9.074-6.21-16.154-8.584-27.339-9.169-5.564-.292-11.893-.002-15.263.698-3.167.657-8.855 2.744-12.64 4.638-4.815 2.409-8.818 5.495-13.33 10.278-3.546 3.76-8.775 8.102-11.619 9.65-7.343 3.997-16.058 12.267-20.144 19.115-1.925 3.227-4.778 6.953-6.339 8.281-4.737 4.027-12.428 15.869-14.558 22.413-2.992 9.195-4.355 18.456-3.629 24.656.927 7.905 3.438 17.701 6.071 23.688l2.275 5.172-1.529 4.328c-.86 2.433-1.754 9.415-2.042 15.939-.39 8.855-.1 13.482 1.225 19.5.956 4.34 3.209 11.095 5.008 15.012 6.626 14.433 15.1 24.477 32.521 38.549 12.892 10.413 20.49 18.382 23.032 24.154 4.732 10.745 3.436 24.576-3.61 38.544-2.395 4.747-7.632 12.776-11.639 17.841a8288 8288 0 0 1-14.271 17.982c-3.842 4.824-9.056 12.216-11.586 16.427s-6.094 12.094-7.917 17.518c-2.969 8.832-3.312 11.013-3.286 20.863.024 8.572.524 12.545 2.266 18 4.273 13.378 9.47 21.819 20.621 33.491l7.216 7.553-4.023 16.478c-2.212 9.063-6.174 26.477-8.804 38.699l-4.781 22.22-15.298 16.042c-8.935 9.37-15.668 15.672-16.188 15.152-.519-.519.182-1.961 1.688-3.467 1.417-1.417 2.577-3.287 2.577-4.154s-.753-1.866-1.673-2.219-4.408-.136-7.75.481c-28.235 5.219-44.328 8.503-48.337 9.863-8.529 2.895-48.661 23.448-51.964 26.613-2.41 2.31-4.981 7.524-10.193 20.668-10.973 27.673-15.676 40.136-17.435 46.205-1.464 5.048-2.571 6.483-10.806 14-9.57 8.736-14.842 15.675-14.842 19.536 0 1.248-1.284 3.748-2.853 5.554s-3.37 4.268-4 5.469c-.631 1.202-1.147 4.865-1.147 8.141 0 3.799-.717 7.536-1.978 10.316-1.088 2.397-1.978 6.159-1.979 8.359 0 2.2 1.068 6.925 2.375 10.5s7.31 17.075 13.342 30 13.334 28.9 16.225 35.5 6.95 15.825 9.018 20.5c6.516 14.728 9.246 24.537 9.742 35 .377 7.973.032 11.1-2.148 19.455-1.428 5.475-2.585 11.55-2.571 13.5s.956 7.37 2.093 12.045c1.776 7.297 2.142 12.758 2.588 38.578.552 31.932-.373 56.435-3.85 102.075-1.18 15.485-1.869 28.872-1.532 29.75.396 1.034 1.824 1.597 4.05 1.597h3.437l.603-4.75c3.627-28.587 6.696-81.417 6.812-117.25.074-23.101-.268-31.778-1.579-40-.921-5.775-2.343-12.709-3.161-15.409s-1.479-6.525-1.47-8.5.902-6.966 1.983-11.091c3.664-13.98 2.157-28.749-4.846-47.5-4.857-13.006-18.648-43.733-35.758-79.673-4.668-9.806-8.685-19.654-9.023-22.125-.336-2.448-.101-5.995.521-7.882.623-1.886 3.039-5.265 5.369-7.509 4.936-4.753 45.849-32.898 54.23-37.307 3.14-1.652 6.902-3.001 8.359-2.997 1.456.003 3.808.791 5.226 1.75 4.451 3.009 33.66 29.117 34.226 30.592 1.437 3.747-4.274 17.324-11.659 27.713-1.798 2.529-3.81 7.096-4.515 10.25-.701 3.128-1.661 5.688-2.134 5.688-1.356 0-4.896-5.464-6.517-10.06-.813-2.305-1.479-6.352-1.479-8.993 0-3.504.908-6.544 3.362-11.251l3.362-6.45-4.808-.57c-2.645-.313-6.295-1.321-8.112-2.239-4.209-2.128-7.804-5.405-7.804-7.111 0-.729-.45-1.326-1-1.326s-1 1.366-1 3.035-.696 4.098-1.547 5.397c-2.213 3.376-8.014 7.149-17.08 11.107l-7.873 3.437 4.5-.032c2.475-.018 6.193-.636 8.261-1.374 2.203-.786 3.998-.96 4.332-.419.89 1.44-.644 8.979-2.616 12.849-2 3.927-4.819 6.749-9.977 9.988l-3.5 2.197 3-.661c5.476-1.206 11.35-5.412 14.092-10.09 1.849-3.156 2.803-6.487 3.171-11.073l.527-6.559 4.071-3.798 4.071-3.797 4.84 2.53c3.373 1.764 4.665 2.984 4.266 4.026-1.834 4.779-2.738 11.013-2.263 15.614.76 7.367 4.296 14.353 8.859 17.505 2.085 1.44 3.807 3.08 3.828 3.645.021.566.74 2.03 1.597 3.254 1.245 1.778 1.942 2.021 3.461 1.208 2.698-1.444 8.737-14.705 10.488-23.029.815-3.871 2.216-8.46 3.115-10.198l1.634-3.16 1.785 5.769c.982 3.173 2.971 7.562 4.421 9.752 3.072 4.642 10.353 9.58 15.464 10.486 1.965.349 4.936 1.455 6.603 2.458 4.747 2.858 5.977 1.347 5.93-7.282-.021-4.007-.804-12.46-1.74-18.785s-2.106-15.749-2.602-20.942l-.901-9.442 2.203-3.558c2.542-4.106 4.045-7.827 5.564-13.778l1.077-4.221 6.22 3.795c3.42 2.087 7.749 4.324 9.618 4.971 1.87.646 6.032 1.175 9.25 1.175 4.552 0 5.851.335 5.851 1.511 0 .83-.875 5.443-1.944 10.25-1.069 4.806-2.407 11.664-2.973 15.239-1.157 7.301-3.66 30.358-4.615 42.5-1.085 13.802-3.55 27.649-6.676 37.5-1.658 5.225-6.822 16.925-11.476 26-7.609 14.836-8.696 17.667-10.78 28.069-3.443 17.184-4.852 34.786-4.797 59.931.053 24.654 1.037 38.553 4.802 67.849 4.249 33.066 9.207 59.061 17.957 94.151 5.989 24.016 8.73 32.42 10.7 32.8 1.428.275 1.339-.942-.769-10.495-8.063-36.538-17.251-85.992-17.558-94.506-.085-2.364 1.466-10.094 3.446-17.176 4.894-17.501 7.528-30.793 14.69-74.123 3.363-20.35 7.252-42.4 8.641-49s4.545-18.525 7.011-26.5c7.598-24.568 15.88-39.652 28.705-52.279 6.176-6.081 16.809-13.74 24.535-17.674 7.915-4.03 21.917-9.033 32.357-11.562 5.634-1.365 20.594-4.046 33.244-5.957 26.718-4.037 30.549-4.732 41.458-7.517 13.318-3.401 25.971-7.959 36.042-12.984 18.452-9.208 26.707-14.79 38.104-25.766l7.603-7.323.676 7.274c.372 4 .453 14.251.18 22.781-.511 15.932-.166 15.85 2.775-.657 2.764-15.517 3.917-33.008 3.459-52.453l-.439-18.617 4.802-1.726c6.239-2.244 25.714-13.835 38.097-22.675 10.369-7.402 33.316-25.86 45.726-36.78 36.634-32.237 53.832-48.781 61.944-59.585 10.284-13.698 15.7-28.091 24.414-64.883 1.939-8.185 4.071-15.385 4.739-16 .934-.859 1.041-.655.464.883-1.631 4.352-5.649 29.909-7.232 46-2.106 21.423-2.366 70.843-.46 87.5 2.126 18.579 4.85 33.042 8.214 43.611 3.46 10.867 9.857 24.504 15.03 32.038 4.719 6.874 18.005 19.957 27.404 26.987 4.4 3.291 12.5 8.789 18 12.219 13.052 8.137 35.818 19.6 51.5 25.93 6.875 2.775 24.477 9.107 39.115 14.072 39.974 13.557 52.436 19.112 66.385 29.593 14.257 10.711 24.828 23.41 33.057 39.708 8.089 16.023 18.446 50.309 25.325 83.842 8.059 39.281 13.81 90.144 16.17 143 .65 14.575 1.325 26.657 1.498 26.849s2.146.04 4.383-.338l4.067-.687v-19.978c0-23.268-2.196-61.482-5.047-87.846-3.94-36.422-11.401-75.9-19.43-102.813-8.517-28.55-15.479-45.176-25.094-59.929-6.238-9.57-16.552-20.788-25.929-28.201-8.118-6.418-18.361-12.335-30.386-17.555-5.509-2.392-22.526-8.488-37.815-13.547-36.564-12.1-65.279-23.644-72.722-29.236l-1.923-1.445 5.905-.738c6.659-.832 14.954-3.662 21.035-7.177l4.094-2.366 5.293 1.003c7.35 1.394 16.566 1.234 22.68-.394 9.785-2.605 16.266-6.321 23.262-13.337 4.808-4.822 7.771-8.919 10.319-14.265 1.966-4.125 3.826-8.287 4.135-9.25.36-1.126 1.576-1.75 3.41-1.75 3.587 0 12.556-2.632 17.43-5.114 2.045-1.041 6.612-4.601 10.149-7.91 7.94-7.427 13.93-18.271 15.697-28.414 1.509-8.671.687-27.182-1.527-34.345l-1.633-5.283 4.565-5.217c2.512-2.869 6.344-8.817 8.516-13.217 5.802-11.748 8.077-22.192 8.713-40 .413-11.527.157-17.015-1.104-23.705-1.959-10.393-5.83-20.3-10.941-27.999-5.549-8.36-16.307-17.947-27.36-24.381-14.468-8.421-19.432-12.419-22.562-18.169l-2.749-5.052 2.994-9.347c3.823-11.931 6.643-25.756 8.025-39.351 1.789-17.584-1.125-40.373-7.56-59.12-3.279-9.555-9.305-21.779-14.728-29.876-6.466-9.656-17.399-22.869-33.089-39.989l-14.653-15.99-3.625-9.51c-14.224-37.316-22.08-55.76-30.884-72.511-7.4-14.079-12.227-22.231-19.241-32.5-9.855-14.426-20.645-27.549-30.671-37.303-9.217-8.966-22.046-18.44-31.049-22.927-6.935-3.457-16.194-6.515-23.139-7.642-4.276-.693-7.643-2.148-12.45-5.379-3.625-2.436-10.021-5.857-14.216-7.603-8.57-3.568-22.472-7.457-34.884-9.76-11.37-2.109-48.331-2.734-60.312-1.02m28.882 21.593c2.136 3.925 2.577 5.749 2.057 8.518-.363 1.937-.978 3.523-1.367 3.523-.689 0-4.328-10.515-5.71-16.5-.597-2.586-.486-2.83.805-1.767.823.678 2.72 3.48 4.215 6.226m-11.892 1.21c2.47 2.935 3.436 7.831 1.546 7.831-.53 0-1.484-1.012-2.12-2.25-.635-1.238-2.901-4.356-5.035-6.929s-3.88-4.921-3.88-5.217c0-1.172 7.129 3.76 9.489 6.565m3.435-3.538c2.767 3.517 4.583 10.262 3.149 11.696-.764.764-1.073.655-1.074-.377 0-.798-1.331-4.262-2.957-7.7-3.078-6.506-2.678-8.146.882-3.619m18.844 8.367c-.265 3.701-.837 7.304-1.271 8.007-.508.822-1.433-.803-2.596-4.561l-1.807-5.839 2.15-3.826c1.81-3.22 2.297-3.563 3.078-2.168.51.911.711 4.686.446 8.387m10.213-2.44c-.649 1.967-.971 3.785-.716 4.04.255.256 1.208-.671 2.118-2.059 1.671-2.552 10.977-7.919 12.721-7.338.52.174-.397 1.887-2.039 3.807-1.641 1.921-3.002 4.331-3.024 5.357l-.041 1.865 2.26-1.481c2.318-1.519 11.199-3.749 14.929-3.749 1.666 0 1.301.536-1.799 2.641-2.14 1.453-5.766 3.446-8.06 4.43-2.293.984-6.073 3.508-8.399 5.609l-4.23 3.82.579-3c1.327-6.877 1.314-6.957-1.114-7.099-2.456-.143-5.741 2.684-6.727 5.79-1.081 3.409-2.599.716-1.906-3.384l.673-3.988-2.103 1.126c-1.157.619-2.103.855-2.103.524 0-2.62 9.19-13.398 9.818-11.514.189.565-.188 2.637-.837 4.603m-238.13.306c6.477 3.331 7.883 5.531 1.931 3.021-2.043-.862-6.491-1.333-11.782-1.248-6.095.099-10.154.766-14.344 2.357-10.151 3.856-19.395 12.904-23.204 22.714l-1.473 3.792.592-3.945c1.27-8.453 8.27-17.836 16.472-22.077 4.551-2.354 11.938-4.455 15.707-4.467 1.788-.006 3.25-.461 3.25-1.011 0-2.245-13.004-.144-19.965 3.225-2.494 1.207-6.496 4.003-8.893 6.212-8.472 7.809-12.635 16.091-14.137 28.126l-.865 6.937.217-10.5.217-10.5 3.814-7.206c2.797-5.285 5.236-8.304 9.149-11.323 2.935-2.264 7.502-4.986 10.149-6.05 3.957-1.59 6.772-1.88 15.814-1.629l11 .304zm152.608 1.045q11.225 5.09 20.399 13.534c4.85 4.463 8.888 9.981 12.611 17.23 2.726 5.307 3.417 4.384 1.018-1.359-.832-1.991-1.271-3.864-.974-4.16 1.076-1.076 12.381 11.244 16.005 17.442 4.099 7.008 6.482 9.638 6.482 7.154 0-2.492-4.835-16.488-7.614-22.037-1.435-2.867-3.73-6.705-5.099-8.529s-2.269-3.535-2-3.804c.803-.804 7.436 7.84 12.564 16.373 8.842 14.711 12.846 32.061 11.065 47.945-.84 7.488-3.648 18.903-4.453 18.098-.23-.23-.005-4.048.501-8.483.563-4.931.56-10.61-.007-14.611-.857-6.055-3.782-15.356-5.834-18.555-.509-.792-.734 3.557-.545 10.5.251 9.184.131 10.648-.53 6.501-.47-2.944-1.641-7.444-2.602-10-1.89-5.028-8.621-17.306-9.181-16.746-.189.188.612 3.662 1.779 7.72 1.606 5.586 2.206 10.9 2.472 21.878.276 11.4.178 12.896-.457 7-1.136-10.535-5.993-22.389-13.106-31.982-7.133-9.621-12.588-15.753-15.311-17.21-1.563-.836-1.322-.191 1.046 2.803 4.549 5.75 12.806 21.756 15.935 30.889 2.446 7.142 2.737 9.395 2.71 21-.025 10.691-.411 14.066-2.17 19-1.497 4.202-1.981 4.951-1.613 2.5 1.415-9.421 1.615-19.229.521-25.516-1.807-10.372-6.411-21.267-11.812-27.948-2.618-3.238-5.295-6.062-5.949-6.275-.666-.217-.135 1.8 1.205 4.578 3.267 6.772 6.221 16.355 7.448 24.161 1.926 12.254 1.047 13.715-1.346 2.238-1.797-8.619-8.058-20.96-13.819-27.238-2.271-2.475-3.859-3.825-3.527-3s2.244 5.231 4.252 9.79c4.555 10.347 7.488 24.232 7.331 34.71l-.12 8-.83-7.867c-1.375-13.032-5.018-23.073-12.142-33.464-4.644-6.773-13.08-14.536-20.747-19.091-3.858-2.292-7.015-4.381-7.015-4.642 0-1.118 6.028 1.075 12.75 4.638 3.987 2.114 7.25 3.452 7.25 2.973 0-.478-3.937-4.896-8.75-9.818-9.967-10.193-19.387-16.269-31.718-20.458-5.379-1.827-7.089-2.735-5.176-2.75 7.426-.055 23.571 6.054 34.701 13.131 2.994 1.904 6.094 3.855 6.89 4.335 2.934 1.773-3.175-5.522-8.721-10.413-6.713-5.921-16.905-11.532-26.726-14.716-5.092-1.65-6.196-2.281-4.052-2.313 4.011-.061 18.778 4.535 25.542 7.95 8.027 4.052 16.581 10.787 25.327 19.941 4.225 4.423 7.683 7.748 7.683 7.389s-2.138-4.481-4.75-9.159c-5.065-9.071-12.286-17.719-18.65-22.336-2.145-1.557-3.339-2.83-2.653-2.83 1.979 0 16.05 7.604 21.715 11.736 2.839 2.07 8.352 6.623 12.25 10.117s7.088 6.03 7.088 5.634-2.038-3.784-4.529-7.531c-5.615-8.446-17.295-19.484-25.091-23.713-3.234-1.754-5.308-3.202-4.608-3.216s4.159 1.282 7.687 2.882m116.047 4.363c-4.397 2.326-10.134 6.395-12.75 9.045-2.616 2.649-4.756 4.533-4.756 4.188s1.139-3.037 2.532-5.98c1.682-3.557 3.442-5.729 5.25-6.478 1.495-.62 4.743-1.985 7.218-3.033s5.85-1.92 7.5-1.937c2.521-.027 1.724.643-4.994 4.195m-166.256-1.61c-.687.278-1.812.278-2.5 0-.687-.277-.125-.504 1.25-.504s1.938.227 1.25.504m180.75 2.23c0 .49-1.234 1.201-2.742 1.579-2.702.679-16.092 8.478-19.514 11.367-.966.816-1.968 1.271-2.226 1.013-.504-.504 1.937-5.131 4.62-8.761 1.061-1.434 3.704-2.693 7.5-3.572 3.224-.746 7.212-1.551 8.862-1.788s3.112-.498 3.25-.58c.138-.083.25.251.25.742m-276.5 6.458c2.75 1.513 3.875 2.472 2.5 2.133a655 655 0 0 1-6-1.527c-5.396-1.401-18.083-1.121-23.612.521-5.503 1.635-12.637 7.171-14.914 11.574-2.086 4.033-1.828 9.641.627 13.612 1.155 1.87 3.937 4.336 6.183 5.482 3.492 1.781 5.391 2.02 13.143 1.649l9.061-.433-3.994 1.793c-5.299 2.379-14.758 2.363-20.035-.034-10.399-4.723-13.509-16.402-6.991-26.252 1.402-2.118 4.324-5.025 6.493-6.461 6.929-4.585 10.665-5.453 22.039-5.117 9.246.273 11.097.639 15.5 3.06m301.5 1.43c1.853.749.383.873-5.684.477-6.99-.456-9.398-.152-16.5 2.082-5.374 1.691-10.174 4.034-13.566 6.623-2.888 2.204-5.25 3.531-5.25 2.948 0-.582 2.159-3.322 4.797-6.087 6.15-6.448 11.069-7.958 24.203-7.434 5.225.209 10.625.835 12 1.391m-95.715 1.694c2.632.798 5.332 1.794 6 2.212 1.24.777 1.713.883 5.215 1.177 1.7.142 1.775.329.5 1.247-1.236.889-1.168.97.386.463 2.48-.808 10.152 2.115 26.384 10.054 23.786 11.632 50.934 31.676 69.73 51.482 10.166 10.712 17.314 19.556 26.986 33.39 10.561 15.105 17.886 27.743 24.634 42.501 10.137 22.168 18.046 48.128 21.402 70.243 1.69 11.144 1.97 28.804.393 24.862-.527-1.317-.694-3.342-.371-4.5.404-1.448.301-1.694-.328-.789-.642.922-1.437-.572-2.661-5-2.516-9.105-12.212-33.042-20.08-49.577-3.733-7.843-6.93-14.117-7.105-13.942s1.862 5.692 4.525 12.26c14.369 35.431 24.081 72.566 24.099 92.152.003 3.415-.509 9.675-1.139 13.91l-1.146 7.701-1.917-6.41c-7.277-24.333-16.18-48.17-24.804-66.41-2.86-6.05-6.064-12.976-7.119-15.392-1.056-2.415-2.12-4.19-2.365-3.945s2.469 7.792 6.031 16.772c9.042 22.794 19.171 54.335 22.018 68.565 2.679 13.393 3.062 24.501 1.102 32l-1.307 5-1.798-5.5c-.989-3.025-3.063-8.875-4.607-13s-4.475-12-6.511-17.5c-8.439-22.795-29.006-70.333-41.751-96.5-8.543-17.54-20.13-38.097-30.439-54-11.518-17.769-34.673-43.534-51.756-57.589-6.363-5.236-9.557-8.569-9.889-10.322-1.047-5.514-1.761-15.089-1.125-15.089 2.033 0 23.682 16.902 36.964 28.859 23.442 21.103 44.632 48.203 64.208 82.116 4.596 7.962 8.356 14.094 8.356 13.627 0-1.307-10.343-21.392-16.643-32.317-3.103-5.382-8.329-13.835-11.613-18.785-18.322-27.614-51.859-62.149-78.478-80.815-6.122-4.293-7.47-5.773-8.768-9.629-.843-2.506-2.836-6.918-4.428-9.806s-2.564-5.25-2.16-5.25c1.221 0 12.871 5.828 25.59 12.801 10.038 5.503 23.675 13.602 35.5 21.083l2.5 1.581-1.33-1.681c-2.322-2.935-19.922-15.771-30.991-22.601-5.874-3.624-14.833-8.906-19.911-11.738-5.077-2.831-8.902-5.512-8.5-5.957.403-.445.185-.494-.484-.111-1.262.725-8.676-2.584-9.775-4.363-.791-1.28.771-1.332 2.041-.068.599.596.988-.235 1.052-2.25.056-1.758-.095-2.628-.337-1.935s-1.239 1.69-2.215 2.212c-1.43.766-2.397.179-4.96-3.011-1.751-2.179-2.826-3.957-2.387-3.951.438.006 2.95.664 5.582 1.463m309.489 8.348c-2.211 12.961-5.144 21.612-9.111 26.875-1.74 2.309-5.189 5.314-7.666 6.679-5.583 3.075-17.365 6.401-25.702 7.255-3.462.355-6.295.945-6.295 1.312s3.487 1.239 7.75 1.939c15.323 2.514 25.426 6.429 30.39 11.775 5.191 5.59 8.354 14.322 11.119 30.691l1.31 7.756 2.796-12.802c1.538-7.041 3.711-14.929 4.829-17.529 2.369-5.51 9.176-12.166 15.13-14.795 4.491-1.983 22.666-5.968 27.333-5.993 2.203-.012 2.505-.234 1.343-.985-.825-.533-3.075-.983-5-1-5.526-.048-18.908-3.731-25.811-7.103-7.174-3.504-10.93-7.922-14.24-16.752-1.164-3.105-2.782-9.245-3.595-13.645-2.728-14.76-2.693-14.732-4.58-3.678m-217.278-6.902c1.56.609.962.934-2.738 1.489-4.008.601-16.101 4.33-23.258 7.171-1.774.705-1.846.605-.638-.881.75-.921 2.978-2.673 4.951-3.892 6.376-3.941 16.771-5.804 21.683-3.887m-199.554 11.494c3.946 1.334 10.09 4.326 13.654 6.649 3.564 2.322 9.349 7.32 12.856 11.108 4.613 4.982 7.927 9.988 11.987 18.108 3.086 6.171 6.517 14.821 7.623 19.221 2.531 10.064 3.379 21.381 2.134 28.5l-.962 5.5-.117-6.792c-.15-8.702-2.577-20.43-5.68-27.447-5.348-12.093-15.409-22.935-26.937-29.031-11.006-5.819-11.108-5.73-2.777 2.413 16.458 16.086 26.466 37.099 26.128 54.857l-.114 6-.788-6.768c-.848-7.287-3.941-17.836-6.972-23.778-1.035-2.028-3.102-5.138-4.594-6.911-4.112-4.887-13.033-11.092-20.339-14.146-8.683-3.631-20.183-5.902-29.752-5.876l-7.792.021 6.511 2.299c11.784 4.161 21.074 9.736 28.578 17.153 7.452 7.365 12.925 15.692 15.732 23.934 2.49 7.308 1.989 8.942-.72 2.353-3.51-8.535-8.063-15.067-14.938-21.434-7.27-6.734-19.233-12.727-29.935-14.997-5.422-1.15-10.851-1.403-21.728-1.013-9.062.326-18.063 1.296-24 2.588-11.284 2.455-26.725 3.546-33 2.333l-4.5-.87 10-.651c6.607-.429 15.205-1.996 25.34-4.617 8.437-2.182 15.6-4.226 15.917-4.543s-4.561-.579-10.84-.581c-10.475-.004-29.572-2.265-30.871-3.655-.3-.321 2.829-.28 6.954.091 8.602.774 30.525-.768 43-3.026 4.675-.846 14.575-1.808 22-2.138l13.5-.601-4.033-1.777c-6.285-2.769-15.56-3.867-33.467-3.964l-16.5-.09 10.5-1.951c12.662-2.353 34.798-3.477 40.824-2.072l4.324 1.008-1.804-1.993c-2.927-3.235-17.255-9.576-25.35-11.22-4.128-.839-10.537-1.656-14.242-1.816s-6.74-.686-6.744-1.168c-.013-1.455 33.724.044 41.992 1.865 4.125.909 11.25 3.147 15.834 4.974l8.333 3.321-2.816-2.939c-1.548-1.616-5.973-4.546-9.833-6.51l-7.018-3.571 4.135.611c2.274.337 7.362 1.704 11.307 3.039m213.558-1.257 4 1.304-4 .26c-12.568.819-25.929 2.514-30.483 3.867-2.868.851-5.424 1.338-5.681 1.081-.774-.773 6.394-5.804 10.412-7.307 2.607-.976 6.498-1.267 12.752-.956 4.95.246 10.8 1.034 13 1.751m-392.286 1.507c-.521 1.01-1.496 5.444-2.167 9.854-.934 6.141-.95 9.535-.07 14.5 1.704 9.61 3.556 15.325 7.152 22.073 3.334 6.255 9.777 12.736 15.871 15.966 1.925 1.02 2.782 1.874 1.905 1.899-2.53.07-13.008-7.196-17.584-12.193-2.298-2.51-5.18-6.521-6.402-8.914-5.201-10.172-6.287-22.274-2.959-32.967 1.077-3.463 1.822-6.434 1.654-6.602s-1.711 2.741-3.427 6.465c-4.988 10.822-5.808 24.152-2.271 36.893 1.468 5.285 1.355 6.194-.448 3.62-2.193-3.132-4.312-9.563-5.423-16.46-1.696-10.53 1.713-21.367 9.938-31.593 4.101-5.099 6.204-6.361 4.231-2.541m7.209 28.303c2.584 7.032 6.006 12.226 11.351 17.225 5.189 4.854 11.03 8.283 17.726 10.406 2.2.697 3.1 1.293 2 1.323-3.565.098-12.418-2.683-16.898-5.308-5.388-3.158-12.737-11.194-15.55-17.005-1.159-2.394-2.603-7.169-3.209-10.611-.86-4.882-.807-7.495.24-11.878l1.344-5.619.677 8.5c.373 4.675 1.416 10.51 2.319 12.967M1186.5 539.52c6.255 1.641 17.101 6.212 16.401 6.912-.222.222-2.85-.231-5.841-1.006-2.99-.776-9.064-1.694-13.498-2.04l-8.062-.629 1.5 1.56c.825.857 6 2.978 11.5 4.711 11.368 3.583 20.095 8.024 29.5 15.015 6.307 4.687 21.165 18.957 19.739 18.957-.388 0-4.201-2.508-8.473-5.574-8.571-6.152-23.369-13.892-25.318-13.242-.685.228 1.184 2.156 4.153 4.284 7.794 5.586 17.092 14.761 25.003 24.671 3.793 4.751 6.896 8.926 6.896 9.278 0 .351-2.975-1.642-6.612-4.429-6.137-4.704-15.287-10.03-17.105-9.956-.431.017-.033.602.883 1.299 4.204 3.197 12.971 11.891 19.57 19.408 8.24 9.385 18.667 23.191 18.011 23.847-.241.242-3.687-3.158-7.658-7.555-10.458-11.583-22.059-19.946-39.589-28.539-8.25-4.044-15.9-8.066-17-8.938l-2-1.585 3 .603c3.619.727 12.734 3.203 15.213 4.132 1.536.576 1.604.445.482-.935-1.994-2.455-13.958-9.282-21.682-12.374-3.798-1.521-6.347-2.95-5.665-3.178 1.583-.527 15.918 3.325 21.879 5.88 2.506 1.074 4.767 1.743 5.024 1.485.258-.258-1.641-1.956-4.22-3.775s-8.366-4.513-12.86-5.986c-8.731-2.863-7.813-3.775 1.329-1.321 3.025.812 5.725 1.48 6 1.484s-.85-.81-2.5-1.811c-3.782-2.293-20.143-7.932-25.501-8.789-7.379-1.18-5.247-2.384 4.192-2.368 5.12.008 12.009.667 15.309 1.464s6.667 1.465 7.482 1.484c2.086.051-5.084-4.664-11.701-7.693-7.393-3.385-18.641-6.233-24.698-6.254-8.681-.03-3.763-1.5 6.75-2.017l10.167-.5-3.5-1.932c-2.451-1.353-6.136-2.065-12.292-2.375-4.836-.243-8.556-.678-8.267-.968.29-.289 2.671-1.134 5.293-1.877 5.853-1.659 20.206-1.074 28.766 1.172m-428.47 38.457c.547 3.013 2.31 8.289 3.917 11.724 3.219 6.877 10.422 15.22 16.43 19.027 2.132 1.351 6.857 3.597 10.5 4.991 5.318 2.035 9.01 2.634 18.74 3.038 9.305.386 13.926.1 19.909-1.231 4.285-.953 9.808-2.598 12.274-3.655s4.667-1.737 4.892-1.513c.897.898-10.263 6.851-17.5 9.336-6.395 2.195-9.462 2.642-18.192 2.647-8.75.005-11.71-.423-17.764-2.572-3.995-1.418-9.488-4.006-12.207-5.75-6.847-4.394-15.988-14.476-19.304-21.292-1.526-3.137-3.49-8.869-4.364-12.739-1.172-5.189-1.38-8.802-.793-13.762l.795-6.726.836 6.5c.46 3.575 1.284 8.965 1.831 11.977m132.47 4.505c-8.547 2.307-15.484 5.384-30.5 13.527-7.975 4.325-17.425 8.867-21 10.093-5.234 1.794-9.13 2.28-20 2.49l-13.5.262 9-.98c4.95-.539 13.05-2.333 18-3.988 5.09-1.701 13.127-5.533 18.5-8.819 5.225-3.197 11.525-6.845 14-8.107 7.87-4.015 15.108-5.853 23-5.84l7.5.012zm269.5 17.133c14.544 15.014 29.865 33.979 36.643 45.358 1.996 3.349 3.846 5.871 4.114 5.604 1.236-1.237-13.549-24.227-23.681-36.823-6.983-8.68-23.223-24.329-28.208-27.181-2.076-1.188 2.195 3.816 11.132 13.042m-231.328-9.553c7.611 3.683 15.112 11.603 19.302 20.383 1.664 3.487 3.026 6.941 3.026 7.675s-1.687-1.569-3.75-5.118c-5.084-8.748-15.178-18.66-23.75-23.322-4.672-2.541-6.002-3.607-4-3.206 1.65.331 5.777 1.945 9.172 3.588m-107.943-2.458c-.332.332-1.195.368-1.916.079-.798-.319-.561-.556.604-.604 1.054-.043 1.644.193 1.312.525m91.902 8.531c3.139 1.174 7.665 3.94 10.058 6.146 2.394 2.206 4.116 4.247 3.828 4.536-.289.288-1.536-.4-2.771-1.529-2.152-1.968-7.97-5.288-9.266-5.288-.341 0 1.774 2.207 4.7 4.904s5.043 5.186 4.704 5.532-2.564-.998-4.946-2.988c-8.485-7.089-19.872-11.356-30.737-11.518-3.546-.053-4.21-.282-2.701-.93 1.1-.473 6.371-.891 11.712-.93 7.595-.055 10.957.396 15.419 2.065m-12.943 6.003c3.541 1.084 8.312 4.495 8.312 5.943 0 .515-2.474-.46-5.499-2.167-3.77-2.128-7.376-3.274-11.474-3.645-3.287-.298-5.776-.866-5.532-1.262.563-.909 9.975-.159 14.193 1.131m163.995.05c-.319.797-.556.56-.604-.605-.043-1.054.193-1.644.525-1.312s.368 1.195.079 1.917m21.359 4.75c-2.218 3.266-4.484 6.217-5.037 6.559s-1.005 1.071-1.005 1.621.507.687 1.126.304c1.878-1.16 18.874-5.26 18.874-4.553 0 .362-1.8 1.771-4 3.131s-4 2.854-4 3.321 3.487.558 7.75.202l7.75-.648-4.656 3.006c-2.561 1.653-4.915 3.425-5.232 3.937-.355.575 1.102.574 3.803-.002 2.408-.514 6.563-.794 9.232-.623l4.853.311-4.75 2.447c-2.612 1.346-4.75 2.75-4.75 3.119s3.698.994 8.219 1.389c8.805.768 8.88 1.614.314 3.534-2.634.59-5.669 1.689-6.744 2.442l-1.955 1.37 3.333.642c3.492.673 15.548 3.261 19.833 4.258l2.5.582-2.5.757c-4.444 1.345-11.327.967-19-1.044-4.125-1.081-10.875-2.014-15-2.073-8.177-.117-8.588.136 5.75-3.545 3.438-.882 6.25-2.068 6.25-2.636 0-.667-2.913-.849-8.25-.515l-8.25.517 5.25-2.44c2.888-1.342 5.25-2.796 5.25-3.23 0-.696-8.853.517-17.5 2.397l-3 .653 4-2.488c6.16-3.83 8.5-5.652 8.5-6.617 0-.486-1.463-.428-3.25.128-7.529 2.342-7.46 2.359-4.313-1.008 1.615-1.729 2.617-3.143 2.225-3.143s-3.897 1.604-7.789 3.564-7.272 3.37-7.509 3.133 1.175-1.841 3.137-3.564l3.569-3.133-2.285.018c-1.257.01-4.719 1.36-7.695 3s-5.622 2.982-5.882 2.982c-.261 0 3.049-3.712 7.355-8.25 7.168-7.554 16.799-15.639 18.724-15.718.433-.017-1.027 2.64-3.245 5.906m-182.749.623c2.637 1.377 5.155 2.28 5.597 2.007s2.11.896 3.707 2.599 2.453 2.903 1.903 2.667-3.475-1.625-6.5-3.085c-6.925-3.343-16.075-5.744-21.96-5.764-3.439-.012-4.176-.268-3.04-1.055.901-.623 4.298-.806 8.5-.456 4.621.385 8.629 1.434 11.793 3.087m-96.564.043c-.332.332-1.195.368-1.916.079-.798-.319-.561-.556.604-.604 1.054-.043 1.644.193 1.312.525m410.339 3.992c7.348 2.16 17.205 7.433 24.267 12.982 6.224 4.89 7.094 6.873 1.528 3.48-1.85-1.128-3.792-2.052-4.316-2.054s.659 1.684 2.63 3.746c4.55 4.763 11.032 13.374 10.481 13.925-.36.36-22.156-12.149-31.158-17.883l-3-1.911 3.5.674c1.925.371 6.165 1.748 9.422 3.06s6.14 2.385 6.405 2.385-.366-.938-1.404-2.085c-2.875-3.176-10.724-8.711-19.222-13.554-4.209-2.399-6.958-4.361-6.108-4.361.849 0 3.988.718 6.975 1.596m-329.126 2.309c3.365 1.047 7.711 3.119 9.657 4.603 3.583 2.733 9.401 10 9.401 11.742 0 .523-2.498-1.333-5.552-4.123s-8.501-6.482-12.106-8.202c-4.988-2.381-8.502-3.275-14.698-3.739-6.568-.493-7.467-.738-4.644-1.267 6.501-1.218 11.795-.927 17.942.986m90.741.283c-.319.797-.556.56-.604-.605-.043-1.054.193-1.644.525-1.312s.368 1.195.079 1.917M781 632.738c9.08 4.481 18.694 7.184 26 7.311l4.5.078-2.5 1.089c-1.375.599-7.294 1.133-13.152 1.187-5.859.053-10.441.441-10.183.861.259.421 2.353 1.771 4.653 3 3.613 1.932 5.703 2.236 15.361 2.236 6.148 0 10.648.296 10 .659-3.445 1.925-14.533 3.844-22.323 3.863l-8.856.022 2.5 1.967c4.004 3.149 13.067 6.206 18.737 6.319 4.014.081 4.831.339 3.5 1.104-.955.55-6.347 1.014-11.982 1.033s-10.247.338-10.25.711c-.006.867 10.649 7.356 14.535 8.85 1.628.626 4.76 1.502 6.96 1.946 3.508.708 3.078.818-3.5.901-4.125.051-10.087-.515-13.25-1.259l-5.75-1.353v1.89c0 2.346 5.858 6.185 20.474 13.417 6.035 2.986 10.085 5.42 9 5.409s-5.666-1.271-10.179-2.798c-4.581-1.551-7.741-2.219-7.155-1.513.576.695 5.057 4.504 9.955 8.464 4.899 3.96 8.698 7.408 8.444 7.663-.255.254-3.902-1.17-8.105-3.166S800.519 699 800.186 699c-.334 0 2.647 2.97 6.624 6.6 10.541 9.62 18.448 21.347 21.767 32.281 2.276 7.502 1.631 8.062-1.548 1.343-1.633-3.452-4.415-8.402-6.184-11-5.554-8.161-16.887-19.068-29.845-28.724-6.875-5.123-14.803-11.719-17.618-14.657C768.393 679.636 763 672.32 763 670.759c0-.427 2.813 2.085 6.25 5.581 3.438 3.496 8.725 7.771 11.75 9.499s5.859 3.146 6.297 3.152c.438.005-1.856-3.073-5.099-6.841-7.18-8.342-12.645-16.15-11.305-16.15.544 0 1.269.453 1.611 1.007.732 1.183 4.948 3.419 8.496 4.505 1.865.571.775-.947-4.292-5.976-6.372-6.323-13.708-15.903-13.708-17.9 0-.49 1.974.928 4.386 3.152 4.369 4.027 9.506 7.212 11.634 7.212.615 0-1.572-3.263-4.86-7.25-6.112-7.413-13.16-17.582-13.16-18.989 0-.431 2.484 1.239 5.52 3.712 5.822 4.742 11.492 8.107 11.463 6.803-.01-.427-2.789-3.926-6.177-7.776-5.751-6.536-13.806-17.922-13.806-19.515 0-.387 3.263 2.505 7.25 6.427 5.335 5.248 9.495 8.24 15.75 11.326m170.683-11.55c-.319.797-.556.56-.604-.605-.043-1.054.193-1.644.525-1.312s.368 1.195.079 1.917m472.6 11.995c-.638 3.357-2.207 8.177-3.487 10.71-1.858 3.68-3.43 5.157-7.811 7.343-3.017 1.505-7.96 3.119-10.985 3.586l-5.5.849 4 .759c12.467 2.367 16.936 4.93 20.261 11.625 1.244 2.504 2.632 7.228 3.085 10.499.876 6.334.842 6.381 3.196-4.304.637-2.888 2.126-6.713 3.309-8.5 1.184-1.788 4.189-4.262 6.679-5.499 2.489-1.237 7.664-2.872 11.498-3.633 4.247-.844 5.799-1.435 3.972-1.513-4.813-.206-13.15-2.726-17.102-5.168-4.153-2.566-6.904-7.899-8.753-16.965l-1.202-5.893zm-395.351 6.447c-2.606 2.733-2.95 3.456-1.432 3.002 15.685-4.69 18.937-5.628 19.426-5.605.316.015-1.001 1.353-2.926 2.973l-3.5 2.946 10.5.071c5.775.039 13.2.68 16.5 1.424l6 1.354-7.25.103c-3.987.056-7.25.473-7.25.925s2.629 1.313 5.842 1.91c5.541 1.031 22.666 8.092 21.778 8.981-.376.376-6.065-.927-10.433-2.39-.928-.311 2.381 2.111 7.352 5.382 8.775 5.774 23.737 19.035 20.211 17.913-.963-.306-1.75-.214-1.75.204s2.016 2.739 4.479 5.156c2.464 2.418 4.303 4.573 4.087 4.789s-1.624-.415-3.128-1.401l-2.736-1.792 1.106 1.962c.609 1.08 2.902 4.199 5.097 6.932s3.801 5.158 3.57 5.389c-.231.232-2.068-.836-4.082-2.372s-3.47-2.386-3.234-1.889c4.712 9.958 6.834 14.713 6.805 15.246-.02.361-1.185-.693-2.589-2.343-1.84-2.163-2.239-2.372-1.429-.75.619 1.237.759 2.25.312 2.25s-1.813-.701-3.035-1.557-2.223-1.234-2.223-.841c0 .394 1.878 3.232 4.174 6.307 4.213 5.644 10.329 12.699 27.996 32.297l9.671 10.727 2.183 9.784c3.743 16.773 8.167 33.533 10.503 39.783 1.233 3.3 2.558 8.925 2.944 12.5s1.386 9.589 2.222 13.365c1.147 5.183 2.379 7.816 5.03 10.75 1.93 2.137 4.36 3.885 5.4 3.885 1.674 0 1.546-.474-1.117-4.15-1.653-2.283-3.006-4.442-3.006-4.799s1.483-.476 3.295-.265l3.294.385 2.82-5.181c3.561-6.543 7.95-11.56 12.779-14.609 2.075-1.309 4.037-2.381 4.36-2.381s-.306 1.256-1.399 2.79c-2.154 3.026-6.153 14.046-6.142 16.928.003.98.9 3.132 1.993 4.782 1.098 1.657 1.99 4.692 1.993 6.78.004 2.079-1.146 6.519-2.555 9.867s-2.323 6.71-2.031 7.47c.291.761 1.614 1.383 2.939 1.383 6.459 0 16.917-7.392 20.955-14.812 5.094-9.359 3.481-21.441-3.841-28.775l-4.081-4.087 3.876-2.231c3.097-1.782 4.169-1.988 5.332-1.023 2.058 1.709 7.686 13.94 10.925 23.747l2.748 8.318-1.73 6.389c-1.795 6.631-7.84 17.354-14.068 24.955l-3.604 4.398-4.424-3.378c-5.742-4.382-11.809-5.393-18.056-3.008-2.496.954-6.053 3.249-7.906 5.101-1.852 1.853-3.839 5.064-4.414 7.137-1.284 4.623-1.356 10.355-.169 13.477.653 1.716.129 4.594-1.967 10.815-1.571 4.663-4.484 15.452-6.475 23.977-4.826 20.674-8.771 32.849-13.761 42.466-9.78 18.847-25.754 33.874-60.686 57.086-17.061 11.337-40.967 24.394-55.922 30.543-6.832 2.809-16.732 6.238-22 7.619-7.338 1.924-12.267 2.537-21.078 2.619-8.469.079-13.082-.369-17.5-1.701-3.3-.995-8.078-2.933-10.617-4.307s-7.117-5.047-10.172-8.161c-3.055-3.115-13.86-15.754-24.01-28.086l-18.456-22.421 1.3-3.111c2.254-5.393 3.549-18.445 2.585-26.046-2.668-21.038-14.756-45.094-30.644-60.981-6.763-6.764-22.93-18.573-27.344-19.974-1.614-.512-2.139-1.907-2.765-7.339-.857-7.428-1-16.749-.627-40.893l.25-16.187 3.75.576c2.063.316 4.313 1.018 5 1.559.882.694 1.25.542 1.25-.517 0-.825 2.362-3.304 5.25-5.508 4.989-3.809 12.758-8.234 14.46-8.237.435-.001.639 2.417.455 5.373-.248 3.973.209 6.44 1.753 9.467 1.148 2.251 3.766 5.233 5.817 6.627l3.729 2.534-6.982-.006c-3.84-.003-8.573-.447-10.517-.987s-5.7-2.356-8.348-4.035c-3.896-2.47-5.094-2.821-6.279-1.838-1.281 1.063-1.268 1.325.099 2.091 1.993 1.115 2.037 3.775.063 3.775-.825 0-1.5.466-1.5 1.035 0 .699.658.683 2.021-.046 2.718-1.455 4.642-.194 2.308 1.512-1.608 1.176-1.514 1.257.923.791 1.493-.285 3.448-.237 4.344.106 1.394.535 1.433.868.267 2.306-1.174 1.447-1.155 1.549.137.738.825-.518 6.675-1.208 13-1.532 8.976-.461 14.243-1.38 24-4.188 6.875-1.978 13.625-3.826 15-4.106s-.096-.339-3.268-.133l-5.768.376 2.012-2.825c1.107-1.554 2.352-4.448 2.768-6.431l.756-3.604 5.75 4.515c3.163 2.483 5.75 4.157 5.75 3.718 0-.438-2.482-3.788-5.516-7.442s-8.215-8.448-11.514-10.651c-9.227-6.162-15.982-8.386-26.97-8.88-5.225-.235-11.3-.029-13.5.457-4.167.922-7.5.659-7.5-.59 0-1.382 8.816-5.005 14.833-6.096 10.963-1.988 23.113 1.399 33.426 9.316 5.41 4.154 7.785 4.956 3.241 1.095-6.632-5.636-14.779-10.294-20.9-11.951-8.578-2.322-21.181-1.712-27.802 1.345-2.586 1.194-5.14 2.955-5.676 3.912l-.974 1.74-2.574-2.418c-1.416-1.33-2.574-2.092-2.574-1.694 0 1.639 3.121 6.596 4.75 7.545 1.526.889 1.43 1.023-.75 1.046-2.722.029-8.727-3.25-10.701-5.843-.927-1.218-1.243-1.281-1.267-.255-.018.752 1.779 3.178 3.993 5.392 2.213 2.213 3.861 4.187 3.662 4.387s-1.802-.14-3.561-.753c-2.089-.728-3.834-2.377-5.033-4.754-1.009-2.002-2.795-7.844-3.968-12.983l-2.133-9.342 2.775-4.132c3.427-5.103 8.575-8.683 12.485-8.683 1.626 0 9.322 2.539 17.102 5.641 7.78 3.103 15.496 6.059 17.146 6.569 10.652 3.294 20.39 5.767 22.75 5.778 2.194.009 2.75-.446 2.75-2.253 0-3.041-3.486-9.478-7.35-13.573-1.733-1.835-4.725-4.148-6.65-5.14-3.655-1.882-32.061-10.557-40.195-12.274-7.088-1.497-11.336-.267-16.829 4.871l-4.796 4.486-.835-7.803c-.459-4.291-.798-15.902-.752-25.802.085-18.473 1.304-28.503 5.468-45 1.111-4.4 4.073-12.17 6.583-17.268 10.274-20.868 27.44-30.779 48.704-28.119 6.764.846 17.474 4.249 29.152 9.263 5.637 2.421 14.5 3.555 14.5 1.856 0-.422-1.141-2.447-2.536-4.5S940.113 654 940.338 654s2.324.675 4.662 1.5 4.565 1.5 4.947 1.5c.383 0 1.725-2.276 2.983-5.059 1.257-2.782 2.442-4.902 2.632-4.712.191.191.459 2.017.597 4.059.137 2.041.506 3.712.818 3.712.732 0 9.845-5.999 14.46-9.52 1.96-1.494 3.56-2.326 3.557-1.849s-.652 2.106-1.441 3.619-1.25 2.75-1.024 2.75c.703 0 8.673-4.166 15.798-8.258 3.755-2.156 7.006-3.742 7.224-3.524s-.764 2.103-2.182 4.189l-2.578 3.794 2.355-.7c4.534-1.348 20.366-7.758 21.604-8.747 2.306-1.842 1.279.605-1.5 3.577l-2.75 2.94 3-.711c3.967-.94 15.75-5.58 16.933-6.668.514-.472 1.158-.634 1.432-.36s-1.046 2.118-2.933 4.098m201.879.774c6.898 3.496 20.11 14.005 41.689 33.162 38.311 34.01 55.097 53.258 65.527 75.138 4.041 8.478 8.389 22.429 9.441 30.296.527 3.941.191 3.444-2.706-4-1.82-4.675-5.203-12.009-7.519-16.297-8.007-14.826-24.454-36.875-43.788-58.703-16.347-18.456-34.933-35.556-56.562-52.041-6.541-4.985-11.893-9.265-11.893-9.511 0-.815 1.019-.472 5.811 1.956m-101.508 11.987c2.542.765 5.346 2.115 6.231 3s2.814 1.656 4.287 1.714c2.331.091 2.16.276-1.321 1.423-2.2.725-5.575 1.385-7.5 1.466l-3.5.147 3.941 1.443c2.167.794 6.355 1.727 9.305 2.074 7.793.916 4.979 2.677-3.414 2.137-5.496-.354-8.921-1.399-17.519-5.347-5.878-2.698-10.547-5.047-10.375-5.22.173-.172 3.287.434 6.921 1.347 4.792 1.204 8.192 1.452 12.374.905l5.767-.755-3.5-1.385c-6.441-2.55-9.514-4.212-7.909-4.276.875-.035 3.671.562 6.212 1.327m-7.886 13.139c6.429 2.686 21.931 6.465 26.533 6.467 3.261.002 4.153.3 3.34 1.113-.691.691-4.069.974-8.958.75-6.944-.319-8.94-.898-17.34-5.034-5.221-2.57-8.984-4.708-8.364-4.75s2.775.612 4.789 1.454m5.962 9.984c4.776 1.995 16.68 4.468 21.936 4.556 3.255.055 3.74.262 2.185.93-1.1.473-4.925.887-8.5.92-4.871.045-7.753-.536-11.5-2.32-4.845-2.307-9.651-5.503-8.372-5.568.345-.018 2.258.649 4.251 1.482M1107 680c0 .55-.198 1-.441 1s-.719-.45-1.059-1-.141-1 .441-1 1.059.45 1.059 1m156.498 30.5c1.812 2.2 9.998 10.75 18.191 19 10.292 10.363 16.812 17.907 21.09 24.404 3.406 5.172 7.141 11.922 8.299 15 3.211 8.528 5.648 18.836 6.288 26.596l.577 7-1.445-6.267c-.794-3.446-2.831-9.746-4.525-14-5.996-15.052-14.269-26.799-34.18-48.532-5.945-6.489-13.097-15.039-15.893-19-5.18-7.339-11.9-19.679-11.9-21.854 0-.662 2.296 2.14 5.102 6.225s6.584 9.228 8.396 11.428m-117.285 5.7c4.392 1.827 7.276 2.208 17.036 2.25 6.462.027 11.75.185 11.75.349.002.843-8.861 4.16-11.166 4.179-1.466.012-2.838.536-3.047 1.165-.242.726-3.46-.323-8.834-2.88-7.855-3.738-13.405-7.157-11.739-7.231.392-.018 3.092.958 6 2.168m-441.122 2.868c-.05.863-.784 3.902-1.631 6.753-1.011 3.406-2.433 5.77-4.144 6.892-1.433.938-5.128 2.233-8.211 2.876-5.76 1.203-5.501 1.771 1.324 2.912 6.863 1.147 12.335 8.717 12.649 17.499.049 1.375.635.025 1.303-3s1.753-6.481 2.414-7.68c1.83-3.322 6.848-6.462 11.276-7.056 4.814-.646 6.249-2.264 2.008-2.264-4.366 0-10.71-2.788-12.476-5.483-.834-1.273-2.17-4.722-2.969-7.666s-1.493-4.645-1.543-3.783m446.369 8.069c6.33 1.035 11.032.468 9.997-1.206-.406-.657.367-.735 2.209-.221 1.559.434 5.032.705 7.719.601l4.885-.189-2.052 1.438c-1.128.79-3.776 1.824-5.885 2.297l-3.833.861 2.617 1.066c1.699.692 3.979.749 6.5.165 2.136-.496 4.333-.898 4.883-.893 1.512.012-2.54 2.952-6.5 4.717l-3.5 1.559 3.5.796c1.925.437 5.028.525 6.895.195 5.722-1.011 2.673 1.406-3.521 2.793l-5.592 1.251 1.859 1.409c1.368 1.036 3.707 1.266 8.859.87 6.09-.467 6.76-.359 5.158.836-1.013.755-3.498 1.653-5.521 1.995s-4.344 1.042-5.157 1.557c-.998.631.962.95 6.02.981 5.836.036 7.09.284 5.654 1.119-3.295 1.915-12.835 2.192-19.17.556-6.059-1.564-17.931-6.577-17.232-7.276.209-.209 1.923.063 3.808.603 4.055 1.163 15.94 1.321 15.94.211 0-.424-4.739-2.268-10.532-4.097-6.523-2.06-12.823-4.856-16.55-7.345-3.31-2.21-5.828-4.209-5.596-4.442s2.517.69 5.076 2.051c5.605 2.98 13.936 4.838 19.8 4.415l4.302-.31-5.983-1.846c-7.087-2.186-18.517-7.247-18.517-8.198 0-.369.787-.36 1.75.018s4.432 1.127 7.71 1.663m156.572 9.122c4.693 4.533 10.619 10.722 13.169 13.754 6.545 7.781 15.056 21.658 18.86 30.749 4.47 10.683 6.735 19.908 7.914 32.238 1.011 10.569.351 21.206-1.952 31.423-1.186 5.265-6.996 19.938-7.639 19.294-.213-.212.486-3.798 1.552-7.967s2.382-12.359 2.923-18.199c2.219-23.953-3.357-47.49-16.987-71.706-5.798-10.3-15.648-24.223-22.354-31.595-3.127-3.437-5.311-6.246-4.852-6.241s4.673 3.718 9.366 8.25m-259.857 2.77c-4.028 1.055-16.178 6.171-27 11.368s-21.283 10.103-23.248 10.901c-5.1 2.072-10.941 7.526-13.062 12.193-2.229 4.907-2.398 10.822-.357 12.516.91.755 2.875 1.03 4.949.694 5.076-.824 28.424-12.639 41.043-20.77 20.887-13.459 29.341-16.61 41.995-15.653 6.84.517 19.551 4.27 32.255 9.522 2.888 1.194 5.25 1.967 5.25 1.717s-4.124-3.641-9.164-7.536c-14.578-11.267-28.789-17.095-41.27-16.926-2.236.03-7.362.919-11.391 1.974m-406.021 11.76c-1.385 9.048-6.939 29.27-9.974 36.314-4.25 9.866-10.543 14.13-28.526 19.33-4.866 1.407-12.741 3.298-17.5 4.202-4.76.905-9.329 1.864-10.154 2.131-.825.268 2.033 1.109 6.35 1.869 10.364 1.823 26.338 5.902 33.26 8.492 6.313 2.362 11.535 6.559 15.009 12.062 3.374 5.345 7.017 16.78 10.341 32.46 1.575 7.429 3.063 13.708 3.307 13.952s.735-2.348 1.092-5.758c.75-7.179 5.662-27.151 8.625-35.069 2.9-7.752 8.246-13.55 15.543-16.859 5.31-2.408 27.061-8.26 38.973-10.487l4-.748-5-.861c-18.05-3.108-36.985-8.993-43.616-13.555-2.665-1.834-5.513-5.018-7.077-7.916-3.138-5.811-8.042-22.017-11.152-36.855l-2.263-10.796zm638.418 14.461c2.054 6.376 2.776 11.009 3.174 20.392.567 13.35-.707 24.775-3.858 34.611-3.183 9.933-12.451 28.133-17.457 34.279-2.526 3.102-4.387 5.845-4.136 6.097.713.712 14.468-14.492 18.664-20.629 4.845-7.088 7.813-12.919 10.687-21 3.207-9.017 3.069-3.706-.199 7.638-4.453 15.46-13.158 31.329-26.803 48.862-3.852 4.95-6.136 8.335-5.074 7.522 6.266-4.8 17.503-15.519 19.912-18.996 4.328-6.245 4.33-3.824.002 2.709-2.101 3.171-3.067 5.146-2.147 4.389 2.799-2.304 15.339-19.308 18.084-24.523 1.418-2.694 2.577-4.269 2.574-3.5-.012 3.461-6.742 19.643-13.682 32.899-4.176 7.975-8.429 15.694-9.452 17.154-1.024 1.46-1.861 2.949-1.861 3.308 0 1.276 10.57-8.537 14.973-13.901 2.46-2.996 4.63-5.292 4.821-5.1.192.192-1.453 3.528-3.655 7.414-3.891 6.867-13.784 20.649-19.042 26.53-3.82 4.272-.737 2.192 9.269-6.254 10.377-8.759 21.373-21.307 25.568-29.179 6.776-12.713 11.944-31.331 12.166-43.832l.101-5.64.982 4c1.493 6.08.314 25.787-2.093 35-1.15 4.4-4.802 13.47-8.115 20.155-4.596 9.272-7.592 13.848-12.627 19.287-3.868 4.178-11.002 10.116-17.225 14.34-12.523 8.499-25.533 20.613-31.286 29.131-3.257 4.822-3.963 5.463-3.397 3.087.902-3.792 6.778-17.295 10.66-24.5l2.964-5.5-7.519 7.896c-5.861 6.155-8.615 10.123-12.491 18-6.335 12.872-8.552 23.229-7.714 36.033.327 4.989.862 10.421 1.188 12.071.415 2.095.309 2.548-.351 1.5-1.927-3.061-4.177-16.158-4.177-24.319 0-11.085 3.543-24.964 9.455-37.036 4.772-9.745 13.114-21.891 22.183-32.299 2.949-3.384 5.362-6.439 5.362-6.789s-3.487 1.91-7.75 5.022c-9.585 6.997-21.147 18.21-25.956 25.171-1.995 2.888-3.856 5.021-4.136 4.741-1.023-1.023 9.87-21.221 15.797-29.29 4.099-5.581 5.374-7.912 3.891-7.118-3.708 1.984-16.19 15.053-20.642 21.613-5.701 8.4-10.539 18.289-13.359 27.304-1.981 6.335-2.345 9.626-2.345 21.19 0 9.706-.283 13.053-.973 11.5-.535-1.204-.973-8.94-.973-17.19-.001-12.53.367-16.284 2.233-22.799 4.59-16.026 13.535-30.005 30.147-47.114 6.361-6.551 10.891-11.532 10.066-11.068s-5.633 4.152-10.685 8.194c-10.358 8.288-20.691 19.028-26.442 27.483-5.897 8.67-10.743 18.977-12.914 27.465-2.42 9.463-2.589 24.312-.399 35.131 1.98 9.781 8.905 24.118 14.953 30.958 2.553 2.888 4.214 5.25 3.692 5.25s-4.045-3.267-7.828-7.261c-9.991-10.549-15.3-22.204-17.441-38.292-.894-6.717-.894-11.256-.002-19.183.643-5.712 2.098-13.395 3.234-17.074 3.001-9.721 9.836-22.749 16.68-31.795 3.285-4.342 15.494-17.345 27.131-28.895s23.732-24.388 26.877-28.529c7.045-9.277 13.576-22.428 16.167-32.561 1.076-4.206 2.238-12.432 2.582-18.279.587-9.95-.14-16.982-3.245-31.381-.326-1.513-.335-2.75-.02-2.75s1.769 3.712 3.232 8.25m-88.122-6.343c-1.69 1.613-8.431 2.967-12.24 2.459-8.698-1.162-8.471-1.854.79-2.412 5.225-.314 10.152-.657 10.95-.763.897-.118 1.087.155.5.716m-378.883 15.326c-.858 3.451-6.509 16.153-12.576 28.267-11.967 23.893-14.557 31.755-15.65 47.5-.325 4.675-.099 11.632.501 15.461 1.306 8.332 5.623 17.513 11.228 23.881 2.255 2.562 3.68 4.658 3.167 4.658-1.501 0-11.811-11.258-15.198-16.597-4.701-7.41-7.041-16.158-7.024-26.258.008-4.755.694-11.527 1.524-15.05 2.033-8.625 7.567-20.122 16.695-34.687 4.168-6.651 8.907-14.751 10.532-18 3.089-6.176 7.12-17.167 7.394-20.162.088-.96.341-.291.562 1.487s-.299 6.054-1.155 9.5m382.561-3.887c-.614.74-2.89 2.145-5.058 3.123-2.861 1.289-5.126 1.595-8.256 1.115-2.373-.365-6.114-1.481-8.314-2.482l-4-1.819 9 .468c4.95.257 10.575.009 12.5-.551 4.858-1.415 5.407-1.396 4.128.146M1186 778.5c5.225 0 10.737-.346 12.25-.769s2.75-.407 2.75.036-2.468 2.431-5.485 4.418-4.93 3.823-4.25 4.08 3.485-.107 6.235-.81 5.138-1.142 5.308-.976c.487.479-5.002 4.168-8.825 5.931l-3.483 1.607 6.5-.44 6.5-.439-4 1.857c-2.2 1.021-5.163 1.89-6.585 1.931s-5.472-.873-9-2.031c-6.492-2.131-15.381-6.763-14.557-7.586.246-.247 2.376.535 4.731 1.737 2.667 1.36 6.12 2.185 9.149 2.185 2.675 0 5.112-.247 5.413-.549 1.184-1.184-.921-2.682-3.769-2.682-3.414 0-3.011-1.956.427-2.076 1.205-.042-.544-.885-3.887-1.873-6.121-1.809-10.422-3.71-10.422-4.605 0-.266 1.237-.138 2.75.285s7.025.769 12.25.769m-362.338 9.75c-.277.688-.504.125-.504-1.25s.227-1.937.504-1.25c.278.688.278 1.813 0 2.5m-6.713 21.041-6.245 18.209-.482 11.589c-.286 6.851.008 14.415.718 18.5 1.551 8.917 7.685 21.964 13.077 27.813 2.331 2.529 3.835 4.598 3.343 4.598s-3.18-1.999-5.973-4.443c-5.899-5.16-11.384-14.847-13.903-24.557-1.309-5.042-1.581-9.305-1.214-19 .303-7.979 1.088-14.308 2.173-17.5 3.209-9.445 14.057-35.334 14.404-34.377.191.527-2.463 9.153-5.898 19.168M1081.35 793c-.33 1.65-.978 3-1.441 3-.81 0-6.631-2.355-10.067-4.073-.911-.456-8.561-.71-17-.566-12.021.206-16.532.677-20.842 2.176-7.147 2.486-16.32 8.812-20.88 14.4l-3.62 4.436 6.5-5.004c11.924-9.181 17.964-11.891 29.893-13.413 7.42-.947 19.86-.345 22.152 1.072 1.975 1.221.222 5.786-2.809 7.316-1.505.76-6.786 1.639-11.736 1.955-9.52.607-19.866 3.343-27.782 7.348-4.747 2.402-18.957 15.063-20.828 18.559-.697 1.302.554.845 4.368-1.594 9.084-5.811 19.493-9.664 31.622-11.705 8.449-1.421 27.53-1.123 37.12.58 9.272 1.647 18.356 1.864 21.5.513 1.469-.631.606-.878-3.25-.93-2.888-.038-5.25-.52-5.25-1.07s.812-1 1.804-1c3.014 0 10.929-5.649 14.155-10.102 1.672-2.309 3.041-4.659 3.041-5.222s-1.013-.109-2.25 1.011c-2.02 1.828-7.716 4.313-9.885 4.313-.459 0 .056-1.462 1.146-3.25s1.982-4.375 1.982-5.75v-2.5l-1.834 3c-1.862 3.047-6.676 6.316-7.739 5.254-.32-.321-.096-1.492.499-2.603s1.081-2.731 1.081-3.601c0-1.079-.874-.603-2.752 1.498-1.951 2.184-3.272 2.88-4.542 2.392-1.496-.573-1.683-1.41-1.135-5.063.735-4.901-.286-6.052-1.221-1.377m94.45 1.386c1.485.762 5.3 1.922 8.478 2.577 4.121.849 7.134.9 10.503.177 2.598-.557 5.584-1.343 6.635-1.746 1.407-.54 1.704-.398 1.125.54-1.208 1.954-8.656 5.019-12.253 5.044-3.88.027-12.842-3.257-16.288-5.967-2.923-2.299-2.051-2.601 1.8-.625m-99.265 4.67c.605.979-4.645 3.944-6.985 3.944-.853 0-1.55-.158-1.55-.351s.482-1.733 1.071-3.423l1.071-3.072 2.931 1.021c1.612.562 3.17 1.408 3.462 1.881m5.465 1.909c0 .53-.9 1.446-2 2.035-2.203 1.179-2.688.088-.8-1.8 1.446-1.446 2.8-1.56 2.8-.235m-98.986 11.511c-3.944 6.892-6.679 19.379-5.231 23.877l1.013 3.147.102-4.09c.167-6.675 4.058-20.425 7.829-27.66.215-.413.173-.75-.095-.75-.267 0-1.895 2.464-3.618 5.476m-56.572.152c7.717 10.107 11.538 22.532 11.588 37.684.026 7.663.233 8.856 1.25 7.188.788-1.292 1.22-6.43 1.22-14.518v-12.517l-3.277-6.661C934.245 817.753 925.955 808 923.789 808c-.484 0 .71 2.083 2.653 4.628m364.241-1.44c-.319.797-.556.56-.604-.605-.043-1.054.193-1.644.525-1.312s.368 1.195.079 1.917m-490.457 15.355c-1.271 4.472-1.693 9.945-1.694 21.957-.002 14.144.263 16.738 2.283 22.367 1.257 3.501 2.077 6.574 1.823 6.828-.685.685-5.549-7.955-7.772-13.806-1.267-3.335-1.962-7.748-2.006-12.745-.057-6.397-.245-7.236-1.152-5.144-.596 1.375-1.094 7.225-1.106 13-.016 7.179.518 12.218 1.688 15.932.94 2.987 1.706 5.912 1.701 6.5-.006.587-1.132-.805-2.504-3.093-3.526-5.883-5.867-18.129-5.186-27.134.424-5.611 1.344-8.855 3.983-14.05 3.403-6.698 10.656-17.549 11.3-16.905.184.184-.427 3.016-1.358 6.293m406.836-2.51c1.063.569 2.925 2.931 4.14 5.25 2.99 5.711 3.021 14.666.069 20.298-2.183 4.164-6.561 8.026-11.568 10.203-5.091 2.213-5.621 1.587-2.992-3.534 1.846-3.597 2.326-5.807 1.975-9.104-.255-2.395-1.414-5.639-2.575-7.21s-2.111-3.716-2.111-4.769c0-2.781 7.17-12.134 9.316-12.152.998-.008 2.684.45 3.746 1.018m-437.537 7.102c-1.31 3.609-2.901 9.425-3.536 12.924-1.764 9.729-1.367 24.253.905 33.077 2.23 8.663 7.119 18.669 13.261 27.142 2.911 4.016 3.87 6.097 3.144 6.823s-2.837-.957-6.922-5.519c-7.602-8.49-12.916-17.334-15.672-26.082-1.66-5.269-2.205-9.472-2.205-17 0-7.603.536-11.678 2.238-17 2.101-6.571 9.98-22.115 10.796-21.299.205.205-.699 3.325-2.009 6.934M913.5 830l1.81 2-1.81 2c-2.046 2.261-4.525 2.575-6.3.8-2.467-2.467-.654-6.8 2.845-6.8.905 0 2.46.9 3.455 2m-18.272 4.784c.607 2.354 1.832 3.754 4.326 4.943l3.48 1.66 5.983-2.153c6.377-2.295 7.401-1.704 4.422 2.549-2.285 3.263-6.725 5.217-11.855 5.217-3.615 0-5.212-.613-8.018-3.076-5.344-4.692-6.293-13.461-1.38-12.744 1.526.222 2.454 1.322 3.042 3.604m428.473 15.966c-.329 7.795-1.286 16.306-2.211 19.653-3.083 11.151-7.656 21.113-14.274 31.097-4.923 7.425-10.777 14.12-22.735 26-8.859 8.8-17.48 18.025-19.159 20.5-5.106 7.527-8.409 14.899-9.92 22.147-1.394 6.685-1.239 9.95 1.012 21.353.476 2.407.162 2.111-1.589-1.5-1.546-3.191-2.308-7.001-2.618-13.098-.514-10.119.93-16.079 6.407-26.435 4.335-8.195 10.38-16.286 19.402-25.967 9.098-9.763 20.76-23.796 26.177-31.5 6.192-8.805 10.237-17.129 14.469-29.779 2.32-6.931 3.74-13.331 4.089-18.421.89-12.987 1.568-8.738.95 5.95m-171.159 18.906c-12.062 20.152-17.364 27.749-25.666 36.779-3.507 3.814-5.637 6.514-4.734 6s4.988-3.69 9.079-7.058c8.015-6.598 18.151-19.206 22.715-28.256 2.872-5.694 9.361-23.158 8.809-23.709-.165-.165-4.756 7.145-10.203 16.244m45.173 11.301c2.891 1.313 4.418 2.724 4.862 4.493.392 1.562.11 3.309-.715 4.428a1786 1786 0 0 0-7.195 9.986c-3.671 5.12-6.516 8.136-7.674 8.136-2.819 0-7.881-4.792-8.803-8.333-1.063-4.087.063-10.172 2.504-13.525 1.821-2.502 9.532-7.167 11.768-7.12.571.012 2.935.883 5.253 1.935m160.649 6.793c3.385 4.814 8.072 8.645 18.636 15.231 17.423 10.862 26.07 19.272 32.101 31.22 2.787 5.521 6.892 20.022 6.879 24.299-.004 1.1-1.28-1.659-2.837-6.13-1.557-4.472-4.937-11.3-7.512-15.173-2.575-3.874-7.21-9.353-10.299-12.177-3.09-2.823-12.003-9.342-19.807-14.486s-16.561-11.534-19.461-14.201l-5.272-4.847 1.854-3.719c1.02-2.045 2.13-3.729 2.468-3.742.338-.014 1.8 1.663 3.25 3.725m-428.071 3.848c-1.832 3.953-2.693 7.388-2.607 10.402.322 11.244 1.016 17.67 2.126 19.699 1.563 2.856 5.1 5.302 7.661 5.297 1.64-.003 1.42-.374-1.159-1.946-1.753-1.069-3.665-2.837-4.25-3.931-1.545-2.886-1.304-6.885.475-7.881 1.383-.774 1.383-1.158.006-3.799-1.939-3.718-1.975-11.692-.082-17.983.805-2.675 1.262-5.065 1.015-5.312s-1.68 2.207-3.185 5.454M995 896.263c0 .28.672 1.797 1.494 3.373 3.02 5.791 1.256 14.235-3.738 17.896l-2.256 1.653 2.5-.671c1.375-.369 3.737-1.992 5.25-3.608 2.06-2.201 2.75-3.95 2.75-6.971 0-4.253-1.815-8.707-4.434-10.88-.861-.715-1.566-1.071-1.566-.792m-304 10.055c0 4.539-2.996 12.303-5.726 14.84-2.957 2.747-10.984 5.842-15.152 5.842-4.015 0-1.198 1.56 5.349 2.963 4.331.928 6.845 2.153 9.153 4.461 3.25 3.25 6.287 11.226 6.476 17.008.069 2.108.533 1.092 1.483-3.244 1.807-8.252 4.02-12.769 7.457-15.217 1.537-1.094 6.091-2.733 10.121-3.644l7.327-1.654-6.185-1.262c-9.352-1.907-12.906-3.959-15.25-8.802-1.12-2.313-2.326-6.321-2.68-8.907-.661-4.822-2.373-6.541-2.373-2.384m275 5.391c-2.637.97-5 3.544-5 5.446 0 2.23 2.063 2.333 7.5.374 2.2-.793 4.755-1.461 5.679-1.485.923-.024 2.375.653 3.226 1.504 1.198 1.197 2.006 1.303 3.571.465 1.113-.596 2.024-1.731 2.024-2.523 0-2.258-5.433-4.498-10.7-4.411-2.64.043-5.475.327-6.3.63m-164.41 32.924c-5.224 15.877-11.752 34.903-14.507 42.28s-4.617 13.002-4.137 12.5c1.349-1.411 17.947-32.236 26.069-48.413 9.319-18.561 18.039-34.28 18.667-33.651.27.27-2.259 6.264-5.619 13.321-4.113 8.637-5.297 11.85-3.622 9.83 1.368-1.65 2.503-2.653 2.523-2.229.02.425-3.153 6.251-7.051 12.949-6.606 11.349-14.825 26.915-13.613 25.779.294-.275 4.02-5.675 8.28-12 4.261-6.324 9.135-13.226 10.833-15.336 8.715-10.832 18.892-22.692 19.204-22.38.194.194-4.404 7.523-10.219 16.285s-10.825 16.382-11.135 16.932c-1.321 2.345 7.213-6.45 10.943-11.275 2.242-2.902 4.306-5.046 4.588-4.765.281.281-3.649 6.03-8.734 12.776-7.856 10.422-29.997 43.037-32.426 47.764-1.087 2.115 4.05-3.689 14.603-16.5 4.984-6.05 9.419-10.896 9.857-10.769s6.086-5.143 12.554-11.713c6.467-6.57 11.977-11.727 12.243-11.46s-1.313 2.387-3.511 4.713c-2.197 2.326-5.601 6.254-7.566 8.729s-5.678 6.75-8.254 9.5c-2.577 2.75-5.444 5.885-6.372 6.967-2.515 2.93 7.264-5.256 16.914-14.159C847.287 956.298 856.75 948 857.541 948c.853 0-3.304 4.488-29.635 32-9.738 10.175-18.088 18.922-18.556 19.438-1.701 1.876 15.138-12.093 21.405-17.758 3.541-3.201 6.702-5.556 7.024-5.235.848.848-4.832 6.556-16.597 16.678-5.675 4.882-10.015 8.877-9.644 8.877s2.314-1.295 4.318-2.878 8.144-5.999 13.644-9.811 17.136-11.995 25.857-18.181 16.039-11.067 16.261-10.845-6.759 6.564-15.513 14.094c-20.501 17.633-22.988 20.523-8.011 9.312 1.977-1.48 3.945-2.691 4.373-2.691 1.568 0-2.04 3.314-7.927 7.281-8.166 5.504-33.351 24.605-34.154 25.904-.354.573 2.002-.657 5.235-2.733 6.188-3.973 25.88-15.78 48.172-28.884 7.312-4.298 13.524-7.585 13.805-7.304.629.63-11.119 8.839-41.098 28.718-12.65 8.389-23.45 15.723-24 16.298-1.603 1.675 10.071-4.989 19.415-11.082 10.226-6.67 40.736-22.481 42.345-21.945.622.208-1.545 1.882-4.815 3.722-8.419 4.738-44.727 25.996-49.445 28.95-.825.517.3.468 2.5-.108 7.918-2.072 26.352-9.75 44.911-18.704 18.116-8.74 24.52-11.177 15.384-5.853-6.379 3.717-31.301 15.984-39.057 19.225-3.719 1.554-6.586 3-6.371 3.215s6.407-1.392 13.761-3.57c24.642-7.296 39.067-11.269 39.467-10.868.526.525-13.749 5.885-54.595 20.5-10.725 3.837-20.85 7.48-22.5 8.096l-3 1.118 3.5-.574c1.925-.316 8-1.856 13.5-3.421 33.791-9.619 44.785-12.386 46.687-11.752.684.228-4.141 1.805-10.722 3.505-14.648 3.783-28.462 7.665-34.465 9.685l-4.5 1.514 4.5-.53c5.535-.651 18.662-2.694 38.825-6.042 8.429-1.399 15.52-2.349 15.758-2.111 1.067 1.067-41.567 10.961-67.379 15.636l-10.297 1.865-2.79-6.125c-5.455-11.978-19.814-27.176-30.482-32.263l-3.654-1.743.629-3.56c1.611-9.117 6.033-26.438 11.887-46.56 6.532-22.453 9.307-30.93 9.433-28.81.038.654-1.75 9.204-3.974 19s-4.452 19.835-4.951 22.31-2.072 9.169-3.498 14.875c-1.425 5.706-2.417 10.548-2.205 10.761.213.212 2.978-8.282 6.145-18.875 6.8-22.748 12.631-40.016 13.29-39.358.258.259-.908 4.662-2.592 9.784s-5.784 18.946-9.111 30.72-6.584 22.123-7.237 23c-1.061 1.423-1.019 1.433.388.093.866-.825 4.165-8.475 7.332-17 4.943-13.307 11.315-28.859 23.269-56.786 1.479-3.457 2.828-5.872 2.996-5.367.169.506-3.968 13.909-9.192 29.786M934 915.465c0 2.222 5.579 8.108 9.407 9.924 1.867.886 4.876 1.611 6.685 1.611h3.29l-5.941-3.565c-3.267-1.96-7.312-4.885-8.989-6.5-1.676-1.614-3.363-2.935-3.75-2.935-.386 0-.702.659-.702 1.465m431.5 11.445c8.365 4.055 16.469 10.83 20.851 17.431 2.044 3.079 4.883 8.65 6.309 12.379 2.099 5.488 2.689 9.084 3.096 18.868.441 10.634.223 13.027-1.812 19.881-2.548 8.584-7.383 16.738-13.838 23.336-3.871 3.958-12.552 10.195-14.189 10.195-.38 0 2.524-3.263 6.453-7.25 5.125-5.201 8.207-9.438 10.905-14.99 5.69-11.71 7.045-18.245 6.478-31.241-.34-7.762-1.039-12.282-2.367-15.293l-1.886-4.274-.005 12.774c-.003 7.873-.572 15.076-1.482 18.774l-1.477 6-.282-4c-.486-6.886-2.397-17.47-3.249-17.997-.448-.277-.578 2.112-.288 5.309.718 7.923-1.264 18.724-4.816 26.233-1.623 3.431-3.197 5.993-3.498 5.692-.3-.301.158-2.624 1.02-5.162 3.524-10.381 2.969-25.033-1.499-39.539-4.787-15.542-15.91-29.17-29.071-35.618-6.603-3.235-6.945-3.536-3.353-2.957 5.603.905 17.066 6.495 23 11.217 5.817 4.629 12.55 13.038 15.984 19.962 3.076 6.201 3.305 3.114.427-5.725-3.868-11.874-9.625-19.85-17.911-24.812-5.457-3.268-.683-2.675 6.5.807m-568.838 2.34c-.277.688-.504.125-.504-1.25s.227-1.937.504-1.25c.278.688.278 1.813 0 2.5m14.021 5.938c-.319.797-.556.56-.604-.605-.043-1.054.193-1.644.525-1.312s.368 1.195.079 1.917m11.5 2.029c-.717.717-1.183.776-1.183.15 0-1.335 1.183-2.518 1.85-1.85.284.284-.016 1.049-.667 1.7m501.817-.741c10.937 1.411 21.475 6.82 29.629 15.21 8.119 8.354 12.371 19.659 12.371 32.89 0 9.9-2.742 19.68-7.548 26.924-3.166 4.772-9.452 11.58-9.452 10.237 0-.35 1.358-2.65 3.019-5.11 5.915-8.764 8.951-18.639 8.969-29.167.024-13.88-5.272-26.62-14.856-35.741-3.098-2.947-7.827-6.641-10.509-8.209-5.971-3.488-16.362-6.47-23.101-6.628-4.37-.103-4.632-.217-2.022-.879 2.944-.747 4.457-.694 13.5.473m-488.817 5.741c-.717.717-1.183.776-1.183.15 0-1.335 1.183-2.518 1.85-1.85.284.284-.016 1.049-.667 1.7M863 944.5c-.685.825-1.695 1.5-2.245 1.5-.558 0-.449-.663.245-1.5.685-.825 1.695-1.5 2.245-1.5.558 0 .449.663-.245 1.5m189.059 1.203c1.767 1.487 3.918 4.3 4.779 6.25 1.356 3.071 1.614 3.254 1.925 1.365.197-1.201-.349-3.55-1.213-5.221-1.648-3.186-4.294-5.097-7.061-5.097-1.136 0-.652.834 1.57 2.703m-249.533 7.823c-1.531 3.603-3.008 6.325-3.283 6.05s.752-3.447 2.283-7.05 3.009-6.324 3.284-6.049-.753 3.447-2.284 7.049m28.352 6.352c-9.618 11.556-13.395 14.538-5.614 4.433 5.91-7.676 13.882-16.498 14.421-15.959.236.236-3.727 5.423-8.807 11.526m144.299-8.943c-2.377 1.118-5.601 2.943-7.165 4.056-2.289 1.63-3.357 1.828-5.489 1.018-1.456-.554-5.656-1.278-9.335-1.609-5.401-.486-7.761-.197-12.268 1.507-6.414 2.425-14.92 9.936-14.92 13.175 0 2.49 5.447 7.918 7.945 7.918.954 0 2.231 1.092 2.84 2.426.608 1.335 2.045 6.383 3.193 11.219s3.19 10.672 4.536 12.968c3.098 5.287 7.522 9.034 14.399 12.195 4.09 1.88 7.662 2.605 14.619 2.969 15.643.819 29.591-3.508 41.561-12.892 6.137-4.811 12.697-12.008 16.639-18.253 1.398-2.214 5.008-8.999 8.023-15.079 3.016-6.079 7.229-12.955 9.364-15.281 2.134-2.325 3.881-4.687 3.881-5.25s-.17-1.022-.378-1.022-1.993.675-3.968 1.5c-4.954 2.07-14.94 1.879-29.154-.558-6.6-1.131-18.3-2.278-26-2.548l-14-.491zM874.5 959c-.34.55-1.068 1-1.618 1s-.722-.45-.382-1 1.068-1 1.618-1 .722.45.382 1m-76.817 5.188c-.319.797-.556.56-.604-.605-.043-1.054.193-1.644.525-1.312s.368 1.195.079 1.917M1037 962.355c0 .195-2.588 2.164-5.75 4.376-8.049 5.627-22.239 12.554-32.079 15.658-10.674 3.368-23.579 5.611-32.282 5.611-7.305 0-14.889-2.308-14.889-4.532 0-.723-1.199-2.739-2.664-4.481-2.054-2.44-2.364-3.352-1.352-3.977 1.465-.906 14.607-3.01 18.807-3.011 1.49 0 5.859-.637 9.709-1.414 3.85-.778 14.65-1.927 24-2.555 16.368-1.098 27.226-2.729 32.5-4.883 2.691-1.098 4-1.358 4-.792M819 974.5c-1.288 1.371-2.566 2.267-2.841 1.992s.553-1.621 1.841-2.992 2.566-2.267 2.841-1.992-.553 1.621-1.841 2.992m61.5-.5c-.34.55-1.068 1-1.618 1s-.722-.45-.382-1 1.068-1 1.618-1 .722.45.382 1m-20.5 2.5c-.685.825-1.695 1.5-2.245 1.5-.558 0-.449-.663.245-1.5.685-.825 1.695-1.5 2.245-1.5.558 0 .449.663-.245 1.5m-4 3c-.685.825-1.695 1.5-2.245 1.5-.558 0-.449-.663.245-1.5.685-.825 1.695-1.5 2.245-1.5.558 0 .449.663-.245 1.5m448.493 7.887c1.31 2.963 2.95 8.137 3.644 11.498.963 4.664 1.004 7.898.173 13.666-1.539 10.686-5.799 18.806-13.785 26.276-11.049 10.337-24.235 14.994-39.323 13.888-4.236-.311-9.502-1.209-11.702-1.995l-4-1.431 10.065.48c7.673.366 11.465.073 15.957-1.232 3.241-.943 8.109-2.837 10.818-4.209 9.522-4.826 21.058-17.958 25.78-29.349 1.824-4.401 2.268-7.348 2.254-14.979-.013-6.655-.521-10.66-1.696-13.372-1.846-4.26-1.935-4.628-1.123-4.628.305 0 1.627 2.424 2.938 5.387m-9.81-.199c-.319.797-.556.56-.604-.605-.043-1.054.193-1.644.525-1.312s.368 1.195.079 1.917m3.698 16.312c.059 10.618-1.904 18.064-6.622 25.124-1.793 2.682-5.318 6.252-7.835 7.934s-7.242 3.928-10.5 4.99c-4.327 1.411-8.619 1.915-15.924 1.871-8.859-.055-10.949-.436-18.318-3.339-8.753-3.449-10.656-5.452-2.558-2.692 6.03 2.054 20.031 2.113 27.696.117 7.792-2.03 13.012-4.837 17.687-9.512 8.778-8.778 12.942-19.076 13.075-32.332l.081-8.161 1.584 3.5c1.053 2.325 1.601 6.521 1.634 12.5M1010.5 991.527c-4.38 3.585-16.19 9.07-22.299 10.357-6.978 1.469-18.696 1.293-23.701-.356l-4-1.318 9.622-.105c11.167-.122 24.734-3.222 34.878-7.971 3.575-1.673 6.95-3.047 7.5-3.052.55-.006-.35 1.095-2 2.445m217.183 8.661c-.319.797-.556.56-.604-.605-.043-1.054.193-1.644.525-1.312s.368 1.195.079 1.917m-454.594 8.653c6.922 4.39 11.603 8.872 17.863 17.102 6.062 7.972 9.085 13.102 8.991 15.257-.046 1.048-20.866 19.317-52.073 45.693l-4.014 3.392-1.678-1.705-1.678-1.706 3-2.558c1.65-1.407 6.825-5.847 11.5-9.867 4.675-4.019 13.9-11.896 20.5-17.503 6.6-5.608 14.114-12.237 16.699-14.733 5.342-5.158 5.363-4.939-1.381-13.997l-3.934-5.284-4.267 3.784c-2.347 2.081-14.75 13.805-27.561 26.052l-23.293 22.269-4.131-3.792c-3.358-3.081-7.105-6.056-12.579-9.985-.246-.177 3.156-4.02 7.561-8.541 4.405-4.52 13.13-13.844 19.388-20.719 16.012-17.59 24.269-26 25.525-26 .595 0 3.098 1.279 5.562 2.841m108.64 6.763c-.332.332-1.195.368-1.916.079-.798-.319-.561-.556.604-.604 1.054-.043 1.644.193 1.312.525m-3.479 1.058c-.687.278-1.812.278-2.5 0-.687-.277-.125-.504 1.25-.504s1.938.227 1.25.504m9 6c-.687.278-1.812.278-2.5 0-.687-.277-.125-.504 1.25-.504s1.938.227 1.25.504m320.649 19.382c13.07 12.972 28.121 18.972 47.511 18.939 11.79-.021 21.093-1.774 28.581-5.386 2.946-1.421 5.529-2.411 5.74-2.199.528.528-4.395 3.919-9.231 6.359-2.2 1.11-7.085 2.968-10.855 4.13-4.974 1.533-9.513 2.113-16.54 2.113-5.333 0-12.363-.678-15.645-1.509-3.278-.829-9.335-3.185-13.46-5.235-9.905-4.921-21.061-15.921-26.27-25.902-2.052-3.931-3.726-7.756-3.721-8.5.006-.745 1.423 1.121 3.15 4.146s6.56 8.895 10.74 13.044m-486.649-13.382c-.687.278-1.812.278-2.5 0-.687-.277-.125-.504 1.25-.504s1.938.227 1.25.504m-4 1c-.687.278-1.812.278-2.5 0-.687-.277-.125-.504 1.25-.504s1.938.227 1.25.504m601.433 3.526c-.319.797-.556.56-.604-.605-.043-1.054.193-1.644.525-1.312s.368 1.195.079 1.917m-596.086 7.844c-1.404 2.122-4.646 5.084-7.205 6.584-6.591 3.863-16.272 7.193-24.678 8.49-6.379.984-7.735 1.598-11.716 5.311-2.476 2.309-7.651 6.067-11.5 8.35-6.745 4.001-20.65 10.233-22.832 10.233-2.687 0-9.597 6.388-22.791 21.07-7.874 8.761-14.647 15.93-15.051 15.93-.816 0 2.032-7.922 8.806-24.5 2.472-6.05 6.054-14.825 7.96-19.5s4.239-9.504 5.187-10.73c2.066-2.674 45.931-24.548 53.837-26.846 3.119-.907 7.171-1.383 9.224-1.083 11.792 1.721 14.886 1.817 21.951.687 4.241-.679 8.386-1.611 9.211-2.071 1.135-.633 1.579-.221 1.825 1.691.191 1.486-.727 4.116-2.228 6.384m593.411-.053c-2.832 7.186-6.783 12.671-13.814 19.181-6.832 6.325-19.37 12.861-29.258 15.253-9.307 2.25-24.72 2.072-34.38-.399-8.403-2.149-19.009-7.401-24.569-12.168-1.918-1.644-3.037-2.825-2.487-2.625s4.375 2.02 8.5 4.044c11.368 5.58 18.573 7.161 32.5 7.132 9.14-.019 14.096-.564 20.794-2.287 4.837-1.244 10.912-3.185 13.5-4.314 6.591-2.874 16.259-9.913 20.976-15.273 2.194-2.492 5.281-7 6.859-10.018 1.579-3.017 3.001-5.101 3.159-4.63.159.47-.642 3.218-1.78 6.104m190.024-1.479c-.121 4.773-3.589 11.26-7.191 13.451-1.802 1.095-5.198 2.28-7.548 2.632s-4.063.98-3.807 1.394 2.293.998 4.528 1.298c7.482 1.004 11.463 5.133 13.449 13.95l1.147 5.094 1.258-5.621c.78-3.485 2.303-6.74 4.006-8.563 1.538-1.646 4.702-3.469 7.187-4.141 2.441-.659 5.339-1.572 6.439-2.029 1.621-.672 1.336-.847-1.5-.919-4.739-.122-11.558-3.355-13.097-6.211-.692-1.284-2.055-4.81-3.027-7.835-1.463-4.549-1.782-4.981-1.844-2.5m-172.117 14.946c-1.831 10.138-7.222 18.673-15.747 24.931-5.011 3.678-12.32 6.918-18.168 8.054-2.634.512-1.7-.214 3.772-2.93 9.327-4.631 18.909-13.55 23.194-21.588 3.565-6.689 5.941-14.404 6.132-19.913l.121-3.5.885 4.5c.559 2.84.489 6.694-.189 10.446m-504.985-6.203c-1.194 4.164-1.192 14.1.003 20.404 2.454 12.94 9.831 25.767 18.97 32.984 7.496 5.92 15.498 9.822 24.496 11.943l7.44 1.754 2.656 6.249c1.548 3.641 4.941 8.774 8.13 12.298 6.855 7.574 15.381 12.047 24.519 12.862 5.232.467 7.015 1.129 10.084 3.742 4.985 4.245 13.227 8.18 20.947 10 3.479.82 10.093 1.498 14.697 1.506 7.264.013 8.211.21 7.149 1.49-2.412 2.906-19.137 12.74-29.729 17.481-18.511 8.284-33.622 12.236-65.292 17.073-25.638 3.916-40.822 7.074-52.98 11.016-20.318 6.589-38.219 17.026-50.446 29.413-12.771 12.937-21.022 27.35-28.107 49.095-7.152 21.947-10.807 40.381-19.52 98.447-1.692 11.275-4.482 27.7-6.199 36.5-2.651 13.578-3.232 15.47-3.845 12.5-.397-1.925-1.498-13.623-2.447-25.995-1.312-17.102-1.591-28.85-1.164-49 .561-26.48 1.984-40.439 5.3-52.005.868-3.025 4.8-11.575 8.739-19s8.341-16.216 9.782-19.536c2.624-6.045 6.198-20.017 7.283-28.464.317-2.475 1.267-14.575 2.111-26.889 1.667-24.346 3.315-37.36 6.612-52.218l2.133-9.607 5.624-.893c4.793-.761 5.672-1.234 5.951-3.2.214-1.507-1.131-4.239-3.879-7.877l-4.205-5.571 1.624-5.842c.894-3.214 4.504-13.844 8.023-23.623s6.975-19.719 7.68-22.088c1.12-3.767 3.322-6.067 17.517-18.297 8.929-7.693 16.459-14.571 16.732-15.284.286-.745 3.836-1.823 8.339-2.534 4.313-.68 8.517-1.374 9.342-1.541s2.706-.356 4.18-.42l2.68-.116zm12.67 12.257c2.22 5.629 7.377 11.577 12.518 14.441l4.382 2.44-3.375-3.868c-3.774-4.324-5.58-8.197-6.432-13.785-.651-4.273.75-4.262 1.605.012.821 4.107 7.142 11.848 11.999 14.694 6.038 3.538 13.568 4.975 19.455 3.713 2.614-.561 5.651-1.358 6.75-1.771l1.998-.75-1.427 1.753c-2.025 2.487-6.167 4.448-12.074 5.715-3.745.803-6.855.788-11.698-.055-3.628-.632-8.35-2.044-10.494-3.137-4.87-2.485-11.147-8.098-13.732-12.281-2.78-4.497-4.173-11.67-3.362-17.306l.693-4.815.808 5.5c.444 3.025 1.518 7.3 2.386 9.5m66.38 12c-1.431 4.963-5.153 11.489-9.149 16.04-1.671 1.903-2.823 3.46-2.56 3.46 1.838 0 9.638-3.456 12.186-5.399 1.702-1.298 4.376-4.716 5.943-7.594 1.998-3.672 3.007-7.21 3.38-11.853.367-4.58.769-6.008 1.305-4.636 1.249 3.196 1.025 8.641-.614 14.932-2.061 7.913-3.967 11.696-8.472 16.813-4.922 5.593-12.702 9.345-20.999 10.128l-6.5.614 6.612-2.278c6.236-2.149 15.546-7.402 14.67-8.278-.221-.221-2.849.564-5.842 1.745-4.256 1.679-7.617 2.152-15.44 2.174-8.041.023-11.077-.405-15.5-2.184-5.29-2.128-15.603-8.915-14.786-9.731.217-.217 2.396.604 4.841 1.826 3.721 1.859 6.074 2.216 14.445 2.19 8.963-.028 10.622-.333 16-2.939 8.236-3.991 15.629-11.587 18.346-18.849 1.185-3.166 2.242-7.652 2.35-9.969.112-2.405.355-1.209.567 2.788.204 3.85-.149 8.8-.783 11m489.703-15.312c-.319.797-.556.56-.604-.605-.043-1.054.193-1.644.525-1.312s.368 1.195.079 1.917m-701.579 12.416c-6.694 6.414-13.262 12.519-14.595 13.568l-2.424 1.906-8.292-1.608c-4.561-.884-8.952-1.825-9.758-2.09-.874-.288 1.548-2.112 6-4.52 7.802-4.219 12.425-7.352 17.465-11.837 2.235-1.988 4.892-2.976 10.417-3.871 4.079-.662 8.579-1.786 10-2.499s2.758-1.165 2.971-1.003c.213.161-5.089 5.54-11.784 11.954m699.45-3.143c-1.984 6.827-9.436 16.792-15.815 21.151-2.618 1.789-7.343 4.272-10.5 5.517-4.687 1.85-7.664 2.262-16.239 2.252-8.813-.012-11.705-.442-18-2.682-4.125-1.467-6.15-2.454-4.5-2.194 9.008 1.42 19.775 1.653 26.063.563 3.815-.661 10.312-2.83 14.437-4.82 5.176-2.497 9.396-5.536 13.619-9.809 3.443-3.482 7.38-8.768 9-12.083 1.585-3.242 3.026-5.325 3.203-4.63s-.393 3.726-1.268 6.735M724.937 1076c6.88 6.791 14.063 16.71 14.063 19.419 0 .87-.188 1.581-.418 1.581s-1.072.251-1.871.558c-.967.37-2.342-.959-4.106-3.969-3.54-6.041-12.453-15.553-19.621-20.942l-5.824-4.378 1.598-1.598 1.598-1.599 3.998 2.214c2.199 1.218 6.961 5.139 10.583 8.714m-16.327-.405c2.14 1.427 6.068 4.689 8.73 7.25 5.598 5.385 13.66 16.231 13.66 18.377 0 .807-.902 2.284-2.005 3.282l-2.005 1.815-6.746-6.513c-3.71-3.582-7.646-6.781-8.745-7.109-1.1-.327-6.274-1.549-11.499-2.715s-10.035-2.289-10.688-2.496c-1.321-.418 12.538-14.443 14.298-14.469.611-.009 2.861 1.151 5 2.578m-34.11 14.538c22.581 4.934 31.65 7.384 36.323 9.81 2.022 1.05 7.682 5.957 12.577 10.904l8.901 8.995-1.649 1.649c-2.702 2.701-2.97 6.007-.868 10.67 2.083 4.621 5.317 8.03 11.606 12.237l3.889 2.602h-4.458c-8.186 0-14.08-2.584-25.501-11.178-5.951-4.479-12.236-9.271-13.966-10.649-2.591-2.065-6.1-3.01-19.896-5.356-9.213-1.566-17.753-3.404-18.979-4.083a795 795 0 0 1-5.427-3.048c-4.784-2.712-10.022-2.356-17.613 1.196-8.503 3.979-23.463 14.313-34.784 24.028-17.973 15.424-20.211 17.251-22.848 18.652-1.482.787-2.891 1.095-3.133.684-1.147-1.949 2.422-6.52 15.669-20.066 7.896-8.074 17.193-17.83 20.66-21.68 12.526-13.911 25.569-26.742 28.997-28.528 2.507-1.306 4.777-1.674 8-1.298 2.475.289 12.6 2.295 22.5 4.459m82.319 17.372c-3.864 11.547-7.216 21.195-7.45 21.44-.549.574-14.188-12.859-15.526-15.29-.784-1.425-.596-2.143.821-3.149 1.01-.716 7.911-6.481 15.336-12.811 7.425-6.329 13.577-11.435 13.671-11.347.095.089-2.989 9.609-6.852 21.157m630.715-17.138c-6.003 7.87-17.082 13.653-27.596 14.405-3.712.266-8.93.132-11.594-.298l-4.844-.781 9.691-1.271c5.33-.699 12.472-2.285 15.87-3.524 6.429-2.345 16.422-8.314 18.832-11.25.765-.933 1.598-1.49 1.85-1.238.253.252-.742 2.033-2.209 3.957m-448.09 13.171c-2.208 7.022-8.317 14.028-14.906 17.096-8.307 3.869-19.027 2.965-25.038-2.109l-2-1.688 2 .692c1.1.381 4.989.925 8.643 1.209 4.821.374 8.25.015 12.5-1.311 4.537-1.414 7.132-3.094 11.515-7.455 3.827-3.807 6.078-7.026 6.952-9.945.711-2.374 1.467-3.795 1.68-3.157s-.393 3.639-1.346 6.668m528.18-2.038c-1.469 8.53-4.875 21.979-6.932 27.362-2.844 7.448-8.716 13.255-16.253 16.075-6.145 2.299-22.937 6.063-27.049 6.063-1.315 0-2.39.351-2.39.779s4.021 1.326 8.935 1.996c11.724 1.596 23.551 5.401 28.808 9.268 2.924 2.15 5.123 5.011 7.134 9.282 2.798 5.943 6.152 18.712 7.663 29.175l.722 5 1.832-10.687c1.008-5.878 3.252-14.368 4.988-18.868 5.099-13.223 10.224-16.999 29.607-21.81 4.296-1.067 10.061-2.272 12.811-2.678l5-.739-7.5-1.303c-11.434-1.988-20.715-4.598-26.338-7.407-2.892-1.446-6.444-4.322-8.235-6.67-3.546-4.649-8.768-19.809-10.796-31.338l-1.319-7.5zm-508.046 19.879c-.839 2.887-2.868 7.102-4.51 9.368s-4.915 5.222-7.276 6.569-6.317 2.702-8.792 3.011l-4.5.563 3.46-1.534c6.049-2.681 11.914-7.523 15.463-12.768 3.483-5.148 6.42-13.404 6.766-19.02.104-1.687.352-.451.552 2.748.209 3.355-.283 8.035-1.163 11.063m329.874-12.442c3.945 3.802 13.999 8.752 20.695 10.188 2.898.622 8.243.881 11.877.576 7.419-.622 17.087-3.69 21.226-6.737 1.513-1.113 2.75-1.607 2.75-1.098 0 1.601-7.097 7.24-11.897 9.453-3.789 1.747-6.547 2.127-15.603 2.151l-11 .03-6-2.798c-7.206-3.362-19.392-14.702-15.798-14.702.387 0 2.074 1.322 3.75 2.937m-39.769.251c-.319.797-.556.56-.604-.605-.043-1.054.193-1.644.525-1.312s.368 1.195.079 1.917m-304.529 7.196c-2.824 6.385-9.465 13.138-16.011 16.283-4.475 2.149-7.091 2.711-12.643 2.714-4.905.003-8.347-.604-11.5-2.03-4.807-2.174-11-6.93-11-8.45 0-.506 2.362.322 5.25 1.839 4.283 2.252 6.816 2.822 13.75 3.095 6.797.268 9.631-.089 14.147-1.783 3.106-1.165 7.639-3.872 10.074-6.015s5.519-5.966 6.853-8.495c2.974-5.637 3.832-3.379 1.08 2.842m312.872 8.654c2.201 3.242 6.808 8.164 10.236 10.938s9.609 6.441 13.736 8.148c4.126 1.708 7.727 3.33 8.002 3.604s-1.975.196-5-.173c-7.693-.938-19.043-6.636-23.569-11.833-4.48-5.144-10.327-17.001-11.004-22.318l-.498-3.904 2.047 4.822c1.126 2.652 3.848 7.474 6.05 10.716m-603.307-7.367c1.936.919 12.439 10.481 23.339 21.25 22.121 21.853 20.295 18.786 22.372 37.579l1.105 10-3.405 3.248-3.406 3.248.667 5.673c.367 3.12 1.549 7.669 2.629 10.108l1.961 4.435-2.74-.684c-3.745-.934-8.642-4.815-11.051-8.757-2.927-4.789-5.171-13.238-5.781-21.771-.295-4.125-.721-8.429-.945-9.565-.399-2.015-22.972-22.615-34.286-31.288l-5.678-4.353-5.068.42c-3.547.294-6.861 1.509-11.038 4.047-6.949 4.221-38.283 26.006-46.568 32.376-3.121 2.4-5.885 4.363-6.143 4.363-1.19 0-1.472-3.18-.572-6.439 1.585-5.741 10.598-12.899 52.139-41.409 9.937-6.82 23.95-14.152 27.046-14.152 1.046 0 3.486.752 5.423 1.671m30.333 8.854c6.812.983 12.055 2.253 12.948 3.137 1.331 1.318.896 2.044-3.856 6.444l-5.355 4.96-8.087-7.359c-4.447-4.048-8.283-7.95-8.524-8.672s-.018-1.054.494-.738 6.083 1.319 12.38 2.228M746.5 1135c9.366 9.395 10.604 10.997 8.483 10.978-3.919-.035-10.455-3.45-15.5-8.101-5.894-5.432-7.931-9.171-6.478-11.886.586-1.095 1.395-1.991 1.797-1.991.403 0 5.667 4.95 11.698 11m-40.066 1.527 1.934 1.463-1.743 7.395c-.959 4.067-2.344 8.216-3.078 9.22l-1.334 1.824-4.567-4.965c-2.511-2.73-4.584-5.27-4.606-5.643-.044-.753 10.166-10.784 10.96-10.768.275.006 1.37.669 2.434 1.474m257.566.332c0 .473-1.811 2.916-4.024 5.43-3.846 4.37-6.519 5.775-13.726 7.219-2.061.413-3.25.256-3.25-.429 0-.593.788-1.083 1.75-1.089 3.205-.018 11.706-4.698 15.196-8.368 1.896-1.992 3.583-3.622 3.75-3.622s.304.387.304.859m115.052 53.916c-2.505 7.005-13.2 30.717-16.79 37.225-8.008 14.516-16.667 25.533-22.462 28.58-3.237 1.702-11.075 1.863-14.116.29-1.754-.907-1.593-.493.816 2.101 1.65 1.777 4.056 3.641 5.347 4.142 3.761 1.46 9.789-.749 14.27-5.23 4.939-4.939 13.275-17.649 18.759-28.603 4.5-8.987 10.58-23.915 14.09-34.594 2.336-7.108 2.409-10.407.086-3.911m-375.234 5.475c.71 2.888 1.557 8.524 1.882 12.525.502 6.16.366 7.188-.884 6.708-1.558-.598-5.29-10.381-6.397-16.773-.5-2.887-.234-4.257 1.117-5.75.976-1.078 2.048-1.96 2.382-1.96s1.19 2.362 1.9 5.25m-40.338 15.81c-.926 2.788-1.898 4.855-2.161 4.593-.262-.263.331-3.039 1.318-6.169.986-3.13 1.959-5.197 2.16-4.592.202.604-.391 3.38-1.317 6.168m592.02.021c-5.301 1.606-40.525 8.719-56 11.308-8.25 1.38-27.15 4.112-42 6.071-27.743 3.66-60.453 9.114-64 10.671-1.557.684-1.336.774 1 .406 1.65-.261 12.9-1.179 25-2.04 27.295-1.944 44.882-3.9 63.113-7.019 21.482-3.676 48.268-10.113 64.387-15.473 7.975-2.652 13.825-4.824 13-4.827s-2.85.403-4.5.903m-344.743 8.413c7.087 3.334 21.769 8.002 32.743 10.41 9.857 2.162 31.137 5.137 35.958 5.026 1.673-.038-7.758-2.466-20.958-5.396s-29.625-6.743-36.5-8.475c-17.278-4.354-17.123-4.332-11.243-1.565m594.895 1.464c-1.078 6.473-4.073 12.616-7.127 14.618-1.465.959-5.444 2.54-8.844 3.513-3.741 1.07-5.166 1.797-3.609 1.84 4.947.137 11.857 3.226 14.856 6.642 2.006 2.284 3.397 5.38 4.23 9.416l1.242 6.012 1.335-5.217c1.627-6.358 3.949-10.479 7.265-12.894 1.375-1.001 4.75-2.347 7.5-2.991 7.996-1.871 8.296-2.183 2.825-2.942-2.846-.395-6.867-1.559-8.936-2.587-4.261-2.115-6.983-6.644-8.807-14.65l-1.188-5.218zm-867.751 4.775c1.216 1.778 5.89 6.503 10.386 10.5 21.301 18.935 31.115 29.683 36.151 39.591.93 1.828 2.572 6.553 3.649 10.5l1.959 7.176-.392-7.287c-.312-5.792-1.086-8.664-3.773-14-4.135-8.211-14.622-19.482-28.381-30.503-5.5-4.406-12.657-10.53-15.904-13.61-4.318-4.094-5.311-4.731-3.695-2.367m-155.764 30.725c-1.633 9.72-6.215 18.904-11.016 22.081-3.624 2.398-17.011 6.378-22.031 6.55-1.424.048 1.91 1.066 7.41 2.262s11.679 3.213 13.732 4.482 4.659 3.609 5.791 5.199c2.875 4.037 5.596 12.414 6.505 20.024l.77 6.444 1.759-9.101c.967-5.005 2.931-11.416 4.365-14.245 1.583-3.125 4.083-6.122 6.366-7.632 3.688-2.441 17.018-6.429 22.122-6.618 1.424-.053-1.235-.91-5.91-1.905-9.283-1.976-15.472-4.285-18.358-6.849-3.198-2.84-6.836-11.267-8.578-19.872l-1.675-8.274zM535 1317.895c0 1.592-.889 5.772-1.975 9.289-1.207 3.908-3.09 7.462-4.843 9.141-3.53 3.382-11.342 6.441-18.64 7.299-3.021.355-5.293.969-5.049 1.365.245.396 3.156 1.003 6.47 1.349 14.144 1.479 20.31 7.266 23.14 21.716.694 3.545 1.63 6.874 2.08 7.396.449.522.817-.633.817-2.568 0-5.018 2.741-13.764 5.653-18.04 2.929-4.3 8.672-7.01 18.847-8.89l7-1.295-7.798-1.327c-13.393-2.281-18.651-6.189-21.727-16.146-1.086-3.517-1.975-7.697-1.975-9.289s-.45-2.895-1-2.895-1 1.303-1 2.895m150 6.172c-3.575 3.638-8.975 8.052-12 9.81-4.193 2.435-4.787 3.033-2.5 2.517 4.664-1.054 10.674-4.303 14.338-7.752 2.928-2.756 7.855-10.529 6.982-11.013-.176-.097-3.245 2.8-6.82 6.438m128.388 32.698c-.175 20.038-3.241 36.265-9.434 49.945-2.106 4.65-4.08 7.423-6.264 8.798-1.755 1.104-6.243 6.504-9.975 12-11.444 16.853-28.831 46.346-33.885 57.479-6.705 14.769-8.899 23.985-8.93 37.513-.033 14.876 2.534 26.821 9.287 43.207 2.291 5.561 2.213 5.516 12.172 6.885l4.858.668-.737-2.38c-.405-1.309-1.525-3.955-2.489-5.88-3.317-6.628-7.911-21.52-9.562-31-2.082-11.956-1.362-23.343 2.141-33.868 1.397-4.198 4.672-11.907 7.278-17.132 5.011-10.048 19.97-36.758 28.562-51l5.128-8.5 5.931-.306c7.389-.381 18.312 1.971 30.031 6.466 10.798 4.141 18.507 8.321 32.5 17.621 19.508 12.965 39.639 29.669 64.297 53.35 5.938 5.703 11.362 10.369 12.054 10.369s7.083-3.66 14.203-8.132c19.318-12.136 28.39-17.306 44.84-25.555 25.431-12.754 49.908-22.093 74.106-28.275 8.25-2.108 20.032-4.553 26.182-5.435 13.963-2.002 36.973-2.06 48.818-.124 4.95.81 13.05 2.642 18 4.074 10.17 2.94 27.794 10.101 37.5 15.236 26.442 13.992 49.91 31.2 70.053 51.369 7.726 7.737 14.67 15.029 15.429 16.204s2.087 8.608 2.949 16.517c.863 7.908 1.569 15.038 1.569 15.844 0 1.19.984 1.332 5.25.758 2.888-.389 5.371-.815 5.519-.946.479-.426-2.743-29.468-5.791-52.201-3.372-25.155-6.951-45.391-10.52-59.488-3.33-13.152-8.519-28.115-12.259-35.346-1.706-3.3-3.124-5.719-3.151-5.376-.026.344.595 2.448 1.381 4.676 2.46 6.972 5.418 22.25 6.523 33.7.585 6.05 1.33 12.8 1.656 15l.594 4-4.351-4.033c-4.234-3.924-10.913-9.234-13.76-10.938-.775-.464 1.194 2.225 4.376 5.975 3.181 3.751 7.903 10.064 10.492 14.03l4.707 7.211 1.179 14.079c.649 7.744 1.471 16.205 1.827 18.803l.648 4.724-9.91-9.955c-11.457-11.508-27.397-25.289-39.208-33.896-21.866-15.934-45.258-28.506-65.761-35.342-6.567-2.19-17.791-4.972-24.941-6.182-11.294-1.912-15.362-2.128-31-1.644-22.205.687-37.695 3.331-59.648 10.184-27.125 8.466-60.904 25.287-89.411 44.524-4.182 2.822-7.789 4.946-8.015 4.72-.593-.593 6.607-18.723 11.607-29.226 2.347-4.932 8.483-15.231 13.635-22.887s8.662-13.336 7.798-12.619c-3.112 2.583-14.298 16.669-20.633 25.984-8.534 12.549-14.742 24.221-19.47 36.606l-3.863 10.118-5.359 2.812-5.359 2.811-11.539-12.429c-15.526-16.723-30.848-31.693-41.743-40.784-10.339-8.627-24.547-18.164-36.631-24.589-10.594-5.632-27.883-11.447-36.404-12.242-5.124-.479-6.444-.927-6.016-2.043.302-.786 1.56-5.106 2.797-9.601 1.972-7.17 2.233-10.376 2.133-26.171-.091-14.313-.5-19.38-1.997-24.735l-1.882-6.736zm716.631 224.324c-10.714 2.185-19.807 4.299-20.206 4.698-.679.679-5.005 15.428-11.356 38.713-1.5 5.5-3.04 10.351-3.422 10.779-.381.429-2.898-2.046-5.591-5.5a4939 4939 0 0 0-15.837-20.096c-9.013-11.382-11.307-13.725-13.024-13.299-1.146.284-9.946 1.925-19.556 3.645-9.61 1.721-17.823 3.345-18.25 3.609s-.777.917-.777 1.452 6.188 8.071 13.75 16.75 21.36 24.724 30.661 35.657c14.43 16.962 17.048 20.549 17.839 24.441 3.468 17.059 7.987 36.678 8.588 37.289.697.708 36.006-5.737 37.027-6.759.281-.281-1.42-10.083-3.781-21.781l-4.293-21.27 2.171-7.458c1.193-4.103 6.898-22.084 12.676-39.959s11.214-34.75 12.08-37.5 1.781-5.562 2.035-6.25c.253-.687.075-1.224-.396-1.192s-9.623 1.846-20.338 4.031m-1033.391 9.267c-.892.696-2.46 6.627-4.005 15.144-1.983 10.932-2.275 14.26-1.332 15.185.665.652 8.296 2.663 16.959 4.469 12.707 2.648 15.75 3.604 15.75 4.946 0 1.912-9.526 53.329-13.877 74.9-2.29 11.356-2.663 14.775-1.719 15.769.663.698 8.381 2.602 17.151 4.23s16.684 2.97 17.588 2.981 1.945-.767 2.315-1.73c.577-1.504 11.391-55.613 16.237-81.25.884-4.675 1.713-8.636 1.841-8.802.129-.165 7.339 1.072 16.022 2.75 8.684 1.679 16.827 3.052 18.096 3.052 1.566 0 2.482-.723 2.849-2.25 1.599-6.646 4.497-23.675 4.497-26.427v-3.181l-5.25-1.07c-6.755-1.375-29.273-5.667-42.75-8.147-9.544-1.757-53.124-10.381-57.204-11.321-.936-.216-2.362.122-3.168.752M1375 1611.678c-3.702.379-21.657 3.08-26.166 3.937-1.467.279-2.92 1.167-3.23 1.974-.309.806 2.807 22.716 6.925 48.689 10.2 64.328 12.171 75.838 13.139 76.696.458.406 17.707-2.11 38.332-5.59s40.8-6.851 44.833-7.49 7.538-1.696 7.788-2.35c.413-1.076-3.906-26.596-5.212-30.796-.373-1.197-1.236-1.597-2.727-1.261-1.2.27-12.307 2.078-24.682 4.019-12.375 1.94-23.227 3.756-24.115 4.036-1.235.388-1.748-.382-2.178-3.267-2.307-15.474-14.707-87.465-15.202-88.268-.343-.554-1.384-.935-2.314-.847s-3.266.321-5.191.518m-758.565 2.03c-.789.789-1.435 2.006-1.435 2.704 0 .697-2.038 14.728-4.529 31.178s-6.31 42.06-8.488 56.91-4.171 27.904-4.429 29.008c-.259 1.105-.088 2.628.38 3.385.54.874 7.318 2.454 18.592 4.334 14.197 2.366 17.902 2.699 18.54 1.666.914-1.479 1.923-7.214 5.027-28.576 1.214-8.351 2.5-15.659 2.86-16.24.447-.724 6.469-.262 19.1 1.465 10.146 1.387 19.418 2.73 20.604 2.986 1.446.311 2.02 1.042 1.74 2.218-.584 2.449-5.397 41.103-5.397 43.343 0 1.266 1.156 2.148 3.75 2.859 4.094 1.122 26.707 4.052 31.274 4.052 1.844 0 3.021-.614 3.353-1.75.91-3.113 3.527-22.982 7.673-58.25 2.23-18.975 4.917-40.968 5.971-48.874 1.339-10.042 1.614-14.94.913-16.25-.553-1.032-1.551-1.877-2.219-1.878s-8.377-.923-17.131-2.048c-13.032-1.675-16.141-1.811-17.156-.748-.69.723-2.394 10.381-3.845 21.798-1.434 11.275-2.601 20.838-2.595 21.25.007.412-1.296.75-2.895.75-2.874 0-37.226-4.8-37.693-5.267-.133-.133 1.163-10.08 2.879-22.105l3.12-21.863-1.718-1.256c-.944-.691-3.847-1.553-6.449-1.917-2.603-.363-10.049-1.484-16.547-2.49-10.264-1.589-12.004-1.641-13.25-.394m643.975 10.723c-9.282 2.101-20.178 7.049-27.616 12.542-11.313 8.354-19.184 20.166-22.962 34.459-2.315 8.758-2.43 24.957-.248 34.871.872 3.958 3.6 11.397 6.064 16.531 3.552 7.404 5.965 10.825 11.665 16.54 7.392 7.411 14.815 12.013 25.412 15.756 8.09 2.857 24.403 3.572 34.153 1.495 8.105-1.726 14.74-4.592 19.074-8.238l2.813-2.367 1.259 3.038c1.051 2.538 1.688 2.955 3.867 2.531 1.435-.279 8.613-1.272 15.951-2.207 8.755-1.115 13.515-2.149 13.844-3.007.276-.719-.2-6.61-1.058-13.091-6.916-52.221-7.933-58.905-9.155-60.18-1.143-1.194-5.274-.876-28.396 2.185-14.883 1.97-27.513 3.862-28.068 4.205-1.754 1.085-.898 15.64 1.553 26.389l.543 2.383 7.697-.679c4.234-.374 9.386-.941 11.448-1.261l3.75-.582v3.941c0 3.009-.651 4.549-2.75 6.514-3.998 3.74-8.17 5.583-15.201 6.716-17.233 2.775-31.208-6.6-35.628-23.9-2.016-7.891-1.504-16.777 1.336-23.199 2.605-5.888 8.523-12.403 13.675-15.054 5.13-2.64 17.668-3.554 24.089-1.756 2.481.695 6.545 2.553 9.03 4.129s4.846 2.865 5.247 2.865 5.864-5.45 12.14-12.11c9.332-9.902 11.225-12.409 10.382-13.75-1.954-3.108-14.517-10.84-22.16-13.638-6.772-2.478-9.284-2.841-21.66-3.127-9.387-.216-16.007.131-20.09 1.056m-478.258 16.819c-2.147 4.537-6.616 14.1-9.93 21.25s-11.072 23.8-17.24 37c-12.021 25.728-25.982 56.294-25.982 56.884s6.756 1.486 19.5 2.585c6.6.57 13.929 1.289 16.287 1.6l4.287.565 4.528-9.691 4.529-9.69 8.184.655c9.299.744 26.125 2.394 32.398 3.177l4.213.526 1.737 8.08c.955 4.444 2.434 8.916 3.286 9.937 1.335 1.598 4.164 2.025 20.269 3.063 10.295.663 18.992.932 19.327.598.334-.335-.527-4.811-1.914-9.949-18.959-70.234-32.605-120.147-32.938-120.48-.422-.422-40.372-4.336-44.415-4.352-1.803-.006-2.957 1.546-6.126 8.242m381.848-5.03c-6.786.549-12.04 1.455-12.819 2.21-1.09 1.058-.966 6.181.72 29.674 3.283 45.75 3.419 49.049 2.209 53.515-2.364 8.721-9.017 13.381-19.102 13.381-3.34 0-7.573-.627-9.408-1.394-4.924-2.057-8.497-7.36-9.596-14.239-.515-3.227-1.648-21.596-2.517-40.821-.954-21.11-2.006-35.466-2.656-36.25-.803-.967-5.314-1.296-17.762-1.296-11.923 0-17.183.363-18.426 1.272l-1.739 1.271 1.548 36.479c.851 20.063 1.991 40.294 2.534 44.959.751 6.461 1.917 10.42 4.892 16.62 7.347 15.311 19.965 24.58 38.176 28.04 15.241 2.896 34.07.131 47.412-6.962 3.289-1.748 8.58-5.72 11.757-8.825 7.404-7.236 12.329-17.26 13.946-28.381.985-6.774.749-13.906-1.573-47.417-1.503-21.694-3.168-40.257-3.7-41.25-.775-1.448-2.1-1.777-6.681-1.661-3.143.079-10.89.563-17.215 1.075m-278.348 5.271c-.909.908-1.647 2.857-1.641 4.33.006 1.474-.939 29.597-2.099 62.496s-1.841 60.087-1.511 60.417c.329.33 8.562 1.016 18.295 1.525 15.873.831 17.818.759 18.886-.702.818-1.118 1.394-10.638 1.837-30.343.355-15.793.968-29.923 1.363-31.401l.718-2.687 18 27.136c9.9 14.925 19.8 29.859 22 33.187l4 6.051 18.266.273 18.266.272.984-2.587c1.322-3.477 1.33-120.418.009-123.893l-.975-2.565h-17.403c-13.293 0-17.664.315-18.51 1.335-.746.898-1.195 11.586-1.373 32.676l-.264 31.341-3.936-6.426c-8.021-13.097-35.809-55.499-37.729-57.572-1.72-1.857-3.49-2.23-13.161-2.778-6.146-.349-13.693-.882-16.772-1.185-4.397-.434-5.953-.198-7.25 1.1m-74.681 50.253c2.216 10.035 4.029 18.968 4.029 19.852 0 1.387-.994 1.52-7.25.972-3.987-.35-9.424-.893-12.082-1.207l-4.832-.571.583-2.325c.321-1.278 3.436-9.219 6.921-17.645s6.687-16.22 7.115-17.32.937-1.55 1.132-1 2.168 9.21 4.384 19.244"/></svg>