<svg xmlns="http://www.w3.org/2000/svg" viewBox="0 0 2048 2048"><path fill-rule="evenodd" d="M967 388.56c-.825.18-6.788.622-13.25.982l-11.75.655v95.419l9.25-.375c5.087-.205 9.813-.555 10.5-.776.935-.301 1.25-4.661 1.25-17.291v-16.889l6.147-.643c3.38-.353 7.655-.642 9.5-.642H982v-20h-18v-18.711l6.75-.637c3.712-.351 8.663-.641 11-.645L986 409v-21l-8.75.116c-4.812.064-9.425.263-10.25.444m-49.5 2.58c-9.9.995-19.462 2.066-21.25 2.38l-3.25.571v95.167l8.25-.697c4.538-.383 9.252-.937 10.477-1.231l2.227-.535.273-17.148.273-17.147 9.25-.854 9.25-.854V431l-3.75.073c-2.062.04-6.112.409-9 .821l-5.25.747V413.5c0-.275.215-.604.477-.732.263-.127 5.1-.689 10.75-1.25L936.5 410.5l-.342-10.5c-.188-5.775-.413-10.538-.5-10.584s-8.258.73-18.158 1.724m74.162 19.61c-.362 11.962-.658 33.571-.66 48.02L991 485.039l21.75-.269 21.75-.27.283-10.5.284-10.5-11.575.311-11.575.311.292-8.311.291-8.311 8.75-.289 8.75-.289V428h-17.078l.289-8.75.289-8.75 11.186-.282 11.187-.282.313-10.47.314-10.47-22.091.002-22.09.002zm50.516 18.982c-.67 21.872-1.21 43.421-1.198 47.886l.02 8.118 21.567.732c11.861.402 21.717.574 21.901.382.184-.193.492-5.075.684-10.85l.348-10.5-11.25-.283-11.25-.283V449h18v-20h-17.078l.289-8.627.289-8.627 11.123.179c8.99.145 11.231-.103 11.688-1.293.311-.81.658-5.671.771-10.802l.205-9.33-22.445-.268-22.445-.269zm74.822-35.9c0 .626.882 11.157 1.961 23.403 1.078 12.246 2.651 31.94 3.496 43.765.844 11.825 1.77 22.897 2.057 24.605l.522 3.105 7.633.645c4.198.355 8.652.645 9.897.645h2.264l5.085-21.037c2.797-11.57 5.085-21.995 5.085-23.166 0-1.172.278-1.852.619-1.512s.99 7.953 1.444 16.917 1.11 19.523 1.459 23.465l.633 7.167 4.673.556c2.569.307 6.895.682 9.612.834l4.94.276 1.689-6c.929-3.3 3.813-14.1 6.407-24 3.85-14.689 15.033-55.05 17.078-61.634.43-1.385-1.024-1.821-9.572-2.868-5.543-.679-10.268-1.045-10.501-.813s-2.818 11.293-5.746 24.58-5.572 24.405-5.874 24.707-.833-9.019-1.181-20.712-.92-22.899-1.27-24.903l-.637-3.643-7.461-.699c-4.103-.385-7.71-.451-8.014-.147-.441.442-6.398 24.33-11.129 44.632-.529 2.27-1.008-5.386-1.362-21.787-.301-13.907-.762-25.502-1.025-25.764s-5.496-.766-11.63-1.117c-8.041-.46-11.152-.32-11.152.5m-270.793 2.752c-9.033 4.501-16.116 14.567-19.764 28.088-.865 3.205-1.821 11.228-2.124 17.828-.403 8.776-.108 14.532 1.095 21.423 2.573 14.735 7.308 23.701 15.532 29.414 4.058 2.818 5.317 3.162 11.554 3.156 5.877-.005 7.86-.482 12.359-2.968 2.947-1.629 6.833-4.684 8.635-6.789 5.472-6.393 9.556-15.224 11.583-25.045 3.307-16.026 2.121-37.687-2.704-49.391-.862-2.09-3.298-6.11-5.415-8.934-5.035-6.719-10.428-9.366-19.077-9.366-4.973 0-7.7.604-11.674 2.584m-47.772 4.794c-7.064 3.289-14.845 11.542-18.916 20.063-1.855 3.882-4.081 10.528-4.946 14.767-.931 4.562-1.573 12.761-1.573 20.09 0 9.136.528 14.446 2.013 20.254C779.808 495.299 787.014 503 799.764 503c7.72 0 14.621-3.452 21.124-10.568l4.957-5.424-4.118-9.016-4.118-9.016-3.564 3.48c-1.96 1.914-4.989 3.977-6.73 4.584-2.579.899-3.634.797-5.689-.549-1.387-.909-3.333-3.754-4.324-6.322-1.39-3.601-1.791-7.413-1.752-16.669.041-10.014.421-12.942 2.299-17.69 1.357-3.432 3.688-6.952 5.875-8.873l3.626-3.183 5.682.515 5.682.515 1.68-9.406c.924-5.174 1.911-10.01 2.194-10.747.763-1.989-8.49-5.633-14.273-5.621-2.943.006-6.785.927-9.88 2.368m408.182 5.784c-.349 2.936-2.197 22.438-4.106 43.338s-3.713 40.079-4.008 42.619l-.537 4.619 7.267.675c3.997.371 8.666.918 10.377 1.216l3.11.541.638-4.835c.351-2.659 1.525-13.385 2.609-23.835 1.083-10.45 3.109-28.791 4.501-40.758 1.393-11.966 2.532-22.826 2.532-24.132v-2.375l-7.75-.673c-4.263-.371-9.156-.913-10.874-1.205l-3.124-.532zm31.901 2.236c-.842 3.962-8.518 85.171-8.518 90.111v3.081l18.75 1.844c10.313 1.014 19.174 1.894 19.692 1.955 1.051.124 2.177-6.12 2.708-15.017l.35-5.872-9.25-.854c-8.146-.752-9.25-1.082-9.25-2.767 0-1.84 3.489-33.416 6.449-58.361.781-6.589 1.283-12.119 1.114-12.288s-5.098-1.124-10.953-2.121l-10.646-1.814zM735.5 413.087c-2.2.488-11.312 2.542-20.25 4.565L699 421.33l.02 5.085c.021 5.439 3.04 50.166 5.085 75.348l1.24 15.263 3.577-.62c1.968-.341 9.878-2.11 17.578-3.931s15.585-3.604 17.522-3.962l3.522-.65-.746-10.073c-.411-5.54-.871-10.192-1.022-10.339-.152-.146-4.898.657-10.547 1.787s-10.486 1.838-10.749 1.575c-.262-.262-.765-3.877-1.116-8.033l-.639-7.557 7.085-1.612c3.897-.886 8.018-1.611 9.158-1.611h2.072l-.658-9.75c-.362-5.363-.708-9.819-.77-9.903s-3.877.5-8.48 1.299c-4.602.799-8.575 1.245-8.828.992s-.538-4.211-.632-8.795l-.172-8.333 10.25-1.969 10.25-1.969v-7.661c0-8.01-.811-13.982-1.875-13.811-.344.056-2.425.5-4.625.987m550.057 4.857c-.746 3.698-10.377 81.714-10.746 87.056l-.311 4.5 7.5 1.22c4.125.671 13.021 2.066 19.769 3.1l12.268 1.88.493-2.1c.5-2.129 2.298-17.954 2.076-18.274-.066-.095-4.118-.871-9.004-1.724-4.887-.853-9.01-1.676-9.163-1.829-.31-.311 2.262-21.425 6.154-50.52 1.417-10.586 2.396-19.786 2.176-20.445s-4.965-2.147-10.547-3.308l-10.148-2.111zm-424.791 4.306c1.162 1.238 2.657 4.501 3.321 7.25 1.622 6.714 1.619 25.728-.005 32.308-1.557 6.311-5.307 11.192-8.598 11.192-2.889 0-6.067-3.874-7.695-9.381-.697-2.356-1.215-9.897-1.209-17.619.009-11.97.275-14.098 2.349-18.775 1.286-2.902 3.066-5.701 3.955-6.22 2.712-1.585 5.66-1.119 7.882 1.245M662 427.496c-2.475.725-8.325 2.64-13 4.255l-8.5 2.937.323 7.906c.298 7.303 1.229 22.328 4.349 70.213l1.192 18.307 4.068-.67c8.358-1.378 22.825-5.432 27.298-7.649 6.539-3.243 14.351-10.695 17.774-16.956 2.444-4.469 2.921-6.493 2.93-12.42.008-5.616-.511-8.097-2.512-12-2.097-4.089-3.53-5.425-8.491-7.919l-5.967-3 3.224-2.81c1.773-1.545 4.475-5.368 6.005-8.494 2.308-4.718 2.774-6.961 2.741-13.19-.03-5.746-.558-8.499-2.25-11.743-3.129-5.996-8.009-8.289-17.394-8.174-4.01.05-9.315.683-11.79 1.407m693.522 1.789c-.274 1.218-2.322 14.59-4.551 29.715s-5.159 34.731-6.512 43.569-2.459 16.989-2.459 18.114c0 1.706 1.032 2.251 6.25 3.301 3.438.691 7.967 1.612 10.066 2.045 2.629.543 3.934.427 4.192-.37.206-.638 1.323-7.893 2.482-16.124s2.214-15.072 2.345-15.203c.13-.131 3.033.512 6.451 1.428 4.229 1.133 6.207 2.156 6.191 3.202-.013.846-.902 7.388-1.977 14.538s-1.964 13.941-1.977 15.092c-.017 1.566.918 2.362 3.727 3.17 5.874 1.689 15.362 3.46 15.862 2.96.458-.459 4.119-20.871 11.43-63.722 2.205-12.925 4.248-24.693 4.541-26.151l.532-2.65-4.807-1.549c-2.645-.852-7.371-2.198-10.503-2.99l-5.694-1.441-.545 2.64c-.5 2.422-6.566 38.145-6.566 38.666 0 .436-12.113-2.304-12.676-2.868-.313-.312.842-9.251 2.565-19.863 1.724-10.611 3.129-20.031 3.123-20.932-.009-1.239-2.268-2.174-9.262-3.835-5.088-1.208-9.808-2.368-10.49-2.577s-1.464.617-1.738 1.835M632 435.673c-3.025.733-7.15 1.842-9.166 2.463l-3.667 1.129-1.05 5.959c-.577 3.277-2.056 12.503-3.288 20.503s-2.326 14.146-2.434 13.659-2.571-8.424-5.474-17.636c-3.482-11.052-5.748-16.75-6.661-16.75-1.954 0-19.606 5.08-20.498 5.898-.86.79 2.869 10.521 15.173 39.602l8.886 21 .933 14.26c.514 7.844 1.129 14.457 1.369 14.696.239.24 4.866-.755 10.281-2.209l9.846-2.645-.693-17.051-.694-17.051 4.117-21c2.264-11.55 5.251-26.305 6.639-32.788s2.378-12.144 2.202-12.58-2.796-.193-5.821.541m788.631 10.175c-.803 1.431-5.137 28.532-10.098 63.152-1.931 13.475-3.712 25.648-3.957 27.051l-.446 2.551 4.685 1.361a7638 7638 0 0 1 21.055 6.199c9.003 2.661 16.684 4.838 17.068 4.838.791 0 4.352-19.044 3.686-19.71-.237-.236-4.861-1.752-10.277-3.368s-10.349-3.122-10.963-3.347c-.819-.3-.8-2.432.071-7.98.653-4.164 1.426-7.809 1.718-8.101s3.41.372 6.929 1.475 6.929 2.011 7.577 2.018c1.068.012 2.061-3.613 3.882-14.164l.634-3.678-7.847-2.474c-4.317-1.361-7.836-2.856-7.822-3.323.061-1.958 1.63-12.977 2.062-14.476.413-1.433 1.752-1.224 11.191 1.744 5.896 1.855 10.959 3.375 11.25 3.378s1.106-3.706 1.811-8.244 1.494-9.15 1.753-10.25c.408-1.732-.573-2.321-7.311-4.395-23.957-7.374-36.326-10.836-36.651-10.257m-749.204 1.722c4.215 4.215 2.461 13.26-3.325 17.147-1.869 1.256-3.761 2.283-4.205 2.283-1.031 0-1.748-4.594-2.147-13.75l-.315-7.25h4.211c2.493 0 4.852.64 5.781 1.57M557.5 456.598c-6.6 2.489-12.325 4.845-12.722 5.236s-1.18 6.1-1.739 12.688c-1.953 23.014-6.152 87.699-5.721 88.13.774.773 21.178-7.417 21.307-8.553.069-.604.181-5.037.25-9.849l.125-8.751 6.026-2.111c3.315-1.161 6.192-1.836 6.395-1.5s1.199 4.324 2.214 8.862c1.065 4.756 2.358 8.25 3.054 8.25 1.522 0 18.549-6.041 19.566-6.942.665-.588-4.455-19.314-16.694-61.058-5.286-18.029-8.892-29.005-9.517-28.964-.299.02-5.944 2.073-12.544 4.562m912.21 21.152c-1.405 8.663-4.885 29.392-7.734 46.065s-5.021 30.457-4.828 30.631c.615.552 39.123 12.619 39.35 12.33.12-.152 1.018-4.467 1.996-9.59 1.025-5.365 1.403-9.657.892-10.125-.487-.447-4.711-2.055-9.386-3.573s-8.621-2.857-8.769-2.976 1.351-8.945 3.33-19.614c5.424-29.239 9.248-51.361 8.938-51.704-.251-.276-20.447-7.194-21.003-7.194-.128 0-1.382 7.087-2.786 15.75M506 470.475l-10.5 4.226-.642 5.4c-.352 2.969-1.666 15.186-2.918 27.147s-2.377 21.636-2.499 21.5-2.699-6.773-5.726-14.748c-10.572-27.853-11.898-31-13.053-30.969-.639.017-6.112 1.983-12.162 4.37l-11 4.339.227 2.38c.125 1.309 2.761 23.305 5.859 48.88s5.92 46.766 6.273 47.09 4.769-.948 9.815-2.829l9.174-3.42-.417-3.17c-.229-1.744-1.771-12.621-3.427-24.171-1.655-11.55-3.258-22.8-3.562-25-.524-3.804 4.478 8.716 13.185 33 1.972 5.5 3.888 10.328 4.258 10.729s3.022-.023 5.894-.941l5.221-1.67.021-3.059c.012-1.682.68-12.509 1.485-24.059s1.525-22.575 1.601-24.5c.098-2.507.375-1.797.974 2.5 1.706 12.227 7.309 49.011 7.512 49.318.248.376 21.407-7.82 21.407-8.292 0-.177-1.107-7.005-2.46-15.174s-4.978-30.14-8.057-48.826c-3.078-18.685-5.684-34.041-5.79-34.125s-4.918 1.75-10.693 4.074m1009.707 25.275c-4.144 20.822-13.421 68.353-14.102 72.25l-.437 2.5 9.166 2.976c5.041 1.636 9.649 3.116 10.238 3.289.627.183 1.806-3.547 2.837-8.976.971-5.109 2.202-11.375 2.736-13.924l.971-4.634 4.601 1.384c2.53.762 7.117 1.381 10.192 1.375 10.298-.018 19.775-6.5 24.23-16.572 1.018-2.302 2.378-7.572 3.022-11.713.996-6.41.923-8.53-.496-14.28-1.829-7.41-6.197-15.012-10.901-18.97-1.667-1.403-4.727-3.416-6.8-4.474-2.074-1.057-9.913-3.511-17.421-5.452S1519.79 477 1519.665 477s-1.906 8.438-3.958 18.75m-951.638 4.039c1.612 7.309 2.931 13.632 2.931 14.049 0 .694-5.716 3.162-7.321 3.162-.373 0-.631-8.887-.572-19.75.083-15.3.324-18.736 1.069-15.25.529 2.475 2.28 10.48 3.893 17.789m110.888-12.334c1.961 2.087 2.233 3.214 1.818 7.532-.336 3.504-1.23 5.872-2.881 7.641-2.296 2.457-7.783 5.87-8.354 5.196-.15-.178-.583-5.386-.961-11.574l-.686-11.25h4.379c3.357 0 4.918.573 6.685 2.455m870.438 20.871c1.584 2.128 2.09 4.23 2.046 8.5-.066 6.279-2.189 11.308-5.764 13.65-2.999 1.965-7.829 2.81-9.545 1.669-1.136-.755-.913-3.082 1.321-13.777 1.478-7.077 2.918-13.676 3.199-14.662l.511-1.795 3.064 1.795c1.685.986 4.011 3.066 5.168 4.62M942.5 518.002c-18.867 1.499-34.913 5.935-49.778 13.761-9.075 4.777-23.952 15.929-25.762 19.311-.698 1.305-2.096 1.926-4.335 1.926-5.269 0-18.505 3.738-26.281 7.422q-16.627 7.877-29.996 21.823c-8.988 9.376-15.735 20-20.486 32.255-4.735 12.215-6.836 24.05-6.834 38.5.002 13.7 1.413 21.688 5.653 32 3.527 8.579 7.266 14.12 14.844 22l6.251 6.5.565 10.5c.311 5.775 1.498 14.091 2.638 18.481 1.14 4.389 3.92 11.796 6.177 16.46 5.118 10.572 12.947 18.773 22.023 23.068 3.476 1.645 7.826 3.274 9.665 3.62l3.345.629-.445 3.621c-.245 1.992-.074 10.438.38 18.77 1.213 22.281 5.347 39.323 13.46 55.493l3.332 6.642-4.401 1.108c-6.055 1.525-12.91 1.388-17.047-.341-1.907-.797-3.468-1.032-3.468-.523 0 1.536 10.159 9.118 15.5 11.568 2.75 1.261 6.35 2.478 8 2.704l3 .412-.197 4.894c-.109 2.692-1.435 12.094-2.948 20.894-2.315 13.467-2.747 18.849-2.731 34 .016 15.354.338 19.16 2.192 25.89 3.096 11.237 10.088 28.303 20.142 49.163l8.702 18.053-4.456 3.876c-11.62 10.108-22.523 27.625-26.239 42.154-2.508 9.808-2.663 27.402-.33 37.657 2.013 8.852 6.883 19.679 11.634 25.866l3.578 4.658-2.033 6.342c-1.375 4.29-2.201 10.26-2.553 18.458-.394 9.165-.118 13.927 1.131 19.544 1.785 8.023 5.597 16.741 10.385 23.749 1.657 2.425 5.873 7.3 9.368 10.831 6.593 6.663 20.322 15.847 29.855 19.972l5.5 2.38-4-.512c-2.2-.281-11.358-1.032-20.352-1.669-12.481-.884-19.7-.879-30.5.023-17.294 1.444-30.825 4.071-44.588 8.658-12.489 4.161-28.932 12.521-38.56 19.602-9.01 6.627-26.336 24.06-34.095 34.305-13.901 18.356-25.514 37.718-34.578 57.651-5.669 12.468-14.242 34.768-13.609 35.4.155.154 12.095 2.278 26.532 4.719 14.438 2.44 26.25 4.124 26.25 3.74s-.891-3.287-1.98-6.453c-2.856-8.3-4.816-19.613-5.475-31.602l-.575-10.455 2.374 7.5c1.306 4.125 3.372 9.975 4.591 13 2.842 7.052 12.651 25.881 14.866 28.537 1.227 1.471 3.711 2.313 8.949 3.033 3.987.548 7.25.96 7.25.916s-1.814-5.459-4.031-12.033c-4.345-12.885-8.577-31.994-9.403-42.453-1.363-17.277-1.56-26-.586-26 .561 0 1.027 1.463 1.036 3.25.027 5.72 3.89 21.86 8.436 35.25 4.53 13.344 12.832 32.869 17.023 40.038l2.361 4.038 8.384 1.212c4.611.667 8.853 1.212 9.427 1.212.652 0 1.273-5.721 1.655-15.25.672-16.74 3.33-34.345 7.284-48.25 2.64-9.283 10.428-29.82 11.066-29.181.198.198-.749 5.27-2.103 11.271s-3.202 16.536-4.104 23.411c-1.24 9.45-1.55 18.157-1.27 35.689.204 12.754.594 23.412.866 23.684s2.795.801 5.607 1.174l5.111.678 3.768-11.363c7.859-23.708 21.864-57.475 30.22-72.863 12.415-22.866 24.102-39.541 36.276-51.762 12.314-12.361 23.524-19.766 36.973-24.42 5.681-1.966 13.905-2.49 20.29-1.292l3.656.686-1.63 3.144c-1.076 2.077-1.607 5.519-1.565 10.144.035 3.85.567 8.295 1.182 9.878.915 2.352.749 3.866-.905 8.288-1.113 2.975-2.024 6.66-2.024 8.19 0 4.29 2.75 12.557 5.223 15.7 1.883 2.394 2.18 3.844 1.923 9.39-.222 4.808.261 8.067 1.808 12.202 2.695 7.201 6.879 12.968 11.469 15.804 1.987 1.229 6.512 2.73 10.055 3.337 5.661.97 6.584 1.447 7.614 3.933.645 1.557 3.348 4.786 6.007 7.177 4.82 4.334 10.544 6.601 16.666 6.601 4.755 0 11.743-2.887 16.181-6.686l4.18-3.578 2.629 1.198c4.762 2.17 11.544 2.962 16.444 1.921 2.585-.55 6.56-2.346 8.833-3.993s5.524-5.232 7.225-7.968c2.209-3.553 3.542-4.8 4.667-4.363.867.336 3.655.86 6.195 1.164 9.745 1.166 20.502-5.422 24.454-14.977l1.745-4.218 6.091-.043c3.35-.023 7.77-.618 9.823-1.321 2.052-.704 5.761-3.252 8.242-5.662 3.046-2.961 4.89-5.808 5.683-8.773l1.174-4.389 4.484-.068c7.35-.111 12.669-2.124 17.034-6.446 2.219-2.196 4.848-5.973 5.842-8.392 1.583-3.849 2.193-4.399 4.881-4.402 5.205-.007 12.168-2.985 16.259-6.956 2.148-2.084 4.7-5.873 5.673-8.419 1.319-3.455 2.304-4.64 3.882-4.671 4.304-.084 11.756-3.571 15.574-7.286 2.164-2.106 4.694-5.818 5.623-8.25 1.494-3.911 2.049-4.425 4.803-4.444 4.311-.03 10.501-3.046 14.328-6.98 1.768-1.818 4.018-5.259 5-7.648 1.569-3.815 2.166-4.343 4.914-4.346 1.72-.002 4.731-.674 6.691-1.493 4.198-1.754 9.996-7.444 11.647-11.429 1.006-2.43 1.876-2.903 6.295-3.426 2.98-.353 7.013-1.774 9.634-3.394l4.507-2.787 15.049 7.578c8.277 4.168 18.441 8.672 22.586 10.01l7.537 2.433-9.037 2.595c-12.08 3.468-29.275 10.863-38.776 16.675-10.711 6.552-22.602 15.602-33.4 25.423-5.027 4.571-21.452 20.182-36.5 34.691-15.049 14.509-32.311 30.653-38.361 35.877-22.234 19.197-45.87 36.512-73.965 54.184-7.13 4.485-13.205 8.43-13.5 8.767s-.085.36.465.05c.55-.309 9.325-1.751 19.5-3.204s28.625-4.212 41-6.13c44.503-6.899 48.061-7.424 50.317-7.424 1.862 0 2.628-.978 4.113-5.25 5.928-17.057 19.771-46.705 27.864-59.678 4.96-7.951 8.853-13.258 9.356-12.755.204.204-1.615 4.603-4.041 9.777-7.378 15.728-14.856 38.382-18.538 56.156-.997 4.812-1.713 8.75-1.591 8.75.121 0 8.725-1.348 19.12-2.995s19.339-2.997 19.877-3c.537-.003-2.57-3.572-6.904-7.931l-7.879-7.926 1.777-7.324c4.708-19.403 15.43-44 26.277-60.28 9.083-13.634 24.738-29.289 37.928-37.93 5.597-3.666 13.337-7.97 17.2-9.563 3.864-1.593 10.985-3.927 15.825-5.187 7.318-1.905 11.324-2.285 23.799-2.259 9.937.02 17.369.564 22.017 1.61 18.267 4.113 36.267 14.281 49.983 28.233 9.693 9.861 21.096 24.609 31.192 40.342 7.147 11.139 23.304 42.306 23.307 44.96.001.791 1.468 1.25 4.001 1.25 2.805 0 4-.428 4-1.432 0-2.676-5.855-24.036-8.51-31.043-4.472-11.804-14.119-29.556-21.481-39.525-7.936-10.747-23.121-26.41-33.195-34.24-3.722-2.893-6.777-5.598-6.79-6.01s.589-.75 1.338-.75 4.587-1.329 8.527-2.954c8.679-3.579 22.441-12.404 29.195-18.722 6.468-6.049 13.807-16.073 18.177-24.824 5.382-10.777 7.76-20.349 8.446-34l.604-12 5.529-5.762c7.533-7.852 11.687-13.786 16.265-23.238 4.482-9.253 7.425-20.003 9.008-32.903 2.394-19.513-1.95-44.482-10.776-61.929l-2.95-5.832 2.266-4.668c4.252-8.761 6.526-19.787 7.048-34.168.406-11.174.128-15.254-1.611-23.684-1.155-5.601-3.594-13.725-5.42-18.053-8.572-20.325-25.134-38.437-43.67-47.758-6.854-3.447-21.754-8.505-25.052-8.505-1.746 0-1.948-.729-1.948-7.042 0-9.619-2.523-21.168-6.319-28.92-2.026-4.137-5.687-9.018-10.174-13.564-5.145-5.212-9.181-8.187-15.168-11.184-4.487-2.246-9.954-4.387-12.148-4.758l-3.99-.674-.114-10.179c-.189-16.9-3.222-37.777-8.089-55.685-5.675-20.876-14.526-42.647-24.09-59.252-4.283-7.436-14.636-22.464-18.27-26.521l-2.041-2.279.253-13.221c.255-13.359-1.143-24.834-4.497-36.904-2.08-7.486-4.322-9.817-9.442-9.817-2.206 0-9.156 1.373-15.443 3.051-6.831 1.823-14.155 3.096-18.2 3.163-7.471.125-10.035-.878-22.019-8.611-10.324-6.661-27.383-14.876-41.583-20.023-12.269-4.448-31.654-9.706-40.884-11.09l-4.353-.653-2.926-5.668c-3.599-6.972-13.864-17.504-22.522-23.11-12.593-8.154-28.619-14.593-47.481-19.079-20.936-4.98-36.752-6.774-83.5-9.474-29.449-1.701-28.392-1.609-57-4.96-25.215-2.954-37.534-3.574-50.5-2.544m14.417 14.637c.229.198-1.515.361-3.875.361-6.026 0-27.781 4.543-35.289 7.369-7.658 2.882-16.736 7.495-22.723 11.546-7.92 5.359-18.679 16.889-22.443 24.05-4.078 7.762-6.587 16.509-6.587 22.967v4.512l3.418-7.133c2.305-4.808 5.803-9.643 10.736-14.836C887.33 573.92 896 567.001 896 568.83c0 .509-.616 1.437-1.37 2.062-2.054 1.705-6.343 11.992-7.133 17.108l-.694 4.5 3.589-5c1.974-2.75 6.18-7.148 9.348-9.773s9.813-6.788 14.768-9.25c4.954-2.463 9.403-4.477 9.887-4.477.483 0-1.102 2.138-3.524 4.75-5.889 6.354-10.436 13.673-12.847 20.68-2.716 7.894-5.032 20.631-4.987 27.43.036 5.521 1.954 16.917 3.432 20.39 1.409 3.311-.266 1.741-3.47-3.252-3.797-5.917-6.462-14.021-7.562-22.998l-.797-6.5-.762 4c-1.234 6.469-.986 15.843.625 23.685.827 4.023 3.369 11.14 5.65 15.815 3.321 6.807 5.861 10.215 12.747 17.112 4.73 4.737 10.4 9.555 12.6 10.706 9.625 5.038-11.147.358-21.546-4.854-4.151-2.08-10.084-5.848-13.185-8.374-6.366-5.186-16.364-18.01-22.771-29.208-2.366-4.135-5.537-11.199-7.046-15.699l-2.746-8.182-.738 5.909c-.842 6.74 0 20.197 1.63 26.029.605 2.166 2.404 6.63 3.998 9.92 1.593 3.29 2.661 6.218 2.371 6.507-.289.289-3.914-2.825-8.056-6.92-5.922-5.856-8.507-9.406-12.106-16.621l-4.576-9.176-.49-9.374c-.35-6.687-.012-11.476 1.178-16.708.917-4.033 2.322-8.899 3.121-10.813 1.973-4.721 8.567-15.482 9.138-14.911.253.253-.232 2.791-1.078 5.639-1.972 6.642-2.994 21.632-1.739 25.518l.969 3 .086-2.807c.152-4.972 2.254-11.997 6.057-20.243 4.804-10.419 9.42-17.553 16.022-24.763 7.417-8.1 15.638-14.177 25.278-18.684 10.199-4.769 22.454-7.974 34.229-8.953 8.134-.676 22.371-.318 23.417.589m78.089 5.232c6.005 2.68 15.41 7.863 20.902 11.519 11.885 7.912 24.971 20.524 30.981 29.86 2.39 3.712 4.46 6.75 4.599 6.75.517 0-1.558-9.653-3.035-14.121-2.108-6.377-7.765-15.549-12.722-20.629-2.281-2.337-3.819-4.25-3.417-4.25s4.257 1.773 8.568 3.941c9.381 4.716 21.404 13.649 29.587 21.981 3.282 3.343 6.326 6.078 6.763 6.078s.108-1.644-.732-3.654c-.839-2.009-1.389-3.79-1.222-3.957.167-.168 2.648 1.47 5.513 3.638s5.209 3.426 5.209 2.796-1.144-3.099-2.542-5.485-2.186-4.326-1.75-4.31c.436.015 3.717 2.013 7.292 4.441s6.653 3.982 6.839 3.455c.186-.526-.619-2.582-1.791-4.567s-1.913-3.826-1.648-4.09c.976-.976 11.619 5.953 16.054 10.451 3.105 3.15 5.052 6.248 6.061 9.643.817 2.751 1.485 5.672 1.485 6.492 0 .819-1.341-.534-2.979-3.008-1.638-2.473-3.888-5.32-5-6.326L1146 582.69v3.515c0 5.356-1.179 12.795-2.028 12.795-.415 0-1.012-1.025-1.327-2.278-.314-1.252-1.843-3.496-3.397-4.984l-2.826-2.708-1.815 8.98c-.998 4.939-2.183 8.752-2.634 8.473s-1.102-1.792-1.447-3.364-2.59-5.156-4.988-7.966l-4.362-5.11-.026 6.729c-.028 7.014-2.297 15.14-5.868 21.008l-1.996 3.279-.536-8.279c-.351-5.427-1.443-10.67-3.167-15.213-2.577-6.792-7.479-15.562-8.699-15.565-.338-.001-.258 1.911.178 4.248 1.034 5.539-.441 17.099-3.014 23.629-1.964 4.983-10.664 19.121-11.766 19.121-.296 0-.259-1.743.082-3.873.935-5.85-1.045-18.751-3.803-24.774-1.348-2.944-2.588-5.353-2.756-5.353-.169 0-.398 3.038-.511 6.75-.217 7.189-3.04 17.496-6.366 23.25l-2.023 3.5.575-5.198c.642-5.802-.769-16.381-2.842-21.311l-1.359-3.233-1.15 7.732c-.632 4.252-2.007 9.594-3.055 11.871l-1.905 4.139-.097-4c-.113-4.725-2.173-12.906-4.244-16.859l-1.472-2.809-1.304 5.834c-1.258 5.633-5.455 16.334-6.406 16.334-.256 0-.494-3.19-.531-7.089-.036-3.899-.811-10.086-1.722-13.75-2.166-8.716-8.074-22.385-12.378-28.64-1.884-2.738-6.66-8.266-10.613-12.283-4.442-4.515-6.369-7.052-5.044-6.643 3.586 1.108 9.841 4.482 15.837 8.546 3.132 2.122 5.984 3.859 6.337 3.859s-.742-1.881-2.433-4.18-2.905-4.348-2.698-4.554 4.007 1.634 8.446 4.09c7.997 4.423 18.472 11.914 21.116 15.1.755.909 2.213 2.103 3.241 2.653l1.868 1-1.588-3.804c-3.07-7.351-6.889-12.866-13.406-19.359-5.914-5.893-18.082-14.655-28.68-20.652-6.776-3.834-1.722-2.478 9.608 2.577m139.876 24.158c9.582 6.409 16.909 13.879 20.143 20.537 1.256 2.585 1.958 6.044 1.928 9.5l-.047 5.434-1.798-4.598c-.99-2.529-3.556-7.254-5.704-10.5-4.046-6.116-17.658-20.509-22.904-24.218-1.65-1.166-2.467-2.135-1.816-2.152.652-.018 5.241 2.681 10.198 5.997m-182.275-2.462c4.325 1.411 10.567 3.999 13.873 5.75 7.179 3.803 18.395 14.512 21.403 20.434 1.188 2.339 2.88 7.064 3.762 10.5 3.041 11.857-.36 28.722-8.163 40.474-1.995 3.005-3.829 5.261-4.075 5.015-.247-.247.069-2.859.701-5.806 1.579-7.367.568-19.154-2.27-26.434l-2.338-6-.646 9c-.472 6.57-1.34 10.485-3.216 14.5l-2.57 5.5.558-3.648c.711-4.644-1.116-13.531-4.49-21.852l-2.636-6.5-.603 12c-.501 9.97-1.093 13.245-3.5 19.359l-2.897 7.359-.654-12.859c-.467-9.182-1.257-14.557-2.761-18.798-2.587-7.292-7.219-15.695-11.696-21.217-4.84-5.971-15.597-14.227-22.205-17.043l-5.684-2.422 6.5.622c8.925.855 19.756 3.37 24.21 5.622 2.041 1.033 3.98 1.877 4.309 1.877 1.385 0-1.117-2.445-6.74-6.584-3.299-2.429-5.55-4.416-5.001-4.416s4.933 1.14 9.743 2.534c4.809 1.394 8.921 2.357 9.137 2.141.372-.371-7.269-6.434-12.631-10.021L979.555 557h2.595c1.427 0 6.133 1.155 10.457 2.567M878.701 604c-.399 1.375-1.01 5.958-1.356 10.184-.749 9.117.816 18.3 4.224 24.783 2.375 4.52 5.768 9.033 6.79 9.033.297 0-.064-1.462-.8-3.25-2.496-6.059-5.543-20.202-6.84-31.75-.903-8.038-1.51-10.747-2.018-9m-62.292 34.378c5.479 18.309 15.113 34.231 26.663 44.061 6.452 5.492 8.129 6.487 18.928 11.238 6.036 2.655 6.915 3.297 4.5 3.289-1.65-.005-6.954-.883-11.786-1.952-12.237-2.706-21.446-7.797-30.766-17.008-4.176-4.128-8.864-9.428-10.417-11.776-1.553-2.349-3.019-4.076-3.257-3.837-.668.667 2.63 12.787 3.893 14.309.615.74.895 1.57.622 1.842-.273.273-3.712-2.889-7.643-7.027S800 664.371 800 664.832s.927 3.66 2.059 7.11 1.853 6.479 1.602 6.731c-.903.902-8.658-11.047-10.744-16.554-2.612-6.893-3.01-18.604-.975-28.619l1.423-7 1.25 6c1.082 5.196 3.944 13.507 4.648 13.497.131-.002.283-5.065.339-11.25.057-6.186.591-12.372 1.187-13.747.96-2.214 1.098-1.872 1.203 3 .066 3.025.924 7.482 1.906 9.904l1.786 4.403.586-8.903c.374-5.69 1.596-11.972 3.387-17.404l2.801-8.5.647 13c.486 9.753 1.311 15.218 3.304 21.878m406.214-32.398c9.619 1.481 20.355 6.954 27.752 14.148 3.299 3.208 5.756 6.075 5.46 6.37-.296.296-1.835-.135-3.42-.958-3.334-1.729-12.707-3.835-14.968-3.362-.967.202.938 2.186 5.11 5.322 3.658 2.75 8.446 7.138 10.64 9.75s3.78 4.75 3.523 4.75-2.435-.863-4.843-1.917-6.627-2.206-9.377-2.559l-5-.641 2 1.572c2.954 2.321 16.503 15.875 16.186 16.192-.149.15-3.159-.626-6.687-1.725-3.529-1.098-9.134-2.218-12.457-2.489-3.323-.272-8.517-.705-11.542-.963l-5.5-.47 12.75 6.75c12.835 6.795 26.443 15.89 25.374 16.959-.316.317-1.149.125-1.85-.426s-4.77-2.396-9.042-4.1c-8.2-3.271-23.286-6.716-33.089-7.558l-5.857-.503 17.857 8.849c9.821 4.867 18.757 9.597 19.857 10.513l2 1.664-2.5-.602c-13.665-3.295-22.352-4.685-32.581-5.212-7.072-.364-12.789-.227-13.786.332-1.414.791-.554 1.625 5.042 4.894l6.747 3.94-7.1.638c-3.904.351-7.889 1.08-8.855 1.62-1.481.829-.754 1.525 4.639 4.449 3.517 1.906 7.511 3.919 8.877 4.473 2.053.833.928 1.131-6.5 1.722-4.941.393-10.072.982-11.403 1.308-2.125.52-1.575 1.02 4.5 4.096 3.806 1.927 8.945 4.04 11.42 4.695l4.5 1.191-8 1.822c-10.403 2.37-25.192 2.485-32.5.253-5.376-1.642-14.895-6.977-20.63-11.561l-2.87-2.294 9.25.65c5.088.358 9.25.376 9.25.042 0-.729-7.041-7.169-11.396-10.423l-3.104-2.32 7.753.32c4.854.2 7.634-.055 7.435-.681-.174-.55-3.127-3.138-6.56-5.75l-6.243-4.75 5.307-.058c2.92-.031 7.072-.371 9.229-.754l3.921-.696-3.971-2.628c-5.711-3.779-14.024-7.864-16.004-7.864-.935 0-1.405-.295-1.045-.656 1.279-1.279 19.345-3.275 30.678-3.39l11.5-.117-3.5-1.534c-6.229-2.73-19.077-4.357-34.5-4.368-9.157-.007-18.506.597-24 1.552-10.111 1.757-27.5 7.192-27.5 8.595 0 .505 3.177.918 7.059.918 4.451 0 6.831.369 6.441 1-.34.55-1.507 1-2.594 1-2.492 0-16.906 6.147-16.906 7.21 0 .435 1.102.79 2.448.79 2.454 0 18.552 4.748 18.552 5.472 0 .211-2.054.217-4.565.012-2.51-.204-5.241-.112-6.067.205-1.138.437-.628 1.296 2.101 3.546 1.981 1.633 6.734 6.718 10.561 11.301s8.986 9.788 11.463 11.566 4.346 3.392 4.154 3.585c-.193.192-3.679-1.007-7.749-2.665-4.069-1.658-7.608-3.017-7.864-3.019-.256-.001 1.994 2.491 5 5.539 6.33 6.418 16.725 13.824 25.833 18.404 9.212 4.631 28.075 10.633 39.633 12.61 5.5.94 17.65 1.989 27 2.33l17 .62-10 1.997c-7.551 1.508-13.919 1.99-26 1.968-11.592-.021-18.342-.53-24.5-1.848-9.464-2.025-24.424-7.325-33.372-11.823l-5.873-2.952 2.174 3.052c2.955 4.15 20.518 18.733 26.071 21.646 2.475 1.298 4.04 2.382 3.478 2.407-.562.026-4.049-.793-7.75-1.819s-6.728-1.464-6.728-.973 3.96 4.853 8.8 9.693c13.555 13.555 24.727 20.403 39.582 24.262 3.915 1.018 9.143 1.898 11.618 1.957l4.5.107-3.5 1.026c-4.437 1.3-22.758.334-29.677-1.565-2.847-.782-6.559-2.111-8.25-2.954-1.69-.844-3.073-1.338-3.073-1.1 0 .239 2.539 4.539 5.642 9.556s8.558 12.212 12.121 15.989 5.928 6.868 5.253 6.868-3.457-1.121-6.185-2.491l-4.96-2.491.669 2.241c1.427 4.781 7.713 14.857 12.616 20.221 4.86 5.318 8.824 8.189 13.344 9.667 1.347.44.694.676-2 .721-2.2.037-6.362-.749-9.25-1.747-3.365-1.162-5.246-1.42-5.238-.717.019 1.75 6.168 12.239 9.988 17.037 1.925 2.418 5.075 5.323 7 6.455l3.5 2.058-4.75.023c-2.612.013-4.75.39-4.75.839 0 1.279 7.526 5.184 9.992 5.184h2.22l-3.106 2.901c-9.033 8.438 2.934 4.515 18.752-6.148 9.298-6.267 22.814-16.413 23.635-17.742.344-.556 1.079-1.011 1.634-1.011s.136 1.237-.931 2.75c-3.362 4.767-6.867 12.487-9.194 20.25-3.612 12.052-3.706 12.229-5.932 11.038-1.066-.571-2.193-1.038-2.504-1.038-1.544 0-.167 4.055 3.434 10.117 2.931 4.933 4 7.834 4 10.855 0 3.512-.634 4.766-4.286 8.47-2.357 2.391-5.15 5.952-6.206 7.914-1.504 2.792-1.709 4.172-.944 6.355 1.52 4.342 4.528 4.051 10.779-1.04 3.006-2.448 8.134-5.874 11.395-7.612s7.498-4.454 9.416-6.035 4.98-5.675 6.805-9.099c2.83-5.308 3.312-7.21 3.276-12.917-.032-5.103-.635-7.859-2.539-11.601-1.374-2.699-3.652-5.983-5.063-7.299s-4.854-3.167-7.654-4.115l-5.089-1.723 2.952-2.483c1.947-1.639 4.733-2.695 8.19-3.104 2.882-.342 5.507-.889 5.835-1.217.327-.327-.194-1.97-1.158-3.651-1.438-2.505-1.525-3.334-.482-4.598 1.88-2.277 9.552-5.422 11.624-4.764 3.297 1.046 6.969 5.984 9.025 12.134 1.12 3.348 2.596 10.323 3.282 15.5l1.247 9.413 1.201-5c1.769-7.358 1.67-21.196-.197-27.568-.875-2.988-2.749-6.659-4.165-8.159s-4.141-3.244-6.056-3.876c-5.103-1.684-12.738.319-19.639 5.154-3.101 2.172-5.855 3.949-6.121 3.949-.951 0 17.774-21.038 19.589-22.009 4.764-2.55 14.06.585 18.235 6.15 6.945 9.258 9.922 20.52 9.876 37.359-.047 17.308-3.334 31.421-11.191 48.05-6.76 14.309-17.831 28.936-27.286 36.049-3.217 2.421-6.142 4.396-6.5 4.391-.358-.006-1.912-2.72-3.453-6.032-1.922-4.13-4.089-6.953-6.904-8.992-5.126-3.713-11.009-5.345-16.537-4.588-5.667.777-10.948 3.611-15.444 8.287-4.712 4.902-9.495 14.029-10.354 19.759-.412 2.749-.071 7.399.888 12.101 2.323 11.393 8.22 20.366 17.558 26.718 2.527 1.719 4.926 3.605 5.33 4.191s.741 5.144.75 10.128c.013 7.753-.633 11.339-4.474 24.843-5.814 20.442-7.173 30.813-5.657 43.152.63 5.127 2.33 12.605 3.777 16.616 3.57 9.897 9.814 20.805 15.672 27.378 2.671 2.997 4.473 5.449 4.004 5.449-1.519 0-11.703-7.058-15.557-10.782-2.062-1.993-3.75-3.16-3.75-2.593 0 1.376 4.64 12.73 7.544 18.461 1.279 2.524 3.927 6.688 5.884 9.252s3.285 4.662 2.949 4.662c-1.29 0-10.377-7.226-10.377-8.252 0-.595-.272-.809-.604-.477-.855.854 6.883 14.581 12.095 21.457 2.406 3.175 8.236 10.272 12.955 15.772l8.58 10-3.847 1.138c-8.625 2.553-12.766 5.982-16.028 13.272-1.75 3.91-2.395 4.453-5.694 4.791-2.046.21-5.156.982-6.911 1.715-4.908 2.051-10.678 7.628-12.76 12.334-1.191 2.693-2.529 4.25-3.651 4.25-.975 0-4.151.707-7.059 1.57-3.764 1.118-6.538 2.858-9.631 6.04-2.39 2.459-4.908 6.027-5.596 7.93-.725 2.005-1.931 3.46-2.868 3.46-.89 0-3.992.705-6.894 1.567-6.544 1.943-13.26 7.904-15.762 13.988l-1.825 4.438-3.5.047c-8.065.11-17.221 5.512-22.021 12.993l-3.083 4.804-6.891 1.162c-8.169 1.378-16.15 5.805-23.528 13.052-4.29 4.213-5.882 5.092-10.898 6.019-7.636 1.412-15.696 5.023-22.244 9.967l-5.249 3.963h-10.994c-6.046 0-13.313.497-16.147 1.105-2.961.635-7.77.816-11.3.425-5.466-.605-6.437-1.061-8.789-4.13-1.454-1.898-4.352-4.807-6.439-6.466l-3.795-3.016.257-4.849c.142-2.666-.253-6.742-.876-9.058-.935-3.471-.872-4.499.358-5.86.82-.908 2.797-4.415 4.394-7.793l2.903-6.143 2.225 9.228c1.223 5.075 3.022 11.89 3.997 15.142l1.773 5.915 1.735-11.5c.954-6.325 2.382-15.037 3.173-19.36.792-4.324 1.445-8.149 1.453-8.5s2.18 3.86 4.827 9.36 6.954 13.713 9.573 18.25c4.468 7.742 6.058 9.916 5.122 7-7.715-24.016-21.59-70.165-25.931-86.25-3.82-14.152-8.605-35.562-8.605-38.501 0-1.269 1.008-2.052 3.25-2.522 6.872-1.443 23.829-8.745 34.662-14.927 17.258-9.847 27.622-18.117 57.588-45.952 34.121-31.694 50.251-48.936 64.137-68.56 4.071-5.754 9.629-14.979 12.35-20.5 4.682-9.499 8.934-22.168 10.418-31.038.557-3.329.104-2.725-2.701 3.604-7.443 16.8-15.72 29.282-27.195 41.013-15.326 15.669-35.664 28.78-72.571 46.786-25.967 12.668-48.512 22.227-66.084 28.019-20.598 6.79-42.932 11.1-57.328 11.062-8.318-.021-16.778-2.193-21.625-5.553-4.895-3.392-11.002-10.106-15.4-16.931-4.772-7.404-24.482-44.508-38.778-73-19.271-38.405-24.647-50.803-28.335-65.341-1.85-7.293-2.384-12.035-2.37-21.037.018-11.239 1.405-23.831 4.277-38.83 1.022-5.334 2.008-7.731 3.793-9.217 1.327-1.105 2.801-2.023 3.277-2.042s.102 1.131-.83 2.554-1.454 2.827-1.16 3.121 2.58-.664 5.08-2.129c4.289-2.513 5.977-2.411 3.362.204-2.059 2.059.005 2.564 2.852.698 1.503-.985 4.105-1.926 5.782-2.093 9.499-.942 13.122-1.692 19.256-3.984 3.736-1.396 9.155-3.862 12.043-5.48 2.888-1.617 5.25-2.738 5.25-2.49s-1.548 5.176-3.439 10.951-6.22 15.811-9.617 22.303l-6.177 11.803.522 5.758c.685 7.554 4.959 15.145 11.211 19.913 4.625 3.527 8.63 5.037 16.855 6.352 2.936.469 3.751.302 3.418-.699-.24-.723-4-3.665-8.355-6.538-4.355-2.872-9.524-7.001-11.487-9.175-3.392-3.755-5.931-9.624-5.931-13.706 0-1.03 3.126-8.403 6.946-16.384 9.346-19.527 12.118-29.203 12.788-44.635.579-13.329-.437-19.742-4.37-27.592-1.299-2.593-5.85-8.827-10.113-13.853s-9.853-12.091-12.421-15.7c-2.569-3.61-5.376-6.958-6.24-7.441-2.517-1.409-26.138-7.68-33.139-8.799-6.47-1.033-14.044-.459-15.032 1.139-.295.478-.96.869-1.478.869s-.941-2.713-.941-6.028c0-7.84 2.647-33.255 4.528-43.472 1.879-10.205 5.021-18.868 8.777-24.198 3.335-4.731 11.062-10.459 20.695-15.342l6.5-3.294 16-.211c8.8-.115 17.35-.66 19-1.209 3.399-1.132 3.411-1.125-7-4.288-3.85-1.169-7.45-2.278-8-2.463s1.831-.373 5.292-.416c6.661-.084 21.134-2.68 22.545-4.044.461-.446-1.789-1.725-5-2.844l-5.837-2.033 5.182-.079c4.595-.07 23.71-4.398 30.261-6.851l2.443-.915-5.43-3.656c-2.986-2.012-4.929-3.657-4.318-3.657s3.024.675 5.362 1.5 4.42 1.5 4.626 1.5.388-1.687.406-3.75l.032-3.75 1.536 2c.845 1.1 1.919 2.665 2.385 3.477.687 1.197 1.812.664 5.932-2.81 2.796-2.357 5.081-3.922 5.079-3.477s-.926 2.323-2.054 4.173c-1.127 1.849-1.814 3.598-1.526 3.886 1.279 1.28 23.323-10.408 28.33-15.021 1.235-1.138 2.495-1.82 2.799-1.516.646.646-6.674 9.315-10.22 12.105-1.337 1.051-2.244 2.097-2.016 2.325 1.272 1.272 28.986-10.918 35.845-15.766 4.528-3.2 4.459-2.077-.161 2.631l-4.423 4.507 6.465-.64c8.485-.84 23.123-4.532 31.096-7.843 9.625-3.996 9.7-3.989 4.869.48-3.785 3.501-4.103 4.059-2 3.508 5.508-1.444 13.736-5.003 17.87-7.73 2.403-1.586 4.57-2.682 4.815-2.437s-1.17 1.679-3.147 3.186c-1.976 1.508-3.431 2.902-3.234 3.1.782.781 13.33-4.999 18.602-8.569 17.625-11.935 21.407-14.159 29.594-17.398 4.95-1.958 11.246-4.062 13.991-4.674 6.582-1.468 25.7-4.139 26.182-3.657.208.207-2.896 1.162-6.898 2.122s-10.534 2.999-14.516 4.531c-8.069 3.105-24.203 11.777-28.783 15.472l-2.976 2.401 4-.923c7.925-1.829 36.36-2.885 52.127-1.935 8.506.512 15.895 1.197 16.419 1.521s.954.192.954-.293c0-.969-7.89-5.158-10.11-5.367-.764-.072 1.085-.455 4.11-.852s9.505-1.293 14.4-1.993l8.899-1.273-3.899-3.336c-2.145-1.834-5.475-4.141-7.4-5.125l-3.5-1.79 8.295-.291 8.296-.291-4.068-3.399c-2.237-1.869-4.958-3.681-6.046-4.026-3.4-1.079-2.164-2.489 2.273-2.593 2.338-.055 5.355-.408 6.705-.784l2.456-.685-4.456-2.597c-2.45-1.429-6.839-3.438-9.753-4.466-4.425-1.56-4.919-1.96-3-2.429 4.257-1.039 10.502-1.024 17.421.041m126.879 20.383c1.878 2.866 4.077 13.385 4.993 23.887l.676 7.75h-2.757c-1.516 0-3.579.745-4.585 1.655-3.659 3.311-1.339 9.595 3.542 9.595h2.714l-.647 4.625c-.355 2.544-1.762 10.025-3.126 16.625-2.421 11.715-7.412 26.756-11.684 35.21-1.171 2.316-3.674 5.351-5.564 6.744l-3.436 2.534-2.26-10.744c-1.242-5.909-2.283-11.081-2.313-11.494s1.147-.75 2.616-.75 3.494-.745 4.5-1.655c2.213-2.003 2.394-6.631.326-8.348-2.082-1.727-6.218-1.56-8.314.337l-1.751 1.585-2.789-9.21c-5.839-19.28-18.492-48.588-26.35-61.036-1.34-2.124-2.256-4.043-2.035-4.265.222-.221 3.067.094 6.323.701 3.297.615 10.791.887 16.919.613 8.344-.374 13.415-1.225 21-3.526 5.5-1.668 10.552-3.069 11.227-3.114s1.924.981 2.775 2.281m-8.847 2.466c-2.404 2.656-2.037 5.874.886 7.79 2.023 1.325 3.036 1.439 4.972.557 3.274-1.492 4.263-5.661 1.951-8.216-2.226-2.459-5.65-2.517-7.809-.131M1307.2 636.2c-.66.66-1.2 2.39-1.2 3.845 0 2.81 2.697 5.955 5.106 5.955 2.569 0 5.894-3.048 5.894-5.402 0-1.258-.823-3.033-1.829-3.943-2.139-1.936-6.255-2.171-7.971-.455m20.133 13.415c-1.535 2.343-1.56 2.89-.242 5.25 1.816 3.251 6.272 4.021 8.997 1.555 1.052-.952 1.912-2.46 1.912-3.352 0-.893-.701-2.623-1.557-3.845-2.232-3.188-6.897-2.987-9.11.392m-11.678 19.214c-2.171 2.399-2.1 5.458.174 7.516 2.56 2.317 7.833 2.156 9.136-.279 2.469-4.613.071-9.066-4.881-9.066-1.526 0-3.519.823-4.429 1.829M1339 679.761c-.825.258-2.062 1.178-2.75 2.045-3.025 3.814-.066 9.194 5.056 9.194 1.752 0 3.228-.885 4.361-2.615 1.521-2.321 1.552-2.9.274-5.146-1.557-2.733-4.541-4.229-6.941-3.478m-506.794 26.22c8.174 2.873 21.701 5.01 32.175 5.082 6.445.045 8.463.328 6.882.964-1.231.494-6.181 1.175-11 1.511-7.016.49-10.289.212-16.413-1.396-6.904-1.813-20.85-7.976-18.315-8.094.569-.026 3.571.844 6.671 1.933m529.245 8.823c-.397.933-.773 2.596-.836 3.696-.085 1.474.608 2.083 2.635 2.316l2.75.317v6.933c0 5.601-.385 7.319-2 8.934-1.1 1.1-2.765 2-3.7 2-1.322 0-1.433-.267-.5-1.2 2.03-2.03 1.377-5.638-1.341-7.419-2.023-1.325-3.036-1.439-4.972-.557-1.338.609-2.737 2.324-3.11 3.811-.528 2.105-.178 3.107 1.583 4.534l2.262 1.831h-2.486c-1.367 0-3.892.281-5.611.625l-3.125.625v-2.557c0-1.407 2.206-8.176 4.903-15.043 2.696-6.868 5.226-13.961 5.622-15.764l.72-3.277 3.964 4.249c2.805 3.007 3.753 4.746 3.242 5.946m-541.948 7.198c3.977 2.737 8.497 7.788 8.497 9.496 0 .379-2.294-.959-5.098-2.973s-5.246-3.515-5.426-3.334c-.791.791 3.936 12.548 6.915 17.2 4.291 6.702 13.116 14.67 21.429 19.349l6.68 3.76-2.783.32c-3.897.447-12.357-2.447-17.884-6.118-2.567-1.705-6.28-5.549-8.251-8.542s-4.649-8.866-5.95-13.051c-2.333-7.501-4.198-19.109-3.071-19.109.318 0 2.542 1.351 4.942 3.002m464.585 14.852c-4.374 7.23-7.646 13.132-7.271 13.114.376-.017 1.557-.692 2.624-1.5 1.068-.807 2.321-1.468 2.785-1.468 1.268 0-.791 3.388-5.779 9.512-2.459 3.019-4.282 5.488-4.052 5.488 1.187 0 14.2-6.287 16.705-8.071 1.595-1.136 2.9-1.834 2.9-1.552 0 1.432-7.2 16.028-10.227 20.731-1.909 2.966-6.126 8.018-9.372 11.228-5.769 5.705-20.438 15.606-25.405 17.148-1.971.611-1.223-.568 3.557-5.605 5.106-5.382 13.013-15.682 15.913-20.729.64-1.114.37-1.133-1.549-.105-3.952 2.115-11.956 3.856-20.877 4.54l-8.54.656 4.187-2.87c4.878-3.345 15.573-12.453 15.122-12.878-.17-.161-3.459.322-7.309 1.071s-8.094 1.379-9.431 1.399c-1.901.029-1.106-.781 3.645-3.713 3.342-2.062 7.749-5.123 9.794-6.801l3.717-3.051-9.862.304-9.863.305 8.5-4.167c4.675-2.292 12.46-6.105 17.299-8.474 11.098-5.432 26.912-14.711 28.657-16.813.731-.881 1.499-1.431 1.708-1.223s-3.201 6.294-7.576 13.524m51.912 4.039c0 .491-.712 1.166-1.582 1.5-2.446.939-2.769.735-1.418-.893 1.38-1.662 3-1.99 3-.607m-276.659 5.203c-6.213 1.037-13.903 3.972-21.341 8.143-11.83 6.633-37.793 24.522-43.25 29.799-4.713 4.557-5.75 6.155-5.75 8.857 0 6.074 4.615 11.105 10.188 11.105 3.036 0 10.001-3.712 15.519-8.272 2.636-2.179 9.008-7.846 14.16-12.595 10.823-9.974 19.977-16.867 26.823-20.195 3.478-1.691 7.068-2.449 12.965-2.737 9.871-.482 16.24 1.149 28.512 7.301 7.968 3.995 27.953 16.617 32.083 20.263 1.116.986 1.75 1.123 1.75.379 0-.642-5.513-6.701-12.25-13.466-17.518-17.588-29.345-25.424-42.619-28.238-7.355-1.559-9.284-1.598-16.79-.344m284.954 6.774c4.089-1.682 7.199.149 9.918 5.842l2.287 4.788h5c6.116 0 9.637 2.171 13.097 8.075 1.861 3.175 3.344 4.467 5.709 4.969 3.691.784 5.408 2.157 10.911 8.721l3.994 4.764-1.691 2.581c-1.431 2.184-2.194 2.486-4.967 1.966-4.075-.764-6.044 1.217-5.235 5.265.492 2.459-.188 3.565-5.125 8.337-3.131 3.025-7.718 7.11-10.193 9.076-5.081 4.036-16.998 11.003-17.005 9.942-.018-2.715-4.235-28.456-5.922-36.149-1.14-5.199-2.073-9.912-2.073-10.473s.701-.019 1.557 1.203c.886 1.266 2.608 2.223 4 2.223 2.74 0 6.443-3.187 6.443-5.545 0-.85-1.078-2.624-2.396-3.942-1.922-1.922-2.96-2.246-5.25-1.639-2.044.541-3.193 1.731-4.048 4.191-.785 2.262-1.222 2.752-1.279 1.435-.068-1.6-3.865-15.589-6.707-24.711-.468-1.503-.125-1.593 2.824-.74 2.319.67 4.22.615 6.151-.179m19.505 33.67c-.786 1.725-.852 3.41-.205 5.25.818 2.326 1.511 2.71 4.891 2.71 3.213 0 4.209-.485 5.416-2.635 1.327-2.363 1.303-2.904-.235-5.25-1.307-1.995-2.542-2.615-5.211-2.615-2.776 0-3.738.525-4.656 2.54m-75.617 9.677c-.717.717-1.183.776-1.183.15 0-1.335 1.183-2.518 1.85-1.85.284.284-.016 1.049-.667 1.7m-5.293 7.956c-6.766 9.98-20.443 28.138-22.771 30.232-3.422 3.077-2.437.831 1.881-4.29 2.2-2.609 4-5.082 4-5.496s-1.912.777-4.25 2.647-6.05 4.481-8.25 5.804c-5.087 3.058-15.358 7.93-16.718 7.93-.571 0 2.282-2.169 6.34-4.82 10.767-7.033 24.116-18.46 34.37-29.419 4.945-5.286 9.148-9.455 9.339-9.263.192.191-1.582 3.195-3.941 6.675m-233.515 1.318c-9.13 1.986-17.234 6.245-23.172 12.179-3.059 3.057-6.333 7.637-7.75 10.84-1.349 3.051-2.448 6.097-2.441 6.769s1.094-.671 2.416-2.983c6.403-11.198 14.974-18.2 25.572-20.892 4.668-1.185 8.896-1.501 15-1.122 7.807.486 19.38 3.34 22.988 5.67 1.239.8.919 1.549-1.908 4.466-1.869 1.928-4.859 4.198-6.644 5.045-1.794.851-8.549 1.983-15.091 2.529-6.515.543-13.645 1.486-15.845 2.095-7.654 2.119-15.536 7.146-21.627 13.793-3.286 3.586-7.787 9.234-10.002 12.551l-4.027 6.031 3.116.807c1.713.444 7.036.678 11.828.519 7.757-.256 8.416-.42 6.01-1.495-1.486-.664-3.431-2.617-4.323-4.341l-1.62-3.134 1.594-1.762c2.669-2.949 10.7-6.823 17.301-8.346l6.25-1.442v2.899c0 1.595 1.079 5.022 2.398 7.616 2.56 5.035 6.713 8.705 11.097 9.805 5.252 1.318.176 2.381-11.445 2.397-6.764.009-11.061.381-10.5.908 1.696 1.595 11.351 3.107 19.839 3.107 9.21 0 23.427-3.107 25.221-5.512.611-.818 2.593-1.488 4.405-1.488h3.295l-1.754-1.938-1.754-1.938 5.849.506c4.961.429 5.596.306 4.186-.812a55 55 0 0 0-3.5-2.509c-1.647-1.068-1.527-1.198 1.163-1.256 1.65-.035 4.8-.571 7-1.19l4-1.126-5-1.674c-2.75-.92-6.35-2.431-8-3.356l-3-1.683 4.255.616c5.259.763 12.206-1.068 18.389-4.845 2.555-1.56 6.423-5.19 8.596-8.066 5.121-6.776 7.26-9.995 7.26-10.921 0-.411-1.652.374-3.672 1.744-5.009 3.399-13.172 5.619-19.316 5.252l-5.104-.304 3.005-4.076c1.652-2.242 3.483-5.335 4.068-6.873l1.063-2.797-3.726 3.272c-2.05 1.799-5.997 4.297-8.772 5.551-4.868 2.198-14.546 4.248-14.546 3.081 0-.585 4.271-7.312 5.864-9.235.49-.592 1.201-2.052 1.579-3.244.519-1.636.338-2.032-.743-1.617-.786.301-4.364-1.064-7.949-3.035-6.204-3.41-17.364-6.564-22.751-6.43-1.375.034-5.256.662-8.625 1.394m305.518-.131c-3.022 1.498-3.711 6.078-1.313 8.728 1.943 2.148 6.399 2.533 8.22.712 1.576-1.576 1.543-7.29-.05-8.522-2.354-1.822-4.465-2.105-6.857-.918m34.743 17.536c-.355 5.832-1.274 14.475-2.041 19.206-1.433 8.836-6.628 28.34-9.167 34.417-.786 1.879-1.428 3.72-1.428 4.09s1.594-1.303 3.542-3.718 5.546-8.441 7.996-13.391c4.946-9.993 5.645-8.967 2.441 3.581-2.701 10.579-6.475 20.913-10.743 29.419-3.672 7.318-13.134 21.935-13.781 21.288-.206-.205.466-3.073 1.493-6.373 1.027-3.299 2.201-8.229 2.61-10.954l.743-4.955-6.731 9.929c-3.702 5.46-9.419 13.177-12.704 17.148-5.648 6.829-18.875 19.417-20.401 19.417-.388 0 .859-1.913 2.772-4.25 6.039-7.378 15.795-22.908 20.361-32.411 2.421-5.039 4.402-9.613 4.402-10.164s-2.773 1.886-6.163 5.416c-3.389 3.529-6.313 6.266-6.497 6.082s.762-3.561 2.103-7.504 2.312-7.169 2.158-7.169-2.41 2.742-5.013 6.094-4.944 5.883-5.202 5.625.187-2.213.989-4.344c.803-2.131 3.533-10.4 6.068-18.375s5.713-16.525 7.062-19l2.453-4.5-.607 8.5-.607 8.5 2.948-4c1.622-2.2 4.83-7.122 7.128-10.937 3.667-6.086 4.173-6.577 4.122-4-.031 1.615-.883 6.087-1.893 9.937s-1.703 7.143-1.541 7.318c.759.819 9.864-13.389 12.09-18.866 2.977-7.327 8.182-28.553 9.059-36.942.375-3.59 1.02-5.71 1.624-5.336.634.392.765 4.509.355 11.222m-510.861-7.78c17.838 6.594 25.695 8.967 34.225 10.337 6.548 1.051 9.924 2.072 10.864 3.286 2.037 2.63 5.86 11.306 6.634 15.057l.681 3.296-4.839-2.947c-7.477-4.552-13.957-6.405-22.84-6.531-7.018-.1-8.737.254-14 2.886-3.911 1.955-7.132 4.507-9.25 7.328-1.787 2.38-3.25 4.946-3.25 5.702s2.138-.759 4.75-3.367c6.344-6.333 13.43-8.65 24.13-7.89 8.378.594 14.797 2.934 21.754 7.93 4.465 3.207 7.507 7.221 8.868 11.7l.73 2.404-3.366-2.065c-1.851-1.136-6.05-2.84-9.331-3.787-4.566-1.318-8.214-1.598-15.546-1.194-6.94.382-11.635 1.28-17.035 3.257-4.1 1.502-9.072 2.94-11.049 3.196l-3.595.466-3.619-4.228c-3.895-4.55-8.736-15.187-11.177-24.558-.833-3.198-1.514-8.44-1.514-11.65 0-4.862.409-6.244 2.455-8.289 3.098-3.099 7.584-3.198 15.32-.339m469.757 27.348c-1.255 14.63-4.472 26.531-10.285 38.047-3.222 6.383-11.877 18.489-13.218 18.489-.441 0 1.587-4.837 4.506-10.75s6.713-15.025 8.43-20.25 4.102-14.916 5.3-21.536c1.875-10.365 2.44-12.035 4.067-12.035h1.889zM653.1 843.975c9.112 11.1 11.042 13.915 12.897 18.813 1.28 3.379 2.003 7.709 2.002 12 0 5.328-.592 7.949-2.869 12.712-1.578 3.3-6.598 10.95-11.155 17s-9.564 13.717-11.125 17.037c-1.562 3.32-3.313 8.6-3.892 11.732-1.899 10.272 1.617 22.342 9.29 31.89 3.453 4.296 12.16 11.269 18.752 15.018 2.475 1.407 6.694 3.517 9.375 4.69l4.875 2.131-4.712-4.857c-2.592-2.672-5.597-6.159-6.677-7.75-4.304-6.332-7.827-14.475-8.986-20.769-.955-5.181-.959-8.043-.018-13.152.662-3.591 1.969-8.203 2.905-10.25.935-2.046 4.806-8.406 8.601-14.133 3.796-5.728 8.273-13.153 9.95-16.5 2.503-4.998 3.127-7.635 3.485-14.74.389-7.689.154-9.273-2.11-14.218-4.074-8.899-14.627-19.058-28.588-27.521l-5.399-3.274zm775.115 1.398c7.74 3.483 13.233 7.889 17.266 13.852 1.963 2.901 4.458 8.135 5.544 11.63 2.013 6.478 2.562 16.957 1.292 24.645l-.661 4-1.722-8c-.947-4.4-2.921-10.532-4.387-13.626-3.356-7.088-12.177-17.849-18.332-22.365-2.593-1.903-6.626-4.258-8.961-5.234-3.692-1.543-4.247-2.178-4.25-4.858-.002-1.696.243-3.331.545-3.633.862-.861 7.863.977 13.666 3.589m-351.462-2.22c.794.794.845 1.73.165 3-.544 1.016-1.632 1.847-2.418 1.847s-1.874-.831-2.418-1.847c-.68-1.27-.629-2.206.165-3 .634-.634 1.648-1.153 2.253-1.153s1.619.519 2.253 1.153m5.247 3.897c0 1.677-.663 4.331-1.473 5.897-2.848 5.508-15.348 9.098-19.953 5.731-1.555-1.137-.974-1.262 4.15-.892l5.959.431 3.646-3.201c2.101-1.844 4.143-4.858 4.817-7.109.644-2.149 1.549-3.907 2.012-3.907s.842 1.372.842 3.05m12.578 4.706c-.693.692-7.578-1.809-7.578-2.753 0-.463 1.805-.133 4.011.733 2.206.867 3.811 1.776 3.567 2.02m299.105 2.432c-.319.797-.556.56-.604-.605-.043-1.054.193-1.644.525-1.312s.368 1.195.079 1.917m-372.626 3.562a544 544 0 0 1 1.744 3.5c.201.413-2.484.733-5.968.712l-6.333-.037 4-3.448c2.2-1.896 4.265-3.454 4.589-3.462s1.21 1.222 1.968 2.735M1058.5 856c.34.55.168 1-.382 1s-1.278-.45-1.618-1-.168-1 .382-1 1.278.45 1.618 1m-129 16.391c0 1.04-.779 2.382-1.731 2.983-1.323.834-2.099.725-3.287-.463-2.28-2.28-.851-5.092 2.396-4.715 1.798.208 2.622.898 2.622 2.195M901.762 881c1.107 2.669 5.458 7.052 8.724 8.788l1.986 1.055-2.809.706c-1.545.387-6.055.496-10.021.242-7.801-.501-11.628-2.271-13.421-6.205-1.384-3.037-.532-4.156 7.279-9.56l6-4.15.612 3.312c.337 1.822 1.079 4.437 1.65 5.812m361.286 3.253c5.005 3.374 7.428 8.22 7.368 14.739-.036 3.88-.715 6.599-2.298 9.2-2.479 4.073-8.125 7.243-14.776 8.295l-4.158.658 1.497-4.323c1.64-4.737 1.235-10.973-1.152-17.739-1.246-3.533-1.225-4.397.179-7.295.875-1.808 2.03-3.85 2.564-4.538 1.539-1.978 7.123-1.458 10.776 1.003M701.814 898c-.271 4.22-1.424 9.906-2.637 13-1.21 3.086-5.855 10.221-10.587 16.258-4.637 5.918-9.25 12.893-10.252 15.5-2.528 6.584-2.348 15.596.416 20.872 3.683 7.028 13.313 15.519 24.228 21.36 1.976 1.058 1.73.493-1.347-3.098-2.071-2.416-5.194-7.317-6.942-10.892-2.721-5.567-3.174-7.576-3.154-14 .025-7.942.717-9.823 9.934-26.985 4.855-9.039 6.09-15.606 4.729-25.133-.598-4.189-1.723-9.139-2.498-11l-1.409-3.382zm-76.586 3.668c-10.429 10.315-13.96 15.885-16.775 26.463-3.959 14.873.484 30.042 12.176 41.571 4.479 4.416 8.676 7.34 14.58 10.155 4.56 2.175 9.416 4.287 10.791 4.692 1.951.576 1.216-.527-3.345-5.02-6.831-6.729-14.706-18.377-17.532-25.93-1.094-2.923-2.479-8.896-3.078-13.273-1.945-14.204 1.19-27.064 9.994-41.006 2.26-3.578 3.889-6.726 3.619-6.995s-4.963 3.935-10.43 9.343m665.989 1.754c-2.398 5.264-9.7 14.253-18.618 22.92l-9.099 8.843 4-1.629c11.065-4.504 21.127-15.026 24.078-25.177 1.746-6.005 1.522-9.088-.361-4.957m182.753 8.248c7.737 2.556 18.277 8.128 24.252 12.821 12.774 10.033 23.146 26.757 26.325 42.446 1.316 6.491 1.579 11.603 1.185 22.957-.367 10.602-1.117 16.916-2.735 23.032-1.225 4.634-3.076 10.259-4.111 12.5-1.664 3.599-1.822 3.72-1.353 1.042 1.434-8.198 2.067-23.263 1.369-32.581-.929-12.405-3.514-22.761-8.17-32.732l-3.429-7.344-.611 11.844c-.614 11.896-2.198 19.767-5.426 26.968l-1.738 3.877-.331-4c-.182-2.2-.689-4.366-1.126-4.812-.438-.447-1.076.588-1.419 2.301-1.006 5.029-7.395 16.944-13.321 24.843-3.026 4.032-5.715 7.118-5.975 6.857-.261-.261.234-3.11 1.1-6.332s1.853-10.132 2.194-15.357c.512-7.841.247-10.976-1.518-17.953-2.313-9.143-4.128-12.432-4.138-7.497-.007 3.839-1.425 9.016-5.299 19.345l-3.149 8.395-.793-3.895c-1.118-5.495-5.029-17.095-5.359-15.895-.152.55-1.271 4.786-2.488 9.413l-2.213 8.412-2.268-6.735c-2.377-7.057-6.75-14.92-11.257-20.239l-2.668-3.148-.229 9.839c-.381 16.35-4.557 32.621-12.431 48.433-4.086 8.204-8.783 15.253-7.347 11.025.374-1.1 1.371-5.15 2.217-9 1.905-8.674 2.113-29.634.381-38.5-1.362-6.972-4.973-18.988-6.1-20.298-.378-.439-.967 2.829-1.309 7.262-.374 4.855-1.85 11.733-3.711 17.298-1.699 5.081-3.401 9.55-3.78 9.931-.38.382-.737-4.343-.794-10.5-.084-9.256-.568-12.621-2.793-19.443-1.48-4.538-2.85-8.25-3.044-8.25s-.383 2.475-.419 5.499c-.061 5.111-2.82 18.838-4.91 24.431-.764 2.044-1.011 1.45-1.554-3.744-.355-3.395-1.358-7.864-2.23-9.93s-3.13-9.922-5.018-17.459c-1.889-7.536-5.217-18.764-7.396-24.952-2.18-6.187-3.817-11.394-3.639-11.572.386-.387 11.561 11.071 14.608 14.979 1.181 1.514 3.692 5.319 5.581 8.456l3.435 5.705-.613-4.957c-1.108-8.952-3.424-17.763-6.928-26.357-1.897-4.653-3.285-8.624-3.084-8.825.2-.201 4.356 3.965 9.236 9.257 8.413 9.124 16.265 19.861 22.649 30.969l2.873 5-.594-6c-.955-9.65-4.462-22.365-8.657-31.388-2.145-4.614-3.9-8.582-3.9-8.819 0-1.185 6.507 4.547 15.171 13.365 10.633 10.821 21.572 23.476 25.681 29.711l2.648 4.018.301-4.067c.264-3.557-1.361-12.793-3.311-18.82-.804-2.486 11.853 10.589 15.361 15.868 1.414 2.127 2.732 3.384 2.928 2.794.381-1.141-2.409-17.034-3.478-19.821-1.969-5.131 18.074 12.046 22.875 19.605l2.824 4.446v-8.131c0-9.503-2.128-20.631-5.034-26.328-3.084-6.044-8.432-11.46-16.875-17.084l-7.591-5.058 3.97.691c2.184.38 6.009 1.365 8.5 2.188m-477.426 21.133c1.417 4.113 1.121 8.767-.807 12.697-.54 1.1-2.136 3.237-3.546 4.75-1.411 1.513-2.213 2.75-1.782 2.75 1.775 0 6.73-4.368 8.217-7.244 2.155-4.166 1.393-12.182-1.426-15l-2.077-2.077zm-36.437 10.45c-1.866.686-4.105 2.33-4.975 3.653l-1.583 2.406 2.16-1.156c3.304-1.768 10.232-1.383 17.153.955 3.437 1.161 6.546 1.814 6.909 1.452.908-.908-.914-3.58-4.024-5.902-3.198-2.388-11.051-3.095-15.64-1.408m288.849 4.724c5.416 2.763 8.314 7.231 8.845 13.635.241 2.913.153 6.433-.195 7.823-.349 1.391-2.021 4.107-3.715 6.036-5.743 6.541-17.868 8.07-25.076 3.161-1.722-1.172-3.993-3.296-5.046-4.719-2.251-3.04-3.286-9.342-2.352-14.32.757-4.04 4.596-9.02 9.04-11.73 4.194-2.558 13.372-2.501 18.499.114m73.008 34.596c1.643 3.34 3.969 6.94 5.168 8l2.182 1.927-.578-2.307c-1.159-4.623 1.79-1.448 7.251 7.807 3.032 5.139 7.763 11.655 10.513 14.482 5.474 5.627 16.009 11.47 20.91 11.599l3.09.081-3 1.352c-4.797 2.161-12.525 2.75-19.517 1.488-7.87-1.42-18.368-6.757-24.47-12.439-2.482-2.311-4.513-4.009-4.513-3.773s1.449 3.193 3.22 6.57c4.465 8.516 15.814 19.772 23.896 23.703l6.384 3.104-7.5-.646c-4.125-.355-11.175-1.901-15.666-3.435-9.457-3.231-22.995-11.825-29.156-18.509-2.298-2.493-4.178-4.334-4.178-4.092s.964 3.044 2.142 6.227c2.603 7.032 9.317 17.681 14.273 22.636 2.008 2.009 3.362 3.652 3.008 3.652s-3.406-1.45-6.783-3.223c-6.784-3.562-17.807-13.874-22.064-20.641-3.262-5.186-5.346-10.745-6.675-17.809-.808-4.292-.638-6.167.999-11 1.084-3.205 3.523-9.166 5.419-13.247l3.448-7.419.686 3.419c1.724 8.583 7.357 22.884 11.256 28.575.435.635.631-4.215.435-10.778-.196-6.562-.03-13.607.37-15.654l.725-3.723 1.34 3.784c1.673 4.724 7.489 15.719 8.31 15.709.336-.004.65-3.267.697-7.25.048-3.984.913-10.843 1.924-15.243l1.837-8 .815 4.5c.448 2.475 2.159 7.233 3.802 10.573m-269.235-2.481c-.974.567-1.51 1.453-1.191 1.969.319.517 1.948.939 3.62.939 3.975 0 9.624 2.725 11.008 5.309.603 1.127 1.412 4.331 1.799 7.12l.702 5.071 1.167-2.815c1.856-4.482 1.431-10.079-1.002-13.171-3.694-4.697-11.806-6.924-16.103-4.422m-70.495 3.129c-2.896.422-8.462 2.442-12.37 4.489l-7.104 3.721-9.651-.27-9.652-.27-3.463 2.334c-4.287 2.889-7.574 8.567-9.131 15.775-.654 3.025-1.581 6.288-2.061 7.25-.987 1.98-4.905 2.301-7.983.653-1.619-.866-1.957-.813-1.606.25.8 2.421 8.364 6.981 12.501 7.535l4.046.543.601 4.388c.864 6.304 4.087 11.968 8.717 15.322 4.671 3.384 11.412 5.059 20.361 5.059 7.995 0 21.058-2.45 28.971-5.434 3.35-1.263 9.983-4.599 14.742-7.412 8.246-4.876 12.593-8.712 45.098-39.801 3.162-3.024 5.75-6.146 5.75-6.936 0-1.092-1.192-.813-4.977 1.166-3.023 1.581-7.243 2.786-10.75 3.071-5.93.481-8.133-.033-32.754-7.634-11.538-3.562-21.787-4.892-29.285-3.799m-345.503 13.837c-13.247 1.176-28.96 3.813-41.386 6.945-12.594 3.174-26.279 9.197-33.798 14.874-6.67 5.036-10.877 12.623-10.975 19.795l-.072 5.247-10 5.221c-5.5 2.871-14.275 7.766-19.5 10.876s-13.406 7.485-18.18 9.722c-10.67 4.999-26.405 15.793-33.988 23.315-4.062 4.029-6.007 6.873-6.866 10.035-1.58 5.82-.682 17.06 1.883 23.546 1.117 2.823 3.857 8.118 6.091 11.767s4.06 7.259 4.06 8.024c0 1.73-7.468 16.366-11.774 23.075-2.376 3.703-3.381 6.656-3.874 11.386-.598 5.743-1.16 6.981-5.574 12.286-2.7 3.244-5.497 7.345-6.215 9.113s-1.6 5.69-1.961 8.715-2.053 8.296-3.76 11.713c-2.26 4.523-3.239 8.1-3.6 13.152-.38 5.305.005 8.591 1.636 13.961 1.845 6.072 1.984 7.721 1.026 12.187-.609 2.84-.938 8.612-.73 12.826.275 5.562 1.085 9.168 2.959 13.161 3 6.391 14.877 22.423 29.236 39.461 13.764 16.332 17.405 20.277 38.128 41.316 9.902 10.052 18.545 19.502 19.208 21 1.695 3.831 1.585 25.79-.214 42.723-.818 7.7-1.488 14.935-1.489 16.078l-.002 2.079 5.923-.954 5.924-.954.582-4.625c1.094-8.686 2.571-30.403 2.571-37.804v-7.39l1.773.949c2.894 1.548 13.255 3.907 20.227 4.604l6.5.65-9-4.497a71 71 0 0 1-16.295-11.188c-4.012-3.681-7.12-6.867-6.906-7.081.214-.213 2.372.318 4.795 1.182 4.258 1.517 21.943 5.474 24.266 5.429.627-.012-2.91-2.089-7.86-4.615-12.401-6.329-30.059-18.038-42.015-27.861-18.059-14.837-49.545-49.438-62.4-68.572-3.166-4.714-6.275-10.627-6.908-13.14-1.261-5.008-.591-10.352 2.772-22.112 1.056-3.693 1.49-6.449.964-6.124-.527.325-2.11-1.927-3.519-5.005-2.017-4.406-2.418-6.445-1.887-9.593.372-2.198 2.28-6.329 4.24-9.179 2.749-3.996 3.53-6.086 3.41-9.128-.085-2.17.289-5.593.832-7.607s3.449-6.506 6.459-9.982c4.781-5.521 5.683-7.263 7.131-13.771 2.704-12.151 18.248-41.791 26.798-51.097 2.268-2.468 5.571-5.096 7.341-5.84 8.086-3.398 21.17-.28 39.282 9.362 11.998 6.387 15.643 8.654 25.723 15.998 4.642 3.382 7.937 6.661 9.219 9.175l1.996 3.912-2.439.612c-3.144.789-7.215 5.197-8.558 9.266-.753 2.282-.728 4.424.086 7.508.819 3.1 2.639 5.745 6.464 9.391 2.928 2.792 8.628 6.767 12.666 8.832l7.343 3.755-6.684-.603c-3.676-.331-8.616-1.284-10.978-2.117-6.317-2.229-16.455-7.897-33.338-18.639-8.25-5.25-17.416-10.762-20.369-12.251-4.617-2.328-15.94-5.481-19.881-5.536-2.178-.03-1.352 1.615 1.452 2.893l2.703 1.232-5.453 2.22c-5.345 2.176-23.896 14.456-23.933 15.842-.011.388 3.919-1.111 8.731-3.33 11.3-5.211 22.221-8.874 26.455-8.874 4.513 0 14.486 4.926 31.144 15.383 7.616 4.782 17.407 10.483 21.756 12.67 8.447 4.247 17.241 6.947 22.625 6.947 1.852 0 5.172 1.169 7.54 2.654 5.863 3.679 21.558 15.488 25.447 19.147 2.981 2.804 9.283 11.779 9.283 13.22 0 .347-3.774-3.052-8.386-7.551-8.717-8.504-15.144-12.47-20.207-12.47-3.664 0-6.951 2.217-8.913 6.011-2.815 5.444-1.529 12.171 3.32 17.368 3.457 3.706 12.432 9.512 18.186 11.765l4.5 1.762-5.782.047c-6.626.054-15.678-2.677-23.639-7.13-2.981-1.668-14.681-9.088-26-16.489-11.318-7.4-24.813-15.566-29.989-18.145l-9.409-4.689-11.091.098c-9.387.082-12.626.571-21.09 3.182-5.5 1.696-13.15 4.269-17 5.718l-7 2.633 8-.573c4.4-.316 13.175-1.467 19.5-2.559s15.1-1.988 19.5-1.992c6.814-.005 8.937.438 14.321 2.985 5.426 2.567 20.871 12.634 42.313 27.581l5.633 3.927-.512 3.233c-.281 1.779.074 4.647.789 6.373 1.509 3.642 8.893 8.725 16.709 11.5 3.936 1.398 4.814 2.04 3.5 2.56-6.194 2.451-19.126-.616-45.395-10.765-12.065-4.662-24.812-9.231-28.326-10.153l-6.389-1.675-4.822 1.647c-2.651.906-11.852 4.097-20.444 7.091l-15.624 5.443 5.147.605c4.749.558 16.791-.366 25.121-1.929 2.326-.436 3.479-.273 3.479.492 0 2.875-5.671 11.841-10.873 17.191-3.149 3.238-5.478 5.886-5.176 5.884.597-.003 9.1-4.334 21.283-10.841l7.734-4.13.636 2.533c.35 1.393.437 4.927.195 7.853l-.441 5.319 6.09-6.366c5.203-5.439 6.596-6.365 9.571-6.362 5.052.005 38.851 14.882 45.547 20.048 5.655 4.362 14.85 15.695 18.216 22.449 1.096 2.2 2.983 7.15 4.194 11 3.055 9.717 3.123 24.092.164 34.785-2.08 7.522-7.612 19.486-12.349 26.709l-2.291 3.494 3-2.152c4.553-3.268 8.009-7.242 11.828-13.603 9.154-15.247 10.328-38.932 2.893-58.358-2.073-5.416-12.298-22.364-14.69-24.349-.842-.699-1.531-1.617-1.531-2.04s1.064-1.036 2.364-1.362c3.07-.771 10.421-7.919 11.156-10.848l.571-2.276 8.329.347 8.33.348 1.625-2.32c.894-1.276 1.615-3.457 1.603-4.848-.012-1.39-.92-4.507-2.018-6.926s-1.875-4.463-1.728-4.541 2.11-1.322 4.362-2.762c4.655-2.979 7.406-7.906 7.406-13.267v-3.666l2.25.639c1.237.352 6.457 2.235 11.6 4.184 8.142 3.087 9.521 3.956 10.683 6.736.733 1.755 2.349 8.34 3.591 14.633 1.752 8.88 2.269 15.027 2.306 27.443.042 13.915-.263 17.108-2.338 24.5-1.313 4.675-4.166 12.55-6.34 17.5-2.175 4.95-5.27 12.375-6.878 16.5s-3.367 8.287-3.908 9.25-.717 1.75-.393 1.75c.325 0 2.657-1.687 5.184-3.75l4.593-3.75-.652 2.5c-.358 1.375-.958 17.896-1.334 36.713l-.683 34.213 3.909-.517c2.151-.284 5.417-.746 7.259-1.027l3.349-.51-.849-19.186c-.467-10.552-.777-25.936-.69-34.186.136-12.74.535-16.281 2.651-23.5a6368 6368 0 0 0 5.098-17.5c1.433-4.95 3.136-14.062 3.783-20.25.912-8.713.904-14.174-.038-24.226-1.321-14.101-3.637-27.718-7.458-43.851l-2.447-10.327 5.126.722c7.907 1.114 36.194.791 45.126-.515 17.125-2.504 32.289-8.157 39.603-14.765 4.835-4.368 7.305-10.687 6.688-17.108l-.466-4.856 4.404-2.336c6.876-3.648 17.725-14.358 23.814-23.51 6.668-10.021 11.116-20.025 15.827-35.596 4.65-15.371 15.902-71.862 17.252-86.616.522-5.702.285-8.243-1.12-12-5.011-13.401-21.267-24.889-47.768-33.757-5.793-1.938-15.416-4.623-21.384-5.965-13.819-3.109-35.089-6.159-52.3-7.498-15.135-1.177-54.005-1.171-67.319.012M706 1009.101c37.319 2.82 69.776 10.151 89.746 20.27 8.096 4.103 15.257 10.383 17.423 15.277 1.553 3.511 1.828 5.635 1.316 10.146-1.858 16.372-13.745 75.856-17.547 87.811-3.541 11.134-9.513 23.676-14.472 30.395-4.216 5.713-11.675 12.856-17.466 16.728-7.242 4.842-18.514 10.172-28.213 13.342-10.746 3.511-28.754 6.901-37.212 7.004-3.341.041-8.1.409-10.575.817-3.845.635-2.758.862 7.465 1.559 12.658.864 26.624.234 40.346-1.818 4.571-.684 8.469-.989 8.661-.678s-.239 1.966-.959 3.677c-3.994 9.499-22.581 14.685-52.513 14.651-18.068-.021-31.654-1.712-46.721-5.817-11.196-3.05-17.473-5.659-20.217-8.403-1.583-1.583-2.062-3.34-2.062-7.562 0-3.025.248-5.5.55-5.5s5.59 1.327 11.75 2.948c9.903 2.606 18.899 4.152 32.2 5.531 3.128.324 3.455.231 1.5-.427-1.375-.463-7-2.072-12.5-3.576-20.447-5.591-39.121-14.122-51.96-23.737-16.635-12.458-25.66-31.148-31.501-65.239-2.585-15.087-10.249-68.742-10.746-75.234l-.554-7.235 2.537-3.326c2.709-3.552 10.753-8.273 19.724-11.576 21.092-7.765 58.695-12.438 92.5-11.495 8.8.246 22.075.906 29.5 1.467m330.863-1.631c-.258.258-7.131 3.427-15.273 7.04-13.078 5.805-25.336 10.078-26.259 9.154-.176-.175 1.254-2.155 3.175-4.4 1.922-2.245 3.494-4.28 3.494-4.522 0-.839-11.546 1.326-20.188 3.786-8.85 2.518-16.453 2.979-26.312 1.595-6.273-.881-4.319-1.648 8-3.141 4.95-.6 14.4-2.454 21-4.121 9.917-2.504 15.092-3.171 29.812-3.841 9.796-.445 18.084-1.082 18.416-1.415s1.505-.605 2.605-.605 1.789.211 1.53.47m-425.447 11.071c-11.065 1.615-23.711 5.68-30.656 9.853-2.842 1.708-6.026 4.582-7.073 6.385-1.637 2.818-1.731 3.7-.667 6.268.68 1.644 2.925 4.325 4.987 5.959 5.68 4.498 19.354 10.692 31.036 14.057 11.471 3.305 30.309 6.988 49.242 9.629 9.406 1.312 19.804 1.716 45.215 1.756 26.673.042 35.58-.3 46.456-1.783 25.936-3.536 42.824-9.337 47.039-16.157 1.654-2.676 1.887-3.86 1.063-5.4-1.452-2.714-8.435-8.238-15.18-12.01-3.091-1.729-9.251-4.469-13.687-6.088-8.492-3.099-23.601-7.119-33.691-8.963-11.968-2.188-32.253-4.026-43.5-3.941l-11.5.088 8.5 1.343c16.288 2.573 38.572 7.607 48.906 11.047 16.52 5.501 27.094 11.879 27.094 16.345 0 1.114-1.013 2.66-2.25 3.435-2.362 1.481-9.006 3.099-17 4.14l-4.75.619v-3.359c0-2.574-.876-4.199-3.75-6.958-7.136-6.849-20.144-11.767-36.606-13.839-12.285-1.546-42.383-.7-51.857 1.458-7.751 1.765-18.375 5.892-20.786 8.074-1.483 1.342-2.335 1.227-8.079-1.092-8.223-3.32-12.922-6.206-12.922-7.938 0-2.252 6.076-6.185 13-8.415 3.575-1.152 11.45-2.949 17.5-3.993l11-1.899-14 .026c-7.7.015-18.088.624-23.084 1.353m632.165 35.711c.046 6.366.821 14.843 1.787 19.53 2.148 10.427 6.394 21.517 11.581 30.248 4.865 8.189 17.408 21.762 24.144 26.127 2.698 1.748 4.757 3.326 4.576 3.507-.765.766-11.739-3.18-19.003-6.832-14.37-7.225-25.171-20.696-28.732-35.832-1.737-7.385-1.479-23.885.509-32.5 1.307-5.667 4.446-15.507 4.943-15.498.063.001.15 5.064.195 11.25M900 1049.571c0 .314-1.991 3.36-4.424 6.77-6.316 8.852-11.151 19.035-12.988 27.356-3.285 14.889-1.152 31.32 5.599 43.127 1.675 2.928 5.274 7.878 7.999 11 5.221 5.982 7.81 7.906 5.944 4.418-2.044-3.818-3.207-11.624-3.255-21.83-.026-5.655.428-11.098 1.008-12.097.843-1.449 1.062-.793 1.087 3.253.033 5.581 2.175 13.751 5.224 19.932 2.461 4.989 10.08 16.444 10.958 16.476.359.013.021-2.073-.75-4.635-1.627-5.407-1.951-23.798-.402-22.841.55.34 1.004 1.604 1.01 2.809.015 3.514 4.522 12.221 8.74 16.886 2.309 2.554 4.834 6.948 6.209 10.805 2.8 7.855 7.808 16.014 13.351 21.75 2.258 2.338 3.483 4.25 2.721 4.25s-5.212-1.852-9.89-4.117c-5.728-2.772-10.263-5.875-13.891-9.503-5.892-5.891-6.093-5.076-1.171 4.74 3.436 6.85 11.008 16.439 16.809 21.286 2.366 1.977 3.762 3.594 3.103 3.594s-4.23-1.593-7.936-3.54c-11.895-6.251-22.732-16.922-27.401-26.982-1.364-2.939-3.654-5.143-8.763-8.436-3.803-2.452-9.365-6.908-12.359-9.901-2.994-2.994-7.032-8.467-8.974-12.163-6.305-11.998-8.166-27.905-4.946-42.281.887-3.958 3.645-11.159 6.13-16.002 3.129-6.1 6.813-11.245 11.991-16.75 6.665-7.085 9.267-9.155 9.267-7.374m-342.055 11.683a4345 4345 0 0 0 1.662 10.641l.538 3.396-8.322-.532c-10.047-.642-25.823-3.673-25.823-4.962 0-4.118 8.49-9.713 20.892-13.768 4.735-1.548 8.905-2.637 9.268-2.418s1.166 3.657 1.785 7.643m828.759 5.981c-1.299 3.577-3.639 8.7-5.201 11.385-4.18 7.183-15.59 18.507-23.036 22.861-3.581 2.095-6.369 3.951-6.195 4.124.797.797 19.001-1.778 25.728-3.64 9.729-2.693 22.367-8.832 27.798-13.505 2.364-2.034 4.5-3.495 4.748-3.247.893.893-6.174 10.419-12.25 16.512l-6.209 6.225 6.545-2.463c3.599-1.355 9.172-3.864 12.384-5.576 7.637-4.071 18.301-12.922 21.631-17.954 1.455-2.199 2.805-3.838 3.001-3.643.739.74-3.74 16.177-5.618 19.359-1.079 1.83-1.681 3.327-1.337 3.327 1.662 0 11.579-8.507 16.502-14.157 6.683-7.667 10.119-13.037 12.11-18.922l1.495-4.421.724 4.816c.819 5.454-.189 19.672-1.67 23.569l-.983 2.585 2.697-2.485c1.484-1.367 3.578-3.835 4.654-5.485l1.956-3-.625 5.262c-.344 2.894-.87 6.044-1.17 7-.79 2.522 7.909-7.12 13.623-15.1 2.693-3.76 5.413-8.403 6.045-10.317s1.347-3.281 1.589-3.038c.243.242-.24 4.993-1.072 10.558-2.752 18.409-9.136 33.507-19.739 46.688-3.445 4.282-9.879 10.66-14.297 14.173-9.255 7.359-20.982 13.994-31.032 17.56-8.695 3.084-23.732 5.722-32.426 5.688l-6.574-.025 7.341-2.501c4.037-1.375 9.212-3.452 11.5-4.615 11.279-5.735 23.326-16.327 29.957-26.34 3.232-4.879 12.007-22.493 11.206-22.493-.222 0-2.508 1.42-5.08 3.156-5.747 3.879-17.587 8.558-26.358 10.417-8.679 1.84-26.805 1.775-35.566-.128-12.633-2.744-11.548-2.931-16.422 2.829-6.074 7.179-15.395 14.515-22.624 17.807-3.325 1.515-9.493 3.466-13.708 4.336-7.847 1.621-19.288 1.943-23.746.669-1.991-.569-1.299-.86 3.405-1.427 7.471-.902 17.289-5.007 25.614-10.711l6.481-4.441-8-.67c-13.743-1.152-25.335-6.715-35.204-16.894-2.863-2.952-5.105-5.467-4.984-5.589.122-.121 3.364 1.332 7.205 3.229 3.84 1.897 10.3 4.134 14.354 4.972 7.733 1.597 25.363 1.674 21.629.094-8.497-3.595-14.879-7.231-18.886-10.757-2.585-2.276-4.529-4.31-4.32-4.52.21-.209 1.692.075 3.294.633 3.019 1.052 16.646 2.974 17.261 2.436.193-.169-2.057-1.519-5-3.002-3.146-1.585-8.581-5.965-13.198-10.635-4.316-4.367-7.624-8.165-7.349-8.439s2.714.623 5.42 1.994c6.248 3.166 14.939 5.423 23.821 6.186 8.547.734 20.372-1.261 29.988-5.059 9.306-3.676 19.282-10.375 25.16-16.896 2.645-2.934 4.936-5.227 5.091-5.096.156.13-.78 3.164-2.078 6.741M584 1063.863c0 5.382 5.255 42.489 7.993 56.438 3.283 16.728 6.281 26.953 10.834 36.948 2.977 6.536 9.812 17.751 10.819 17.751.321 0-.116-1.069-.972-2.375-2.592-3.955-6.444-14.217-8.599-22.909-3.525-14.214-5.818-33.597-7.64-64.57l-.667-11.354 1.866.535c8.234 2.362 38.849 6.387 53.866 7.081 11.799.546 11.846.561-9-2.967-18.863-3.192-39.951-9.117-56.75-15.944-1.333-.542-1.75-.216-1.75 1.366m215.5.939c-1.874 1.74-14.973 6.157-27 9.104-16.785 4.113-33.032 6.872-47.573 8.079-6.835.568-15.802 1.333-19.927 1.7l-7.5.669 6 .994c3.3.547 18.857 1.029 34.571 1.073l28.572.079-1.334 8.5c-2.04 12.999-4.139 23.205-7.816 38-4.009 16.133-7.37 25.757-12.727 36.442-4.58 9.136-11.561 16.536-19.819 21.008-2.996 1.622-9.947 4.444-15.447 6.272l-10 3.322 13.109-.519c33.939-1.343 54.788-13.178 67.792-38.48 2.415-4.7 5.532-12.181 6.925-16.624 3.261-10.4 7.877-34.027 11.183-57.247 2.63-18.471 2.88-24.126.991-22.372M537 1078.104c4.029.616 9.636 2.558 14.75 5.109 4.538 2.263 8.25 4.539 8.25 5.058 0 .522-.782.603-1.75.181-.962-.419-6.25-.954-11.75-1.188-12.235-.522-16.957.794-20.213 5.634-1.258 1.869-2.287 4.704-2.287 6.3 0 3.779 2.449 8.437 5.214 9.917 4.509 2.412 12.575 3.863 21.786 3.917l9.5.056-3.706 1.957c-9.522 5.029-23.168 6.186-40.351 3.421-6.734-1.084-10.552-1.254-12.999-.578-4.804 1.326-12.285 7.044-16.38 12.518-1.89 2.527-3.767 4.594-4.172 4.594-1.468 0-10.005-10.619-12.419-15.446-1.36-2.721-2.473-6.448-2.473-8.282 0-4.669 2.184-9.245 6.131-12.847 5.507-5.026 20.975-15.576 26.649-18.178 2.905-1.332 7.405-2.771 10-3.199 5.32-.877 16.522-.425 26.22 1.056m23.25 15.422c.971.382 1.75 1.728 1.75 3.026v2.338l-5.62-2.486c-3.092-1.367-7.254-2.909-9.25-3.427-2.936-.762-2.197-.865 3.87-.541 4.125.221 8.288.711 9.25 1.09m958.323 24.697c-4.572 16.821-10.631 28.1-19.861 36.973-5.482 5.27-13.568 9.915-20.237 11.625-2.186.561-6.45 1.309-9.475 1.662l-5.5.643 5.219-3.066c7.046-4.138 31.678-27.233 39.579-37.108 3.513-4.39 7.47-10.169 8.794-12.841 1.325-2.673 2.583-4.704 2.797-4.513.215.191-.378 3.172-1.316 6.625m-954.622.277c.05 1.65.68 5.813 1.4 9.25.721 3.438 1.098 6.25.84 6.25-.963 0-3.384-3.675-6.201-9.412l-2.904-5.913 2.707-3.139c2.192-2.542 2.836-2.844 3.387-1.588.374.854.72 2.902.771 4.552m884.549 2.852c-7.363 8.954-18.409 18.978-28.444 25.813-9.053 6.164-10.361 7.275-7.056 5.986 17.906-6.98 29.562-15.72 36.296-27.214 2.471-4.218 6.029-11.969 5.467-11.909-.144.015-2.963 3.311-6.263 7.324m.462 36.331c-2.365 7.298-6.875 15.061-12.021 20.691-3.64 3.983-7.293 6.682-12.309 9.094-10.273 4.939-17.465 6.541-29.092 6.477l-10.04-.055 7-1.854c9.669-2.561 15.828-5.375 22.933-10.482 6.782-4.873 11.032-9.15 14.903-14.997 1.813-2.737 5.142-5.38 10.888-8.642 4.552-2.584 8.433-4.552 8.626-4.374.192.179-.207 2.043-.888 4.142M890.503 1181c3.345 10.842 12.301 26.35 20.388 35.301l3.606 3.992-2.499-.751c-3.638-1.092-10.008-4.901-15.638-9.351-6.303-4.983-11.001-13.598-12.259-22.483-.989-6.982-.069-17.786 2.131-25.031l1.268-4.177.653 8.5c.359 4.675 1.417 10.975 2.35 14m612.105 4.439c-1.716 8.298-5.134 16.558-9.442 22.819-4.088 5.942-15.1 16.478-21.94 20.992-3.126 2.063-6.119 3.75-6.651 3.75s.392-1.463 2.054-3.25c5.373-5.778 9.038-11.096 12.767-18.523 4.151-8.266 7.441-20.837 7.836-29.94l.268-6.183 6-2.185c3.3-1.202 6.9-2.812 8-3.578l2-1.393.305 5.113c.168 2.811-.371 8.382-1.197 12.378m-903.986.998c2.475 1.891 4.983 3.598 5.572 3.794.691.231.483 1.493-.588 3.563-.911 1.763-1.818 3.206-2.014 3.206s-2.21-2.844-4.475-6.32c-5.829-8.947-5.579-9.651 1.505-4.243m700.027.201c2.163 1.026 4.219 3.142 5.508 5.67 1.746 3.423 1.893 4.583.967 7.672-1.539 5.138-5.138 8.167-10.312 8.677-4.917.485-8.221-.947-11.085-4.805-2.191-2.952-2.557-9.433-.727-12.853 1.454-2.715 6.834-5.99 9.849-5.995 1.292-.002 3.902.733 5.8 1.634m128.75 20.078c-2.001 6.823-8.541 16.789-12.292 18.729-5.057 2.615-15.19 4.529-23.607 4.459l-8-.067 7-2.249c3.85-1.237 9.316-3.434 12.146-4.883 6.151-3.148 19.419-13.64 23.129-18.289 1.458-1.828 2.759-3.215 2.891-3.083s-.438 2.554-1.267 5.383m-149.133.088c2.11 2.11 3.096 4.231 3.457 7.431.441 3.912.135 4.892-2.418 7.75-2.403 2.689-3.845 3.36-8.09 3.768l-5.165.497-3.525-3.525c-2.981-2.981-3.525-4.214-3.525-7.99 0-3.047.679-5.329 2.138-7.183 1.176-1.495 3.089-3.126 4.25-3.623s3.87-.718 6.019-.491c2.626.278 4.874 1.381 6.859 3.366m-253.813 34.066c-.75.771-5.233-.909-7.791-2.921-2.182-1.717-2.662-2.91-2.662-6.62 0-3.805.511-5.004 3.207-7.522l3.206-2.996 2.2 9.845c1.21 5.414 2.038 10.011 1.84 10.214m228.987-17.187c1.371.999 3.204 3.278 4.073 5.065 2.253 4.635 1.09 9.515-3.158 13.245-2.717 2.386-4.35 3.007-7.904 3.007-3.661 0-5.129-.595-8.027-3.251-2.61-2.391-3.677-4.307-4.038-7.25-1.244-10.132 10.693-16.908 19.054-10.816m-241.19 19.271c2.043 2.287 2.75 4.121 2.75 7.139 0 3.155-.652 4.713-2.923 6.984-2.338 2.338-3.79 2.92-7.25 2.908-2.38-.008-5.452-.581-6.827-1.274-1.375-.692-3.378-2.887-4.45-4.877l-1.951-3.619 1.823-4.042c2.267-5.026 6.532-7.416 12.078-6.766 2.842.334 4.796 1.361 6.75 3.547m218.438 1.403c2.749 2.999 3.312 4.398 3.312 8.228 0 3.915-.516 5.131-3.4 8.015-2.972 2.972-4.038 3.4-8.465 3.4-4.205 0-5.647-.511-8.49-3.007-4.015-3.525-5.313-8.44-3.599-13.633.682-2.067 2.457-4.33 4.307-5.493 2.377-1.494 4.356-1.874 8.085-1.551 4.122.356 5.486 1.024 8.25 4.041m-26.075 17.927c2.829 2.593 3.692 4.243 4.097 7.835 1.008 8.948-4.683 14.522-13.922 13.635-3.587-.345-5.661-1.217-7.822-3.287-3.181-3.047-4.582-7.876-3.517-12.119.368-1.466 2.172-4.169 4.01-6.007 2.917-2.917 3.99-3.341 8.456-3.341 4.387 0 5.624.467 8.698 3.284m-201.511 5.003c4.3 2.893 6.52 8.798 4.836 12.863-1.792 4.326-5.043 5.85-12.48 5.85h-6.612l-3.048-3.048c-2.666-2.666-2.981-3.554-2.508-7.078.616-4.592 2.873-7.557 7.21-9.471 4.48-1.978 8.801-1.675 12.602.884m-84.602 2.892c-5.306 3.742-26.859 26.083-32.627 33.821-7.745 10.39-15.313 21.664-18.853 28.086-1.641 2.978-2.992 4.849-3.002 4.159-.027-1.889 7.874-23.034 10.741-28.745 4.715-9.391 12.252-20.22 17.582-25.261 2.928-2.77 7.762-6.279 10.742-7.799 4.961-2.53 15.006-6.174 17.417-6.317.55-.033-.35.892-2 2.056m256.387 9.763c4.266 2.177 6.52 5.083 7.539 9.719 1.389 6.327-3.777 13.192-11.127 14.783-2.255.489-4.556.094-7.789-1.336-3.65-1.615-4.978-2.912-6.495-6.341-1.486-3.359-1.716-5.16-1.041-8.151.969-4.299 5.205-9.297 8.414-9.928 4.528-.891 6.834-.615 10.499 1.254m-171.871 13.893c3.621 1.907 6.98 7.104 6.982 10.804.003 3.783-3.179 6.281-10.498 8.239-3.85 1.03-7.785 2.202-8.745 2.603-1.25.522-2.739-.265-5.25-2.776-2.726-2.726-3.505-4.316-3.505-7.155 0-2.007.697-4.997 1.549-6.644 3.32-6.421 12.407-8.789 19.467-5.071m143.984 5.059c3.871 2.771 7 8.048 7 11.804 0 4.191-2.128 8.471-5.55 11.163-1.425 1.121-4.507 2.325-6.85 2.676-3.106.466-5.312.141-8.145-1.199-9.456-4.474-11.35-16.693-3.665-23.648 4.346-3.933 12.314-4.302 17.21-.796m-33.02 18.356c6.133 3.134 8.537 6.755 8.449 12.727-.041 2.787-.804 5.946-1.804 7.473-2.246 3.428-6.971 6.264-11.793 7.078-2.881.487-4.964.103-8.367-1.545-3.161-1.53-5.127-3.36-6.498-6.049-1.082-2.12-1.967-5.245-1.967-6.944 0-7.423 7.366-14.735 15.038-14.927 1.396-.034 4.52.95 6.942 2.187m-102.59 2.14c3.846 1.607 7.394 5.064 8.741 8.518.772 1.978.471 2.899-1.685 5.148-1.444 1.507-4.06 4.923-5.814 7.592l-3.189 4.852-6.123-.006c-4.706-.004-6.632-.466-8.324-1.997-1.21-1.096-2.872-3.29-3.692-4.876-2.126-4.112-.954-10.377 2.792-14.921 4.346-5.273 11.014-6.934 17.294-4.31m65.541 10.59c3.842 1.102 8.541 5.167 10.658 9.22 2.002 3.832 1.742 8.745-.671 12.703-2.77 4.544-5.588 6.72-10.502 8.109-5.692 1.61-11.893-.177-16.102-4.64-7.329-7.772-4.791-19.981 5.087-24.467 4.698-2.133 6.745-2.297 11.53-.925m-34.202 4.984c2.442 1.108 5.082 3.318 6.247 5.228 2.423 3.975 2.687 11.624.544 15.769-3.189 6.168-10.722 9.686-18.305 8.548-3.482-.522-5.557-1.615-8.333-4.391-2.793-2.793-3.869-4.846-4.401-8.396-.578-3.855-.281-5.553 1.657-9.46 1.782-3.593 3.458-5.315 6.824-7.012 2.454-1.237 6.054-2.24 8-2.228s5.441.886 7.767 1.942m533.835 71.129c-6.565 1.041-12.209 2.332-12.541 2.87s-1.844 11.904-3.359 25.258-2.953 25.235-3.196 26.402c-.376 1.805-1.802 2.388-9.491 3.881-4.977.967-9.281 1.525-9.565 1.241s-.048-4.28.525-8.881c2.018-16.192 5.14-46.12 4.842-46.418-.166-.166-7.132.646-15.48 1.805l-15.179 2.107-1.062 6.571c-.584 3.614-2.195 19.846-3.58 36.071s-3.409 39.152-4.498 50.948-1.98 23.318-1.98 25.604v4.155l14.195-3.69c12.649-3.287 14.273-3.953 14.902-6.103.388-1.328 1.463-10.064 2.388-19.414s1.79-17.108 1.922-17.24 4.37-1.063 9.417-2.068l9.176-1.828.003 3.568c.002 1.962-.953 11.801-2.12 21.865s-1.947 18.473-1.731 18.688c.292.293 28.725-6.347 29.488-6.886.077-.054 1.774-15.174 3.77-33.599 4.5-41.536 7.27-65.484 8.582-74.192.554-3.68 1.008-8.067 1.008-9.75 0-3.651.374-3.629-16.436-.965m-99.077 10.658c-8.55 3.038-14.678 7.224-23.079 15.766-6.436 6.543-9.045 10.148-12.745 17.606-2.559 5.157-5.821 13.877-7.248 19.377-1.91 7.359-2.739 13.59-3.139 23.597-.433 10.811-.186 15.217 1.207 21.5 2.995 13.511 8.58 22.263 17.017 26.666 5.304 2.768 15.169 2.927 22 .354 4.657-1.753 17.927-10.07 23.393-14.66l2.394-2.01-3.798-11.723c-2.089-6.448-4.123-12.096-4.521-12.551s-1.746.611-2.998 2.369c-3.14 4.41-10.609 8.958-14.711 8.958-4.18 0-7.694-3.304-9.171-8.622-2.597-9.352-.22-26.1 5.407-38.108 1.863-3.976 5.481-9.468 8.039-12.203 5.804-6.205 11.492-8.587 18.337-7.678l4.899.649.615-3.269c.339-1.798 2.127-7.931 3.973-13.629l3.358-10.361-3.608-1.591c-2.091-.922-7.181-1.723-12.108-1.904-6.253-.231-9.825.157-13.513 1.467m-42.987 4.45c-6.134.943-63.051 8.799-63.755 8.799-.278 0-.805 4.838-1.171 10.75s-.929 12.721-1.252 15.131l-.588 4.381 6.883-.686c3.786-.377 8.256-.919 9.933-1.204l3.051-.52-1.228 14.824c-.675 8.153-2.414 27.558-3.864 43.122s-2.494 29.096-2.322 30.07l.313 1.771 12.5-2.78c6.875-1.529 13.477-3.022 14.67-3.318 1.363-.339 2.374-1.563 2.717-3.29.3-1.513 1.249-11.526 2.109-22.251 2.129-26.55 4.405-52.54 5.086-58.098l.564-4.597 9.927-1.265c8.498-1.083 9.927-1.529 9.927-3.098 0-1.008.484-7.494 1.075-14.412s.929-12.922.75-13.339c-.179-.418-2.575-.414-5.325.01m-84 9.632-12 2.667-1.777 16c-3.073 27.681-10.588 102.969-10.305 103.251.149.149 6.283-1.094 13.631-2.762s13.632-3.473 13.964-4.01 1.86-13.914 3.395-29.728c1.535-15.813 3.845-38.201 5.133-49.751s2.655-24.937 3.038-29.75l.696-8.75-1.887.083c-1.039.046-7.288 1.283-13.888 2.75m-68.863 3.112c-9.619 2.096-26.768 6.852-27.56 7.644-.27.27-1.293 10.711-2.273 23.201-2.349 29.933-7.676 89.941-8.308 93.594l-.5 2.884 15.252-.52c13.626-.464 16.253-.853 24.643-3.651 5.166-1.722 12.141-4.573 15.5-6.337 7.546-3.961 18.46-14.637 21.543-21.074 2.77-5.781 3.734-15.542 2.124-21.493-.641-2.368-2.829-6.153-4.862-8.41s-5.86-5.061-8.504-6.232l-4.808-2.129 4.659-3.346c5.881-4.223 12.766-13.508 15.073-20.328 2.251-6.653 2.306-18.085.108-22.323-2.297-4.43-8.965-10.11-13.403-11.418-2.102-.62-7.421-1.322-11.821-1.56-5.591-.303-10.669.148-16.863 1.498m-110.086 13.423-18.949 4.159-1.706 5.987c-.939 3.292-4.893 17.236-8.787 30.986s-10.87 37.6-15.501 53c-4.63 15.4-8.235 28.189-8.01 28.421.226.231 6.596-.395 14.156-1.39 7.56-.996 14.313-1.823 15.007-1.837 1.342-.029 2.854-4.453 5.777-16.909l1.811-7.715 4.076-.493c2.241-.272 6.152-.675 8.69-.897l4.615-.404.635 7.513c.349 4.132.635 10.145.635 13.362 0 3.594.425 5.849 1.102 5.849.606 0 7.581-1.655 15.5-3.679 10.868-2.777 14.397-4.064 14.394-5.25-.002-.864-1.107-13.721-2.455-28.571s-3.143-35.55-3.988-46-2.049-23.838-2.675-29.75l-1.137-10.75-2.121.104c-1.166.057-10.647 1.976-21.069 4.264m-111.54 9.474c-9.685 1.926-13.558 3.101-13.737 4.17-.138.818-1.139 10.938-2.225 22.488a4976 4976 0 0 1-3.953 40c-2.317 22.258-4.523 52.407-3.881 53.048.376.376 30.521-4.982 48.535-8.627l5.25-1.063v-11.929c0-10.709-.179-11.925-1.75-11.891-.963.02-6.362.606-12 1.301-8.041.991-10.25 1-10.25.043 0-1.673 6.698-62.077 8.522-76.852.813-6.584 1.478-12.321 1.478-12.75s-.562-.744-1.25-.7-7.32 1.287-14.739 2.762m-51.011 3.282a1473 1473 0 0 0-14.609 2.9l-5.11 1.059-.654 6.709c-1.797 18.407-8.61 93.88-9.208 102.01l-.685 9.303 2.735-.687c1.505-.377 13.602-2.572 26.884-4.877l24.147-4.19.281-12.175.281-12.176-3.281.066c-1.805.036-7.233.626-12.064 1.311l-8.783 1.245.552-4.061c.304-2.234 1.907-17.111 3.563-33.061s3.706-34.779 4.555-41.842c.85-7.064 1.399-12.962 1.22-13.109-.178-.146-4.599.562-9.824 1.575m283.928.339c1.557.805 3.109 2.191 3.451 3.082 1.238 3.226.577 8.791-1.431 12.039-1.273 2.06-4.024 4.256-7.25 5.788-2.859 1.357-6.255 2.773-7.547 3.147-1.956.565-2.26.369-1.821-1.17.29-1.017.816-6.124 1.17-11.349s.866-10.287 1.139-11.25c.378-1.333 1.565-1.75 4.978-1.75 2.465 0 5.755.658 7.311 1.463M962 1464.698c-6.325 1.387-11.598 2.608-11.717 2.713-.498.436-9.674 91.748-10.904 108.506-.578 7.874-.461 9.33.715 8.884.773-.293 5.681-1.32 10.906-2.283s10.85-2.064 12.5-2.446l3-.695 1.261-13.438c1.005-10.712 8.741-83.677 10.622-100.189l.427-3.75-2.655.087c-1.46.049-7.83 1.223-14.155 2.611m-25 .453c-3.025.492-18.234 2.63-33.797 4.752-15.564 2.122-28.496 4.057-28.739 4.299-.242.243-.739 7.014-1.104 15.048l-.664 14.606 3.902-.821c2.146-.451 6.264-1.109 9.152-1.462l5.25-.642-.011 3.785c-.006 2.081-.654 9.859-1.441 17.284-4.58 43.221-6.711 66.17-6.193 66.688.323.323 7.123-.712 15.111-2.3l14.523-2.888.467-3c.257-1.65 1.149-11.55 1.981-22 3.772-47.335 4.923-60.049 5.496-60.724.338-.398 4.953-1.272 10.254-1.941l9.64-1.218.574-2.871c.728-3.639 2.041-27.79 1.501-27.618-.221.071-2.877.531-5.902 1.023m-97.824 5.919c-9.78 1.925-25.025 11.211-31.496 19.187-1.894 2.333-4.702 6.718-6.239 9.743-2.245 4.418-2.883 7.219-3.24 14.241l-.445 8.74 2.683 5.484c1.476 3.016 4.418 6.968 6.538 8.783s7.708 5.462 12.417 8.106c4.71 2.643 9.698 6.155 11.085 7.803 1.735 2.063 2.521 4.191 2.521 6.831 0 3.085-.625 4.36-3.198 6.525l-3.197 2.69-6.683-.377c-5.337-.302-7.692-1.006-11.7-3.497l-5.019-3.12-4.534 9.646c-7.069 15.039-6.952 14.509-3.849 17.415 1.474 1.381 4.705 3.54 7.18 4.799 3.352 1.705 6.753 2.403 13.332 2.736 6.441.326 10.577-.025 15.279-1.298 11.93-3.229 23.472-12.785 28.848-23.886 1.365-2.816 3.007-8.363 3.65-12.326.904-5.572.893-8.63-.049-13.5-1.344-6.949-4.384-12.872-8.721-16.993-1.562-1.484-6.89-4.884-11.84-7.555-6.72-3.627-9.419-5.685-10.658-8.125-1.241-2.442-1.432-4.061-.759-6.408.496-1.728 1.754-3.995 2.797-5.038 1.081-1.08 3.9-2.122 6.551-2.421 3.912-.441 5.046-.156 7.112 1.785 1.352 1.27 2.458 2.905 2.458 3.634s.337 1.335.75 1.347c.413.011 4.189-1.443 8.393-3.231l7.642-3.252 1.108-5.019c.609-2.76 1.397-7.181 1.75-9.823l.644-4.805-3.366-3.473c-5.494-5.668-15.913-7.676-27.745-5.348m332.692 38.041.132 10.61-5.191.615c-2.855.338-5.377.429-5.605.202-.227-.228 1.659-9.41 4.191-20.404s4.683-21.036 4.778-22.312c.279-3.754 1.552 19.733 1.695 31.289m-462.776-26.01c-14.525 2.135-26.517 3.998-26.65 4.141-.47.504-3.482 36.6-4.944 59.258-.817 12.65-1.928 28.625-2.469 35.5s-.994 14.793-1.006 17.596l-.023 5.095 7.25-1.373c3.987-.755 16.444-2.928 27.681-4.829s20.732-3.944 21.101-4.541c.74-1.197 2.174-23.075 1.553-23.696-.213-.214-6.594.531-14.179 1.654-7.585 1.124-13.906 1.927-14.047 1.786s.014-4.442.345-9.558c.539-8.323.83-9.386 2.762-10.121 1.188-.452 6.525-1.371 11.859-2.042 8.581-1.08 9.752-1.466 10.153-3.346.25-1.169.582-6.34.738-11.492l.284-9.366-5.5.577c-3.025.317-8.15.889-11.39 1.27l-5.889.694.736-10.404c.405-5.722.905-10.678 1.111-11.012s6.47-1.402 13.92-2.372 13.718-2.047 13.929-2.392.711-6.141 1.112-12.878c.601-10.118.488-12.231-.651-12.141-.758.06-13.262 1.856-27.786 3.992m-73.592 4.557c-1.1.234-7.513 1.6-14.25 3.037s-12.25 2.987-12.25 3.447-1.105 14.003-2.456 30.097c-3.757 44.766-6.808 85.832-6.405 86.217.382.366 15.486-2.693 22.525-4.562l4.164-1.106.616-5.644c.338-3.104 1.033-10.988 1.544-17.519.51-6.531 1.059-11.967 1.22-12.08s2.792-.745 5.848-1.404 8.408-2.546 11.893-4.195c8.186-3.871 17.71-13.463 21.928-22.085 5.509-11.26 6.592-23.893 3.036-35.408-1.686-5.459-3.098-7.769-7.345-12.016-3.346-3.346-6.678-5.652-9.163-6.342-3.76-1.044-16.775-1.316-20.905-.437m-75 3.686c-8.105 2.039-15.241 6.59-22.468 14.329-7.838 8.392-13.669 18.902-17.382 31.327-3.604 12.059-5.029 23.637-4.36 35.426.938 16.523 6.989 31.769 15.015 37.835 1.757 1.328 5.331 3.223 7.942 4.212 3.556 1.346 6.44 1.667 11.5 1.279 3.714-.284 9.453-1.533 12.753-2.774 4.799-1.806 7.609-3.881 14.041-10.368 6.594-6.65 8.906-9.876 12.842-17.918 3.143-6.422 5.525-13.155 6.9-19.5 1.636-7.557 2.101-13.217 2.11-25.692.009-12.285-.401-17.495-1.767-22.44-.979-3.542-2.664-8.175-3.746-10.295-2.916-5.717-8.848-11.852-13.38-13.84-5.509-2.417-14.008-3.089-20-1.581m-57.495 5.835c-5.772 1.088-10.558 2.055-10.634 2.149-.131.163-2.707 33.129-4.189 53.604l-.682 9.432-9.453-29.249c-5.2-16.086-9.704-29.403-10.01-29.592-.58-.359-23.305 3.145-26.186 4.037-1.268.393-1.793 2.291-2.271 8.225-.642 7.962-7.58 105.701-7.58 106.783 0 .646 3.311.219 17.119-2.211l8.619-1.517.655-8.17c.361-4.493 1.315-17.577 2.12-29.075s1.694-21.135 1.975-21.417c.282-.281.512.306.512 1.305 0 1.613 13.538 46.543 15.881 52.705l.924 2.429 12.847-2.525c7.067-1.388 12.991-2.607 13.166-2.71.702-.409 2.232-15.214 4.174-40.382a9643 9643 0 0 1 4.006-50c1.08-12.925 1.972-24.062 1.982-24.75a1.118 1.118 0 0 0-1.23-1.15c-.687.055-5.973.991-11.745 2.079m788.884 12.381c4.174 3.512 4.928 8.13 2.231 13.657-1.15 2.356-3.56 5.276-5.355 6.49s-5.74 2.848-8.765 3.632-5.609 1.332-5.742 1.218c-.132-.114.276-6.361.908-13.882l1.149-13.675h6.266c5.264 0 6.752.409 9.308 2.56m-649.659 2.406c1.375 1.081 3.07 3.344 3.767 5.027 1.674 4.041.84 15.463-1.46 20.015-2.25 4.451-6.244 8.756-9.888 10.659l-2.851 1.489.558-3.828c.307-2.105 1.091-10.916 1.742-19.578l1.183-15.75h2.225c1.223 0 3.349.885 4.724 1.966m-75.481 12.571c1.206.845 2.747 3.432 3.423 5.75.689 2.361 1.188 9.267 1.135 15.713-.064 7.919-.744 14.227-2.183 20.256-1.149 4.815-2.985 10.51-4.079 12.655s-3.187 4.842-4.652 5.994c-3.363 2.645-8.755 2.733-11.304.184-2.974-2.974-4.434-12.198-3.734-23.589.696-11.332 3.527-22.676 7.466-29.913 2.605-4.786 7.111-8.576 10.206-8.583.841-.002 2.515.687 3.722 1.533m179.673 41.881c-4.188 1.824-9.021 7.933-10.303 13.023-1.407 5.587.132 11.01 4.309 15.187l3.221 3.221-2.662 7.826c-1.464 4.304-3.41 9.265-4.324 11.025-.915 1.761-1.664 3.336-1.665 3.5s3.4.151 7.558-.031l7.561-.331 4.602-7.169c2.531-3.943 6.38-10.871 8.555-15.395 2.904-6.045 4.091-9.948 4.474-14.719.608-7.583-.669-11.469-4.954-15.075-2.327-1.958-4.037-2.472-8.121-2.441-2.845.022-6.558.642-8.251 1.379m590.078 10.658c-78.374 1.467-155.202 5.266-232 11.471-48.898 3.95-139.336 12.68-144.927 13.989-1.14.267-20.073 2.739-42.073 5.493-43.058 5.39-70.742 9.46-112.5 16.539-66.917 11.344-124.76 23.777-136 29.233-1.925.935-3.5 2.374-3.5 3.199 0 1.252 1.898 1.483 11.5 1.395 6.325-.057 19.15-1.063 28.5-2.235 41.239-5.168 117.255-14.352 142-17.155 14.85-1.683 34.2-3.937 43-5.01s28.15-3.308 43-4.966 32.625-3.682 39.5-4.499 26-2.857 42.5-4.534c16.5-1.678 51.6-5.275 78-7.994 46.819-4.822 117.292-11.333 156.5-14.459 43.784-3.491 152.917-12.688 173-14.578 11.825-1.114 23.228-2.349 25.34-2.745s3.809-1.17 3.771-1.72-3.117-1.282-6.84-1.626c-8.919-.824-58.924-.731-108.771.202"/></svg>