<svg xmlns="http://www.w3.org/2000/svg" viewBox="0 0 2048 2048"><path fill-rule="evenodd" d="m952.022 134.781-2.2 1.782 1.582 59.968c.87 32.983 1.847 71.894 2.17 86.469s1.058 27.743 1.633 29.263c.576 1.519 2.002 2.985 3.17 3.258 1.167.273 21.763-.313 45.767-1.302 32.736-1.348 44.044-2.131 45.25-3.131 1.328-1.102 1.606-3.64 1.606-14.645 0-7.322-.416-14.406-.923-15.742-.508-1.335-1.672-2.715-2.586-3.066s-12.961-.19-26.772.357c-16.379.648-25.32.653-25.715.015-.333-.539-1.189-22.023-1.902-47.743-2.507-90.373-2.661-94.028-4.044-95.694-1.089-1.312-4.055-1.57-18.07-1.57-14.59 0-17.052.231-18.966 1.781m139.668.41c-1.546 1.17-2.895 10.011-9.208 60.34-4.068 32.433-8.991 70.339-10.94 84.235S1068 306.305 1068 307.861s.805 3.558 1.789 4.448c1.285 1.163 8.271 2.467 24.75 4.622 38.718 5.062 66.675 8.136 68.561 7.537.989-.314 2.039-1.335 2.334-2.269.78-2.472 2.528-19.906 2.549-25.414.012-3.486-.439-4.953-1.733-5.631-.963-.504-13-2.392-26.75-4.195s-25.365-3.594-25.811-3.979c-.445-.386.167-9.426 1.361-20.091 1.195-10.664 2.261-19.491 2.37-19.615s9.996.949 21.969 2.384c18.544 2.223 21.976 2.405 23.156 1.226.837-.837 2.029-6.678 3.016-14.774 1.83-15.006 1.377-17.581-3.247-18.454-1.548-.293-11.251-1.56-21.564-2.816l-18.75-2.283.036-3.029c.053-4.381 3.625-31.171 4.303-32.268.339-.548 11.307.446 26.817 2.429l26.243 3.357 1.699-1.773c1.223-1.276 2.15-5.601 3.307-15.425.884-7.508 1.333-14.367.998-15.241-.336-.874-2.251-2.04-4.256-2.592-3.366-.925-64.604-8.208-80.647-9.591-5.151-.444-7.478-.241-8.81.767M860 146.488c-.825.208-14.274 2.768-29.886 5.689-24.771 4.633-28.567 5.585-29.806 7.475-1.257 1.919-1.02 4.206 2.071 20.007 1.919 9.813 6.696 35.166 10.614 56.341s9.616 51.55 12.661 67.5c4.766 24.969 5.855 29.293 7.834 31.11l2.298 2.11 9.357-1.764c5.146-.97 12.626-2.299 16.621-2.953 5.051-.826 7.552-1.724 8.206-2.947.653-1.22-.826-11.503-4.84-33.657l-5.781-31.899 2.575-.694c1.417-.381 7.976-1.839 14.576-3.239 6.931-1.47 14.657-3.852 18.289-5.638 3.459-1.701 8.757-5.502 11.772-8.446 6.245-6.096 10.83-14.875 12.548-24.02 1.932-10.283-.259-29.039-4.978-42.635-4.517-13.009-15.088-24.57-26.817-29.329-5.434-2.204-8.737-2.827-16.314-3.077-5.225-.173-10.175-.143-11 .066m364.26 7.762c-1.705 2.164-8.379 27.276-7.711 29.016.703 1.833 5.825 3.927 21.161 8.651 5.615 1.729 10.394 3.468 10.62 3.864.423.743-2.939 12.797-25.217 90.394-7.212 25.121-13.113 46.553-13.113 47.627s.563 2.413 1.25 2.975c1.216.994 30.753 10.223 32.719 10.223.542 0 1.644-1.012 2.449-2.25 1.561-2.399 14.187-43.938 27.584-90.75 8.61-30.086 13.947-48.007 14.291-47.99.114.006 7.182 1.992 15.707 4.414 13.182 3.746 15.799 4.215 17.5 3.135 1.418-.9 3.153-5.252 5.965-14.962 4.045-13.969 4.093-15.799.468-17.725-.788-.419-13.808-4.203-28.933-8.41a95397 95397 0 0 1-48.677-13.555c-11.647-3.249-22.054-5.907-23.127-5.907s-2.394.563-2.936 1.25M732.5 177.641c-21.927 9.353-33.208 14.667-34.578 16.287l-1.577 1.868 8.267 49.329c4.546 27.132 8.102 49.495 7.901 49.695s-1.137-1.138-2.08-2.977c-2.91-5.675-54.459-77.434-56.837-79.12-.603-.428-2.253-.567-3.666-.311-1.414.256-11.089 4.221-21.5 8.811-16.73 7.376-18.964 8.634-19.224 10.83-.162 1.366 2.236 8.551 5.329 15.965 9.735 23.341 15.241 37.234 33.017 83.322 9.512 24.662 17.56 45.105 17.883 45.429.9.9 32.769 1.577 37.913.806l4.531-.679-3.562-8.198C698.326 354.909 680 311.069 680 310.524c0-.281-2.732-7.083-6.071-15.114s-5.85-14.822-5.581-15.091 1.007.476 1.639 1.657 4.412 6.732 8.4 12.335c3.987 5.604 17.492 24.776 30.009 42.604 12.518 17.828 23.512 33.451 24.432 34.718s2.392 2.318 3.271 2.336c1.978.038 14.752-6.569 17.183-8.888l1.781-1.7-3.53-18.44c-1.942-10.143-5.096-27.441-7.008-38.441-1.913-11-4.837-27.2-6.497-36s-3.01-16.675-2.997-17.5 1.386 1.65 3.051 5.5c10.349 23.924 27.982 66.093 32.616 78 2.997 7.7 6.102 15.012 6.899 16.25s2.396 2.25 3.554 2.25c3.007 0 31.623-13.967 32.315-15.773.318-.829-3.539-11.006-8.572-22.617A7606 7606 0 0 1 789.993 282c-3.163-7.425-10.122-23.4-15.465-35.5s-13.237-30.1-17.543-40c-11.652-26.789-11.995-27.51-14.069-29.584-1.054-1.054-2.478-1.898-3.166-1.875s-3.95 1.193-7.25 2.6m137.263 7.028c1.506 1.122 3.565 3.453 4.576 5.181 2.806 4.791 4.701 12.891 4.834 20.665.227 13.193-3.808 16.695-22.923 19.891-1.788.299-3.25.158-3.25-.313 0-.472-1.823-10.652-4.051-22.624s-3.691-22.11-3.25-22.529c1.53-1.457 9.832-2.828 15.564-2.57 3.929.177 6.635.909 8.5 2.299m503.928 18.12c-.947 1.047-12.246 23.46-25.109 49.807s-29.753 60.671-37.534 76.275-14.405 29.666-14.722 31.248c-.349 1.747-.036 3.536.799 4.558 1.322 1.617 11.041 6.447 41.625 20.688 7.838 3.649 20.543 9.58 28.234 13.178 11.801 5.522 14.311 6.37 16.072 5.427 1.204-.644 4.665-6.378 8.176-13.544 5.174-10.56 5.93-12.775 5.031-14.747-.768-1.688-7.462-5.477-24.53-13.886-12.911-6.36-23.748-12.007-24.082-12.549-.685-1.107 15.388-35.244 16.594-35.244.425 0 9.207 4.071 19.514 9.046 11.967 5.776 19.481 8.86 20.787 8.532 1.449-.364 3.897-4.31 8.385-13.515l6.339-13.002-1.515-2.28c-.895-1.347-8.94-5.959-19.635-11.259-11.859-5.876-18.102-9.504-18.067-10.5.029-.837 3.518-8.383 7.754-16.768l7.701-15.246 17.496 8.486c9.623 4.667 20.617 10.036 24.431 11.931 5.366 2.667 7.36 3.22 8.808 2.445 2.321-1.242 13.946-25.563 13.547-28.344-.227-1.586-8.936-6.312-40.155-21.786-21.926-10.868-40.845-20.006-42.044-20.306-1.404-.353-2.791.129-3.9 1.355m126.365 68.651c-1.261 1.342-9.327 12.354-17.924 24.471-27.934 39.369-53.109 74.473-71.361 99.504-6.45 8.847-11.738 17.019-11.75 18.161-.011 1.141.992 3 2.229 4.13 1.237 1.131 9.9 7.355 19.25 13.832s22.85 15.847 30 20.822 15.494 10.776 18.543 12.891c3.575 2.48 6.144 3.615 7.234 3.196.93-.357 3.821-3.641 6.424-7.298s6.433-8.899 8.512-11.649c2.078-2.75 3.78-5.762 3.783-6.694.002-.931-1.683-3.069-3.746-4.75s-11.175-8.266-20.25-14.632c-9.075-6.367-17.246-12.249-18.157-13.071l-1.658-1.495 10.586-15.179c5.822-8.349 23.947-33.887 40.278-56.753 16.33-22.865 30.239-42.595 30.907-43.844 1.048-1.958.894-2.615-1.12-4.771-2.996-3.207-26.519-19.311-28.208-19.311-.704 0-2.311 1.098-3.572 2.44m-966.604 4.956c-11.871 2.884-26.477 12.087-34.803 21.928-10.149 11.998-13.66 20.648-13.628 33.583.016 6.466.613 10.271 2.413 15.369 2.571 7.285 3.272 8.478 20.113 34.224 32.07 49.027 37.096 56.294 42.875 62.004 9.336 9.221 19.75 13.462 33.118 13.484 3.872.007 9.722-.67 13-1.503s9.214-3.104 13.192-5.046c4.966-2.424 9.889-6.046 15.715-11.561 4.666-4.417 9.429-9.56 10.584-11.429l2.101-3.398-5.114-6.276c-8.993-11.035-15.318-26.443-17.515-42.671l-.731-5.397 2.364.676c5.052 1.444 21.149 4.687 21.888 4.41.801-.301-24.13-37.057-45.644-67.293-6.653-9.35-14.14-18.881-16.639-21.179s-6.373-5.113-8.611-6.255c-9.475-4.833-23.694-6.338-34.678-3.67m16.597 41.15c4.683 4.487 52.596 76.538 53.99 81.19 1.744 5.822.509 10.758-3.855 15.407-2.544 2.711-4.827 4.107-7.378 4.513-5.459.868-10.228-.357-13.355-3.43-2.265-2.226-37.32-54.448-50.382-75.054-5.967-9.412-5.029-19.36 2.277-24.176 2.537-1.673 4.373-2.013 9.387-1.741 5.294.287 6.697.782 9.316 3.291M1094 333.173c-11.279 3.416-25.272 6.348-37 7.755-4.675.56-18.424 1.704-30.552 2.542s-26.304 2.235-31.5 3.106c-11.798 1.977-31.396 8.392-39.881 13.053-14.704 8.078-30.403 22.172-43.067 38.664l-6.5 8.465-10-.051c-7.991-.041-11.85.487-19.206 2.626-10.599 3.082-23.209 8.602-28 12.256l-3.303 2.52-8.746-8.842c-4.81-4.863-11.42-10.595-14.689-12.737s-9.12-5.126-13-6.63c-15.873-6.154-41.355-8.494-72.506-6.659-10.752.633-30.575 1.154-44.05 1.158-17.269.004-28.779-.514-39-1.755-7.975-.968-16.288-2.159-18.473-2.646s-4.109-.749-4.275-.583 1.939 4.754 4.678 10.194c9.826 19.513 20.445 28.903 41.755 36.924 3.726 1.403 7.855 3.544 9.175 4.759 1.32 1.214 7.812 8.958 14.428 17.208 6.615 8.25 16.134 19.05 21.152 24s12.61 11.343 16.871 14.207c4.261 2.863 7.739 5.457 7.729 5.764-.01.306-5.399 4.628-11.975 9.603-12.793 9.677-23.968 19.727-36.128 32.489-9.851 10.338-16.053 18.379-24.883 32.262-8.245 12.961-24.162 44.655-29.916 59.567-8.463 21.932-12.005 43.884-10.183 63.115.547 5.769 2.147 16.228 3.556 23.241 3.345 16.65 10.542 43.241 16.078 59.402 3.401 9.93 4.411 14.334 4.411 19.233 0 8.669 2.504 22.343 6.007 32.798 1.602 4.78 5.364 13.557 8.362 19.505 11.477 22.773 25.644 42.375 41.635 57.607 5.893 5.614 11.054 11.332 11.469 12.707s1.923 4.681 3.352 7.346c3.47 6.473 11.513 12.232 19.34 13.849l5.862 1.211 5.186 7.047c2.852 3.876 8.402 10.422 12.333 14.547l7.148 7.5 2.767 21.5c2.018 15.676 2.908 27.762 3.285 44.618.285 12.715.204 25.629-.18 28.697l-.697 5.58-5.775-.028c-3.176-.015-7.534.707-9.684 1.604-4.909 2.047-9.982 6.859-12.609 11.957-1.112 2.16-2.263 6.571-2.556 9.803l-.532 5.875-3.607 1.855c-4.536 2.334-8.285 6.34-10.996 11.749-2.792 5.57-2.916 16.287-.249 21.517l1.861 3.651-8.611 6.425c-10.437 7.788-23.339 16.236-32.111 21.028-3.575 1.953-12.8 6.1-20.5 9.215-21.763 8.805-49.898 21.153-62 27.212-6.05 3.029-15.275 8.076-20.5 11.217s-14.225 7.859-20 10.485c-13.145 5.977-28.971 15.164-39.241 22.778-10.043 7.447-20.877 18.187-28.007 27.762-13.667 18.357-25.552 43.58-33.759 71.646-4.88 16.688-8.153 32.772-11.367 55.854-6.704 48.147-7.608 88.185-3.64 161.25l2.457 45.25h11.864l-.612-16.25c-.336-8.937-1.352-30.425-2.256-47.75-1.176-22.532-1.488-40.468-1.094-63 .518-29.636 1.013-37.953 3.716-62.5 2.263-20.541 7.366-48.487 11.962-65.5 6.681-24.737 16.682-47.82 28.146-64.97 3.544-5.3 10.734-13.906 16.331-19.545 14.91-15.022 31.272-25.399 61.386-38.934 5.57-2.503 10.552-4.551 11.071-4.551s3.569 3.713 6.776 8.25c16.678 23.595 30.657 49.998 43.285 81.75 9.59 24.115 20.479 61.502 26.418 90.704 3.721 18.297 6.45 37.645 7.607 53.924.754 10.627.742 18.58-.044 27.871-.605 7.151-1.939 16.859-2.966 21.574-1.795 8.242-8.25 26.528-9.978 28.267-.459.461-1.177-6.739-1.596-16-.911-20.145.225-31.206 4.61-44.898 1.696-5.293 2.884-9.823 2.64-10.066-.787-.787-6.644 6.561-9.094 11.411-3.14 6.213-7.272 19.455-8.542 27.372-.559 3.487-1.504 16.691-2.1 29.341s-1.954 34.25-3.017 48c-1.064 13.75-1.939 25.338-1.945 25.75s138.097.75 306.895.75h306.906l3.167-4.75c3.97-5.954 10.144-18.78 14.62-30.369 5.678-14.702 8.468-27.748 9.111-42.608.657-15.199-.503-24.331-4.646-36.575-4.43-13.092-12.419-30.886-22.086-49.198-19.089-36.159-26.997-52.813-28.49-60-1.735-8.357-1.831-17.056-.403-36.5.585-7.975.762-18.693.391-23.818-.37-5.125-.883-9.108-1.141-8.85-.257.257-2.047 6.461-3.978 13.787-1.93 7.325-3.795 13.781-4.143 14.345-.349.564-.931-.323-1.293-1.969a9313 9313 0 0 1-5.258-24.604c-6.492-30.505-15.873-70.438-19.591-83.391-1.736-6.05-5.663-18.2-8.726-27-5.649-16.232-17.97-46.315-21.4-52.25l-1.879-3.25h3.217c4.794 0 26.112 3.65 34.991 5.991 9.875 2.603 21.429 7.186 29.511 11.706 9 5.033 22.88 16.018 29.621 23.442 21.911 24.131 36.062 61.981 46.516 124.417 1.652 9.869 4.606 29.869 6.564 44.444s4.494 31.9 5.636 38.5c3.911 22.606 11.017 51.39 28.019 113.5l6.981 25.5-2.157 4.5c-1.187 2.475-9.511 17.326-18.498 33.002s-16.642 29.289-17.011 30.25c-.593 1.546.032 1.748 5.399 1.748h6.07l6.369-10.75c10.834-18.288 25.14-44.144 31.952-57.75 8.166-16.31 20.123-44.141 26.008-60.538 9.086-25.315 16.468-52.121 21.332-77.462 2.028-10.57 2.714-17.346 2.8-27.657l.113-13.657-4.772-8.843c-10.007-18.542-14.886-29.502-17.365-39.006l-2.567-9.837-1.022-32.5c-.561-17.875-.948-35.101-.858-38.28.091-3.179 1.485-12.164 3.1-19.965s3.443-18.701 4.063-24.22 2.247-16.335 3.617-24.035c1.369-7.7 4.031-22.775 5.915-33.5 2.273-12.941 4.041-20.341 5.256-22 4.042-5.52 11.34-2.547 16.351 6.66 1.467 2.695 3.666 8.487 4.886 12.87 2.898 10.409 3.121 25.31.512 34.117-2.519 8.5-6.299 12.765-13.705 15.466-3.478 1.268-5.636 2.562-5.124 3.074.486.486 3.008.98 5.605 1.098l4.722.215-.732 3.5c-1.891 9.036.619 13 8.229 13H1446v3.67c0 3.161-.904 4.607-6.518 10.422-3.585 3.713-7.26 8.474-8.166 10.58-.958 2.226-1.655 6.548-1.665 10.328-.023 7.917 2.22 13.384 9.542 23.261l5.192 7.003-1.846 3.118c-5.419 9.15-6.612 11.74-8.137 17.654-.917 3.555-1.713 10.064-1.77 14.464-.084 6.482.338 8.901 2.22 12.746 1.277 2.61 3.521 5.692 4.985 6.848 2.08 1.641 3.612 1.995 7 1.617 4.946-.553 4.911-.95.765 8.789-3.337 7.839-3.342 11.851-.018 15.175 2.277 2.277 3.137 2.512 7.25 1.98 2.566-.332 5.631-.88 6.811-1.218l2.144-.615 1.327 7.339c1.942 10.745 1.7 27.72-.536 37.589-1.028 4.537-2.306 8.25-2.84 8.25-1.987 0-7.572-7.321-11.837-15.517-2.422-4.652-4.776-8.465-5.232-8.471-.966-.014-.184 4.4 2.035 11.488 2.132 6.81 3.469 9.276 8.437 15.562l4.263 5.393.051 8.551c.045 7.578.422 9.306 3.314 15.181 5.789 11.759 18.727 21.472 33.689 25.291 3.278.837 8.391 1.522 11.361 1.522h5.402l-.668 3.75c-.367 2.063-3.135 16.35-6.151 31.75-5.33 27.207-19.043 103.691-20.126 112.25l-.538 4.25h5.563c6.017 0 6.019-.001 7.162-7 .315-1.925 4.173-24.2 8.574-49.5 8.936-51.373 12.994-73.453 16.084-87.525l2.091-9.525 5.76-3.19c12.713-7.043 21.118-19.811 23.151-35.168.613-4.625.895-12.05.629-16.5l-.485-8.092 6.679-11c3.673-6.05 9.972-16.85 13.997-24s11.295-20.009 16.154-28.577c4.859-8.567 10.531-19.142 12.605-23.5 3.036-6.38 3.843-9.335 4.142-15.174.31-6.022-.104-8.593-2.442-15.172l-2.814-7.921 2.326-9.525c2.516-10.3 2.339-14.251-.926-20.651-1.014-1.988-2.573-4.219-3.464-4.958-.89-.739-2.603-2.726-3.805-4.414-1.934-2.716-2.15-4.125-1.877-12.227.258-7.676-.049-9.987-1.9-14.29-2.374-5.518-5.843-8.719-15.115-13.949-3.12-1.759-7.037-4.753-8.705-6.653-1.7-1.936-3.941-6.393-5.097-10.138-1.135-3.675-3.894-15.885-6.131-27.133s-4.866-22.314-5.842-24.592c-2.454-5.724-6.556-10.331-11.398-12.801-3.078-1.571-5.958-2.088-11.624-2.087-4.624.001-10.576.837-15.415 2.165-4.336 1.19-8.053 1.995-8.259 1.788-.207-.207-1.777-7.664-3.488-16.572l-3.111-16.195 1.779-1.966c.979-1.082 3.476-2.423 5.549-2.981 2.073-.559 11.114-2.146 20.091-3.528 8.977-1.381 16.885-2.709 17.572-2.949.688-.241 1.25-1.985 1.25-3.876 0-3.754-2.481-21.243-9.45-66.624-22.622-147.298-41.473-262.253-47.032-286.811-4.236-18.708-10.242-39.85-15.68-55.189-8.665-24.441-26.4-56.561-40.861-74-7.316-8.823-22.212-23.129-29.246-28.087l-5.769-4.067-1.416 3.389c-2.313 5.537-6.345 22.52-8.995 37.887-5.814 33.717-8.023 67.158-7.258 109.878.603 33.663 2.249 56.642 6.806 95 3.054 25.707 12.214 91.517 17.886 128.5 1.687 11 5.553 36.875 8.591 57.5s8.649 56.175 12.47 79 6.948 41.86 6.95 42.301c.002.44-1.554-.388-3.459-1.84-1.904-1.453-5.269-2.884-7.478-3.18-3.53-.473-4.359-.171-6.851 2.496-1.559 1.67-3.36 4.786-4.001 6.925s-2.109 12.195-3.264 22.344-3.394 25.05-4.977 33.112-3.373 19.509-3.976 25.437c-1.19 11.699-2.503 18.508-6.538 33.905l-2.621 10 .823 11c.452 6.05.828 22.925.836 37.5.011 22.018.326 27.938 1.863 35 2.675 12.293 6.876 22.477 14.327 34.726 3.604 5.926 7.175 12.518 7.936 14.65s1.384 7.504 1.384 11.939c0 8.52-2.864 28.471-6.128 42.685-2.885 12.564-10.431 37.761-15.572 52-9.09 25.172-22.682 55.5-24.398 54.439-.496-.306-.902-1.228-.902-2.048s-2.738-11.482-6.083-23.691c-9.377-34.219-19.728-77.217-22.379-92.966-1.318-7.829-3.795-25.484-5.505-39.234-3.745-30.102-7.37-53.98-10.552-69.5-4.068-19.843-8.426-37.117-12.109-48-4.882-14.426-14.916-35.02-22.505-46.189-8.508-12.522-21.965-25.827-34.592-34.202-18.505-12.274-39.201-19.771-65.208-23.624-7.462-1.106-30.667-3.356-51.567-5.001-48.929-3.85-58.8-5.094-80.718-10.165l-9.718-2.249-.57-3.035c-1.566-8.322-3.069-11.907-6.749-16.087-2.194-2.492-5.791-5.451-7.994-6.575-4.963-2.532-13.51-3.501-17.771-2.016l-3.207 1.118.6-2.238c.33-1.23.616-5.162.635-8.737l.035-6.5 5.606-4c6.618-4.722 14.927-13.631 20.518-22 2.205-3.3 9.406-17.025 16.002-30.5s19.802-40.25 29.347-59.5 19.809-40.878 22.808-48.062c7.576-18.146 13.364-35.709 15.158-45.994 1.776-10.183 1.989-31.475.419-41.752-.604-3.956-2.451-13.042-4.104-20.192s-3.597-15.676-4.319-18.947l-1.312-5.947 4.362-3.839c2.399-2.112 5.766-5.613 7.482-7.78l3.12-3.939-3.533 1.476c-3.617 1.511-7.806 1.934-8.848.892-.814-.815 2.352-9.681 6.222-17.42 5.476-10.952 13.523-22.027 23.611-32.496 5.3-5.5 11.361-12.257 13.469-15.014 4.911-6.424 9.626-16.51 10.928-23.377.562-2.96 1.021-8.409 1.021-12.109 0-19.616-6.996-33.919-25.687-52.514-5.839-5.81-10.478-11.297-10.87-12.858-1.051-4.187.14-9.322 4.487-19.343 2.188-5.047 4.958-12.397 6.153-16.334 1.811-5.96 2.09-8.771 1.668-16.804-.363-6.921-1.367-12.331-3.552-19.147-1.675-5.225-4.209-13.942-5.631-19.37-4.312-16.468-13.458-33.715-24.16-45.564-2.699-2.988-8.508-8.12-12.908-11.403-8.863-6.614-26.738-15.555-36-18.007-8.548-2.263-23.007-4.656-28.131-4.656-2.403 0-4.369-.284-4.369-.632 0-.347 4.388-5.207 9.75-10.8s14.696-17.121 20.742-25.618c6.045-8.498 15.062-20.85 20.037-27.45 11.334-15.035 15.965-22.089 18.878-28.757 2.587-5.92 3.881-11.473 2.81-12.056-.394-.215-4.992.904-10.217 2.486m504.595 8.077c-.797 1.238-3.236 6.754-5.419 12.26-5.43 13.697-22.443 54.291-31.543 75.267l-7.495 17.276-6.319 6.79c-3.475 3.734-14.082 15.043-23.569 25.129-12.053 12.814-17.25 19.034-17.25 20.647 0 1.684 3.434 5.429 12.696 13.845 6.982 6.345 13.539 11.536 14.569 11.536 1.85 0 12.848-11.012 37.304-37.35l11.931-12.849 15-7.28c14.276-6.928 25.68-12.22 69-32.016 10.45-4.775 19.835-9.489 20.855-10.476 1.207-1.167 1.63-2.502 1.211-3.821-.354-1.116-6.47-7.468-13.591-14.118-8.149-7.609-13.737-12.09-15.076-12.09-2.057 0-12.116 5.267-43.149 22.595-8.112 4.53-14.75 8.013-14.75 7.74s6.098-13.121 13.552-28.552 13.416-28.968 13.25-30.083c-.361-2.428-26.013-26.7-28.218-26.7-.846 0-2.191 1.012-2.989 2.25m-514.288 9.832-1.807 3.081-.337-2.218c-.186-1.221.264-2.6 1-3.067 2.55-1.616 2.941-.863 1.144 2.204m-12.932 3.028c1.242 3.553.067 7.576-3.061 10.475-1.776 1.645-3.755 2.405-6.21 2.383-1.982-.017-4.318-.58-5.191-1.25-3.463-2.659-4.973-8.496-3.002-11.608 1.053-1.664 7.06-2.986 12.57-2.768 3.324.132 4.133.589 4.894 2.768m-29.56 6.775c.669 3.236 2.128 7.045 3.244 8.462 3.111 3.956 7.233 6.513 12.795 7.936l5.062 1.296-5.998 7.96c-3.3 4.379-6.822 8.79-7.829 9.803l-1.829 1.843-4.654-3.552c-8.28-6.321-17.691-7.388-26.488-3.005-6.988 3.483-12.561 10.524-14.23 17.98-.982 4.388-.998 6.835-.075 11.236.649 3.094 2.487 7.728 4.084 10.298l2.905 4.673-3.151.575c-1.733.317-7.651 1.043-13.151 1.613s-11.05 1.271-12.334 1.557c-1.942.433-1.62-.16 1.914-3.522 2.337-2.223 3.991-4.3 3.676-4.616-.316-.315-5.228.563-10.915 1.953a6325 6325 0 0 1-21.115 5.109c-5.926 1.421-11.904 3.014-13.286 3.539-1.822.693-2.598.615-2.826-.284-.174-.682-1.016-3.322-1.872-5.868l-1.557-4.629 4.806-4.734 4.806-4.733 6.36 3.131c3.499 1.722 8.644 3.402 11.435 3.732 10.633 1.259 21.761-4.614 26.661-14.07 2.957-5.707 2.906-15.526-.111-21.353l-2.218-4.285 3.788-1.536c10.512-4.263 16.58-7.622 20.807-11.518 4.795-4.42 8.712-10.959 9.924-16.565.379-1.755 1.447-3.39 2.373-3.634.926-.245 5.306-.497 9.734-.561l8.05-.116zm-27.815-2.82c0 .585-.941 3.253-2.092 5.927-2.167 5.038-6.206 8.584-12.99 11.405-5.543 2.305-13.17 2.999-17.557 1.599-4.346-1.388-10.363-6.583-10.357-8.942.002-.894 1.871-2.322 4.398-3.361l4.394-1.807 2.556 2.557c1.407 1.406 3.05 2.557 3.652 2.557s2.438-.694 4.079-1.543c1.92-.993 3.19-2.572 3.561-4.427l.577-2.885 6.139-.945c8.638-1.33 13.64-1.379 13.64-.135m-46.307 18.237 4.192 5.198-2.995 3.101c-2.204 2.283-3.642 2.978-5.45 2.632-5.135-.981-12.386 4.334-12.483 9.152-.026 1.321-1.87 3.524-4.907 5.865-2.676 2.063-5.273 3.75-5.772 3.75-1.612 0-4.278-6.95-4.278-11.152v-4.085l6.3-6.131c5.806-5.651 17.769-13.702 20.177-13.58.563.029 2.91 2.391 5.216 5.25M418 374.091c-2.475.48-7.851 2.524-11.947 4.543-5.459 2.69-9.623 5.832-15.598 11.768-9.13 9.071-14.782 18.203-17.637 28.497-2.438 8.795-2.362 20.129.191 28.396 1.105 3.577 3.77 9.137 5.923 12.355 4.996 7.47 72.038 74.124 78.101 77.65 5.972 3.472 11.817 5.478 19.581 6.718 4.941.79 7.97.681 13.62-.487 3.996-.827 10.641-3.152 14.766-5.167 5.881-2.872 9.572-5.736 17.096-13.264 7.041-7.045 10.445-11.342 12.786-16.145 4.232-8.682 6.092-16.02 6.106-24.1.015-8.557-2.855-17.792-8.009-25.766-2.227-3.446-8.137-10.389-13.131-15.428l-9.081-9.161-13.375 14c-7.357 7.7-13.379 14.286-13.384 14.635-.004.349 3.42 4.399 7.611 9s8.24 9.813 9 11.583 1.371 4.47 1.359 6c-.036 4.582-3.459 10.798-7.228 13.127-4.059 2.509-10.55 2.837-14.55.737-1.485-.78-17.627-16.423-35.871-34.762-21.917-22.03-33.409-34.292-33.873-36.141-.387-1.539-.471-4.852-.188-7.363.392-3.478 1.336-5.387 3.964-8.014 2.43-2.43 4.66-3.612 7.548-3.999 2.255-.303 5.261-.259 6.681.098 1.42.356 6.189 3.827 10.598 7.712l8.017 7.064 6.506-5.711c6.128-5.38 20.583-20.632 21.201-22.369.156-.438-3.981-4.874-9.193-9.856-10.3-9.847-18.173-14.499-27.476-16.236-6.292-1.174-13.777-1.142-20.114.086m570 7.146c0 .763-4.877 3.019-9.087 4.204l-2.413.679 3-2.815c1.792-1.681 4.107-2.812 5.75-2.809 1.513.002 2.75.335 2.75.741m-5.583 16.737c1.706 2.922 1.804 3.941.826 8.603-.61 2.909-1.883 6.47-2.829 7.914s-3.558 3.562-5.805 4.708c-5.507 2.81-12.877 2.81-18.291 0-2.3-1.194-4.433-2.576-4.74-3.073s1.449-2.546 3.902-4.556l4.46-3.655 2.459 1.611c3.559 2.332 8.479 1.545 10.926-1.747 1.675-2.254 1.83-3.144.901-5.182-.968-2.125-.754-2.872 1.577-5.487 1.483-1.664 3.143-2.897 3.688-2.738s1.862 1.78 2.926 3.602m48.904-1.902c3.592.998 11.679 7.204 11.679 8.964 0 .441-2.351 3.375-5.224 6.518l-5.223 5.716-1.362-3.337c-1.62-3.971-3.854-5.858-6.986-5.901-3.352-.047-7.205 4.243-7.205 8.021 0 2.235.907 3.992 3.137 6.075 1.726 1.612 2.963 3.065 2.75 3.23-.213.164-2.135 1.6-4.271 3.191l-3.884 2.893-2.833-3.394c-1.558-1.866-3.345-5.68-3.97-8.476-1.511-6.752-.045-12.071 4.827-17.503 3.398-3.79 9.302-6.919 13.244-7.02.825-.021 3.219.44 5.321 1.023M929.01 400.75c.005.962 1.145 4.189 2.532 7.169l2.523 5.419-3.181 3.282-3.181 3.282-4.031-3.451c-2.218-1.898-4.401-3.451-4.852-3.451s-.82-.4-.82-.89c0-1.438 8.901-13.11 9.998-13.11.551 0 1.006.788 1.012 1.75M670.651 402c2.602 0 3.349.416 3.349 1.865 0 1.026.882 2.987 1.961 4.358l1.961 2.493 6.767-.235 6.768-.235 1.304-3.195c.717-1.758 1.832-3.02 2.478-2.805.646.216 1.869 1.528 2.718 2.917s2.867 4.436 4.486 6.771c2.225 3.211 3.047 5.696 3.372 10.191.296 4.085-.103 7.341-1.275 10.409-.938 2.457-2.006 4.434-2.373 4.394s-1.996-1.669-3.621-3.62c-2.025-2.434-2.883-4.474-2.729-6.494.127-1.66-.647-4.171-1.772-5.75l-1.996-2.804-7.913-.458c-5.874-.34-9.295-1.14-13.275-3.103-6.416-3.166-16.307-10.795-17.933-13.833l-1.166-2.18 7.77.657c4.273.361 9.277.657 11.119.657m82.822.915c.907 2.857-.425 6.938-2.81 8.608-1.159.812-3.543 1.477-5.297 1.477-2.333 0-3.883-.826-5.777-3.077-2.815-3.345-3.265-5.847-1.389-7.723.696-.696 4.029-1.2 7.933-1.2 5.754 0 6.821.278 7.34 1.915m31.2-.21c.832.319 1.15 1.278.794 2.398-1.147 3.616-.565 14.441.975 18.115.857 2.045 1.558 3.895 1.558 4.112 0 .216-2.983.699-6.629 1.073s-8.034 1.442-9.75 2.375l-3.121 1.697 7.5.547c4.125.301 8.002.859 8.615 1.238.613.38 1.363 2.542 1.667 4.805.303 2.262 1.693 6.42 3.088 9.238 1.395 2.819 2.431 5.229 2.303 5.357s-4.178-1.093-9.001-2.714-9.275-2.946-9.894-2.946c-1.596 0 3.058 4.815 7.224 7.475 1.925 1.23 6.2 3.179 9.5 4.332 11.409 3.985 28.708 5.41 46.736 3.851l9.739-.843-1.489 4.218c-.818 2.32-1.488 5.287-1.488 6.593s-.221 2.374-.491 2.374c-.271 0-2.498-1.531-4.95-3.403-6.074-4.636-13.515-6.999-19.726-6.264-9.206 1.091-18.272 7.75-22.403 16.455-.878 1.852-2.077 6.263-2.664 9.804l-1.066 6.437-5.1-.587c-9.556-1.1-16.092-2.647-24.032-5.689l-7.933-3.039 2.433-1.901c5.935-4.639 9.411-8.698 11.824-13.813 2.083-4.414 2.591-6.981 2.576-13-.015-6.172-.494-8.409-2.703-12.638-1.477-2.826-4.517-6.706-6.757-8.623-5.336-4.567-13.587-7.166-20.492-6.453-12.688 1.31-21.452 10.428-21.559 22.432l-.042 4.782-4.027-4.5c-2.215-2.475-5.126-5.898-6.468-7.607l-2.44-3.108 2.625-5.734c2.06-4.499 2.623-7.275 2.616-12.892-.01-7.744-1.785-13.866-5.774-19.909l-2.475-3.75 5.264-.009c2.895-.004 7.626-.292 10.514-.639l5.25-.631v2.672c0 3.514 2.544 9.489 5.298 12.441 7.136 7.65 20.134 8.25 28.058 1.295 2.648-2.323 5.285-7.915 6.132-13l.729-4.37 9.034.707c4.969.388 9.659.946 10.422 1.239m24.083 6.796c9.075 4.26 14.244 8.149 14.244 10.718 0 3.018-6.098 8.521-10.321 9.313-5.819 1.092-10.5-.293-14.917-4.413-3.424-3.194-4.092-4.494-4.502-8.769-.339-3.528.018-5.986 1.201-8.275 1.445-2.794 2.064-3.165 4.361-2.618 1.473.351 5.943 2.17 9.934 4.044m85.31 7.534c2.671 1.43 2.532 6.33-.255 8.926-1.203 1.121-3.251 2.039-4.549 2.039-4.684 0-10.262-4.297-10.262-7.904 0-1.052 8.001-3.899 11.316-4.026.998-.039 2.686.396 3.75.965m24.36 10.33c4.302 5.276 7.511 11.472 8.227 15.884.49 3.02.261 3.542-1.796 4.093-3.42.915-3.857.822-3.857-.822 0-2.017-3.062-9.532-3.859-9.47-.352.028-1.887 2.682-3.41 5.899-2.308 4.876-3.435 6.115-6.77 7.45-2.201.881-4.155 1.601-4.343 1.601s-.129-1.107.13-2.459c.261-1.367-.474-4.409-1.653-6.846l-2.123-4.385 3.475-3.685c3.368-3.571 5.536-8.785 5.547-13.341l.006-2.217 3.527 2.081c1.94 1.145 5.044 3.942 6.899 6.217M866 425.35c0 .742 1.318 3.17 2.93 5.394 3.11 4.293 10.59 8.517 17.313 9.775 6.269 1.174 12.629 10.278 10.05 14.386-.551.877-3.082 3.092-5.625 4.922l-4.622 3.327-1.627-4.064c-.894-2.236-3.148-5.401-5.009-7.035-3.893-3.418-10.34-5.457-14.819-4.686l-3.091.531-4.872-7.505-4.872-7.506 2.372-2.54c2.49-2.667 8.493-6.23 10.622-6.305.688-.024 1.25.563 1.25 1.306m-28.252 6.4c10.493 12.198 14.259 18.25 11.354 18.25-.494 0-3.981-1.875-7.75-4.166s-9.722-5.511-13.231-7.155l-6.379-2.988 2.462-1.29c1.354-.709 3.55-2.887 4.879-4.839 1.329-1.951 2.71-3.551 3.068-3.555s2.877 2.58 5.597 5.743m-34.354 6.223c12.163 3.136 20.857 6.664 29.087 11.802 4.321 2.699 4.721 3.21 3.019 3.863-1.079.414-6.92.778-12.981.808-13.925.068-19.673-1.719-25.357-7.887-3.515-3.812-7.162-9.419-7.162-11.009 0-.303.42-.55.932-.55.513 0 6.121 1.338 12.462 2.973m-47.555 6.416c4.801 3.326 9.161 11.242 9.161 16.629 0 9.137-6.71 19.411-14.317 21.921-3.175 1.049-3.949.915-7.365-1.271-2.1-1.343-5.618-4.05-7.818-6.014l-4-3.571 4.3-.041c7.777-.076 13.2-4.498 13.2-10.765 0-5.58-5.943-9.46-8.947-5.841-.655.79-1.528 2.702-1.94 4.25-.931 3.502-3.916 4.104-7.194 1.45-1.973-1.598-2.419-2.878-2.419-6.943 0-5.401 1.546-7.917 7-11.389 2.357-1.501 4.42-1.84 9.622-1.582 5.317.264 7.43.889 10.717 3.167m317.345 12.303c7.673 3.271 18.01 9.415 24.912 14.808 7.353 5.746 16.481 16.887 20.481 25 4.896 9.931 6.747 19.683 6.075 32-.799 14.63-2.133 17.753-2.235 5.231-.07-8.657-.569-11.706-3.244-19.818-1.739-5.272-4.988-12.411-7.22-15.864s-4.218-6.114-4.415-5.913.698 3.596 1.988 7.547 2.885 10.879 3.546 15.396c2.258 15.444-.817 34.507-7.891 48.921-2.025 4.125-3.862 7.931-4.084 8.458-.221.526 2.15-1.223 5.269-3.887 5.19-4.434 13.811-14.728 14.907-17.8.249-.699.746-1.002 1.105-.673.358.329-.251 3.518-1.354 7.088-1.273 4.124-3.825 8.894-6.999 13.088-3.79 5.006-7.416 8.21-15.032 13.28-5.923 3.943-14.156 8.299-20.082 10.625-5.525 2.169-10.54 3.778-11.146 3.576s1.082-1.647 3.752-3.212c6.975-4.088 17.584-15.11 21.801-22.652 3.893-6.961 7.04-14.907 5.888-14.865-.388.014-2.281 2.358-4.206 5.208s-7.004 8.689-11.286 12.974c-7.812 7.818-11.523 10.18-7.924 5.042 6.093-8.697 13.21-25.952 13.21-32.027 0-2.094-.436-1.701-2.574 2.32-5.035 9.469-9.941 16.065-17.88 24.036-4.425 4.444-10.746 9.872-14.046 12.063-7.478 4.965-17.577 10.614-18.079 10.112-.207-.207 1.751-2.004 4.351-3.992 9.142-6.991 18.53-15.589 24.448-22.391 15.074-17.325 21.78-32.994 21.78-50.891 0-4.983-.681-11.742-1.513-15.02s-3.052-9.103-4.933-12.943c-1.881-3.841-3.262-7.142-3.069-7.336s2.439 2.274 4.989 5.484c8.303 10.448 14.213 24.528 17.142 40.835l.718 4 1.237-5c2.9-11.725.992-27.413-4.973-40.882-2.946-6.652-10.574-17.323-16.276-22.768-2.102-2.008-6.484-5.496-9.738-7.75-3.253-2.255-5.421-4.1-4.816-4.1s3.942 1.212 7.416 2.692m-84.783 1.903c11.114 1.819 22.158 5.47 30.599 10.114 15.707 8.643 27.721 20.901 35.439 36.16 5.207 10.296 6.865 25.21 4.21 37.881-.721 3.438-1.049 6.249-.73 6.248.98-.003 6.891-9.231 9.009-14.061 2.9-6.616 5.062-15.609 5.142-21.397.052-3.737.293-4.523.93-3.04 1.256 2.924 1.178 16.566-.13 22.701-2.53 11.862-9.868 23.914-21.192 34.805-6.319 6.078-17.799 14.994-19.306 14.994-.297 0 .788-1.687 2.41-3.75 4.605-5.853 8.853-14.109 11.157-21.683 1.16-3.813 2.383-10.803 2.719-15.533.44-6.197.137-10.968-1.084-17.068-1.95-9.743-7.848-22.553-13.067-28.383-1.929-2.154-3.507-3.603-3.507-3.219 0 .383 1.166 3.467 2.591 6.853 3.295 7.827 5.374 17.611 5.374 25.283 0 11.573-4.192 25.597-11.11 37.168-1.845 3.086-6.678 9.163-10.739 13.504-7.227 7.724-10.297 9.723-6.352 4.136 3.868-5.478 8.399-15.624 10.304-23.074 4.846-18.948.107-38.37-12.75-52.257-3.043-3.287-5.902-5.977-6.353-5.977s.742 2.587 2.65 5.75c5.279 8.75 7.765 18.039 7.829 29.25.071 12.274-2.437 22.365-8.665 34.863-4.793 9.618-5.058 9.515-2.232-.863 3.82-14.029 2.354-30.451-3.87-43.35-3.844-7.965-11.048-16.892-18.694-23.164-2.782-2.282-8.627-6.272-12.988-8.866-13.962-8.305-30.473-12.744-48.263-12.974-6.178-.08-15.507.16-20.732.534l-9.5.679 7.138-2.372c10.536-3.501 26.117-5.488 42.99-5.481 16.1.006 30.484 1.76 41.743 5.09 3.921 1.159 11.447 4.318 16.725 7.02 9.988 5.112 21.962 14.588 27.041 21.4 1.575 2.112 2.863 3.517 2.863 3.122 0-1.35-4.278-9.134-8.21-14.935-4.901-7.232-13.163-15.428-20.382-20.22-7.524-4.994-18.485-9.888-26.908-12.015-4.195-1.058-13.011-2.016-22-2.389-13.286-.551-14.371-.721-9.5-1.484 17.211-2.699 32.908-2.699 49.401 0m-115.324 1.328c2.071 2.071 2.923 3.903 2.923 6.284 0 2.633-.616 3.726-2.84 5.039l-2.84 1.678-2.235-3.022c-1.757-2.378-2.527-2.78-3.607-1.884-.755.627-2.143 3.242-3.085 5.811s-2.313 5.327-3.046 6.128c-1.023 1.119-1.607 1.183-2.511.279-1.449-1.449-1.345-10.163.176-14.771 1.553-4.708 6.276-8.465 10.642-8.465 2.535 0 4.306.806 6.423 2.923m-44.295 16.63c2.045.854 4.91 2.695 6.366 4.09 2.265 2.169 2.965 2.367 4.836 1.366 4.194-2.245 3.162-.135-1.643 3.362-5.719 4.161-18.042 9.089-27.841 11.134-3.85.803-7.337 1.468-7.75 1.478-.413.009-.75-1.945-.75-4.343 0-3.063.785-5.519 2.638-8.25 1.451-2.14 3.56-4.565 4.687-5.39 7.123-5.212 12.816-6.221 19.457-3.447M1287 499.807c0 2.589-6.606 30.908-8.359 35.829-2.88 8.092-4.367 10-9.522 12.218-4.924 2.118-22.311 6.637-35.355 9.189-3.705.725-6.562 1.492-6.35 1.704s6.618 1.937 14.236 3.832c17.547 4.367 28.56 8.011 31.719 10.497 1.485 1.168 3.282 4.444 4.49 8.185 1.658 5.136 7.971 30.702 9.441 38.239.534 2.737.735 2.076 5.631-18.5 2.291-9.625 5.381-19.975 6.867-23 2.089-4.253 3.593-5.918 6.631-7.342 3.199-1.5 26.942-8.13 40.071-11.189 2.501-.583 1.002-1.154-9-3.429-25.191-5.73-34.101-8.941-36.913-13.303-1.589-2.464-8.55-27.333-10.634-37.987-.726-3.712-1.687-6.75-2.136-6.75s-.817.813-.817 1.807m-451.55 3.029c-.522.46-5.675 4.123-11.45 8.14s-15 11.002-20.5 15.522c-15.372 12.633-39.864 36.125-48.261 46.29l-3.543 4.289-4.169-.625c-4.803-.72-11.823.91-15.65 3.636-1.453 1.034-3.637 3.997-4.853 6.584-1.84 3.914-2.153 6.062-1.867 12.797l.343 8.094-7.102 10.969c-3.906 6.032-8.666 13.668-10.579 16.968s-5.833 9.753-8.711 14.34c-8.637 13.761-18.316 34.135-24.436 51.433l-.627 1.773-3.645-1.523c-2.004-.838-4.683-1.523-5.952-1.523h-2.308l2.532-9.25c2.687-9.818 8.534-26.002 12.94-35.82l2.661-5.93h3.413c3.541 0 8.46-2.053 11.67-4.871 3.21-2.816 5.645-8.805 5.628-13.839-.019-5.424-2.964-11.476-7.064-14.514-1.418-1.052-4.465-2.336-6.769-2.853-6.304-1.417-12.36.459-16.585 5.136-4.547 5.033-6.101 10.739-4.586 16.845.627 2.528 2.4 6.178 3.94 8.112l2.799 3.517-3.852 8.893c-2.119 4.891-4.114 9.154-4.435 9.475s-1.07-.289-1.666-1.354c-1.884-3.367-5.937-6.518-9.918-7.711-2.116-.634-3.848-1.672-3.848-2.307 0-1.818 5.365-17.162 9.393-26.865 4.68-11.273 9.496-20.894 15.969-31.902l5.138-8.738 3.29-.012c4.13-.015 10.39-3.153 13.059-6.547 3.068-3.9 4.465-9.161 3.773-14.21-.553-4.032-.265-4.971 2.806-9.125 1.883-2.546 5.437-6.592 7.898-8.991l4.475-4.36 1.664 3.505c.914 1.928 3.253 5.363 5.197 7.634s3.301 4.681 3.016 5.355-3.485 4.743-7.111 9.041c-6.955 8.244-15.098 19.887-17.897 25.59-.918 1.872-1.67 3.6-1.67 3.84s8.379-7.591 18.62-17.404c15.529-14.878 19.056-17.796 21.25-17.576 13.219 1.326 15.264 1.348 18.781.201 2.117-.691 4.933-2.099 6.258-3.129 6.484-5.044 11.399-15.934 10.893-24.14l-.235-3.805 7.467-4.984c13.088-8.737 31.536-17.343 51.966-24.243 2.453-.828 3.503-.754 2.45.172m98.05 5.57c4.4 1.399 10.872 4.242 14.381 6.318 11.91 7.047 22.979 21.961 26.591 35.828 2.07 7.95 1.873 20.549-.431 27.448l-1.836 5.5-.138-7c-.195-9.919-2.277-18.517-6.605-27.274-4.939-9.994-16.091-21.353-25.962-26.444-9.598-4.95-18.437-7.622-28.5-8.615-10.528-1.039-22.048.015-30.252 2.768-10.201 3.422-10.238 4.03-.248 4.074 4.95.022 11.012.504 13.472 1.07 6.713 1.547 16.21 6.404 22.431 11.472 3.049 2.483 7.589 7.382 10.089 10.886 5.291 7.415 10.066 17.46 10.981 23.105.353 2.177.85 4.971 1.104 6.208.84 4.095-1.275 2.334-3.433-2.859-1.168-2.809-4.141-7.936-6.607-11.392-9.007-12.621-22.715-22.44-36.181-25.914-6.227-1.606-17.376-1.924-22.856-.652l-3 .697 4.5.731c10.031 1.631 14.834 3.016 21.672 6.249 9.338 4.414 19.902 14.531 23.741 22.733 1.503 3.214 2.577 6 2.386 6.191s-2.485-2.324-5.098-5.59c-5.707-7.132-12.78-12.89-20.07-16.339-6.207-2.936-18.178-5.186-22.209-4.175l-2.761.693 7.448 3.238c4.096 1.781 9.532 4.672 12.08 6.425 4.61 3.172 11.811 10.77 11.811 12.462 0 .489-1.237.015-2.75-1.052-5.719-4.034-13.5-7.264-25.919-10.758-7.057-1.986-14.969-4.631-17.581-5.878-3.705-1.769-4.75-1.956-4.75-.848 0 3.858 6.508 11.947 13.326 16.563 2.846 1.927 6.524 4.253 8.174 5.169l3 1.665-3.785-.498c-5.551-.729-13.563-4.751-18.872-9.474-4.765-4.24-9.843-11.753-9.843-14.565 0-.865-.51-1.572-1.134-1.572-.787 0-.98 2.165-.63 7.056.365 5.095 1.31 8.631 3.401 12.72 3.844 7.516 12.203 14.24 22.824 18.36 7.92 3.072 25.052 7.049 36.292 8.424l5.747.703-6.5-6.087c-4.41-4.13-5.931-6.102-4.731-6.132.973-.024 7.36 2.736 14.194 6.135l12.425 6.178 4.036-1.332c3.502-1.156 4.883-1.103 10.419.395 3.511.95 8.636 2.772 11.39 4.048l5.007 2.32-1.322-4.394c-.727-2.417-1.075-4.394-.774-4.394.302 0 2.643 1.846 5.203 4.103 5.649 4.981 11.48 8.092 13.623 7.27.872-.334 2.04-1.458 2.596-2.497l1.011-1.888 5.711 3.698c3.142 2.035 11.429 7.196 18.416 11.469l12.705 7.771 5.017-3.376c3.018-2.031 7.719-3.986 11.796-4.906 10.195-2.3 27.879-3.952 35.889-3.352 3.987.299 9.353 1.497 12.214 2.728 9.417 4.051 17.513 15.179 24.632 33.858 6.073 15.931 9.323 31.113 12.053 56.299l.616 5.678-3.546-3.344c-7.914-7.464-17.256-7.349-38.08.468-16.773 6.296-22.222 8.96-27.119 13.26-3.892 3.417-9.379 13.678-9.38 17.542-.001 1.255.707 2.553 1.571 2.885 2.728 1.047 17.345-4.411 34.031-12.705 8.857-4.403 18.602-8.529 21.656-9.17 4.328-.908 6.473-.888 9.733.089 2.3.689 5.811 2.746 7.803 4.571l3.622 3.319-.255 8.365c-.288 9.455-2.53 26.072-4.06 30.096-1.119 2.943-6.599 6.391-7.596 4.779-.334-.541-.137-2.677.438-4.747s1.047-4.585 1.05-5.59c.005-1.445-.535-1.183-2.583 1.25-1.424 1.692-2.983 3.077-3.465 3.077s-2.915-1.293-5.407-2.873-7.687-3.888-11.543-5.128c-5.649-1.817-8.56-2.165-14.974-1.794-6.629.384-9.179 1.073-15.242 4.121-7 3.519-10.396 6.129-15.78 12.128-1.604 1.787-.17 1.033 4-2.104 3.575-2.689 8.975-5.982 12-7.317 4.301-1.899 7.244-2.433 13.5-2.452 6.581-.02 8.975.438 13.5 2.583 3.025 1.435 6.4 3.368 7.5 4.296l2 1.688-2.5-.578c-1.375-.317-5.65-.844-9.5-1.17-8.836-.748-19.651 1.438-28.5 5.76-8.572 4.186-20.264 15.652-22.055 21.628-.696 2.324-.959 4.531-.584 4.906.374.375 2.687-1.288 5.139-3.694s4.785-4.049 5.184-3.649c.399.399.191 2.141-.462 3.871s-1.083 3.236-.955 3.346 6.533 1.432 14.233 2.938c17.974 3.516 30.818 4.21 39.622 2.139 3.642-.856 9.096-2.651 12.122-3.989l5.5-2.433 3.157 12.139c5.272 20.273 7.209 32.168 7.269 44.657.066 13.694-1.775 23.695-7.351 39.926-6.237 18.156-14.719 36.946-32.754 72.555-9.193 18.15-19.77 39.75-23.506 48-9.467 20.907-17.788 37.433-21.997 43.689-5.544 8.241-15.266 17.507-21.787 20.765-3.222 1.611-9.291 3.692-13.487 4.625-5.884 1.309-10.389 1.57-19.708 1.142-8.873-.408-15.212-1.372-23.878-3.633-20.178-5.264-39.848-14.167-63.383-28.688-20.509-12.654-45.328-32.441-63.851-50.904-6.162-6.142-12.417-13.432-14.157-16.5-3.461-6.1-10.732-23.452-14.665-34.996-1.405-4.125-4.649-15.149-7.209-24.497s-5.701-19.064-6.981-21.59c-2.765-5.456-8.135-10.412-14.405-13.293-3.376-1.551-6.488-2.079-12.051-2.046-5.805.034-8.517.566-12 2.352-2.475 1.269-5.29 3.002-6.256 3.851s-1.903 1.359-2.083 1.134-2.09-3.336-4.244-6.911l-3.917-6.5.074-9c.065-7.923 1.66-21.297 3.034-25.444.825-2.491 3.63 3.965 4.434 10.209.507 3.929 1.617 6.91 3.487 9.361 3.325 4.361 14.203 11.498 16.971 11.136 1.229-.161 2.127-1.156 2.329-2.582.237-1.673-1.087-3.817-4.75-7.69-2.794-2.954-5.149-6.41-5.235-7.68-.271-4.032.195-7.175 1.797-12.119.923-2.846 1.306-6.161.939-8.117-.341-1.819-3.536-7.355-7.1-12.304-5.576-7.741-6.48-9.597-6.48-13.3v-4.303l3.25 3.735c1.788 2.054 6.4 6.077 10.25 8.939l7 5.205.782 6.323c.43 3.478 1.95 8.629 3.378 11.447s5.322 7.725 8.652 10.904c3.331 3.179 6.471 5.78 6.979 5.78s.617-.788.243-1.75c-1.659-4.271-2.707-13.246-2.198-18.817.446-4.879 4.427-19.119 7.347-26.282.397-.974-.156-.887-1.989.314-3.725 2.44-9.329 11.238-11.126 17.467-.863 2.987-1.597 7.487-1.631 10-.057 4.107-.167 4.316-1.09 2.068-1.402-3.413-.34-12.685 2.106-18.391 1.11-2.588 3.314-6.596 4.899-8.907s4.363-7.127 6.172-10.702c2.313-4.57 3.497-8.579 3.987-13.5.82-8.225.046-10.843-2.049-6.93-1.821 3.403-8.444 7.953-13.505 9.277-4.215 1.102-10.392.345-14.293-1.753-1.284-.691-2.184-1.407-1.999-1.592s2.586.09 5.336.612c5.919 1.123 11.589.361 16.74-2.25 2.659-1.347 4.499-3.392 6.362-7.067 1.503-2.967 2.842-7.612 3.14-10.896l.519-5.725-5.337 2.641c-4.033 1.996-6.712 2.61-10.963 2.512-3.289-.075-7.718-1.029-10.662-2.295-5.6-2.409-10.1-6.635-13.065-12.267-1.662-3.159-1.809-4.414-.954-8.151l1.011-4.417 3.736 2.706c3.337 2.418 7.361 3.873 18.972 6.861l3.5.9-5.935 1.276c-3.264.702-7.915 1.053-10.336.78l-4.402-.496 3.176 3.277c1.746 1.802 5.43 4.504 8.187 6.004 8.767 4.771 18.147 3.271 22.174-3.547.9-1.523 1.636-3.262 1.636-3.864 0-.603-.841-1.096-1.868-1.096h-1.868l3.28-8.25c1.804-4.538 3.139-8.393 2.967-8.567-.172-.175-2.719.911-5.662 2.413-3.978 2.032-7.282 2.847-12.893 3.184-6.218.374-8.438.068-12.632-1.736-2.799-1.204-6.323-3.477-7.831-5.051-2.1-2.192-2.592-3.46-2.103-5.413l.64-2.55 1.951 1.951c3.485 3.485 12.195 7.225 18.068 7.757 8.394.761 15.149-1.801 21.464-8.141 2.792-2.803 7.078-7.797 9.524-11.097s7.894-10.115 12.107-15.144c11.829-14.122 19.014-26.105 19.4-32.356.119-1.925.548-4.513.953-5.75.452-1.38.327-2.25-.322-2.25-.582 0-3.576 2.203-6.652 4.895-9.887 8.651-24.927 15.136-34.983 15.084l-4.04-.021 6.81-2.403c11.86-4.186 23.651-10.625 29.684-16.21 5.375-4.976 12.183-15.501 10.874-16.811-1.002-1.001-8.176 3.378-14.914 9.103-3.55 3.016-10.244 7.369-14.877 9.673l-8.422 4.19h-8.578c-8.723 0-15.485-1.777-14.782-3.885.204-.611 4.833-1.662 10.288-2.336 16.223-2.003 38.222-10.633 45.754-17.949 3.438-3.339 12.663-17.387 12.663-19.282 0-.485-.538-1.061-1.197-1.28-.658-.22 3.424-3.675 9.072-7.679s10.039-7.508 9.761-7.787-6.274 1.182-13.322 3.245c-18.919 5.539-18.983 5.553-29.814 6.319l-10 .707 2.719 1.36c1.495.748 2.481 1.744 2.191 2.213s-3.314.85-6.719.844c-4.452-.007-7.666-.696-11.441-2.454-2.888-1.344-5.236-2.802-5.218-3.24s.621-1.572 1.342-2.521c1.08-1.422 1.91-1.554 4.712-.75 1.87.536 4.676.975 6.235.975h2.834l-4.319-3.294c-3.958-3.02-6.971-7.904-5.674-9.201.294-.294 2.562.599 5.04 1.984 9.709 5.427 21.564 7.316 34.798 5.545 12.013-1.607 30.159-6.485 37.911-10.191 3.624-1.733 9.705-4.153 13.514-5.379l6.925-2.228-3.425-.694c-7.882-1.598-20.814-5.934-26.188-8.781-11.711-6.205-20.27-17.754-22.716-30.652-1.617-8.523-1.245-13.266 1.463-18.701 2.519-5.054 10.476-13.758 9.133-9.991-.375 1.055-.963 4.655-1.307 8l-.624 6.083 10.157-9.725c19.713-18.876 35.776-25.213 61.657-24.324 9.251.318 13.832.995 20 2.955m-160.669-.041 9.331 2.282-9.02 6.095-9.019 6.094-1.626-2.481c-.894-1.364-3.645-3.761-6.113-5.326l-4.488-2.847 5.302-2.98c2.916-1.639 5.527-3.011 5.802-3.05s4.699.957 9.831 2.213M751.5 520.881c2.2 1.01 4.833 2.774 5.852 3.919l1.852 2.082-3.852 3.298c-2.119 1.814-7.002 6.217-10.852 9.785s-8.46 7.822-10.245 9.453l-3.246 2.965-3.007-2.881c-1.654-1.585-3.965-4.86-5.135-7.278l-2.129-4.396 1.931-2.587c3.503-4.691 4.474-4.736 9.137-.426 2.368 2.19 5.152 4.202 6.185 4.472 1.034.271 2.809-.159 3.944-.954 3.093-2.166 2.655-6.592-1.073-10.837l-3.138-3.574 2.313-2.461c1.315-1.4 3.422-2.452 4.887-2.439 1.417.012 4.376.848 6.576 1.859m61.424 13.869c-1.333 1.513-2.536 2.938-2.674 3.167s-.552.115-.921-.254c-.782-.783 3.544-5.663 5.02-5.663.55 0-.091 1.237-1.425 2.75m-47.105 12.026c-1.275 2.542-4.013 5.967-6.084 7.61-2.964 2.352-5.013 3.079-9.623 3.412-3.221.233-6.124-.009-6.451-.537-.327-.529 4.903-5.524 11.623-11.101l12.216-10.139.319 3.066c.185 1.782-.652 5.003-2 7.689m37.472-2.152c.343.344-1.233 4.056-3.504 8.25s-4.313 7.85-4.539 8.124c-.923 1.119-3.248-3.601-3.248-6.593 0-2.666.809-3.82 4.75-6.779 2.612-1.961 5.013-3.579 5.333-3.596s.865.251 1.208.594M785 560.86c0 1.024 1.115 3.503 2.477 5.511l2.477 3.65-2.074 3.74c-5.275 9.512-8.055 14.239-8.376 14.239-.192 0-.897-1.687-1.568-3.75-.67-2.062-2.558-5.456-4.195-7.542l-2.975-3.792 1.831-2.208c3.846-4.637 10.862-11.708 11.615-11.708.434 0 .788.837.788 1.86m630.931 15.773c31.098 33.3 51.817 79.528 64.928 144.867 4.759 23.716 17.432 100.447 27.582 167 3.02 19.8 7.504 48.375 9.964 63.5s5.429 34.25 6.596 42.5 3.444 23.642 5.06 34.204c1.617 10.562 2.939 21.241 2.939 23.731 0 5.05.339 4.838-10.25 6.409-3.162.469-5.75.561-5.75.205s.466-1.115 1.035-1.684c.708-.708.717-3.216.027-7.95-.554-3.803-1.914-13.665-3.023-21.915-8.821-65.622-9.702-71.719-18.075-125-3.284-20.9-6.197-39.575-6.471-41.5-1.105-7.733-11.722-73.649-14.577-90.5-6.111-36.062-14.313-71.584-21.243-92-5.325-15.687-14.318-37.021-20.445-48.5-4.807-9.008-20.802-34-21.76-34-.178 0 4.131 9.154 9.575 20.342 10.612 21.807 19.003 43.109 26.455 67.158 11.016 35.553 17.889 69.967 33.952 170 16.537 102.983 31.167 205.501 29.475 206.546-.565.35-4.717 1.406-9.226 2.349-11.724 2.45-17.332 4.425-20.766 7.315-3.39 2.852-5.933 7.216-5.933 10.179 0 1.619-.884 2.104-4.75 2.608-2.612.341-10.375 1.439-17.25 2.439s-12.801 1.537-13.169 1.192c-2.393-2.245-33.961-210.372-42.792-282.128-7.427-60.343-9.89-104.692-8.098-145.779 1.484-34.029 4.101-57.923 9.249-84.448l2.081-10.726 3.787 2.999c2.082 1.649 6.975 6.414 10.873 10.587m-725.371-2.084c-.883 1.348-2.297 2.451-3.142 2.451-1.648 0-1.416-.613 2.018-5.343 1.61-2.217 2.137-2.481 2.397-1.2.183.903-.39 2.744-1.273 4.092m136.78 20.425 8.16 3.949-4 .031c-6.286.049-16.428-1.867-21.553-4.072-2.576-1.108-6.205-3.619-8.065-5.58l-3.382-3.566 2.5.569c1.375.313 3.85.884 5.5 1.268l3 .698-2.628-2.885c-3.533-3.88-5.153-7.212-4.426-9.106.451-1.176 2.598.456 8.667 6.59 6.363 6.432 9.791 8.989 16.227 12.104M1118.6 581.6c-.356.927-.872 1.461-1.147 1.186s-.209-1.259.147-2.186.872-1.461 1.147-1.186.209 1.259-.147 2.186m3.963 7.275c-2.569 5.101-4.965 8.186-8.568 11.035-5.324 4.208-19.83 12.588-20.548 11.87-.236-.236 3.439-4.895 8.166-10.354s9.941-11.87 11.587-14.246 3.208-4.106 3.47-3.843c.778.778-2.314 6.084-7.783 13.353-2.818 3.745-5.606 7.485-6.195 8.31-2.485 3.477 15.741-14.915 19.054-19.228 1.997-2.6 3.8-4.559 4.007-4.352s-1.229 3.561-3.19 7.455m-356.603-5.239c1.523.899 3.557 2.969 4.52 4.599 2.191 3.709 2.276 11.403.171 15.472-3.393 6.562-10.764 10.306-17.414 8.845-1.606-.353-4.45-1.919-6.32-3.481l-3.402-2.839 2.742-3.866c3.319-4.68 16.092-20.366 16.583-20.366.193 0 1.597.736 3.12 1.636m-27.135 8.293c-5.299 6.797-6.381 7.751-6.672 5.886-.501-3.223 1.514-9.204 3.797-11.27 1.717-1.554 7.968-3.647 8.875-2.971.178.133-2.522 3.893-6 8.355m.371 28.105c1.483 1.583 2.996 4.472 3.362 6.422.873 4.656-.142 9.746-2.557 12.816-2.618 3.328-7.963 5.735-12.652 5.696-4.155-.034-6.391-1.283-8.123-4.534-.909-1.709-.485-3.18 2.452-8.5 1.954-3.539 5.124-8.586 7.046-11.217 2.813-3.85 3.912-4.663 5.635-4.172 1.178.337 3.354 1.906 4.837 3.489m23.462 5.716c-1.307 2.612-3.869 8.741-5.694 13.618-2.877 7.688-3.485 8.64-4.569 7.158-.688-.941-1.555-3.516-1.928-5.722-.555-3.286-.158-5.027 2.196-9.63 2.741-5.36 7.947-10.174 11.002-10.174 1.017 0 .758 1.22-1.007 4.75m-73.113-1.295c1.353 1.352 2.455 3.626 2.455 5.065 0 3.022-1.637 6.45-3.913 8.198-2.535 1.946-6.751 1.475-9.731-1.088-2.059-1.771-2.756-3.282-2.756-5.973 0-7.707 8.611-11.537 13.945-6.202m439.302 2.528c4.209 2.19 9.982 6.021 12.829 8.512 2.846 2.492 7.004 7.269 9.24 10.617s4.97 9.016 6.075 12.593c2.595 8.404 2.586 22.02-.022 31.795l-1.867 7 .518-7c.611-8.248-.815-18.221-3.328-23.27-1.697-3.41-6.75-8.105-7.701-7.155-.242.243.193 3.138.968 6.433.776 3.296 1.417 10.083 1.425 15.082.018 10.114-2.277 20.747-6.633 30.739-2.876 6.596-12.709 20.671-14.442 20.671-1.53 0-.363-3.06 6.101-16 8.147-16.309 9.416-20.659 9.33-32-.055-7.377-.619-11.067-2.523-16.513-2.922-8.358-9.286-19.529-15.404-27.041-2.44-2.995-4.196-5.446-3.903-5.446.979 0 8.906 5.373 16.764 11.362 4.275 3.258 8.002 5.695 8.283 5.415s-1.777-3.928-4.571-8.105-8.546-10.761-12.783-14.63-7.322-7.037-6.856-7.039 4.291 1.789 8.5 3.98m-324.282 13.385c-3.336 2.678-8.472 6.053-11.413 7.5l-5.348 2.632 11.848.5 11.848.5-5 2.887c-3.022 1.744-6.978 3.064-10 3.334-6.6.592-18.626-2.019-24.109-5.232-4.463-2.616-5.391-4.455-3.141-6.231.688-.542 5.75-1.263 11.25-1.602s11.35-1.036 13-1.55c2.687-.837 2.421-.943-2.554-1.02-3.837-.059-7.159-.886-10.75-2.675-2.858-1.425-5.195-2.887-5.194-3.25.001-.364 8.017-.661 17.815-.661h17.814zm744.274 7.92c-1.441 6.759-3.681 14.943-4.979 18.187-2.078 5.195-2.936 6.184-7.186 8.296-2.654 1.319-10.529 3.781-17.5 5.47-6.971 1.69-13.349 3.279-14.174 3.531s1.359 1.064 4.853 1.802c9.827 2.077 24.089 6.356 28.239 8.473 3.053 1.558 4.152 2.983 5.922 7.683 1.195 3.173 3.428 11.17 4.963 17.77 2.358 10.138 2.904 11.535 3.517 9 4.586-18.956 6.903-27.522 8.167-30.191.831-1.756 2.548-3.871 3.814-4.701 2.585-1.693 15.961-5.609 27.996-8.194l7.971-1.713-8.845-1.791c-10.173-2.059-21.834-5.465-25.891-7.563-1.537-.794-3.661-2.869-4.721-4.612-1.059-1.742-3.558-10.045-5.552-18.451S1551.728 636 1551.632 636s-1.353 5.53-2.793 12.288m-834.1 3.537 3.074 3.825-1.28 5.925c-.704 3.259-1.821 8.522-2.483 11.697l-1.203 5.772-4.862 2.463c-5.345 2.709-9.497 7.465-11.558 13.241-1.784 4.998-1.75 9.232.119 14.737 1.294 3.811 1.354 5.535.366 10.559-1.302 6.617-2.912 8.819-2.912 3.983 0-4.184-2.115-8.949-5.869-13.225l-3.119-3.552 3.858-10.375c5.532-14.877 10.573-26.811 15.279-36.171 3.769-7.497 6.761-12.704 7.299-12.704.119 0 1.601 1.721 3.291 3.825m26.715 4.591c1.865.78 4.112 2.519 4.995 3.865l1.604 2.449-2.584 8.178c-2.303 7.292-2.957 8.357-6.026 9.821L736 682.37l-3.507-1.672c-1.929-.92-4.428-3.14-5.555-4.935-1.517-2.418-1.932-4.393-1.603-7.627.245-2.401 1.314-5.551 2.376-7 1.742-2.378 7.597-6.131 9.571-6.134.43-.001 2.308.635 4.172 1.414m-87.253 13.334c1.416 1.513 2.863 3.708 3.216 4.879.757 2.515-1.231 8.736-6.151 19.245l-3.57 7.626-.791-4c-.434-2.2-.816-9.962-.847-17.25L646 667h2.813c1.778 0 3.76 1.012 5.388 2.75m-166.152 12c-2.332 11.949-7.852 33.648-10.059 39.547-1.579 4.221-2.936 6.141-5.148 7.285-1.652.854-13.205 4.172-25.673 7.373s-21.994 6.061-21.169 6.355 10.05 2.626 20.5 5.181 21.312 5.693 24.138 6.971l5.139 2.325 2.075 5.547c2.257 6.032 11.148 41.05 11.148 43.907 0 .968.368 1.759.817 1.759.45 0 1.62-3.487 2.602-7.75 3.075-13.358 9.534-36.349 11.195-39.85 1.114-2.346 3.138-4.109 6.739-5.868 2.831-1.383 14.794-4.898 26.585-7.812l21.438-5.299-8.438-1.804c-14.513-3.104-38.303-9.679-41.438-11.453-1.657-.938-3.984-3.704-5.199-6.181-1.21-2.466-4.585-14.035-7.5-25.71s-5.556-21.238-5.868-21.25c-.311-.013-1.159 3.015-1.884 6.727m383.238 4.052c-7.35 2.631-15.705 8.409-23.335 16.14-7.557 7.656-14.128 16.587-19.541 26.558l-3.799 7 12.036-11.5c12.299-11.751 18.794-16.35 29.05-20.567 7.333-3.015 16.712-3.217 24.531-.526 3.048 1.048 15.156 6.503 26.906 12.121C944.662 728.189 953.354 732 955.839 732c1.109 0 2.992-1.237 4.186-2.75 1.775-2.249 2.059-3.562 1.563-7.21-.73-5.36-4.393-10.94-9.508-14.485-5.02-3.478-16.725-8.346-39.08-16.251-16.371-5.788-19.536-6.589-27.5-6.955-7.04-.323-10.135-.007-14.213 1.453m-144.537 7.649c2.569 2.783 3.25 4.381 3.25 7.633 0 4.907-2.345 10.266-5.336 12.193-3.992 2.572-6.973 2.752-11.255.679-4.447-2.153-6.409-5.271-6.409-10.187 0-4.373 3.68-11.518 6.849-13.298 4.094-2.301 9.091-1.147 12.901 2.98m-59.185 18.852c2.367 2.035 2.598 2.77 1.996 6.333-.991 5.871-3.871 10.054-7.464 10.843-1.676.368-3.568.348-4.204-.045-.784-.485-.965-2.758-.563-7.069.77-8.239 2.865-12.305 6.364-12.35.657-.008 2.399 1.021 3.871 2.288m91.602 9.154c7.583 2.252 12.179 2.041 22.833-1.046l2.5-.725-1.999 2.261c-1.099 1.243-4.024 3.451-6.5 4.907-3.854 2.266-5.65 2.646-12.501 2.646-6.935 0-8.626-.368-12.698-2.762-2.584-1.519-4.921-3.121-5.192-3.56-.272-.439-.015-2.683.569-4.986l1.063-4.187 3.365 2.955c1.851 1.625 5.703 3.648 8.56 4.497m-72.601-1.329c.789 1.525 1.434 5.428 1.434 8.674 0 4.475-.544 6.702-2.25 9.208-2.736 4.02-6.277 6.668-10.154 7.592l-2.905.692.653-3.397c.36-1.868 1.729-4.344 3.042-5.502 1.314-1.158 2.856-2.979 3.428-4.047.571-1.068.963-5.07.871-8.895-.191-7.889.651-10.249 2.97-8.324.812.674 2.122 2.473 2.911 3.999m44.567 6.554c-4.422 18.877-8.039 41.13-10.122 62.265-.99 10.042-1.764 12.001-4.758 12.038-1.809.022-9.138 6.892-10.818 10.14-.789 1.527-1.432 5.386-1.429 8.575.006 5.6.765 7.972 4.256 13.3l1.638 2.5-5.2.072c-3.317.046-6.774.886-9.547 2.32-2.391 1.236-4.559 2.035-4.819 1.775s.056-3.162.703-6.448c1.011-5.141.926-6.797-.605-11.848-.98-3.229-1.731-6.121-1.671-6.427s.875-6.268 1.811-13.25L692.273 789h4.977c6.328 0 11.568-2.866 15.046-8.23 1.442-2.225 2.912-5.977 3.267-8.339.935-6.235-1.772-13.63-6.39-17.456-2.02-1.673-4.798-3.29-6.173-3.592-4.891-1.076-4.914-1.101-4.015-4.577.47-1.818 1.835-8.076 3.034-13.907s2.525-11.161 2.947-11.844c.595-.962 1.534-.846 4.151.512 2.035 1.056 5.601 1.758 8.95 1.761 3.999.004 6.746-.657 9.75-2.345 2.301-1.293 4.183-2.793 4.183-3.334s.27-.713.599-.383c.33.329-.33 4.567-1.466 9.416m-67.993 14.197c.801.777-2.323 16.121-3.282 16.121-1.621 0-4.586-15.013-3.358-17.001.608-.983 5.369-.353 6.64.88m226.623.154c-7.427 1.251-19.644 5.119-20.883 6.612-.619.745-1.564 1.355-2.101 1.355s-2.349-1.462-4.027-3.25l-3.051-3.25.713 6.374.713 6.375-2.813-.692c-1.548-.381-4.533-2.349-6.634-4.374l-3.821-3.683.717 3c.394 1.65 1.101 4.042 1.57 5.315s.854 3.025.854 3.893c0 1.335-.945 1.478-6.164.933-3.39-.355-8.565-1.744-11.5-3.087S828 754.333 828 754.605c0 .935 3.313 6.899 5.405 9.73 3.003 4.064 14.849 12.852 23.595 17.504 4.125 2.195 10.65 4.96 14.5 6.146 9.257 2.852 23.127 3.638 35.829 2.031 12.979-1.642 16.301-2.867 8.003-2.953-3.393-.034-6.822-.314-7.621-.62-1.076-.413-1.325-1.692-.959-4.938.675-5.985-.342-10.622-3.278-14.949-1.361-2.005-2.474-3.802-2.474-3.994s1.913.06 4.25.559c6.748 1.443 19.499 8.24 29.035 15.476 4.831 3.667 9.06 6.392 9.396 6.055.336-.336-.542-2.355-1.952-4.486-4.251-6.422-13.475-15.803-19.423-19.751-3.081-2.045-8.798-4.832-12.704-6.194l-7.102-2.475-13.447.508c-11.598.438-13.188.318-11.56-.872 4.345-3.178 13.225-5.631 22.201-6.134 7.056-.395 10.408-.118 14.414 1.192 6.383 2.088 13.618 6.657 20.836 13.157l5.443 4.903-2.427-4.338c-3.119-5.575-9.394-11.335-15.989-14.677-6.034-3.058-16.496-5.494-22.971-5.35-2.475.055-6.631.459-9.237.898m-200.455 7.709c-.396 2.951-1.134 4.385-2.475 4.811-2.506.795-6.798 7.358-7.843 11.993-.456 2.02-.572 5.254-.258 7.187s1.976 5.604 3.694 8.157l3.124 4.642-.843 13.469c-.464 7.407-.942 13.568-1.064 13.689s-2.165-.448-4.541-1.267-5.112-1.237-6.079-.93c-1.19.377-2.362-.341-3.62-2.217-1.482-2.21-1.937-5.165-2.237-14.502-.241-7.533.238-16.281 1.34-24.461.943-7.004 2.036-13.605 2.43-14.668.465-1.258 1.886-2.061 4.071-2.301 3.569-.39 10.782-4.179 12.965-6.811.722-.87 1.445-1.449 1.606-1.288s.04 2.185-.27 4.497m337.378 3.184c-5.368 5.942-8.392 10.908-10.665 17.512-1.123 3.264-2.317 8.896-2.653 12.514-.739 7.95 1.257 18.568 5.593 29.744 2.981 7.684 7.02 14.933 7.032 12.622.004-.651-1.404-6.501-3.129-13-2.54-9.569-3.144-13.816-3.177-22.318-.029-7.847.512-12.469 2.145-18.291 1.202-4.286 3.785-10.969 5.741-14.853s3.365-7.252 3.131-7.485c-.233-.233-2.041 1.366-4.018 3.555m-61.65 8.01c4.618 6.765 8.602 15.95 9.585 22.098.548 3.426.851 3.874 1.651 2.444 1.539-2.75.101-12.195-2.742-18.005-2.449-5.007-9.358-12.473-11.541-12.473-.552 0 .819 2.671 3.047 5.936m-260.407 6.313c3.206 6.2-1.187 13.832-7.106 12.346-3.041-.763-3.998-3.939-3.065-10.166.506-3.372 1.235-4.75 2.825-5.338 3.232-1.196 5.627-.166 7.346 3.158m39.689-.262c7.558 4.793 12.265 6.945 17.779 8.127 3.599.772 4.745 1.372 3.783 1.981-.759.481-4.08.877-7.38.88-4.247.004-7.509-.697-11.164-2.399-2.841-1.323-6.103-3.343-7.25-4.49-2.012-2.012-2.929-7.086-1.282-7.086.443 0 2.924 1.344 5.514 2.987M895.8 771.2c1.658 1.658 1.504 5.303-.287 6.789-2.255 1.872-6.374.413-7.109-2.517-.358-1.426-.098-3.136.607-3.985 1.486-1.791 5.131-1.945 6.789-.287m182.378 3.105c5.918 2.628 14.822 9.993 14.822 12.26 0 1.924-11.529 7.157-18.781 8.523-3.454.652-6.504.96-6.778.687-.273-.274.001-1.798.611-3.386 1.954-5.098-.478-13.748-5.419-19.275l-2.133-2.385 6 .527c3.3.29 8.555 1.662 11.678 3.049m-208.91 2.445c-.509 3.342-1.65 3.943-4.268 2.248-1.253-.81-1.005-1.37 1.5-3.395 1.65-1.333 3.059-2.352 3.131-2.263.073.088-.091 1.622-.363 3.41m188.161 3.821c1.871 1.872 2.032 4.568.371 6.229-1.769 1.769-4.252 1.463-6.277-.774l-1.787-1.975 1.655-2.525c.91-1.389 2.288-2.526 3.061-2.526s2.112.707 2.977 1.571M937 785c0 .55.423 1 .941 1s1.219-.45 1.559-1-.084-1-.941-1-1.559.45-1.559 1m-218.947 36.5c-.8 7.425-1.702 13.497-2.004 13.493s-1.629-1.592-2.949-3.53c-2.885-4.237-3.888-12.146-2.091-16.485 1.291-3.117 5.375-6.978 7.38-6.978.81 0 .717 3.739-.336 13.5m-38.747-.474c3.724 2.929 4.198 5.458 1.685 8.986-1.179 1.657-2.53 2.773-3.003 2.481-1.31-.81-5.094-11.513-4.442-12.567.913-1.478 2.985-1.083 5.76 1.1m353.491 25.733c-.726 7.557-5.229 15.792-12.738 23.294-3.608 3.604-8.134 7.79-10.059 9.303l-3.5 2.751 4.335-.47c2.385-.258 8.166-2.307 12.846-4.553 4.681-2.246 8.713-4.084 8.959-4.084s.315.788.154 1.75c-.439 2.613 2.218 2.115 4.414-.827 3.24-4.339 3.661-8.715 1.658-17.206-1.003-4.25-2.669-9.375-3.702-11.388l-1.878-3.661zm-321.087-2.092 3.512 1.666-.465 4.844c-.261 2.718-1.266 5.728-2.29 6.86l-1.825 2.016-1.233-2.931c-.678-1.612-2.194-3.236-3.37-3.609-2.753-.875-6.806 1.744-8.143 5.261-1.299 3.417.176 6.846 3.619 8.415l2.544 1.159 3.763-3.674c5.956-5.816 6.646-5.206 6.878 6.086.179 8.691 1.266 14.565 4.856 26.24 1.243 4.042-10.972-11.481-17.115-21.75-6.81-11.386-10.418-19.018-10.431-22.066-.014-3.381 1.694-6.033 5.304-8.234 3.912-2.385 9.725-2.5 14.396-.283m244.989 3.113c-2.063 2.279-4.699 8.545-4.699 11.168 0 1.106.72 3.812 1.601 6.013 1.666 4.163 5.591 7.237 10.821 8.473l2.923.691-3.024-2.825c-5.858-5.472-8.253-13.124-6.337-20.242.631-2.343.965-4.442.742-4.665s-1.135.401-2.027 1.387M933.5 863.185c-5.252 7.026-22.736 23.09-32.449 29.815-11.641 8.06-16.74 12.498-18.691 16.271-2.279 4.406-3.122 11.74-2.215 19.269 1.367 11.353 2.073 11.816 3.476 2.277.741-5.039 2.313-10.705 3.744-13.5 2.676-5.225 5.788-8.383 21.299-21.611 11.063-9.434 21.428-21.582 25.818-30.258 1.534-3.031 2.615-5.683 2.403-5.894-.212-.21-1.735 1.423-3.385 3.631m46 .227c-2.984 1.326-8.223 6.238-7.421 6.957.232.207 6.834.598 14.671.868 11.916.41 14.25.256 14.25-.939 0-2.533-1.985-5.239-4.98-6.788-3.579-1.85-12.459-1.903-16.52-.098m620.03 4.088c-2.171 12.186-5.629 25.774-7.488 29.418-1.168 2.288-3.523 5.012-5.234 6.053-3.54 2.152-16.098 5.738-25.988 7.419-3.673.625-6.968 1.425-7.321 1.778s.853.928 2.679 1.278c12.156 2.327 29.252 7.104 31.361 8.763 1.375 1.082 3.238 3.39 4.139 5.129s3.309 9.912 5.352 18.162l3.714 15 1.196-6c2.406-12.072 6.265-25.082 8.385-28.267 1.196-1.797 4.248-4.308 6.781-5.58s10.521-3.628 17.75-5.233c7.229-1.606 13.143-3.196 13.144-3.532 0-.337-2.396-.894-5.325-1.239-8.346-.98-24.464-5.355-28.17-7.646-1.856-1.147-4.286-3.985-5.423-6.334-1.133-2.341-3.586-10.761-5.45-18.712l-3.39-14.457zM1053 885.297c0 .163 1.8 5.655 4 12.203 3.378 10.056 4 13.185 4 20.138 0 4.528-.473 9.477-1.052 10.999l-1.052 2.767 2.03-1.837c3.292-2.979 7.076-11.572 7.052-16.013-.012-2.23-.876-5.935-1.92-8.235s-4.228-7.812-7.074-12.25c-4.514-7.036-5.984-8.946-5.984-7.772m-288.908 8.875c4.466 2.51 8.54 7.91 10.024 13.287 1.132 4.097.384 10.602-1.683 14.643-2.072 4.05-7.982 8.699-12.66 9.959-5.646 1.521-12.335.495-17.029-2.612-4.354-2.881-7.277-7.151-8.861-12.944-.811-2.968-.779-5.408.125-9.5.96-4.342 2.119-6.376 5.49-9.629 2.35-2.268 6.012-4.606 8.138-5.197 5.205-1.446 11.746-.654 16.456 1.993m191.778 3.367c-4.747.739-11.497 2.079-15 2.977-14.814 3.797-37.497 12.617-44.054 17.129-4.693 3.23-6.183 7.239-4.74 12.752 4.257 16.251 16.832 43.869 26.002 57.103 10.022 14.465 24.254 26.524 37.797 32.027 12.082 4.91 33.188 6.932 45.326 4.343 8.227-1.755 15.272-5.297 20.776-10.445 8.569-8.015 9.998-11.372 15.635-36.723 1.981-8.911 6.254-24.353 9.495-34.315 6.193-19.033 7.026-24.739 4.499-30.787-1.663-3.981-6.59-7.947-12.675-10.205-6.487-2.407-21.74-2.411-29.607-.009l-6.176 1.886-6.324-2.515c-3.478-1.383-8.709-3.019-11.623-3.636-6.833-1.445-18.435-1.28-29.331.418M986 921.477c5.16.923 14.984 1.551 25 1.598 9.7.046 18.148.573 20.5 1.278 3.488 1.046 4.041 1.618 4.317 4.469.352 3.635-3.07 11.678-5.34 12.548-.786.302-5.378 1.079-10.204 1.726-9.897 1.327-35.479.664-44.273-1.148-3.025-.623-7.75-1.077-10.5-1.009-3.236.081-6.371-.579-8.886-1.869-3.468-1.779-4.11-1.836-5.972-.531-2.913 2.039-6.282 1.821-8.665-.562-1.576-1.576-2.445-1.797-3.934-1-2.619 1.402-7.38 1.286-8.881-.215-.682-.682-3.404-1.284-6.05-1.339-2.717-.056-5.844-.823-7.184-1.761-1.305-.914-3.285-1.664-4.401-1.666-2.769-.005-8.765-3.783-8.285-5.221.213-.641 1.693-1.515 3.287-1.941 2.666-.713 30.953-4.275 41.471-5.222 8.096-.728 29.318.313 38 1.865m-33 41.121c3.025 1.015 9.735 3.995 14.91 6.624s9.564 4.778 9.75 4.778c.187 0 .34-1.756.34-3.902 0-3.478.343-4.022 3.149-5 1.732-.604 4.32-1.094 5.75-1.088 4.297.016 12.352 4.4 16.464 8.961 2.124 2.356 4.767 6.33 5.873 8.83l2.011 4.545-1.843 1.348c-3.715 2.716-10.077 3.804-21.904 3.747-9.839-.048-13.798-.55-21.981-2.788-15.203-4.156-29.423-12.496-39.332-23.068-3.474-3.707-3.876-4.528-2.425-4.957.956-.283 6.688-.37 12.738-.194 7.281.212 12.86.943 16.5 2.164m-159.962 5.652c2.347 3.987 6.674 10.694 9.616 14.904 8.591 12.294 26.729 35.306 38.894 49.346 17.781 20.522 45.103 46.571 67.363 64.225 13.099 10.389 36.841 25.721 48.589 31.378 6.6 3.178 14.765 6.48 18.144 7.338 3.38.857 9.281 1.559 13.115 1.559h6.969l.541 22.75c.548 23.054 2.063 35.691 5.485 45.75l1.701 5 .769-11.5c1.254-18.731 4.389-50.946 5.02-51.577.322-.322 1.464-.114 2.539.461 1.731.926 1.898 1.836 1.461 7.947-.66 9.234 1.57 15.896 7.336 21.914l4.352 4.542-1.813 2.606c-2.823 4.059-4.119 8.88-4.119 15.321 0 3.876.758 7.676 2.198 11.024l2.198 5.11-1.869 1.076c-4.108 2.366-9.785 8.16-11.765 12.008-1.392 2.705-2.248 6.664-2.556 11.818l-.463 7.75-5.621.022c-3.288.013-7.31.789-9.687 1.868-5.848 2.657-11.198 7.708-13.983 13.204l-2.419 4.775-6.589-3.435c-5.742-2.992-7.512-3.431-13.767-3.412-7.861.024-12.952 1.79-18.39 6.381l-3.212 2.712-1.412-3.38c-2.122-5.079-7.403-10.569-12.79-13.299-3.748-1.899-6.366-2.436-11.888-2.436-4.923 0-8.286.582-11.033 1.909l-3.952 1.91v-2.372c0-1.305-.964-4.95-2.143-8.1-4.366-11.668-15.833-19.268-27.244-18.055-2.812.299-5.836.829-6.719 1.177-1.319.521-1.724-.366-2.264-4.956-.361-3.076-1.594-7.586-2.74-10.023-2.416-5.141-8.531-11.019-13.75-13.217-2.002-.844-6.449-1.587-9.882-1.653l-6.242-.12-.008-3.568c-.004-1.963-.731-6.013-1.616-9-1.2-4.056-2.918-6.745-6.783-10.618-4.167-4.175-6.37-5.517-11.306-6.889l-6.13-1.705.512-5.11c.84-8.405-3.656-17.974-10.795-22.974-1.932-1.354-2.044-1.849-.994-4.385.651-1.572 1.56-5.984 2.02-9.804s2.038-12.076 3.507-18.344c4.892-20.877 6.008-32.265 6.037-61.603.015-15.514-.533-32.318-1.289-39.5-1.555-14.784-4.947-39.718-5.744-42.23-1.096-3.455.401-1.675 4.611 5.48M1244.647 982c-5.295 21.618-11.14 39.18-13.891 41.738-1.241 1.154-5.076 3.042-8.523 4.196-8.999 3.014-42.03 11.066-45.392 11.066-5.781 0-2.534 1.565 7.912 3.812 16.27 3.501 36.138 9.013 41.818 11.602 3.717 1.694 5.515 3.248 6.736 5.821 2.084 4.391 8.146 25.334 10.788 37.265 1.096 4.95 2.476 10.8 3.068 13l1.076 4 3.356-14.966c3.93-17.527 9.503-35.65 12.408-40.352 1.268-2.052 3.852-4.119 6.774-5.417 2.598-1.155 15.073-4.678 27.723-7.83s22.325-5.952 21.5-6.221-8.7-2.168-17.5-4.218c-21.964-5.116-34.259-9.133-36.997-12.087-1.23-1.328-3.174-5-4.32-8.161-2.624-7.237-7.335-24.578-10.391-38.248l-2.348-10.5zm-297.407 9.685c4.543 2.256 11.215 5.01 14.827 6.119 3.612 1.11 10.859 2.53 16.103 3.157 6.727.803 11.911.84 17.598.127 9.631-1.207 18.19-4.056 22.837-7.6 1.867-1.424 3.395-2.333 3.395-2.019s-1.076 2.249-2.391 4.301c-7.889 12.307-21.223 17.453-39.381 15.196-10.848-1.348-21.644-4.907-29.056-9.58-5.385-3.395-22.172-18.991-22.172-20.599 0-.416 2.245.943 4.99 3.02s8.707 5.623 13.25 7.878M580.691 1024c-.288.825-1.718 6.675-3.177 13s-4.06 16.166-5.779 21.868c-2.185 7.251-3.955 11.198-5.885 13.128-3.042 3.042-9.04 4.905-32.35 10.047-7.7 1.698-14.675 3.33-15.5 3.626-.825.297 8.625 3.206 21 6.466s23.625 6.748 25 7.751 3.26 3.126 4.188 4.719c2.095 3.592 6.017 16.966 9.794 33.395 1.581 6.875 2.92 12.275 2.975 12s2.357-9.275 5.114-20 6.101-21.878 7.431-24.785c1.917-4.188 3.205-5.617 6.208-6.888 2.085-.882 13.237-3.981 24.783-6.886 14.12-3.552 20.177-5.458 18.5-5.823-14.359-3.122-39.444-9.717-43.065-11.322-3.413-1.512-5.041-3.011-6.422-5.911-1.018-2.137-4.2-13.335-7.071-24.885s-5.456-20.325-5.744-19.5m200.277 56.959c1.276.807 1.173 2.529-.792 13.193-1.243 6.746-2.49 12.496-2.772 12.777-.282.282-.826.026-1.208-.568-1.086-1.688-7.332-4.656-11.196-5.32l-3.5-.601.031-5.009c.023-3.63.684-5.924 2.401-8.336 3.776-5.302 13.065-8.648 17.036-6.136m710.996 11.447c.503 1.323 1.426 6.141 2.052 10.708l1.136 8.302-1.723 1.26c-.948.693-2.062 1.051-2.475.795s-1.501-3.832-2.417-7.948-2.106-7.756-2.645-8.09-1.53-.148-2.203.41c-.932.774-.999 3.335-.28 10.758l.943 9.742-3.38 2.821c-1.859 1.552-4.975 3.076-6.926 3.387-7.086 1.128-8.255 1.572-10.49 3.983-1.25 1.349-3.252 5.494-4.447 9.21s-2.802 7.881-3.569 9.256c-1.655 2.965-1.616 3.063-4.025-10-.963-5.225-3.351-13.775-5.305-19-1.955-5.225-3.755-12.078-4.001-15.23l-.446-5.729 2.661-1.012c1.464-.557 9.505-1.9 17.869-2.985 28.508-3.7 28.507-3.7 29.671-.638m-463.984 15.844c6.248 3.192 10.195 8.521 10.774 14.545.63 6.558-1.687 11.205-5.589 11.205-1.53 0-5.456 1.61-8.724 3.578l-5.941 3.577-4.323-2.1-4.324-2.1.607-9.228c.333-5.075.848-11.585 1.143-14.467l.538-5.239 3.18-.921c5.156-1.492 7.992-1.234 12.659 1.15m-258.849 2.348c6.782 3.43 10.429 12.593 7.686 19.315l-1.35 3.309-7.081.285c-6.915.278-11.838 1.938-15.646 5.278l-1.761 1.544-2.618-2.415c-2.957-2.726-5.364-7.729-5.355-11.132.018-7.597 5.595-15.262 12.698-17.453 4.164-1.284 9.347-.795 13.427 1.269m767.335 4.823c1.905.796 4.579 3.2 6.077 5.465 2.138 3.231 3.539 8.421 6.971 25.829 2.362 11.982 5.013 24.55 5.89 27.929.878 3.38 1.596 6.362 1.596 6.627 0 .616-22.19-8.264-27.567-11.031-5.329-2.744-6.777-4.577-5.875-7.442.398-1.264 2.46-4.861 4.583-7.993 2.122-3.132 3.859-5.914 3.859-6.182s-4.162 1.447-9.25 3.809-11.05 4.869-13.25 5.569c-7.626 2.425-13.599 6.098-21.599 13.281-12.788 11.481-20.25 17.718-21.199 17.718-.484 0 .355-1.463 1.864-3.25 3.68-4.358 7.412-12.547 7.424-16.288.006-1.671-1.003-5.046-2.24-7.5-1.571-3.116-3.456-5.065-6.25-6.462-2.2-1.1-4.154-2.079-4.341-2.175s-.042-1.119.325-2.274c1.027-3.238 11.19-13.72 17.946-18.511 3.338-2.367 8.77-5.656 12.07-7.308 6.216-3.112 21.386-8.736 27.5-10.196 5.516-1.316 11.765-1.161 15.466.385m-70.466 19.02c0 .243-.45.719-1 1.059s-1 .141-1-.441.45-1.059 1-1.059 1 .198 1 .441m-687.869 9.141c3.684 1.885 7.613 6.831 8.938 11.253.831 2.774.828 4.833-.01 7.947-.929 3.449-2.068 4.808-6.346 7.575-2.867 1.854-6.308 4.562-7.647 6.018-2.055 2.233-2.992 2.55-6 2.03-8.568-1.481-15.066-9.42-15.066-18.405 0-8.118 5.413-15.749 12.791-18.034 3.269-1.011 9.734-.228 13.34 1.616m272.292.791c1.99 1.518 4.348 3.874 5.239 5.234 2.213 3.377 3.261 9.8 2.297 14.076-.439 1.947-2.044 4.84-3.566 6.429-2.442 2.548-3.48 2.893-8.83 2.932-3.335.024-7.829.673-9.987 1.442-2.528.901-4.525 1.076-5.613.494-.929-.497-3.07-2.477-4.758-4.4-3.642-4.147-4.883-10.348-3.271-16.336 1.173-4.354 4.927-8.562 10.309-11.555 2.377-1.322 4.785-1.712 8.909-1.443 4.262.277 6.542 1.046 9.271 3.127m14.714-1.746c.898.495 16.285 31.899 24.68 50.373 8.032 17.674 19.743 46.41 26.692 65.5 3.807 10.457 41.105 119.084 47.291 137.732.864 2.602 1.374 4.884 1.135 5.072s-4.26 2.538-8.935 5.225c-16.25 9.34-33.075 20.425-48.243 31.784-8.391 6.284-27.779 21.875-43.084 34.646s-28.13 22.917-28.5 22.547-.832-6.003-1.026-12.519c-.36-12.056.682-23.302 3.454-37.27.849-4.28 1.373-8.296 1.163-8.924-.632-1.898-8.746 15.511-12.222 26.222-1.79 5.517-3.462 10.239-3.717 10.493-.254.255-3.495-2.682-7.202-6.526-9.065-9.4-19.478-18.262-27.503-23.404-11.172-7.159-12.024-7.228-5.506-.443 10.468 10.898 20.227 22.83 26.917 32.912 3.537 5.33 6.73 10.471 7.096 11.423l.665 1.732-2.896-1.477c-4.909-2.503-40.175-15.322-53.896-19.59-17.522-5.451-33.222-9.419-51.643-13.052-26.65-5.256-47.96-7.52-81.574-8.666l-20.218-.689-.971-3.114c-.534-1.713-2.835-10.539-5.113-19.614-11.804-47.013-30.181-101.204-49-144.5-7.26-16.701-24.631-50.93-32.226-63.5-3.49-5.775-9.868-15.807-14.174-22.293s-7.66-11.923-7.455-12.081 3.524-2.013 7.374-4.123c8.598-4.712 22.893-14.167 31.229-20.655 3.425-2.666 6.359-4.848 6.519-4.848s.124 3.299-.079 7.33c-.3 5.934.056 8.322 1.866 12.53 2.93 6.811 10.342 13.538 16.723 15.177l4.742 1.219.056 7.124c.043 5.467.622 8.257 2.49 11.999 1.34 2.681 4.342 6.553 6.672 8.604 4.884 4.299 13.546 7.393 19.193 6.854l3.853-.367.489 6.092c.269 3.35 1.272 7.742 2.229 9.759 2.523 5.318 8.923 11.493 14.325 13.823 3.684 1.589 6.336 1.952 12.334 1.688l7.642-.337.626 5.327c1.113 9.47 7.022 18.257 15.062 22.398 6.541 3.37 16.914 3.51 24.642.334 1.282-.527 1.75.187 2.275 3.474.982 6.135 4.987 13.281 9.713 17.326 2.299 1.968 6.429 4.326 9.178 5.239 9.132 3.033 20.355.5 26.934-6.079l2.688-2.687 1.598 3.836c2.018 4.844 7.813 10.893 13.001 13.572 2.379 1.228 6.737 2.261 10.753 2.549 4.943.355 7.969.021 11.29-1.247 2.495-.953 5.944-2.917 7.665-4.365 3.73-3.139 8.792-10.835 8.792-13.368 0-.992.205-1.804.456-1.804.25 0 2.069 1.095 4.041 2.433 12.405 8.418 27.909 6.841 37.243-3.79 4.633-5.276 6.557-11.369 6.108-19.341l-.383-6.802 6.518-.039c7.521-.045 12.595-2.105 17.664-7.174 1.837-1.837 4.347-5.241 5.579-7.564 1.776-3.348 2.224-5.776 2.162-11.723-.057-5.452-.684-8.86-2.296-12.479-1.264-2.839-1.788-5.122-1.22-5.312 2.671-.89 9.482-6.685 11.907-10.13 2.961-4.207 8.762-8.507 16.971-12.58 5.132-2.546 6.757-4.499 3.743-4.499-.829 0-4.992 2.399-9.25 5.331l-7.743 5.331-.033-7.581c-.025-5.894-.536-8.537-2.293-11.876-1.243-2.362-3.823-6.024-5.732-8.138l-3.472-3.843 2.39-4.862c1.314-2.674 2.665-6.703 3.001-8.954.793-5.302-1.688-14.837-4.984-19.158l-2.539-3.329 2.831.678c1.557.373 3.117.835 3.468 1.028m31.643 4.923c1.817.401 4.078 4.214 11.158 18.823 15.82 32.639 28.542 64.118 51.513 127.455 17.731 48.891 41.67 112.732 46.947 125.204.506 1.194-2.836 3.184-15.111 9-17.701 8.388-37.152 19.485-54.274 30.966-21.111 14.155-48.418 36.388-78.476 63.895l-14.635 13.392-6.201-2.742c-31.388-13.881-52.238-21.915-77.809-29.983-28.144-8.88-53.554-14.711-79.313-18.202-14.783-2.002-65.36-2.932-81.079-1.49-6.6.606-14.114 1.391-16.699 1.745l-4.698.645-.509-2.379c-.279-1.309-2.118-11.154-4.087-21.879-3.705-20.189-12.682-57.497-19.49-81-10.593-36.565-25.633-77.571-39.827-108.587-10.84-23.687-27.367-53.435-40.337-72.608-2.119-3.132-3.853-6.099-3.853-6.593s4.035-2.735 8.968-4.982l8.967-4.084 5.351 7.677c13.327 19.123 22.776 35.293 35.543 60.82 10.361 20.714 25.288 55.63 34.006 79.543 12.85 35.245 24.333 73.333 33.407 110.814l3.269 13.5 25.494.616c14.022.339 30.445 1.15 36.495 1.802 15.04 1.622 34.889 4.588 47.5 7.099 30.832 6.139 68.05 17.726 107.355 33.421l21.856 8.727 4.144-3.27c3.943-3.11 22.848-18.607 40.145-32.906 30.306-25.054 56.506-43.495 83.235-58.583 6.729-3.798 12.242-7.423 12.25-8.054s-3.176-10.307-7.077-21.5c-3.901-11.194-13.309-38.577-20.908-60.852-31.37-91.964-41.44-117.591-64.382-163.843-3.64-7.339-6.618-13.442-6.618-13.563 0-.306 15.007 1.344 17.78 1.956m370.762 14.496c4.073 4.501.7 13.789-7.881 21.699-4.535 4.181-13.354 9.255-16.083 9.255-1.217 0-1.029-1.233 1.025-6.75 1.383-3.713 4.103-9.166 6.045-12.12 4.805-7.306 11.24-14.13 13.324-14.13.945 0 2.551.921 3.57 2.046m65.499 18.299c26.965 9.268 43.959 16.205 48.135 19.648 2.023 1.667 4.217 4.667 4.876 6.665 1.631 4.942.662 14.023-2.068 19.374l-2.238 4.387 2.351 1.541c6.27 4.107 10.367 7.855 12.051 11.024 1.019 1.917 1.852 5.364 1.852 7.661s-.894 7.029-1.987 10.516-1.993 7.135-2 8.109c-.007.973 1.119 4.556 2.503 7.962s2.777 8.46 3.095 11.23c.762 6.634-1.57 12.753-10.72 28.138-3.893 6.545-12.409 21.419-18.923 33.053-15.049 26.878-17.744 31.205-18.264 29.328-.225-.815-1.868-10.481-3.65-21.481s-3.474-21.209-3.759-22.686l-.519-2.686 4.362 1.295c7.103 2.109 11.862 2.772 11.862 1.653 0-.558-2.362-2.542-5.25-4.409-5.119-3.31-10.514-8.326-9.671-8.991.232-.182 3.917-.854 8.191-1.493 7.259-1.086 15.739-4.297 15.723-5.953-.004-.402-4.616-.762-10.25-.801-6.16-.043-15.346-1.01-23.045-2.426-11.49-2.113-13.331-2.219-17.956-1.033-2.835.726-9.674 3.273-15.198 5.659-8.758 3.783-10.812 5.164-16.044 10.79-5.453 5.865-10.676 9.581-13.465 9.581-.585 0 .126-1.797 1.579-3.993 2.984-4.509 3.598-10.374 1.497-14.299-.742-1.387-2.87-3.341-4.73-4.342s-3.379-2.506-3.376-3.343c.008-2.367 4.13-8.425 7.995-11.752 5.873-5.055 20.237-13.988 30.357-18.881l9.593-4.638 22.275-.754 22.275-.755 8.21-2.652c4.516-1.459 8.409-2.976 8.652-3.372s-13.576-.713-30.71-.707l-31.152.013-5.5 2.224c-12.632 5.109-37.665 20.936-44.14 27.908-2.928 3.154-6.215 9.341-7.253 13.656-.557 2.314-1.14 2.758-3.287 2.5-2.165-.26-2.812-1.081-3.79-4.813-.649-2.475-2.832-7.2-4.852-10.5s-3.674-6.931-3.675-8.068c-.007-5.195 3.208-12.299 8.431-18.631 6.434-7.8 24.54-24.358 36.367-33.257l8.302-6.246 22.198-.623c16.008-.448 24.909-1.17 31.915-2.587 5.344-1.08 11.757-2.867 14.25-3.97s4.534-2.146 4.534-2.319c0-.172-6.842-.146-15.205.058-18.124.442-39.516-1.371-41.982-3.558-1.413-1.252-2.307-1.297-5.5-.274-10.181 3.261-32.849 19.365-47.952 34.068l-7.139 6.949-3.977-4.771c-4.697-5.636-7.822-11.501-8.743-16.408-.366-1.95-.136-5.507.51-7.906.867-3.22 3.048-6.302 8.331-11.77 9.14-9.461 41.126-36.411 48.447-40.82 4.846-2.918 6.473-3.367 12.192-3.367 5.5 0 9.676 1.057 25.059 6.345m-732.273-3.797c4.942 2.064 8.108 5.111 10.342 9.952 2.203 4.774 2.382 9.397.533 13.782-.746 1.77-3.652 5.356-6.457 7.968l-5.1 4.75h-5.593c-3.076 0-6.807-.635-8.293-1.411-3.074-1.606-7.419-6.044-9.078-9.273-1.551-3.019-1.406-11.717.259-15.598.759-1.77 2.897-4.625 4.75-6.345 5.671-5.264 12.057-6.575 18.637-3.825m253.05 7.049c3.755 1.871 5.919 3.805 7.747 6.924 1.395 2.38 2.798 5.941 3.118 7.912 1.215 7.49-5.388 17.465-12.61 19.051-1.84.404-4.985.069-7.825-.834-2.611-.83-6.154-1.789-7.872-2.131-5.557-1.107-9.376-7.022-9.376-14.519 0-2.128.479-5.137 1.064-6.685 2.351-6.224 10.918-12.246 17.49-12.293 1.679-.012 5.398 1.147 8.264 2.575m-134.293 17.795c5.571 15.405 19.273 37.462 26.663 42.921 1.479 1.092 4.854 2.32 7.5 2.728s4.898.668 5.003.577-2.456-2.283-5.69-4.871c-6.685-5.35-14.231-14.891-25.624-32.401a5634 5634 0 0 0-9.111-13.976c-.678-1.029-.112 1.231 1.259 5.022m-82.162 8.261c5.06 3.515 8.637 10.182 8.637 16.099 0 4.989-2.577 10.576-6.658 14.434-3.526 3.334-7.322 4.814-12.342 4.814-5.01 0-8.801-1.474-12.376-4.814-3.467-3.238-6.572-9.62-6.602-13.57-.062-8.148 5.877-16.977 13.025-19.363 5.356-1.788 11.61-.868 16.316 2.4m206.202 15.832c3.029 1.775 4.984 3.976 6.838 7.697 1.428 2.866 2.597 6.834 2.597 8.818 0 4.829-4.226 13.051-8.228 16.01-2.272 1.68-4.964 2.521-9.009 2.813-3.298.239-7.047-.112-8.755-.819-4.303-1.783-9.718-8.213-11.036-13.107-.624-2.318-.835-5.831-.468-7.806 1.046-5.636 4.593-11.034 8.975-13.661 2.919-1.75 5.505-2.414 9.433-2.421 3.973-.006 6.54.652 9.653 2.476m-168.357 13.1c2.276 1.603 5.221 4.94 6.544 7.415 1.936 3.622 2.33 5.606 2.019 10.169-.285 4.171-1.135 6.749-3.218 9.754-1.557 2.247-4.456 5.095-6.442 6.329-2.775 1.724-5.043 2.227-9.793 2.174-4.916-.056-6.99-.605-10.129-2.682-5.08-3.362-8.189-9.661-8.189-16.592 0-2.869.62-6.664 1.377-8.434s2.67-4.402 4.25-5.849c5.018-4.596 8.43-5.933 14.158-5.551 3.841.256 6.416 1.149 9.423 3.267m134.538 19.953c2.024.846 4.533 2.309 5.574 3.25 3.334 3.015 5.68 8.882 5.68 14.204 0 14.55-11.31 23.481-24.701 19.504-3.46-1.027-6.132-2.68-8.272-5.118-1.738-1.98-3.618-4.788-4.177-6.239-1.619-4.204-1.148-11.637 1.001-15.815 2.295-4.463 6.601-8.793 10.149-10.203 3.775-1.501 10.618-1.307 14.746.417m-95.464 2.809c4.534 1.898 10.471 8.82 11.285 13.156.373 1.992.45 5.652.17 8.134-.565 5.017-4.277 10.402-9.728 14.113-2.538 1.728-4.72 2.249-9.407 2.246-4.41-.002-7.046-.579-9.505-2.078-1.872-1.141-4.226-3.052-5.232-4.247-2.829-3.361-5.239-11.866-4.491-15.853.358-1.905 1.937-5.494 3.51-7.973 4.855-7.657 15.144-10.953 23.398-7.498m51.681 12.202c7.598 5.137 10.76 14.65 7.611 22.896-1.999 5.234-7.813 10.819-13.068 12.553-4.739 1.564-11.695.666-16.145-2.084-1.858-1.148-4.606-4.183-6.107-6.743-2.125-3.626-2.71-5.873-2.647-10.163.131-8.874 4.588-15.626 12.538-18.992 1.295-.549 4.852-.867 7.905-.707 4.178.218 6.627 1.019 9.913 3.24m477.511 32.401c.839 1.623 1.511 3.986 1.493 5.25l-.034 2.3-1.966-2.361c-1.082-1.298-1.967-3.661-1.967-5.25s.213-2.889.474-2.889 1.161 1.328 2 2.95m26.955 12.621c2.325 2.326 1.912 6.293-1.06 10.19-2.685 3.52-10.745 9.239-13.02 9.239-.978 0-.926-.947.228-4.217 1.62-4.592 5.806-12.25 8.217-15.033.834-.963 2.089-1.75 2.79-1.75.7 0 1.98.707 2.845 1.571m48.03 9.55c2.415 10.617 7.205 39.243 9.602 57.379 1.456 11.021 2.009 19.742 1.776 28.026l-.337 12.026-3.5 6.974c-2.416 4.815-4.829 7.972-7.792 10.197-6 4.505-11.055 5.694-18.577 4.369-3.334-.587-8.448-2.235-11.364-3.662-6.291-3.078-14.151-10.478-16.55-15.581-.975-2.072-1.717-6.04-1.717-9.174 0-3.037 1.406-11.294 3.124-18.348l3.124-12.827-.624-17.5c-.344-9.625-.899-19.187-1.234-21.25-.497-3.064-.307-3.75 1.04-3.75 3.436 0 10.314-4.539 16.981-11.205 3.801-3.801 8.18-7.566 9.73-8.368 2.361-1.221 11.739-4.136 14.029-4.361.368-.036 1.398 3.138 2.289 7.055m12.523 4.869c1.018.545 2.55 3.133 3.404 5.75 3.905 11.974 9.614 53.698 9.614 70.271 0 11.553-1.55 18.685-5.577 25.652-1.323 2.29-3.925 5.102-5.782 6.25s-3.629 2.087-3.937 2.087.766-2.588 2.386-5.75c3.179-6.208 5.865-17.16 5.893-24.028.026-6.526-2.697-31.344-6.004-54.722-3.855-27.251-3.778-26.5-2.74-26.5.491 0 1.725.446 2.743.99m-40.503 57.331c-1.959 1.959-3.602 4.817-4.005 6.967-.512 2.727-.142 4.767 1.466 8.089 1.636 3.378 3.092 4.819 6.081 6.015 3.283 1.313 4.546 1.369 7.668.34 5.011-1.652 8.311-6.614 8.311-12.498 0-3.858-.531-5-3.882-8.352-3.283-3.282-4.534-3.882-8.1-3.882-3.444 0-4.828.61-7.539 3.321m11.692 4.334c2.474 2.239 2.383 7.791-.171 10.345-1.1 1.1-2.758 2-3.686 2-2.62 0-6.314-4.067-6.314-6.952 0-3.786 2.651-7.048 5.728-7.048 1.438 0 3.437.745 4.443 1.655M1258 1632.46c-16.43 3.528-29.663 10.224-39.589 20.034-3.898 3.853-8.775 9.909-10.836 13.457-5.081 8.745-9.295 21.786-10.533 32.595-1.4 12.225-1.372 138.574.034 151.182 1.296 11.619 4.846 23.471 9.667 32.272 2.168 3.958 6.77 9.689 11.768 14.653 6.472 6.43 9.98 9.008 16.598 12.195 4.615 2.223 12.216 5.064 16.891 6.313 7.119 1.902 11.1 2.276 24.5 2.305 12.097.026 17.905-.413 23.811-1.798 13.95-3.271 26.867-9.618 36.131-17.751 5.416-4.756 12.92-15.832 16.412-24.226 1.645-3.955 3.791-11.241 4.769-16.191 1.522-7.713 1.784-14.912 1.827-50.335l.05-41.336-2.361-1.914-2.361-1.915h-74.468l-1.621 1.791c-1.379 1.524-1.636 4.958-1.728 23.09-.096 18.876.088 21.516 1.62 23.209 1.477 1.632 3.152 1.91 11.489 1.91h9.759l.721 7.691c.396 4.23.418 12.892.048 19.25-.52 8.939-1.174 12.578-2.885 16.058-1.217 2.474-3.743 5.512-5.614 6.752-7.593 5.031-16.906 5.31-24.703.741-2.346-1.375-5.132-3.735-6.192-5.246-4.724-6.734-4.704-6.381-4.704-82.746v-72l2.299-4.988c1.264-2.743 3.289-6.049 4.5-7.347 5.941-6.369 16.552-8.049 24.726-3.915 2.471 1.25 5.682 4.028 7.224 6.25 3.345 4.82 4.737 12.328 4.745 25.595.005 8.021.306 9.867 1.835 11.25 1.601 1.449 5.011 1.655 27.427 1.655h25.599l2.197-2.75 2.198-2.75-.629-15.5c-.655-16.168-2.665-27.282-6.587-36.425-3.402-7.929-10.681-18.088-17.167-23.957-3.315-3-9.045-7.04-12.734-8.979s-10.741-4.729-15.67-6.201c-7.803-2.33-11.099-2.721-25.463-3.025-11.541-.244-18.453.071-23 1.047m-928.077 6.463-2.923 2.923.006 101.327c.005 83.331.263 103.014 1.452 110.827 2.613 17.162 8.203 29.391 18.371 40.189 3.48 3.696 8.88 8.418 12 10.493 7.805 5.191 20.68 9.808 33.093 11.868 7.707 1.278 13.439 1.579 22 1.155 6.642-.329 14.989-1.461 19.578-2.655 26.514-6.899 45.391-24.705 52.532-49.55 1.287-4.477 2.381-12.766 3.036-23 .616-9.626.906-52.984.728-108.837l-.296-92.837-2.806-2.413-2.806-2.413h-49.979l-2.454 2.455-2.455 2.454v103.42c0 90.385-.193 103.967-1.534 107.767-.843 2.391-2.531 5.416-3.75 6.723s-3.977 3.278-6.129 4.382c-3.078 1.578-5.344 1.925-10.611 1.628-5.16-.292-7.619-.989-10.715-3.038-2.408-1.593-4.869-4.416-6.14-7.041l-2.121-4.381v-103.036c0-69.367-.343-104.019-1.05-106.046-.577-1.656-2.173-3.523-3.547-4.149-1.645-.75-10.696-1.138-26.527-1.138h-24.03zm193.693-.673-2.495 2.25-.653 133.583-.654 133.583 3.17 2.667 3.169 2.667h45.625l2.361-1.911 2.361-1.912.5-64.838.5-64.839 7.321 21c4.027 11.55 14.107 40.936 22.399 65.301l15.078 44.301 2.801 1.449c2.219 1.148 7.814 1.449 26.897 1.449h24.095l2.454-2.455 2.455-2.454v-267.182l-2.455-2.454-2.454-2.455h-22.595c-24.375 0-27.616.585-28.855 5.21-.338 1.259-.665 30.865-.728 65.79l-.114 63.5-12.504-38c-6.877-20.9-16.62-50.589-21.65-65.975-7.926-24.247-9.478-28.143-11.645-29.235-1.807-.911-9.345-1.265-27.194-1.275l-24.694-.015zm194.748-1.08c-1.175.568-2.637 2.134-3.25 3.479-.801 1.758-1.114 39.696-1.114 134.944v132.498l2.455 2.454 2.454 2.455h50.182l2.454-2.455 2.455-2.454V1798h42v110.091l2.455 2.454 2.454 2.455h49.821l2.635-2.073 2.635-2.072v-268.71l-2.635-2.072-2.635-2.073h-49.821l-2.454 2.455-2.455 2.454V1745h-42l-.014-50.75c-.007-27.912-.289-51.781-.627-53.04-.337-1.26-1.884-2.947-3.436-3.75-2.251-1.164-7.551-1.446-26.123-1.392-13.857.04-24.166.487-25.436 1.102m195.331.856-2.695 2.119v268.545l2.103 1.905 2.103 1.905 25.202.297 25.203.297 2.694-2.12 2.695-2.119v-267.633l-1.91-2.361-1.91-2.361-25.396-.297-25.395-.297zm93.479.288-2.174 2.315v268.061l2.063 1.867 2.063 1.867 23.687.038 23.687.038 2.25-2.205 2.25-2.204.03-64.796c.019-40.272.382-64.195.958-63.21 1.04 1.779 18.454 52.564 34.021 99.213l10.276 30.798 2.808 1.452c2.221 1.148 7.721 1.452 26.31 1.452 15.437 0 24.36-.391 26-1.138 1.374-.626 2.957-2.456 3.519-4.067 1.448-4.155 1.485-262.328.038-266.479-.583-1.672-2.183-3.552-3.557-4.178-1.628-.742-10.264-1.138-24.815-1.138h-22.318l-2.635 2.073-2.635 2.072-.024 66.178-.025 66.177-14.458-43.5c-7.953-23.925-17.939-54.235-22.191-67.357-6.657-20.538-8.059-23.98-10.082-24.75-1.293-.491-13.717-.893-27.611-.893h-25.26zm384.44-.019-2.614 2.614V1908l2 2 2 2 65.75.156c36.162.085 66.875.051 68.25-.075 1.375-.127 3.287-.942 4.25-1.811 1.569-1.416 1.75-3.929 1.75-24.27v-22.69l-1.829-1.655c-1.529-1.384-4.271-1.655-16.75-1.657-8.206-.001-26.059-.298-39.671-.66l-24.75-.658V1797h63.651l2.175-2.314 2.174-2.315v-44.061l-1.813-1.641c-1.587-1.436-5.789-1.673-33.75-1.905l-31.937-.264-.266-27.75-.266-27.75h77.683l2.175-2.314 2.174-2.315v-44.061l-1.78-1.611c-1.583-1.432-9.222-1.689-68.886-2.314l-67.106-.704zm170.841.16-2.455 2.454v266.714l2.088 2.241 2.087 2.241 48.663-.359 48.662-.359 8.5-2.235c4.675-1.229 11.875-3.879 16-5.889 5.61-2.734 9.526-5.685 15.537-11.709 4.843-4.855 9.29-10.452 11.194-14.089 4.162-7.955 6.96-18.601 8.233-31.321 1.31-13.093 1.34-119.818.039-138.644-1.038-15.02-3.383-25.364-7.67-33.839-3.744-7.399-10.734-16.141-16.64-20.81-6.89-5.445-16.841-10.322-26.334-12.904-6.758-1.838-12.06-2.256-37.859-2.98-16.5-.463-38.458-.87-48.795-.904l-18.796-.063zm87.233 52.49c2.414 1.096 5.462 3.66 7.195 6.052 1.653 2.282 3.493 6.497 4.089 9.367.732 3.526.993 26.935.806 72.177l-.278 66.959-2.241 4.192c-2.681 5.016-7.305 8.715-12.759 10.204-2.2.601-8.764 1.095-14.588 1.098l-10.587.006-.663-39.164c-.364-21.54-.662-60.24-.662-86V1689l12.75.022c10.362.018 13.534.378 16.938 1.923"/></svg>