<svg xmlns="http://www.w3.org/2000/svg" viewBox="0 0 2048 2048"><path fill-rule="evenodd" d="m1017.75 227.723-6.75.368v111.676l2.25.603c3.717.996 35.078.706 40.79-.378 7.194-1.364 14.874-5.016 19.681-9.359 4.814-4.349 9.637-13.102 11.984-21.746 1.322-4.872 1.729-10.302 1.713-22.887-.024-18.713-1.442-26.514-6.57-36.134-5.768-10.822-16.78-18.731-28.954-20.795-6.608-1.121-25.003-1.847-34.144-1.348m-77 1.005-3.75.393v111.931l15.25-.276 15.25-.276.258-56.25.259-56.25-11.759.168c-6.467.093-13.445.345-15.508.56m152.268 37.522c.01 20.488.441 41.3.959 46.25.731 6.981 1.68 10.448 4.232 15.456 4.014 7.875 9.329 12.203 18.438 15.017 7.963 2.459 18.89 2.651 26.266.46 7.118-2.114 13.348-7.96 16.279-15.276l2.267-5.657.336-44.384c.185-24.411-.03-44.721-.479-45.134-.449-.412-6.553-1.061-13.566-1.442l-12.75-.693v41.011c0 40.325-.361 45.479-3.313 47.356-2.256 1.435-6.384.778-8.282-1.318l-1.905-2.104-.299-42.748-.299-42.749-9.701-.642c-5.336-.354-11.613-.645-13.951-.648L1093 229zm-226.865-35.507-6.346.357.346 26.307.347 26.306-4.621-8.606c-2.542-4.734-8.167-15.399-12.5-23.7s-8.554-16.027-9.379-17.168l-1.5-2.075-14.235.557-14.234.558.516 56.559c.284 31.107.675 56.718.87 56.912s6.592-.008 14.218-.448l13.865-.802.5-25.934.5-25.935 5.618 10.435c3.09 5.739 9.165 17.11 13.5 25.27l7.882 14.835 7.401-.585c4.07-.322 10.258-.586 13.75-.586H889V230l-8.25.193c-4.538.106-11.106.353-14.597.55M1172 288.905v56.004l3.25.499c1.787.274 7.63.771 12.984 1.104l9.733.606.267-26.809c.17-17.154.594-26.089 1.178-24.809.502 1.1 3.935 8.75 7.629 17 3.695 8.25 9.016 19.809 11.826 25.687l5.109 10.687 4.262.525c2.344.288 7.975.798 12.512 1.131l8.25.607v-56.009c0-30.806-.338-56.217-.75-56.469s-6.263-.787-13-1.188l-12.25-.728-.069 25.379-.07 25.378-4.511-9.5c-2.481-5.225-7.367-15.8-10.857-23.5s-6.939-15.209-7.664-16.688l-1.318-2.687-7.505-.583a1134 1134 0 0 1-13.256-1.112l-5.75-.529zm-382.5-54.294c-1.65.16-14.475 1.007-28.5 1.881s-26.513 1.805-27.75 2.068l-2.25.478V353h4.394c2.417 0 9.014-.474 14.661-1.054 5.647-.579 17.669-1.644 26.714-2.365 11.755-.938 16.702-1.707 17.341-2.697.492-.761.781-6.334.642-12.384l-.252-11-3 .091c-1.65.05-8.737.417-15.75.815l-12.75.725v-21.873l10.25-.68c5.638-.373 11.712-.931 13.5-1.24l3.25-.561v-22.755l-9.25.523c-5.087.287-11.163.724-13.5.97l-4.25.447v-18.745l2.25-.547c1.237-.3 8.212-.862 15.5-1.249l13.25-.703v-12.359c0-6.797-.337-12.287-.75-12.199s-2.1.291-3.75.451m470.148 7.397c-.789 3.948-.803 88.229-.017 100.582l.643 10.09 13.03 1.159c7.167.638 13.293.898 13.614.578.32-.32.737-9.401.927-20.181l.345-19.6 3.941 9.432a9515 9515 0 0 1 8.499 20.432c2.507 6.05 4.929 11.39 5.382 11.868s7.273 1.652 15.156 2.612c7.882.959 14.445 1.656 14.582 1.548.313-.244-7.11-18.255-21.129-51.265-3.091-7.281-5.621-13.863-5.621-14.626 0-.764 3.645-8.307 8.099-16.763 13.184-25.026 16.155-30.953 15.73-31.378-.222-.222-4.661-.878-9.866-1.458-5.205-.581-11.053-1.266-12.995-1.524l-3.533-.468-9.467 19.025-9.468 19.026-.5-19.799-.5-19.798-8-.68c-4.4-.375-10.314-.9-13.142-1.167l-5.141-.486zM699 241.519c-6.875.687-12.612 1.301-12.75 1.365s-.25 9.791-.25 21.616V286h-3.353c-1.845 0-6.12.289-9.5.642l-6.147.643V245l-1.75.009c-3.718.018-24.658 2.055-26.894 2.616l-2.356.592v115.821l2.25-.472c1.237-.26 6.975-.958 12.75-1.551s11.737-1.325 13.25-1.626l2.75-.548v-45.75l3.25-.498c1.788-.274 5.995-.759 9.349-1.078l6.1-.58.644 8.282c.355 4.556.648 14.892.651 22.97l.006 14.687 3.25-.411c1.788-.227 8.65-.917 15.25-1.534s12.337-1.33 12.75-1.585.75-26.085.75-57.403V240l-3.75.135c-2.062.074-9.375.697-16.25 1.384m-88.462 9.135c-6.58.791-12.052 1.529-12.161 1.642s-1.838 11.679-3.843 25.704-3.902 26.625-4.218 28c-.37 1.617-2.254-5.624-5.333-20.5-2.619-12.65-5.185-24.575-5.704-26.5l-.943-3.5-7.918.323c-4.355.178-8.195.628-8.534 1-.339.373-2.074 9.677-3.855 20.677s-4.02 24.725-4.973 30.5l-1.733 10.5-1.694-9.5c-4.528-25.394-8.907-48.543-9.253-48.922-.457-.499-23.504 1.763-27.954 2.744l-3.078.678 4.676 21c4.734 21.262 17.078 77.792 19.003 87.029l1.048 5.029 13.528-1.676c7.44-.921 13.713-1.86 13.939-2.087.227-.226 1.805-9.16 3.508-19.853 5.019-31.524 5.418-33.745 6.204-34.528.413-.411.75.061.75 1.049s2.01 10.85 4.466 21.916 4.765 22.034 5.128 24.371c.464 2.98 1.146 4.251 2.284 4.253.892.001 7.135-.735 13.872-1.637 6.737-.901 12.25-1.996 12.25-2.433s4.275-26.341 9.5-57.564c5.225-31.224 9.5-57.355 9.5-58.07 0-1.594-2.677-1.542-18.462.355m752.092 25.805c-.322 14.872-.844 40.572-1.159 57.11l-.572 30.069 7.8 1.139c4.291.625 9.939 1.433 12.551 1.794l4.75.656.067-28.863c.058-25.14.235-28.348 1.368-24.864.716 2.2 4.072 12.764 7.458 23.475s6.483 19.765 6.882 20.119c.399.355 2.364.893 4.367 1.195l3.641.55 5.776-16.669c3.177-9.169 6.795-19.595 8.042-23.17l2.266-6.5.316 30 .317 30 12.25 2.1 12.25 2.099-.015-57.599c-.009-31.68-.346-58.082-.75-58.672s-6.485-1.664-13.513-2.388c-7.028-.725-12.907-1.143-13.065-.929s-3.857 10.394-8.222 22.621c-7.187 20.136-9.435 25.09-9.435 20.789 0-1.7-7.562-25.845-12.135-38.747l-3.093-8.726-3.136-.56c-1.725-.308-7.925-1.125-13.778-1.815l-10.642-1.255zm-310.928-18.938c2.097 2.423 3.592 5.579 4.331 9.137.62 2.99 1.117 11.602 1.103 19.139-.026 14.035-1.204 20.605-4.63 25.835-1.841 2.808-7.073 5.368-10.974 5.368H1039v-31.833c0-17.509.237-32.071.527-32.361s2.428-.181 4.75.243c3.086.564 5.085 1.768 7.425 4.472M1454 261.173c0 .842 6.619 20.367 20.437 60.286l6.563 18.96v41.396l9.75 1.7c5.362.935 11.415 2.049 13.451 2.475 2.035.426 3.948.528 4.25.226s.549-10.106.549-21.786v-21.237l6.365-15.847c11.577-28.82 21.752-55.346 21.229-55.346-.173 0-6.116-.895-13.205-1.989s-13.208-1.995-13.597-2c-.39-.006-3.534 8.788-6.987 19.542-4.312 13.429-6.506 18.988-7.005 17.75-.4-.992-3.272-10.646-6.383-21.455l-5.657-19.652-10.13-1.22c-5.571-.67-12.268-1.547-14.88-1.948s-4.75-.336-4.75.145M955.045 368.092c-6.99 1.371-14.613 5.611-18.955 10.544-2.19 2.487-4.768 6.85-5.729 9.693-1.082 3.203-1.714 7.953-1.662 12.481.071 6.074.618 8.391 3.235 13.708 1.856 3.769 4.879 7.881 7.358 10.007 2.314 1.985 7.877 6.028 12.361 8.984s8.871 6.401 9.75 7.656S963 444.42 963 445.612c0 1.191-.861 3.229-1.914 4.527-1.653 2.04-2.775 2.356-8.25 2.327-5.245-.028-7.415-.613-12.604-3.399-3.447-1.851-6.4-3.185-6.561-2.966-.161.22-1.435 5.485-2.83 11.702l-2.537 11.303 2.647 1.369c4.161 2.152 15.061 5.338 20.549 6.007 6.969.849 18.678-1.028 24.286-3.894 8.82-4.508 14.732-13.106 16.212-23.577 1.458-10.315-2.004-21.017-9.092-28.105-2.062-2.062-7.721-6.427-12.577-9.7s-9.691-6.914-10.746-8.091c-2.374-2.652-2.482-7.645-.214-9.913 1.289-1.288 3.456-1.702 8.917-1.702 5.311 0 8.314.55 11.382 2.084l4.168 2.084 2.582-10.304c1.42-5.666 2.582-10.533 2.582-10.813 0-1.216-8.754-4.815-14.856-6.108-7.376-1.563-12.438-1.656-19.099-.351m-65.545 2.939c-8.25.391-16.687.769-18.75.84L867 372l-.001 52.75-.001 52.75 21.751-.742c11.963-.408 24.564-1.006 28.001-1.329l6.25-.588V463.92c0-8.015-.332-10.947-1.25-11.021-.687-.055-6.987-.016-14 .088l-12.75.188V433h24v-22h-24v-16.728l4.64-.636c2.551-.35 8.866-.636 14.032-.636h9.394l-.283-11.25-.283-11.25-9-.09c-4.95-.049-15.75.23-24 .621M1029 422.5V475l8.75.009c4.813.004 11.112.292 14 .639l5.25.631V370h-28zm39.75-51.934c-.412.422-.75 24.253-.75 52.958v52.191l6.147.643c3.38.353 9.447.642 13.482.642h7.335l.268-24.012.268-24.012 12.341 24.369 12.341 24.368 9.063.644c4.984.354 10.793.643 12.909.643H1146V373.299l-9.154-.649c-5.034-.358-10.997-.65-13.25-.65h-4.096l.197 24.75.197 24.75-12.38-25.25-12.38-25.25-7.817-.009c-4.299-.004-10.067-.275-12.817-.601s-5.338-.246-5.75.176m-237 3.169-4.75.375-.029 2.695c-.318 29.529-.118 102.381.282 102.781.297.297 6.549.175 13.894-.273l13.353-.813.259-52.75.259-52.75-9.259.18c-5.093.099-11.397.349-14.009.555m-36.039 2.002-4.789.376-7.821 16.193c-4.301 8.907-8.221 17.319-8.711 18.694-.609 1.71-1.048-3.031-1.39-15l-.5-17.5-5.5.174c-3.025.096-9.437.473-14.25.84l-8.75.666v107.108l8.25-.665c4.538-.366 11.053-.942 14.479-1.28l6.23-.615.27-19.549.271-19.548 8.527 18.434 8.527 18.435 3.973-.066c2.185-.036 9.486-.438 16.223-.892 7.809-.526 12.248-1.227 12.243-1.934-.004-.609-6.474-13.377-14.378-28.373l-14.372-27.264 6.196-11.736c3.408-6.454 9.242-17.473 12.965-24.485l6.768-12.75-9.836.18c-5.41.099-11.991.35-14.625.557m394.886 2.418c-.291 1.84-1.231 21.57-2.089 43.845s-1.835 45.043-2.171 50.596l-.612 10.096 5.684.668c3.126.368 9.713.954 14.638 1.304l8.953.635.114-13.899c.063-7.645.4-19.711.75-26.813l.636-12.912 8.848 21.912c4.866 12.052 9.366 22.244 10 22.648.633.404 2.785.741 4.781.75l3.629.015 9.371-21.48 9.371-21.479.265 28.479c.146 15.664.596 28.498 1 28.52s6.923.84 14.485 1.818l13.75 1.779V383.123l-4.25-.55c-12.051-1.556-26.241-2.482-26.965-1.758-.452.452-4.639 9.115-9.306 19.253a15903 15903 0 0 1-9.877 21.432l-1.392 3-1.119-3c-.616-1.65-4.79-12.291-9.277-23.646l-8.156-20.646-8.579-.621c-4.718-.342-11.588-.882-15.266-1.199l-6.687-.578zm-498.552 3.903c-6.977 1.421-14.674 5.677-19.937 11.024-5.669 5.76-10.295 14.653-13.302 25.576-1.814 6.59-2.155 10.477-2.135 24.342.019 13.568.394 17.86 2.111 24.154 1.148 4.21 3.217 9.883 4.597 12.608 1.381 2.724 4.829 7.038 7.663 9.586 7.98 7.175 18.08 9.327 29.501 6.285 7.656-2.039 12.12-4.473 17.912-9.766 6.432-5.878 11.582-15.308 14.684-26.886 1.915-7.149 2.258-10.838 2.179-23.481-.074-11.685-.542-16.676-2.122-22.583-1.116-4.171-3.009-9.668-4.207-12.216-3.184-6.775-9.329-13.24-15.275-16.073-5.943-2.831-15.071-3.914-21.669-2.57M1306 440.497v56.219l15.75 2.15c8.662 1.182 16.2 2.146 16.75 2.142.658-.005.909-19.454.734-56.869l-.266-56.861-14.234-1.188c-7.829-.653-15.247-1.328-16.484-1.5l-2.25-.313zm47.035-.794c-.005 27.938.268 53.835.607 57.547.549 6.016.847 6.75 2.737 6.753 1.658.002 40.946 6.409 59.371 9.681l3.25.578v-26.85l-14.25-2.267c-7.838-1.246-15.033-2.492-15.99-2.77l-1.739-.503-.261-44.681-.26-44.681-11-1.182c-6.05-.65-13.577-1.461-16.728-1.802l-5.728-.62zm-745.859-47.695c-7.567 1.598-15.023 5.709-20.759 11.444-7.348 7.348-12.763 18.773-14.994 31.636-1.228 7.079-1.512 13.253-1.146 24.912.508 16.176 1.813 23.11 6.121 32.546 1.267 2.775 3.69 6.624 5.384 8.553s5.429 4.787 8.3 6.349c9.319 5.072 22.338 4.46 34.237-1.611 5.629-2.872 12.203-9.288 16.11-15.725 7.885-12.988 11.01-26.172 10.932-46.112-.061-15.363-1.703-23.888-6.469-33.569-1.679-3.408-4.928-8.113-7.222-10.454-2.293-2.342-6.097-5.122-8.452-6.178-4.966-2.228-15.805-3.109-22.042-1.791m820.036 64.409c.158 32.13.559 58.689.891 59.02.844.844 33.864 7.263 34.433 6.694.255-.255.501-10.177.545-22.048l.082-21.583 12.168 24.474 12.169 24.474 5.5 1.267c3.025.698 12.354 2.762 20.732 4.587l15.232 3.319-19.633-38.576-19.632-38.576 16.201-24.35c8.911-13.393 16.067-24.478 15.901-24.634-.322-.304-34.714-5.485-36.409-5.485-.555 0-5.933 8.518-11.951 18.929l-10.941 18.929-.782-20.127c-.43-11.07-.887-20.233-1.015-20.362-.367-.366-29.441-4.369-31.733-4.369h-2.046zm-894.1-54.898c-8.968 2.515-16.695 7.296-23.574 14.588-7.003 7.423-12.354 17.261-14.9 27.393-2.836 11.284-3.931 22.554-3.343 34.417.61 12.315 3.171 24.156 6.736 31.144 3.249 6.369 10.399 13.435 16.255 16.066 4.21 1.891 6.948 2.345 14.214 2.356 6.536.011 10.928-.591 16.042-2.2 7.302-2.296 17.724-8.358 23-13.377l3.041-2.895-3.371-10.755-3.766-12.022c-.266-.85-2.004-.111-5.285 2.246-7.438 5.343-13.77 7.836-18.346 7.222-2.14-.287-5.041-1.276-6.447-2.197s-3.751-4.224-5.211-7.34l-2.655-5.665-.001-14c-.001-10.54.434-15.405 1.758-19.684.967-3.126 3.223-7.626 5.014-10s5.274-5.361 7.741-6.637c3.552-1.838 5.555-2.22 9.618-1.835 2.823.268 6.873 1.38 9 2.472l3.868 1.984 3.748-13.15c2.062-7.232 3.749-13.455 3.75-13.828s-2.585-1.669-5.748-2.881c-7.541-2.888-23.337-3.61-31.138-1.422m168.091 7.231c3.03 3.503 4.033 8.991 4.536 24.798.578 18.188-.692 28.596-4.108 33.684-1.695 2.522-3.019 3.337-5.807 3.572-3.003.253-3.94-.168-5.565-2.5-1.075-1.542-2.259-3.929-2.631-5.304s-1.098-7.412-1.613-13.416c-.966-11.27-.042-26.6 2.048-33.962.606-2.132 2.169-4.945 3.474-6.25 2.822-2.822 7.503-3.123 9.666-.622m-85.256 10.197c3.698 3.698 4.544 9.472 4.548 31.053.005 22.451-.836 27.558-5.21 31.611-1.417 1.314-3.604 2.389-4.858 2.389-1.258 0-3.187-1.15-4.297-2.562-4.006-5.092-4.63-9.063-4.63-29.438 0-15.788.335-20.582 1.759-25.184 1.818-5.877 5.38-9.816 8.876-9.816 1.026 0 2.741.876 3.812 1.947m404.553 68.601c-13.822 1.527-35.607 4.823-46.5 7.037-4.125.838-12.9 2.884-19.5 4.546-38.867 9.788-68.71 23.352-93.872 42.666-9.133 7.011-21.743 19.871-28.549 29.117-3.407 4.628-8.199 12.535-10.649 17.572s-5.624 13.625-7.053 19.085c-2.032 7.762-2.63 12.548-2.738 21.929-.106 9.148.301 13.426 1.71 18 2.458 7.981 6.929 16.855 11.632 23.088l3.839 5.087-2.857 1.688c-4.961 2.93-13.923 11.721-18.396 18.043-4.942 6.986-7.978 13.499-10.022 21.501-2.305 9.023-2.838 17.2-1.629 24.99 2.281 14.7 7.611 25.398 17.735 35.598 4.338 4.369 8.624 7.421 14.538 10.351 4.612 2.285 9.156 4.154 10.098 4.154s1.713.23 1.713.511-1.795 3.141-3.989 6.356c-5.747 8.419-8.874 15.834-10.677 25.315-4.303 22.632 2.926 46.482 18.774 61.944 4.578 4.467 9.334 7.889 14.592 10.5 4.29 2.131 7.921 3.92 8.068 3.976.148.056-1.091 3.298-2.753 7.204-4.757 11.179-6.349 19.294-6.314 32.194.026 9.608.459 12.816 2.63 19.5 1.429 4.4 4.215 10.7 6.192 14 4.85 8.096 12.454 15.769 21.367 21.558l7.389 4.8 1.852 5.258c3.978 11.295 12.359 22.044 21.823 27.99 3.507 2.203 4.053 2.86 2.39 2.875-3.924.035-20.815 6.492-28.885 11.042-5.678 3.202-10.947 7.468-18.498 14.977-11.596 11.532-19.461 22.667-34.259 48.5-5.253 9.17-10.371 16.741-13.168 19.479l-4.575 4.478.553-2.978c.304-1.639 1.415-13.234 2.468-25.768l1.914-22.789 2.882-3.711c4.542-5.847 12.854-20.179 18.22-31.416 4.684-9.806 8.982-24.151 8.997-30.025.012-4.595-3.011-10.728-6.067-12.308-3.282-1.698-10.6-1.916-14.5-.434-1.487.565-2.821.903-2.964.75-.515-.548 5.578-77.641 8.177-103.448l.621-6.17-5.88-2.965c-16.137-8.138-49.885-14.641-82.338-15.866l-17.088-.646-1.81-4.091c-.996-2.251-3.476-5.554-5.512-7.342-3.255-2.858-4.393-3.25-9.435-3.25-4.429 0-6.549.555-9.322 2.439-3.503 2.38-6.875 7.757-6.875 10.962 0 .88-.351 1.599-.78 1.599-3.083 0-27.19 3.4-35.515 5.009-14.837 2.869-23.55 5.474-33.179 9.923L626 895.871v3.039c0 3.279 5.002 53.822 7.565 76.439.863 7.618 1.427 13.924 1.252 14.014-.174.091-3.017 1.43-6.317 2.977-9.599 4.498-19.255 10.616-22.388 14.185-1.595 1.817-3.454 4.982-4.131 7.033-.696 2.108-1 5.965-.701 8.869.292 2.826 2.089 9.849 3.994 15.606 5.577 16.859 5.558 16.352.848 21.938-5.981 7.093-8.118 11.202-8.794 16.91-.452 3.817-.061 6.708 1.555 11.491l2.159 6.392-4.637 8.864-4.636 8.863.489 7.005c.27 3.852 1.196 8.995 2.059 11.429l1.57 4.425-1.965 2.759c-4.96 6.966-6.211 17.444-3.394 28.431 1.591 6.208 6.497 14.052 15.611 24.96 2.757 3.3 5.713 7.35 6.57 9 3.692 7.114 16.725 25.855 21.773 31.307l5.492 5.932-1.012 10.881c-1.859 20.003-6.191 42.522-19.787 102.862l-5.855 25.982-18.41 1.745c-18.617 1.765-65.334 6.862-85.245 9.3-5.959.73-11.096 1.589-11.416 1.909s128.609.582 286.509.582h287.091l7.325 2.927c10.244 4.093 28.491 9.489 40.326 11.926 12.245 2.522 35.485 5.638 57.5 7.709 23.142 2.178 82.618 2.955 115.5 1.51 57.041-2.507 113.021-9.553 147-18.501l9-2.371 34-.614c31.733-.574 61.671-1.698 86.5-3.247 8.313-.519 9.771-.816 7-1.425-4.062-.893-55.938-7.493-66.966-8.52l-7.466-.695 2.441-1.6c1.342-.879 4.942-3.672 8-6.206 3.651-3.025 6.71-6.765 8.909-10.891 2.864-5.373 3.422-7.565 3.854-15.136.391-6.861.122-9.856-1.198-13.311-3.146-8.237-16.945-18.763-36.074-27.518-20.298-9.289-46.964-17.893-68-21.94-13.552-2.608-40.32-6.094-46.801-6.096-3.337-.001-7.606-1.189-14-3.897-5.059-2.142-10.099-4.115-11.199-4.384-3.795-.926 12.138-.717 25.55.336 16.028 1.258 42.818 5.116 59.45 8.562 19.575 4.056 18.5 3.975 18.5 1.391 0-4.735-3.31-24.28-7.284-43.009-2.276-10.725-4.149-21.75-4.162-24.5s.847-14.338 1.91-25.752c1.304-14.009 1.603-21.081.919-21.765-.557-.557-4.274-1.634-8.26-2.393-3.986-.76-7.466-1.6-7.733-1.867s-2.499-8.265-4.961-17.775c-2.461-9.509-5.843-21.375-7.516-26.369-4.813-14.368-13.996-31.911-22.924-43.794-4.427-5.893-9.037-11.405-10.242-12.25l-2.192-1.535h2.493c4.504 0 17.288-4.069 24.436-7.777 9.059-4.7 17.993-13.658 22.237-22.296 4.822-9.814 6.604-18.668 5.921-29.427-.314-4.95-.809-9.9-1.1-11-.422-1.598.877-2.958 6.462-6.765 7.621-5.195 14.608-13.304 18.451-21.418 1.351-2.85 3.201-8.025 4.112-11.5 1.307-4.986 1.551-9.266 1.159-20.317-.273-7.7-.944-15.126-1.492-16.502-.706-1.774-.566-4.536.481-9.5 2.572-12.19.552-27.346-5.102-38.28-3.062-5.921-11.517-14.999-17.783-19.093-3.463-2.262-6.679-4.241-7.148-4.398-.468-.156-.138-3.036.733-6.4.872-3.363 1.585-10.11 1.585-14.991 0-10.813-2.639-21.156-7.741-30.336-1.986-3.575-6.42-9.317-9.853-12.76-4.311-4.324-8.509-7.337-13.574-9.74-4.032-1.914-10.032-3.984-13.332-4.6-5.819-1.087-17.205-.742-20.737.629-1.445.562-1.317-.076.77-3.809 1.378-2.466 3.653-7.799 5.055-11.852 3.084-8.911 4.254-23.715 2.515-31.824-.639-2.98-2.562-8.262-4.273-11.738-2.143-4.352-5.364-8.459-10.352-13.197-6.262-5.948-9.729-8.131-25.61-16.129-26.282-13.236-33.517-18.27-43.082-29.98-5.413-6.626-9.326-12.797-17.757-28-17.805-32.11-27.671-47.202-38.289-58.572-8.229-8.811-15.826-14.87-24.81-19.788-9.965-5.454-19.453-7.76-33.918-8.245l-12.488-.418-7.012-6.896c-3.857-3.792-10.837-9.484-15.512-12.647-17.18-11.625-36.239-18.308-60.974-21.381-11.459-1.424-47.754-1.137-62.526.495m62 11.531c4.95.646 13.5 2.5 19 4.122 9.861 2.907 26.444 10.789 28.794 13.687 1.015 1.251.889 1.361-.794.697-1.1-.434-4.925-1.903-8.5-3.265l-6.5-2.477 2.629 2.829c2.739 2.946 8.239 11.328 7.434 11.328-.255 0-2.42-1.321-4.812-2.936-3.742-2.525-13.641-7.064-15.407-7.064-.32 0 .53 1.462 1.889 3.25 2.91 3.828 5.767 9.177 5.767 10.796 0 .63-2.138-.497-4.75-2.504-5.114-3.93-17.76-10.542-20.163-10.542-1.254 0-1.243.183.073 1.25 4.657 3.776 9.843 14.03 11.252 22.25l.685 4-2.014-3.218c-2.463-3.934-8.633-10.009-13.765-13.551-4.188-2.892-15.318-8.059-15.318-7.113 0 .326 1.147 1.956 2.548 3.621 2.899 3.445 6.818 10.728 6.139 11.407-.248.249-3.317-1.712-6.819-4.357-6.538-4.937-15.837-9.565-21.656-10.779l-3.289-.686 6.789 6.933c3.733 3.813 8.256 9.396 10.05 12.406 5.569 9.344 7.48 16.152 7.816 27.837.241 8.382.139 9.391-.51 5-1.999-13.542-9.054-27.206-18.371-35.583-6.139-5.519-19.118-11.905-27.131-13.348-3.263-.588-6.638-1.065-7.5-1.06-.861.005 1.73 1.654 5.759 3.665 4.535 2.263 10.155 6.298 14.75 10.59 4.084 3.813 7.425 7.338 7.425 7.833s-2.138-.621-4.75-2.479c-6.603-4.697-11.854-7.202-18.954-9.041-3.347-.868-6.402-1.577-6.789-1.577-.388 0 2.02 2.048 5.35 4.552 6.767 5.087 13.144 12.575 16.746 19.665 1.319 2.594 2.397 4.996 2.397 5.338s-2.869-2.005-6.376-5.216c-6.35-5.816-15.744-11.219-22.874-13.158-2.062-.561-3.75-.863-3.75-.671s2.723 2.946 6.052 6.121c7.209 6.877 13.029 15.298 15.929 23.049 1.163 3.108 2.601 9.093 3.196 13.3.807 5.706.774 9.822-.132 16.203-.668 4.704-2.483 12.325-4.034 16.935s-2.69 8.517-2.532 8.682c.683.713 15.658-9.167 19.405-12.803 2.264-2.197 4.116-3.755 4.116-3.463 0 .293-1.133 2.768-2.517 5.499-1.384 2.732-2.231 4.967-1.881 4.967s4.838-2.101 9.976-4.668 11.566-6.615 14.285-8.994 7.533-8.255 10.697-13.059c6.462-9.812 21.398-25.287 31.94-33.094 7.688-5.693 18.45-11.54 28.5-15.484 11.155-4.377 13.038-4.15 4.5.543-10.531 5.789-15.738 9.101-23 14.633-9.948 7.577-25.322 23.04-32.932 33.123-7.387 9.787-13.96 19.942-13.321 20.58.199.199 2.269-.581 4.599-1.734s4.454-1.879 4.72-1.613c.265.265-2.003 2.606-5.042 5.202s-5.524 5.135-5.524 5.642c0 1.208 24.452 1.137 33.5-.097 3.85-.525 11.5-1.444 17-2.043 13.409-1.46 16.788-1.982 16.259-2.512-.245-.245-4.66-1.365-9.811-2.489-5.199-1.135-13.386-2.086-18.406-2.138l-9.042-.094 7-2.417c9.222-3.184 27.03-7.267 31.75-7.278 6.614-.016 4.011-1.669-4.5-2.859-10.17-1.421-18.298-1.452-26.625-.101-3.506.569-6.554.855-6.774.636-.496-.497 11.79-4.901 21.149-7.58 8.316-2.381 24.563-5.075 31.239-5.179l4.761-.075-6.952-2.428c-3.824-1.336-11.024-2.95-16-3.589l-9.048-1.16 12-3.809c6.6-2.095 14.25-4.431 17-5.192l5-1.382-2.717-1.108c-1.495-.61-5.729-1.717-9.41-2.461l-6.692-1.353 5.91-1.786c3.25-.982 9.937-2.799 14.861-4.037l8.951-2.251-5.451-2.01c-2.999-1.106-6.113-2.217-6.922-2.471-.808-.253 1.442-1.196 5-2.094 3.559-.899 8.27-2.273 10.47-3.055l4-1.421-2.719-1.268c-1.495-.698-2.5-1.621-2.234-2.052.974-1.576 11.786-2.162 18.73-1.015 13.523 2.233 30.203 13.28 41.819 27.696 3.056 3.792 6.37 8.147 7.366 9.676 3.342 5.137 1.085 3.577-4.463-3.086-3.025-3.634-8.875-9.44-13-12.902-12.594-10.571-23.794-15.293-36.275-15.293h-5.178l6.374 3.75c3.505 2.063 9.698 6.847 13.762 10.632 4.063 3.784 7.244 7.026 7.067 7.202s-2.606-.809-5.398-2.191-8.621-3.128-12.953-3.88-8.001-1.243-8.153-1.091 2.993 2.788 6.989 5.858c7.914 6.079 15.438 13.382 14.625 14.195-.282.281-2.489-.444-4.905-1.611-7.941-3.837-15.346-5.97-22.454-6.469l-7-.491 4 2.192c6.234 3.416 15.399 10.728 22.293 17.784 6.2 6.346 12.78 14.12 11.951 14.12-.234 0-4.049-2.178-8.479-4.841-4.43-2.662-11.139-5.825-14.91-7.027-7.411-2.365-16.847-4.117-22.219-4.126l-3.364-.006 6.156 4.111c5.167 3.45 16.3 12.865 22.072 18.666 1.335 1.341 1.279 1.428-.5.787-6.085-2.19-20.925-5.523-27-6.064l-7-.624 7 4.599c7.15 4.699 24.939 19.419 24.272 20.086-.203.203-3.171-.762-6.595-2.146-7.155-2.89-20.519-5.908-30.668-6.925l-6.992-.701 7.492 5.04c4.12 2.772 9.066 6.45 10.991 8.175l3.5 3.135-2.5-.573c-3.279-.751-21.234-2.666-21.597-2.303-.154.155 3.292 3.153 7.658 6.662s7.939 6.545 7.939 6.746-1.013.113-2.25-.197c-3.262-.817-20.2-3.296-20.525-3.004-.152.136 3.558 3.539 8.244 7.561s8.386 7.448 8.222 7.611c-.777.777-19.654-7.111-32.17-13.444-7.689-3.89-14.146-6.906-14.35-6.703-.203.204 3.195 4.563 7.551 9.688 14.031 16.504 25.167 24.338 43.826 30.827l8.952 3.113-6.216-.607c-12.393-1.211-24.419-5.446-32.087-11.299-2.428-1.854-4.253-2.907-4.056-2.341.858 2.459 12.678 15.604 19.219 21.373 8.784 7.746 13.483 11.26 20.059 15l5.081 2.89-4-.6c-2.2-.33-7.487-2.3-11.75-4.378s-7.75-3.615-7.75-3.416 2.411 3.375 5.358 7.058c6.902 8.627 19.958 21.059 27.086 25.791 3.072 2.04 5.402 3.893 5.178 4.117s-3.719-.703-7.765-2.062-7.515-2.315-7.708-2.125 1.768 2.611 4.358 5.38 6.449 5.836 8.575 6.815c4.254 1.96 5.201 3.582 1.668 2.858-1.237-.254-4.05-.75-6.25-1.103l-4-.641 3 3.175c2.952 3.125 8.59 6.51 13.5 8.107 1.695.551.295.744-4.348.599l-6.847-.214 3.847 3.333c6.646 5.758 12.238 7.161 18.563 4.659l1.715-.679-.399 8.844c-.219 4.863-.541 10.375-.715 12.248-.18 1.941.18 3.575.837 3.801.634.218 5.034-3.114 9.778-7.403 6.644-6.008 8.865-8.689 9.668-11.671 1.356-5.034-.383-12.567-3.735-16.184l-2.461-2.656 1.798-1.364c2.605-1.976 8.303-1.723 12 .532 3.247 1.979 5.516 5.441 6.634 10.117 1.638 6.851-3.324 20.916-12.219 34.64l-4.03 6.217-3.511-1.467c-1.931-.807-5.999-1.467-9.04-1.467-4.934 0-5.954.384-9.476 3.566-2.171 1.961-4.411 4.999-4.978 6.75s-2.21 11.045-3.653 20.653c-1.442 9.608-3.435 20.647-4.428 24.531-2.96 11.572-7.63 22.517-13.18 30.886-6.297 9.494-17.183 21.246-28.768 31.055-9.969 8.441-31.652 24.624-45.339 33.839-12.221 8.229-25.184 14.9-34.713 17.865-5.913 1.84-9.722 2.325-18 2.291-8.49-.034-11.601-.476-16.252-2.312-3.164-1.248-7.98-4.03-10.703-6.183-4.836-3.822-13.754-14.933-25.566-31.853-3.23-4.626-13.042-17.676-21.806-29-8.764-11.323-18.062-23.738-20.662-27.588-9.113-13.491-13.173-23.417-15.541-38-1.584-9.749-2.026-38.5-.592-38.5 1.597 0 3.167 2.719 2.529 4.381-.484 1.262-.09 1.576 1.733 1.377 1.455-.159 2.264.221 2.11.992-.147.733.783 1.25 2.25 1.25 1.375 0 2.5.37 2.5.822 0 1.405 15.294.5 19-1.124l3.5-1.535-5-.087c-7.885-.137-12.619-1.898-16.75-6.229-2.062-2.162-3.736-4.475-3.719-5.139.031-1.219 6.562-6.469 10.719-8.616l2.25-1.162v2.575c0 3.519 3.379 9.861 6.607 12.4 2.011 1.582 4.089 2.095 8.491 2.095 3.505 0 7.888-.812 10.995-2.037 2.842-1.12 5.371-1.833 5.62-1.584s.447 4.428.441 9.287c-.009 6.665-.862 12.298-3.475 22.943-3.697 15.065-3.745 19.588-.266 24.898 2.318 3.538 7.156 6.306 12.395 7.091 4.94.741 16.169-.624 16.485-2.004.114-.498-3.29-2.162-7.564-3.697-4.275-1.535-9.119-3.751-10.765-4.923-3.584-2.552-5.971-6.839-5.944-10.674.011-1.54 1.154-7.075 2.54-12.3 1.687-6.359 2.718-13.507 3.12-21.619.477-9.645.247-13.559-1.129-19.173-.951-3.88-3.334-9.767-5.296-13.084-1.962-3.316-7.209-9.815-11.661-14.44l-8.094-8.411-12.5-4.102c-18.528-6.08-29.819-9.171-33.498-9.171h-3.275l-.606-4.25c-3.009-21.082-3.916-55.623-1.75-66.602 1.694-8.581 4.947-15.122 7.578-15.239 1.128-.05 7.921-.163 15.095-.25 10.369-.126 13.573-.506 15.623-1.849 2.032-1.331 2.468-2.268 2.057-4.416l-.521-2.727 3.98 3.199c5.331 4.283 13.175 7.134 19.632 7.134 4.136 0 6.265-.629 9.739-2.879 5.038-3.263 13.348-11.669 17.419-17.621 2.344-3.428 2.65-3.62 2.135-1.343-.329 1.462-.903 3.448-1.274 4.414-.485 1.264-.317 1.537.596.972 2.644-1.634 9.195-13.191 11.602-20.469l2.506-7.574-.642 8.5c-.354 4.675-1.026 9.513-1.494 10.75-.471 1.242-.47 2.25.001 2.25 1.475 0 8.716-10.297 10.549-15 .964-2.475 1.993-7.937 2.286-12.138.685-9.82-1.529-19.11-6.771-28.414-4.479-7.951-9.363-13.586-16.319-18.829-8.518-6.422-9.248-6.319-4.306.607 4.212 5.903 9.29 15.833 11.163 21.829.622 1.99-.237 1.503-4.62-2.62-2.962-2.786-7.458-6.278-9.991-7.761-4.11-2.405-17.905-7.674-20.092-7.674-.467 0 .998 2.336 3.255 5.191 3.915 4.954 9.547 14.809 8.462 14.809-.283 0-2.655-1.538-5.272-3.418s-7.135-4.355-10.04-5.5-5.484-2.082-5.732-2.082c-.247 0 1.115 2.447 3.028 5.437 3.403 5.321 8.087 16.307 7.291 17.103-.221.22-2.623-1.434-5.338-3.678C966.795 584.01 953 576.306 953 577.554c0 .319 1.075 2.012 2.39 3.763 2.636 3.511 7.92 13.769 9.109 17.683.603 1.985-.554 1.253-5.62-3.557-3.508-3.332-8.404-7.434-10.879-9.116-4.679-3.18-14.376-8.327-15.687-8.327-.415 0 1.899 2.587 5.143 5.75s7.874 8.802 10.29 12.532c4.778 7.377 9.534 17.379 9.01 18.95-.181.542-2.064-1.651-4.185-4.873-5.456-8.29-18.752-21.106-27.571-26.576-14.327-8.885-30.805-12.352-44.752-9.416-10.282 2.164-20.209 7.67-26.637 14.774-2.905 3.21-6.685 8.714-8.4 12.232s-3.664 9.357-4.331 12.976c-.965 5.235-.951 8.072.069 13.866.705 4.007 1.617 7.904 2.027 8.661.409.757.976-3.068 1.26-8.5.347-6.656 1.218-11.716 2.672-15.521 2.227-5.828 7.83-14.451 8.775-13.506.294.295-.474 1.953-1.707 3.685-3.46 4.858-5.976 14.268-5.976 22.345 0 8.588 2.049 17.083 5.659 23.461 1.45 2.563 9.237 11.185 17.303 19.16s16.17 16.708 18.008 19.406c5.09 7.475 7.232 14.042 7.243 22.206.005 3.911-.709 9.536-1.587 12.5-1.609 5.432-7.397 16.45-8.213 15.635-.241-.242.283-2.168 1.165-4.28 2.245-5.373 2.945-17.127 1.468-24.665-.68-3.466-2.382-8.73-3.783-11.698-3.468-7.348-14.919-19.137-25.513-26.267-4.812-3.239-8.75-5.539-8.749-5.113 0 .427 3.633 5.433 8.073 11.126s9.578 13.117 11.417 16.5c3.18 5.849 6.509 15.305 6.509 18.491 0 .813-1.431-1.406-3.18-4.931-3.205-6.463-9.057-12.78-30.018-32.41-4.698-4.4-10.164-10.475-12.147-13.5-1.982-3.025-4.809-8.875-6.282-13-2.141-5.997-2.772-9.863-3.15-19.293-.362-9.031-.068-13.481 1.256-19 2.298-9.579 9.288-23.73 15.561-31.502 5.731-7.1 16.05-15.912 25.04-21.383 7.383-4.493 20.385-9.312 32.42-12.016 7.224-1.623 12.551-2.02 27-2.015 10.589.003 22.539.633 29.025 1.529 11.53 1.592 25.597 5.9 33.268 10.188 2.481 1.387 4.725 2.307 4.987 2.045s-2.062-2.954-5.164-5.983c-6.587-6.431-16.552-11.581-28.173-14.56l-7.943-2.036 13 .522c11.24.451 26.424 2.746 33 4.989 1.112.379-.285-1.504-3.148-4.243-5.578-5.338-12.297-8.97-18.759-10.142l-4.093-.743 3-.654c4.104-.896 24.084-3.607 29-3.936l4-.267-2.168-1.241c-3.844-2.201-13.576-4.258-20.292-4.289-4.105-.019-5.982-.347-5.04-.879 2.541-1.436 13.805-3.011 29.499-4.125 10.616-.754 18.672-.753 27.568.002 6.913.587 14.11 1.509 15.994 2.05s3.871.982 4.415.982c1.984 0-6.853-5.283-11.844-7.08l-5.132-1.848 9.151-.036c9.263-.036 27.899 2.673 36.599 5.322 2.612.795 4.749 1.153 4.748.794-.004-1.315-9.641-7.137-14.498-8.759-2.75-.918-5.9-2.058-7-2.532-2.179-.941-.548-.808 15 1.218m-185.11 47.392c-3.91.71-9.985 2.558-13.5 4.106-6.807 2.999-15.671 8.568-22.668 14.241C857.263 568.029 847 579.994 847 581.4c0 .338 2.587-1.133 5.75-3.271 7.937-5.364 10.869-6.74 19.907-9.342 6.663-1.918 10.1-2.246 22.843-2.18 11.916.062 16.542.504 22.5 2.15 4.125 1.14 8.4 2.412 9.5 2.827l2 .755-1.836-2.093c-3.03-3.455-9.442-7.476-14.964-9.384l-5.2-1.797 3.261-.032c4.818-.049 22.071 2.807 27.159 4.495 2.43.806 4.589 1.297 4.796 1.09.851-.851-8.254-7.062-13.538-9.235-3.322-1.366-4.774-2.345-3.5-2.359 4.365-.048 17.935 2.097 22.242 3.515 2.43.8 4.62 1.255 4.865 1.009.755-.754-8.889-6.443-14.45-8.524-2.894-1.083-8.091-2.428-11.548-2.989-8.293-1.345-20.588-1.163-29.397.436m-146.4 58.779c-1.818 1.237-4.247 3.52-5.398 5.073-1.638 2.21-2.092 4.291-2.092 9.578 0 5.908.362 7.23 2.892 10.546 1.601 2.099 4.886 4.673 7.362 5.768 3.322 1.47 5.58 1.812 8.785 1.331 4.903-.735 9.803-3.732 12.869-7.869 1.638-2.21 2.092-4.291 2.092-9.578 0-5.903-.363-7.231-2.882-10.533-1.585-2.078-4.383-4.405-6.218-5.172S762.641 603 759.68 603c-3.937 0-6.273.605-8.69 2.25m170.418 1.695c2.8 2.17 7.567 7.186 10.592 11.147s6.784 8.71 8.354 10.555 2.547 3.353 2.174 3.353c-1.146 0-11.841-8.598-15.115-12.15-3.659-3.969-12.619-16.85-11.722-16.85.343 0 2.916 1.775 5.717 3.945m-89.411 1.563c-2.796 6.522-3.944 11.922-3.973 18.693-.031 7.385 1.649 15.159 4.496 20.799 2.466 4.884 10.393 14.42 11.264 13.55.295-.296-.135-1.328-.956-2.294-2.356-2.772-5.7-11.512-7.248-18.942-2.021-9.708-2.829-23.889-1.726-30.314.519-3.025.776-5.676.57-5.892-.205-.215-1.298 1.765-2.427 4.4m-66.271-.834c2.383 1.131 4.128 2.996 5.379 5.75 1.018 2.242 1.861 4.881 1.873 5.866.04 3.225-3.936 9.637-6.938 11.189-1.617.837-4.816 1.521-7.108 1.521-3.507 0-4.782-.615-8.05-3.882-3.267-3.268-3.882-4.543-3.882-8.05 0-8.162 5.041-13.431 13.349-13.952 1.017-.064 3.436.637 5.377 1.558M763 613.566c0 .311.475 1.453 1.055 2.538 1.198 2.237.525 5.173-1.692 7.39-.828.828-3.118 1.506-5.089 1.506h-3.584l1.81 2c2.166 2.394 6.658 2.598 9.934.451 2.919-1.912 4.969-6.607 4.091-9.371-.844-2.66-3.272-5.08-5.096-5.08-.786 0-1.429.255-1.429.566m149.798 4.03c5.197 3.277 20.202 16.998 20.202 18.473 0 .341-4.163-.593-9.25-2.074-5.087-1.482-9.437-2.536-9.667-2.344-.229.192-.229.493 0 .67 6.651 5.123 11.869 9.679 11.088 9.679-2.456 0-17.559-7.117-21.897-10.317-4.588-3.385-12.21-10.683-11.158-10.683.28 0 2.291.861 4.47 1.914 3.795 1.834 14.913 5.086 17.386 5.086.65 0-.877-2.947-3.395-6.548s-4.577-6.751-4.577-7c0-.933 1.25-.355 6.798 3.144M1082 625.722c0 .496 5.737 3.67 12.75 7.053 12.714 6.135 24.58 10.615 26.456 9.99.952-.318-5.778-6.895-9.772-9.552-1.626-1.081-.62-1.197 6.316-.726 4.537.308 8.25.301 8.25-.016s-3.037-2.015-6.75-3.774l-6.75-3.197-15.25-.34c-8.641-.192-15.25.051-15.25.562m182.963 10.673c2.304 4.343 6.015 10.418 8.248 13.5 4.823 6.66 12.386 14.674 19.284 20.434 3.753 3.134 4.596 3.549 3.391 1.671-8.855-13.807-15.293-26.28-14.615-28.314.217-.65.99-.057 1.718 1.317 2.442 4.607 13.296 17.209 24.891 28.902 6.325 6.377 14.157 15.18 17.406 19.562 10.51 14.174 16.736 29.112 18.69 44.844.806 6.479.792 11.638-.051 19.5-.63 5.879-1.996 14.023-3.035 18.099-1.04 4.075-1.89 7.495-1.89 7.599 0 .103 2.588-.201 5.75-.678 3.162-.476 9.324-2.48 13.693-4.454s9.993-4.211 12.5-4.972c6.36-1.931 19.009-1.797 24.287.257 7.04 2.739 13.554 7.606 17.914 13.384 2.263 3 4.997 7.479 6.076 9.954 2.344 5.382 5.021 17.496 4.512 20.416-.246 1.409-.623.788-1.165-1.916-.44-2.2-2.175-6.925-3.854-10.5-5.317-11.318-17.517-21.316-27.651-22.659-2.996-.397-3.27-.287-1.728.691 1.922 1.217 9.666 12.6 9.666 14.207 0 .511-1.687-.397-3.75-2.018-6.088-4.784-9.18-6.086-20.554-8.653l-2.805-.633 5.305 5.313c8.567 8.582 14.804 23.433 14.804 35.252 0 9.929-4.199 21.128-10.357 27.622l-2.487 2.622 13.282.451 13.283.45 7.655 3.636c9.957 4.728 17.597 11.942 22.028 20.8 1.866 3.729 3.913 9.869 4.55 13.645.94 5.572.884 8.176-.296 13.82-1.426 6.823-6.248 19.198-7.134 18.311-.248-.248.208-2.638 1.013-5.313s1.463-8.568 1.463-13.098c0-9.782-2.497-18.834-7.122-25.816-3.977-6.005-11.988-12.117-19.207-14.654-3.052-1.073-8.822-2.255-12.822-2.627l-7.273-.676 5.727 5.592c3.884 3.792 6.846 7.948 9.202 12.913 4.792 10.097 6.007 17.347 4.488 26.766-1.856 11.503-2.601 12.421-3.241 3.994-.311-4.091-1.498-9.89-2.638-12.888-2.35-6.176-7.529-14.204-10.267-15.913l-1.834-1.146 1.743 4.254c1.228 2.997 1.733 6.916 1.706 13.255-.021 4.95-.644 10.764-1.384 12.921l-1.346 3.92-1.86-7.42c-1.023-4.082-2.402-8.546-3.063-9.921-1.857-3.858-8.76-13-9.817-13-.582 0-.569.982.033 2.565 1.546 4.066 1.162 19.442-.637 25.503-1.823 6.145-5.001 12.778-10.15 21.182-1.937 3.162-3.571 5.75-3.63 5.749-.059 0-.131-3.938-.159-8.75-.042-7.052-.553-9.963-2.638-15.009-1.423-3.443-2.218-6.489-1.767-6.767s1.811-4.795 3.022-10.036c1.747-7.559 2.095-11.431 1.684-18.733-.359-6.376-1.308-11.344-3.088-16.167-1.413-3.83-2.477-7.004-2.365-7.054l4.459-1.941c5.266-2.291 10.555-7.328 13.49-12.848 1.817-3.418 2.232-5.827 2.242-13.014l.012-8.821 1.374 3.321c1.569 3.79 2.019 13.904.813 18.245-.678 2.44-.582 2.732.582 1.767.767-.637 2.708-3.528 4.313-6.425l2.918-5.267v-20l-3.151-6.651c-5.43-11.461-14.155-18.21-25.24-19.522-2.779-.33-7.201-.007-10.249.746l-5.36 1.326 4.89.738c7.505 1.132 13.539 4.77 18.86 11.371 2.612 3.241 4.75 6.288 4.75 6.77 0 .483-1.852-.708-4.117-2.646s-6.169-4.223-8.678-5.078c-4.658-1.587-12.745-1.901-17.174-.666l-2.47.688 3.265 1.352c1.795.743 5.255 3.628 7.688 6.409 2.433 2.782 4.282 5.2 4.109 5.374s-1.946-.366-3.937-1.198c-4.383-1.831-14.068-1.903-18.186-.135l-3 1.288 4.75 2.111c2.612 1.161 4.747 2.473 4.743 2.917s-2.592 1.678-5.75 2.744c-3.648 1.231-9.533 2.096-16.129 2.369l-10.387.43 3.684-4.824c4.844-6.344 9.176-15.56 11.048-23.501.831-3.527 1.518-7.046 1.526-7.822s-2.158 2.206-4.813 6.625c-2.656 4.418-5.824 9.327-7.041 10.909-3.332 4.332-15.404 16.376-16.414 16.376-.487 0 .506-1.756 2.206-3.903 3.364-4.247 8.492-14.812 9.513-19.597l.64-3-2.725 3.5c-9.465 12.158-25.063 22.575-42.558 28.423-7.863 2.629-20.382 5.076-30.793 6.021l-6.5.59 6-2.974c6.808-3.375 14.295-9.292 18.739-14.811 4.478-5.561 9.471-16.558 11.348-24.995 2.26-10.157 1.519-27.25-1.558-35.977-6.056-17.174-22.144-32.637-43.129-41.454-3.94-1.656-11.267-4.11-16.282-5.454l-9.118-2.443 6.29.526c8.313.695 20.631 3.9 30.893 8.038 4.575 1.844 8.299 3.051 8.277 2.682s-2.715-2.667-5.983-5.106c-3.269-2.438-5.748-4.628-5.51-4.866.528-.528 9.553 4.936 15.033 9.102 2.2 1.672 5.912 4.857 8.25 7.077 2.338 2.221 4.25 3.661 4.25 3.201 0-1.946-6.263-11.506-11.037-16.848-2.835-3.172-7.957-7.767-11.381-10.21-8.24-5.88-21.384-12.105-31.715-15.019-4.717-1.331-7.183-2.391-5.652-2.432 4.687-.123 22.114 3.636 31.614 6.818 10.951 3.669 18.582 7.425 27.525 13.548l6.675 4.57-2.629-4.254c-5.166-8.355-14.742-16.91-26.4-23.585-3.025-1.732-4.797-3.153-3.938-3.159 2.634-.015 18.597 5.689 24.943 8.914 3.297 1.676 5.995 2.809 5.995 2.519s-2.138-2.816-4.75-5.613c-5.874-6.288-14.47-12.216-21.759-15.005-3.042-1.165-5.363-2.285-5.157-2.491.58-.581 10.284 1.586 19.6 4.375 4.638 1.389 11.977 4.042 16.309 5.896l7.875 3.371-2.093-2.94c-2.924-4.106-10.953-10.963-17.444-14.897-3.012-1.825-8.088-4.43-11.279-5.788l-5.802-2.469 3.864.626c10.023 1.625 31.607 10.327 42.63 17.187l4.493 2.797-2.366-3.996c-8.563-14.463-17.063-32.939-18.629-40.495-.399-1.925-.499-3.275-.222-3 .278.275 2.389 4.053 4.693 8.395m-566.969 28.481c-7.075 2.316-12.29 6.702-15.48 13.018-2.196 4.349-2.226 13.465-.061 18.649 3.612 8.647 11.09 13.413 21.047 13.413 3.669 0 7.557-.707 10.009-1.821 4.902-2.227 9.86-7.694 11.509-12.691.741-2.243 1.033-6.492.733-10.674-.398-5.572-1.075-7.771-3.418-11.109-1.607-2.288-4.812-5.206-7.121-6.483-4.518-2.497-13.112-3.646-17.218-2.302m8.28 4.732c.335.334.072 1.488-.583 2.565-1.008 1.656-.828 2.255 1.17 3.892 1.298 1.064 2.931 1.935 3.627 1.935.697 0 1.827-.675 2.512-1.5s1.589-1.5 2.009-1.5c1.572 0 3.991 6.97 3.991 11.5 0 5.504-2.236 10.754-5.762 13.528-3.591 2.824-9.455 4.341-13.701 3.545-2.074-.389-5.358-2.223-7.587-4.237-6.491-5.864-7.669-15.2-2.894-22.926 1.346-2.179 3.901-4.395 6.349-5.506 4.016-1.824 9.668-2.498 10.869-1.296m631.111 9.813c5.239 2.432 11.471 5.76 13.847 7.395 7.516 5.171 12.944 11.405 16.592 19.057 3.129 6.563 3.565 8.487 3.966 17.507.47 10.569-.728 17.65-4.465 26.39l-1.825 4.269-.007-12.269c-.006-9.885-.438-13.631-2.224-19.27-1.22-3.85-4.367-10.8-6.993-15.444-3.267-5.776-7.62-11.34-13.776-17.61-4.95-5.041-10.575-10.348-12.5-11.794-1.925-1.447-3.194-2.635-2.821-2.641.374-.006 4.967 1.979 10.206 4.41m-114.656-.817c-.332.332-1.195.368-1.916.079-.798-.319-.561-.556.604-.604 1.054-.043 1.644.193 1.312.525m75.271 1.211c0 .517.601 1.439 1.336 2.049 1.6 1.328 8.261 15.409 9.275 19.608l.717 2.971-3.251-3.702c-2.824-3.216-15.836-12.741-17.406-12.741-.308 0 .521 2.362 1.842 5.25 2.338 5.109 4.705 14.137 5.835 22.25l.556 4-3.084-3.794c-2.711-3.335-14.616-12.706-16.142-12.706-.312 0 .548 2.437 1.912 5.415 2.466 5.387 5.36 16.911 5.393 21.479.015 2.104-.403 1.844-3.457-2.156-3.322-4.351-10.564-11.033-11.233-10.364-.176.175.396 2.031 1.27 4.124 2.63 6.292 5.398 20.579 5.329 27.502-.048 4.857-.266 5.831-.863 3.855-1.495-4.945-7.061-14.403-12.093-20.547-6.559-8.008-8.788-8.922-5.385-2.207 3.636 7.175 8.016 21.102 9.467 30.102.783 4.861 1.051 12.796.727 21.5-.515 13.815-1.208 17.014-6.2 28.64l-1.65 3.844 4.303-2.344c2.366-1.288 7.002-5.045 10.302-8.348 6.517-6.522 11.362-14.034 14.551-22.558l2.034-5.437-.609 4.788c-.336 2.634-1.481 7.32-2.546 10.414-1.064 3.095-1.755 5.806-1.535 6.026s3.369-3.116 6.997-7.414c3.673-4.35 8.604-11.803 11.125-16.814 2.491-4.95 5.475-12.808 6.631-17.463 1.66-6.684 2.002-10.468 1.627-18l-.476-9.537 1.359 3.263c.747 1.794 2.554 7.194 4.015 12 2.245 7.382 2.671 10.706 2.742 21.436l.085 12.7 3.203-5.079c8.107-12.854 11.304-32.631 7.825-48.412-3.997-18.129-15.162-33.996-29.359-41.72-2.843-1.547-5.169-2.39-5.169-1.873m-448.834 13.63c2.566 3.161 4.941 6.846 5.279 8.19.434 1.732-.625 4.942-3.638 11.023-3.821 7.71-4.248 9.302-4.222 15.711.021 4.979.644 8.489 2.064 11.631 4.64 10.262 12.125 15.321 22.679 15.329 7.74.006 4.935 1.605-4.096 2.334-4.633.375-8.057.081-10.982-.942-2.337-.818-4.25-1.128-4.25-.689 0 1.675 9.736 9.357 14.88 11.741 4.251 1.97 6.979 2.492 13 2.49 4.191-.002 8.92-.524 10.509-1.161 5.023-2.013 4.12-.249-.997 1.949-2.691 1.155-7.84 2.349-11.444 2.653-8.009.676-15.783-1.353-21.751-5.676-5.199-3.767-10.711-11.216-12.337-16.675-.707-2.371-1.73-3.956-2.39-3.703-1.845.708-6.475-10.898-7.122-17.848-.322-3.466-.109-8.022.473-10.124.9-3.253.847-3.648-.353-2.652-.776.644-2.773 3.899-4.439 7.232-2.306 4.614-3.054 7.516-3.134 12.152l-.105 6.09-1.318-4c-.725-2.2-1.353-8.091-1.395-13.091-.069-8.144.876-13.528 3.486-19.858l.803-1.948-3.112 2.216c-4.087 2.911-10.64 12.817-12.821 19.383-.955 2.875-2.023 8.843-2.373 13.262l-.638 8.036-1.347-7.5c-1.07-5.951-1.11-9.049-.194-15 2.282-14.832 11.037-28.105 24.442-37.057l5.961-3.98 3.108 2.368c1.709 1.303 5.208 4.954 7.774 8.114m-159.403-4.695c-.579 2.641 1.214 7.167 3.276 8.271 2.637 1.411 5.529 1.205 6.94-.496 1.011-1.217.757-1.688-1.452-2.695-1.472-.671-3.33-2.482-4.128-4.025-1.63-3.152-4.055-3.704-4.636-1.055m378.935 14.212c-3.191 1.019-9.941 4.357-15 7.416-19.594 11.849-35.074 22.245-37.035 24.871-1.428 1.913-2.048 4.264-2.048 7.769 0 3.126.565 5.591 1.495 6.521 1.239 1.238 2.086 1.291 4.943.305 6.192-2.136 16.496-8.926 29.589-19.498 7.271-5.871 16.276-12.112 20.724-14.364l7.866-3.982 7.634.003c4.954.001 10.867.868 16.845 2.47 5.066 1.357 10.858 3.156 12.872 3.997 2.014.842 4.138 1.53 4.72 1.53 2.038 0-9.875-8.209-17.559-12.101-13.839-7.008-24.06-8.448-35.046-4.937m119.552 5.7c-.687.278-1.812.278-2.5 0-.687-.277-.125-.504 1.25-.504s1.938.227 1.25.504m-446.502 6.765c-9.42 3.361-15.253 11.679-15.129 21.573.109 8.678 5.01 16.315 13.081 20.386 4.509 2.274 14.393 2.122 19.09-.294 7.946-4.088 12.489-11.745 12.513-21.092.017-6.707-2.73-12.558-7.895-16.815-3.718-3.065-10.048-5.22-15.101-5.141-1.544.024-4.495.646-6.559 1.383m15.98 6.53c1.758 1.299 3.968 3.978 4.911 5.953.944 1.974 1.687 5.776 1.652 8.447-.048 3.673-.762 5.843-2.927 8.897-1.575 2.221-4.439 4.901-6.364 5.954-7.438 4.07-18.333.025-21.712-8.06-1.98-4.74-1.275-13.343 1.39-16.939 1.103-1.49 3.54-3.761 5.414-5.048 2.805-1.924 4.384-2.27 8.924-1.953 3.783.265 6.519 1.128 8.712 2.749m318.706 12.543-.657 3.5h-4.178c-6.728 0-15.702 2.794-21.33 6.642-3.045 2.081-6.489 5.62-8.241 8.467-1.655 2.69-2.745 4.891-2.422 4.891s2.58-1.754 5.015-3.898c5.052-4.447 9.607-6.81 16.836-8.735 5.729-1.526 12.543-1.796 12.543-.497 0 .478-2.588 1.383-5.75 2.01-7.011 1.391-14.589 4.83-19.174 8.7-1.883 1.59-5.151 5.564-7.263 8.831-4.097 6.339-7.353 15.449-6.004 16.798.449.449 2.637-1.422 4.863-4.157 4.838-5.949 11.291-11.482 16.469-14.124 2.078-1.06 4.022-1.928 4.319-1.928s.54.918.54 2.04c0 3.021 3.575 9.48 6.535 11.809 1.424 1.12 4.108 2.538 5.962 3.15 2.416.797 4.489.813 7.307.054 2.164-.583 5.131-2.001 6.593-3.151 2.825-2.222 6.603-8.757 6.603-11.421 0-.88.45-1.321 1-.981 1.453.898 1.225 5.165-.449 8.401-2.447 4.733-8.146 8.893-15.139 11.054-3.643 1.125-9.163 2.074-12.267 2.108-4.825.055-5.282.211-3.145 1.078 1.375.557 6.1.853 10.5.656 5.254-.235 9.358-1.021 11.957-2.29 6.149-3.001 11.335-8.983 13.124-15.138 1.396-4.802 1.85-5.369 4.294-5.369 3.421 0 11.163-4.829 13.838-8.631 2.704-3.844 5.533-9.456 5.023-9.966-.226-.227-1.827.295-3.557 1.158-4.192 2.091-9.179 3.48-9.179 2.557 0-.408.9-2.605 2-4.882 3.373-6.981 2.61-7.556-3.986-3.004-3.292 2.271-6.2 3.915-6.463 3.652s.181-2.665.986-5.34 1.463-5.332 1.463-5.906-1.687.596-3.75 2.6-4.987 4.109-6.5 4.678l-2.75 1.034v-4.975c0-2.736-.338-4.972-.75-4.969s-1.519 1.358-2.459 3.009c-1.657 2.914-6.133 5.51-7.762 4.503-.441-.273-1.099-2.076-1.461-4.007S1078.5 731 1078 731s-1.205 1.575-1.566 3.5m-426.458 4.75c-5.876 2.973-10.529 9.28-11.972 16.229-.948 4.57-.871 6.468.452 11.017.878 3.022 3.005 7.099 4.726 9.058 3.671 4.182 9.052 7.14 14.6 8.027 5.353.856 14.317-1.851 18.609-5.619 4.902-4.304 7.851-11.194 7.903-18.462.047-6.739-2.234-12.219-6.952-16.697-4.165-3.953-9.457-5.803-16.598-5.803-4.57 0-7.552.623-10.768 2.25m87.934.358c-.873 1.052-.863 2.092.041 4.273 1.518 3.664 6.846 6.638 10.328 5.764 2.724-.684 5.721-3.154 5.721-4.716 0-.511-2.06-.929-4.577-.929-3.714 0-5.122-.545-7.468-2.891-2.401-2.401-3.086-2.656-4.045-1.501m-70.628 2.769c6.235 2.668 10.747 9.848 10.696 17.022-.031 4.424-3.165 10.739-6.881 13.866-1.753 1.475-4.967 3.162-7.142 3.747-11.381 3.065-23.343-8.27-21.525-20.397.369-2.458 1.674-5.957 2.9-7.777 4.593-6.815 14.387-9.698 21.952-6.461m143.401 5.811c-.319.797-.556.56-.604-.605-.043-1.054.193-1.644.525-1.312s.368 1.195.079 1.917m112.817 3.22c2.75.761 8.15 2.708 12 4.325 3.85 1.618 11.5 4.434 17 6.259 8.981 2.98 15.063 5.778 14.273 6.568-.159.16-2.986-.344-6.281-1.119-7.649-1.8-11.727-1.796-18.524.018l-5.468 1.458-2.058-2.484c-1.132-1.366-2.328-2.214-2.658-1.883s-.217 1.94.253 3.578c.644 2.248.503 3.111-.579 3.527-.789.302-3.464-.64-5.946-2.095-3.151-1.847-4.512-2.237-4.512-1.293 0 .743.661 2.224 1.468 3.292 1.848 2.443 1.902 3.441.187 3.441-2.595 0-4.603-3.656-6.613-12.04-1.115-4.653-2.031-9.215-2.035-10.137-.006-1.419.943-2.06 3.993-2.695.275-.057 2.75.519 5.5 1.28m-252.853 8.4c-.335 2.094-1.63 4.764-2.878 5.933-3.059 2.866-7.384 4.394-10.338 3.652-1.731-.434-2.431-.195-2.431.83 0 .791 1.1 2.028 2.444 2.747 3.376 1.807 10.179.733 13.171-2.078 3.273-3.074 4.852-8.574 3.487-12.142-.579-1.513-1.456-2.75-1.949-2.75s-1.171 1.714-1.506 3.808M1075.5 762c0 1.833-.602 2.585-2.254 2.82-1.353.192-2.496-.308-2.857-1.25-.996-2.595.399-4.739 2.857-4.39 1.652.235 2.254.987 2.254 2.82m134.235 4.079c1.696 3.323 1.579 11.027-.204 13.574-.809 1.154-2.385 2.337-3.505 2.63-1.569.41-2.201-.076-2.76-2.126-.4-1.461-.735-4.972-.746-7.802-.014-3.697.522-5.744 1.907-7.274 1.06-1.171 2.41-1.971 3-1.776.59.194 1.629 1.442 2.308 2.774m-248.494 5.344c3.878 1.384 9.185 4.502 8.596 5.05-.185.173-3.487-.353-7.337-1.168-4.225-.893-9.266-1.255-12.717-.912-5.819.58-8.783.083-8.783-1.471 0-1.309 5.886-2.736 11.5-2.788 2.75-.025 6.683.555 8.741 1.289m-249.989 10.681c-2.337 1.157-5.443 3.519-6.902 5.25-4.217 5.001-5.601 9.356-5.163 16.243.295 4.629 1.086 7.217 3.167 10.362 5.276 7.973 17.999 11.335 27.155 7.176 5.226-2.374 10.115-8.03 11.559-13.372.634-2.345.901-6.713.594-9.708-.679-6.631-4.51-12.555-10.204-15.78-5.331-3.02-14.297-3.096-20.206-.171m10.579 4.6c-1.057 1.274-.809 1.918 1.507 3.911 1.526 1.312 3.173 2.385 3.661 2.385s1.559-.959 2.38-2.13l1.492-2.131 2.061 3.381c2.895 4.748 2.801 12.497-.206 16.958-1.25 1.856-3.838 4.438-5.75 5.737-2.809 1.91-4.402 2.277-8.3 1.914-4.666-.435-9.624-3.072-10.453-5.559-.312-.937.174-.946 2.158-.042 1.992.907 2.899.884 4.089-.103 1.645-1.365 2.085-4.025.666-4.025-.475 0-2.064-1.201-3.531-2.668-1.602-1.602-3.025-2.301-3.56-1.75-.49.505-1.058 2.268-1.262 3.918l-.37 3-1.303-4.464c-2.989-10.243 2.084-18.532 12.27-20.05 2.266-.338 4.479-.433 4.919-.211s.228 1.09-.468 1.929m245.966-.539c.377 1.981-3.506 3.526-5.03 2.002-.568-.568-.75-1.769-.404-2.67.808-2.105 5.004-1.59 5.434.668m-119.841 21.984c-1.268 4.696-.676 14.486 1.2 19.87l1.121 3.215 1.211-3.523c.667-1.937 2.516-5.703 4.111-8.367l2.899-4.844.61 7c.335 3.85 1.16 8.35 1.832 10l1.224 3 1.277-3.682c.702-2.025 2.177-5.104 3.276-6.841l2-3.158 1.218 4.841c1.584 6.297 6.457 15.384 10.146 18.918l2.919 2.796v-5.009c0-2.755.778-7.226 1.729-9.937 1.432-4.079 1.785-4.498 2.051-2.428.176 1.375 1.216 5.35 2.311 8.834 2.027 6.452 5.521 12.872 9.207 16.916 1.128 1.237 1.593 2.25 1.033 2.25-1.58 0-11.645-3.594-15.168-5.416-1.74-.899-3.163-1.225-3.163-.724s1.816 3.632 4.036 6.955c2.318 3.472 6.008 7.35 8.671 9.114 2.55 1.689 4.896 3.091 5.214 3.115s2.829.669 5.579 1.433l5 1.388-7.145.068c-9.133.086-18.282-2.701-26.18-7.975-6.488-4.333-10.775-8.752-15.446-15.924l-2.953-4.534.583 6.838c.32 3.761 1.272 8.221 2.116 9.912.843 1.691 1.362 3.246 1.153 3.456-.645.644-8.676-8.945-11.479-13.706-1.457-2.475-3.611-7.425-4.787-11l-2.138-6.5-.73 3.785c-.76 3.942-.143 20.371.928 24.715.339 1.375-.773-.425-2.472-4s-3.779-9.425-4.622-13c-2-8.471-1.272-19.514 1.825-27.71 1.291-3.416 4.081-8.282 6.2-10.814s4.061-4.395 4.316-4.141c.254.255-.066 2.421-.713 4.814m359.899-.724c5.14 2.658 6.743 10.274 3.129 14.868-2.474 3.146-7.983 5.086-11.96 4.212-3.643-.8-8.024-5.786-8.024-9.131 0-3.27 2.447-7.873 5.217-9.813 2.78-1.948 8.017-2.009 11.638-.136m-536.551 10.531c-1.757 1.072-3.872 2.983-4.699 4.246s-1.777 4.098-2.111 6.298c-.465 3.06-.065 5.056 1.699 8.492 1.269 2.47 3.836 5.508 5.705 6.75 6.308 4.192 16.318 2.232 20.077-3.932 3.054-5.007 3.512-9.247 1.551-14.38-2.331-6.103-7.276-9.431-14.008-9.426-3.208.002-6.171.706-8.214 1.952m12.339 2.679c3.613 1.714 6.357 5.778 6.357 9.414 0 3.822-3.053 8.748-6.407 10.34-2.52 1.196-4.071 1.318-6.88.542-4.741-1.309-7.713-5.509-7.713-10.901 0-2.289.461-5.023 1.025-6.077 1.19-2.224 5.648-4.855 8.324-4.913 1.017-.022 3.399.696 5.294 1.595m80.351 3.248c-4.239 1.376-8.39 3.815-10.696 6.286-3.261 3.492-5.298 9.135-5.298 14.677 0 2.7.641 6.427 1.425 8.282 1.475 3.492 7.579 9.897 11.075 11.622 3.718 1.834 9.337 2.32 13.809 1.194 2.447-.616 6.092-2.474 8.099-4.129 5.107-4.209 7.794-9.937 7.852-16.734.074-8.652-4.153-15.519-11.993-19.481-3.932-1.987-10.87-2.822-14.273-1.717m-80.386 4.539c1.033 2.691-1.491 5.437-5.776 6.285l-4.16.822 1.735 1.736c.958.957 3.24 1.735 5.092 1.735 2.434 0 3.925-.724 5.428-2.635 1.14-1.449 2.059-3.362 2.041-4.25-.04-2.031-2.329-5.115-3.797-5.115-.609 0-.863.64-.563 1.422m90.52.991c3.601 1.508 6.867 4.626 8.83 8.427 1.556 3.013 1.554 10.313-.003 13.32-3.012 5.816-8.127 9.101-14.043 9.019-2.058-.028-5.532-.965-7.721-2.082-2.77-1.412-4.621-3.353-6.086-6.379-1.158-2.392-2.098-6.12-2.089-8.284.034-7.953 7.108-15.434 14.596-15.434 1.729 0 4.661.636 6.516 1.413m1.897 11.152c.536 1.411.975 3.256.975 4.1 0 2.273-6.473 8.335-8.9 8.335-1.155 0-2.1.434-2.1.965 0 1.7 4.099 3.227 6.843 2.549 3.808-.941 8.033-5.334 8.736-9.084.846-4.509-1.894-9.372-5.304-9.415-.903-.011-.969.661-.25 2.55m547.817 3.855c6.83 3.461 14.546 9.825 17.941 14.798 4.828 7.071 6.692 14.045 6.624 24.782-.049 7.591-.614 11.156-2.813 17.74-1.513 4.531-3.214 8.525-3.78 8.875-.625.386-.813-.1-.481-1.24.302-1.031.851-4.46 1.222-7.619.749-6.386-.966-17.607-3.127-20.457l-1.364-1.799-.032 2.715c-.049 4.152-2.853 11.643-6.821 18.219-3.328 5.517-14.886 18.225-15.771 17.34-.216-.216.555-2.841 1.713-5.834 1.409-3.638 2.114-7.759 2.129-12.44.013-3.85-.563-8.35-1.28-10l-1.303-3-.838 4.5c-.858 4.608-5.506 14.921-8.338 18.5l-1.583 2 .621-5.555c.363-3.25.123-7.401-.579-10l-1.199-4.445-1.879 5c-2.602 6.928-9.966 15.925-16.405 20.044-2.972 1.901-5.68 3.456-6.019 3.456s.324-1.32 1.473-2.934c3.007-4.223 5.047-10.626 5.047-15.842V896.7l-2.932 4.047c-2.604 3.596-6.954 7.469-10.925 9.731-1.03.586-1.195.261-.683-1.353.371-1.169.5-2.125.286-2.125s-2.539.732-5.166 1.627c-6.115 2.084-16.365 1.447-22.846-1.421-2.604-1.151-4.734-1.864-4.734-1.584 0 1.207 2.443 5.095 4.872 7.756l2.628 2.877-4-.68c-2.2-.374-6.379-1.823-9.287-3.219-3.686-1.77-6.511-4.162-9.333-7.898-2.225-2.948-4.684-7.478-5.463-10.068-1.883-6.256-1.795-16.752.195-23.458 1.755-5.91 7.244-17.409 7.967-16.687.246.246-.316 2.205-1.249 4.351-1.137 2.617-1.677 6.454-1.638 11.639.048 6.239.566 8.772 2.679 13.092 1.442 2.945 3.41 6.066 4.375 6.934l1.754 1.579.138-9.008c.078-5.089.621-9.491 1.25-10.12.816-.816 1.112-.649 1.112.628 0 3.333 3.936 9.417 9.089 14.05 2.854 2.566 5.331 4.524 5.504 4.35.173-.173-.11-3.223-.63-6.777-.521-3.555-.673-8.382-.339-10.727l.607-4.263 2.871 4.527c1.579 2.49 4.951 5.846 7.493 7.458s7.699 3.631 11.461 4.486c3.761.856 7.056 1.556 7.321 1.556s-.599-1.935-1.921-4.3c-1.322-2.366-3.072-6.195-3.889-8.509l-1.484-4.208 2.708.579c6.188 1.325 12.969 3.747 16.959 6.059 2.338 1.355 4.25 2.034 4.25 1.51s-.894-3.805-1.987-7.292-1.993-6.432-2-6.545c-.035-.55 8.754 2.979 10.87 4.365l2.415 1.583-.579-2.871c-.318-1.579-.911-3.73-1.317-4.779l-.737-1.908 4.293 2.408c2.361 1.324 6.261 4.239 8.667 6.478l4.375 4.07-.044-3.07c-.039-2.722-1.053-6.219-3.428-11.82-1.36-3.207 1.263-1.838 7.446 3.886 3.348 3.1 6.253 5.462 6.456 5.25.775-.812-1.378-10.974-3.092-14.594-.988-2.086-3.706-5.705-6.041-8.042-2.334-2.337-3.791-4.25-3.237-4.25s3.156 1.089 5.782 2.42m112.061 1.514c3.186 2.164 7.803 6.17 10.259 8.902s5.874 7.826 7.594 11.319c3.664 7.443 5.578 17.843 4.618 25.085l-.682 5.136-3.745-8.112c-2.061-4.461-5.23-10.283-7.044-12.938-4.775-6.989-13.431-15.815-19.039-19.413-2.675-1.717-4.864-3.525-4.864-4.017s.347-.896.771-.896 1.877-2.025 3.229-4.5 2.605-4.5 2.784-4.5 2.933 1.77 6.119 3.934m-426.653 1.055c-1.788 1.09-3.25 2.711-3.25 3.603 0 1.204.451 1.402 1.75.767.962-.47 5.086-.856 9.163-.857 5.495-.001 7.537-.368 7.888-1.415 1.367-4.074-9.831-5.585-15.551-2.098m23.987.771-1.264 2.695 1.63-1.629c.896-.896 1.464-2.109 1.263-2.695s-.935.147-1.629 1.629m40.93 10.116c-.916.58.093 1.204 3.224 1.992 6.208 1.564 11.396 6.307 12.853 11.753.737 2.758 1.446 3.893 1.943 3.11 1.226-1.93.948-6.471-.627-10.241-.792-1.896-2.929-4.354-4.75-5.464-3.391-2.068-10.216-2.689-12.643-1.15M1186.947 878c.566 10.175 1.731 22.55 2.588 27.5.858 4.95 3.331 15.859 5.497 24.243l3.937 15.243.333 22.757c.369 25.231 1.021 28.976 7.342 42.121 2.539 5.28 5.566 9.394 10.698 14.54 4.31 4.32 9.704 8.508 13.557 10.524 7.32 3.83 18.518 7.003 25.101 7.112l4.5.075-5.169 2.35c-11.021 5.011-28.348 18.398-39.999 30.904-3.757 4.034-9.532 11.094-12.832 15.69-19.09 26.586-41.341 71.287-56.012 112.524-2.951 8.296-5.648 16.207-5.993 17.58-.542 2.162-1.52 2.671-7.311 3.805-12.615 2.47-52.691 12.845-67.684 17.524-18.769 5.856-34.552 12.015-50 19.511-13.592 6.596-22.834 12.273-36.357 22.336-10.178 7.573-23.539 20.508-30.953 29.966-3.771 4.809-4.749 5.586-4.993 3.963-.379-2.519 3.137-16.452 6.212-24.623 5.152-13.686 13.824-28.678 24.319-42.043 8.516-10.845 27.395-29.038 41.024-39.534 6.737-5.188 12.248-9.615 12.248-9.839 0-.223-4.837 2.166-10.75 5.31-19.43 10.332-41.246 26.907-53.35 40.533-21.303 23.981-32.919 48.104-37.286 77.428-1.166 7.827-1.477 8.674-2.389 6.5-.576-1.375-3.137-7.45-5.692-13.5-2.554-6.05-6.835-16.4-9.512-23-7.291-17.971-17.114-40.698-26.734-61.853l-8.596-18.905 2.405-1.825c1.322-1.004 9.881-5.981 19.02-11.06l16.616-9.235 5.213-10.561c9.582-19.411 28.317-54.381 38.339-71.561 10.428-17.876 22.197-35.5 23.706-35.5.491 0 1.181.468 1.535 1.041 1.024 1.656 8.327 5.992 12.839 7.623 14.201 5.132 29.877 2.983 45.098-6.183l5.842-3.518-.617 17.268c-.34 9.498-.891 18.394-1.226 19.769l-.609 2.5 1.694-2c3.366-3.972 9.667-18.846 11.998-28.321 3.38-13.742 4.73-32.905 3.476-49.348-.924-12.127-2.673-24.483-4.574-32.331-.4-1.65-.482-2.775-.181-2.5.3.275 2.573 3.259 5.05 6.63 5.004 6.81 10.352 11.37 13.334 11.37 1.078 0 4.156-1.393 6.84-3.095 5.778-3.665 23.761-21.576 34.989-34.85 21.487-25.403 43.248-58.033 57.055-85.552 4.968-9.902 10.368-22.176 12-27.276 1.632-5.099 3.061-8.699 3.176-8 .115.7.672 9.598 1.238 19.773m22.122-8.801c-.639 1.816-1.422 7.576-1.739 12.801-.779 12.817 1.357 23.929 6.666 34.69 4.495 9.109 10.488 15.774 18.391 20.453 4.206 2.491 4.581 2.917 2.113 2.405-5.747-1.193-15.965-6.918-20.467-11.468-5.439-5.495-9.422-12.635-11.5-20.615-2.81-10.788-1.58-22.61 3.669-35.267 1.665-4.016 3.253-7.076 3.528-6.801.276.276-.022 1.986-.661 3.802M721.5 867.765c.55.404 1.788 2.154 2.75 3.889 2.951 5.319 2.125 9.805-2.136 11.601l-2.614 1.102 2.332.402c2.533.436 5.893-2.011 7.223-5.259l.818-2 .064 2.173c.088 3.014-4.406 8.052-7.86 8.81-4.049.889-9.622-1.703-11.511-5.355-2.164-4.186-1.958-8.36.572-11.576 2.985-3.795 7.904-5.592 10.362-3.787m356.008 1.222c-.335.543-3.174 1.744-6.309 2.669-4.477 1.322-10.095 1.7-26.199 1.763l-20.5.081-5.374 2.829-5.373 2.83-8.127-.639-8.126-.639-6.984 4.131c-7.545 4.464-11.877 5.831-12.954 4.089-1.08-1.748-2.562-1.279-2.562.81 0 2.354 5.211 6.884 8.827 7.673 1.47.321 3.126.715 3.681.875.554.161 1.86 2.711 2.902 5.667 3.226 9.15 6.347 14.511 10.542 18.101 2.218 1.899 5.776 3.974 7.906 4.612 4.739 1.42 19.058 1.477 25.03.1 8.15-1.878 15.414-6.09 22.19-12.863 3.706-3.705 8.255-9.632 10.42-13.576 2.113-3.85 6.241-11.198 9.172-16.329s5.33-10.194 5.33-11.25c0-2.001-2.431-2.651-3.492-.934m-29.245 20.545c-12.837 6.9-27.879 11.923-33.074 11.043-4.718-.798-15.189-4.802-15.189-5.808 0-.422 2.362-.8 5.25-.84s7.5-.428 10.25-.861c5.037-.794 24.304-4.987 34.5-7.508 3.025-.748 6.175-1.398 7-1.444s-3.107 2.392-8.737 5.418m-340.187-.903C711.015 891.816 715.863 894 720 894c4.016 0 8.821-2.097 12.302-5.367l2.801-2.633 11.699.011c22.251.02 53.868 4.514 71.948 10.226l10.25 3.238v3.651c0 2.008-1.336 19.788-2.969 39.512-2.807 33.897-3.954 48.582-7.545 96.612-.833 11.138-2.398 31.275-3.478 44.75s-2.879 38.225-3.998 55c-2.864 42.94-4.859 62.133-6.67 64.158-4.018 4.491-23.852 10.129-43.823 12.455-10.199 1.188-18.239 1.471-29.517 1.038-24.166-.926-41.863-4.135-53.625-9.724-4.39-2.085-6.42-3.692-7.164-5.669-.933-2.476-1.797-8.506-3.801-26.508l-.64-5.75h4.008c2.594 0 4.206.516 4.569 1.462.974 2.538 12.257 7.472 23.915 10.457 25.486 6.528 55.339 6.689 79.738.431 10.878-2.791 21.743-7.516 22.637-9.847.336-.874.434-1.765.22-1.98-.215-.214-5.558 1.349-11.874 3.474-13.048 4.39-25.542 6.684-41.483 7.617-11.77.689-31.267-.774-43-3.227-8.462-1.768-18.54-4.82-22.125-6.699l-2.631-1.378 11.378-.605c6.258-.333 12.914-1.067 14.791-1.632 5.486-1.651 10.861-5.975 13.052-10.5 2.213-4.573 2.59-8.668 1.059-11.529-.863-1.613-.429-1.904 3.75-2.512 10.39-1.514 18.226-9.258 18.226-18.013 0-3.936-.501-5.007-3.867-8.27-2.127-2.062-7.414-5.746-11.75-8.186s-8.108-4.64-8.383-4.887.106-.665.847-.929c.741-.263 2.905-1.846 4.809-3.518 6.675-5.86 9.253-14.819 5.572-19.361-2.794-3.447-17.2-13.615-30.433-21.481-11.986-7.124-26.526-13.836-30.045-13.87-1.274-.012-1.75-.833-1.75-3.017v-3h3.818c2.101 0 6.217-.712 9.148-1.583 3.946-1.171 6.669-2.924 10.487-6.75 3.666-3.672 5.538-6.53 6.471-9.876.722-2.591 1.034-5.823.692-7.184-.341-1.361-1.857-3.348-3.368-4.416-2.619-1.851-15.297-6.862-27.35-10.81l-5.602-1.836-1.684-15.329c-1.968-17.913-2.55-21.216-3.737-21.216-1.169 0-1.103 6.061.214 19.548.599 6.134.937 12.049.75 13.144l-.339 1.991-5.25-1.561c-3.38-1.005-5.25-2.108-5.25-3.098 0-.845-1.8-19.475-4-41.399-2.2-21.925-4-41.409-4-43.299v-3.437l5.25-2.397c9.309-4.25 32.915-9.4 52.25-11.399 4.4-.455 8.484-.887 9.076-.96.591-.073 2.166 1.05 3.5 2.496m39.47 4.297c-.315.51 1.796 1.179 4.69 1.487 22.621 2.409 32.619 3.873 40.806 5.977 9.747 2.505 18.958 6.129 18.958 7.459 0 1.474-9.645 4.17-20 5.59-13.967 1.915-21.562 2.169-23.239.777-2.768-2.296-10.351-5.173-13.695-5.194-4.261-.027-11.685 3.467-13.611 6.407l-1.442 2.2-8.552-.279-8.552-.279-3.561-2.935c-1.958-1.615-5.463-3.468-7.788-4.119-3.257-.912-5.238-.911-8.634.003-2.424.653-5.682 2.094-7.24 3.203l-2.831 2.017-12.678-1.176c-14.293-1.325-26.024-3.5-27.612-5.12-2.75-2.804 10.852-8.29 28.747-11.594 5.984-1.105 8.484-1.954 7.792-2.646s-3.84-.627-9.811.202c-11.978 1.663-24.132 4.8-28.848 7.445-2.252 1.263-4.324 3.363-4.881 4.947-.818 2.326-.588 3.13 1.484 5.185 2.72 2.699 10.738 5.096 20.236 6.05 3.419.343 6.891.866 7.716 1.161s-1.425 1.151-5 1.902c-8.736 1.833-16.893 6.125-19.804 10.422-1.753 2.587-2.221 4.344-1.823 6.838.295 1.845 1.219 4.399 2.055 5.674 3.485 5.319 21.761 11.567 43.726 14.949 14.124 2.175 52.074 3.083 67.827 1.622 15.805-1.466 29.636-4.277 40.65-8.262 6.31-2.283 9.804-4.248 12.999-7.309 3.547-3.399 4.37-4.853 4.37-7.724 0-6.414-5.715-11.232-18.805-15.852l-7.323-2.585 6.648-1.225c8.394-1.546 15.473-3.904 17.73-5.903 2.606-2.31 2.216-6.729-.804-9.105-3.325-2.616-12.803-5.672-23.446-7.561C785.13 894 762.388 892 753.359 892c-2.882 0-5.499.417-5.813.926m298.95 11.078c-2.446 2.703-11.054 6.703-16.114 7.488-3.221.5-4.248.298-4.718-.926-.403-1.049-.031-1.566 1.126-1.566 1.813 0 18.069-5.525 19.002-6.459.298-.298.986-.541 1.53-.541.543 0 .172.902-.826 2.004m-124.339 18.655c2.901 2.938 5.74 5.339 6.309 5.337.63-.003 1.034-3.303 1.034-8.451 0-4.856.472-8.917 1.11-9.555.814-.814 1.257-.015 1.661 2.991.808 6.024 7.935 17.345 13.877 22.042 3.895 3.079 4.562 3.977 2.954 3.977-1.143 0-6.293-1.35-11.443-3-5.151-1.65-9.642-3-9.979-3-1.154 0 3.239 6.529 6.53 9.705 1.81 1.745 4.64 3.909 6.29 4.808l3 1.634-8-.41c-6.085-.311-9.222-1.034-13.107-3.018-2.81-1.434-6.544-3.817-8.3-5.294-4.255-3.58-8.089-11.391-8.714-17.753-.425-4.322-.312-4.843.688-3.172 1.476 2.468 7.105 8.5 7.931 8.5.333 0 .176-2.599-.349-5.776-.526-3.177-.61-7.564-.187-9.75l.769-3.974 1.326 4.409c.874 2.908 3.123 6.229 6.6 9.75M1018.625 910c2.406 0 4.375.414 4.375.921 0 1.603-5.678 2.243-9.874 1.113-5.096-1.372-6.916-3.642-2.156-2.69 1.804.361 5.249.656 7.655.656M896.91 928.43c1.631 4.235 4.387 9.916 6.124 12.623s5.627 7.178 8.643 9.935c3.016 2.756 4.948 5.012 4.294 5.012-2.917 0-13.488-6.782-17.463-11.202-2.507-2.789-5.118-7.081-6.13-10.078-1.947-5.763-2.337-14.067-.95-20.22l.901-4 .808 5.114c.444 2.813 2.142 8.58 3.773 12.816m-181.933-10.625c1.387 1.021 3.423 3.621 4.523 5.776s2.12 4.114 2.267 4.352.799-.099 1.45-.75c.691-.691 4.165-1.183 8.351-1.183h7.169l.549 4.098c.303 2.257 1.564 5.178 2.806 6.5 2.951 3.141 8.379 3.247 11.594.228 1.272-1.196 2.314-2.906 2.314-3.8 0-2.147-1.96-4.026-4.2-4.026-1.266 0-1.8.762-1.8 2.57 0 2.092-.417 2.51-2.25 2.249-2.255-.321-2.485-1.331-1.236-5.42.404-1.325.036-2.706-.999-3.741-1.472-1.472-1.486-1.861-.133-3.793 4.077-5.82 12.135-7.606 17.011-3.77 2.708 2.13 6.607 8.724 6.607 11.174 0 .742.675 2.222 1.5 3.29l1.5 1.941 1.423-1.836c.91-1.173 1.223-3.068.869-5.25l-.554-3.414h5.471c6.188 0 18.526 2.905 25.573 6.021 4.937 2.183 10.218 6.561 10.218 8.47 0 2.017-6.404 7.344-11.381 9.467-7.397 3.157-18.545 5.828-31.993 7.666-16.843 2.302-50.523 2.306-69.626.008-14.317-1.722-36.973-6.518-41.282-8.739-4.156-2.141-6.718-5.199-6.718-8.016 0-1.959.957-3.501 3.25-5.241 3.335-2.53 12.358-5.934 18.978-7.16 3.139-.581 4.219-.278 6.827 1.917 1.704 1.434 3.686 2.607 4.403 2.607.718 0 2.587-1.687 4.155-3.75 6.277-8.258 11.627-11.581 17.364-10.785 1.912.266 4.612 1.318 6 2.34m638.276 11.927c.277 3.172.091 8.403-.413 11.623-1.105 7.054-5.533 16.182-10.041 20.698-3.528 3.535-14.443 10.947-16.12 10.947-.557 0 .806-1.687 3.029-3.75s5.829-6.527 8.014-9.92c4.196-6.515 6.405-12.022 10.848-27.048 1.499-5.069 3.053-9.015 3.452-8.768.4.247.954 3.045 1.231 6.218m-648.003-.743c-4.689 2.859-4.211 4.382 1.124 3.582 3.046-.457 5.63-.153 8.511 1 3.316 1.326 4.433 1.41 5.626.42.819-.68 1.478-1.743 1.464-2.363-.036-1.677-6.589-4.629-10.266-4.624-1.765.002-4.671.895-6.459 1.985m542.848 37.791c1.979 1.207 6.704 3.409 10.5 4.893 6.105 2.387 8.289 2.703 18.902 2.734 9.752.029 13.03-.352 17.5-2.032 3.025-1.138 6.4-2.403 7.5-2.813 1.242-.462.674.436-1.5 2.37-4.281 3.808-18.088 10.68-23.382 11.638-3.12.564-3.552.887-2.201 1.644 2.119 1.185 16.615 1.53 22.583.537l4.5-.749-2 1.608c-3.843 3.088-13.973 7.359-21.349 9-5.18 1.152-9.977 1.496-15.809 1.132-11.041-.689-17.361-3.738-24.811-11.971-3.042-3.361-5.531-6.525-5.531-7.03s1.463.316 3.25 1.825c6.93 5.849 21.422 10.976 28.973 10.249l3.277-.315-5.961-2.791c-8.495-3.978-16.028-10.128-20.998-17.143-4.084-5.765-8.541-13.685-8.541-15.178 0-.381 2.588 1.758 5.75 4.752 3.162 2.995 7.369 6.433 9.348 7.64m-443.719 1.733-7.12 4.485-.635 6.751c-2.262 24.065-11.979 186.229-11.205 187.003.58.581 13.443-4.72 14.123-5.82.247-.4 1.36-16.637 2.472-36.08 2.058-35.974 6.205-99.211 7.99-121.852.542-6.875 1.226-15.875 1.521-20s.769-10.087 1.055-13.25.159-5.744-.28-5.736-4.004 2.033-7.921 4.499m570.658 9.763c-1.22 7.944-5.219 17.452-9.439 22.442-1.497 1.769-5.677 4.672-9.289 6.451-5.835 2.872-7.473 3.224-14.688 3.158-6.505-.06-9.216-.584-13.621-2.632-3.025-1.406-6.547-3.403-7.826-4.437l-2.326-1.881 9.005.43c7.222.346 10.398.008 16.036-1.705 3.868-1.174 9.862-4.064 13.321-6.421 7.334-4.997 14.92-14.439 17.501-21.782 1.271-3.616 1.882-4.475 2.112-2.968.178 1.167-.176 5.372-.786 9.345m-408.092-5.174c-2.338 4.37-10.446 12.119-15.425 14.743-4.405 2.321-6.185 2.646-14.52 2.65l-9.5.005-7.169-3.361c-3.943-1.848-8.443-4.73-10-6.404-2.276-2.447-2.439-2.893-.831-2.275 8.913 3.427 13.305 4.601 19.286 5.157 8.016.745 18.57-.83 24.58-3.668 2.274-1.074 6.384-3.682 9.134-5.797s5.149-3.728 5.331-3.584c.182.143-.217 1.284-.886 2.534M907.5 977c.34.55.141 1-.441 1s-1.059-.45-1.059-1 .198-1 .441-1 .719.45 1.059 1m-132.732 16c-1.039 6.395-2.474 28.503-4.25 65.5-.845 17.6-1.974 40.55-2.508 51-.535 10.45-1.277 29.688-1.649 42.75-.467 16.367-.351 23.75.374 23.75.578 0 1.319-.697 1.645-1.549 1.183-3.081 3.894-56.179 6.661-130.451 1.176-31.593 1.03-59.014-.273-51m651.653 1.25c.358 2.888.231 8.175-.283 11.75-1.659 11.545-6.056 19.982-14.44 27.71-4.667 4.303-14.072 9.665-15.888 9.06-.568-.189.815-1.624 3.073-3.189 13.04-9.036 21.05-25.46 21.1-43.261l.017-6.181 2.25-.433c1.237-.239 2.536-.495 2.885-.57s.928 2.226 1.286 5.114m-772.319 6.275c5.719 1.389 11.748 2.918 13.398 3.398l3 .873-3.059.102c-4.781.159-6.896 2.283-6.896 6.925 0 7.261 5.599 10.941 18.455 12.129l7.5.694-5 2.36c-3.642 1.718-7.317 2.476-13.527 2.788-4.69.236-11.794-.078-15.788-.697-5.924-.92-8.961-.837-16.488.446-6.907 1.177-10.348 1.321-13.685.571-2.452-.551-4.695-.765-4.984-.475-.29.289.937 1.834 2.725 3.432s5.95 3.698 9.248 4.667 5.997 2.069 5.998 2.445c.002 1.147-8.245 7.448-12.655 9.669l-4.156 2.093-4.006-11.291c-5.444-15.339-6.449-19.415-5.732-23.237.744-3.967 5.033-7.911 14.14-13.004 8.328-4.658 12.878-6.313 17.512-6.369 1.981-.024 8.281 1.092 14 2.481m719.509 4.919c-3.641 4.773-8.518 8.333-14.563 10.63-8.841 3.359-9.587 2.08-1.227-2.105 4.429-2.216 10.219-5.997 12.866-8.401s4.988-4.203 5.202-3.997c.215.206-.811 1.949-2.278 3.873m-456.975 5.553c7.405 7.85 15.387 12.484 26.864 15.597 7.068 1.918 7.673 2.257 5.194 2.911-1.543.407-6.493.537-11 .288-6.245-.344-9.383-1.067-13.194-3.04-6.344-3.284-13.632-10.771-16.935-17.398-1.411-2.83-2.565-5.426-2.565-5.769s1.196-.324 2.657.043 5.502 3.683 8.979 7.368m-238.136 2.621 5 2.385-6.332-.56c-6.176-.547-11.168-2.083-11.168-3.437 0-2.564 5.138-1.901 12.5 1.612m167.75.58c.962 1.113 1.75 2.609 1.75 3.324 0 3.437-4.305 14.41-8.928 22.754-5.482 9.897-10.56 16.829-9.686 13.224.266-1.1 1.044-10.213 1.727-20.251l1.242-18.252 2.114-1.385c4.558-2.986 8.878-2.772 11.781.586m133.038 10.41c1.431 2.809 4.925 7.196 7.765 9.75 2.84 2.553 5.565 4.642 6.055 4.642.491 0 .892-.128.892-.285s-.873-2.767-1.939-5.802-2.257-7.907-2.644-10.826l-.704-5.308 4.862 5.198c2.674 2.859 6.226 5.906 7.894 6.772 1.667.865 2.504 1.751 1.86 1.969s-3.456-.762-6.25-2.178-5.079-2.179-5.079-1.698c0 .482 1.824 2.948 4.053 5.48 2.457 2.792 6.571 5.845 10.451 7.755 5.061 2.491 7.79 3.178 13.05 3.286l6.652.137-5.067 2.3c-10.325 4.686-23.079 4.822-31.865.34-4.872-2.486-10.918-9.081-13.336-14.548-2.085-4.712-3.584-16.548-2.443-19.278.592-1.416 1.026-.826 1.975 2.686.67 2.475 2.388 6.798 3.818 9.608m370.441-6.004c-.332.332-1.195.368-1.916.079-.798-.319-.561-.556.604-.604 1.054-.043 1.644.193 1.312.525m-237.677 22.158c-3.8 9.459-13.573 27.655-20.415 38.013-6.643 10.056-12.636 17.77-23.387 30.106-3.437 3.944-6.25 7.834-6.25 8.645s.741 1.474 1.646 1.474 5.968-2.661 11.25-5.914 13.654-7.919 18.604-10.369c10.024-4.962 19.369-8.19 36.619-12.65 19.732-5.103 34.096-9.042 40.881-11.212 8.367-2.676 28.2-10.842 29.5-12.146q1.004-1.006-1-.289c-3.099 1.108-44.051 10.921-63 15.097-17.45 3.845-36.03 9.691-44.594 14.03-2.662 1.349-5.117 2.453-5.457 2.453s.69-1.687 2.288-3.75c3.29-4.246 10.767-17.263 14.217-24.75 5.506-11.949 12.765-33.115 11.716-34.163-.172-.172-1.35 2.27-2.618 5.425m-451.802-1.776c.962.008 1.75.588 1.75 1.29 0 .886-1.223 1.16-4 .895-2.734-.26-4-.859-4-1.893 0-1.079.643-1.339 2.25-.908 1.237.331 3.038.609 4 .616m667.25 5.906c10.509 2.824 22.223 8.731 31.5 15.883 4.125 3.181 10.43 9.432 14.012 13.892 3.581 4.459 8.48 12.097 10.886 16.971s6.297 14.712 8.646 21.862c3.871 11.777 8.284 30.605 9.986 42.604l.653 4.604-7.823.708c-18.503 1.677-46.83 7.907-88.36 19.432-54.898 15.234-63.438 17.565-77.349 21.105l-14.848 3.78.691-5.617c.379-3.089 1.714-10.678 2.964-16.866s2.079-11.25 1.839-11.25c-.743 0-10.941 22.143-13.356 29-1.259 3.575-2.413 6.665-2.565 6.867-.269.356-31.222 8.079-32.527 8.115-1.007.028 2.515-15.001 7.126-30.405 10.618-35.476 27.118-70.282 45.541-96.066 11.683-16.352 28.812-32.06 42.484-38.962 5.181-2.615 15.625-6.172 22.069-7.516 2.437-.508 10.281-.781 17.431-.607 9.332.227 15.257.922 21 2.466m67.229-1.288c-.332.332-1.195.368-1.916.079-.798-.319-.561-.556.604-.604 1.054-.043 1.644.193 1.312.525M955.125 1047c3.226 0 4.88.423 4.89 1.25.008.688 1.538 4.372 3.401 8.188l3.388 6.938-5.732 7.562c-12.897 17.018-30.961 46.033-48.599 78.062-6.511 11.825-14.18 25.755-17.041 30.955l-5.202 9.455-6.992 3.18-6.992 3.18-.505-17.135c-.413-13.985-.968-18.882-3.017-26.635-2.678-10.132-8.133-23.158-7.29-17.409 1.362 9.297 1.649 24.012.642 32.878-1.215 10.688-4.963 26.531-6.277 26.531-.439 0-.799-.417-.799-.927 0-1.04-3.524-8.78-13.712-30.113l-6.943-14.54 4.129-9.96c6.294-15.18 16.761-35.521 23.836-46.319 8.573-13.084 17.075-22.754 25.488-28.991 8.284-6.142 19.042-11.258 28.657-13.631 7.785-1.92 22.531-3.516 26.92-2.914 1.581.217 5.069.395 7.75.395m-289.321 3.433c8.027 2.731 21.405 9.231 32.377 15.733l7.314 4.334-4.23.307c-5.059.366-7.265 2.89-7.265 8.312 0 2.93.692 4.282 3.418 6.675 4.04 3.547 13.24 7.206 18.12 7.206 1.904 0 3.462.394 3.462.875 0 1.109-5.022 2.13-10.375 2.109-3.96-.015-9.792-1.862-39.747-12.585l-13.622-4.877-7.378 2.314c-17.102 5.363-31.598 9.164-34.951 9.164-3.88 0-5.075-1.371-6.928-7.945-1.353-4.799.335-10.312 4.603-15.036 3.546-3.926 15.72-10.505 29.898-16.159 8.951-3.569 15.729-3.683 25.304-.427M713 1083.117l2.5 2.041-3-.652c-4.649-1.011-10.939-4.831-11.334-6.884-.319-1.654.158-1.569 4.489.802 2.665 1.459 5.97 3.571 7.345 4.693m-42.888 8.478c4.519 1.428 12.305 4.153 17.302 6.057 11.88 4.527 31.74 13.527 31.15 14.117-.254.254-1.888-.035-3.631-.643-1.744-.607-4.185-.85-5.426-.538-2.378.596-4.507 4.143-4.507 7.509 0 1.101.703 3.363 1.563 5.025 1.071 2.07 3.512 3.949 7.75 5.965 3.403 1.618 7.866 3.217 9.919 3.552 2.052.336 3.488 1.005 3.191 1.486-.85 1.375-9.466 1.027-18.066-.73-4.321-.882-16.603-4.032-27.292-7S660.611 1121 658.143 1121s-12.96 2.032-23.314 4.515-21.455 4.79-24.668 5.126l-5.843.611-1.659-4.146c-2.083-5.207-2.13-13.043-.106-17.888 2.496-5.975 6.193-9.06 13.402-11.184 5.252-1.547 20.328-5.098 35.545-8.372 5.034-1.083 11.04-.459 18.612 1.933m-1.461 40.429c12.218 2.086 30.704 6.574 33.349 8.095.883.508-.871.604-4.267.232-4.735-.517-6.122-.309-7.75 1.164-2.897 2.622-2.536 7.086.846 10.468 3.095 3.095 8.585 5.003 14.421 5.011 3.943.006 4.963 1.29 2 2.517-3.302 1.367-20.758 1.698-34.639.657l-13.889-1.042-15.808 5.937c-8.695 3.265-16.77 5.937-17.945 5.937-1.261 0-1.967.512-1.725 1.25.226.688 2.626 1.479 5.334 1.759l4.922.509-4.5 2.399c-2.475 1.319-3.938 2.59-3.251 2.824s3.522-.062 6.299-.658c7.069-1.516 14.538-1.348 17.923.402 1.579.817 3.838 2.843 5.02 4.503 1.255 1.762 2.962 7.058 4.102 12.725 1.074 5.339 2.608 10.708 3.409 11.931 2.474 3.776 7.905 7.274 16.966 10.927 4.781 1.928 14.394 4.868 21.362 6.534 6.969 1.666 13.458 3.254 14.42 3.529 1.024.293 1.75 1.469 1.75 2.834 0 2.907-7.6 13.141-13.824 18.616l-4.676 4.114 5.609-.591c5.963-.629 11.77-2.684 15.931-5.64l2.54-1.804.14 29.169c.121 25.291 1.162 48.075 3.901 85.418l.678 9.25-5.399.054c-2.97.029-23.4 1.093-45.4 2.363s-40.18 2.153-40.4 1.962c-.221-.19 1.456-12.166 3.726-26.613 6.048-38.493 10.022-69.098 11.369-87.55 1.025-14.052 1.402-16.199 2.746-15.672 6.426 2.522 16.78 5.593 20.633 6.121l4.63.635-.352-1.9c-.204-1.103-4.338-4.492-9.852-8.077-5.225-3.397-11.766-7.793-14.536-9.77-9.901-7.064-17.306-15.208-26.104-28.71-5.481-8.41-12.066-16.874-17.811-22.893-7.283-7.629-9.461-10.618-10.832-14.865-2.098-6.493-2.225-16.932-.265-21.623.893-2.138 2.528-3.887 4.25-4.547 6.091-2.335 43.18-9.553 50.449-9.818 1.457-.053 7.982.814 14.5 1.927m158.696 4.757c-.882 3.372 2.545 16.191 7.203 26.942 2.568 5.927 11.744 24.727 20.392 41.777s17.642 35.95 19.989 42c8.171 21.065 18.754 55.944 17.823 58.739-.187.559-2.118-3.879-4.292-9.862-5.167-14.218-22.094-48.299-27.919-56.211-4.679-6.356-10.327-10.782-11.835-9.274-.464.464 2.134 8.831 5.773 18.594s6.445 17.922 6.235 18.131c-.209.21-1.774-1.756-3.478-4.368-4.635-7.106-12.626-15.655-17.9-19.148-7.769-5.147-8.17-4.13-2.211 5.606 5.254 8.584 19.531 37.84 20.395 41.793.508 2.325-.299 1.537-3.585-3.5a2920 2920 0 0 0-7.657-11.672c-4.712-7.134-15.776-18.44-21.726-22.201-2.72-1.72-5.334-3.127-5.808-3.127s1.119 2.588 3.542 5.75c8.214 10.721 15.766 22.668 21.749 34.403 3.28 6.433 5.963 11.914 5.963 12.181s-5.513-5.138-12.25-12.012c-13.28-13.548-22.461-21.422-30.165-25.868l-4.915-2.837-4.487 4.941c-15.749 17.342-24.079 33.702-26.249 51.549-1.742 14.323.401 24.889 9.56 47.143.58 1.41.2 1.75-1.952 1.75-2.379 0-3.104-.936-6.626-8.561-2.176-4.708-4.945-12.021-6.154-16.25-1.758-6.151-2.197-10.289-2.193-20.689.002-9.027.516-14.89 1.68-19.186 4.832-17.827 13.167-32.839 26.354-47.464 3.793-4.207 10.947-11.122 15.897-15.365 9.534-8.172 28.194-21.002 37.805-25.992 4.98-2.586 5.688-3.305 5.201-5.283-.31-1.259-3.631-8.009-7.38-15s-10.439-19.46-14.867-27.71l-8.051-15 .776-6.152c.426-3.384 1.617-7.275 2.645-8.647 2.057-2.744 3.446-2.703 2.718.08m-154.592 40.798c-.446.445 1.002 17.214 1.747 20.242.395 1.604 2.185 3.032 5.785 4.617 6.181 2.722 19.884 6.003 31.713 7.593 9.779 1.315 34.656 1.816 37.25.75 1.502-.616 1.75-2.134 1.75-10.696v-9.978l-13.373-.041c-21.613-.065-42.861-3.748-57.828-10.022-3.686-1.545-6.856-2.654-7.044-2.465m127.745.3c-1.474 1.468-16.205 7.199-20.148 7.839-1.87.303-3.659.969-3.974 1.48-.316.51.195 1.778 1.136 2.817 1.379 1.524 1.636 3.349 1.328 9.437-.209 4.151-.138 7.548.159 7.548.296 0 3.905-.933 8.019-2.073 4.113-1.14 8.912-2.958 10.663-4.04 2.722-1.682 3.276-2.722 3.821-7.177.889-7.268.266-17.095-1.004-15.831m-32.803 10.821c-1.417.367-1.556.766-.647 1.861.745.897 1.031 4.448.804 9.962l-.354 8.568 2.49-.625c1.369-.343 2.792-1.113 3.161-1.711.369-.597.967-3.059 1.329-5.47 1.016-6.778-.941-13.469-3.852-13.169-.621.064-1.939.326-2.931.584m581.303 3.569c-17.277 7.831-24.687 11.686-33.301 17.322-11.709 7.661-17.3 12.032-14.199 11.101 3.247-.976 28.373-5.52 36.5-6.601 4.125-.549 12.45-1.25 18.5-1.557l11-.558-13 3.445c-7.15 1.894-18.85 5.465-26 7.934-14.51 5.011-27.814 10.554-25.462 10.609.846.02 6.921-.634 13.5-1.453 13.858-1.725 46.651-3.857 50.997-3.316 2.084.26.737.746-4.535 1.635-23.102 3.898-76.734 13.607-89.389 16.181-8.082 1.644-14.968 2.989-15.303 2.989-1.144 0 7.963-6.211 10.949-7.466l2.981-1.254-2.341-1.64c-1.501-1.051-1.813-1.64-.87-1.641 1.608 0 19.307-9.998 18.728-10.578-.487-.486-48.343 12.179-53.255 14.094-3.091 1.205-1.08-.453 10.5-8.656q20.417-14.464 33.5-21.158c10.777-5.515 28.088-12.305 37.5-14.709 7.529-1.923 29.999-5.78 34-5.836.825-.011.375.489-1 1.113m-590.433 44.105c-3.474 4.605-9.635 13.379-13.691 19.496l-7.376 11.123-.346-3.246c-.369-3.471 1.519-24.931 2.706-30.747l.714-3.5 7.963-.567c4.38-.311 9.849-.649 12.154-.75l4.192-.183zM1085 1253.197c-8.737 3.709-30.997 15.248-33.5 17.365-2.277 1.926-2.518 2.41-1 2.011 33.07-8.701 61.178-14.669 68.375-14.518 1.444.031-1.65 1.325-6.875 2.877s-12.6 4.005-16.389 5.452c-10.821 4.133-30.333 14.227-29.367 15.193.192.192 2.803-.307 5.803-1.11 10.276-2.749 29.455-6.599 41.953-8.422 6.875-1.003 12.645-1.69 12.823-1.528.178.163-4.547 2.889-10.5 6.059a6017 6017 0 0 0-27.823 14.962c-9.35 5.06-26.225 14.039-37.5 19.953-20.566 10.789-46.058 25.077-51.308 28.758-1.544 1.083-3.012 1.764-3.263 1.513-.812-.812 21.823-22.953 35.026-34.262 7.063-6.05 14.238-12.245 15.943-13.767l3.102-2.767-6 2.113c-9.69 3.413-29.648 13.287-38.039 18.819-4.275 2.818-7.953 4.944-8.174 4.723-.661-.662 21.69-20.018 31.254-27.067 4.891-3.605 8.395-6.554 7.787-6.554s-6.443 1.835-12.967 4.078c-13.595 4.674-28.989 11.877-38.225 17.886-3.501 2.277-6.548 3.957-6.772 3.733s3.611-3.845 8.523-8.046c23.988-20.516 52.727-35.488 88.613-46.164 8.25-2.455 12.908-3.162 8.5-1.29m200.5 14.846c8.25.556 19.422 1.711 24.826 2.566 12.928 2.044 32.016 7.536 42.963 12.362 4.835 2.132 13.24 6.838 18.678 10.458 9.795 6.521 17.128 13.834 20.488 20.434.942 1.849 1.96 5.758 2.262 8.687.441 4.274.111 6.177-1.673 9.638-2.866 5.558-6.463 9.353-11.912 12.566-3.732 2.199-4.491 2.355-5.21 1.07-.463-.827-1.745-2.589-2.849-3.914l-2.006-2.41-.034 2.8c-.059 5.012-2.808 8.709-8.354 11.233-12.927 5.882-42.528 11.961-48.323 9.923-1.522-.535-4.204-2.856-5.96-5.158l-3.192-4.186-.588 2.194c-.324 1.207-.595 3.657-.602 5.444L1304 1365h-13.918c-7.655 0-14.63-.273-15.5-.607-1.231-.472-1.582-2.137-1.582-7.5 0-3.929-.43-6.893-1-6.893-.55 0-1 .419-1 .931 0 .511-1.687 3.681-3.75 7.042l-3.75 6.113-6-.602c-9.847-.988-23.685-3.428-28.632-5.049-2.548-.835-5.356-2.316-6.239-3.293-.884-.976-2.217-3.537-2.962-5.69l-1.356-3.916-2.905 4.194c-1.598 2.307-3.579 4.211-4.403 4.232-2.417.061-16.218-4.795-19.753-6.951-1.82-1.11-3.25-2.813-3.25-3.871 0-1.039.677-3.858 1.504-6.264l1.505-4.376-4.985 5.155-4.985 5.156-3.829-2.774c-5.666-4.104-11.093-10.896-11.825-14.798-.354-1.89-.391-5.893-.081-8.897 1.313-12.718 15.435-26.13 38.328-36.401 15.703-7.046 35.301-10.908 64.868-12.783 1.1-.07 8.75.328 17 .885m-27.862 7.457c-1.2 3.129 1.687 6.08 4.785 4.891 2.034-.78 2.806-3.411 1.472-5.018-1.521-1.832-5.536-1.751-6.257.127m29.587 1.504c-7.081 4.317-6.114 11.935 2.014 15.87 5.809 2.812 14.988 2.895 19.447.176 1.753-1.069 3.692-2.888 4.31-4.043.888-1.659.744-2.878-.686-5.804-2.44-4.993-8.814-8.204-16.272-8.199-3.77.002-6.584.641-8.813 2m-64.195 2.579c-4.338 1.882-7.003 4.246-8.141 7.223-1.263 3.301 1.467 8.027 5.645 9.773 7.663 3.201 18.887.376 21.936-5.522l1.604-3.1-1.615-3.401c-.933-1.968-3.014-4.066-4.937-4.979-4.142-1.965-9.953-1.963-14.492.006m109.01 5.869c-.663.799-1.052 2.261-.864 3.25.444 2.34 5.075 2.905 6.798.83 1.086-1.309 1.004-1.899-.491-3.551-.986-1.089-2.343-1.981-3.016-1.981-.672 0-1.764.653-2.427 1.452m77.93 7.611c46.415 6.564 83.902 18.923 97.894 32.273 2.401 2.29 4.988 5.612 5.75 7.382 1.89 4.389 1.705 9.988-.489 14.782-2.326 5.083-8.653 11.583-15.599 16.026-7.071 4.524-21.287 10.791-35.026 15.443-24.874 8.421-67.437 16.846-106 20.983-40.331 4.326-102.087 6.243-133.5 4.145-36.53-2.44-69.476-7.286-95.5-14.045-21.101-5.481-29.4-8.361-42-14.573-16.17-7.972-22.847-14.001-26.162-23.623-1.195-3.47-1.238-5.11-.243-9.285 1.01-4.239 2.374-6.234 8.307-12.159 6.161-6.153 8.879-7.955 20.598-13.656 18.628-9.061 40.892-16.042 64.5-20.225 4.95-.877 10.016-1.815 11.258-2.084 2.021-.438 1.789.196-2.213 6.04-5.851 8.547-8.545 17.354-8.545 27.936v8.212l-5.75 1.787c-3.162.983-7.325 2.711-9.25 3.84-5.376 3.152-9.843 7.746-10.517 10.816-.783 3.566 1.527 8.065 5.825 11.343 3.011 2.297 15.358 7.579 17.715 7.579 2.442 0 .437-1.777-5.642-5-6.495-3.443-12.381-8.838-12.381-11.348 0-2.578 6.135-7.045 12.729-9.269l6.771-2.283.749 4.997c.411 2.748 1.417 6.29 2.234 7.87 1.992 3.852 8.612 9.096 16.421 13.009 8.574 4.296 24.253 9.337 37.096 11.928 25.328 5.108 36.592 6.27 66 6.809 17.349.317 33.222.088 40.57-.587 15.613-1.433 33.918-4.524 48.724-8.227 12.617-3.157 27.439-9.056 33.762-13.438 6.957-4.821 11.8-12.995 11.9-20.082l.044-3.121 4.75.882c7.297 1.355 11.026 2.8 14.275 5.535 3.385 2.848 3.889 6.576 1.373 10.167-2.751 3.928-.852 3.403 2.962-.818 2.242-2.482 3.64-5.04 3.64-6.658 0-1.764-1.413-4.043-4.295-6.924-3.57-3.57-5.828-4.761-13.379-7.06l-9.085-2.766-.503-6.558c-.592-7.725-3.6-16.166-8.192-22.989l-3.299-4.903 3.626.5c9.75 1.343 30.54 5.695 38.077 7.97 12.378 3.736 25.346 9.592 31.456 14.206 6.484 4.895 10.127 11.483 9.271 16.763-.83 5.115-4.244 10.003-10.042 14.381-7.379 5.57-18.238 10.667-33.135 15.553-15.499 5.084-28.516 8.345-53.849 13.495-10.367 2.107-19.105 4.086-19.417 4.398-1.072 1.073 6.653.565 22.288-1.466 48.35-6.281 88.342-18.783 103.058-32.218 9.019-8.234 10.421-16.306 4.299-24.756-9.637-13.304-47.487-26.991-91.446-33.069-7.524-1.04-9.651-1.748-12.5-4.162l-3.433-2.908 4.5.582c2.475.32 11.011 1.503 18.97 2.628m-223.38 3.564c-.689 1.796.985 4.373 2.841 4.373.653 0 1.972-.574 2.932-1.276 1.094-.8 1.499-1.92 1.084-3-.861-2.246-6.005-2.319-6.857-.097m78.34.957c-.953 1.149-1.026 2.041-.263 3.25.578.916 2.078 1.666 3.333 1.666s2.755-.75 3.333-1.666c.763-1.209.69-2.101-.263-3.25-.723-.871-2.105-1.584-3.07-1.584s-2.347.713-3.07 1.584m88.365.523c-1.763.51-3.901 1.919-4.75 3.132-2.128 3.038-1.935 7.995.428 10.999 2.883 3.666 8.083 5.762 14.293 5.762 4.085 0 6.157-.545 8.211-2.161 2.439-1.918 2.691-2.656 2.249-6.576-.631-5.601-4.388-9.689-10.265-11.169-4.985-1.255-5.785-1.254-10.166.013m-36.96 8.462c-.76 1.982.753 4.807 2.792 5.21.776.153 2.303-.383 3.392-1.192 1.585-1.176 1.761-1.831.88-3.278-1.501-2.466-6.212-2.96-7.064-.74m-101.135.631c-1.855 1.855-1.435 3.6 1.3 5.392l2.5 1.638 2.5-1.638c1.375-.901 2.5-2.213 2.5-2.915 0-2.058-2.201-3.677-5-3.677-1.43 0-3.14.54-3.8 1.2m-321.517 1.988c-.319.797-.556.56-.604-.605-.043-1.054.193-1.644.525-1.312s.368 1.195.079 1.917m293.705-.755c-1.712.745-4.074 2.387-5.25 3.649-2.852 3.062-2.8 7.966.112 10.619 4.856 4.422 8.205 5.133 15.128 3.211 5.351-1.486 8.622-4.987 8.622-9.23 0-7.541-10.028-11.985-18.612-8.249m59.32 6.657c-4.292 2.265-7.699 7.14-7.704 11.025-.005 3.42 3.492 7.777 7.632 9.506 4.478 1.871 13.795 1.743 17.99-.248 4.983-2.365 7.374-5.886 7.374-10.862 0-3.097-.655-4.925-2.462-6.875-1.354-1.461-3.633-3.102-5.065-3.646-1.432-.545-5.161-.97-8.288-.946-3.684.029-7.02.749-9.477 2.046m-142.227 2.197c-4.411 1.789-10.233 4.55-12.937 6.135-10.732 6.289-17.472 14.893-17.522 22.368-.048 7.241 6.159 14.49 17.978 20.995 18.445 10.152 61.933 20.872 104 25.637 13.466 1.526 43.676 3.578 52.661 3.578 9.536 0 2.516-1.834-15.161-3.962-9.9-1.192-23.175-2.832-29.5-3.645-17.83-2.292-50.056-8.241-65.311-12.057-16.911-4.23-35.17-10.433-43.176-14.669-3.293-1.742-7.657-4.831-9.697-6.864-2.11-2.103-4.177-5.43-4.792-7.714-.839-3.116-.772-4.755.297-7.315 2.276-5.447 11.557-12.987 23.143-18.803 5.857-2.94 10.875-5.711 11.152-6.158 1.024-1.657-3.343-.687-11.135 2.474m273.703.463c.248 2.162.906 2.818 3.072 3.067 1.805.208 2.964-.228 3.362-1.263.843-2.197-1.386-4.554-4.307-4.554-2.076 0-2.396.414-2.127 2.75m-64.941 4.1c-3.853 1.11-9.017 5.936-10.206 9.538-.907 2.747-.835 4.159.354 7.004 2.108 5.047 6.771 7.6 13.891 7.604 3.18.002 7.267-.616 9.082-1.375 4.815-2.012 7.636-6.087 7.636-11.033 0-2.279-.735-5.192-1.633-6.474-3.245-4.634-12.485-7.177-19.124-5.264m46.687 8.734c-.953 1.149-1.026 2.041-.263 3.25.578.916 2.078 1.666 3.333 1.666s2.755-.75 3.333-1.666c.763-1.209.69-2.101-.263-3.25-.723-.871-2.105-1.584-3.07-1.584s-2.347.713-3.07 1.584m-140.81 1.192c-1.335 2.495.438 5.224 3.395 5.224 3.048 0 5.181-3.457 3.432-5.564-1.657-1.997-5.684-1.796-6.827.34m66.92 5.676c-1.768 2.131-.335 5.548 2.327 5.548 2.174 0 4.633-1.661 4.633-3.129 0-1.213-3.055-3.871-4.449-3.871-.718 0-1.848.653-2.511 1.452m61.348 2.028c-1.507 1.12-1.664 1.768-.779 3.211.61.995 2.185 1.809 3.5 1.809 1.696 0 2.481-.634 2.702-2.182.193-1.356-.418-2.572-1.612-3.212-1.408-.753-2.429-.653-3.811.374m50.112 81.559c-5.75 1.179-12.304 3.656-17.084 6.457-6.248 3.662-14.343 13.111-17.995 21.004-5.536 11.965-6.564 17.315-7.11 37-.433 15.573-.222 19.348 1.561 28 3.663 17.776 12.572 31.988 24.391 38.914 6.458 3.784 15.095 5.706 25.737 5.728 11.821.024 19.427-2.209 28.001-8.224 6.523-4.575 13.492-13.256 16.99-21.165 1.09-2.463 2.977-8.478 4.195-13.366 1.847-7.416 2.221-11.785 2.264-26.387.039-13.575-.36-19.247-1.776-25.287-1.005-4.283-3.629-11.388-5.832-15.789-4.439-8.868-11.705-17.023-18.928-21.243-2.523-1.473-8.107-3.579-12.41-4.68-8.097-2.071-15.1-2.377-22.004-.962m70.908 1.339c-.299.781-.374 23.403-.165 50.271.331 42.499.604 49.621 2.102 54.776 2.559 8.809 6.388 15.112 12.77 21.021 4.224 3.911 7.622 5.982 13.048 7.952 9.42 3.42 20.862 4.685 31.982 3.534 14.407-1.49 22.737-5.148 31.055-13.636 2.586-2.638 5.903-7.431 7.372-10.651 1.558-3.416 3.208-9.662 3.962-15 .797-5.639 1.545-26.494 1.952-54.395l.661-45.25H1532l-.033 43.75c-.018 24.063-.43 46.836-.916 50.608-.698 5.418-1.466 7.466-3.655 9.75-2.276 2.377-3.584 2.886-7.333 2.86-2.51-.017-5.238-.58-6.063-1.25-4.608-3.742-4.472-2.245-5-55.121l-.5-50.097-19.773-.271c-16.342-.224-19.868-.025-20.319 1.149M547 1439.192V1456h23.914l.293 50.918c.161 28.004.518 51.071.793 51.258s8.828.191 19.006.007l18.505-.335-.36-50.924-.36-50.924H633v-10.853c0-5.97-.293-13.657-.651-17.083l-.651-6.23-42.349.275-42.349.275zm94.336 30.058c.364 25.987.662 56.372.663 67.522l.001 20.272 18.75-.272 18.75-.272-.35-17.164c-.192-9.44-.026-21.478.369-26.75l.719-9.586H701v53h37v-133h-37v49h-22v-50h-38.326zm-172.994-13.5c.356 18.013.944 48.838 1.306 68.5l.658 35.75h39.914l-.606-28.75c-.334-15.812-.886-46.638-1.227-68.5l-.621-39.75h-40.071zM753 1489.5v66.5l5.75-.004c3.163-.002 11.487-.297 18.5-.654l12.75-.651V1423h-37zm51.523-36.749c.013 16.362.125 46.062.25 65.999L805 1555l14.75-.014c8.112-.007 15.763-.285 17-.616l2.25-.603v-61.074l9.033 17.404c4.968 9.571 12.048 23.366 15.733 30.653l6.7 13.25h33.442l.049-58.75c.027-32.312-.235-61.787-.583-65.5l-.632-6.75h-31.485l-.406 10.75c-.224 5.912-.394 19.824-.379 30.915s-.036 20.091-.114 20c-.416-.483-11.372-21.779-20.793-40.415L838.823 1423l-17.162.001-17.161.002zM917 1488.5v65.545l18.25-.272 18.25-.273.5-23 .5-23 4.61 8.5c2.535 4.675 7.71 14.893 11.5 22.706l6.89 14.206 20.25.044c11.138.024 20.25-.176 20.25-.446 0-.269-7.929-16.217-17.62-35.439l-17.62-34.949 13.533-24.311a15978 15978 0 0 1 16.218-29.083l2.685-4.772-19.295.272-19.295.272-11.27 22-11.27 22-.283-22.5-.283-22.5-18.25-.273-18.25-.272zm164.5-64.177c-7.629 1.951-15.153 6.517-20.648 12.529-5.834 6.384-9.968 14.147-12.949 24.319-1.681 5.735-2.25 10.917-2.617 23.829-.395 13.928-.153 18.029 1.554 26.305 2.225 10.783 6.387 20.651 11.403 27.034 4.486 5.707 7.324 8.078 13.953 11.65 7.595 4.094 18.953 5.808 28.598 4.315 3.832-.594 9.383-2.284 12.337-3.756 2.953-1.473 7.538-4.786 10.189-7.363s6.336-7.385 8.189-10.685 4.573-10.05 6.045-15c2.258-7.59 2.755-11.507 3.177-25 .389-12.455.127-17.979-1.182-24.934-.926-4.914-2.742-11.542-4.037-14.729-3.276-8.062-9.604-16.734-15.484-21.217-2.732-2.084-7.344-4.707-10.248-5.828-6.576-2.54-21.137-3.296-28.28-1.469m240.862 2.652c-.812 1.939-4.386 11.4-7.942 21.025s-6.834 18.39-7.284 19.477c-.623 1.506-2.203-2.197-6.614-15.5-3.188-9.612-6.667-19.839-7.731-22.727l-1.935-5.25h-20.035c-15.656 0-19.914.273-19.482 1.25 5.889 13.301 25.692 59.539 29.658 69.25 4.221 10.334 5.335 14.23 5.434 19 .067 3.3.223 13.763.346 23.25L1287 1554h38v-46.112l5.919-13.694a7481 7481 0 0 1 11.612-26.694c3.131-7.15 7.908-18.11 10.615-24.356s5.791-13.061 6.854-15.145l1.934-3.789-16.217-.665c-8.919-.366-17.491-.537-19.047-.38-2.172.218-3.175 1.105-4.308 3.81m-172.361 18.275c.001 11.138.299 39.487.663 63l.662 42.75H1187v-48h32v-27h-32v-23h35v-28h-72zm262.879 8.123c3.364 3.58 5.116 10.296 6.264 24.006 1.875 22.399-1.545 44.987-7.435 49.112-1.185.83-3.77 1.509-5.744 1.509-5.005 0-8.421-3.844-10.675-12.013-1.454-5.271-1.787-10.33-1.772-26.987.015-16.788.344-21.588 1.815-26.51.987-3.305 2.587-7.058 3.553-8.339 1.773-2.35 7.2-4.131 10.278-3.372.915.225 2.588 1.392 3.716 2.594m-314.409.007c4.292 4.292 5.758 11.493 6.276 30.825.505 18.868-.47 28.091-3.761 35.549-2.107 4.775-5.589 6.712-10.232 5.692-3.16-.694-6.131-4.691-7.765-10.446-.546-1.925-1.497-8.749-2.114-15.165-.812-8.455-.824-14.922-.045-23.5.591-6.509 1.814-13.973 2.717-16.587s2.785-5.651 4.182-6.75c3.443-2.708 7.807-2.553 10.742.382M910.75 1580.748l-17.75.298V1601h14v15.849c0 8.717.291 19.292.647 23.5l.646 7.651H930v-47h14.867l.317-9.901.316-9.9-4.39-.6c-2.414-.329-6.239-.498-8.5-.374-2.26.124-12.097.36-21.86.523m312.987-.048-16.763.348.263 33.945.263 33.945 24.75.33 24.75.33V1632h-26v-8l7.75-.192c4.263-.106 8.763-.2 10-.211l2.25-.018v-16.507l-9.75-.286-9.75-.286-.307-4.25-.308-4.25H1257v-17h-3.86c-2.124 0-5.836-.146-8.25-.324-2.415-.178-11.933-.168-21.153.024m-394.157 1.953c-.745 1.94-.629 57.329.13 62.097l.517 3.25h19.717l.278-13.461.278-13.461 7.604 13.211 7.604 13.211 10.146.285 10.146.285V1581h-21.269l.715 14.75c.428 8.829.352 14.349-.191 13.75-.498-.55-4.386-7.187-8.641-14.75l-7.735-13.75h-9.332c-7.757 0-9.44.279-9.967 1.653M953 1614.407v33.406l9.25.623c5.087.343 10.6.448 12.25.234l3-.388.328-9.391c.18-5.165.017-20.303-.363-33.641l-.69-24.25H953zm35.004-12.157c.002 11.688.297 26.987.654 34l.651 12.75h43.547l.649-5.25c.357-2.888.502-7.275.322-9.75l-.327-4.5-10.25-.285-10.25-.285V1581h-25zm81.996-10.937v10.314l8.244-.064c6.646-.051 8.264.228 8.348 1.437.057.825.172 11.527.256 23.782l.152 22.281 11.75-.281 11.75-.282.268-23.712c.233-20.604.465-23.636 1.769-23.135.826.317 4.418.264 7.982-.118l6.481-.694V1581h-57zm65 23.687v34h24v-24h13v24h24v-68h-24l.002 12.25.002 12.25-6.502-.335-6.502-.336V1581h-24zm-371-10.049c0 12.623.482 25.2 1.072 27.949s2.349 6.762 3.91 8.917c1.641 2.264 4.88 4.907 7.678 6.263 3.704 1.795 7.021 2.441 14.129 2.754 7.177.315 10.327.012 13.855-1.336 5.92-2.261 11.205-6.958 13.491-11.989 1.609-3.541 1.824-7.017 1.843-29.793l.022-25.784-10.75.284-10.75.284-.021 6.5c-.011 3.575-.123 14.702-.25 24.727l-.229 18.227-2.493 1.633c-2.934 1.923-6.967 1.25-7.971-1.328-.376-.968-.945-12.671-1.265-26.009l-.58-24.25H764zm-74-10.289c-6.325.129-40.3.725-75.5 1.325-71.282 1.214-125.526 2.666-135.75 3.633-3.712.351-6.75 1.02-6.75 1.486 0 1.809 5.126 4.062 11.173 4.912 13.796 1.939 101.175 4.587 195.327 5.921 33 .467 60.113.747 60.251.621s-.042-4.353-.4-9.394l-.65-9.166-18.101.214c-9.955.117-23.275.319-29.6.448m597 8.357v9.307l65.25-.673c73.681-.76 179.338-3.238 196.958-4.62 6.44-.505 12.654-1.424 13.811-2.043 1.156-.619 1.956-1.881 1.778-2.805-.235-1.223-1.817-1.865-5.81-2.361-6.389-.793-158.24-4.449-225.737-5.436l-46.25-.675zm0 28.543v8.596l26.25-.608c14.438-.334 46.95-1.048 72.25-1.586 53.859-1.145 99.037-2.677 116.199-3.941 11.821-.87 16.945-2.172 15.806-4.015-.304-.491-2.454-1.144-4.778-1.451-4.959-.654-60.21-2.119-132.727-3.518-28.325-.547-60.838-1.237-72.25-1.534l-20.75-.539zm-651.635-6.486c-49.911.931-108.471 2.753-114.115 3.551-9.586 1.354-2.435 4.055 14.215 5.369 21.76 1.717 76.069 3.469 173.035 5.584l30 .655.271-8.118.271-8.117-31.771.163c-17.474.09-49.832.501-71.906.913m719.269 42.441c-8.98 2.28-17.033 7.086-23.554 14.057-10.506 11.23-15.686 26.255-16.765 48.626-1.367 28.346 5.155 49.873 18.931 62.487 2.516 2.304 6.856 5.344 9.645 6.758 6.377 3.231 15.954 5.521 23.175 5.54 13.07.035 26.297-4.592 34.35-12.014 10.284-9.48 16.178-22.486 19.245-42.471 2.635-17.167.464-38.672-5.377-53.263-3.366-8.407-9.754-16.943-16.248-21.711-2.885-2.118-8.211-4.927-11.834-6.242-8.526-3.095-23.12-3.912-31.568-1.767m85.366-.88c-1.925.221-4.513.627-5.75.902l-2.25.499V1803h38v-36.765l7.75-.672c4.263-.37 11.35-1.574 15.75-2.675 15.702-3.93 25.885-10.22 32.44-20.036 5.606-8.395 8.187-17.218 8.292-28.352.089-9.438-1.671-17.52-5.415-24.859-2.748-5.386-10.234-12.56-16.751-16.054-2.989-1.602-8.614-3.813-12.5-4.915-6.071-1.72-10.515-2.032-31.566-2.22-13.475-.12-26.075-.037-28 .185m-260.406 3.94c-3.798.851-9.145 2.682-11.882 4.069-7.045 3.57-14.22 10.655-17.445 17.228l-2.761 5.626-.003 11c-.003 9.869.275 11.593 2.701 16.77 1.53 3.264 4.951 7.959 7.88 10.812 2.847 2.773 10.705 8.635 17.461 13.026 6.757 4.392 12.999 9.073 13.87 10.403.872 1.33 1.585 3.752 1.585 5.381 0 2.01-.848 3.63-2.635 5.035-1.964 1.545-4.083 2.073-8.318 2.073-7.261 0-14.061-2.034-21.231-6.352l-5.683-3.422-3.648 14.972c-2.007 8.234-3.499 15.103-3.317 15.264 1.345 1.184 10.121 5.033 15.115 6.628 13.064 4.174 31.199 4.218 42.899.106 6.655-2.339 13.484-6.829 17.363-11.415 1.526-1.804 4.132-6.173 5.792-9.709 2.646-5.636 3.024-7.552 3.072-15.559l.054-9.131-3.256-6.613c-2.127-4.321-5.16-8.353-8.751-11.635-3.023-2.763-10.632-8.21-16.909-12.105-6.278-3.895-12.569-8.454-13.98-10.132-1.412-1.678-2.567-4.176-2.567-5.551 0-1.412 1.234-3.734 2.837-5.337 3.847-3.846 9.921-4.699 18.26-2.563 3.504.898 7.857 2.509 9.673 3.581 2.4 1.416 3.406 1.61 3.683.711 1.068-3.466 6.493-26.113 6.286-26.242-2.298-1.438-11.14-4.897-15.525-6.072-8.563-2.296-22.443-2.68-30.62-.847m-676.844.158-4.75.375v27.781c0 15.28.298 45.401.662 66.935l.663 39.154 26.587-.327c29.442-.361 36.473-1.348 47.67-6.692 7.242-3.456 12.432-8.862 16.282-16.961 2.256-4.744 2.613-6.806 2.601-15-.011-7.739-.436-10.427-2.293-14.5-1.254-2.75-3.493-6.298-4.976-7.884-3.628-3.882-11.109-8.613-13.642-8.628-1.445-.009-.72-.771 2.446-2.572 5.004-2.846 7.946-5.956 11.269-11.916 1.893-3.393 2.231-5.517 2.231-14 0-8.911-.303-10.616-2.781-15.661-1.529-3.114-4.632-7.334-6.895-9.379-5.455-4.928-14.672-8.985-23.516-10.35-6.593-1.018-40.298-1.263-51.558-.375m552.355.848c-7.867 2.115-14.707 6.18-19.65 11.678-6.055 6.735-8.645 14.094-8.706 24.739-.038 6.516.477 9.864 2.208 14.344 1.241 3.214 4.121 8.12 6.4 10.903s8.193 7.892 13.143 11.352 11.138 8.259 13.75 10.663c3.795 3.492 4.75 5.024 4.75 7.62 0 1.787-.458 4.105-1.017 5.15-1.479 2.764-7.71 4.158-13.593 3.041-5.403-1.025-12.215-3.842-17.024-7.039l-3.134-2.083-2.076 7.774c-1.142 4.276-2.561 10.025-3.153 12.775s-1.309 5.769-1.594 6.708c-.391 1.291.922 2.435 5.367 4.679 15.87 8.011 36.709 9.094 50.899 2.644 7.403-3.364 13.775-9.669 17.575-17.387l3.25-6.602V1750.5l-2.991-5.904c-3.551-7.007-10.68-13.661-25.009-23.341-6.8-4.593-10.608-7.891-11.901-10.305-1.696-3.168-1.749-3.867-.498-6.5.771-1.622 2.976-3.765 4.9-4.761 2.611-1.352 4.879-1.683 8.933-1.304 3.056.286 7.955 1.758 11.198 3.365l5.764 2.857 2.627-11.553c1.444-6.355 2.841-12.32 3.104-13.257.342-1.217-.702-2.305-3.655-3.812-10.731-5.474-28.561-7.443-39.867-4.402M1228 1687v16h23l.215 9.25c.119 5.088.154 11.05.078 13.25s.104 19.862.401 39.25l.539 35.25h36.617l-.01-18.25c-.006-10.037.028-31.862.075-48.5L1289 1703h23v-32h-84zm-429.739-14.132-8.239.632.402 47.5c.22 26.125.44 54.475.488 63l.087 15.5 8.751-.227c4.812-.125 16.625-.422 26.25-.659 17.568-.434 23.536-1.402 31.269-5.071 5.588-2.652 11.984-8.758 14.546-13.886 1.262-2.528 2.799-7.306 3.415-10.617.85-4.57.824-7.625-.108-12.682-.675-3.664-1.887-7.937-2.693-9.496-2.633-5.09-7.819-10.135-12.786-12.436l-4.871-2.257 2.864-1.502c4.576-2.4 10.143-8.792 11.903-13.667 1.993-5.518 2.238-17.103.477-22.5-1.877-5.753-6.253-11.729-10.782-14.727-2.159-1.428-7.033-3.578-10.83-4.777-5.782-1.825-9.747-2.226-24.404-2.469-9.625-.16-21.208-.006-25.739.341m-198.87 46.939c.761 50.611 1.293 56.166 6.243 65.262 1.499 2.754 4.703 6.831 7.121 9.059 5.469 5.041 13.212 8.652 21.435 9.994 9.901 1.616 23.533-.342 31.668-4.549 5.09-2.632 9.892-7.392 13.083-12.969 5.726-10.009 6.028-13.299 6.044-65.854L685 1673h-33v94.704l-2.282 3.398c-1.767 2.631-3.082 3.466-5.828 3.698-4.626.392-7.72-2.142-8.915-7.3-.51-2.2-.938-24.362-.951-49.25L634 1673h-35.313zm97.618 11.443c.004 32.037.292 60.612.639 63.5l.631 5.25 23.11-.017c24.999-.019 32.66-.991 41.946-5.324 2.841-1.325 7.05-4.052 9.354-6.06s5.454-6.226 7-9.375l2.811-5.724-.017-10.5c-.015-8.916-.349-11.103-2.216-14.5-1.21-2.2-3.002-4.942-3.983-6.094-2.751-3.231-8.846-7.461-11.969-8.308l-2.815-.763 3.052-1.591c1.678-.875 4.918-3.615 7.2-6.09 7.582-8.226 9.262-21.776 4.169-33.616-3.941-9.161-14.045-15.908-26.921-17.978-3.575-.575-16.737-1.048-29.25-1.052L697 1673zM883 1735.476V1798h64v-9.86c0-5.424-.286-11.949-.636-14.5l-.636-4.64h-28.709l-.259-47.75-.26-47.75-16.75-.274-16.75-.274zm71 .024v62.5h65v-28h-30.804l-.686-5.917c-.378-3.254-.37-8.879.018-12.5l.705-6.583H1015v-23.738l-3.75-.62c-2.062-.341-8.085-.625-13.384-.631l-9.633-.011-.684-6.384c-.376-3.511-.378-8.011-.005-10l.679-3.616H1019v-27h-65zm530.339-39.022c2.112 1.009 4.975 3.551 6.363 5.648 1.795 2.713 2.672 5.663 3.038 10.227.292 3.63-.031 8.693-.744 11.662-.895 3.733-2.35 6.339-5.038 9.027-2.897 2.897-5.097 4.053-9.43 4.952-3.107.645-6.298.925-7.089.621-1.192-.457-1.439-4.354-1.439-22.707v-22.156l5.25.446c2.888.245 6.978 1.271 9.089 2.28m-938.41 1.274c5.102 2.601 7.456 6.393 7.456 12.014 0 5.189-2.274 10.037-5.751 12.266-1.174.752-4.496 1.638-7.384 1.97l-5.25.603V1696l3.75.002c2.063 0 5.293.788 7.179 1.75m288.846 1.252c1.801 1.098 3.714 3.151 4.25 4.562 1.4 3.683 1.202 8.955-.489 13.002-.995 2.382-2.586 3.973-4.968 4.968-1.927.805-5.093 1.464-7.036 1.464H823v-26l4.25.004c2.482.002 5.613.834 7.525 2m538.026.025c1.198 1.116 2.883 3.393 3.745 5.061.863 1.667 2.255 8.067 3.095 14.221 1.076 7.886 1.349 15.059.924 24.299-.642 13.997-2.495 23.339-5.433 27.39-.996 1.375-3.051 3.107-4.566 3.85-2.32 1.137-3.329 1.131-6.394-.036-2.002-.762-4.626-2.848-5.831-4.636s-2.694-5.597-3.31-8.465c-.615-2.867-1.38-10.838-1.698-17.713-.625-13.461.727-28.454 3.265-36.22.878-2.685 2.839-5.812 4.549-7.25 3.704-3.117 8.619-3.328 11.654-.501m-629.176 2.321c1.257 1.462 2.598 4.322 2.98 6.357.897 4.783-1.275 10.998-4.741 13.562-1.449 1.073-4.712 2.185-7.25 2.471l-4.614.52v-26.508l5.669.47c4.566.379 6.115.988 7.956 3.128m92.101 45.324c6.204 2.944 9.23 13.644 5.757 20.359-.834 1.613-2.883 3.64-4.554 4.504-1.67.863-5.195 1.826-7.833 2.138l-4.797.568-.65-3.246c-.357-1.786-.649-8.366-.649-14.622V1745h4.599c2.529 0 6.186.753 8.127 1.674m-92.091 1.245c4 2.439 6.881 9.516 6.023 14.798-.333 2.055-1.437 4.872-2.453 6.26-2.495 3.408-7.897 6.02-12.455 6.021L731 1775v-29l4.75.004c2.911.002 5.964.744 7.885 1.915m-194.655.833c1.914.961 4.502 3.277 5.75 5.146 1.634 2.446 2.27 4.856 2.27 8.602s-.636 6.156-2.27 8.602c-1.248 1.869-3.836 4.185-5.75 5.146-1.99 1-5.728 1.75-8.73 1.75L535 1778v-31l5.25.002c3.002 0 6.74.75 8.73 1.75"/></svg>