<svg xmlns="http://www.w3.org/2000/svg" viewBox="0 0 2048 2048"><path fill-rule="evenodd" d="M1001.607 440.582c-1.106 2.883-.656 15.969.593 17.218.66.66 2.451 1.2 3.98 1.2 3.545 0 4.561 1.96 14.972 28.892 14.859 38.436 13.878 34.328 13.158 55.103-.384 11.067-1.047 18.367-1.718 18.918-.6.492-2.206 1.051-3.567 1.241-1.412.197-3.016 1.42-3.735 2.846-1.683 3.337-1.713 15.913-.04 16.507 2.728.968 38.306 2.186 39.369 1.348 1.398-1.102 2.449-15.771 1.29-17.989-.47-.898-2.495-1.941-4.499-2.317-3.644-.684-3.644-.684-3.213-19.866.432-19.183.432-19.183 9.207-38.183a8160 8160 0 0 0 14.356-31.25c5.431-11.922 5.665-12.25 8.755-12.25 5.148 0 6.485-2.426 6.485-11.77 0-4.506-.46-8.396-1.034-8.751-.568-.351-9.459-.893-19.757-1.204-16.148-.488-18.899-.353-20.008.983-.878 1.057-1.192 4.174-.993 9.834.292 8.286.292 8.286 3.519 9.12s3.228.833 1.171 6.561c-1.131 3.15-4.365 11.577-7.187 18.727l-5.13 13-5.731-17.5c-3.152-9.625-5.758-18.192-5.79-19.037-.034-.863.853-1.606 2.02-1.694 4.291-.323 5.012-2.027 4.707-11.129-.274-8.167-.4-8.586-2.787-9.248-1.375-.381-10.439-.737-20.143-.792-15.226-.086-17.726.117-18.25 1.482M909 445.081c-12.925 1.075-24.128 2.182-24.896 2.461-1.118.406-1.264 2.213-.735 9.102.364 4.728.906 8.992 1.205 9.476s2.066.88 3.926.88 3.668.463 4.019 1.03c.35.566 1.257 9.229 2.016 19.25s1.63 20.47 1.936 23.22c.925 8.307 4.529 52.491 4.529 55.518 0 2.309-.534 2.94-2.931 3.467-4.77 1.048-5.425 2.634-4.644 11.254.384 4.238 1.094 8.181 1.576 8.763 1.221 1.47 38.156-1.181 39.263-2.818.77-1.14-.025-16.401-.935-17.931-.244-.411-2.176-1.025-4.292-1.363-3.849-.616-3.849-.616-4.523-8.253-.37-4.2-.983-12.249-1.36-17.887-.687-10.25-.687-10.25 4.415-10.25 5.101 0 5.101 0 13.516 17.75 4.628 9.763 10.536 21.8 13.128 26.75 4.713 9 4.713 9 12.5 8.756 10.624-.332 14.099-1.036 15.192-3.078.514-.96.631-5.07.262-9.207-.641-7.181-.783-7.51-3.667-8.471-1.65-.55-3.576-1.372-4.28-1.827-1.461-.945-9.859-17.346-14.882-29.064-3.382-7.89-3.382-7.89 1.2-12.408 4.832-4.763 7.78-9.669 8.882-14.78.75-3.48-.983-30.842-2.44-38.527-2.763-14.567-12.215-22.67-27.313-23.414-3.942-.194-17.742.527-30.667 1.601m293.164 17.669c-1.792 7.792-1.849 8.932-.515 10.41.824.913 2.596 1.936 3.938 2.272 1.893.476 2.331 1.112 1.955 2.84-2.04 9.362-20.922 88.361-22.133 92.599-1.53 5.353-1.546 5.368-4.988 4.81-2.813-.457-3.717-.154-4.876 1.629-1.947 2.999-4.161 15.474-2.96 16.675.725.725 21.87 6.316 35.628 9.422 2.57.58 3.662-1.384 5.512-9.912 1.837-8.464 1.97-8.068-4.01-11.995-1.335-.877-1.039-3.029 2.398-17.434 2.157-9.039 4.118-16.63 4.358-16.87s2.44-.137 4.888.231c4.452.667 4.452.667 5.574 7.107.616 3.543 2.465 16.87 4.108 29.617s3.415 23.694 3.939 24.325c1.216 1.466 20.316 6.008 22.208 5.282 1.521-.584 4.812-11.032 4.812-15.277 0-1.835-.946-3.106-3.38-4.543-3.305-1.949-3.406-2.211-4.56-11.716a1032 1032 0 0 0-2.62-19.648c-.792-5.46-1.44-10.472-1.44-11.139s1.463-1.498 3.25-1.848c4.787-.936 12.233-6.849 15.374-12.208 3.308-5.645 10.371-32.517 10.614-40.379.226-7.361-1.632-13.498-5.847-19.302-5.733-7.897-10.036-9.919-33.201-15.6-17.347-4.255-34.275-8.098-35.667-8.098-.191 0-1.253 3.938-2.359 8.75m-397.101 1.304c-21.69 4.89-40.034 9.488-40.763 10.217-1.101 1.102-.899 3.42 1.192 13.688 4.104 20.154 4.063 20.048 7.797 19.997 1.766-.024 5.911-.609 9.211-1.299 6-1.256 6-1.256 6-9.128s0-7.871 4.815-9.113c3.632-.937 4.912-.956 5.211-.079 2.835 8.317 21.825 98.045 20.823 98.384-3.473 1.174-7.148 4.384-6.831 5.967C814.649 603.319 816.4 609 817.546 609c1.727 0 30.967-6.73 35.204-8.102 1.964-.637 3.244-1.715 3.235-2.726-.027-3.026-3.026-14.516-4.139-15.858-.6-.723-2.804-1.314-4.898-1.314-3.806 0-3.806 0-4.96-5.75-.635-3.163-3.157-14.975-5.603-26.25-2.447-11.275-6.46-29.95-8.919-41.5-2.458-11.55-4.688-21.954-4.954-23.12-.423-1.851.14-2.244 4.444-3.095 4.768-.943 4.963-.89 5.953 1.62.562 1.427 1.307 3.814 1.655 5.304 1.088 4.662 2.664 5.249 10.385 3.869 10.925-1.952 10.849-1.816 8.281-14.709-2.808-14.099-5.335-21.798-7.23-22.025-.825-.1-19.247 3.82-40.937 8.71m133.992 1.976c3.493 1.869 4.934 6.574 6.086 19.869 1.051 12.126.999 13.176-.794 16.247-1.055 1.806-3.261 4.067-4.902 5.026-3.246 1.896-19.435 3.744-19.46 2.222-.008-.492-.673-9.444-1.478-19.894-1.955-25.358-2.106-23.299 1.743-23.777 6.82-.846 16.96-.681 18.805.307m-227.227 23.834c-9.72 3.656-17.953 6.927-18.295 7.27-.843.842 4.34 13.929 6.381 16.111 1.309 1.4 2.269 1.563 4.846.824 1.767-.507 3.4-.617 3.628-.245s5.154 13.276 10.946 28.676c5.793 15.4 10.872 28.9 11.287 30 .778 2.062-5.57-5.181-20.994-23.957-14.462-17.605-36.704-42.542-37.96-42.561-.642-.009-7.393 2.331-15.002 5.2-13.798 5.204-13.833 5.226-13.266 8.062.313 1.565 1.814 5.412 3.335 8.55 2.736 5.644 2.811 5.704 6.899 5.528 4.133-.177 4.133-.177 12.867 23 11.974 31.778 25.044 67.617 25.845 70.869.56 2.269.193 2.969-2.341 4.466-1.652.976-3.004 2.607-3.004 3.624 0 1.018 1.549 5.202 3.441 9.298 3.441 7.448 3.441 7.448 10.25 4.893 20.262-7.605 28.603-11.074 28.978-12.051.23-.599-.879-4.651-2.465-9.005-2.882-7.916-2.882-7.916-7.641-7.916s-4.759 0-15.025-28.561c-5.646-15.709-10.822-29.601-11.502-30.871-2.104-3.931.605-1.411 6.714 6.246 6.146 7.706 23.562 28.282 41.418 48.936 6.063 7.013 11.652 12.75 12.421 12.75 1.94 0 19.307-7.022 19.953-8.068.505-.817-5.863-18.018-24.18-65.316C736.535 522.495 731 507.506 731 505.892c0-.804 1.35-2.258 3-3.233s3-2.344 3-3.043c0-1.914-4.996-13.95-6.332-15.258-.879-.859-5.543.504-18.84 5.506M1239 483.942c1.925.511 5.433 1.432 7.796 2.045 4.889 1.269 8.195 5.507 8.199 10.513.003 3.313-4.375 22.382-6.151 26.797-1.288 3.201-5.456 5.697-9.544 5.716-4.456.02-17.296-3.272-17.337-4.446-.02-.587 2.104-10.179 4.72-21.317 5.24-22.314 4.627-21.353 12.317-19.308m102.5 11.084c-13.048 2.633-18.149 7.637-24.442 23.974-1.801 4.675-7.532 19.525-12.736 33a54808 54808 0 0 0-13.889 36c-3.329 8.645-4.429 12.883-4.431 17.072-.003 7.928 2.471 14.225 7.86 20.01 4.102 4.404 6.217 5.611 18.314 10.449 11.281 4.511 14.734 5.469 19.713 5.469 11.161 0 20.947-5.651 25.52-14.737.896-1.78 5.398-13.255 10.006-25.5a12482 12482 0 0 1 14.853-39.263c9.444-24.788 10.011-26.794 9.557-33.841-.727-11.322-6.744-19.901-17.325-24.704-7.241-3.287-24.842-8.998-27.262-8.845-.956.06-3.538.472-5.738.916m14.879 24.015c3 1.122 6.601 2.942 8.001 4.043 5.208 4.097 4.949 5.179-11.797 49.416-17.299 45.695-17.527 46.105-25.221 45.237-6.607-.744-13.543-4.641-15.815-8.884-1.953-3.648-1.953-3.648 6.168-25 25.461-66.947 24.224-64.016 27.736-65.722 3.065-1.489 4.932-1.334 10.928.91M592.25 539.73c-8.937 4.799-16.25 9.344-16.25 10.101s1.655 4.526 3.677 8.375c3.518 6.693 3.812 6.976 6.75 6.481 1.69-.284 3.748-.774 4.573-1.088 1.134-.432 5.036 6.173 16 27.088 7.975 15.213 17.948 34.004 22.162 41.758s7.941 15.664 8.283 17.577c.879 4.922-1.998 9.078-8.542 12.339-5.734 2.857-10.566 3.368-13.158 1.389-.901-.687-4.64-7.1-8.31-14.25s-7.005-13.45-7.411-14-6.94-13.15-14.52-28-14.169-27.427-14.643-27.95c-1.582-1.746-.886-4.365 1.654-6.217 2.514-1.833 2.514-1.833-.843-8.833-1.847-3.85-4.028-7.555-4.848-8.234-1.225-1.015-4.536.265-18.657 7.209-11.739 5.773-17.167 8.958-17.167 10.072 0 1.815 6.631 14.107 8.101 15.015.516.319 2.568.042 4.559-.615 3.211-1.06 3.747-.985 4.731.661.61 1.021 6.546 12.215 13.192 24.874 37.474 71.389 34.822 66.855 41.592 71.129 5.898 3.723 13.52 5.076 20.433 3.626 7.186-1.508 25.192-11.339 30.4-16.6 5.609-5.665 8.334-13.294 7.694-21.542-.532-6.866-3.203-12.9-17.304-39.095-9.429-17.518-20.65-38.85-26.154-49.723-4.669-9.224-4.669-9.224-1.708-12.314s2.96-3.09-.97-10.527c-2.337-4.422-4.566-7.435-5.498-7.433-.862.002-8.88 3.929-17.818 8.727m847.04 36.031c-14.416 16.906-32.671 38.389-40.567 47.739-11.315 13.399-14.818 16.947-16.539 16.75l-4.373-.5c-1.787-.204-3.009 1.206-6.644 7.659-4.274 7.589-4.378 7.964-2.56 9.295 3.114 2.282 30.11 17.296 31.098 17.296.502 0 3.102-3.679 5.776-8.175 4.863-8.174 4.863-8.174 1.806-10.75-3.057-2.575-3.057-2.575.269-7.075 7.813-10.571 5.602-10.269 18.856-2.572 6.443 3.741 11.522 7.313 11.287 7.937s-1.434 3.908-2.665 7.297c-2.226 6.128-2.254 6.157-5.157 5.145-2-.697-3.314-.689-4.174.025-2.012 1.669-8.044 14.838-7.475 16.319.505 1.316 31.558 18.855 33.363 18.843.5-.003 2.934-3.852 5.409-8.552 4.891-9.288 4.909-9.045-.943-12.408-1.961-1.127-2.612 1.192 26.924-96.034 5.29-17.412 7.196-25.223 6.354-26.033-1.031-.99-22.588-12.971-23.312-12.956-.288.006-12.318 13.843-26.733 30.75m18.771 14.789c-1.58 4.372-5.258 15.263-8.173 24.2-2.916 8.938-5.618 16.25-6.007 16.25-1.42 0-14.963-8.247-14.677-8.938.435-1.045 31.258-39.793 31.513-39.614.119.084-1.076 3.729-2.656 8.102m84.556 9.064c-5.884 7.516-5.884 7.516-2.75 10.748 1.723 1.778 3.133 3.542 3.133 3.919s-5.258 7.781-11.685 16.452c-18.359 24.773-47.467 63.674-48.401 64.684-.507.548-2.475.183-4.891-.907-2.224-1.002-4.183-1.64-4.353-1.416-.322.422-7.806 12.541-8.984 14.547-.404.688 2.799 3.693 8.072 7.571a33912 33912 0 0 1 21.884 16.115c7.228 5.326 15.715 10.863 18.861 12.303 4.947 2.265 6.685 2.556 12.858 2.152 7.947-.519 13.592-2.889 18.448-7.745 2.71-2.71 28.302-37.105 49.309-66.269 9.346-12.975 10.927-17.973 8.998-28.44-1.539-8.354-3.825-12.766-9.283-17.915-3.958-3.733-42.903-32.647-44.603-33.113-.402-.111-3.378 3.181-6.613 7.314m-1058.883 8.757c-5.729 2.136-14.228 7.518-21.583 13.666-9.047 7.561-12.486 14.239-12.48 24.229.005 8.503 1.814 13.251 8.924 23.421 2.619 3.747 11.133 16.038 18.92 27.313 24.433 35.38 26.599 38.404 30.337 42.373 9.83 10.437 24.19 11.065 38.369 1.679 18.04-11.942 24.489-19.758 25.5-30.91.999-11.013 1.338-10.412-34.411-61.027-21.951-31.08-25.176-35.137-30.591-38.485-3.844-2.377-6.112-3.001-11.98-3.298-4.618-.233-8.603.143-11.005 1.039m494.193 21.879c-19.892 10.347-19.523 37.891.892 66.75 6.589 9.314 23.156 26.035 33.909 34.225l9.228 7.028 9.772-7.84c24.128-19.357 40.31-40.167 45.858-58.973 2.309-7.825 2.364-20.403.118-26.972-3.683-10.775-12.964-17.468-24.222-17.468-3.369 0-8.206.709-10.748 1.575-5.85 1.993-13.048 8.296-17.707 15.505l-3.618 5.597-3.745-5.805c-6.862-10.637-17.243-16.872-28.087-16.872-4.146 0-6.855.756-11.65 3.25m593.385 5.719c6.685 5.026 9.15 8.97 8.292 13.263-.494 2.467-14.929 22.677-45.238 63.335-5.276 7.078-8.461 9.433-12.756 9.433-2.513 0-16.395-9.277-17.262-11.535-.511-1.333 10.337-16.944 36.112-51.966 19.987-27.157 21.86-29.392 23.54-28.076.825.647 4.115 3.142 7.312 5.546m-1074.11-1.219c2.516 2.686 44.063 61.358 47.87 67.6 1.056 1.732 1.922 4.578 1.924 6.323.01 8.271-16.635 18.191-22.439 13.374-.891-.739-6.935-9.04-13.431-18.445A9895 9895 0 0 0 491.994 676C474.71 651.206 474 650.039 474 646.426c0-4.543 2.121-7.656 7.766-11.394 6.147-4.072 11.789-4.175 15.436-.282m289.369 46.821c-3.166 3.167-1.186 10.33 5.925 21.429 6.364 9.934 13.188 16.761 26.942 26.954 6.909 5.12 12.562 9.382 12.562 9.471s-4.837.256-10.75.372c-13.099.256-35.352 1.905-48.435 3.589-9.684 1.246-9.684 1.246-13.338-3.544-6.056-7.942-20.209-20.635-28.333-25.411-4.204-2.472-10.794-5.463-14.644-6.648-8.167-2.513-19.352-2.979-21.846-.911-2.605 2.162-2.03 7.309 1.336 11.955 8.292 11.448 28.596 21.95 51.443 26.611 5.996 1.223 5.996 1.223-7.468 4.545-7.406 1.827-20.215 5.507-28.465 8.177l-15 4.856-13-6.556c-14.912-7.52-23.934-9.889-35.086-9.212-9.028.549-14.79 3.179-15.226 6.953-.464 4.02 1.347 6.533 6.598 9.158 8.66 4.33 17.946 5.917 32.049 5.478l12.759-.398-16.708 8.232c-13.865 6.831-17.28 8.139-20.066 7.687-10.213-1.657-26.297 5.188-36.749 15.64C597.223 813.846 594.646 828 605.973 828c14.158 0 36.191-13.849 46.265-29.08 5.143-7.776 5.143-7.776 20.805-15.348 8.615-4.165 15.952-7.572 16.306-7.572s-1.598 2.781-4.337 6.18c-12.117 15.037-19.453 38.764-14.012 45.319 3.876 4.672 11.863-.82 17.806-12.243 4.804-9.234 7.401-18.076 9.707-33.052 1.69-10.977 1.69-10.977 13.839-15.043 15.244-5.102 23.752-7.54 35.05-10.041l8.903-1.971-7.521 7.676c-10.157 10.365-15.214 17.086-19.961 26.528-4.342 8.636-7.285 20.269-6.282 24.835.348 1.584 1.728 3.597 3.066 4.474 2.232 1.463 2.793 1.457 6.798-.072 5.516-2.107 13.842-10.748 19.412-20.147 5.03-8.488 8.961-19.096 12.632-34.091 2.729-11.148 2.729-11.148 10.39-12.239 16.884-2.406 26.411-3.096 42.661-3.093 17 .003 17 .003 10.528 3.605-11.137 6.198-18.28 11.459-25.645 18.887-7.919 7.986-11.658 13.7-13.506 20.638-1.079 4.053-1.02 4.983.465 7.25 5.437 8.297 26.795-4.249 39.6-23.262 2.356-3.499 6.668-10.924 9.581-16.5 5.296-10.138 5.296-10.138 11.637-9.871 12.971.547 51.84 7.429 51.84 9.179 0 .352-2.579 1.517-5.731 2.588-6.978 2.372-20.481 10.719-28.305 17.497-7.828 6.781-15.039 17.459-15.69 23.23-.423 3.756-.133 4.795 1.862 6.671 3.01 2.829 7.815 2.264 16.449-1.936 11.074-5.385 23.106-18.251 34.841-37.254 2.635-4.267 5.135-7.97 5.554-8.23 2.059-1.272 28.324 9.108 48.624 19.215 14.898 7.418 15.437 7.601 16.861 5.718 2.142-2.831 1.881-4.063-1.348-6.361-8.507-6.058-41.129-20.927-56.155-25.595-5.539-1.721-5.539-1.721-8.371-12.835-3.91-15.347-7.919-25.368-13.675-34.186-6.115-9.366-12.094-15.408-18.153-18.341-9.411-4.556-14.135-.698-11.942 9.754 2.723 12.986 10.835 25.584 26.078 40.507 5.556 5.438 10.101 9.972 10.101 10.076s-4.495-.821-9.989-2.056c-8.95-2.012-30.113-5.263-45.011-6.915-5.5-.61-5.5-.61-9.741-10.801-6.684-16.063-13.584-27.171-22.209-35.751-11.589-11.529-24.783-17.065-29.479-12.37m465.186.379c-15.495 7.741-28.676 24.906-38.316 49.9-1.882 4.877-3.526 7.605-4.888 8.108-1.129.418-5.653 1.074-10.053 1.46-7.685.673-43.491 6.874-46.614 8.072-.832.319 3.466-4.532 9.551-10.781 15.393-15.808 22.958-28.709 24.29-41.426.961-9.179-3.317-12.47-11.291-8.685-4.849 2.3-16.597 15.077-20.84 22.663-4.495 8.039-8.055 18.203-10.924 31.196-2.2 9.956-2.2 9.956-15.186 14.738-12.867 4.737-44.733 20.009-49.421 23.683-2.36 1.851-2.382 1.989-.727 4.516.94 1.433 2.204 2.606 2.811 2.606s6.109-2.66 12.227-5.911 15.906-7.943 21.751-10.428c10.963-4.66 27.983-10.915 28.393-10.434.128.15 4.295 6.348 9.26 13.773 12.449 18.616 22.982 28.65 34.99 33.334 9.141 3.566 16.071.9 14.688-5.649-2.946-13.957-23.912-33.27-44.461-40.958-6.497-2.431-6.497-2.431 4.513-5.065 10.772-2.576 31.505-5.976 42.525-6.972 5.534-.501 5.534-.501 10.322 8.888 6.792 13.316 13.596 23.375 20.446 30.225 9.677 9.677 24.984 16.01 28.997 11.997 3.843-3.843-1.242-16.627-10.735-26.988-7.082-7.728-13.914-13.12-24.914-19.663l-8.191-4.872 6.673-.536c6.719-.539 35.006.599 43.367 1.745 17.572 2.409 16.177 1.326 19.756 15.331 5.613 21.969 17.076 41.945 28.603 49.851 5.057 3.467 10.22 4.353 12.441 2.132 1.701-1.701 1.487-10.47-.412-16.868-3.622-12.21-11.133-23.734-23.887-36.651-5.765-5.839-8.351-9.066-7.052-8.801 10.124 2.067 29.681 7.331 38.83 10.452 17.183 5.862 16.721 5.615 16.721 8.933 0 8.399 5.72 28.786 10.957 39.051 2.902 5.688 9.451 12.682 13.05 13.937 4.262 1.485 7.993-1.649 7.993-6.715 0-4.866-2.485-14.303-5.509-20.926-2.746-6.013-10.683-18.171-13.565-20.779-5.298-4.794.925-2.866 19.213 5.954 10.905 5.259 11.516 5.722 15.222 11.546 6.773 10.647 19.453 20.741 33.005 26.274 24.381 9.954 30.429-1.655 11.365-21.819-10.398-10.999-22.821-16.691-38.731-17.748-5.565-.37-8.69-1.49-21.724-7.786l-15.225-7.354 11.797.33c25.942.725 46.937-9.045 38.205-17.777-3.155-3.155-9.583-4.339-20.553-3.787-12.426.627-22.669 3.874-34.341 10.889-8.341 5.013-8.341 5.013-22 .474-7.513-2.497-20.409-6.308-28.659-8.469-12.576-3.295-14.515-4.044-12-4.638 24.243-5.723 37.966-11.708 48.283-21.056 6.708-6.078 9.217-9.852 9.217-13.86 0-3.759-3.462-5.608-10.473-5.594-16.923.033-33.186 9.151-51.675 28.973-9.499 10.184-9.499 10.184-22.926 8.503-7.384-.925-23.084-1.975-34.888-2.335l-21.461-.653 9.889-7c25.608-18.128 41.831-40.603 36.499-50.566-1.376-2.571-9.047-2.563-14.208.016m389.237-.079c-5.679 1.871-8.995 4.445-19.047 14.779-17.079 17.559-17.876 21.189-10.332 47.038 8.057 27.607 7.832 25.573 3.446 31.081-6.224 7.816-14.677 15.231-17.364 15.231-1.332 0-4.171-1.385-6.309-3.078-3.923-3.106-9.393-10.291-9.382-12.322.012-2.13 2.958-6.717 8.142-12.676l5.238-6.023-8.176-8.176c-8.175-8.175-8.175-8.175-12.772-3.7-6.962 6.778-14.131 16.807-15.494 21.676-1.706 6.091-.636 14.257 2.661 20.314 4.015 7.377 18.781 22.048 25.499 25.335 12.555 6.143 21.871 4.397 33.161-6.214 10.841-10.189 19.586-20.887 20.88-25.543 1.401-5.037.152-11.817-6.617-35.942-2.673-9.523-4.465-17.765-4.143-19.048.643-2.561 11.249-14.494 15.699-17.663 2.538-1.807 3.393-1.938 6.332-.968 1.869.617 5.465 3.331 7.991 6.032 6.468 6.915 6.353 9.942-.675 17.689-9.127 10.059-9.061 8.422-.676 16.863 4.067 4.094 7.913 7.444 8.547 7.444s4.345-2.954 8.245-6.565c5.009-4.638 8.015-8.442 10.237-12.956 2.793-5.674 3.103-7.154 2.761-13.203-.546-9.66-3.926-15.981-13.79-25.794-10.486-10.431-15.824-13.456-24.726-14.011-3.757-.235-7.958-.055-9.336.4m-1242.964 1.17c-5.681 1.182-12.453 5.875-22.372 15.506-9.748 9.465-12.031 14.083-12.088 24.453-.051 9.316 2.029 14.248 9.535 22.609 2.967 3.305 11.659 12.958 19.316 21.45 7.656 8.493 17.556 19.482 22 24.422 15.179 16.873 17.561 19.192 22.461 21.858 9.972 5.428 20.404 4.377 31.357-3.16 6.748-4.643 17.086-15.536 20.373-21.468 2.549-4.599 2.888-6.21 2.888-13.711 0-10.829-1.786-14.571-12.38-25.935-7.864-8.436-7.864-8.436-11.742-5.331-2.133 1.708-6.113 5.394-8.845 8.19-4.966 5.085-4.966 5.085 1.137 11.33 9.291 9.507 10.204 12.524 5.767 19.053-4.924 7.247-12.552 11.121-17.877 9.078-.881-.339-7.062-6.751-13.734-14.25-6.673-7.499-19.151-21.214-27.729-30.478-8.578-9.263-16.144-17.813-16.812-19-3.071-5.456-.378-12.404 6.832-17.627 2.986-2.163 5.32-3.03 8.156-3.03 3.593 0 4.579.634 10.317 6.632l6.345 6.632 6.892-6.111c10.133-8.983 9.895-8.518 6.579-12.865-4.786-6.275-13.783-14.765-17.533-16.544-4.501-2.136-13.047-2.908-18.843-1.703m1284.231 121.516c-9.698 4.833-16.599 15.425-20.762 31.865-2.492 9.842-4.9 27.12-3.986 28.599.771 1.248 14.274 5.44 24.016 7.456 10.336 2.139 24.569 2.218 31.594.176 5.925-1.723 13.036-7.125 15.403-11.704.811-1.567 1.474-5.243 1.474-8.167 0-9.687-7.083-16.316-18.716-17.516-4.942-.511-5.408-.763-4.905-2.665 2.53-9.568 2.826-12.274 1.76-16.101-1.785-6.407-4.822-10.454-9.41-12.536-5.75-2.61-10.374-2.444-16.468.593m-1345.339 1.717c-5.736 3.865-7.922 8.116-7.922 15.406 0 3.511.675 8 1.5 9.974s1.5 3.76 1.5 3.968-2.264.378-5.032.378c-21.688 0-28.148 25.487-8.935 35.246 12.756 6.479 38.038 4.854 58.679-3.77 3.571-1.492 3.571-1.492 2.941-7.52-.947-9.062-4.435-25.299-6.783-31.575-3.349-8.949-9.715-17.419-15.882-21.131-6.911-4.159-14.775-4.542-20.066-.976m308.96 55.107c-5.222 1.866-9.864 4.948-14.012 9.306-17.05 17.906-35.741 66.038-45.378 116.852-2.974 15.676-3.41 16.411-14.908 25.094-4.138 3.125-6.693 4.377-8.5 4.167-2.502-.29-2.579-.506-2.423-6.8.112-4.556 1.832-12.263 5.75-25.774 3.074-10.601 5.589-20.513 5.589-22.027 0-5.997-6.338-9.671-12.798-7.419-2.611.91-2.941.75-3.945-1.911-1.625-4.303-7.034-6.297-13.388-4.934-20.279 4.349-43.966 29.405-49.337 52.19-1.949 8.271-1.939 19.325.024 25.087 5.641 16.555 26.524 18.212 42.672 3.386 4.683-4.3 4.683-4.3 7.205.854 4.28 8.749 12.918 11.736 22.797 7.882 2.348-.916 7.328-3.62 11.066-6.009s6.722-3.777 6.632-3.085c-.484 3.701.366 6.208 2.995 8.837 4.541 4.541 11.325 3.636 16.742-2.232 1.19-1.29 5.531-9.32 9.646-17.845s9.725-18.875 12.465-23c10.6-15.955 28.414-28.863 25.876-18.749-.768 3.061-10.635 12.257-17.803 16.593-3.041 1.84-6.28 4.615-7.197 6.168-3.725 6.306-2.903 18.605 1.872 27.988 9.098 17.88 31.595 18.669 52.48 1.84 3.298-2.658 5.996-4.362 5.996-3.788s2.164 3.207 4.809 5.852c10.369 10.369 28.693 12.621 48.609 5.974 12.61-4.209 27.618-16.03 31.226-24.596 4.333-10.284-2.907-18.986-9.72-11.683-4.206 4.509-14.223 12.039-19.665 14.783-13.528 6.821-27.689 6.689-32.942-.307-1.509-2.01-1.14-2.288 6.683-5.027 24.382-8.537 37.422-21.81 37.378-38.048-.054-19.876-18.535-28.4-40.136-18.511-16.86 7.719-27.505 22.893-30.476 43.443-1.191 8.239-1.408 8.723-5.752 12.824-5.568 5.256-15.184 10.244-19.751 10.244-5.224 0-9.263-4.508-9.263-10.34 0-4.47.04-4.522 7.75-9.932 14.964-10.501 21.25-19.833 21.25-31.547 0-5.494-.455-7.553-2.25-10.191-4.169-6.126-7.027-7.494-15.577-7.456-6.353.028-8.686.525-13.561 2.888-7.448 3.61-18.925 14.998-27.328 27.115-9.434 13.604-9.583 13.759-7.387 7.718 2.608-7.174 5.823-12.352 13.507-21.755C656.319 925.219 669 901.812 669 881.335c0-8.533-1.041-11.713-5.267-16.095-4.755-4.93-11.048-6.29-17.851-3.859m675.189 1.784c-3.796 1.09-10.532 5.448-13.476 8.719-1.639 1.821-3.034 2.118-10 2.13-4.452.008-15.745.455-25.095.994-26.881 1.549-40.919 4.875-47.459 11.243-6.127 5.966-7.836 14.198-3.968 19.114 2.627 3.34 4.23 3.306 11.517-.244 10.357-5.045 28.586-8.404 52.777-9.724 12.438-.679 12.834-.639 11.883 1.2-.541 1.047-4.014 11.803-7.717 23.903-12.329 40.282-9.859 35.885-20.648 36.769-10.071.826-18.696 2.906-22.566 5.441-1.32.866-3.508 3.462-4.86 5.77-4.419 7.54-2.464 15.507 3.435 13.998 5.329-1.362 15.77-3.392 20.822-4.049 5.972-.776 5.893-1.774.958 12.071-6.776 19.009-13.159 30.944-20.974 39.218-11.435 12.105-23.648 13.574-37.871 4.554-2.345-1.487-2.992-1.523-5.285-.296-4.13 2.211-6.544 7.023-6.544 13.047 0 4.867.318 5.589 4 9.092 9.791 9.313 32.492 10.594 47.858 2.699 6.379-3.278 17.045-13.589 23.066-22.298 2.892-4.183 7.647-12.648 10.567-18.811 4.794-10.118 13.365-32.3 15.004-38.829.645-2.57.645-2.57 15.734-3.223 8.299-.359 19.681-.653 25.292-.653 10.204 0 10.204 0 8.3 7.75-4.114 16.741-6.025 26.193-7.399 36.585-3.075 23.251 3.156 35.848 19.208 38.833 4.917.915 6.901.82 11.644-.559 9.006-2.619 15.726-9.664 15.726-16.488 0-4.835-2.295-6.29-8.859-5.617-13.124 1.345-15.266-5.491-10.025-32.004 1.087-5.5 3.13-14.331 4.539-19.625 2.563-9.626 2.563-9.626 9.776-10.089 8.406-.539 12.832-2.713 15.053-7.393 2.037-4.292 1.909-7.686-.396-10.532-1.659-2.049-2.782-2.361-8.5-2.361h-6.581c.004 0 1.079-3.15 2.389-7 3.343-9.826 13.418-36.252 20.566-53.943 3.321-8.219 6.038-15.95 6.038-17.179 0-4.086-5.074-7.378-11.371-7.378-6.127 0-11.592 5.687-17.297 18-5.774 12.461-20.146 49.359-24.54 63-1.449 4.5-1.449 4.5-7.871 5.133-3.531.348-14.907.686-25.278.75-17.575.109-18.811-.002-18.185-1.633.37-.962 4.519-14.575 9.222-30.25s8.963-29.286 9.468-30.247 2.816-2.697 5.135-3.86c11.585-5.806 16.243-16.155 9.967-22.142-4.804-4.583-9.96-5.659-17.179-3.586m-756.627 3.897c-9.836 3.493-22.944 4.148-48.014 2.4-62.667-4.368-89.177-2.453-111.275 8.041-10.072 4.784-19.942 14.612-23.092 22.997-6.005 15.981-4.231 33.724 4.519 45.196 7.037 9.227 19.602 7.98 23.928-2.374 1.459-3.492 1.421-3.648-2.051-8.378-4.832-6.582-6.789-12.758-6.261-19.757C403.617 896.361 419.646 889 459.224 889c8.127 0 14.776.272 14.776.605 0 1.855-23.129 75.88-29.126 93.221-12.906 37.315-19.423 48.752-31.334 54.994-4.226 2.215-6.332 2.641-13.04 2.641-6.734 0-8.808-.423-13.107-2.675-2.81-1.471-6.504-3.85-8.211-5.287-3.418-2.876-4.891-2.598-8.884 1.673-13 13.904 2.737 29.778 29.558 29.816 23.578.034 41.034-11.881 53.457-36.488 9.219-18.259 21.444-54.759 37.176-111 3.077-11 6.026-21.357 6.553-23.016.959-3.016.959-3.016 13.208-2.191 6.738.454 19.225.653 27.75.442 18.423-.455 24.746-2.297 31.75-9.252 3.865-3.838 4.25-4.67 4.25-9.196 0-3.552-.524-5.451-1.829-6.632-1.006-.91-2.018-1.595-2.25-1.522-.231.073-2.696.941-5.477 1.929M913 868.178c-28.259 6.054-50.639 20.861-59.432 39.322-2.623 5.507-4.568 14.518-4.568 21.163 0 6.289 2.603 11.929 6.665 14.439 4.908 3.034 12.278 2.285 16.402-1.666 2.963-2.839 2.971-2.881 2.35-11.393-.826-11.306 1.515-17.932 8.97-25.386 8.752-8.752 26.332-16.262 36.244-15.482 4.13.325 4.13.325 2.212 7.825-10.456 40.889-34.206 97.03-50.856 120.213-4.82 6.712-13.777 15.46-17.771 17.355-5.431 2.577-11.549 2.959-16.587 1.035-5.419-2.07-8.796-1.018-11.625 3.622-3.524 5.78-2.09 12.001 3.935 17.07 4.641 3.905 9.244 4.979 19.423 4.533 7.688-.338 10.224-.91 15.984-3.607 8.418-3.942 18.135-13.319 25.626-24.731 13.525-20.603 33.759-69.436 44.828-108.189l4.7-16.454.786 10.827c.433 5.954.509 30.216.17 53.915-.517 36.066-.385 43.644.808 46.5 1.787 4.275 3.718 5.892 8.257 6.916 4.994 1.126 9.799-.466 13.242-4.388 3.18-3.621 11.698-17.767 26.264-43.617 15.348-27.239 46.595-77.711 47.531-76.775.165.165-2.792 9.519-6.572 20.787-3.78 11.269-9.134 28.363-11.899 37.988-15.164 52.794-16.921 77.656-6.359 89.996 5.498 6.423 10.246 8.404 20.272 8.458 7.552.041 9.031-.266 13.257-2.75 2.617-1.539 5.47-3.884 6.34-5.212 2.474-3.775 2.95-10.008.993-12.995-1.588-2.423-1.974-2.513-8.101-1.886-6.306.646-6.493.596-9.43-2.547-1.647-1.764-3.298-4.822-3.668-6.796-1.062-5.657.346-21.672 3.055-34.768 2.604-12.581 12.215-47.514 20.085-73 10.133-32.812 11.179-39.183 7.443-45.31-2.166-3.553-7.19-6.204-11.692-6.168-7.68.061-18.526 8.86-30.441 24.698-11.716 15.573-30.058 45.004-47.389 76.04l-10.197 18.259.5-22.259c.542-24.189-.905-54.392-3.244-67.696-2.821-16.044-8.672-24.502-19.125-27.648-5.303-1.596-20.432-1.728-27.386-.238m-263.397 15.375c2.748 10.951-7.936 34.549-26.914 59.447-5.871 7.702-5.847 7.355.958-13.5 8.112-24.861 15.66-41.913 20.584-46.501 2.89-2.692 4.601-2.516 5.372.554m858.016 64.445c-1.584.494-4.012 1.935-5.394 3.2-3.188 2.919-8.269 13.795-11.659 24.956-2.489 8.196-2.827 8.733-6.385 10.157-2.066.826-5.764 1.8-8.218 2.164-4.463.661-4.463.661-4.563-8.657-.124-11.637-2.501-17.768-9.384-24.206-13.605-12.726-36.091-9.367-51.695 7.722-12.211 13.374-18.026 37.301-13.056 53.73 5.893 19.481 26.45 27.111 46.629 17.306 7.096-3.448 15.903-12.47 20.129-20.621 3.174-6.122 3.323-6.249 7.358-6.266 2.266-.009 6.028-.386 8.361-.836 4.243-.82 4.243-.82 3.537 2.516-.388 1.836-.722 7.759-.742 13.165-.037 9.827-.037 9.827 3.356 12.863 3.007 2.691 3.914 2.978 7.968 2.521 6.179-.696 8.851-3.895 13.602-16.286 9.331-24.33 23.009-46.426 28.74-46.426.988 0 1.797.26 1.797.578s-1.791 6.776-3.98 14.353c-5.948 20.585-8.005 29.931-8.013 36.396-.006 5.112.352 6.186 2.916 8.75 2.366 2.366 3.782 2.923 7.429 2.923 6.294 0 10.415-4.082 14.136-14 3.301-8.799 10.061-22.632 15.882-32.5 4.377-7.419 12.39-16.5 14.56-16.5 1.715 0 1.318 2.013-4.339 22-5.487 19.384-6.498 26.905-4.317 32.118 5.863 14.015 28.331 12.487 46.651-3.172 4.01-3.428 4.639-3.678 5.439-2.161 7.239 13.733 30.61 18.973 52.239 11.712 16.249-5.454 30.431-17.156 33.419-27.573 1.61-5.613-1.507-11.924-5.89-11.924-.549 0-4.741 3.173-9.315 7.052-18.287 15.505-37.779 20.391-46.997 11.78-3.276-3.06-3.276-3.06 5.702-6.281 10.975-3.937 15.747-6.347 21.95-11.082 5.999-4.579 8.692-7.656 12.228-13.969 2.43-4.339 2.8-6.08 2.8-13.164 0-7.446-.264-8.545-3.006-12.5-1.959-2.826-4.92-5.321-8.5-7.164-4.99-2.568-6.242-2.791-13.649-2.434-11.022.532-19.232 4.522-28.369 13.786-9.61 9.745-15.291 22.175-17.451 38.185-.561 4.159-1.241 5.196-5.83 8.888-6.167 4.961-15.131 9.333-17.373 8.473-2.475-.95-1.207-8.791 4.217-26.07 8.261-26.316 9.341-32.618 6.496-37.934-3.107-5.807-12.305-7.3-20.796-3.376-7.041 3.254-18.882 15.636-25.162 26.31-2.911 4.95-5.077 8.323-4.811 7.496 7.486-23.326 7.636-24.111 5.659-29.781-2.266-6.499-11.079-8.513-19.925-4.553-5.36 2.399-14.52 10.554-19.548 17.403-1.99 2.711-6.046 9.542-9.013 15.182-2.968 5.639-5.406 9.716-5.418 9.06-.034-1.94 5.746-18.585 9.5-27.357 1.914-4.47 3.479-9.202 3.479-10.516 0-4.264-7.444-7.288-13.381-5.436m-409.212.979c-16.475 3.483-30.422 16.904-37.494 36.08-2.025 5.492-2.379 8.287-2.394 18.943-.018 11.637.165 12.849 2.653 17.563 2.644 5.01 8.507 11.125 12.943 13.499 6.874 3.679 21.851 5.031 32.777 2.959 20.429-3.875 41.445-20.853 41.276-33.348-.061-4.46-2.707-7.673-6.319-7.673-2.445 0-4.554 1.366-9.909 6.418-3.742 3.529-8.782 7.577-11.201 8.995-14.563 8.534-32.32 8.844-36.71.641-.904-1.689-.804-2.054.562-2.054 3.305 0 20.062-7.347 26.61-11.667 7.15-4.718 11.167-9.137 14.777-16.261 2.762-5.45 3.706-14.469 2.042-19.512-1.582-4.793-6.306-10.155-11.101-12.601-4.489-2.29-12.831-3.183-18.512-1.982M547 967.006c0 3.142-9.316 35.685-11.384 39.765-1.353 2.671-4.297 6.515-6.541 8.542-3.248 2.935-4.884 3.687-8.021 3.687-5.117 0-7.054-2.626-7.054-9.564 0-10.986 5.005-21.5 14.973-31.451C537.206 969.765 547 963.8 547 967.006m183.365 2.067c6.98 5.49-.726 16.56-15.934 22.891-4.01 1.67-7.732 3.036-8.27 3.036-1.379 0 2.164-11.175 5.156-16.262 2.83-4.811 5.833-7.783 10.183-10.076 4.028-2.124 5.744-2.045 8.865.411m376 0c7.14 5.616-1.365 16.74-18.212 23.819-2.941 1.236-5.601 1.994-5.91 1.684-1.639-1.639 5.987-18.57 10.1-22.423 2.707-2.535 7.65-5.139 9.772-5.147.888-.003 2.801.927 4.25 2.067m562.828-.323c3.851 4.484 2.576 9.611-3.774 15.187-3.927 3.448-16.978 10.063-19.853 10.063-1.992 0-1.968-.519.331-7.2 3.025-8.792 7.91-15.485 13.603-18.633 3.045-1.684 8.002-1.386 9.693.583m-226.208 0c-.008.413-.664 2.55-1.456 4.75-2.965 8.23-1.359 18.859 3.656 24.197 1.868 1.988 1.954 2.553.814 5.305-2.013 4.861-6.767 10.886-10.279 13.027-1.833 1.118-5.012 1.965-7.381 1.967-3.407.003-4.623-.545-6.71-3.025-3.153-3.747-4.029-8.142-3.393-17.021.818-11.443 8.618-24.162 17.208-28.064 4.227-1.92 7.567-2.423 7.541-1.136M632.25 1103.497c-3.146 2.26-2.86 6.238.848 11.838 6.388 9.643 20.025 18.566 36.207 23.689 12.283 3.889 12.788 4.155 9.655 5.079-1.353.399-7.798 2.569-14.322 4.822-12.271 4.238-30.073 9.075-33.401 9.075-1.27 0-4.025-3.07-8.298-9.25-11.372-16.446-25.566-28.091-37.625-30.869-4.497-1.036-5.527-.972-7.75.485-9.707 6.361 8.229 26.189 34.032 37.621 4.665 2.067 8.705 3.98 8.976 4.252 1.298 1.297-27.456 4.145-42.418 4.2l-16.346.061-4.914-12c-2.702-6.6-6.937-14.972-9.41-18.604-8.262-12.133-20.41-21.896-27.244-21.896-3.791 0-5.249 1.67-5.196 5.95.137 11.126 12.228 28.321 28.293 40.237 7.836 5.813 7.836 5.813 3.54 5.813-6.073 0-27.818-2.762-37.777-4.799-8.399-1.718-8.399-1.718-10.295-8.638-3.54-12.923-9.908-26.536-15.179-32.449-3.815-4.28-9.862-8.114-12.797-8.114-10.34 0-2.225 21.512 15.279 40.502 3.966 4.302 3.966 4.302-.065 3.396-2.217-.498-8.646-2.478-14.287-4.4-8.279-2.821-10.734-4.121-12.735-6.746-6.455-8.466-15.216-14.981-26.416-19.644-14.351-5.974-26.806-6.142-28.252-.38-1.754 6.99 11.842 20.922 26.647 27.305 4.542 1.959 7.472 2.414 16.828 2.613 10.26.218 12.522.634 24 4.422 6.97 2.3 13.038 4.514 13.486 4.921s-2.356 1.052-6.232 1.434c-14.4 1.419-28.537 6.763-33.503 12.666-3.465 4.118-3.028 6.937 1.421 9.159 9.961 4.976 31.294-1.902 45.625-14.711 6.126-5.475 6.126-5.475 19.5-3.106 7.356 1.303 19.148 2.928 26.204 3.611 7.783.753 12.307 1.573 11.5 2.085-.731.463-1.938.849-2.682.858-.744.008-5.121 1.781-9.727 3.94-16.453 7.71-30.379 19.322-34.645 28.887-1.745 3.911-1.782 4.528-.406 6.628 3.024 4.616 12.509 3.399 25.043-3.214 9.344-4.93 20.467-16.062 27.954-27.976 5.813-9.25 5.813-9.25 16.214-9.25 10.136 0 35.883-2.219 45.92-3.957 2.75-.476 5.087-.782 5.193-.678s-2.544 2.426-5.889 5.161c-13.221 10.812-25.126 27.829-28.509 40.752-1.604 6.126-1.628 7.039-.253 9.5 2.116 3.786 5.828 3.962 12.061.569 11.864-6.457 22.309-24.152 28.381-48.081 1.325-5.221 2.545-9.59 2.712-9.709.167-.12 2.868-.771 6.003-1.447 7.949-1.716 31.104-8.764 38.253-11.643 3.273-1.319 6.084-2.264 6.247-2.101s-2.391 3.635-5.676 7.715c-10.658 13.237-18.023 30.648-18.023 42.606 0 4.51.358 5.501 2.493 6.9 3.676 2.409 7.246 1.056 13.007-4.929 9.148-9.504 14.637-24.27 16.728-45.003 1.195-11.845 1.195-11.845 8.823-15.681 14.376-7.228 40.607-23.679 44.279-27.769 1.47-1.638 1.61-2.448.715-4.122-.614-1.146-1.526-2.083-2.028-2.083s-7.094 4.056-14.648 9.014c-13.413 8.803-35.899 21.024-38.543 20.948-.729-.021-2.901-2.084-4.826-4.585-5.063-6.579-19.555-20.052-26.313-24.464-9.711-6.339-21.43-9.295-25.437-6.416m317.75 8.559c-18.891 1.197-40.864 4.545-50.307 7.666-8.624 2.851-20.159 9.871-25.541 15.546-3.348 3.53-3.348 3.53 0 4.239 4.792 1.014 9.753 4.29 11.947 7.888 4.021 6.594 2.062 15.524-7.639 34.836-7.558 15.044-8.689 15.878-2.352 1.733 2.825-6.305 6.042-15.127 7.149-19.603 1.98-8.006 1.982-8.203.128-11.987-2.303-4.7-7.552-8.374-11.966-8.374-3.887 0-6.379 2.77-17.098 19-20.007 30.295-34.306 51.434-40.167 59.381-6.55 8.88-6.55 8.88-4.102 10.899 3.488 2.877 14.087 7.559 18.826 8.317 10.217 1.633 15.057-1.83 24.727-17.695 3.672-6.025 6.906-10.724 7.188-10.442.933.933-9.476 21.11-12.906 25.016-3.851 4.386-9.881 7.47-14.669 7.502-4.825.032-14.769-3.554-22.523-8.123-4.943-2.913-7.147-3.724-8.059-2.968-.69.573-4.969 1.686-9.508 2.473-4.54.788-8.5 1.679-8.8 1.979s.417 1.899 1.595 3.553c7.157 10.051 9.659 22.709 8.149 41.229-1.064 13.064-3.832 25.009-8.267 35.681-1.669 4.016-2.871 7.397-2.67 7.514 23.341 13.599 37.403 36.455 46.87 76.184 1.573 6.6 3.602 16.95 4.509 23s1.846 12.013 2.087 13.25c.4 2.061.989 2.25 7.025 2.25 5.831 0 6.512-.199 5.925-1.727-.364-.95-1.527-6.78-2.582-12.956-5.502-32.184-8.052-85.011-6.137-127.154.666-14.665 1.644-28.833 2.173-31.485 1.024-5.136 4.728-13.453 10.882-24.432 2.08-3.71 7.636-14.171 12.347-23.246 20.76-39.987 31.885-60.152 36.723-66.559 2.157-2.857 6.655-7.02 9.996-9.251 10.732-7.166 19.89-8.827 56.547-10.253 26.942-1.048 61.705-.467 73 1.219 16.69 2.492 24.684 9.814 28.061 25.7.803 3.778 1.862 18.506 2.456 34.144 1.485 39.157 1.834 43.225 4.014 46.81 3.703 6.089 5.71 6.674 22.313 6.506 14.981-.152 14.981-.152 14.785-7.484-.557-20.833-4.887-87.284-6.107-93.717-3.677-19.386-14.322-29.242-37.022-34.278-8.84-1.961-12.903-2.126-58.5-2.372-26.95-.146-55.075.12-62.5.591m398.472 4.29c-9.891 4.748-20.837 13.851-29.451 24.493-4.079 5.038-8.015 9.161-8.747 9.161-3.445 0-28.256-14.212-44.173-25.303-8.4-5.853-8.4-5.853-10.962-3.29-3.019 3.018-4.066 1.871 11.361 12.44 11.281 7.728 25.826 16.39 35.52 21.152 6.519 3.203 6.519 3.203 6.772 9.352.925 22.505 8.182 41.971 19.441 52.146 8.861 8.009 13.767 6.525 13.767-4.165 0-12.134-5.963-26.106-17.334-40.613-4.216-5.38-7.666-9.966-7.666-10.193s3.037.839 6.75 2.368c9.881 4.071 19.178 7.055 33.179 10.648 12.429 3.189 12.429 3.189 15.195 14.437 5.407 21.993 16.752 40.046 29.292 46.611 4.514 2.364 5.917 2.68 8.261 1.86 2.497-.874 2.859-1.542 3.131-5.791.851-13.287-10.654-31.108-31.308-48.494-5-4.209-5-4.209-1.5-3.664 8.948 1.393 24.082 2.551 41.187 3.153 18.686.658 18.686.658 24.481 8.752 13.664 19.085 31.373 31.712 46.69 33.291 4.154.428 5.611.151 7.581-1.445 2.436-1.974 2.436-1.981.724-6.463-4.611-12.076-23.948-26.125-43.089-31.306-7.26-1.965-8.542-3.483-2.943-3.483 4.645 0 20.339-2.404 36.617-5.61 12.749-2.511 12.749-2.511 21.034 3.509 12.68 9.213 23.922 13.424 35.859 13.431 14.317.009 16.763-6.987 5.045-14.433-6.179-3.926-13.017-5.828-26.545-7.383-6.128-.704-10.532-1.333-9.787-1.397s7.157-2.402 14.249-5.195c12.249-4.824 13.408-5.089 23.146-5.282 9.128-.181 10.963-.54 16.751-3.273 13.979-6.601 27-19.619 27-26.995 0-5.812-5.862-6.86-19.234-3.44-13.634 3.487-26.593 11.723-34.275 21.783-2.091 2.739-5.253 5.396-7.76 6.522-4.451 1.998-23.442 8.763-24.6 8.763-.371 0 1.81-2.659 4.847-5.909 10.009-10.711 17.37-25.487 16.825-33.772-.348-5.297-2.116-6.959-6.288-5.912-3.669.921-12.282 9.844-15.83 16.401-3.527 6.518-8.452 20.958-9.282 27.215-.629 4.741-.629 4.741-6.766 6.366-11.561 3.06-45.637 7.85-45.637 6.415 0-.259 2.413-2.133 5.361-4.164 15.158-10.439 29.639-31.215 29.639-42.522 0-3.913-2.309-7.139-5.079-7.096-3.23.05-10.3 4.223-15.526 9.165-9.631 9.109-16.409 20.805-23.88 41.212-1.794 4.898-1.794 4.898-20.404 4.29-17.738-.579-32.733-1.958-38.73-3.562-2.601-.696-2.401-.875 3.37-3.034 15.349-5.74 33.291-19.753 37.892-29.593 2.756-5.896 2.908-7.807.786-9.929-2.756-2.756-9.391-1.955-17.545 2.117-9.485 4.738-21.079 16.22-29.73 29.446-6.303 9.634-6.303 9.634-12.978 8.13-7.864-1.773-33.755-10.23-40.096-13.097-4.42-1.998-4.42-1.998 0-3.118 22.971-5.818 45.92-22.652 45.92-33.685 0-4.073-2.097-5.364-8.712-5.364-3.438 0-6.868.971-11.816 3.346m-164.972 3.098c-4.929 1.786-10.742 8.084-12.319 13.347-1.653 5.515-1.471 17.368.386 25.145 1.675 7.018 11.937 28.728 15.768 33.36 2.313 2.795 2.313 2.795 11.773-.629 19.318-6.993 32.82-15.561 39.262-24.913 8.452-12.273 7.548-23.818-2.394-30.566-3.006-2.04-4.431-2.312-10.539-2.013-5.922.289-7.859.863-11.989 3.549-4.926 3.204-4.926 3.204-6.038-1.736-2.818-12.512-13.36-19.366-23.91-15.544m-401 1.723c-5.489 3.036-11.466 12.144-11.49 17.51-.01 2.092-.232 2.043-5.678-1.236-6.436-3.876-10.654-4.929-16.559-4.137-8.126 1.09-13.112 7.399-13.098 16.574.018 11.311 8.004 22.107 22.888 30.938 7.321 4.343 21.546 10.441 27.153 11.64 3.049.652 3.394.41 6.618-4.634 5.938-9.292 11.472-21.07 13.672-29.101 2.296-8.38 2.786-19.934 1.086-25.574-1.434-4.754-5.4-9.591-9.437-11.506-3.931-1.866-12.173-2.123-15.155-.474m182 17.51c-13.796.561-32.089 2.386-37 3.69-12.891 3.424-20.729 10.581-30.401 27.762-3.52 6.254-12.914 23.971-20.876 39.371-7.961 15.4-17.047 32.725-20.189 38.5-7.682 14.116-8.899 17.551-10.024 28.305-1.721 16.441-2.288 60.234-1.11 85.631 1.594 34.378 3.864 55.467 7.851 72.969l1.688 7.405 110.014-.722c60.508-.397 110.202-.91 110.432-1.139.229-.23.861-29.787 1.403-65.683 1.135-75.004.315-104.098-3.217-114.173-2.475-7.057-2.438-6.593-.515-6.593.872 0 2.378 1.87 3.423 4.25 4.39 9.998 4.531 13.111 4.333 95.75-.104 43.175-.469 80.412-.812 82.75-.623 4.25-.623 4.25 14.189 4.246 12.838-.003 15.23-.259 17.958-1.922 5.993-3.655 5.853-1.401 5.853-94.25 0-84.505-.004-84.681-2.104-87.5-2.103-2.824-2.103-2.824-17-3.351-15.416-.545-18.736-1.376-22.61-5.657-4.36-4.818-4.99-8.773-5.861-36.816-1.292-41.603-2.331-50.757-6.669-58.754-5.013-9.243-11.766-12.367-29.755-13.767-10.846-.844-51.343-1.021-69.001-.302m83.21 11.288c3.766 2.296 6.6 7.444 8.166 14.831.617 2.912 1.419 19.178 1.782 36.146.754 35.231.394 38.006-5.718 44.118-7.235 7.235-4.821 7.049-87.06 6.727-73.38-.287-73.38-.287-78.655-3.21-2.901-1.607-6.144-4.328-7.206-6.046-2.357-3.814-3.794-11.531-2.147-11.531.62 0 1.128.726 1.128 1.614 0 3.409 4.579 9.641 8.989 12.234 4.511 2.652 4.511 2.652 50.011 3.445 63.596 1.108 101.448.584 106-1.468 4.184-1.887 8.471-6.262 9.936-10.14 1.311-3.47 1.386-45.416.111-61.882-1.017-13.132-3.067-19.151-8.131-23.882-3.565-3.329-1.985-3.87 2.794-.956m-171.245 3.139c2.851 2.503 3.535 3.819 3.535 6.805 0 6.051-3.701 15.285-15.661 39.076-16.124 32.074-20.137 36.643-31.339 35.68-4.406-.378-14.23-3.561-15.782-5.113-.347-.347 49.076-74.889 51.585-77.802 2.121-2.463 3.616-2.199 7.662 1.354m159.991 1.454c6.585 3.267 7.798 5.879 8.664 18.669.42 6.2.841 21.884.935 34.853.197 27.044-.138 28.536-7.037 31.296-3.55 1.421-10.141 1.624-52.644 1.624h-48.585l.623-15.25c.343-8.388 1.098-27.846 1.68-43.241s1.284-28.22 1.563-28.5c.833-.837 39.063-1.744 65.865-1.563 22.556.153 25.407.361 28.936 2.112m-105.335 39.386c-.646 20.106-1.429 38.985-1.739 41.954-.563 5.399-.563 5.399-17.848 4.84-18.63-.602-21.982-1.44-25.161-6.292-1.226-1.871-1.504-3.842-1.088-7.729.664-6.199 2.159-9.676 12.841-29.87 9.378-17.727 17.125-29.971 21.878-34.576 4.258-4.125 11.338-7.742 11.894-6.075.219.656-.131 17.643-.777 37.748m-155.204 45.459c-.478.462-38.047 2.852-80.417 5.117-15.95.852-34.625 1.967-41.5 2.476s-19.025 1.414-27 2.01c-21.203 1.584-49.044 4.853-60.5 7.103-21.551 4.232-35.107 10.47-45.682 21.02-5.333 5.32-7.695 8.758-11.696 17.019-4.386 9.057-5.957 13.669-8.5 24.956-.587 2.605-.587 2.605 8.146-.669 19.419-7.281 40.758-9.453 99.692-10.148 45.707-.538 73.761.348 104.04 3.287 25.78 2.503 49.009 6.897 60.585 11.46 2.744 1.081 5.222 1.966 5.507 1.966 1.081 0 5.661-11.773 7.958-20.456 4.948-18.701 5.194-41.552.562-52.024-3.512-7.939-9.407-14.846-11.195-13.117m706.583 36.258c-4.95.135-69.975.716-144.5 1.292s-153.388 1.341-175.25 1.7l-39.75.652v12.019l68.25-.66c37.537-.363 136.2-1.158 219.25-1.766 88.888-.652 151.72-1.49 152.75-2.038 2.394-1.273 2.23-5.981-.323-9.225-2.072-2.635-2.072-2.635-36.75-2.427-19.072.114-38.727.318-43.677.453m-424.061 3.289c.859.712 1.561 2.535 1.561 4.05 0 5.28-.919 5.428-26.184 4.226-13.874-.66-23.524-1.534-24.18-2.19-1.636-1.636.452-4.302 4.113-5.251 3.824-.991 30.896-2.676 37.94-2.362 2.855.127 5.892.814 6.75 1.527M1255 1294.271c-72.325.506-131.567.99-131.649 1.075s-.307 30.417-.5 67.404l-.351 67.25h89.194l.623-14.25c.739-16.913 2.863-31.66 6.276-43.572 10.372-36.2 31.521-52.336 78.407-59.822 16.304-2.603 78.384-2.611 104-.014 48.152 4.883 71.961 10.085 92.954 20.309 10.309 5.02 12.358 6.491 20.5 14.713 6.753 6.82 10.098 11.164 13.196 17.136 4.508 8.691 10.076 24.47 11.026 31.25.328 2.338.913 4.25 1.301 4.25.999 0 2.018-37.918 2.021-75.25L1542 1293l-77.75.175c-42.763.096-136.925.589-209.25 1.096m292 23.566c0 13.66-.298 39.085-.662 56.5l-.661 31.663h9.616c9.616 0 9.616 0 10.289-3.586 1.268-6.758-.352-35.35-2.544-44.914-1.696-7.397-2.178-13.941-2.709-36.75l-.646-27.75H1547zm-975-4.236c-2.475.197-10.8.839-18.5 1.427-22.965 1.753-36.14 4.493-48.31 10.048-4.289 1.958-5.221 2.809-4.844 4.424 3.075 13.18 3.765 17.625 4.265 27.5.321 6.325.15 14.134-.379 17.353-.797 4.853-.653 6.665.844 10.605 1.935 5.091 8.308 35.785 9.405 45.292.648 5.616.735 5.75 3.753 5.75 4.586 0 11.193 4.302 13.386 8.716 1.432 2.882 1.88 5.989 1.88 13.032 0 9.248 0 9.248 2.812 9.25 4.283.003 13.182-4.646 16.022-8.37 3.282-4.302 7.543-13.299 13.105-27.671 13.224-34.172 28.409-49.69 54.733-55.937 25.638-6.084 71.479-3.805 87.581 4.355 9.632 4.881 19.142 13.54 25.947 23.625 6.768 10.031 15.336 29.746 21.228 48.849 6.192 20.076 10.984 26.907 20.897 29.789 4.421 1.285 9.23 1.513 25.073 1.192 21.493-.436 25.29-1.341 29.437-7.018 4.2-5.75 3.95-20.116-.865-49.697-7.024-43.16-18.119-69.825-35.59-85.533-15.204-13.67-39.266-20.344-90.88-25.209-12.014-1.132-31.455-1.633-71.5-1.843-30.25-.158-57.025-.126-59.5.071m743.5 2.409c-23.991 1.75-42.209 5.772-56.003 12.363-16.187 7.735-25.554 17.619-32.514 34.309-6.953 16.672-10.676 46.57-9.679 77.714.581 18.136 2.046 27.513 5.273 33.753 1.577 3.05 1.577 3.05 9.75 2.69 9.462-.416 16.239-3.142 18.866-7.588.907-1.535 2.142-6.608 2.745-11.271 2.165-16.746 3.252-22.61 5.744-30.972q12.038-40.403 46.325-49.953c10.678-2.974 29.663-4.404 48.851-3.678 37.092 1.403 50.1 5.514 65.163 20.593 12.456 12.47 18.355 23.59 25.475 48.03 4.623 15.866 7.05 20.118 13.175 23.083 4.474 2.166 5.135 2.22 13.764 1.124 9.151-1.161 51.362-9.419 55.065-10.772 3.522-1.287 8.456-5.45 10.001-8.437 2.189-4.233 1.875-14.786-.962-32.302-4.433-27.378-8.701-41.116-16.436-52.903-10.203-15.548-25.727-26.027-47.603-32.135-30.879-8.621-70.238-13.301-118.5-14.09-14.575-.238-31.9-.039-38.5.442m-823.393 20.126c-1.941 3.398-3.302 7.471-3.715 11.114-.646 5.708-.674 5.75-3.954 5.75-3.604 0-5.113 2.298-3.938 6 .493 1.553 1.513 2 4.567 2 3.911 0 3.933.022 3.933 3.934 0 3.544-.271 3.964-2.741 4.25-2.967.342-3.848 2.334-2.829 6.395.579 2.305.986 2.421 8.472 2.421 7.863 0 7.863 0 8.566-7.5.386-4.125.417-10.987.067-15.25-.721-8.797-3.325-22.319-4.548-23.614-.449-.476-2.195 1.549-3.88 4.5m147.622 44.902c-17.373 2.922-34.059 12.156-47.191 26.115-9.412 10.005-14.509 18.638-19.207 32.531-3.365 9.952-3.694 11.953-4.12 25.056-.397 12.238-.151 15.587 1.753 23.828 10.212 44.192 54.284 73.119 99.036 65.002 43.75-7.935 74.087-46.278 71.658-90.57-.698-12.714-2.672-20.878-7.646-31.619-10.214-22.057-27.785-38.634-48.639-45.886-13.785-4.794-32.676-6.639-45.644-4.457m692.271.402c-15.867 3.357-30.027 10.793-41.744 21.92-8.85 8.404-13.746 15.312-19.792 27.92-5.488 11.443-7.366 18.547-8.124 30.72-1.48 23.77 7.737 48.75 24.16 65.474 11.607 11.819 23.875 19.063 40.211 23.742 6.479 1.855 10.311 2.234 22.789 2.253 12.787.019 16.215-.325 23.233-2.328 43.189-12.33 69.55-54.848 61.747-99.593-4.965-28.473-24.125-52.85-50.475-64.218-4.128-1.781-10.205-3.978-13.505-4.882-8.183-2.243-29.968-2.814-38.5-1.008m-846.986 6.81c.007 1.237.285 3.263.616 4.5.568 2.119 1.12 2.25 9.487 2.25 4.885 0 8.88-.338 8.877-.75s-.474-2.437-1.047-4.5c-1.041-3.75-1.041-3.75-9.494-3.75-8.103 0-8.452.093-8.439 2.25m3.319 17.414c.327 2.015.948 4.011 1.381 4.436.432.425 4.611.87 9.286.988 8.5.214 8.5.214 8.148-2.687-.724-5.974-1.445-6.401-10.814-6.401-8.596 0-8.596 0-8.001 3.664m180.574 7.876c9.605 2.264 17.7 6.983 25.596 14.92 8.26 8.304 12.583 16.383 15.002 28.04 6.008 28.943-12.587 58.381-41.108 65.081-9.356 2.197-24.782 1.511-32.397-1.442-24.246-9.402-38.834-34.305-35.189-60.075 3.072-21.726 19.792-40.959 40.44-46.519 6.959-1.874 19.718-1.876 27.656-.005m699.878 1.457c24.744 8.702 40.321 36.876 34.831 63.003-4.291 20.427-19.39 36.86-39.096 42.549-11.809 3.409-28.885 1.877-39.516-3.547-12.015-6.13-22.696-18.125-27.159-30.502-2.697-7.481-3.614-22.447-1.863-30.399 4.467-20.277 20.364-37.194 40.018-42.583 7.935-2.176 24.519-1.428 32.785 1.479m182.407 4.027c-4.637 2.827-7.143 8.859-7.17 17.258-.026 8.055 1.56 12.347 5.919 16.015 3.143 2.644 3.504 2.703 16.676 2.703 16.418 0 19.88-1.264 23.406-8.548 3.055-6.31 2.454-16.622-1.3-22.295-3.972-6.002-7.507-7.158-21.874-7.153-10.619.003-12.812.286-15.657 2.02m-1058.589-.191c-.283.458.607 2.483 1.977 4.5 2.402 3.534 2.708 3.667 8.456 3.667 7.493 0 7.476.007 7.085-3-.703-5.408-1.649-6-9.597-6-4.073 0-7.638.375-7.921.833m-6.63 8.818c-4.96 3.312-9.21 7.961-11.745 12.849-2.076 4.001-2.68 6.81-3.022 14.057-.367 7.762-.108 9.801 1.809 14.257 2.621 6.092 7.585 10.833 12.261 11.71 1.826.342 10.354.477 18.952.299 17.637-.364 19.338-.975 23.142-8.304 3.082-5.938 3.489-18.79.788-24.894-2.934-6.634-5.81-7.625-22.126-7.625-12.082 0-13.032-.137-13.032-1.878 0-1.032.675-2.437 1.5-3.122 1.747-1.449 1.935-4.318.465-7.066-1.288-2.406-5.609-2.542-8.992-.283m162.205.423c-19.936 2.587-35.965 25.318-32.345 45.868 4.385 24.894 27.632 39.409 51.374 32.076 11.567-3.573 19.631-10.838 24.996-22.518 1.954-4.253 2.297-6.644 2.297-16 0-10.23-.209-11.414-2.99-16.909-6.281-12.411-16.845-20.466-29.544-22.527-3.556-.577-6.691-.995-6.966-.93-.275.066-3.345.489-6.822.94m692.322.251c-11.714 2.992-22.209 11.676-27.403 22.675-2.282 4.833-2.597 6.774-2.597 16 0 9.852.21 10.948 3.399 17.753 4.034 8.606 10.505 15.14 18.883 19.067 5.118 2.399 6.875 2.68 16.739 2.68 10.394 0 11.394-.183 17.567-3.223 25.349-12.479 30.112-45.764 9.332-65.203-4.165-3.896-8.173-6.586-11.878-7.972-7.119-2.664-17.551-3.435-24.042-1.777m-221.331 10.113c-1.116 1.891-3.522 4.253-5.349 5.25-3.113 1.699-9.063 1.85-95.32 2.428-50.6.339-112.032.677-136.516.75l-44.516.134.373 10.892c.269 7.864-.061 12.371-1.187 16.213-.858 2.927-1.454 5.428-1.324 5.558.397.397 310.831-1.643 348.446-2.29 26.067-.448 35.042-.902 34.382-1.74-.491-.623-1.694-3.608-2.673-6.633s-2.181-5.763-2.672-6.084-24.078-.371-52.415-.112c-51.262.468-55.832.23-52.846-2.756.56-.56 22.516-1.244 53.305-1.661 52.353-.708 52.353-.708 51.759-4.298-.327-1.974-.599-7.076-.605-11.339L1212 1435h-45.401c-45.401 0-45.401 0-47.43 3.438m241.947 4.646c5.824 2.932 9.551 6.608 12.306 12.136 2.049 4.111 2.573 6.621 2.556 12.226-.035 11.321-4.737 19.262-14.198 23.976-12.498 6.228-28.721 1.452-35.142-10.346-7.332-13.471-2.511-30.919 10.385-37.588 7.151-3.698 17.217-3.867 24.093-.404m-697.262-1.126c5.188 1.488 11.76 7.041 14.843 12.542 2.463 4.393 2.802 6.032 2.791 13.5-.013 9.392-1.797 14.17-7.146 19.14-5.656 5.254-11.179 7.331-19.342 7.272-12.17-.088-19.586-4.787-24.322-15.412-5.62-12.607 1.114-30.192 13.822-36.097 4.417-2.053 13.881-2.515 19.354-.945"/></svg>