<svg xmlns="http://www.w3.org/2000/svg" viewBox="0 0 2048 2048"><path fill-rule="evenodd" d="M971.5 95.054c-11.684 1.759-20.024 6.19-27.381 14.548-2.254 2.561-5.229 6.968-6.612 9.795s-3.046 8.783-3.695 13.237c-.996 6.837-.927 9.382.443 16.338 1.907 9.681 6.674 20.15 12.989 28.528 2.488 3.3 9.97 12.033 16.628 19.407s13.235 15.674 14.617 18.446c3.018 6.058 3.277 12.714.687 17.663-1.121 2.141-3.529 4.379-6.25 5.807-3.654 1.918-5.507 2.244-10.622 1.869-4.107-.3-8.456-1.511-12.899-3.59-3.687-1.725-6.806-3.016-6.931-2.869s-.543 5.704-.928 12.348l-.701 12.082 7.327 2.138c4.031 1.176 10.703 2.418 14.828 2.76 12.987 1.075 28.122-3.349 36.473-10.662 5.537-4.849 11.004-13.789 13.046-21.332 1.323-4.888 1.634-8.786 1.257-15.779-.613-11.377-3.664-20.684-9.953-30.365-2.474-3.808-9.378-12.548-15.343-19.423-5.966-6.875-12.751-15.086-15.079-18.246-7.356-9.985-7.865-20.136-1.338-26.663 1.658-1.658 4.617-3.316 6.575-3.683 5.944-1.115 14.951.191 19.728 2.861l4.407 2.463 1.113-8.684c.613-4.776 1.114-10.097 1.114-11.826V99.08l-6.255-1.932c-7.757-2.395-19.332-3.285-27.245-2.094m51.5 81.739v81.949l10.081.715c5.544.393 10.382.414 10.75.047.368-.368.894-22.525 1.169-49.239l.5-48.57 13.906 43.403c7.649 23.871 14.814 46.398 15.924 50.059l2.017 6.657 13.37.716c7.354.394 13.653.433 13.998.088.721-.721 2.44-25.748 4.781-69.618 2.094-39.23 4.275-94.282 3.774-95.25-.213-.412-5.247-.75-11.187-.75h-10.798l-.63 10.75c-.347 5.912-.93 28.193-1.297 49.512-.368 21.319-.81 38.62-.983 38.446s-2.374-7.266-4.89-15.761c-5.567-18.797-26.427-82.199-27.333-83.08-.359-.348-7.964-.946-16.902-1.328l-16.25-.694zm110-76.669c0 3.844-4.859 26.214-8.275 38.099l-3.353 11.664 3.814.557 7.656 1.117 3.843.562 5.546-12.812c5.535-12.786 9.404-23.804 12.091-34.432l1.421-5.621-6.018-.629c-3.31-.346-8.427-.629-11.372-.629-4.791 0-5.353.223-5.353 2.124m-240 2.9c-12.375 1.568-27.337 3.403-33.25 4.077-6.326.721-10.749 1.672-10.747 2.312.001.598 1.999 13.462 4.44 28.587 5.934 36.771 11.834 79.211 15.084 108.5 1.465 13.2 2.835 24.177 3.045 24.394.353.364 54.872-6.248 62.178-7.541l3.25-.576v-5.742c0-7.729-1.128-18.074-1.918-17.586-1.201.743-32.377 5.59-32.858 5.109-.751-.752-5.464-49.652-4.844-50.271.304-.304 6.025-1.259 12.713-2.122l12.161-1.568-.649-7.785c-.357-4.281-.921-9.141-1.252-10.798-.52-2.601-1.032-3.005-3.728-2.948-1.719.037-7.4.644-12.625 1.35-5.225.705-9.618 1.195-9.763 1.087-.443-.329-5.972-44.965-5.645-45.576.169-.315 7.988-1.168 17.376-1.895l17.068-1.323-.567-3.104c-.312-1.708-1.108-6.705-1.768-11.105-1.026-6.831-1.493-8.024-3.201-8.163-1.1-.09-12.125 1.119-24.5 2.687m266.178 6.652c-.611 3.203-1.4 8.119-1.753 10.924l-.643 5.099 5.694.669c3.132.368 9.031 1.166 13.109 1.772l7.415 1.103v3.034c0 4.494-10.671 95.494-13.532 115.394-1.357 9.444-2.468 18.269-2.468 19.611v2.441l10.75 1.625c5.912.894 13.266 1.91 16.342 2.258l5.592.632 3.245-23.869c1.785-13.128 4.97-36.469 7.077-51.869s4.842-35.875 6.076-45.5 2.517-17.824 2.851-18.221 6.202.151 13.038 1.217c6.837 1.065 12.551 1.815 12.699 1.667s.94-4.739 1.761-10.204c.821-5.464 1.172-10.222.781-10.572-.392-.349-5.662-1.391-11.712-2.314-12.495-1.907-62.375-9.067-70.105-10.063l-5.106-.658zm-374.821 8.316c-2.829.42-7.687 1.928-10.796 3.351-7.664 3.509-16.375 12.386-20.37 20.757-5.178 10.849-6.583 18.448-6.548 35.4.046 21.823 3.657 41.12 11.419 61.017 2.149 5.509 6.162 13.68 8.917 18.156 7.102 11.542 15.113 19.334 24.533 23.865l7.677 3.692 9.155-.412c7.102-.32 10.403-.987 14.716-2.973 3.058-1.408 7.811-4.811 10.561-7.561 5.597-5.597 11.402-16.465 13.772-25.784.839-3.3 2.043-11.315 2.676-17.811.856-8.79.865-15.013.035-24.336-.614-6.889-2.239-17.498-3.611-23.576-2.822-12.502-8.831-28.279-14.03-36.838-4.946-8.142-11.995-15.673-18.776-20.06-9.421-6.094-19.201-8.391-29.33-6.887M1297 128.807c0 .926-15.833 79.871-19.493 97.193-7.039 33.32-9.821 46.252-11.505 53.488-1.022 4.394-1.739 8.108-1.593 8.254s7.348 2.011 16.005 4.143c10.753 2.649 15.867 3.519 16.142 2.746.221-.622 3.748-15.306 7.839-32.631 4.09-17.325 7.865-32.625 8.389-34l.953-2.5.62 5c.982 7.926 2.568 27.225 4.141 50.392.798 11.765 1.576 21.505 1.727 21.644.151.14 8.375 2.252 18.275 4.694l18 4.44.296-2.123c.287-2.061-11.384-94.535-12.313-97.553-.534-1.737 16.978-22.743 35.842-42.994 6.917-7.424 12.261-13.803 11.875-14.174s-6.1-2.537-12.7-4.812l-12-4.138-3.5 4.248c-1.925 2.336-9.125 11.049-16 19.361s-16.55 20.137-21.5 26.276-9.135 10.774-9.3 10.3.816-5.52 2.181-11.212c5.02-20.938 11.72-52.259 11.917-55.705l.202-3.547-15.5-3.766c-8.525-2.07-16.287-3.78-17.25-3.798s-1.75.33-1.75.774m-501.536 12.93c1.505 1.505 3.569 4.367 4.586 6.36 2.95 5.783 7.637 22.684 10.895 39.284 4.51 22.978 6.008 33.746 6.714 48.249.673 13.839-.347 21.25-3.389 24.62-.973 1.078-3.028 1.75-5.352 1.75-2.847 0-4.262-.622-5.766-2.534-3.026-3.847-7.715-15.825-11.175-28.547-9.686-35.615-14.671-69.514-12.064-82.024 1.498-7.185 3.96-9.895 8.99-9.895 2.834 0 4.533.708 6.561 2.737M671.5 152.688c-21.952 5.006-49.499 13.239-49.502 14.796-.002.559 3.804 12.041 8.457 25.516 8.255 23.906 24.722 74.354 36.068 110.5 3.107 9.9 5.965 18.332 6.351 18.737.77.811 25.093-6.463 34.634-10.357 13.483-5.503 25.444-16.247 31.276-28.093 1.788-3.632 4.214-10.132 5.39-14.445 1.767-6.475 2.134-10.543 2.107-23.342-.025-11.606-.554-18.081-2.107-25.771-2.78-13.774-7.887-28.355-13.259-37.853-4.744-8.389-14.826-19.452-21.586-23.688-2.295-1.438-6.893-3.53-10.219-4.651-4.594-1.547-8.398-2.009-15.828-1.921-5.38.064-10.682.321-11.782.572m729.014 27.062c-2.639 10.313-6.286 24.15-8.104 30.75-13.693 49.719-17.25 62.35-22.53 80-3.29 11-6.072 21.524-6.181 23.387l-.199 3.386 14.474 4.864c7.96 2.675 14.726 4.863 15.035 4.863.676 0 15.328-47.917 33.483-109.5 2.594-8.8 6.723-22.685 9.174-30.855s4.317-14.977 4.145-15.125c-.756-.654-31.75-10.52-33.05-10.52-1.042 0-2.793 5.257-6.247 18.75m-720.232-4.379c4.811 2.05 10.517 8.328 14.205 15.629 6.295 12.463 12.311 32.003 16.625 54 1.455 7.418 2.279 15.404 2.321 22.5l.067 11-2.716 4.62c-1.784 3.034-4.015 5.225-6.5 6.383-2.081.969-4.104 1.943-4.496 2.165-.391.222-1.454-2.201-2.362-5.383s-7.271-24.46-14.14-47.285-13.859-46.383-15.534-52.35c-2.539-9.044-2.813-10.998-1.649-11.735 2.136-1.352 10.572-1.081 14.179.456m775.738 17.952c-9.208 29.272-34.624 107.111-40.175 123.04-3.257 9.346-5.728 17.499-5.491 18.118.471 1.226 31.05 13.43 47.717 19.043l10.4 3.502 1.7-2.253c.935-1.239 3.542-5.71 5.793-9.936 3.642-6.835 3.898-7.741 2.315-8.205-.978-.286-8.079-2.169-15.779-4.184-7.7-2.014-14.273-3.826-14.606-4.025s2.947-10.389 7.29-22.643a8791 8791 0 0 0 12.771-36.28c2.681-7.7 7.647-21.875 11.036-31.5 10.295-29.235 15.267-44.078 14.879-44.413-.503-.433-25.463-10.523-30.038-12.142l-3.667-1.298zM549 197.866c-10.175 4.248-23.225 9.883-29 12.523-15.461 7.066-43.999 21.975-43.999 22.987C476 234.451 485.972 253 486.551 253c.227 0 3.234-1.712 6.681-3.804 9.49-5.761 19.877-11.42 20.257-11.037.186.187 3.464 6.416 7.286 13.841 8.975 17.439 30.196 62.402 42.819 90.726 5.448 12.224 10.28 22.236 10.736 22.25.794.023 31.643-14.615 32.404-15.376.201-.202-3.062-7.957-7.253-17.234-4.191-9.276-13.493-30.591-20.67-47.366s-16.324-38.15-20.327-47.5-6.972-17.329-6.599-17.731 6.289-2.834 13.146-5.403c6.858-2.57 12.587-4.759 12.732-4.865.236-.174-3.105-9.632-5.919-16.751-.598-1.512-1.82-2.718-2.715-2.679-.896.038-9.954 3.546-20.129 7.795m981.457 33.462c-3.678 9.445-7.742 19.647-9.031 22.672s-8.844 21.25-16.789 40.5-17.016 40.85-20.16 48c-3.143 7.15-6.531 14.88-7.529 17.177l-1.814 4.177 8.683 4.22c22.902 11.129 33.688 16.147 40.65 18.913 4.172 1.657 7.954 3.013 8.405 3.013.841 0 13.135-17.658 13.119-18.842-.006-.362-3.428-1.696-7.605-2.965s-11.301-3.647-15.83-5.286l-8.235-2.98 12.917-29.214c7.105-16.067 19.858-44.89 28.34-64.05 8.482-19.161 15.422-35.2 15.422-35.643s-.562-1.037-1.25-1.318-8.305-3.895-16.928-8.029l-15.678-7.516zM438.469 253.822 417 266.072c-1.375.786-2.618 1.471-2.763 1.524s.85 2.614 2.211 5.691c3.247 7.341 16.562 43.117 25.607 68.801 9.188 26.087 18.928 55.897 23.571 72.139 2.001 7.001 3.916 12.58 4.256 12.399 3.927-2.089 21.251-13.032 21.648-13.674.29-.469-1.961-8.304-5.002-17.412s-5.528-16.892-5.527-17.299 5.424-4.057 12.053-8.11c10.374-6.343 12.218-7.159 13.249-5.863.658.828 5.63 7.212 11.048 14.187 7.428 9.563 10.256 12.527 11.5 12.053.907-.345 8.287-4.527 16.399-9.292 8.112-4.766 14.75-9.13 14.75-9.7s-3.038-4.856-6.751-9.525-11.676-14.791-17.695-22.491c-20.317-25.988-24.998-31.9-46.697-58.985-24.175-30.174-30.112-37.374-30.888-37.458-.292-.031-9.067 4.813-19.5 10.765M1634 267.949c0 8.026-12.664 88.854-16.54 105.566-1.243 5.36-3.938 10.649-13.18 25.862-6.389 10.517-12.668 20.971-13.954 23.229l-2.337 4.107 14.194 9.597c12.674 8.568 14.317 9.414 15.339 7.893.63-.937 6.683-10.703 13.452-21.703 6.768-11 13.426-21.682 14.794-23.738 5.544-8.331 49.776-46.503 75.453-65.115 3.147-2.281 5.585-4.597 5.418-5.147-.39-1.283-18.812-15.425-20.139-15.46-1.21-.032-29.023 25.239-43.25 39.296-5.638 5.571-10.25 9.661-10.25 9.089s2.272-10.913 5.048-22.982c5.55-24.122 10.952-48.997 10.952-50.43 0-1.164-5.143-4.681-21.75-14.871l-13.25-8.131zM466.34 308.5c23.061 30.656 27.099 36.468 26.045 37.479-1.465 1.404-17.651 11.021-18.55 11.021-.459 0-.835-.506-.835-1.125 0-1.92-19.074-53.199-24.53-65.944-1.908-4.46-3.46-8.406-3.448-8.77.03-.896 1.409.872 21.318 27.339M377 293.112c-2.475 2.215-9.306 7.987-15.179 12.828-5.929 4.886-10.309 9.192-9.846 9.681.933.984 34.879 60.878 35.274 62.236.138.476-3.574 3.689-8.249 7.14s-8.998 6.664-9.607 7.142c-.749.587-6.548-8.599-17.919-28.385l-18.393-32.006c-.869-1.513-2.102-2.555-2.739-2.316-2.741 1.029-33.275 21.15-33.307 21.948-.086 2.153 27.177 47.564 54.104 90.12 20.936 33.089 33.141 51.48 34.169 51.491 1.052.012 25.42-23.215 25.574-24.376.091-.686-16.591-30.482-30.712-54.853l-1.586-2.737 1.958-1.497c1.077-.824 5.29-3.83 9.363-6.68l7.406-5.182 1.594 1.98c.877 1.089 8.059 13.314 15.959 27.167S429.646 452 430.159 452s4.173-2.175 8.136-4.833 10.476-6.765 14.473-9.125 7.526-4.709 7.841-5.219-2.451-6.417-6.147-13.125-15.708-28.623-26.691-48.698c-25.747-47.061-37.209-67.985-41.494-75.75-1.897-3.437-3.748-6.231-4.113-6.207-.365.023-2.689 1.854-5.164 4.069m529.623 31.058c1.744 9.59 4.677 22.067 6.542 27.83 3.351 10.353 8.679 20.307 16.08 30.042l6.874 9.041-2.31 1.956c-1.27 1.076-6.809 5.062-12.309 8.858s-12.347 9.273-15.215 12.171c-6.031 6.094-11.431 15.781-13.7 24.576-2.036 7.893-2.079 24.975-.083 32.896.826 3.278 3.371 9.698 5.655 14.267 3.369 6.74 5.665 9.713 12.164 15.75 4.407 4.094 8.324 7.443 8.706 7.443s.48 7.313.219 16.25c-.356 12.189-.05 19.124 1.227 27.75.936 6.325 3.208 17.342 5.05 24.481s3.09 13.215 2.775 13.5-.773-.043-1.018-.731c-.709-1.984-1.839-1.454-2.02.948-.091 1.209.781 3.882 1.939 5.942l2.104 3.743-2.647 18.809c-1.456 10.344-2.932 21.357-3.279 24.472-.788 7.061 1.02 19.797 4.304 30.312 2.571 8.233 9.253 22.368 16.511 34.928 5.57 9.639 19.709 30.24 27.861 40.596 3.68 4.675 10.171 13.9 14.424 20.5 8.356 12.968 14.854 20.395 20.773 23.746 2.063 1.167 3.75 2.679 3.75 3.36s-1.9 2.864-4.221 4.851c-3.001 2.569-6.687 4.34-12.75 6.125-18.633 5.485-22.187 6.78-27.923 10.174-3.279 1.939-9.7 6.812-14.268 10.828s-11.773 9.397-16.009 11.958c-10.792 6.524-29.478 14.439-34.111 14.45-4.791.01-13.828-3.023-23.599-7.921-4.191-2.1-10.994-5.067-15.119-6.593-6.048-2.237-9.243-2.787-16.5-2.841-7.376-.054-9.993.364-14.5 2.317-11.252 4.877-25.789 16.928-36.66 30.393-19.314 23.922-25.106 43.492-33.894 114.513-1.949 15.752-4.449 33.14-5.555 38.64s-3.608 14.05-5.559 19-7.071 15.525-11.376 23.5c-4.306 7.975-8.804 17.425-9.997 21-2.533 7.592-2.274 13.478.975 22.12 1.162 3.091 5.702 10.449 10.089 16.35l7.977 10.729v4.821c0 5.099-3.387 15.721-10.198 31.98-6.775 16.172-6.165 25.264 2.28 33.965 3.467 3.572 4.226 3.941 6.079 2.949 4.454-2.384 7.752-2.698 14.608-1.392 7.954 1.516 17.671 5.954 24.821 11.336 2.701 2.033 6.326 5.803 8.057 8.378 3.47 5.162 7.664 15.529 9.412 23.264 3.354 14.838 2.963 25.5-.935 25.5-.989 0-8.059-1.173-15.711-2.606-9.392-1.758-17.325-2.605-24.413-2.605-10.965 0-10.144-.19-32.602 7.574-3.907 1.35-10.465 2.965-14.575 3.588-5.461.828-8.26.836-10.398.032-3.585-1.349-23.893-21.921-22.748-23.043 1.219-1.194 23.934-4.674 38.823-5.949 14.756-1.264 27.888-.638 44.349 2.113 6.243 1.043 11.643 1.894 12 1.891.358-.003-.699-1.138-2.349-2.524-5.341-4.484-18.311-10.476-26.213-12.11-7.844-1.622-10.299-1.613-57.787.228l-16 .62-6.5-2.159c-3.575-1.188-11.9-5.233-18.5-8.991s-14.7-8.178-18-9.823c-9.588-4.781-23.261-9.045-33.25-10.37-7.172-.951-11.227-.963-18.05-.054-4.84.644-11.928 2.237-15.75 3.539-9.819 3.345-22.115 9.722-35.25 18.284-6.215 4.051-11.39 7.365-11.5 7.365s-.236-2.813-.279-6.25c-.044-3.438-.643-7.944-1.333-10.014-.689-2.071-2.996-5.97-5.127-8.666-2.736-3.462-5.822-5.861-10.5-8.164-5.693-2.802-7.703-3.267-14.293-3.301-6.18-.032-8.735.457-13.168 2.518-3.025 1.406-6.887 3.731-8.583 5.166-1.696 1.434-4.621 5.444-6.5 8.91l-3.417 6.301.054 8c.045 6.607.51 8.882 2.673 13.063 4.286 8.29 13.474 15.352 22.07 16.965 2.036.382 3.703.871 3.703 1.086 0 .855-8.728 8.248-17.372 14.715-5.02 3.756-15.878 11.496-24.128 17.2-25.559 17.67-32.435 24.253-36.866 35.295-1.497 3.731-1.824 6.799-1.618 15.176.141 5.775.306 12.608.365 15.184.076 3.321-.503 5.504-1.991 7.5-1.155 1.549-3.542 3.661-5.306 4.694s-8.242 3.651-14.395 5.819c-15.522 5.466-23.106 9.275-28.157 14.138-4.941 4.759-7.148 10.568-6.112 16.09.373 1.99 2.068 5.2 3.766 7.134 4.062 4.627 16.146 10.323 31.814 14.998 19.588 5.844 23.135 8.124 30.236 19.443 1.899 3.025 5.342 9.155 7.653 13.623s5.797 9.986 7.746 12.264c4.759 5.559 10.773 9.555 18.091 12.021 3.411 1.149 15.176 3.147 26.917 4.571 64.621 7.838 172.725 25.209 251.357 40.39 21.272 4.107 32.814 6.611 33.463 7.261.208.207-3.35 7.879-7.906 17.048-8.001 16.103-16.585 39.187-19.94 53.626l-1.465 6.303 2.674 1.023c10.106 3.866 28.653 9.862 46.117 14.909 11.243 3.25 20.522 5.808 20.618 5.685s2.094-6.709 4.439-14.635c5.308-17.943 11.823-36.42 16.075-45.589 3.284-7.082 11.006-20.804 11.414-20.283.122.156-.362 9.958-1.076 21.783-2.072 34.304-2.774 56.277-1.935 60.542.433 2.202 1.009 3.292 1.297 2.458.286-.825 1.724-4.2 3.196-7.5s4.205-9.528 6.073-13.84c2.929-6.761 3.496-7.517 4.12-5.5.398 1.287 1.667 9.746 2.821 18.798 1.153 9.052 2.274 16.634 2.49 16.851.465.464 1.955-5.117 3.419-12.809.576-3.025 2.203-14.05 3.616-24.5 3.871-28.638 8.548-57.903 9.392-58.776.413-.427 15.116 1.059 32.674 3.303 52.238 6.675 64.363 7.945 75.924 7.952 7.476.005 13.563-.613 19-1.928 4.4-1.065 18.125-6.05 30.5-11.079 35.076-14.255 48.07-18.984 48.484-17.647 1.689 5.452 2.724 10.04 5.004 22.175 1.447 7.7 4.411 21.302 6.588 30.228 5.584 22.895 11.14 37.298 17.269 44.768l2.459 2.996.699-4.666c.385-2.566.388-6.614.007-8.996-.381-2.381-3.305-13.555-6.498-24.83-7.261-25.638-9.619-36.503-11.108-51.191-1.132-11.165-.803-16.809.98-16.809 3.17 0 7.111 6.325 19.482 31.267 9.688 19.533 16.586 31.898 24.398 43.733 5.99 9.075 14.515 21.134 18.945 26.798 9.3 11.892 22.535 26.66 25.82 28.813 1.366.895 3.252 1.231 4.772.85l2.512-.631-2.461-9.165c-3.73-13.889-5.025-17.7-12.458-36.665-4.149-10.585-10.62-24.389-16.377-34.936-5.234-9.589-9.517-17.577-9.517-17.75 0-.826 12.068-.151 23.158 1.296 7.627.995 16.432 1.444 23.05 1.177l10.707-.433 2.887 4.073c1.588 2.24 6.419 10.148 10.734 17.573 8.471 14.573 24.439 46.949 29.029 58.858 1.56 4.047 3.352 7.557 3.983 7.799s10.103-1.371 21.049-3.585c23.422-4.737 66.101-14.436 66.859-15.195.895-.895-6.135-17.498-15.402-36.377-4.861-9.9-13.386-25.545-18.946-34.766-5.559-9.221-10.108-17.137-10.108-17.591s4.838-2.308 10.75-4.119c5.912-1.812 11.201-3.463 11.753-3.671 1.325-.499 26.103 21.872 36.161 32.647 11.958 12.811 17.27 18.704 24.791 27.5 3.762 4.4 8.614 9.946 10.782 12.324l3.941 4.325 1.794-1.624c1.506-1.362 1.645-2.297.868-5.824-1.22-5.542-4.203-13.51-7.475-19.967-3.831-7.561-11.635-19.987-18.556-29.546-3.31-4.572-5.777-8.554-5.482-8.848.985-.985 20.033 8.243 32.173 15.585 13.879 8.395 27.85 18.263 38.401 27.126l7.402 6.217 5.401-2.649 5.4-2.648-6.285-7.736c-16.023-19.72-38.609-37.991-70.096-56.703-5.378-3.196-10.054-6.258-10.392-6.805-.849-1.374 14.297-15.509 20.859-19.466l5.37-3.239 10.97 2.905c19.192 5.083 27.094 6.323 37.427 5.875 11.502-.499 16.712-2.541 24.093-9.445 2.813-2.632 6.856-7.726 8.985-11.321s5.949-11.936 8.49-18.536c4.425-11.495 6.903-15.567 10.728-17.629.964-.52 9.514-2.733 19-4.919s21.747-5.36 27.247-7.053c23.278-7.167 48.728-19.679 67-32.938 10.088-7.321 18.932-16.307 21.038-21.376 2.131-5.13 2.103-20.248-.062-32.726-1.993-11.486-7.506-33.193-11.073-43.602-9.416-27.477-11.686-32.955-30.11-72.689-7.379-15.913-13.64-30.088-13.915-31.5-.274-1.413.204-4.537 1.062-6.944s1.56-6.79 1.56-9.741c0-5.669.001-5.666-15.382-34.519l-5.67-10.635 4.892-10.365c8.791-18.627 9.531-21.161 9.599-32.864l.061-10.5-3.195-6.744c-3.734-7.883-5.715-10.633-17.829-24.744-22.967-26.753-33.224-41.34-43.257-61.512-7.846-15.775-10.866-22.798-18.061-42-18.215-48.613-28.554-66.299-47.635-81.482-10.9-8.673-22.613-13.018-35.094-13.018-7.581 0-18.5 2.515-28.343 6.528-6.2 2.528-10.021 3.47-14.051 3.463-7.019-.011-34.001-5.44-39.813-8.011-2.421-1.071-9.222-5.506-15.115-9.856-14.1-10.41-23.163-16.119-31.107-19.595-12.561-5.497-14.707-7.483-28.123-26.029-3.581-4.95-8.335-11.7-10.564-15-5.636-8.345-12.514-15.777-20.484-22.136-3.732-2.978-7.197-6.191-7.701-7.139s-1.241-6.562-1.641-12.475c-.52-7.697-.408-10.75.394-10.75.615 0 1.119.521 1.119 1.158 0 2.37 8.701 12.348 14.5 16.628 13.359 9.858 23.423 13.177 42.267 13.94 10.567.427 14.74.182 20.5-1.203 7.62-1.831 18.091-6.609 25.192-11.495 2.332-1.604 7.468-6.373 11.413-10.598 5.373-5.754 8.43-10.224 12.176-17.806 2.788-5.643 5.648-13.223 6.46-17.124.824-3.958 1.442-12.215 1.423-19-.027-9.333-.548-13.889-2.343-20.5-1.27-4.675-3.774-12.539-5.565-17.476-2.834-7.808-3.198-9.895-2.803-16.054.506-7.878 2.226-12.076 11.252-27.47 3.064-5.225 6.499-11.975 7.632-15 4.7-12.545 5.397-16.906 5.359-33.5l-.038-16-2.727-7.814c-1.5-4.298-5.645-13.062-9.212-19.477-4.507-8.104-6.491-12.737-6.503-15.186-.03-6.038-2.744-16.737-5.951-23.455-1.69-3.543-4.816-8.645-6.945-11.339-2.129-2.693-6.52-6.885-9.757-9.313s-11.003-7.116-17.259-10.416c-6.255-3.3-13.295-7.862-15.644-10.137s-5.195-5.949-6.325-8.164c-2.459-4.819-3.627-9.757-5.078-21.477-1.297-10.472-4.994-21.282-9.725-28.438-7.682-11.619-22.323-23.193-37.143-29.363-7.885-3.282-24.741-7.921-28.784-7.921-1.305 0-2.372-.297-2.372-.661 0-.853 10.056-14.35 15.581-20.912l4.271-5.073-8.176 1.887c-11.082 2.558-34.819 2.739-51.176.391-6.6-.947-17.625-1.975-24.5-2.283-10.288-.462-14.246-.199-22.365 1.488-5.426 1.128-13.076 3.586-17 5.463-8.22 3.931-18.549 11.446-22.447 16.332L1056.5 349h-5.64c-6.12 0-21.197 2.575-24.064 4.109-1.392.745-2.919.044-7.037-3.234-6.538-5.203-15.678-9.436-25.627-11.868-9.518-2.327-14.244-2.847-36.132-3.977-9.625-.497-21.1-1.644-25.5-2.548-6.416-1.319-15.015-4.747-25.741-10.262-.408-.209-.469 1.118-.136 2.95m265.645 21.88c-22.716 24.384-30.47 30.807-43.043 35.648-5.35 2.06-8.974 2.675-17.725 3.005-8.428.317-12.637-.009-18-1.394-3.85-.995-6.916-2.234-6.813-2.753s3.154-1.905 6.78-3.08 7.09-2.633 7.696-3.239c3.159-3.159-3.092-5.987-15.298-6.922-7.415-.568-19.333.903-23.115 2.853-.963.496-1.75.716-1.75.489s.647-1.96 1.437-3.852c2.001-4.788 9.87-15.039 13.912-18.122 5.404-4.122 14.747-8.49 22.221-10.389 6.028-1.532 11.159-1.729 39.43-1.518 23.813.178 34.104-.106 38.5-1.064 3.3-.718 6.098-1.262 6.217-1.209.119.054-4.583 5.25-10.449 11.547m-242.345-4.389c7.269 2.453 18.128 4.056 42.946 6.339 6.803.627 15.128 1.991 18.5 3.033 6.228 1.925 15.009 6.886 17.417 9.841 2.215 2.716 7.214 10.473 7.214 11.193 0 .838-5.582-.233-18.378-3.525-5.433-1.398-10.836-2.542-12.006-2.542-1.387 0-2.576-1.012-3.414-2.906-.735-1.66-2.877-3.674-4.994-4.695-7.483-3.611-26.208-1.034-26.208 3.606 0 2.629 6.337 7.739 11.232 9.057 2.789.751 8.056.916 15.263.478 9.573-.582 11.851-.399 17.505 1.407 3.575 1.142 7.285 2.682 8.245 3.421 1.498 1.155-.056 1.429-11 1.942-8.545.4-16.967 1.55-25.558 3.489l-12.813 2.892-4.187-2.967c-10.743-7.613-20.512-19.736-26.702-33.135-2.192-4.744-3.985-9.115-3.985-9.714 0-.631.735-.801 1.75-.404.962.377 5.09 1.812 9.173 3.19m179.881 4.923c-2.928.901-6.693 3.291-10 6.346l-5.304 4.9 3 1.238c1.65.68 7.5 1.281 13 1.335 7.871.076 10.701-.286 13.293-1.701 3.872-2.114 5.691-5.928 4.177-8.757-1.422-2.659-6.221-4.959-10.17-4.875-1.815.038-5.413.719-7.996 1.514m615.096 4.769c-3.629 1.287-9.254 4.095-12.5 6.241-18.342 12.124-40.26 43.598-49.997 71.796-3.117 9.026-5.403 21.301-5.403 29.01 0 12.526 5.007 24.512 13.993 33.498 5.897 5.897 11.734 9.385 19.46 11.631 4.443 1.292 8.197 1.601 14.987 1.233 6.809-.369 10.924-1.22 16.56-3.424 4.125-1.614 11.1-5.338 15.5-8.276 14.176-9.466 32.5-29.96 41.198-46.078 10.134-18.776 14.582-41.872 11.205-58.185-.603-2.914-2.596-8.459-4.428-12.322-4.497-9.479-13.539-18.177-24.155-23.235l-7.82-3.725-11-.252c-9.4-.216-11.96.087-17.6 2.088M274.5 369.551c-5.5 3.538-10.412 6.574-10.915 6.746-.504.172 10.406 22.754 24.243 50.181 13.838 27.427 25.05 49.974 24.916 50.104s-6.769-5.862-14.744-13.315c-7.975-7.454-21.429-19.337-29.897-26.409-14.315-11.953-30.889-24.891-35.633-27.813l-2.03-1.251-8.47 8.715c-5.864 6.035-8.42 9.391-8.308 10.91.183 2.491 19.487 43.511 35.54 75.521 5.913 11.792 10.633 21.558 10.489 21.703-.145.144-1.605-.954-3.245-2.44-23.157-20.993-60.334-52.592-71.375-60.666l-5.418-3.962-9.436 9.962c-10.324 10.901-24.22 27.112-24.213 28.247.003.394 3.319 2.417 7.37 4.497 8.246 4.233 27.723 16.77 39.42 25.373 12.718 9.355 34.247 26.836 60.645 49.244l24.939 21.168 1.659-1.783c.913-.981 7.111-7.914 13.774-15.407l12.114-13.623-6.064-11.377c-13.414-25.166-37.018-71.05-36.7-71.341.336-.308 11.852 9.838 44.118 38.869 9.228 8.303 18.269 15.967 20.09 17.032l3.312 1.935 13.164-11.883c9.963-8.994 13.026-12.32 12.595-13.678-.313-.987-5.315-11.585-11.115-23.552-12.895-26.608-45.932-98.082-53.379-115.485-2.995-6.999-5.896-12.71-6.446-12.69-.55.019-5.5 2.93-11 6.468m774.027-2.803c-.379 1.511-.765 2.81-.858 2.886-.485.398-16.182 2.186-16.49 1.879-.199-.199-.053-1.336.325-2.526.928-2.923 5.866-4.9 12.354-4.948l5.359-.039zm145.732 10.19c4.169 1.067 9.519 2.928 11.89 4.138 4.943 2.522 15.487 12.307 18.158 16.85.993 1.691 1.601 3.074 1.35 3.074s-2.711-1.517-5.467-3.372c-4.623-3.111-11.706-5.445-12.9-4.251-.278.278 1.568 3.832 4.102 7.898 5.06 8.118 6.022 11.38 2.358 7.995-2.348-2.169-9.02-5.27-11.338-5.27-.813 0 .617 3.059 3.622 7.75 2.731 4.262 4.966 8.066 4.966 8.451 0 .929-13.456-8-23.544-15.623-10.251-7.746-21.412-16.955-21.021-17.346.165-.166 2.273.153 4.683.709 5.931 1.367 18.59 1.341 19.444-.041.921-1.491-2.351-5.712-7.483-9.65l-4.234-3.25h3.917c2.155 0 7.329.872 11.497 1.938m566.489-.402c1.206.845 2.708 3.254 3.337 5.352.933 3.116.83 4.893-.563 9.684-.938 3.227-2.628 7.681-3.756 9.898-6.136 12.06-24.6 38.358-38.287 54.532-9.014 10.652-19.046 20.09-23.707 22.302-1.966.933-5.161 1.696-7.101 1.696-2.618 0-4.059-.678-5.598-2.635-4.53-5.758-1.623-16.757 9.214-34.865 17.928-29.957 42.693-60.843 52.713-65.743 4.372-2.138 10.862-2.242 13.748-.221m-698.121 14.714c-.78 1.238-1.722 3.265-2.092 4.505-.473 1.586-.199 2.437.923 2.867.878.337 5.174-.421 9.548-1.685 6.908-1.996 8.279-2.122 10.45-.96 1.374.735 7.11 6.287 12.746 12.336s11.988 12.261 14.115 13.801l3.867 2.802-2.618.657c-1.439.361-5.457.476-8.927.255-5.112-.326-8.458-1.439-17.622-5.865-8.932-4.313-12.334-5.463-16.166-5.463h-4.854l-.58-3.5c-.32-1.925-.667-3.87-.773-4.322-.277-1.185-5.443 3.084-6.836 5.65-.649 1.194-1.682 4.378-2.297 7.073l-1.118 4.901-3.855-8.651c-2.12-4.758-4.038-8.651-4.262-8.651s-1.224.437-2.221.971c-2.772 1.483-5.2 8.741-5.308 15.865l-.097 6.405-1.434-1.87c-4.904-6.397-6.576-16.187-3.869-22.653 1.941-4.636 8.518-10.15 14.998-12.574 3.084-1.154 8.431-2.503 11.881-2.998 3.451-.494 6.622-.955 7.047-1.023s.135.889-.646 2.127m87.873 3.13c6.494 3.066 22.496 13.611 29.5 19.441 10.01 8.332 28.09 26.528 36.445 36.679 4.527 5.5 10.924 14.05 14.216 19 13.055 19.631 19.738 34.952 23.99 55l2.757 13 .046 22.5c.051 24.956-.862 31.538-6.8 49.029-3.042 8.961-10.324 23.634-11.264 22.695-.235-.235 1.111-4.432 2.991-9.326 4.632-12.057 7.002-24.22 6.312-32.398-.302-3.575-.858-7.299-1.237-8.276-.573-1.473-.952-1.558-2.235-.5-.85.702-2.445 3.301-3.544 5.776l-1.997 4.5-1.249-6.111c-1.309-6.407-3.38-11.095-9.113-20.63-1.898-3.157-5.383-11.482-7.744-18.5-13.673-40.643-30.829-71.25-55.839-99.62-9.432-10.7-19.495-20.162-34.21-32.167-7.098-5.791-10.398-9.065-9.342-9.269 2.663-.513 16.648 4.604 25.283 9.251 8.355 4.495 15.273 7.14 16.215 6.198 1.014-1.014-3.753-7.531-8.878-12.14-5.43-4.881-18-11.512-21.825-11.512-1.271 0-1.988-.323-1.593-.719.858-.857 10.477-4.036 12.615-4.169.825-.051 3.75.97 6.5 2.268m-182.532 5.37c-.017.413-.692 1.624-1.5 2.691-2.007 2.653-1.842 5.877.446 8.698 1.59 1.962 2.762 2.336 6.939 2.212 3.009-.089 7.299-1.189 10.69-2.742 4.805-2.2 5.551-2.329 4.914-.851-1.658 3.848-3.577 14.994-3.27 18.992.18 2.337.188 4.25.017 4.25s-1.948-1.113-3.95-2.474c-2.002-1.36-3.786-2.327-3.964-2.149-.179.178-.654 2.892-1.057 6.029l-.733 5.706-3.563-4.806c-1.959-2.643-4.629-6.719-5.934-9.056-1.342-2.406-3.11-4.25-4.073-4.25-2.474 0-5.107 6.331-5.698 13.7l-.51 6.355-2.212-3.278c-3.46-5.125-4.815-10.471-4.247-16.745.284-3.122 1.427-7.444 2.541-9.604 1.115-2.161 3.752-5.557 5.861-7.548 5.069-4.785 9.39-7.168 9.303-5.13M1813 423.713c-5.775 8.081-21.907 30.239-35.848 49.24s-27.086 37.472-29.211 41.047c-9.507 15.999-8.904 31.626 1.849 47.894 5.437 8.227 16.603 19.125 25.587 24.975 12.231 7.964 20.792 9.755 31.474 6.583 3.956-1.175 6.911-3.15 12.249-8.186 3.87-3.65 17.018-18.09 29.218-32.089s29.322-33.603 38.048-43.565 16.083-18.664 16.348-19.339c.473-1.204-13.866-19.356-19.169-24.267-2.26-2.092-2.828-2.253-3.531-1-.461.822-3.725 5.094-7.254 9.494s-18.962 23.75-34.296 43-30.373 37.634-33.422 40.853-6.757 6.482-8.242 7.25-4.748 1.397-7.25 1.397c-3.949 0-5.061-.511-8.419-3.869-2.766-2.766-4.224-5.351-5.116-9.07-.702-2.923-.96-7.005-.59-9.32.363-2.265 2.002-6.621 3.644-9.68 3.496-6.514 22.271-30.785 68.723-88.843l7.427-9.283-6.36-5.794c-19.068-17.376-24.407-22.127-24.859-22.124-.275.001-5.225 6.615-11 14.696m-890.989-4.734c-1.116 2.188-2.744 7.025-3.617 10.75-2.118 9.038-1.24 17.667 2.557 25.126 2.769 5.439 8.381 11.693 12.549 13.985 1.664.914 1.111 1.104-3.29 1.13-6.486.037-11.526-2.364-16.485-7.853-5.304-5.87-7.919-11.67-8.495-18.835-.366-4.569-.025-7.531 1.256-10.885.968-2.534 3.167-6.212 4.887-8.174 3.267-3.726 10.298-9.223 11.797-9.223.479 0-.043 1.79-1.159 3.979m257.56 18.592c-3.06 3.061-1.387 8.9 4.239 14.798 5.902 6.188 15.46 9.697 16.813 6.172.791-2.063-1.355-8.251-4.716-13.595-2.919-4.641-9.041-8.946-12.722-8.946-1.123 0-2.749.707-3.614 1.571m-46.866 12.86c.449 4.345.084 6.351-1.972 10.841l-2.523 5.51 1.573 1.572 1.572 1.573-1.694.65c-.932.357-2.812.436-4.178.175-1.519-.29-2.483-.013-2.483.715 0 2.413 6.474 10.861 11.163 14.568 2.658 2.101 7.411 4.784 10.562 5.963 4.391 1.643 7.429 2.069 13.005 1.823 4.001-.177 7.274.017 7.272.43-.005 1.673-8.356 8.711-11.611 9.785-1.918.633-5.675.996-8.349.807l-4.862-.343 1.652 2.795c2.306 3.901 6.057 7.314 10.705 9.741l3.963 2.069-6.083-.52c-3.345-.285-6.902-.834-7.905-1.219l-1.822-.699 1.905 3.369c3.105 5.49 9.764 11.577 14.491 13.247l4.414 1.559-7.329.079-7.33.079.655 3.25c1.226 6.088 5.483 13.416 12.105 20.839 3.636 4.076 7.576 9.436 8.755 11.911 1.868 3.92 2.142 6.24 2.125 18-.014 9.654-.417 14.212-1.414 16l-1.394 2.5 1.913-1.448c1.053-.796 3.377-2.797 5.164-4.446s3.25-2.663 3.25-2.253c0 1.196-3.041 6.796-6.193 11.403l-2.911 4.256 5.196-2.048c7.12-2.807 15.305-8.402 18.727-12.801 1.567-2.015 4.695-7.038 6.952-11.163 4.339-7.933 9.122-13.299 13.185-14.793 3.488-1.283 8.794.179 12.083 3.33 1.549 1.484 3.816 5.008 5.039 7.831 1.596 3.682 2.358 7.832 2.697 14.688.266 5.354-.027 11.891-.665 14.865-2.623 12.234-9.713 25.666-19.288 36.544-5.402 6.137-14.854 13.163-18.903 14.053-4.43.973-9.416-.224-12.804-3.074l-2.943-2.477-1.574 4.766c-.865 2.622-2.036 7.242-2.602 10.267-.567 3.025-1.308 6.383-1.647 7.461-.457 1.451.218 1.126 2.593-1.249 2.573-2.573 3.743-3.086 5.885-2.583 1.47.346 2.937.909 3.259 1.25.323.342.184 9.621-.309 20.621s-.632 26.75-.308 35c.612 15.585 2.595 36.543 4.915 51.943.864 5.734 1.033 10.084.471 12.121-1.296 4.691-10.409 19.225-18.04 28.769-10.59 13.245-33.617 37.465-48.359 50.864-7.445 6.767-17.503 15.013-22.351 18.325-5.384 3.679-11.075 8.686-14.62 12.865l-5.805 6.843 4.41-.734c7.432-1.238 14.184-4.25 24.006-10.708 7.215-4.744 14.431-11.201 30.997-27.736 22.169-22.127 33.476-34.804 45.09-50.552 9.237-12.525 14.894-22.707 17.353-31.232l2.097-7.27 5.114 5.751c8.342 9.381 36.403 45.544 37.441 48.251.527 1.375.675 4.525.328 7s-3.31 13.872-6.584 25.327-7.044 26.305-8.379 33a234.4 234.4 0 0 0-4.553 45.914v11.894l-2.25-.684c-4.713-1.431-16.577-6.738-24.636-11.02-4.612-2.451-18.191-11.203-30.174-19.45s-24.635-16.341-28.114-17.987c-4.718-2.232-7.773-2.993-12.02-2.993-4.471-.001-6.252.482-8.287 2.249-2.03 1.761-2.825 3.752-3.659 9.156-.586 3.799-1.904 8.863-2.929 11.255s-3.854 6.283-6.287 8.647c-2.433 2.365-9.31 6.965-15.284 10.223-12.546 6.843-28.082 17.059-37.205 24.464-3.489 2.832-6.49 5.003-6.669 4.824s6.178-8.424 14.127-18.322c14.535-18.101 29.288-34.929 29.998-34.219.211.21-1.416 3.858-3.614 8.106s-3.997 8.83-3.997 10.183v2.46l3.75-1.567c2.063-.861 5.018-2.78 6.567-4.263s4.102-5.397 5.672-8.697c3.044-6.4 7.303-21.5 6.064-21.5-.409 0-3.625 1.863-7.148 4.139-18.408 11.895-32.626 25.971-58.023 57.442-11.195 13.873-32.678 42.896-34.174 46.169-.566 1.237-1.329 2.25-1.696 2.25-1.14 0-6.166-47.982-8.485-81-1.68-23.922-2.021-58.569-.614-62.271.502-1.32 2.354-3.842 4.115-5.604 5.63-5.629 15.143-9.174 19.033-7.092 2.172 1.162 4.302 7.97 5.92 18.925.606 4.102 1.275 7.632 1.487 7.844.642.641 2.528-6.844 3.729-14.802.908-6.017.801-11.454-.543-27.5-.921-11-1.67-20.96-1.665-22.133l.011-2.133 4.25 1.515c2.531.903 7.889 1.539 13.25 1.572 7.412.047 10.076-.386 15.099-2.454 10.336-4.258 20.322-11.716 33.916-25.331 19.434-19.465 34.118-38.523 49.725-64.536 8.243-13.739 15.63-28.005 18.745-36.201 1.108-2.915 2.014-5.52 2.014-5.79.001-.27-2.511 3.261-5.582 7.848-6.408 9.571-17.766 21.829-27.937 30.152-8.458 6.92-27.803 19.915-39.48 26.519-27.938 15.803-52.401 22.968-69.926 20.482-12.26-1.738-18.8-6.236-25.249-17.363-8.937-15.419-13.665-22.682-23.529-36.147-10.561-14.415-23.142-35.492-30.292-50.75-8.208-17.516-9.709-30.699-6.064-53.25 1.067-6.6 2.241-14.733 2.609-18.073l.669-6.073 6.641 1.286c3.653.708 7.738 1.303 9.078 1.323l2.437.037-2.687-2.805c-3.474-3.625-3.493-7.416-.052-10.122 1.449-1.14 3.024-2.073 3.5-2.073s.867 2.138.869 4.75c.002 2.895.743 5.962 1.897 7.854 1.499 2.46 2.773 3.223 6.13 3.673 4.858.652 13.776-.592 20.008-2.791 2.35-.829 4.495-1.286 4.765-1.015.271.271.538 4.775.594 10.009s.239 9.517.407 9.518 1.479-2.561 2.913-5.693c3.447-7.53 4.165-17.732 1.82-25.884-.936-3.257-3.076-8.396-4.755-11.421a2923 2923 0 0 1-8.21-14.957c-4.536-8.321-5.904-9.969-11.378-13.716-3.422-2.341-8.547-4.948-11.39-5.792-7.511-2.231-18.524-1.986-25.336.563-3.084 1.153-5.833 1.872-6.108 1.596-.276-.276-.503-6.957-.504-14.848-.004-27.306 4.532-42.89 14.475-49.731 4.882-3.358 13.815-6.236 19.388-6.246 2.079-.004 6.204.474 9.166 1.062 8.516 1.69 25.878 1.296 36.829-.836 12.438-2.421 29.576-7.966 44.285-14.327l11.5-4.974 13 .173c9.002.119 15.306-.338 20.5-1.488 8.852-1.959 22.485-8.219 25.947-11.915 2.104-2.246 2.57-2.392 3.327-1.039.484.866 1.128 3.973 1.431 6.906m-216.677 34.59 4.472 2.122-3.5-.587c-3.67-.616-11.106-5.375-11.841-7.578-.235-.707 1.108-.114 2.985 1.318s5.425 3.558 7.884 4.725m378.854.582c5.45 6.192 8.348 14.056 8.436 22.897.052 5.168-.486 8.178-2.054 11.5-1.168 2.475-3.046 5.625-4.172 7l-2.048 2.5-.022-4.628c-.014-2.971-.586-5.095-1.599-5.936-1.315-1.092-2.16-.994-5.102.59-1.939 1.044-5.279 3.892-7.423 6.327l-3.898 4.429v-8.092c0-9.611 1.396-16.791 3.906-20.088l1.826-2.398 2.529 1.898c1.391 1.044 3.534 3.36 4.763 5.148s2.608 3.25 3.065 3.25 1.34-1.7 1.963-3.778c.83-2.773.841-5.366.038-9.75-.601-3.285-2.195-8.109-3.543-10.722s-2.061-4.75-1.584-4.75 2.69 2.071 4.919 4.603m-371.632 2.059c-.687.278-1.812.278-2.5 0-.687-.277-.125-.504 1.25-.504s1.938.227 1.25.504m294.307 4.561c-2.214 3.161-1.912 8.479.811 14.277 2.528 5.383 4.851 7.873 8.331 8.933 1.528.465 2.824.044 4.25-1.382 4.225-4.225 1.599-17.115-4.458-21.88-1.518-1.194-3.8-2.171-5.069-2.171s-3.009 1-3.865 2.223M1075 531.937c-14.008 2.576-32.845 10.713-37.437 16.17-6.855 8.147-2.863 14.596 8.304 13.415 6.345-.67 12.876-3.303 23.133-9.325 11.751-6.899 14.807-8.271 20.497-9.197 7.595-1.236 16.489.907 28.753 6.927l10.25 5.031-6.014-5.729c-7.038-6.704-14.813-11.961-22.421-15.159-6.036-2.537-17.543-3.517-25.065-2.133m255.149 6.813c1.328 2.063 2.936 4.95 3.574 6.418 1.909 4.394 3.477 14.954 2.775 18.695l-.657 3.499-1.866-4.168c-1.026-2.293-4.611-7.774-7.965-12.181s-5.736-8.013-5.291-8.013 1.921-1.8 3.281-4 2.756-4 3.103-4 1.718 1.688 3.046 3.75m-91.327 1.92c-1.664 3.761-1.97 6.02-1.571 11.592.339 4.744 1.119 7.757 2.478 9.579 1.091 1.463 2.756 2.811 3.701 2.997s2.585-.447 3.644-1.405c1.581-1.431 1.924-3.103 1.916-9.338-.007-5.942-.541-8.737-2.454-12.845-1.458-3.132-3.09-5.25-4.046-5.25-.946 0-2.449 1.913-3.668 4.67m-279.035 20.532c4.936 2.48 11.015 6.63 14.83 10.126 3.555 3.258 6.299 6.089 6.097 6.291s-2.223-.53-4.492-1.626c-2.555-1.234-6.178-1.993-9.517-1.993-5.908 0-14.509 2.602-21.478 6.497-2.463 1.377-4.582 2.503-4.707 2.503-.269 0-4.091-13.297-4.931-17.151-.47-2.156.083-3.231 2.951-5.75 2.871-2.52 4.403-3.099 8.206-3.099 3.5 0 6.782 1.057 13.041 4.202m354.08 1.902c2.84 3.611 4.386 10.423 3.623 15.971-.378 2.748-1.988 6.861-3.761 9.614l-3.101 4.811-.792-4.428c-.436-2.436-1.251-4.887-1.812-5.448-1.316-1.316-5.722 1.882-8.776 6.369-3.497 5.138-4.521 10.56-4.014 21.257.254 5.362.283 9.75.065 9.75-.219 0-2.041-3.46-4.049-7.69-3.122-6.572-3.712-8.947-4.066-16.348-.548-11.46 1.55-18.931 6.786-24.167 3.134-3.135 4.494-3.795 7.815-3.795 3.609 0 4.131-.321 5.117-3.149.604-1.732 1.098-4.233 1.098-5.557v-2.407l1.963 1.375c1.08.756 2.837 2.485 3.904 3.842m-245.149 1.921c-5.312 1.344-9.479 3.659-10.703 5.947-.574 1.073-2.438 5.905-4.142 10.739-1.703 4.834-3.956 10.477-5.005 12.539-1.05 2.063-1.519 3.75-1.042 3.75s3.973-2.598 7.77-5.773 8.592-6.76 10.654-7.966l3.75-2.194v4.732c0 6.343 2.77 11.37 7.105 12.895 5.822 2.047 19.466-.416 28.963-5.228 6.597-3.343 15.572-11.846 16.968-16.075.64-1.939.97-3.719.733-3.955s-3.038.051-6.226.641c-6.157 1.138-8.835.24-6.085-2.042.848-.704 1.542-1.99 1.542-2.857 0-1.227-.267-1.311-1.2-.378-1.97 1.97-6.833 1.372-15.143-1.86-5.76-2.24-10.009-3.16-16-3.461-4.486-.226-9.859.02-11.939.546m138.958 24.92c-4.612 4.251-9.767 12.92-11.514 19.363-.787 2.902-.691 4.774.403 7.875.789 2.238 1.435 5.051 1.435 6.252s-1.575 4.798-3.5 7.995-3.5 6.424-3.5 7.172c0 2.39 4.522 2.684 8.634.562 4.535-2.34 10.475-8.33 12.756-12.864 3.175-6.312 1.253-14.548-4.059-17.391-1.282-.686-2.331-2.036-2.331-3.001 0-2.621 4.615-7.601 7.566-8.165 1.752-.335 3.176.137 4.413 1.465 2.12 2.276 4.007 9.019 4.053 14.485l.032 3.807 1.424-1.882c2.181-2.88 3.761-12.173 3.004-17.674-.372-2.707-1.663-6.39-2.868-8.183-1.877-2.794-2.861-3.304-6.872-3.564l-4.681-.304zm-221.927 56.15c-1.512 2.989-2.749 6.912-2.749 8.719 0 8.079 6.587 13.123 17.191 13.164 3.13.012 5.928-.362 6.218-.831.761-1.231-1.198-3.301-7.143-7.552-2.879-2.058-6.181-5.071-7.337-6.695-1.156-1.623-2.401-5.042-2.766-7.595l-.665-4.644zm32.793 8.634c-2.971.755-6.542 3.347-6.542 4.747 0 .864 2.743 1.403 8.947 1.757 11.56.659 14.053.182 14.053-2.689 0-1.412-.93-2.647-2.547-3.383-2.526-1.151-10.148-1.388-13.911-.432m21.566 4.329c-1.315 1.096-2.154 2.229-1.865 2.518.289.29 1.816-.607 3.392-1.993 3.37-2.964 1.977-3.443-1.527-.525m231.188 15.181.204 10.546 2.5-1.303c3.256-1.698 7.352-6.15 9.412-10.232.901-1.788 1.916-3.25 2.255-3.25s.381 3.749.095 8.332c-.61 9.785-3.183 16.446-8.435 21.837-1.966 2.018-6.166 4.832-9.333 6.253-6.432 2.887-15.801 4.225-21.637 3.091l-3.857-.749 4.5-1.341c4.405-1.311 15.952-9.699 16.759-12.173.307-.942-1.969-1.25-9.228-1.25-5.349 0-12.838-.731-16.834-1.643-7.712-1.76-7.599-2.067 1.559-4.229 2.616-.618 6.869-2.116 9.45-3.33 5.907-2.777 16.332-12.98 18.868-18.467 1.059-2.293 2.284-3.825 2.722-3.404s.888 5.511 1 11.312m-194.259-4.971c1.355 1.117 5.376 3.363 8.935 4.992l6.473 2.962-4.7 1.784c-10.304 3.911-14.376 4.324-36.215 3.669-18.257-.548-21.755-.404-26.53 1.086-4.242 1.325-8.416 1.656-18.25 1.449-10.629-.223-13.903.083-19.686 1.839-3.815 1.159-7.965 1.959-9.222 1.779-1.693-.243-2.568-1.338-3.375-4.225l-1.09-3.898-2.188 2.782c-1.204 1.531-2.189 3.972-2.189 5.425 0 3.942 2.632 7.088 5.929 7.088 2.046 0 3.923 1.2 6.859 4.386 2.223 2.412 4.673 5.674 5.443 7.25s2.439 6.277 3.709 10.449 3.79 9.626 5.599 12.12c4.695 6.468 10.617 9.091 21.729 9.622 4.837.231 11.594-.12 15.014-.78 3.42-.661 9.566-2.799 13.657-4.753 5.566-2.657 9.345-5.471 15.006-11.173 4.162-4.191 10.567-12.121 14.233-17.621 11.563-17.347 16.928-24.991 17.749-25.287 1.049-.379 3.813 3.902 4.636 7.183.36 1.432 1.011 2.604 1.448 2.604 1.179 0 2.989-5.82 2.989-9.614 0-4.401-4.92-10.04-9.841-11.28-2.013-.506-7.017-1.134-11.122-1.395l-7.463-.474zm541.463 1.728c-19.699.908-51.724 4.16-64.735 6.574-11.504 2.135-23.759 5.955-27.832 8.676-1.888 1.262-4.255 3.86-5.259 5.774-1.584 3.02-1.754 5.133-1.282 15.98.927 21.288 6.377 50.542 12.856 69 1.641 4.675 4.731 11.978 6.868 16.228 2.136 4.25 3.884 7.963 3.884 8.25s-6.995.522-15.545.522h-15.546l-2.454-2.455c-1.676-1.675-2.492-3.659-2.57-6.25-.063-2.087-.401-17.146-.75-33.464s-1.009-30.043-1.467-30.5-14.268-.978-30.69-1.159l-29.858-.327-.512 3.327c-.281 1.831-.764 18.853-1.074 37.828-.653 40.066-1.394 54.001-2.744 51.59-.505-.903-1.287-21.692-1.737-46.198-.459-25.01-1.227-44.966-1.751-45.49-.547-.547-13.298-.823-30.867-.667l-29.935.265-.5 37.208-.5 37.208-1.966 1.436c-1.081.79-6.931 2.174-13 3.075-17.202 2.554-16.534 2.328-16.534 5.581v2.85l5.75 1.589c6.1 1.685 25.375 7.883 31.262 10.052 1.932.711 8.682 1.903 15 2.647l11.488 1.354-6.5.662c-3.575.363-18.784.995-33.798 1.404l-27.297.743-.953 1.78c-.523.979-.952 3.555-.952 5.726v3.946l56.25.595c30.938.327 132.525 1.057 225.75 1.622s185.813 1.315 205.75 1.665l36.25.638-.015-4.891c-.009-2.689-.422-5.532-.918-6.316-.964-1.523 2.237-1.335-77.067-4.543-36.688-1.485-52.436-2.429-51.761-3.103.168-.169 6.78-1.241 14.693-2.384 15.282-2.205 60.379-6.184 91.068-8.035 10.175-.613 19.008-1.281 19.629-1.484.817-.267.849-1.592.116-4.798l-1.014-4.428-18.115-.64c-9.964-.352-31.253-.94-47.309-1.306-16.057-.366-29.705-.981-30.329-1.367-.766-.473.079-2.6 2.596-6.534 7.257-11.344 13.755-27.626 18.339-45.952 2.449-9.789 5.601-29.234 7.137-44.032 1.472-14.189.594-17.851-5.582-23.287-3.225-2.839-6.813-4.686-12.729-6.552-18.869-5.953-53.937-9.416-101.739-10.046-17.325-.229-39.6-.043-49.5.413m90.5 14.958c22.725 2.131 48.932 6.602 47.296 8.067-.959.859-16.845 2.657-35.296 3.994-7.425.538-29.7 1.259-49.5 1.6-35.262.609-78.922-.506-102-2.605-15.55-1.415-28.76-3.161-30.396-4.02-.927-.486.249-1.262 3.5-2.31 9.395-3.026 12.934-3.429 53.396-6.077 11.579-.757 102.051.324 113 1.351m-641.513 9.067c-.347.561-3.636 3.297-7.309 6.08-13.491 10.22-29.538 15.588-43.853 14.669-8.693-.557-11.183-1.996-16.171-9.342l-3.346-4.928 9.846-.762c14.819-1.148 49.169-4.688 54.846-5.653 2.75-.467 5.364-.903 5.809-.967.445-.065.525.341.178.903m495.013 7.441c8.8 1.303 23.2 2.969 32 3.703 21.15 1.765 103.316 1.768 124 .006 17.782-1.515 34.301-3.529 47.837-5.833 8.456-1.439 9.971-1.475 10.791-.256.524.78.814 4.673.644 8.651-.201 4.708-.826 7.748-1.791 8.709-2.105 2.099-11.43 4.215-26.481 6.01-23.399 2.79-39.425 3.638-80 4.232-40.746.597-69.11-.335-98.428-3.234-16.791-1.66-24.714-2.946-31.341-5.084-6.214-2.006-7.731-4.89-7.731-14.7v-7.434l7.25 1.431c3.987.787 14.45 2.496 23.25 3.799m-255.839 31.209c-4.078 8.028-10.028 13.907-18.13 17.911-6.193 3.061-8.643 3.699-15.685 4.084-6.463.353-9.812.008-14.846-1.529l-6.5-1.984 4.5-.084c6.399-.118 19.847-3.526 27.363-6.934 7.192-3.261 16.379-9.342 21.637-14.322 1.925-1.823 3.638-3.012 3.807-2.643s-.797 2.845-2.146 5.501m240.004 6.937c1.73.464 2.512 2.021 3.887 7.737 4.257 17.697 11.433 32.007 21.669 43.207 13.326 14.58 34.996 24.613 60.341 27.935 6.347.832 12.98 1.484 14.739 1.45l3.199-.064-2.3-.923c-7.409-2.972-22.651-16.551-29.69-26.45-5.305-7.461-8.113-12.982-11.165-21.955-2.258-6.639-5.973-25.25-5.196-26.027.2-.201 7.562.034 16.358.521 21.356 1.182 59.922 1.16 81.493-.047 9.625-.539 28.21-2.159 41.301-3.601 13.09-1.443 24.066-2.357 24.391-2.032.861.861-1.593 15.091-3.906 22.641-2.922 9.541-10.135 23.505-16.302 31.56-8.306 10.849-18.519 18.774-32.846 25.488-4.515 2.116-12.468 4.951-17.673 6.301-14.734 3.82-27.049 4.993-45.811 4.364-23.143-.776-38.152-3.708-54.023-10.551-20.404-8.798-34.729-22.324-43.889-41.442-4.294-8.963-7.376-18.922-9.582-30.97l-1.42-7.75 2.13.014c1.172.007 3.104.275 4.295.594M1428 753.641c1.254 1.194 1.553 6.405 1.827 31.817l.326 30.389-2.076 2.076L1426 820h-18.64c-16.579 0-18.786-.193-19.968-1.75-1.037-1.366-1.335-8.586-1.36-32.918-.018-17.143.257-31.92.609-32.84l.642-1.671 19.608.696c14.878.528 19.971 1.041 21.109 2.124m63.203-.843c.985.987 1.371 8 1.604 29.18.194 17.561-.086 29.344-.756 31.833-1.494 5.549-4.675 6.664-19.051 6.678-6.325.006-12.693-.324-14.15-.733-1.692-.475-3.024-1.817-3.685-3.713-.679-1.946-.831-13.679-.442-34.068l.594-31.1 17.294.312c12.495.226 17.654.673 18.592 1.611m-482.501 72.82c1.859.498 1.236 1.072-4 3.689-7.77 3.882-14.866 10.876-16.451 16.215-2.439 8.211-3.36 18.65-3.928 44.478-.444 20.219-.188 31.247 1.078 46.529.913 11.016 3.21 30.79 5.105 43.941 3.195 22.175 3.724 28.161 1.977 22.355-.385-1.279-4.707-12.745-9.604-25.481-9.106-23.683-26.396-62.855-29.724-67.344-2.429-3.276-7.395-3.69-13.758-1.146-6.835 2.732-33.446 14.861-34.15 15.566-.319.319-1.08.58-1.691.58s2.536-3.712 6.995-8.25c12.597-12.82 20.634-24.229 43.508-61.75 3.52-5.775 8.199-12.461 10.398-14.858 6.999-7.631 14.741-11.991 25.043-14.103 4.83-.99 16.154-1.239 19.202-.421m-663.366 22.387c-10.072 1.397-14.632 4.726-15.927 11.626-.512 2.731.949 9.927 3.215 15.832.458 1.192-.163 1.542-2.767 1.559-4.904.031-19.327 3.405-27.104 6.34-3.71 1.4-9.822 4.342-13.581 6.538-16.465 9.616-26.242 22.534-32.619 43.1-.939 3.025-2.609 7.825-3.712 10.668l-2.006 5.167-4.668.551c-2.567.304-16.292.847-30.501 1.208l-25.834.656.57 2.125c.314 1.169.577 4.038.584 6.375L191 964h57.616l-1.513 7.427-1.513 7.427-3.045.564c-2.56.473-34.969 2.502-40.941 2.563l-1.895.019.663 30.25c.365 16.638.942 34.862 1.282 40.5l.619 10.25h23.672c18.276 0 24.093.307 25.516 1.348l1.843 1.348-3.902.608c-2.146.335-12.677 1.529-23.402 2.653a12299 12299 0 0 0-24.622 2.599l-5.121.556-.629 4.584c-.345 2.521-.628 5.783-.628 7.249v2.667l8.75-1.893c5.895-1.275 13.318-1.946 22.75-2.056 11.384-.133 14.56.147 16.998 1.495l2.999 1.658-3.499.58c-1.924.318-7.998 1.297-13.498 2.175-12.61 2.012-26.626 6.586-32.636 10.65l-4.637 3.135-.729 16.524-.729 16.524 2.866 2.306c6.907 5.557 23.6 8.999 38.509 7.94 12.152-.862 21.51-2.931 41.356-9.142 18.539-5.802 31.496-9.508 33.241-9.508.612 0-.433 1.721-2.321 3.825s-5.568 6.931-8.177 10.728l-4.743 6.903-7 1.177c-3.85.647-25.9 3.99-49 7.429s-42.336 6.54-42.746 6.891c-.411.352-1.041 4.782-1.4 9.843l-.653 9.204h2.781c3.172 0 55.897-7.51 109.018-15.528 73.484-11.091 110.965-16.674 147.5-21.971 105.379-15.277 229.938-33.756 242.637-35.996 2.727-.481 3.283-1.131 4.25-4.972.612-2.43 1.113-4.886 1.113-5.457 0-.638-1.637-.832-4.25-.505-13.09 1.642-53.992 6.693-64.535 7.97l-12.286 1.488-7.214-1.899c-3.968-1.044-23.64-6.42-43.715-11.947-75.057-20.663-82.437-22.374-102.292-23.715-8.714-.588-9.65-.833-8.5-2.219 2.596-3.131 8.1-4.358 23.632-5.269 20.412-1.196 36.236-1.202 43.479-.015 3.2.524 9.725 2.739 14.5 4.922 4.774 2.183 11.351 4.452 14.615 5.041 12.87 2.325 35.299.588 45.055-3.488 1.98-.827 4.029-1.238 4.555-.913s.956 1.499.956 2.609c0 2.873 4.975 7.471 9.579 8.852 2.156.648 10.671 1.415 18.921 1.706 11.243.397 17.298.129 24.174-1.069 5.046-.879 10.287-2.106 11.648-2.726 2.521-1.149 3.678-4.322 3.678-10.09 0-1.617.5-3.874 1.11-5.015l1.11-2.074 10.64.654c5.852.36 13.843.93 17.758 1.266l7.117.612.713-4.754c.392-2.614.926-5.31 1.187-5.99.345-.897-2.627-1.563-10.83-2.427-17.627-1.856-22.006-2.828-24.645-5.467-2.008-2.007-2.447-3.667-2.903-10.969-.383-6.141-.175-9.039.726-10.124 1.055-1.272 4.664-1.521 22.032-1.521 16.681 0 20.875-.27 21.298-1.372.289-.755.828-3.386 1.197-5.847l.671-4.475-6.84-.646c-3.763-.355-10.891-.687-15.841-.737-12.097-.123-20.235-1.226-21.969-2.978-.961-.97-1.953-6.706-3.018-17.445-1.808-18.232-3.531-23.186-9.384-26.991-1.996-1.298-5.654-2.931-8.129-3.629s-9.675-1.278-16-1.288c-13.687-.022-21.322 1.884-25.907 6.468-1.674 1.675-3.471 4.709-3.994 6.743-.973 3.791-2.522 25.901-3.709 52.947-.368 8.388-1.005 15.25-1.415 15.25-1.025 0-1.766-7.244-3.017-29.5-1.473-26.179-2.563-35.139-4.729-38.847-2.222-3.806-7.096-7.231-12.63-8.876-2.254-.67-9.724-1.231-16.599-1.248-9.701-.022-13.546.375-17.169 1.773-2.568.991-5.348 2.837-6.177 4.104-.83 1.266-1.768 3.83-2.085 5.698s-1.25 14.196-2.073 27.396-1.766 25.87-2.096 28.157l-.599 4.156-4.151-1.884c-2.282-1.037-5.592-1.895-7.355-1.907l-3.204-.022-.609 3.75c-.335 2.063-1.142 6.45-1.795 9.75l-1.187 6-3.5 1.642c-2.772 1.3-8.126 1.764-25.75 2.23-12.438.329-22.25.204-22.25-.283 0-1.272 2.82-1.8 19.5-3.657 8.25-.918 16.39-2.237 18.089-2.932l3.089-1.263.668-16.204c.367-8.912.961-26.965 1.321-40.118L507.32 962h-3.16c-1.738 0-3.158-.337-3.156-.75.009-1.811 4.83-8.387 11.913-16.25C525.373 931.173 526 930.261 526 925.958c0-2.959-.775-4.771-3.241-7.58-3.735-4.254-9.805-7.324-14.542-7.356-2.78-.019-5.332 1.781-16.671 11.757-8.552 7.524-17.229 14.066-24.021 18.112-5.848 3.484-10.869 6.099-11.156 5.811s-2.053-4.951-3.921-10.363c-1.869-5.411-5.219-13.459-7.445-17.884-7.505-14.92-17.61-24.722-33.503-32.502-9.525-4.662-23.753-8.931-29.817-8.946-2.468-.006-2.728-.286-2.096-2.257 1.547-4.823 2.366-9.425 2.389-13.423.034-5.962-3.318-9.608-10.697-11.634-7.517-2.065-18.212-2.76-25.943-1.688m937.821 15.552c10.793 7.325 18.843 14.027 18.843 15.69 0 .592-3.013 6.066-6.695 12.165-13.982 23.158-29.953 57.654-42.865 92.588a5842 5842 0 0 1-8.948 24c-15.779 42-26.867 79.607-33.907 115-6.921 34.791-10.268 72.48-9.194 103.5.919 26.517 3.246 47.322 8.208 73.388 1.402 7.363 2.293 14.407 1.98 15.652-.612 2.439-8.565 10.062-12.915 12.379-2.167 1.154-3.098 1.187-4.993.173-1.28-.686-5.073-5.374-8.427-10.419-6.508-9.787-11.8-19.943-17.546-33.673l-10.249-24.5c-3.681-8.8-8.055-18.475-9.721-21.5-3.666-6.657-7.527-12-8.672-12-.463 0-1.324 2.735-1.913 6.077-.839 4.767-.745 7.948.436 14.75 2.537 14.598 6.414 28.147 17.897 62.535 3.648 10.925 6.443 20.053 6.21 20.285-.95.951-12.099-12.552-29.844-36.147-10.341-13.75-20.209-26.575-21.93-28.5l-3.128-3.5.683 7.397c.376 4.069 1.741 11.044 3.034 15.5 1.293 4.457 5.707 16.203 9.809 26.103s7.771 19.03 8.154 20.289c.609 2.004.405 2.227-1.634 1.79-1.282-.274-5.927-1.204-10.323-2.067-4.816-.945-9.587-2.616-12-4.204-7.207-4.739-18.743-13.818-34.007-26.764-22.289-18.904-46.821-36.976-67.774-49.927-15.561-9.619-38.521-20.843-46.978-22.965l-2.745-.689 2.509 6.664c5.7 15.144 15.703 29.641 40.106 58.123l3.641 4.25H977.99l-12.745-11.925c-7.01-6.558-22.846-22.745-35.191-35.97-12.345-13.226-22.629-23.863-22.853-23.639-.68.68 4.89 16.523 8.803 25.037 3.177 6.914 16.487 29.728 30.044 51.497l4.047 6.5-4.797.586-4.798.586-5.5-4.876c-14.72-13.05-46.654-51.373-75.436-90.529-6.563-8.928-12.066-16.098-12.23-15.935-.164.164.321 4.117 1.076 8.784 2.714 16.767 8.199 32.834 18.392 53.884 5.716 11.804 21.675 40.46 24.282 43.601.661.796.993 1.656.738 1.91-.255.255-4.402-.045-9.216-.667l-8.754-1.13-9.269-14.107c-13.534-20.599-21.736-34.788-32.142-55.607-14.273-28.554-22.612-52.543-26.006-74.808-2.169-14.237-2.182-36.935-.027-49.192 3.298-18.763 9.739-36.155 24.074-65 3.963-7.975 8.825-18.775 10.803-24s7.948-22.775 13.265-39 11.69-34.45 14.16-40.5c6.975-17.084 17.491-38.103 24.016-48 6.742-10.226 14.831-19.445 19.708-22.459 3.421-2.114 21.713-9.227 22.277-8.663.572.571-11.21 22.949-15.896 30.195-6.249 9.661-17.748 23.171-28.693 33.71-5.017 4.831-9.122 9.062-9.122 9.402 0 1.141 20.408-.687 29-2.598 4.675-1.039 8.586-1.81 8.691-1.714s-2.758 6.677-6.362 14.623c-5.706 12.577-30.762 73.687-32.028 78.112-.394 1.379 1.086 1.706 10.369 2.295 26.094 1.654 55.684 6.155 72.495 11.028 4.765 1.381 16.427 5.315 25.914 8.742l17.249 6.232 22.586-2.953 22.586-2.952 29 .035c25.128.031 32.046.398 51.813 2.75 12.547 1.493 23.674 2.715 24.727 2.715s2.641-1.109 3.529-2.465c.889-1.356 7.8-16.544 15.36-33.75 15.078-34.323 19.126-42.756 21.451-44.686 1.273-1.056 3.608-.751 13.332 1.744 6.483 1.663 14.825 3.331 18.538 3.707l6.75.683.01-16.867c.018-28.332 2.675-51.576 7.578-66.267 2.459-7.371 16.033-33.889 19.08-37.275 1.353-1.504 1.978-1.534 6.105-.292 2.528.761 9.001 4.372 14.384 8.025m-914.864-.93c1.714 1.713-7.186 13.373-10.208 13.373-1.816 0-12.085-9.902-12.085-11.652 0-.672 1.462-1.403 3.25-1.625 5.56-.69 18.385-.755 19.043-.096M1457 871.573c0 .245 2.548 3.892 5.662 8.103 5.115 6.916 17.763 27.098 18.647 29.753.248.745 28.003 1.25 91.274 1.659 50.004.324 91.93.917 93.168 1.318s2.781 1.711 3.429 2.912c.803 1.49 1.358 13.13 1.749 36.682l.571 34.5 2.5 5c1.914 3.827 3.546 5.528 6.962 7.25l4.462 2.25h20.338c22.255 0 23.809-.325 28.558-5.969 1.444-1.716 2.818-4.89 3.154-7.286.328-2.335.917-20.22 1.311-39.745l.715-35.5h97.49l3.592-5c4.914-6.843 18.418-29.581 18.418-31.015 0-1.228-13.383-1.455-204-3.453-151.648-1.589-198-1.931-198-1.459m-581.117 11.69c-6.39 6.187-13.045 13.497-14.79 16.243-1.744 2.747-4.504 9.251-6.132 14.454S852 923.846 852 924.367s2.318-2.386 5.151-6.46c5.91-8.499 13.894-18.195 14.491-17.598.223.223-3.321 6.659-7.876 14.303-8.038 13.489-15.237 29.172-22.259 48.492l-3.416 9.396.537-8c.655-9.76 2.929-26.3 4.856-35.32 1.44-6.742 5.098-19.251 7.822-26.751 4.951-13.629 14.114-24.536 23.705-28.218 3.019-1.159 7.064-2.127 8.989-2.152l3.5-.045zm460.617 4.816c2.2.561 4.541 1.2 5.202 1.421.713.237-1.968 4.652-6.574 10.829-4.278 5.735-10.329 14.895-13.447 20.354-7.2 12.605-14.474 28.843-19.699 43.973-3.762 10.891-14.108 48.264-18.94 68.418l-2.021 8.426.437-16.5a248 248 0 0 1 3-32.5c1.41-8.8 3.156-19.712 3.881-24.25s1.142-8.25.927-8.25c-.702 0-5.974 12.295-9.209 21.48-5.519 15.669-9.916 32.043-14.022 52.216-2.192 10.774-4.224 19.826-4.515 20.117s-.316-1.46-.057-3.892.713-9.371 1.009-15.421c1.12-22.887 8.223-56.499 17.75-84 5.866-16.933 18.377-46.741 23.045-54.906 4.303-7.526 10.009-9.839 22.233-9.01 3.85.261 8.8.934 11 1.495m-951 4.888c7.333 1.448 12.667 3.3 20 6.944 7.475 3.714 11.576 6.54 16.242 11.192 6.273 6.255 11.258 14.426 11.258 18.455 0 1.925-.696 2.234-6.25 2.777-22.882 2.239-41.725 3.016-73.75 3.041-26.763.02-41.435-.429-55-1.683-10.175-.941-19.944-2.045-21.708-2.452l-3.208-.741 3.208-6.497c1.954-3.957 5.75-9.085 9.708-13.115 5.124-5.216 8.51-7.581 16-11.174 15.958-7.654 29.512-9.852 56.5-9.159 11.257.289 20.378 1.104 27 2.412m-68.388 8.614c-2.964.797-8.197 2.789-11.629 4.427-4.294 2.049-8.151 5.021-12.362 9.522-3.367 3.599-6.121 6.991-6.121 7.538 0 1.3 1.268 1.652 8.603 2.387l6.103.611 4.956-6.793c5.034-6.898 13.394-14.71 18.838-17.6l3-1.593-3 .026c-1.65.014-5.425.678-8.388 1.475m1405.388 9.186 3 .872.328 9.431c.18 5.186.016 20.377-.365 33.758l-.692 24.327-2.183 2.538-2.183 2.537-15.952-.144-15.953-.145-2.5-2.492-2.5-2.492-.301-33.093-.301-33.093 1.801-2.014 1.801-2.013 16.5.576c9.075.316 17.85.968 19.5 1.447M1425.456 938.5c8.582 12.853 17.172 31.518 23.137 50.274 3.101 9.749 7.388 21.345 9.526 25.769 4.504 9.316 14.216 21.85 22.31 28.794 3.101 2.66 10.461 8.184 16.355 12.276s12.985 9.181 15.758 11.31c7.877 6.046 12.085 13.126 14.012 23.577l.738 4-4.023-5.065c-7.403-9.321-11.693-12.599-45.769-34.973-16.276-10.687-27.489-20.9-35.814-32.618-2.6-3.662-6.569-10.585-8.818-15.386-7.129-15.212-10.421-32.52-13.294-69.887-.303-3.949-.158-6.53.338-6 .478.511 2.973 4.079 5.544 7.929M491 941.98c0 2.826-20.023 43.932-24.543 50.385-1.078 1.54-1.489 1.664-1.846.558-.253-.783-1.849-7.87-3.548-15.749l-3.088-14.327 2.098-2.673c3.428-4.368 16.97-13.975 23.423-16.618 3.302-1.352 6.341-2.48 6.754-2.507s.75.392.75.931m-210.263 6.423c.15.15-.156 2.484-.68 5.185-9.769 50.375-11.048 58.24-11.04 67.912.004 4.4.624 10.317 1.378 13.15 1.97 7.398 6.226 14.687 12.217 20.922 2.868 2.985 5.1 5.428 4.958 5.428s-2.781-.868-5.865-1.929c-12.11-4.167-19.843-10.762-24.47-20.869-3.821-8.345-3.414-16.735 2.189-45.202 3.978-20.212 8.475-40.133 10.13-44.877.368-1.055 1.695-1.215 5.695-.684 2.868.38 5.338.814 5.488.964m156.694 4.347c2.979 4.542 6.818 16.103 10.045 30.25 3.221 14.123 4.524 24.31 4.524 35.362 0 10.435-1.85 18.82-5.544 25.122-3.803 6.49-11.718 13.305-19.775 17.028-3.967 1.833-10.998 4.099-15.624 5.036-6.308 1.279-11.552 1.587-20.984 1.233-10.574-.396-13.932-.943-21.117-3.436-4.699-1.631-11.099-4.66-14.221-6.733-7.669-5.09-15.455-13.818-18.92-21.206-1.572-3.352-3.572-9.427-4.445-13.5-1.322-6.169-1.484-11.748-.973-33.406.338-14.3.889-28.086 1.225-30.635l.612-4.635 26.633-.741c14.648-.407 36.308-1.292 48.133-1.965s22.956-1.292 24.736-1.374c2.71-.126 3.635.459 5.695 3.6m496.53 27.75c-.434 14.327-1.011 20.288-2.345 24.237-1.698 5.03-5.443 9.263-8.194 9.263-2.438 0-4.422-4.315-4.422-9.617 0-6.375 2.593-14.959 8.612-28.507 2.536-5.707 5.023-11.451 5.527-12.765.504-1.313 1.025-2.213 1.157-2s-.019 8.939-.335 19.389m-353.45-8.496c1.369.521 2.489 1.364 2.489 1.873 0 1.626-6.092 3.123-12.706 3.123-9.707 0-18.089-2.538-15.833-4.795 2.089-2.089 20.706-2.232 26.05-.201m74.122 1.301c3.277 1.7 4.907 5.42 3.843 8.771-.401 1.265-2.494 2.455-6.22 3.538-4.165 1.211-8.215 1.514-15.685 1.175-11.594-.526-16.571-2.378-16.571-6.169 0-3.034 4.07-7.371 7.665-8.167 1.559-.345 3.285-.807 3.835-1.025.55-.219 5.275-.252 10.5-.073 6.263.214 10.568.879 12.633 1.95m479.417 11.176c-2.635 13.252-4.218 18.011-9.194 27.632-5.636 10.9-12.73 17.898-20.606 20.328-1.925.594-2.25.327-2.25-1.849 0-4.159 9.72-21.938 22-40.24 6.325-9.427 11.65-17 11.833-16.829.184.171-.619 5.102-1.783 10.958M796.147 999.5c2.806 15.278 2.998 36.154.44 48-1.98 9.171-5.753 22.668-6.208 22.212-.169-.169-1.073-6.136-2.007-13.26-1.119-8.526-1.729-20.469-1.785-34.952-.083-21.104.76-30.72 3.592-41l1.102-4 1.331 5.5c.731 3.025 2.322 10.9 3.535 17.5m-208.948-11.636c.384.35.997 2.506 1.362 4.791.589 3.685.397 4.3-1.698 5.443-3.337 1.821-25.743 2.471-32.561.945l-5.4-1.208.666-4.668c.366-2.567.958-4.989 1.315-5.383.781-.862 22.387-1.56 30.117-.974 3.025.23 5.814.704 6.199 1.054m73.183 32.848c.358 10.883.929 26.198 1.269 34.033l.617 14.245-3.884 1.628c-2.572 1.077-8.137 1.801-16.476 2.142-6.925.283-14.668.203-17.207-.178-2.538-.38-5.626-1.51-6.861-2.511l-2.246-1.818 1.75-30.877c.962-16.982 1.993-32.563 2.291-34.626l.541-3.75h6.806c8.363 0 26.253-1.779 29.286-2.912 1.921-.717 2.318-.439 2.848 2.001.339 1.559.909 11.739 1.266 22.623m693.667-11.663c6.151 11.131 12.426 26.368 14.856 36.07 3.633 14.504 5.195 30.123 5.992 59.881.419 15.675.692 28.609.606 28.743s-2.213-3.691-4.728-8.5c-6.545-12.517-11.337-26.128-14.209-40.364-2.808-13.921-5.163-35.758-6.027-55.879-.318-7.425-.823-16.866-1.121-20.979-.299-4.114-.305-7.242-.015-6.951.291.29 2.381 3.881 4.646 7.979m-764.696 4.602c.992 11.733.768 40.254-.332 42.31-.538 1.006-2.449 2.341-4.245 2.967-8.043 2.804-25.562 2.194-32.523-1.131-1.514-.724-2.889-2.263-3.055-3.421-.238-1.661.368-2.239 2.875-2.741 1.747-.349 4.18-.635 5.405-.635h2.229l.646-7.651c.356-4.208.647-10.64.647-14.295v-6.643l5.75-1.456c3.764-.952 5.75-1.968 5.75-2.939 0-1.005-3.553-2.644-11-5.074l-11-3.59 14.5-.675c7.975-.37 16.075-1.078 18-1.573s3.996-.945 4.603-1.002c.667-.062 1.359 2.923 1.75 7.549m292.693 46.219c12.113 4.695 20.679 8.794 29.864 14.288 12.041 7.202 22.609 14.942 38.695 28.34 7.632 6.356 14.04 11.068 14.239 10.471.668-2.005-7.117-12.395-15.767-21.044-4.717-4.716-13.302-12.075-19.077-16.355l-10.5-7.78 5 .678c12.18 1.65 24.115 6.724 35.5 15.092 3.575 2.627 12.125 10.221 19 16.874 6.875 6.654 13.477 12.916 14.671 13.916l2.171 1.817 11.329-6.742c18.332-10.909 34.138-17.75 53.329-23.08 7.098-1.971 12.065-2.591 23.5-2.932l14.5-.432-5 1.435c-8.924 2.563-23.448 8.469-33.335 13.557-9.483 4.879-19.138 12.24-21.263 16.21l-1.074 2.006 2.336-.74c1.285-.408 7.511-3.198 13.836-6.201 15.326-7.277 28.565-12.512 40.594-16.051 15.086-4.438 22.503-6.048 39.406-8.549l15.5-2.293-6.5-1.195c-14.49-2.663-33.468-4.305-50.5-4.37-21.294-.081-32.203 1.519-49.935 7.325-6.565 2.149-19.782 7.745-29.371 12.437l-17.436 8.529-10.629-10.314c-5.846-5.673-13.754-12.637-17.573-15.475-9.682-7.194-21.506-12.887-32.611-15.703-11.717-2.971-30.374-5.367-47.445-6.092l-13-.552zm437.406 20.344c6.011 15.376 10.507 31.315 15.028 53.286 2.038 9.9 4.32 20.681 5.072 23.957s1.191 6.133.976 6.348c-.82.821-15.575-20.118-18.51-26.267-1.692-3.545-3.948-9.853-5.013-14.017-2.205-8.623-4.008-24.354-3.998-34.877.007-7.405 1.059-20.911 1.587-20.383.166.166 2.352 5.545 4.858 11.953m-1008.952.976c14.274 1.825 21.971 2.17 48 2.151 29.503-.021 37.76-.561 60.5-3.96 2.666-.398 3.143-.267 2 .552-2.88 2.063-16.586 5.885-27.5 7.668-8.419 1.376-16.867 1.808-36 1.844-26.391.05-41.225-1.178-54.136-4.48-4.19-1.071-9.924-3.081-12.741-4.465l-5.123-2.516 4 .517c2.2.284 11.65 1.495 21 2.689m160.923 19.985c3.258.729 6.11 1.894 6.338 2.59.249.756-1.899 2.325-5.34 3.9-4.856 2.223-7.566 2.708-17.338 3.102-8.314.336-14.074-.002-20.41-1.196-10.515-1.983-20.573-6.071-18.942-7.702.596-.596 2.588-1.466 4.426-1.934 4.982-1.267 44.31-.316 51.266 1.24m-182.199 7.325c1.501 2.75 2.74 5.285 2.753 5.633.012.349-.765.872-1.727 1.163s-8.263 2.82-16.222 5.619-19.078 6.244-24.708 7.653c-8.11 2.031-12.727 2.566-22.238 2.58-8.063.011-13.738-.5-17.292-1.558-6.067-1.807-12.948-5.521-13.534-7.306-.688-2.093 10.368-8.244 21.192-11.79 8.869-2.905 21.485-5.327 35.552-6.826 1.925-.205 10.249-.327 18.497-.27l14.998.102zM555 1110.68l2.5.669-3 .806c-1.65.444-6.15 1.083-10 1.421l-7 .614-2.389-4.595c-1.314-2.527-2.776-4.595-3.25-4.595s-.861-.409-.861-.909c0-.501 4.837.627 10.75 2.505s11.875 3.716 13.25 4.084m-246.805-5.073c-3.258 1.423-5.195 1.175-5.195-.666 0-.518 1.913-.904 4.25-.859l4.25.081zm61.447 1.796 3.536 2.403-8.339.683c-4.586.376-10.071.532-12.189.347l-3.85-.336 2.173-2.75 2.172-2.75h6.481c5.194 0 7.182.477 10.016 2.403m134.197 2.102c6.724 3.13 11.161 6.264 11.161 7.884 0 .859-5.727 2.097-18.25 3.943-10.038 1.479-19.15 2.681-20.25 2.67-1.285-.014-.057-1.135 3.436-3.138 2.99-1.715 7.715-5.486 10.5-8.381s5.739-5.309 6.564-5.364 3.902 1.019 6.839 2.386m749.297 13.253c9.015 18.782 21.011 35.765 34.111 48.293l5.804 5.551-13.775 1.192c-8.033.695-15.235.844-17.276.358-8.615-2.054-14.609-7.599-17.632-16.311-1.397-4.025-1.847-8.174-1.826-16.841.026-10.887 2.97-34.01 4.327-33.992.347.005 3.167 5.292 6.267 11.75m254.473-2.282c2.734.813 6.16 2.725 7.613 4.25 1.452 1.526 8.751 14.756 16.22 29.402l13.58 26.627-18.261.523c-14.712.422-20.302 1.01-28.761 3.024-19.52 4.647-41.78 14.367-60.413 26.381-8.973 5.786-20.613 14.586-31.908 24.125-4.852 4.097-9.187 7.054-9.633 6.571s-7.156-11.4-14.913-24.259l-14.102-23.379 3.891-4.621c6.369-7.564 21.981-22.283 31.078-29.302 12.503-9.647 25.38-17.835 38.699-24.609 20.144-10.245 39.226-15.955 53.869-16.119 4.481-.05 10.28.567 13.041 1.386M428.759 1124c5.041 1.101 12.22 2.361 15.953 2.801l6.788.801-10.5 1.279c-5.775.704-11.175 1.444-12 1.644-.825.201-3.738-1.635-6.473-4.08s-4.513-4.445-3.953-4.445c.561 0 5.144.9 10.185 2m-43.169 4.014c3.251 1.658 7.169 4.055 8.708 5.326l2.798 2.312-19.298 2.77c-37.025 5.315-55.115 7.664-56.689 7.36-1.1-.211.847-2.851 6.355-8.617 4.368-4.571 8.863-8.833 9.989-9.47 2.694-1.524 11.956-2.345 28.637-2.538l13.591-.157zm301.97 8.07c-5.467 1.037-16.942 3.001-25.5 4.363-23.378 3.72-136.48 22.753-178.56 30.047-20.35 3.528-54.55 9.39-76 13.026-59.718 10.125-80.744 13.725-122 20.892-20.9 3.63-48.125 8.314-60.5 10.408l-22.5 3.808.309 3.436c.547 6.097.93 6.625 4.453 6.149 3.747-.505 99.422-16.449 129.738-21.62 11.275-1.923 44.575-7.548 74-12.5a225657 225657 0 0 0 80-13.477c58.821-9.931 145.038-23.616 148.778-23.616h1.965l.681 10.75c.374 5.912 1.051 17.535 1.504 25.828l.824 15.078 4.874 4.615c2.681 2.539 4.967 4.304 5.08 3.923s.662-14.236 1.221-30.787c.559-16.552 1.288-30.803 1.62-31.669.718-1.872 4.859-2.886 25.453-6.235 8.525-1.386 16.513-2.75 17.75-3.031 1.998-.453 2.25-1.125 2.25-5.991V1134l-2.75.099c-1.513.054-7.223.947-12.69 1.985m86.912 9.086c3.865 1.194 7.092 2.206 7.171 2.25.078.044 1.327 8.405 2.774 18.58s3.263 22.095 4.035 26.489c.771 4.394 1.274 8.118 1.117 8.275s-7.437-2.057-16.177-4.921c-11.578-3.794-16.641-5.954-18.65-7.957l-2.759-2.749 4.132-11.318c2.272-6.226 5.516-15.707 7.209-21.069s3.313-9.75 3.599-9.75 3.683.977 7.549 2.17m767.701 57.772c4.924 5.553 26.33 48.14 37.658 74.923 10.076 23.823 18.234 47.313 22.63 65.16 4.126 16.75 5.103 25.166 3.58 30.825-.632 2.345-2.659 5.936-4.506 7.979-7.788 8.621-47.262 29.114-75.6 39.248-13.237 4.734-35.412 10.6-41.911 11.087l-4.477.336-.793-6c-3.415-25.834-12.768-49.904-27.163-69.905-3.525-4.897-11.159-14.205-16.964-20.684l-10.556-11.779 6.215-3.452c17.82-9.897 34.257-16.628 50.494-20.674 11.413-2.845 26.358-4.994 34.72-4.994 3.85 0 11.462.672 16.916 1.494s10.075 1.337 10.268 1.143c.643-.643-11.076-6.394-18.684-9.17-6.289-2.294-9.598-2.813-20.5-3.217-14.501-.536-24.834.835-40 5.31a5575 5575 0 0 1-10.564 3.11c-1.874.544-9.568-9.971-22.346-30.537-7.269-11.7-8.546-14.358-7.679-15.979 1.942-3.629 14.547-14.433 24.469-20.973 12.148-8.008 27.398-15.835 39.209-20.123 4.901-1.779 13.411-4.304 18.911-5.611 7.94-1.886 12.341-2.333 21.367-2.167l11.366.208zM1364.172 1224c2.791 4.125 8.235 14.025 12.098 22s7.893 15.744 8.955 17.265 3.204 3.423 4.758 4.226c1.554.804 6.131 1.966 10.171 2.583 4.04.616 8.788 2.001 10.55 3.077 1.762 1.075 4.75 4.069 6.64 6.652 4.421 6.041 10.656 17.408 10.656 19.426 0 1.675-6.965 6.489-13.5 9.331-3.279 1.425-6.613 1.703-18.5 1.54-11.571-.16-16.722.247-25.5 2.012-6.05 1.217-14.375 2.244-18.5 2.284-6.694.064-8.359-.337-15.491-3.728-9.658-4.591-14.301-7.992-15.065-11.034-.372-1.485 2.712-11.284 8.877-28.205 8.581-23.55 18.53-53.386 20.3-60.88l.697-2.951 3.889 4.451c2.14 2.448 6.174 7.826 8.965 11.951m-868.922-4.947c2.063.572 3.75 1.377 3.75 1.787s-1.913 1.259-4.25 1.886c-8.813 2.366-16.766 12.601-18.314 23.57l-.677 4.796-1.982-1.794c-3.161-2.86-4.777-6.848-4.777-11.788 0-5.107 2.5-10.792 6.308-14.345 2.928-2.733 8.933-5.061 13.192-5.116 1.65-.021 4.688.431 6.75 1.004m-107.574 3.387c-2.653.765-6.576 2.605-8.718 4.089-4.711 3.265-8.364 7.902-11.216 14.238-1.538 3.416-2.146 6.821-2.186 12.233-.047 6.247.408 8.446 2.724 13.161 1.529 3.113 4.625 7.327 6.88 9.364 8.999 8.131 21.74 11.265 32.295 7.945 7.035-2.212 14.61-8.764 18.34-15.862 2.389-4.547 2.685-6.206 2.694-15.108.009-7.966-.392-10.814-1.968-14-2.67-5.395-9.056-11.612-14.767-14.377-5.92-2.866-17.23-3.656-24.078-1.683m225.792 13.063c4.932 1.438 12.703 4.439 17.268 6.67 10 4.885 25.682 15.188 37.264 24.482 9.651 7.745 25.752 22.957 24.999 23.62-.475.418-57.47 15.725-58.552 15.725-.285 0-.103-.787.403-1.75 1.51-2.873 2.337-11.571 1.352-14.233l-.917-2.479-3.393 4.885c-7.128 10.267-12.093 15.557-18.76 19.989-3.795 2.523-7.126 4.588-7.4 4.588-.275 0 .562-2.629 1.86-5.843 3.363-8.324 4.998-18.847 3.844-24.732-.515-2.627-1.44-4.94-2.056-5.14-.647-.211-2.274 3.338-3.853 8.403-5.208 16.705-13.576 30.089-22.109 35.362-1.938 1.198-3.737 1.964-3.999 1.703-.261-.262-.065-1.555.437-2.874.501-1.319 1.434-6.444 2.072-11.389 1.159-8.979.509-16.511-1.482-17.175-.547-.182-2.512 3.835-4.367 8.927-4.953 13.598-13.048 30.321-18.819 38.872-6.214 9.209-18.02 20.413-25.98 24.656-3.269 1.742-8.588 3.857-11.822 4.699-6.967 1.815-19.166 1.998-24.6.37-2.13-.638-5.655-2.685-7.832-4.549-4.264-3.65-6.603-9.342-5.04-12.264.497-.929 3.516-3.89 6.709-6.581 10.393-8.757 19.386-17.812 24.375-24.541 6.483-8.743 11.19-18.992 11.734-25.549.484-5.836-.316-10.355-1.832-10.355-.545 0-2.804 3.817-5.021 8.483-2.216 4.665-6.224 11.217-8.907 14.56s-8.402 9.202-12.71 13.022c-12.423 11.014-28.567 21.818-44.81 29.99-8.263 4.157-17.191 8.831-19.84 10.386-2.71 1.59-5.171 2.44-5.627 1.943-.446-.486-1.598-3.308-2.56-6.271-1.221-3.761-1.6-7.247-1.254-11.545.271-3.387 1.211-7.546 2.089-9.242 2.728-5.277 11.693-14.297 23.668-23.814 21.582-17.153 64.136-47.829 85.787-61.843 19.044-12.326 31.299-18.153 44.713-21.259 8.832-2.046 23.857-1.146 34.968 2.093M408 1235.171l4.5 2.127-4.414.827c-10.952 2.052-20.085 13.237-20.443 25.037l-.143 4.713-2.379-2.187c-6.798-6.252-6.713-19.062.177-26.556 3.078-3.349 9.468-6.088 14.202-6.088 2.2 0 6.025.957 8.5 2.127m-125.676 4.209c-2.297.751-5.729 2.326-7.629 3.499-5.63 3.48-11.273 10.38-13.658 16.702-1.804 4.783-2.149 7.358-1.799 13.419.316 5.451 1.134 8.866 2.995 12.5 1.408 2.75 4.264 6.75 6.347 8.889s6.292 5.053 9.353 6.474c7.251 3.367 18.653 4.1 25.97 1.669 6.802-2.259 14.307-9.178 17.712-16.33 3.513-7.377 4.349-18.373 2.009-26.423-2.087-7.179-8.76-14.72-16.283-18.4-4.249-2.079-7.369-2.798-13.202-3.043-4.619-.194-9.29.219-11.815 1.044m20.926 13.344c2.063.869 3.75 1.961 3.75 2.428s-.337.757-.75.646c-.413-.112-2.405.127-4.427.531-5.153 1.029-13.013 8.36-15.726 14.668-1.197 2.781-2.495 7.562-2.886 10.623l-.711 5.567-2.671-2.104c-1.47-1.158-3.444-4.128-4.389-6.601-1.22-3.193-1.542-5.97-1.114-9.585.331-2.8 1.406-6.461 2.388-8.137 2.691-4.593 8.37-8.697 13.344-9.645 5.079-.967 7.887-.625 13.192 1.609m474.25 31.22c12.464 3.007 43.194 13.826 51.5 18.131 4.125 2.139 9.206 5.294 11.29 7.013 4.771 3.933 9.688 12.395 9.701 16.694.02 7.215-4.674 13.098-13.339 16.719-2.057.859-8.782 2.199-14.946 2.978-6.163.778-14.581 2.584-18.706 4.012-15.36 5.32-37.175 6.845-58.093 4.06-11.421-1.521-32.051-5.642-40.855-8.162-7.753-2.22-16.038-6.659-19.683-10.548-1.723-1.838-3.657-4.99-4.3-7.005-.937-2.942-.886-4.339.262-7.086 1.916-4.585 7.768-10.117 15.669-14.812 3.575-2.124 12.35-6.141 19.5-8.925s17.583-6.853 23.185-9.04c5.602-2.188 11.902-4.381 14-4.875 6.45-1.517 16.43-1.177 24.815.846m-38 16.54c-2.2.793-4.794 2.416-5.765 3.608-1.35 1.657-1.498 2.489-.628 3.537 1.669 2.011 5.854 1.647 10.297-.895 3.789-2.168 6.509-5.155 5.559-6.105-1.347-1.346-5.931-1.417-9.463-.145m46.462 2.557c4.65 3.974 7.648 3.91 3.272-.07-1.796-1.634-4.046-2.953-5-2.93-1.275.03-.818.823 1.728 3M394 1306.661c-7.983 1.514-37.106 6.979-82 15.388a61925 61925 0 0 0-43 8.068c-8.525 1.604-25.4 4.718-37.5 6.919s-22.811 4.256-23.801 4.567c-1.46.457-1.745 1.451-1.5 5.231l.301 4.666 4.5-.285c2.475-.157 19.575-2.989 38-6.295s53.525-9.592 78-13.969c24.475-4.378 47.915-8.582 52.088-9.342l7.588-1.382 7.614-7.613c4.187-4.188 7.523-7.56 7.412-7.495-.111.066-3.577.76-7.702 1.542m605.821 1.38c10.509 1.705 41.48 12.554 55.001 19.266 9.377 4.655 19.289 13.031 22.22 18.775 3.607 7.07 1.993 15.186-4.027 20.252-1.791 1.507-4.89 3.434-6.886 4.282s-8.129 1.972-13.629 2.498c-5.563.531-15.547 2.512-22.5 4.464-16.638 4.669-31.674 6.054-49.92 4.599-20.491-1.635-53.95-9.066-64.402-14.304-7.916-3.966-12.678-9.947-12.678-15.922 0-4.763 2.722-9.536 7.866-13.795 8.451-6.996 22.161-13.89 37.134-18.672 3.025-.966 10-3.541 15.5-5.723 10.803-4.286 19.662-6.56 26-6.674 2.2-.04 6.844.39 10.321.954m-327.416 5.209-3.827 4.25-31.039 7.714c-17.071 4.242-31.436 7.598-31.921 7.456-1.257-.368 15.129-7.849 26.578-12.135 9.233-3.456 30.476-9.876 35.804-10.82 1.375-.243 3.79-.504 5.366-.579l2.867-.136zm83.493 2.02c-4.294 2.869-7.196 8.304-5.814 10.887.609 1.138 2.092 1.843 3.878 1.843 2.11 0 3.703-.984 5.892-3.638 1.649-2.002 3.276-4.745 3.615-6.096.648-2.579-.855-5.266-2.944-5.266-.676 0-2.758 1.021-4.627 2.27m58.102-.907c0 .75 2.262 3.48 5.028 6.066 3.453 3.231 5.72 4.604 7.239 4.387 1.217-.174 2.37-1.144 2.563-2.155.508-2.663-3.388-6.322-8.635-8.11-2.503-.853-4.921-1.551-5.373-1.551s-.822.613-.822 1.363m66 1.309c5.225.84 13.775 2.901 19 4.579l9.5 3.052-4 1.885c-3.243 1.528-5.42 1.779-11.5 1.327-4.125-.306-12.614-1.305-18.865-2.221l-11.365-1.664-1.885-4.398c-1.037-2.419-1.885-4.618-1.885-4.887 0-.616 8.693.347 21 2.327m419-.029c15.79 2.779 28.384 7.943 43.5 17.836 10.097 6.608 18.63 14.26 30.411 27.271 5.104 5.638 9.701 10.25 10.216 10.25 4.427 0-1.694-13.253-13.15-28.47-4.863-6.459-7.488-10.744-6.726-10.979.687-.212 4.624-1.208 8.749-2.213 4.725-1.151 11.242-1.829 17.614-1.832l10.115-.006 8.885 4.5c7.198 3.645 10.94 6.483 19.702 14.944 15.215 14.693 25.258 30.443 30.978 48.58 3.882 12.309 5.062 22.834 4.416 39.392-.644 16.49-2.906 27.161-8.212 38.737-1.803 3.935-5.138 9.171-7.411 11.637-2.373 2.575-6.355 5.44-9.353 6.729-4.564 1.963-6.353 2.176-14.227 1.692-4.954-.304-10.124-.975-11.489-1.49-1.989-.751-.896-1.032 5.5-1.413 9.206-.55 14.047-2.633 19.683-8.473 2.036-2.109 4.406-5.525 5.266-7.591 2.33-5.591 2.999-14.836 1.564-21.597l-1.25-5.889-11.131 7.522c-11.633 7.862-17.083 10.688-18.694 9.693-.542-.335-.959-7.391-.964-16.282-.004-8.63-.477-18.616-1.051-22.191-1.47-9.148-6.318-22.853-12.051-34.071-4.792-9.377-11.03-17.929-13.077-17.929-1.62 0-.376 5.425 4.231 18.461 6.772 19.161 8.495 36.383 5.419 54.158-2.841 16.417-13.169 33.39-27.687 45.5-3.452 2.879-10.64 8.098-15.973 11.598-16.062 10.54-42.966 22.651-57.276 25.782l-2.973.651 1.973-2.214c1.085-1.218 6.549-5.758 12.142-10.089 18.437-14.277 27.287-25.928 30.361-39.97.775-3.539 1.047-9.839.735-17-.273-6.257-.858-12.237-1.299-13.287l-.803-1.911-.911 2.411c-.5 1.325-2.658 9.039-4.795 17.14s-4.827 16.921-5.979 19.599-3.981 6.673-6.286 8.878c-6.272 5.998-36.038 28.147-46.778 34.806-5.178 3.211-12.339 6.835-15.914 8.053-7.553 2.573-17 3.978-17 2.527 0-.536 4.046-6.064 8.99-12.284 19.297-24.274 27.481-35.601 30.854-42.7 2.849-5.996 3.525-8.619 3.584-13.901.076-6.83-1.261-8.947-3.145-4.981l-6.162 12.947-5.082 10.674-14.237 14.681c-23.924 24.671-45.195 42.229-56.102 46.31-2.903 1.086-7.292 2.277-9.753 2.646-5.524.829-48.241-3.945-54.822-6.126-6.74-2.234-11.984-6.171-14.381-10.798-1.536-2.963-2.088-5.818-2.045-10.561.109-11.888 6.123-22.871 20.275-37.031 4.689-4.692 12.801-11.717 18.026-15.611 12.417-9.253 46.48-31.927 57.194-38.07 4.632-2.656 12.784-6.333 18.114-8.17 5.331-1.838 9.692-3.686 9.692-4.107s-.562-1.225-1.25-1.787c-1.823-1.487-11.612-4.221-15.182-4.239l-3.068-.016 6-3.395c9.883-5.592 17.35-7.579 33.164-8.823 9.181-.722 14.262-1.514 14.061-2.191-.173-.583-2.545-2.185-5.27-3.56l-4.955-2.5h-25.228l3.429-2.331c1.887-1.281 9.077-5.347 15.979-9.035s12.61-7.139 12.685-7.67c.228-1.628-9.768-1.646-16.739-.029-3.631.842-10.32 3.387-14.864 5.656s-15.687 9.442-24.762 15.94-19.65 13.656-23.5 15.908c-20.414 11.942-41.494 14.663-57.6 7.435-3.258-1.462-7.463-4.362-9.345-6.445s-3.887-5.471-4.455-7.528c-.819-2.966-.701-4.44.569-7.117.882-1.857 4.129-5.316 7.217-7.686s15.289-9.398 27.114-15.616c11.825-6.219 26.442-14.271 32.482-17.894 6.041-3.624 18.191-12.178 27-19.009 8.81-6.832 18.268-13.839 21.018-15.573 5.387-3.395 13.298-6.707 20.5-8.581 11.45-2.981 29.043-3.091 45-.282m-593.608.392c-8.203 4.06-10.925 9.965-4.595 9.965 4.521 0 15.203-7.885 15.203-11.223 0-1.521-6.566-.743-10.608 1.258m79.612 7.715c.005 2.535 3.499 7.879 6.39 9.773 3.428 2.245 7.019 1.593 7.436-1.352.237-1.674-.83-3.432-3.792-6.25-2.89-2.749-5.007-3.921-7.08-3.921-2.152 0-2.957.477-2.954 1.75m223.996 2.146c0 1.378 6.88 7.104 8.535 7.104.806 0 1.465-.372 1.465-.826 0-1.081-3.913-4.622-6.684-6.049-2.64-1.359-3.316-1.406-3.316-.229m-44.5 1.61c-4.15 1.472-7.899 5.039-6.936 6.598.942 1.523 8.751.986 12.433-.856 3.709-1.854 5.093-4.942 2.851-6.363-1.85-1.173-3.672-1.037-8.348.621M652 1340.414c14.155 2.537 43.647 12.802 58.12 20.23 8.598 4.413 16.757 11.283 19.346 16.291.749 1.449 1.668 4.26 2.04 6.247.487 2.595.122 4.871-1.295 8.074-2.226 5.032-6.589 8.703-13.211 11.117-2.475.902-9.225 2.054-15 2.56-5.795.508-13.189 1.866-16.5 3.032-13.979 4.922-18.776 5.539-42.5 5.467l-22.5-.068-17.767-3.704c-9.772-2.037-21.319-4.825-25.66-6.197-9.135-2.885-16.55-7.516-19.796-12.361-2.613-3.899-2.93-8.939-.819-13.022 2.214-4.28 10.599-11.338 18.221-15.335 3.751-1.968 16.721-7.52 28.821-12.337 20.409-8.125 30.517-11.125 38-11.277 1.65-.034 6.375.544 10.5 1.283m328.653 3.125c-4.929 3.763-6.678 7.521-4.642 9.974.679.818 2.349 1.487 3.711 1.487 3.015 0 8.885-5.586 9.831-9.354.703-2.802-.824-5.646-3.032-5.646-.678 0-3.319 1.592-5.868 3.539m60.347-2.124c0 .778 2.088 3.253 4.641 5.5 3.144 2.768 5.573 4.085 7.531 4.085 1.678 0 3.138-.645 3.481-1.537.324-.846-.253-2.469-1.282-3.607-4.167-4.607-14.371-7.761-14.371-4.441m-113.216 2.133c-5.44 2.833-7.565 5.806-5.731 8.016 1.428 1.721 4.278 1.846 7.263.318 3.172-1.624 9.684-8.069 9.684-9.585 0-2.113-6.05-1.438-11.216 1.251m178.716 2.012c13.107 1.705 48.209 8.142 49.816 9.135.55.341-1.992 2.128-5.65 3.972l-6.652 3.353-7.257-1.081c-9.825-1.463-34.191-5.763-39.833-7.029l-4.576-1.026-2.053-4.86-2.053-4.859 3.129.417c1.721.23 8.529 1.12 15.129 1.978m-95.145 2.958c-.321.835-.045 2.815.612 4.401 2.179 5.261 7.947 9.031 10.943 7.151 1.177-.74 1.198-1.395.126-3.982-1.454-3.511-7.347-9.088-9.602-9.088-.823 0-1.759.683-2.079 1.518m-350.144 9.614c.531 1.593 8.65 7.34 9.363 6.627 1.201-1.201-1.846-4.975-5.122-6.344-4.095-1.711-4.731-1.753-4.241-.283m-46.711 2.166c-7.343 4.159-4.061 8.385 4.516 5.815 4.056-1.215 8.539-5.406 7.53-7.039-1.134-1.834-7.852-1.151-12.046 1.224m249.083 3.251c11.081 2.289 41.437 12.858 53.036 18.466 16.062 7.766 25.309 17.607 25.354 26.985.019 4.053-3.238 9.883-7.291 13.05-3.923 3.066-13.126 5.738-22.369 6.496-4.297.352-12.535 1.961-18.305 3.576-5.771 1.614-13.646 3.478-17.5 4.143-3.876.667-15.277 1.179-25.508 1.145-13.824-.046-22.038-.613-32.5-2.245-16.368-2.552-34.57-7.141-40.69-10.258-10.088-5.138-14.81-10.822-14.81-17.825 0-2.3.637-5.396 1.415-6.882 2.791-5.328 11.725-12.235 23.489-18.159 3.522-1.774 11.172-4.777 17-6.675s14.869-5.095 20.092-7.106 11.747-4.204 14.5-4.873c7.012-1.705 15.32-1.649 24.087.162m-122.225 9.201c.341 2.063.559 7.8.484 12.75l-.136 9-.709-5.5c-1.921-14.913-2.244-20-1.271-20 .557 0 1.291 1.688 1.632 3.75m25.035-2.168c.334.87.607 4.333.607 7.695 0 5.272-.37 6.5-2.687 8.918-1.478 1.543-3.053 2.805-3.5 2.805s-.813-4.018-.813-8.929c0-6.783.378-9.306 1.571-10.5 2.012-2.011 4.048-2.007 4.822.011m22.195 2.163c-1.075 1.075-1.646-.431-.891-2.352l.744-1.893.368 1.828c.202 1.006.103 2.093-.221 2.417m634.922-1.111c.447 1.026 2.719 7.491 5.049 14.366 3.87 11.415 7.003 26.313 7.676 36.5l.265 4 2.5-4.5c2.244-4.04 2.5-5.63 2.5-15.552v-11.052l-3.685-7.448c-3.838-7.758-9.513-15.181-13.055-17.076-1.814-.971-1.965-.879-1.25.762m-730.956.278c-.365.591 1.59 3.327 4.344 6.081 4.127 4.128 5.63 5.007 8.554 5.007 2.826 0 3.548-.389 3.548-1.911 0-2.084-4.99-6.754-8.738-8.179-4.571-1.738-7.052-2.059-7.708-.998m-109.133 2.453c-2.793 1.311-6.071 3.646-7.285 5.189-1.955 2.486-2.037 2.974-.714 4.297 1.251 1.251 2.144 1.296 5.535.28 2.224-.666 5.889-2.967 8.146-5.114 6.64-6.317 3.442-8.937-5.682-4.652m50.946-.447c-5.597 3.413-8.033 9.016-5.167 11.882 2.161 2.161 5.511 1.294 8.601-2.226 3.042-3.465 4.875-8.671 3.714-10.55-.965-1.561-3.678-1.222-7.148.894m-165.196.737c1.006.91 1.829 2.205 1.829 2.878s-2.812 2.241-6.25 3.485c-24.786 8.969-33.76 12.459-37.25 14.483-5.649 3.277-9.75 7.89-9.75 10.967 0 1.429.844 3.531 1.875 4.672 4.649 5.14 14.076 7.55 40.375 10.324 53.96 5.692 69.739 7.759 102.5 13.43 19.996 3.461 37.856 6.12 64 9.529 44.346 5.781 112.621 15.224 131 18.118 8.8 1.386 32.65 4.986 53 8s45.55 6.8 56 8.414c36.869 5.694 45.266 6.424 74.5 6.477 22.731.04 29.054-.266 36.464-1.764 11.359-2.297 22.079-5.739 50.943-16.358a12964 12964 0 0 1 37.093-13.586c7.7-2.799 21.846-8.073 31.434-11.719l17.435-6.629 5.065 2.813c8.022 4.454 16.83 6.812 25.421 6.804 7.341-.007 19.285-2.285 29.46-5.619 2.648-.868 5.037-1.355 5.309-1.084.806.807-13.452 9.298-23.093 13.752-4.923 2.275-16.619 7.198-25.991 10.942-38.111 15.223-100.663 39.472-110.026 42.651-5.492 1.865-13.918 3.915-18.725 4.555-14.358 1.912-40.432-.582-96.289-9.208-20.106-3.105-171.862-26.358-199-30.492-8.8-1.34-31.3-4.718-50-7.505s-47.275-7.096-63.5-9.574-52.225-7.839-80-11.914c-68.268-10.016-91.64-13.757-117-18.729l-21.5-4.215 7.5-.772c7.429-.764 11.116-2.433 13.409-6.067.83-1.317.574-2.175-1.168-3.917-1.773-1.773-3.653-2.311-9.159-2.623-5.869-.331-7.804.01-12.657 2.232-3.151 1.442-5.95 2.402-6.22 2.133-1.041-1.041 2.258-3.613 8.287-6.462 14.867-7.024 83.694-29.876 90.429-30.024 1.332-.029 3.244.692 4.25 1.602m400.23 5.236c2.264 2.502 10.31 6.732 11.169 5.872 1.328-1.328-.535-3.704-4.481-5.718-2.205-1.125-4.997-2.045-6.204-2.045h-2.195zm-206.397 2.359c.002 1.237.888 3.7 1.969 5.473 3.04 4.987 10.027 5.829 10.027 1.208 0-3.036-6.204-8.931-9.4-8.931-2.031 0-2.599.493-2.596 2.25m160.327-.337c-4.986 2.292-7.013 5.276-4.821 7.095 3.227 2.678 14.99-2.46 14.99-6.548 0-1.455-.773-2.025-3-2.212-1.65-.139-4.876.61-7.169 1.665m245.722 18.585c-.587 4.401-1.543 9.713-2.122 11.805-1.318 4.754-5.531 9.414-9.316 10.304l-2.886.678.462-13.393c.562-16.341 1.802-19.619 9.229-24.394l5.08-3.267.311 5.133c.171 2.823-.17 8.733-.758 13.134m-24.457-6.972c.349 1.39.456 8.478.237 15.75-.324 10.819-.749 13.817-2.336 16.484-1.067 1.792-2.389 3.109-2.939 2.926-3.27-1.09-2.931-25.724.46-33.436 1.028-2.338 2.336-4.25 2.907-4.25.57 0 1.322 1.137 1.671 2.526m-448.023-.005c-1.06.802-1.642 1.744-1.293 2.092 1.051 1.052 3.72-.442 3.72-2.082 0-.842-.112-1.517-.25-1.499s-1.117.688-2.177 1.489m192.513 3.594c-3.77 1.884-6.676 4.086-7.353 5.572-.889 1.951-.822 2.644.324 3.369 2.197 1.391 5.23 1.123 7.97-.704 3.333-2.221 10.973-9.574 10.973-10.56 0-1.782-6.067-.599-11.914 2.323m54.325-.224c-4.022 2.453-7.411 6.817-7.411 9.544 0 4.952 5.521 6.135 9.6 2.055 5.079-5.078 6.691-13.495 2.583-13.486-.926.002-3.073.851-4.772 1.887m58.589-.446c0 .795 2.516 3.495 5.592 6 5.649 4.602 9.98 5.834 11.016 3.133.986-2.569-1.682-5.704-6.938-8.151-5.882-2.739-9.67-3.123-9.67-.982m116.694 2.305c1.137 5.428.729 24.02-.638 29.065-2.717 10.035-5.571-.498-4.706-17.371.484-9.441 1.948-15.444 3.765-15.444.437 0 1.148 1.688 1.579 3.75m-52.094 8.433c.795 7.029-.448 23.369-1.684 22.133-.489-.489-1.292-4.922-1.785-9.852-.862-8.61-.593-19.317.564-22.464.727-1.977 2.057 2.685 2.905 10.183m26.127-7.477c1.462 2.232 1.77 4.905 1.755 15.25-.014 10.044-.368 13.192-1.776 15.794-.966 1.787-2.185 3.25-2.709 3.25-.523 0-1.749-1.217-2.724-2.705-1.459-2.226-1.773-4.924-1.773-15.25 0-12.873 1.328-19.045 4.098-19.045.746 0 2.154 1.218 3.129 2.706m428.541 9.044c.294 5.362 1.111 13.35 1.815 17.75l1.28 8 1.442-4.5c.793-2.475 1.499-8.775 1.568-14 .112-8.34-.158-9.958-2.205-13.25-1.282-2.062-2.805-3.75-3.383-3.75-.701 0-.874 3.255-.517 9.75m-546.726-3.819c-1.143 1.85 2.78 7.882 6.477 9.96 2.064 1.16 4.222 2.109 4.796 2.109s1.748-.706 2.612-1.569c1.208-1.209 1.323-2.029.5-3.568-1.298-2.424-9.641-7.863-12.064-7.863-.96 0-2.004.419-2.321.931m-318.261 4.702c4.532 5.114 5.643 7.35 5.684 11.444l.035 3.577-2.992-.439c-2.467-.363-3.154-1.078-3.918-4.077a139 139 0 0 1-1.582-7.138c-.362-1.925-.879-4.287-1.15-5.25s-.224-1.75.105-1.75 2.047 1.635 3.818 3.633m166.068 9.117c-.93 10.558-3.414 23.701-4.913 25.988-1.595 2.434-2.427 2.614-7.443 1.611l-3.257-.652.674-8.934c.371-4.914 1.391-10.725 2.266-12.912 1.113-2.781 3.128-5.013 6.695-7.415 2.806-1.89 5.413-3.436 5.793-3.436.381 0 .464 2.588.185 5.75m-153.798 2.718c.797 1.907 1.449 3.707 1.449 4s-.623.532-1.383.532c-.761 0-1.655-1.013-1.987-2.25-.76-2.836-.8-5.75-.079-5.75.303 0 1.203 1.561 2 3.468m128.937 1.513c.333.539.294 5.513-.087 11.052l-.694 10.072-3.104-.303-3.103-.302.178-7.66c.109-4.742.786-8.836 1.775-10.75 1.58-3.055 3.86-4.01 5.035-2.109m-106.523 5.269c.019.412-.654.75-1.496.75-1.894 0-2.911-2.412-2.004-4.75.597-1.537.849-1.446 2.072.75.766 1.375 1.408 2.838 1.428 3.25m27.965 4c.038.963-.605 1.75-1.43 1.75-.98 0-1.5-.981-1.5-2.833 0-1.559.323-3.157.719-3.552.8-.8 2.102 1.931 2.211 4.635m51.445-2.125c.344 1.719.625 4.869.625 7 0 3.208-.344 3.875-2 3.875-1.754 0-2-.667-2-5.418 0-5.652.677-8.582 1.982-8.582.422 0 1.049 1.406 1.393 3.125m-25.982-.543c.334.87.607 3.12.607 5 0 2.703-.401 3.418-1.918 3.418-4.932 0-6.117-2.146-4.107-7.435 1.094-2.877 4.457-3.487 5.418-.983M765 1434.408c1.925 2.358 3.972 4.117 4.548 3.91s2.095.738 3.375 2.1c2.156 2.295 3.93 8.116 4.033 13.238.035 1.709-.394 2.042-2.065 1.605-1.16-.303-2.718-1.949-3.461-3.656-.866-1.99-1.366-2.452-1.391-1.288-.03 1.415-.538 1.667-2.289 1.138-1.237-.374-2.594-.996-3.015-1.383-.421-.386-1.438-4.048-2.261-8.137-.822-4.089-1.724-8.448-2.003-9.685s-.163-2.223.26-2.189 2.344 1.99 4.269 4.347m166.488 9.842c-1.067 12.211-3.419 24.714-5.144 27.348-1.379 2.105-2.292 2.455-5.742 2.202l-4.102-.3.239-10.5c.317-13.963 1.857-18.001 8.595-22.539 2.827-1.904 5.51-3.461 5.963-3.461s.539 3.263.191 7.25m826.012 14.597c-14.106 14.592-36.731 35.228-53.699 48.981-5.884 4.77-10.609 8.984-10.5 9.365.11.382 4.733 6.232 10.274 13 21.423 26.17 42.662 55.661 74.912 104.022 14.8 22.192 22.215 32.484 23.053 32 .68-.393 10.174-8.334 21.098-17.646 20.289-17.295 63.362-59.324 63.362-61.826 0-1.454-7.745-13.842-16.906-27.043l-5.406-7.79-5.172 9.877c-2.844 5.433-7.782 13.891-10.973 18.796-6.356 9.769-16.631 23.298-17.75 23.371-.389.025-3.118-2.991-6.066-6.704-13.376-16.849-22.939-29.078-25.683-32.841l-2.982-4.09 14.969-13.748c8.233-7.561 14.947-14.046 14.921-14.409-.027-.364-4.066-4.937-8.976-10.162l-8.928-9.5-13.855 13.817-13.854 13.818-15.285-19.166c-12.6-15.797-15.046-19.381-13.92-20.392 2.883-2.589 23.787-19.561 32.634-26.495l9.268-7.264-7.268-7.723c-3.997-4.247-8.843-9.066-10.768-10.709l-3.5-2.986zm-960.684-10.771c.713 1.142 1.568 4.368 1.899 7.168.54 4.558.421 5.022-1.138 4.424-.957-.367-2.118-.668-2.579-.668-1.336 0-2.182-5.503-1.448-9.416.37-1.971.964-3.584 1.321-3.584.356 0 1.231.934 1.945 2.076m109.872-.447c.612 1.595-1.233 24.25-2.041 25.058-.226.226-1.589.115-3.029-.247l-2.618-.657.006-7.141c.003-3.928.497-8.942 1.099-11.142 1.101-4.025 3.455-7.5 5.081-7.5.482 0 1.158.733 1.502 1.629m202.754.867c-5.908 1.594-49.746 17.275-66.442 23.767-6.325 2.46-17.107 7.039-23.961 10.176l-12.46 5.704-11.596 1.359c-11.132 1.305-19.983 3.771-19.983 5.568 0 1.894 8.775 3.142 18.5 2.632 10.877-.571 16.454-2.101 50-13.715 22.702-7.859 64.702-23.959 72.25-27.696 3.152-1.56 5.883-3.622 6.068-4.583.232-1.208-.757-2.202-3.209-3.227-1.95-.814-3.672-1.451-3.827-1.415s-2.558.68-5.34 1.43m-256.477 4.438c.569 1.064 1.035 4.889 1.035 8.5V1468h-3.981c-3.418 0-4.07-.355-4.612-2.513-.766-3.054.39-11.512 1.809-13.237 1.539-1.869 4.576-1.508 5.749.684m26.428-.352c.334.87.607 5.145.607 9.5V1470h-5v-7.566c0-7.228 1.077-11.434 2.928-11.434.472 0 1.131.712 1.465 1.582m-53.381 5.747c.446 4.943.286 5.671-1.25 5.671-1.49 0-1.762-.941-1.762-6.083 0-4.42.342-5.971 1.25-5.672.716.236 1.469 2.834 1.762 6.084m-506.902 23.858c-13.152 22.5-42.347 65.739-59.968 88.813-13.297 17.412-31.497 40.303-38.007 47.802l-5.47 6.301 5.917 6.027c9.116 9.284 26.943 24.848 36.918 32.232 10.843 8.026 26.11 15.777 37 18.784 5.969 1.649 10.793 2.216 19 2.234 7.208.015 13.241-.562 17.5-1.676 3.575-.935 11-3.923 16.5-6.641 12.449-6.151 24.316-16.171 33.531-28.312 3.652-4.812 8.978-13.22 11.836-18.684 8.558-16.365 11.91-28.154 12.837-45.142.714-13.074-.849-24.459-4.891-35.628-1.666-4.604-5.15-11.617-7.743-15.584s-7.567-10.063-11.054-13.545c-6.695-6.686-18.945-16.787-35.516-29.284-5.5-4.148-12.77-9.644-16.156-12.213s-6.315-4.671-6.51-4.671-2.771 4.134-5.724 9.187M611 1496.51c15.971.885 50.328 4.315 71 7.087 10.175 1.365 45.275 6.983 78 12.484 76.641 12.884 86.187 14.613 132.5 24.01 16.5 3.348 30.225 6.312 30.5 6.589.522.524-5.331.181-38.5-2.254-21.725-1.595-51.994-4.578-71-6.997-6.6-.84-23.475-3.556-37.5-6.036-33.838-5.982-106.116-19.553-128-24.033-9.625-1.97-25.987-5.307-36.359-7.414-18.046-3.666-25.207-5.76-15.641-4.576 2.475.307 9.225.82 15 1.14m-250.24 35.923c5.36 5.036 8.24 12.347 8.24 20.916 0 7.132-2.83 18.943-6.567 27.407-3.548 8.038-15.135 26.22-22.825 35.82-3.559 4.442-10.335 11.734-15.057 16.204-6.04 5.717-10.866 9.255-16.267 11.924-6.529 3.227-8.663 3.796-14.232 3.796-5.361 0-7.37-.495-11.052-2.72-2.475-1.496-5.536-3.541-6.802-4.544l-2.303-1.824 12.723-17.956c23.773-33.552 26.874-38.041 46.382-67.141l19.5-29.089 2 1.603c1.1.881 3.917 3.403 6.26 5.604M971.821 1530c.446 6.24-2.638 22.552-4.758 25.171-2.8 3.457-4.801 1.774-5.612-4.717-.693-5.548.105-21.134 1.233-24.074.405-1.053 1.764-1.395 4.693-1.181l4.123.301zm25.179-2.079c0 4.358-3.907 19.976-6.045 24.168-1.029 2.015-2.601 3.945-3.494 4.288-.894.342-2.989.623-4.656.623h-3.032l.661-4.75c1.597-11.474 3.844-22.247 4.957-23.77.664-.908 2.76-2.016 4.658-2.463 6.239-1.469 6.951-1.274 6.951 1.904m654 18.156c-10.725 7.096-19.869 13.469-20.321 14.163-.487.748 3.677 19.314 10.244 45.683 6.086 24.432 10.907 44.581 10.713 44.774-.193.193-2.328-1.65-4.744-4.095-8.357-8.462-49.416-47.817-55.493-53.19l-6.101-5.395-20.399 11.95c-11.219 6.572-20.931 12.306-21.582 12.741-.841.563 1.137 5.555 6.855 17.292 17.968 36.883 32.765 70.912 52.934 121.73 10.706 26.977 12.641 31.153 14.209 30.662 1.456-.456 31.287-16.024 32.521-16.972.548-.421-12.822-28.358-33.215-69.404-10.517-21.166-19.248-38.758-19.402-39.094-.155-.335 7.451 7.005 16.901 16.311 21.384 21.058 40.77 38.081 61.797 54.264 8.935 6.877 16.423 12.503 16.64 12.503s1.685-.787 3.262-1.75l2.867-1.75-10.809-47c-5.944-25.85-12.425-53.687-14.4-61.859s-3.452-15-3.28-15.171c.171-.171 3.234 4.456 6.807 10.282a1958 1958 0 0 0 13.858 22.17 8648 8648 0 0 1 16.805 26.578c5.193 8.25 13.257 20.85 17.92 28 4.662 7.15 8.88 13.674 9.373 14.497.744 1.242 1.975.739 7.218-2.952 12.107-8.522 39.822-29.382 39.807-29.962-.008-.321-4.395-6-9.75-12.622-5.354-6.621-14.412-17.815-20.127-24.877-14.874-18.375-38.636-50.857-60.608-82.85-10.45-15.216-19.45-27.641-20-27.612s-9.775 5.859-20.5 12.955M442.422 1574.75c-9.625 17.769-31.873 58.097-38.203 69.25-3.59 6.325-9.313 16.45-12.719 22.5s-12.841 22.442-20.966 36.426l-14.774 25.425 1.87 1.404c2.787 2.093 41.559 25.246 42.263 25.239.334-.004 10.006-18.566 21.494-41.25 20.195-39.877 43.477-85.204 57.725-112.383 3.788-7.226 6.888-13.37 6.888-13.653s-6.187-3.999-13.75-8.257c-7.562-4.259-15.894-9.027-18.515-10.597s-5.172-2.854-5.669-2.854-3.037 3.938-5.644 8.75m68.754 35.254c-12.514 2.655-24.823 12.395-30.903 24.454-6.599 13.089-7.631 28.612-3.248 48.837 1.048 4.837 4.899 17.662 8.557 28.5 5.539 16.412 6.734 21.137 7.148 28.272.425 7.332.197 9.156-1.585 12.649-1.146 2.246-3.612 5.028-5.482 6.183-4.531 2.801-12.748 2.79-20.276-.027-4.243-1.588-7.52-3.937-12.904-9.25-3.97-3.917-8.895-9.755-10.946-12.973l-3.728-5.852-3.452 5.73a1020 1020 0 0 0-7.921 13.479l-4.47 7.75 2.767 3.329c6.836 8.224 17.276 18.498 22.874 22.51 16.355 11.721 37.484 16.868 54.594 13.3 8.227-1.716 17.216-6.461 23.819-12.574 6.683-6.187 11.906-14.714 14.59-23.821 2.55-8.655 2.364-25.38-.408-36.677-2.057-8.379-10.621-37.128-13.502-45.323-2.408-6.851-3.984-17.451-3.368-22.654.707-5.973 3.811-11.351 7.715-13.37 4.415-2.284 11.796-1.857 17.56 1.015 2.75 1.371 8.384 5.611 12.521 9.422l7.522 6.931 5.425-11.015 5.425-11.015-6.203-5.838c-15.582-14.664-30.884-21.794-48.297-22.503-5.225-.213-11.446.026-13.824.531m101.92 42.742c-3.672 7.569-32.792 61.854-51.903 96.754-9.637 17.6-21.669 39.743-26.736 49.207l-9.214 17.208 7.129 2.998a5145 5145 0 0 1 15.208 6.438l8.081 3.439 9.919-19.374c5.456-10.655 10.37-19.36 10.92-19.343s7.975 2.626 16.5 5.798l15.5 5.769.349 3.43c.192 1.886-.139 9.505-.735 16.93s-1.203 15.938-1.349 18.918l-.265 5.419 22.5 7.22 22.5 7.22.684-3.639c.376-2.001 1.646-18.038 2.822-35.638 2.414-36.107 5.822-79.569 9.502-121.172 1.371-15.494 2.492-29.508 2.492-31.141 0-2.408-.521-3.1-2.75-3.655-1.513-.376-12.2-4.201-23.75-8.499s-21.922-8.091-23.049-8.428c-1.691-.505-2.451.218-4.355 4.141m831.202-2.239c-8.441 1.834-21.789 7.398-28.914 12.051-3.236 2.113-9.081 7.052-12.989 10.975-8.522 8.555-13.05 17.024-14.659 27.417-1.431 9.242-.022 17.995 4.311 26.798 3.996 8.116 13.926 18.735 23.298 24.913 3.935 2.594 14.58 8.239 23.655 12.544 21.684 10.286 27.707 13.472 32.384 17.135 4.088 3.2 7.561 9.452 7.588 13.66.034 5.127-2.179 10.203-6.112 14.02-7.977 7.742-22.768 10.586-39.36 7.569-4.95-.9-10.192-1.894-11.648-2.21l-2.649-.573 1.283 6.347c.705 3.491 2.04 10.671 2.965 15.955l1.683 9.608 8.183 1.143c11.062 1.546 20.728 1.436 30.978-.351 11.569-2.018 23.807-6.596 33.384-12.49 10.022-6.168 20.969-17.521 25.201-26.137 1.724-3.51 3.845-9.756 4.713-13.881 2.578-12.254.488-24.731-6.201-37.02-3.481-6.397-14.162-16.621-22.352-21.397-3.554-2.072-16.096-7.796-27.871-12.722-11.776-4.925-23.779-10.469-26.672-12.32s-6.526-5.024-8.072-7.051c-2.138-2.802-2.898-5.04-3.173-9.338-.281-4.385.091-6.374 1.66-8.872 2.77-4.411 9.446-9.044 15.524-10.773 2.785-.792 9.564-1.672 15.064-1.956s9.916-.887 9.814-1.341-.909-5.074-1.794-10.268c-.884-5.193-1.844-10.229-2.131-11.192-.456-1.525-1.833-1.74-10.706-1.671-5.601.044-12.974.687-16.385 1.428m-86.798 31.701c-16.925 4.721-68.389 17.618-85 21.3-6.6 1.464-12.119 2.78-12.265 2.925s.866 5.5 2.25 11.899 2.515 11.875 2.515 12.17c0 .632.175.595 19.349-4.082 8.167-1.992 15.212-3.239 15.655-2.771 1.247 1.317 16.004 64.587 24.922 106.851 4.41 20.9 8.303 39.85 8.652 42.112s1.011 4.722 1.472 5.468c.679 1.099 5.698.153 26.425-4.976 21.528-5.328 25.512-6.593 25.116-7.969-.45-1.56-2.061-7.756-15.767-60.635-3.279-12.65-8.582-32.9-11.783-45-8.188-30.949-12.46-48.415-11.962-48.913.235-.234 7.625-2.097 16.424-4.14s16.161-3.856 16.362-4.029c.502-.433-6.964-23.375-7.74-23.785-.344-.182-6.925 1.427-14.625 3.575m-649.02 2.042c-.252.688-4.306 17.9-9.01 38.25s-14.38 60.142-21.502 88.426-12.841 51.518-12.709 51.63c.222.188 38.473 9.172 43.416 10.197 1.812.376 2.352-.19 3.242-3.401.587-2.119 3.165-14.582 5.729-27.696l4.661-23.845 3.097.635c1.703.349 6.583 1.11 10.846 1.692 13.532 1.847 28.662-1.332 39.036-8.204 2.516-1.667 7.223-5.861 10.459-9.32 7.021-7.506 13.631-20.171 15.751-30.178 1.956-9.234 1.923-26.009-.067-33.792-3.82-14.943-14.031-29.296-26.786-37.651-3.378-2.213-9.58-5.353-13.781-6.978-7.198-2.783-44.173-11.015-49.478-11.015-1.346 0-2.653.563-2.904 1.25m-87.442 43.385c-3.329 23.026-6.333 43.553-6.676 45.615s-1.127 3.744-1.743 3.738c-1.309-.015-21.663-7.353-23.962-8.64-1.323-.741.519-5.281 11.914-29.362 7.414-15.667 16.262-34.504 19.663-41.86s6.335-12.92 6.519-12.366-2.387 19.849-5.715 42.875M1235 1709.232c-6.875 1.118-12.665 2.176-12.868 2.351-.202.176.612 5.629 1.809 12.118 5.349 29.009 13.382 71.911 15.69 83.799a4108 4108 0 0 1 2.99 15.5c.256 1.375-.968-.2-2.718-3.5s-8.665-15.45-15.365-27a18385 18385 0 0 1-26.853-46.5c-8.069-14.025-15.062-26.1-15.539-26.834-.717-1.101-4.584-.939-22.257.936-11.764 1.248-21.536 2.37-21.715 2.493-.18.123.821 9.378 2.223 20.565 3.829 30.548 15.273 132.661 17.328 154.618.426 4.552 1.115 8.312 1.53 8.355.415.042 7.728-.25 16.25-.649 13.499-.633 15.495-.941 15.495-2.391 0-.916-1.587-13.799-3.527-28.629-9.284-70.971-10.452-80.063-10.462-81.432-.006-.808 2.089 2.117 4.656 6.5 9.206 15.715 43.188 72.227 51.227 85.188 4.51 7.271 8.521 13.419 8.914 13.662.732.452 24.326-4.064 36.442-6.975 3.713-.893 6.746-1.911 6.74-2.265-.014-.954-4.148-22.915-16.971-90.142l-9.442-49.5c-6.681-35.018-8.441-42.531-9.935-42.401-.628.055-6.767 1.015-13.642 2.133m-415-.379c0 1.151-7.543 52.174-12.071 81.647-1.098 7.15-5.195 32.249-9.104 55.775-3.91 23.527-6.862 43.021-6.562 43.321.675.675 46.605 4.874 47.152 4.311.356-.367 6.585-48.072 6.585-50.435 0-.605 5.537-1.004 14.25-1.027l14.25-.038 7.99-2.777c4.395-1.527 10.56-4.338 13.7-6.246 3.14-1.907 8.463-6.472 11.827-10.144 6.859-7.486 12.099-17.385 14.425-27.255 2.16-9.165 1.975-24.709-.407-34.16-1.064-4.221-3.588-10.971-5.609-15-5.017-9.999-16.128-20.937-26.45-26.039-4.133-2.043-11.331-4.603-15.995-5.689-4.665-1.086-17.256-2.904-27.981-4.041-10.725-1.136-20.962-2.26-22.75-2.498s-3.25-.105-3.25.295m-65.804 11.805c1.483 1.563 3.731 5.092 4.996 7.842 1.975 4.297 2.289 6.547 2.229 16-.05 7.788-.691 13.389-2.195 19.183-4.568 17.597-12.347 27.265-23.954 29.769-1.775.384-4.096.421-5.158.084-1.641-.521-1.801-1.097-1.064-3.824.476-1.767 3.595-17.162 6.929-34.212s6.534-33.356 7.11-36.236l1.047-5.235 3.682 1.894c2.025 1.041 4.895 3.173 6.378 4.735M986 1723.691c-5.095.853-12.658 3.639-18 6.631-7.492 4.197-15.268 11.719-21.239 20.549-11.685 17.277-18.617 39.617-20.21 65.129-1.077 17.24 2.209 39.06 8.098 53.78 4.309 10.772 9.218 18.25 17.269 26.311 5.569 5.576 9.573 8.558 15.082 11.235 4.125 2.004 10.182 4.326 13.46 5.159S990.731 1914 996 1914c17.496 0 29.651-4.807 41.255-16.315 7.878-7.812 12.27-14.538 16.897-25.87 4.197-10.279 6.626-21.292 7.9-35.815 2.377-27.088-2.696-55.734-13.637-77-5.13-9.97-12.569-19.499-19.142-24.518-6.407-4.892-15.594-9.099-22.707-10.398-5.771-1.054-15.505-1.24-20.566-.393m107.713 1.821c-10.332.676-19.064 1.505-19.402 1.844s.136 12.885 1.056 27.88 2.798 49.989 4.174 77.764c3.016 60.883 3.951 76.858 4.524 77.293.492.372 28.207-.875 40.553-1.826l8.119-.625-.395-4.171c-6.009-63.554-10.834-118.25-12.805-145.171-1.37-18.7-2.501-34.112-2.514-34.25s-1.036-.186-2.273-.108c-1.237.079-10.704.695-21.037 1.37m-224.824 16.082c3.993 2.358 7.602 7.619 9.197 13.406.682 2.475 1.232 9.9 1.221 16.5-.013 8.132-.591 14.256-1.793 19-3.151 12.441-8.562 20.953-15.6 24.544-2.109 1.076-5.68 1.956-7.935 1.956h-4.102l.573-4.25c.315-2.338 1.485-12.575 2.6-22.75s2.91-25.674 3.989-34.443 1.961-16.258 1.961-16.644c0-1.11 6.417.63 9.889 2.681m134.511 8.453c3.777 3.316 5.837 8.417 7.654 18.953.616 3.575 1.363 20 1.659 36.5.568 31.62-.613 55.781-3.3 67.5-.82 3.575-2.628 8.223-4.018 10.329-4.472 6.774-12.74 8.334-18.821 3.55-3.806-2.993-6.613-9.163-8.104-17.81-2.065-11.975-2.729-36.793-1.58-59.094 1.21-23.495 3.296-40.54 6.134-50.118 1.474-4.972 2.859-7.425 5.507-9.75 2.675-2.349 4.498-3.107 7.469-3.107 2.955 0 4.792.756 7.4 3.047"/></svg>