<svg xmlns="http://www.w3.org/2000/svg" viewBox="0 0 2048 2048"><path fill-rule="evenodd" d="M1022.259 235.787c-5.519.862-5.259-5.023-5.259 118.981 0 114.323 0 114.323 2.455 116.777 2.944 2.945 6.475 3.143 9.684.542 2.361-1.912 2.361-1.912 2.361-116.895 0-109.667-.084-115.075-1.815-116.988-2.038-2.251-4.129-2.932-7.426-2.417m-130.86 58.546c-1.887 1.623-2.676 3.222-2.591 5.25.066 1.605 6.622 21.817 14.568 44.917 26.489 77.008 45.632 131.984 46.486 133.5 2.456 4.359 10.3 3.336 12.172-1.589 1.112-2.926-3.18-16.388-28.508-89.411-7.535-21.725-17.059-49.4-21.164-61.5-10.806-31.854-10.237-30.55-14.015-32.128-4.146-1.733-3.753-1.787-6.948.961m257.408-.583c-2.508 2.921-2.592 3.145-16.345 43.578-11.981 35.223-21.144 61.986-40.535 118.402-5.429 15.793-6.112 18.569-5.111 20.765 1.435 3.15 5.222 4.963 8.598 4.116 2.836-.712 5.238-4.762 8.075-13.611.969-3.025 4.827-14.275 8.574-25 31.96-91.498 47.922-139.203 47.931-143.25.012-5.612-7.701-9.059-11.187-5m-382.152 51.079c-.91 1.006-1.655 3.224-1.655 4.93 0 3.08 11.765 18.009 71.032 90.131 7.407 9.014 15.493 18.937 17.968 22.049 13.359 16.801 22.691 27.196 24.918 27.755 2.644.664 6.763-1.199 8.38-3.789 1.664-2.664.07-6.105-6.511-14.054a3677 3677 0 0 1-13.936-16.973A83205 83205 0 0 1 796.16 368c-9.604-11.825-18.344-22.288-19.422-23.25-2.572-2.297-7.972-2.254-10.083.079m505.765-.057c-1.779 1.478-16.856 19.756-48.534 58.841-4.062 5.012-15.261 18.679-24.886 30.37-39.918 48.489-38.715 46.859-37.371 50.626 1.672 4.684 5.374 6.478 9.834 4.767 1.684-.646 39.973-46.99 104.211-126.135 9.138-11.259 10.119-14.207 6.012-18.067-2.774-2.605-6.423-2.763-9.266-.402m-615.785 82.301c-5.135 4.038-2.734 10.326 5.203 13.625 2.014.837 23.462 10.751 47.662 22.031s47.825 22.203 52.5 24.272 15.562 6.966 24.194 10.881S803.039 505 804.444 505c5.1 0 8.324-6.253 5.306-10.289-.687-.92-6.65-4.096-13.25-7.057s-30.675-14.145-53.5-24.851a37600 37600 0 0 0-46.5-21.787c-2.75-1.276-9.5-4.44-15-7.031-22.097-10.407-20.86-10.063-24.865-6.912m715.865 4.547c-32.318 15.243-77.52 36.223-112 51.983-19.752 9.028-20.813 9.617-22.131 12.272-1.632 3.289.122 7.981 3.458 9.249 3.255 1.238 7.649-.602 61.173-25.621 7.425-3.47 25.65-11.939 40.5-18.818s31.05-14.395 36-16.7c12.07-5.62 15.5-8.284 15.5-12.036 0-3.505-3.105-6.952-6.25-6.94-1.237.004-8.55 2.98-16.25 6.611m54.656 129.447c-31.039 4.071-51.623 27.307-59.736 67.433-2.209 10.926-3.057 44.385-1.45 57.222 2.672 21.34 9.473 41.222 18.78 54.897 14.28 20.981 40.203 32.961 67.182 31.047 9.311-.661 32.164-5.941 35.818-8.275 2.25-1.437 2.25-1.437 2.25-36.281s0-34.844 4-37.491c3.538-2.342 4-3.101 4-6.574 0-2.16-.427-4.191-.949-4.514-1.252-.773-60.15-3.588-61.222-2.925-.456.282-.829 2.475-.829 4.873 0 4.361 0 4.361 7.206 6.691 6.666 2.155 7.271 2.585 8.07 5.737.474 1.874.719 15.927.543 31.229-.319 27.822-.319 27.822-3.034 30.535-2.222 2.221-3.615 2.714-7.669 2.714-19.764 0-32.34-36.734-32.313-94.385.015-31.009 3.426-54.726 9.936-69.084 6.501-14.339 17.333-20.837 27.59-16.552 7.055 2.948 13.336 14.309 19.113 34.573 1.891 6.633 3.717 12.511 4.057 13.062.341.55 2.179 1.001 4.085 1.001 2.684 0 3.651-.508 4.287-2.25.452-1.237 1.592-12.375 2.534-24.75 1.712-22.5 1.712-22.5-1.597-25.311-4.442-3.775-15.935-9.207-23.308-11.015-7.96-1.953-19.521-2.632-27.344-1.607m-140.656.565c-12.972 2.004-25.492 8.377-35.089 17.862-18.452 18.237-27.554 48.552-26.123 87.006 1.281 34.413 9.809 58.506 26.715 75.471 20.435 20.506 48.682 25.154 83.085 13.672l12.412-4.143.263-33.188c.264-33.188.264-33.188 2.885-35.25 1.442-1.134 3.236-2.062 3.987-2.062.965 0 1.365-1.418 1.365-4.844 0-4.844 0-4.844-15.159-5.5-8.337-.361-22.062-.656-30.5-.656-15.341 0-15.341 0-15.341 4.342 0 4.242.097 4.37 4.25 5.609 2.338.698 5.487 1.906 7 2.684 2.75 1.416 2.75 1.416 2.75 31.391 0 28.512-.096 30.07-1.975 31.949-4.942 4.942-12.282 3.787-19.536-3.074-8.809-8.331-14.395-22.9-17.599-45.901-1.768-12.695-1.839-61.447-.107-73.22 2.916-19.813 9.039-36.067 16.127-42.809 7.747-7.37 17.677-7.384 25.024-.037 4.329 4.329 8.223 13.481 13.05 30.67 1.665 5.932 3.588 11.141 4.272 11.575.684.435 2.493.797 4.019.806 1.973.011 3.014-.635 3.604-2.235.455-1.237 1.621-12.041 2.59-24.009 1.329-16.422 1.48-22.097.615-23.139-1.873-2.258-17.119-9.476-23.584-11.167-6.045-1.581-23.436-2.662-29-1.803m254.612.894c-17.422 4.863-30.062 17.798-34.776 35.587-2.225 8.396-2.23 26.008-.01 35.128 4.542 18.658 10.852 28.08 35.674 53.259 26.831 27.217 33.573 38.091 34.734 56.02.443 6.838.187 8.792-1.734 13.258-3.536 8.22-10.714 13.211-19 13.211-13.548 0-24.738-14.545-33.459-43.489-1.988-6.6-4.359-12.562-5.269-13.25-2.26-1.708-5.761-1.571-7.301.285-1.217 1.466-4.842 35.824-4.932 46.735-.039 4.77-.039 4.77 7.157 9.426 8.431 5.453 19.973 10.502 30.677 13.419 10.872 2.963 30.44 3.674 39.056 1.42 12.725-3.33 21.018-9.455 27.031-19.965 4.864-8.502 6.317-16.866 5.745-33.07-.553-15.638-2.467-24.032-8.056-35.329-6.953-14.053-12.266-20.74-35.095-44.171-18.358-18.841-23.168-24.815-27.587-34.257-6.901-14.746-6.351-27.411 1.53-35.293 3.361-3.361 5.298-4.447 8.893-4.986 8.897-1.334 15.667 1.616 20.767 9.049 2.687 3.918 7.052 15.153 10.483 26.987 2.213 7.633 3.793 9.5 8.04 9.5 2.636 0 3.568-.522 4.282-2.399.501-1.32 1.616-11.107 2.477-21.75s1.749-21.055 1.973-23.137c.533-4.955-.621-5.643-16.412-9.782-10.545-2.765-14.612-3.327-26-3.594-9.79-.229-14.98.097-18.888 1.188m-1108.445.141c-.896.896-.823 7.552.098 8.941.404.609 2.835 2.03 5.401 3.156s5.326 3.104 6.133 4.392c1.252 2 1.552 16.141 2.043 96.279.656 107.05 1.305 98.634-7.945 103.159-5.397 2.641-5.397 2.641-5.397 8.069s0 5.428 3.25 4.825c1.788-.331 17.425-2.944 34.75-5.807 31.5-5.204 31.5-5.204 31.5-10.179 0-4.974 0-4.974-5.5-5.752-3.025-.427-6.625-1.607-8-2.621-2.5-1.844-2.5-1.844-2.761-44.987l-.26-43.142h10.496c10.497 0 10.497 0 12.933 3.75 1.34 2.063 3.884 7.237 5.653 11.5 3.216 7.75 3.216 7.75 7.078 7.75S526 702 526 670.519s0-31.481-2.574-32.127c-3.621-.909-7.045.95-7.876 4.278-1.308 5.234-6.627 17.09-8.346 18.603-1.115.981-5.075 1.743-11.454 2.206l-9.75.708V578h12.429c9.963 0 12.74.312 13.999 1.571 2.78 2.78 6.21 9.623 11.569 23.085 5.237 13.156 5.237 13.156 9.172 13.532 2.164.206 4.137.173 4.383-.073.971-.971.416-50.306-.587-52.181-1.003-1.873-2.64-1.934-52.334-1.934-28.213 0-51.598.3-51.964.667m406.587.827c-29.077 5.272-44.183 30.238-37.694 62.298 3.926 19.397 12.352 30.727 41.698 56.072 18.437 15.922 24.756 25.367 25.516 38.136.746 12.532-2.536 19.797-10.86 24.044-5.207 2.656-13.93 2.611-19.535-.102-8.626-4.177-15.995-15.805-21.824-34.442-3.128-10-3.128-10-6.973-10.318-2.115-.175-4.221.057-4.679.515-.804.804-4.903 38.237-4.903 44.776 0 2.954.511 3.458 6.435 6.346 10.884 5.308 19.632 7.316 34.455 7.913 23.965.964 39.84-3.886 52.001-15.886 15.664-15.457 17.169-44.449 3.482-67.083-4.428-7.324-18.797-22.435-36.238-38.113-18.186-16.347-26.066-28.617-26.106-40.65-.026-7.876 1.554-12.499 5.62-16.448 5.029-4.884 12.51-6.527 18.794-4.127 8.723 3.331 13.949 11.792 19.657 31.825 2.208 7.75 2.208 7.75 7.035 7.75 4.198 0 4.889-.293 5.301-2.25.557-2.643 3.589-38.095 3.571-41.75-.013-2.36-.615-2.635-10.76-4.914-23.012-5.168-31.485-5.86-43.993-3.592m-294.609 1.988c-.355.925-.645 3.114-.645 4.865 0 2.922.416 3.331 5.064 4.982 9.778 3.473 8.902-3.34 9.186 71.421.451 118.559.619 109.7-2.133 112.627-1.31 1.394-4.346 3.342-6.746 4.329-4.311 1.772-4.364 1.853-4.367 6.683-.004 4.89-.004 4.89 4.746 4.337 2.612-.303 16.9-1.748 31.75-3.21s27.973-2.849 29.161-3.084c1.868-.368 2.123-1.005 1.88-4.679-.156-2.339-.341-4.539-.412-4.889s-2.162-.942-4.648-1.315c-2.485-.372-5.615-1.661-6.955-2.863-2.436-2.186-2.436-2.186-2.731-37.936-.29-35.186-.263-35.75 1.705-35.735 4.563.035 3.539-2.228 19 41.985 6.444 18.425 12.534 35.105 13.535 37.067 3.315 6.501 2.571 6.376 27.227 4.548 24.994-1.853 66.005-4.068 103.045-5.565 13.644-.551 25.232-1.265 25.75-1.585 1.361-.841 1.243-48.161-.122-49.005-.586-.362-2.525-.384-4.31-.049-3.018.566-3.58 1.363-8 11.349-6.678 15.088-12.455 24.959-15.006 25.644-1.166.313-7.856.575-14.869.582L733 746v-78.068l10.733.284c10.733.284 10.733.284 16.067 10.534 5.19 9.974 5.426 10.25 8.767 10.25C772 689 772 689 772 661.067c0-26.396-.103-27.965-1.868-28.525-4.098-1.301-6.532.952-9.882 9.146-4.899 11.983-5.362 12.312-17.289 12.312H733v-75h13.432c13.432 0 13.432 0 15.366 2.75 2.96 4.211 5.179 8.793 9.804 20.25 4.24 10.5 4.24 10.5 8.192 10.801 3.027.231 4.11-.11 4.626-1.454.371-.965.36-11.766-.024-24.002-.597-19.041-.927-22.337-2.297-22.872-.879-.344-24.211-.301-51.849.095-50.25.72-50.25.72-50.25 5.107 0 3.316.427 4.514 1.75 4.903 5.287 1.556 10.744 5.118 11.371 7.422.374 1.375.724 38.993.779 83.595.112 91.263.956 81.984-7.834 86.206-4.388 2.108-4.477 2.111-8.665.258-2.328-1.03-4.919-2.927-5.759-4.215-.84-1.289-6.758-14.719-13.152-29.844s-13.648-31.316-16.12-35.979c-2.595-4.897-4.036-8.632-3.411-8.841.596-.198 3.751-2.366 7.011-4.817 13.681-10.284 21.047-26.853 21.015-47.273-.027-17.893-4.413-29.583-15.094-40.235-4.412-4.399-8.899-7.711-13.281-9.803-11.974-5.714-16.441-6.248-56.715-6.774-33.639-.439-36.657-.342-37.25 1.204M912 569.909c0 4.821.087 4.964 3.75 6.152 2.063.669 4.987 2.085 6.5 3.146 2.75 1.929 2.75 1.929 2.75 80.706 0 78.757-.001 78.778-2.1 80.677-1.155 1.046-3.967 2.588-6.25 3.428-3.882 1.429-4.17 1.802-4.458 5.768-.308 4.241-.308 4.241 33 3.978 33.308-.264 33.308-.264 33.609-3.85.343-4.102-.577-5.072-6.388-6.73-7.399-2.112-7.094-.47-7.703-41.434l-.547-36.75H1000v36.311c0 35.263-.059 36.376-2.057 38.519-1.131 1.215-4.022 2.734-6.423 3.376-3.768 1.008-4.45 1.605-4.964 4.347-1.266 6.751-2.849 6.447 33.606 6.447 32.948 0 32.948 0 32.643-4.711-.301-4.653-.361-4.727-4.805-5.987-2.475-.702-5.513-2.432-6.75-3.845-2.25-2.569-2.25-2.569-2.25-79.902 0-87.845-.754-80.545 8.628-83.513 4.872-1.542 4.872-1.542 4.872-6.042s0-4.5-32.5-4.5-32.5 0-32.801 4.656c-.297 4.594-.251 4.671 3.5 5.888 2.091.679 5.038 2.102 6.551 3.163 2.75 1.929 2.75 1.929 2.75 36.861V651h-35v-35c0-39.773-.406-37.862 8.53-40.112 4.569-1.15 4.569-1.15 4.269-5.769s-.299-4.619-33.049-4.883c-32.75-.263-32.75-.263-32.75 4.673m196 .051c0 4.927.026 4.968 4.037 6.169 2.22.665 5.145 2.237 6.5 3.493 2.463 2.283 2.463 2.283 2.463 80.396 0 51.382-.35 78.768-1.024 80.027-.593 1.108-3.327 2.583-6.5 3.505-5.476 1.592-5.476 1.592-5.476 5.862s0 4.27 21.161 4.929c37.259 1.16 85.61.83 86.53-.591.445-.687.964-11.487 1.154-24 .345-22.75.345-22.75-4.039-22.75s-4.383 0-10.682 13.392c-3.464 7.366-7.497 14.818-8.961 16.559-3.411 4.056-6.894 4.763-20.913 4.244l-11.25-.416V665h10.048c9.316 0 10.208.174 12.25 2.392 1.211 1.315 3.512 5.478 5.112 9.25 3.345 7.883 5.176 10.358 7.663 10.358 5.021 0 4.928.487 4.913-25.857-.007-13.554-.285-25.656-.616-26.893-.493-1.84-1.306-2.25-4.456-2.25-3.815 0-3.887.074-7.263 7.379-5.204 11.263-5.748 11.621-17.663 11.621h-10.013l.263-36.237c.252-34.911.333-36.25 2.195-36.608 1.063-.205 7.015-.054 13.228.334 11.296.706 11.296.706 13.458 4.203 1.189 1.924 4.726 9.169 7.86 16.099 4.714 10.425 6.163 12.756 8.393 13.5 1.907.635 3.167.506 4.308-.441 1.435-1.19 1.536-3.769.919-23.267-.382-12.061-.925-22.301-1.206-22.756s-23.434-.827-51.452-.827C1108 565 1108 565 1108 569.96M612.59 581.5c5.414 3.173 8.826 8.037 11.572 16.5 2.93 9.029 3.759 34.397 1.447 44.259-1.973 8.415-5.425 15.281-9.77 19.43-4.099 3.915-7.624 5.311-13.404 5.311C598 667 598 667 598 622.361s0-44.64 5.102-44.035c2.807.332 7.076 1.761 9.488 3.174M1158 779.07c-6.569 1.305-17.588 7.096-24.762 13.014-23.746 19.59-50.469 64.44-64.744 108.662-3.513 10.884-3.513 10.884-14.754 21.888-12.006 11.753-21.14 19.159-27.19 22.044-3.642 1.736-3.778 1.731-5.19-.198-3.228-4.411 1.199-18.715 15.579-50.338 6.345-13.952 6.572-18.226 1.163-21.859-2.645-1.777-4.796-2.283-9.711-2.283-6.314 0-6.314 0-7.404 4.25-1.658 6.462-7.857 22.405-11.762 30.25-6.358 12.771-38.876 42.44-45.225 41.262-3.563-.661-1.746-12.306 4.119-26.394 1.724-4.141 5.977-12.216 9.45-17.944 6.846-11.29 6.845-11.21.101-12.825-2.831-.677-2.831-.677.248-3.826s3.078-3.148.888-5.48c-7.158-7.618-19.717-11.939-31.579-10.864-23.81 2.157-47.823 17.904-63.397 41.571-9.576 14.553-34.434 36.631-40.298 35.791-1.639-.235-2.095-1.161-2.357-4.791-.454-6.276 1.251-14.235 6.534-30.5 4.548-14 4.548-14 13.251-23 21.919-22.665 29.523-31.115 39.161-43.52 20.81-26.783 27.301-47.091 16.788-52.527-1.545-.799-5.247-1.453-8.225-1.453-11.126 0-24.092 9.227-36.659 26.087-9.139 12.261-23.87 38.185-31.658 55.713-.074.165-2.872-.623-6.219-1.75-7.607-2.563-14.687-2.598-24.374-.12-10.255 2.623-20.154 7.801-29.576 15.469-6.437 5.24-9.417 6.904-16.288 9.097-11.919 3.805-23.509 5.496-37.699 5.5-16.061.005-25.777-1.119-60.711-7.024-15.95-2.696-34.376-5.423-40.946-6.06-13.676-1.325-42.349-.736-50.554 1.04-21.561 4.665-37 14.159-37 22.752 0 6.653 4.758 6.912 14.904.81 12.298-7.397 26.065-10.997 46.439-12.144 15.558-.875 34.537.93 67.157 6.386 27.858 4.66 28.119 4.684 51.5 4.663 21.917-.019 24.123-.189 32.75-2.526 5.087-1.378 9.248-2.255 9.246-1.949-.003.306-1.356 2.581-3.008 5.056-6.533 9.789-9.662 25.193-7.062 34.763 3.503 12.893 17.965 16.994 32.996 9.356 8.655-4.398 16.538-10.571 29.187-22.857 10.609-10.304 10.609-10.304 9.25-5.065-.747 2.881-1.359 8.86-1.359 13.287 0 9.492 1.866 13.902 7.062 16.689 4.303 2.307 12.48 2.38 18.168.161 6.377-2.487 16.493-9.253 23.404-15.653 3.373-3.125 6.325-5.681 6.559-5.681s.458 2.138.497 4.75c.099 6.503 2.385 11.443 6.879 14.868 3.457 2.634 4.476 2.879 11.857 2.851 7.048-.026 8.837-.425 14.081-3.141 7.764-4.022 16.538-10.652 26.715-20.189 4.483-4.202 7.782-6.739 7.331-5.639s-1.035 5.605-1.299 10.012c-.836 13.948 3.5 19.486 15.246 19.474 9.592-.009 20-5.707 34.56-18.917 4.285-3.888 8.018-7.069 8.295-7.069.278 0 .087 1.46-.425 3.243-1.416 4.937-1.083 9.824.979 14.363 2.686 5.915 8.998 8.862 17.357 8.104 10.651-.966 19.946-6.708 39.56-24.436 6.888-6.227 6.888-6.227 6.906-1 .03 8.599 1.956 13.7 7.123 18.861 5.273 5.266 9.63 6.863 18.645 6.835 14.241-.045 26.688-5.985 43.06-20.552 8.178-7.276 8.178-7.276 7.706-3.087-1.075 9.539 4.033 17.315 12.971 19.743 7.638 2.076 20.28-1.541 31.103-8.901 4.84-3.291 16.586-15.279 23.443-23.926 3.599-4.539 6.677-8.121 6.838-7.959.162.161-2.5 7.25-5.914 15.753-6.207 15.459-6.207 15.459-16.642 20.677-5.739 2.87-14.964 7.1-20.5 9.4-30.458 12.653-53.983 26.433-66.885 39.177-8.825 8.717-12.687 15.928-13.42 25.055-.672 8.37.88 12.723 6.206 17.411 13.25 11.663 40.421 10.195 62.296-3.366 9.583-5.941 26.65-22.74 34.944-34.395 8.004-11.247 18.216-29.229 24.842-43.743 6.015-13.174 6.368-13.536 22.452-23.025 48.513-28.621 104.696-41.651 145.61-33.77 16.405 3.16 32.045 10.074 43.031 19.023 4.156 3.386 6.395 4.515 8.951 4.515 6.756 0 9.467-6.858 5.782-14.625-3.769-7.943-20.524-18.098-36.874-22.349-31.703-8.245-77.869-2.947-120.562 13.835-13.381 5.26-38.201 17.431-48.938 23.997-3.575 2.186-6.59 3.885-6.701 3.774s5.177-13.65 11.75-30.088S1255 871.094 1255 870.406c0-1.897-6.727-3.741-13.96-3.828-6.133-.074-6.553.074-8.319 2.922-11.904 19.203-16.563 26.113-24.401 36.194-16.413 21.108-35.224 38.306-41.899 38.306-2.59 0-4.421-2.578-4.421-6.224 0-11.651 15.598-42.136 30.236-59.096 3.038-3.519 4.662-6.182 4.109-6.735-1.305-1.305-10.696-2.945-16.861-2.945-5.244 0-5.244 0-15.682 14.75-5.741 8.112-11.585 16.692-12.987 19.065-3.48 5.889-15.797 19.934-23.215 26.47-15.304 13.485-23.702 18.063-32.158 17.528-4.742-.3-5.033-.493-7.192-4.775-2.581-5.118-2.901-12.736-.953-22.683 1.182-6.037 1.344-6.258 9.203-12.59 46.499-37.46 84.414-88.296 84.488-113.281.032-10.776-9.911-17.011-22.988-14.414m8.384 12.166c1.569 2.503-1.434 13.184-6.823 24.264-6.184 12.716-20.656 34.083-31.834 47-9.013 10.417-30.752 32.5-31.993 32.5-1.128 0 6.58-17.788 16.25-37.5 17.953-36.601 42.724-69.491 51.414-68.267 1.044.147 2.387 1.048 2.986 2.003M909.8 803.2c.66.66 1.2 1.958 1.2 2.884 0 3.496-8.233 17.84-16.707 29.107C885.012 847.532 866.452 869 865.064 869c-.936 0 10.279-21.594 17.324-33.358C893.48 817.12 904.729 802 907.416 802c.651 0 1.724.54 2.384 1.2m126.943 26.884c-4.282 2.494-7.33 14.616-5.122 20.371 1.586 4.133 12.61 6.037 18.179 3.14 10.113-5.262 10.476-16.818.7-22.313-4.237-2.383-10.75-2.949-13.757-1.198m-203.797 49.862c1.929 1.929 1.914 2.032-1.658 11.25-3.236 8.352-4.638 10.474-13.697 20.733-16.239 18.392-34.106 32.857-41.212 33.365-2.83.202-2.884.108-3.178-5.521-.359-6.874 2.247-14.028 9.096-24.965C794.99 894.539 814.923 878 826.66 878c2.967 0 4.956.616 6.286 1.946m131.051 1.67c2.202 1.989 4.003 3.966 4.003 4.392s-1.036 1.035-2.302 1.353c-1.296.325-6.142 5.198-11.1 11.162-22.41 26.959-45.634 47.319-52.812 46.301-2.12-.3-2.279-.786-2.184-6.665.088-5.459.75-7.617 4.755-15.5 12.996-25.578 34.538-44.464 50.89-44.615 4.081-.038 5.309.464 8.75 3.572M1193 963.66c0 1.483-10.708 20.474-16.543 29.34-16.595 25.214-38.019 42.86-56.065 46.177-5.398.993-6.561.902-10-.777-2.579-1.259-4.531-3.208-5.785-5.776-1.646-3.373-1.744-4.518-.752-8.817 2.412-10.448 13.337-22.03 31.645-33.546 6.731-4.234 24.936-13.295 42-20.904 14.392-6.418 15.5-6.826 15.5-5.697m-402.5 57.995c-7.106 1.135-19.588 4.755-27 7.829-19.934 8.27-35.588 19.563-55.17 39.797-34.591 35.742-63.329 88.136-82.671 150.719-7.074 22.889-14.372 58.527-17.713 86.5-1.774 14.85-2.344 53.514-1.029 69.81 5.781 71.632 32.309 129.941 78.159 171.792 33.604 30.673 74.146 49.905 120.362 57.096 16.954 2.637 51.996 3.134 67.562.957 30.751-4.302 53.814-11.663 81-25.853 20.491-10.696 33.916-20.07 49.448-34.529l7.948-7.399-6.547-10.437c-3.601-5.74-7.348-12.012-8.325-13.937-.978-1.925-1.933-3.674-2.121-3.887-.189-.213-4.294 3.356-9.123 7.931-17.33 16.417-31.891 26.774-51.28 36.473-30.443 15.228-57.761 21.74-91.5 21.814-19.71.042-28.843-.992-47-5.322-51.674-12.326-94.218-42.297-124.923-88.009-7.369-10.969-19.472-35.596-24.081-49-12.508-36.368-17.639-74.876-15.484-116.219 1.107-21.26 2.698-33.777 7.568-59.578 16.727-88.602 58.763-163.55 111.483-198.772 18.966-12.67 32.903-17.406 53.437-18.159 21.516-.789 39.003 3.333 60.963 14.372 20.459 10.285 37.939 23.201 59.446 43.926 31.801 30.645 56.276 64.922 79.035 110.686 12.233 24.599 12.86 25.631 13.957 22.982.632-1.525 3.597-7.025 6.589-12.221 5.441-9.449 5.441-9.449 1.829-15.983-28.883-52.26-52.332-84.491-84.782-116.534-35.847-35.398-71.421-56.827-108.039-65.077-6.9-1.555-35.731-2.768-41.998-1.768m443.398 25.451c-10.62 1.371-28.761 6.433-39.379 10.988-41.463 17.785-87.611 57.476-124.805 107.343-31.478 42.204-54.942 86.233-71.105 133.429-10.621 31.012-15.292 52.833-17.687 82.634-6.253 77.806 21.784 149.219 76.574 195.04 34.952 29.232 78.028 47.83 124.931 53.939 17.328 2.258 48.493 2.072 65.073-.387 50.561-7.5 93.491-29.533 129.062-66.241 62.082-64.064 84.345-164.217 61.859-278.278-12.499-63.405-34.544-118.247-64.924-161.513-40.917-58.274-87.104-83.735-139.599-76.954m38.602 21.311c45.181 11.011 88.781 58.359 118.402 128.583 19.796 46.932 32.098 107.489 32.098 158 0 30.994-3.819 60.525-11.186 86.5-6.231 21.972-13.561 39.334-23.939 56.701-30.488 51.023-77.629 85.729-133.409 98.217-52.682 11.795-109.464.945-156.655-29.936-29.901-19.566-52.638-45.595-68.992-78.982-16.531-33.749-23.989-73.586-20.874-111.5 5.19-63.182 29.675-127.998 71.396-189.005 20.29-29.668 48.747-60.673 74.659-81.343 27.091-21.61 55.559-35.028 82-38.649 8.69-1.19 29.053-.401 36.5 1.414m-119.822 82.551c-2.591 4.386-6.295 8.561-10.67 12.026-3.884 3.076-3.884 3.076-5.89-1.459-1.103-2.494-2.446-4.535-2.984-4.535s-1.525 1.653-2.191 3.674c-.667 2.021-2.325 6.104-3.685 9.074-2.472 5.399-2.472 5.399-4.918 3.102-2.04-1.917-2.594-2.058-3.34-.85-1.56 2.524-3.256 15.137-2.608 19.399.343 2.256.733 4.944.866 5.975.187 1.447-.942 2.265-4.957 3.593-6.59 2.178-11.562 5.955-13.66 10.378-.903 1.901-1.641 3.843-1.641 4.315s3.487 1.671 7.75 2.665c4.263.993 8.795 2.224 10.072 2.735 2.322.929 2.322.929.381 3.684-2.991 4.244-5.846 10.4-6.561 14.141-1.458 7.635 3.294 15.115 9.601 15.115 2.724 0 2.917.225 2.303 2.672-.369 1.47-3.619 8.558-7.222 15.75-9.457 18.88-15.033 31.591-18.408 41.97-12.712 39.092-9.348 71.421 10.243 98.425 2.267 3.126 9.884 11.308 16.926 18.183 12.167 11.879 13.286 13.32 22.529 29 5.348 9.075 12.606 20.503 16.128 25.397 6.402 8.896 6.402 8.896 3.871 17-2.961 9.477-10.818 26.077-13.94 29.45-4.66 5.035-9.256 6.409-23.825 7.125-10.602.52-14.289 1.073-16.5 2.474-2.923 1.851-6.286 5.469-6.326 6.804-.012.412 3.916.755 8.728.761 4.813.006 10.332.273 12.265.593 3.514.581 3.514.581-1.405 5.501-2.706 2.705-4.723 5.115-4.483 5.355.922.922 15.711-1.72 22.717-4.058 6.158-2.055 15.808-6.152 22.156-9.407.985-.505 3.542.566 7.444 3.118 3.27 2.138 6.307 3.887 6.75 3.887 1.347 0 .911-2.371-1.194-6.5-1.1-2.158-2-4.02-2-4.139s2.475.039 5.5.351 5.5.237 5.5-.168c0-2.148-4.127-7.149-8.834-10.706-6.501-4.912-6.559-4.383 2.455-22.445 5.587-11.194 7.245-13.643 11.365-16.785 2.653-2.023 6.7-5.714 8.994-8.202s4.475-4.384 4.849-4.214c.373.169 4.557 2.886 9.296 6.036 9.506 6.319 8.806 5.048 11.442 20.772 1.752 10.449 1.833 24.901.151 27.075-3.385 4.377-6.664 5.329-20.288 5.893-12.73.527-13.459.675-17.502 3.541-2.321 1.645-4.883 4.004-5.696 5.241-1.476 2.25-1.476 2.25 10.869 2.25s12.345 0 9.226 2.849c-2.96 2.703-6.885 8.926-6.116 9.696.198.197 3.68-.329 7.738-1.168 7.646-1.583 15.99-4.636 29.317-10.728 7.41-3.387 7.942-3.487 11.628-2.186 5.037 1.777 15.106 3.027 15.106 1.875 0-1.835-3.232-5.402-7.646-8.439-2.862-1.968-5.256-4.673-6.434-7.267-3.055-6.729-2.698-7.632 3.021-7.632 2.718 0 5.218-.448 5.556-.996.917-1.483-3.868-5.476-8.325-6.947-3.857-1.273-3.92-1.375-4.542-7.321-.346-3.316-.63-10.442-.63-15.835 0-9.805 0-9.805 6.02-16.587 3.311-3.73 6.533-8.202 7.161-9.938.889-2.457 2.046-3.423 5.23-4.362 11.873-3.504 24.056-13.735 30.099-25.276 2.98-5.692 2.98-5.692 5.563-.594s2.583 5.097 6.169 1.948c4.02-3.529 3.58-4.036 5.335 6.158.355 2.063 1.069 3.75 1.587 3.75 1.805 0 6.994-12.972 8.482-21.205 1.707-9.442 1.168-21.912-1.192-27.559-.814-1.949-1.304-3.72-1.088-3.936.805-.804 6.697 7.655 9.582 13.755 1.643 3.473 3.52 8.819 4.171 11.88 1.184 5.565 1.184 5.565 3.253 1.065 3.016-6.562 3.457-20.615.887-28.229-1.919-5.683-1.919-5.683 1.016-3.977 5.05 2.935 18.604 18.082 23.187 25.912 2.412 4.121 4.915 9.698 5.562 12.393.646 2.696 1.519 4.901 1.939 4.901 1.137 0 5.625-10.705 7.127-17 2.133-8.936 1.674-27.042-.934-36.846-2.296-8.632-5.759-16.452-9.589-21.654-4.171-5.664-3.902-5.862 2.174-1.601 7.717 5.413 19.793 17.614 26.078 26.347 2.67 3.711 5.153 6.448 5.518 6.084 1.857-1.858-.646-24.486-3.908-35.328-3.982-13.238-13.59-27.805-23.772-36.044-3.347-2.707-9.808-6.811-14.359-9.119s-8.109-4.361-7.907-4.563c.899-.9 16.816 1.83 22.014 3.774 9.589 3.588 21.832 14.254 29.793 25.955 1.672 2.458 1.698 2.387 1.75-4.706.071-9.846-1.437-16.352-6.018-25.949-8.795-18.425-24.519-28.492-50.43-32.287-12-1.757-12-1.757-5.5-2.594 12.755-1.642 36.841.327 54.255 4.437 2.066.487 3.943.583 4.171.213.73-1.18-12.702-19.344-18.926-25.594-16.692-16.762-40.877-20.031-69.882-9.445-10.94 3.993-20.433 9.839-28.839 17.761-17.856 16.826-25.779 36.013-25.779 62.429 0 10.009 0 10.009-4.836 9.436-15.79-1.87-32.497-12.928-41.091-27.198-5.024-8.34-9.449-22.702-13.099-42.508-5.527-29.988-11.024-43.209-22.896-55.073-6.879-6.874-14.424-11.275-22.123-12.904-4.454-.943-4.454-.943 1.545-.665 4.136.192 8.785 1.423 14.965 3.961 10.137 4.162 14 4.515 19.325 1.764 3.915-2.022 5.922-4.591 7.276-9.312.698-2.436.478-3.022-1.468-3.908-2.279-1.039-2.281-1.061-.486-4.583 2.171-4.258 3.487-12.081 2.242-13.326-.528-.528-2.904-.292-5.784.575-8.301 2.498-8.36 2.457-7.272-5.113.669-4.655.613-7.317-.194-9.087-1.141-2.504-1.141-2.504-4.659.585-3.046 2.675-12.356 8.086-13.912 8.086-.293 0-.533-2.229-.533-4.953 0-4.677-1.574-10.047-2.945-10.047-.343 0-1.413 1.336-2.377 2.968M914.28 1180.25c-.531.688-1.965 3.364-3.186 5.947-1.804 3.816-2.006 5.098-1.077 6.836.63 1.176.996 2.252.814 2.391s-2.356 1.217-4.831 2.397c-17.573 8.374-33.839 31.359-45.063 63.679-5.222 15.034-6.736 17.968-11.986 23.228-8.516 8.533-23.376 11.678-55.451 11.734-25.306.044-28.077-.515-32.448-6.549-1.549-2.138-5.622-10.306-9.05-18.15-15.529-35.531-28.142-56.507-35.914-59.727-5.899-2.443-9.87 1.738-11.563 12.178-.602 3.714-.602 3.714-4.457 1.704-6.084-3.171-12.068-.333-12.068 5.723 0 1.207-.269 2.896-.597 3.752-.533 1.388-.909 1.397-3.451.082-3.868-2-6.167-1.855-8.751.553-2.744 2.556-3.611 5.962-2.879 11.304.529 3.859.34 4.325-2.383 5.888-5.397 3.098-6.161 8.545-2.643 18.864 2.245 6.584 2.245 6.584-.152 8.392-2.18 1.644-2.348 2.337-1.865 7.664.615 6.787 4.689 16.113 10.141 23.215 3.636 4.736 3.678 4.888 1.732 6.251-1.096.768-2.274 2.675-2.618 4.238-1.307 5.952 6.697 21.234 16.614 31.719 4.861 5.14 4.984 5.411 3.446 7.606-4.805 6.86 2.285 17.461 18.281 27.335 5.608 3.461 6.222 4.155 5.701 6.437-.321 1.408-.869 5.78-1.217 9.717-.589 6.647-.463 7.328 1.754 9.538 1.416 1.412 2.258 3.27 2.07 4.571-.192 1.33.691 3.198 2.25 4.757 1.412 1.412 2.567 3.446 2.567 4.521 0 2.253 3.346 5.955 5.381 5.955.799 0 1.851 1.865 2.495 4.424 1.236 4.905 4.984 8.576 8.759 8.576 1.574 0 2.376.586 2.397 1.75.039 2.135 1.662 4.286 4.941 6.546 1.798 1.239 4.546 1.704 10.081 1.704 7.609 0 7.609 0 10.813 4.944 4.006 6.183 9.295 10.421 16.399 13.139 5.115 1.958 5.723 2.549 8.5 8.263 3.741 7.698 10.234 27.662 10.234 31.466 0 2.083-1.364 4.226-5.081 7.983-2.794 2.824-4.845 5.517-4.556 5.984s3.653.426 7.476-.091c6.897-.934 6.994-.914 12.805 2.602 3.961 2.396 8.607 4.106 14.356 5.282 4.675.957 9.715 2.344 11.2 3.084 4.235 2.108 4.965 1.743 4.241-2.121-.65-3.465-.65-3.465 10.181-3.75s10.831-.285 6.988-4.535c-2.113-2.338-4.578-4.282-5.476-4.32-1.265-.055-1.182-.265.366-.93 3.575-1.536 6.962-1.05 10.787 1.549 3.125 2.123 5.9 2.788 16.603 3.976 7.068.784 14.064 1.887 15.546 2.451 3.777 1.436 3.884 1.373 3.228-1.905-.532-2.66-.291-2.994 2.625-3.639 1.766-.39 5.573-.711 8.461-.714 2.888-.002 5.25-.349 5.25-.772 0-1.547-6.165-5.898-9.781-6.902-2.045-.568-7.6-1.035-12.344-1.038s-10.045-.29-11.78-.637c-4.665-.933-11.379-8.375-16.499-18.288-4.071-7.882-8.596-21.126-8.596-25.159 0-.938 1.784-2.418 4.242-3.52 6.459-2.896 14.554-11.81 21.625-23.815 5.186-8.804 7.191-11.299 10.804-13.448 15.096-8.978 31.77-23.652 39.284-34.574 5.157-7.495 10.877-20.444 13.722-31.065 2.494-9.308 2.682-11.454 2.721-31 .038-19.227-.192-22.097-2.724-34-3.309-15.557-8.972-34.61-14.193-47.75-.511-1.288-.204-1.751 1.162-1.754 3.726-.007 8.089-3.727 9.883-8.425 1.688-4.421 1.666-13.302-.045-17.761-.455-1.185.458-1.667 4.106-2.167 2.581-.354 6.406-.643 8.501-.643 3.748 0 3.792-.045 2.819-2.837-1.589-4.557-6.095-9.153-10.407-10.612-3.953-1.339-4.006-1.423-4.531-7.203-.878-9.664-5.468-15.348-12.396-15.348-1.618 0-3.14-.936-4.231-2.601-1.451-2.214-2.22-2.518-5.166-2.04-2.543.412-4.123.041-5.954-1.399-2.855-2.246-5.544-2.521-6.942-.71m224.72 28.691c0 .518-.45 1.219-1 1.559s-1-.084-1-.941.45-1.559 1-1.559 1 .423 1 .941m-307.164 267.696c3.665.901 7.2 1.777 7.856 1.946 1.349.35 13.891 18.714 17.161 25.127 1.181 2.316 2.147 5.157 2.147 6.314 0 1.243-2.15 4.133-5.25 7.058-5.25 4.953-5.25 4.953-14.25 4.326-11.554-.806-14.67-2.128-17.834-7.567-3.046-5.235-6.608-18.76-7.386-28.041-.567-6.769-.567-6.769 3.826-8.763 5.357-2.43 5.455-2.433 13.73-.4"/></svg>