<svg xmlns="http://www.w3.org/2000/svg" viewBox="0 0 2048 2048"><path fill-rule="evenodd" d="M1280.684 143.399c-7.462 2.759-8.728 5.11-10.724 19.931-1.091 8.1-1.473 9.088-4.615 11.948-1.884 1.714-4.345 4.603-5.467 6.42-1.639 2.651-2.688 3.302-5.325 3.302-1.807 0-4.468-.932-5.918-2.073-3.46-2.721-3.394-6.42.275-15.427 2.005-4.924 2.511-7.198 1.706-7.668-1.865-1.088-25.799-5.523-44.616-8.268-41.799-6.097-74.128-8.012-122.442-7.252-19.832.312-41.233 1.056-47.558 1.653-82.553 7.794-157.021 29.245-211 60.78-21.428 12.518-46.565 31.686-59.596 45.445-7.331 7.74-17.708 20.839-17.039 21.508.516.516 4.745-1.058 28.635-10.662 24.196-9.727 33.969-13.242 55.562-19.981 35.096-10.953 73.587-18.48 116.453-22.772 24.75-2.478 96.413-2.455 119.283.037 47.036 5.127 94.641 17.049 127.122 31.836 6.094 2.774 11.98 5.226 13.08 5.448 1.612.326 2.582-.808 5-5.85 4.585-9.557 11.326-12.964 18.409-9.301 1.545.799 3.388 2.849 4.095 4.556 1.783 4.305.687 18.745-2.049 26.991-4.995 15.053-16.265 35.649-35.842 65.5-10.808 16.479-17.639 29.437-19.527 37.042-.814 3.277-2.649 17.208-4.077 30.958-7.52 72.408-17.538 141.5-20.517 141.5-2.487 0-5.513-4.852-9.354-15-2.394-6.325-6.699-16.675-9.567-23-9.814-21.648-17.873-42.512-26.885-69.601-9.588-28.82-14.616-40.096-24.702-55.399-12.284-18.637-30.857-34.226-47.805-40.126-9.478-3.3-11.698-3.442-20.018-1.286-24.185 6.267-47.495 28.789-62.554 60.44-2.74 5.76-8.903 22.397-13.696 36.972-9.298 28.278-13.773 39.42-25.709 64-4.139 8.525-9.028 20.382-10.864 26.348-3.319 10.788-3.372 10.875-9.338 15.633-3.3 2.632-8.6 6.35-11.777 8.262-5.778 3.477-5.778 3.477-12 2.057-24.28-5.539-55.154-21.187-76.97-39.01-10.817-8.837-26.795-26.192-33.967-36.893-9.222-13.76-14.319-23.59-18.297-35.288-5.246-15.429-6.877-25.458-6.926-42.609-.053-18.774 1.135-24.801 11.237-57 5.985-19.073 1.729-37.116-13.275-56.293-10.839-13.853-29.815-26.769-46.025-31.328-6.488-1.824-10.457-2.241-21-2.204-8.491.03-15.377.618-19.853 1.695-6.975 1.678-19.436 6.23-21.02 7.678-.481.439 1.956 2.227 5.414 3.973l6.288 3.174-11.394 4.461c-19.11 7.482-34.122 15.924-65.176 36.654-16.358 10.919-29.982 20.242-30.276 20.717-.728 1.179 5.608 2.845 13.767 3.619 3.713.353 6.75.876 6.75 1.163s-7.097 7.76-15.771 16.606-24.073 25.535-34.222 37.085c-10.148 11.55-26.413 28.969-36.145 38.709-12.922 12.933-17.245 17.836-16.028 18.179 3.408.961 12.844 2.583 18.287 3.144l5.621.58-8.247 12.194c-15.423 22.804-30.616 48.977-44.327 76.359-10.093 20.156-14.706 30.343-33.845 74.744-8.513 19.75-17.967 41.35-21.009 48C352.84 689.308 352.107 691 352.656 691c.303 0 3.767-1.669 7.698-3.71 5.311-2.757 9.86-6.416 17.715-14.25 17.684-17.636 26.337-32.611 43.938-76.04 18.441-45.502 34.046-73.863 55.849-101.5 6.257-7.931 33.978-36 34.771-35.207.285.286-3.155 4.888-7.645 10.228-29.987 35.667-47.758 66.729-71.078 124.24-17.135 42.259-25.63 57.933-38.78 71.557-6.644 6.883-17 15.098-22.642 17.962-2.713 1.377-3.442 2.882-7.201 14.876-12.599 40.195-25.168 86.992-33.801 125.844-11.812 53.163-25.131 137.338-29.018 183.393-.841 9.959-1.764 30.482-2.052 45.607l-.523 27.5 5.138-5.5c7.275-7.788 15.792-20.851 22.333-34.253 12.907-26.444 18.299-50.643 26.123-117.247 1.938-16.5 4.226-35.175 5.085-41.5 3.574-26.337 13.114-72.315 20.439-98.5 6.603-23.605 16.952-52.737 19.235-54.148.737-.456.855-.05.357 1.234-1.604 4.134-10.721 40.899-14.486 58.414-9.313 43.327-12.996 67.14-19.099 123.5-7 64.636-9.99 81.8-18.567 106.578-1.984 5.732-5.67 14.654-8.19 19.825-5.581 11.453-16.614 28.431-23.88 36.751l-5.375 6.153.007 28.347c.015 62.204 6.908 148.561 17.588 220.346 15.765 105.956 40.876 198.273 76.707 282 17.016 39.761 37.431 77.864 53.557 99.96l3.62 4.96.703-3.96c1.085-6.114.939-45.651-.214-57.96-2.956-31.539-13.415-81.792-26.85-129-2.191-7.7-8.066-28.289-13.054-45.754-18.466-64.65-32.958-125.652-39.968-168.246-8.967-54.483-13.348-95.188-16.092-149.5-1.08-21.39-1.142-79.382-.102-96 .626-9.994.692-10.235 1.374-5 .394 3.025 1.619 20.8 2.722 39.5s2.448 38.275 2.988 43.5c.541 5.225 1.686 16.475 2.545 25 6 59.522 14.582 115.734 26.566 174 15.359 74.669 44.175 172.014 63.981 216.133 8.668 19.308 21.224 43.081 22.006 41.666 1.416-2.562 5.833-24.501 7.007-34.799 1.561-13.704 1.544-51.261-.031-66.486-.681-6.593-2.028-16.718-2.993-22.5-1.617-9.694-2.468-11.937-10.91-28.753-5.037-10.032-9.157-18.494-9.157-18.804 0-.311 3.038 2.372 6.75 5.962s6.894 6.107 7.07 5.593c.396-1.154-3.558-18.604-13.938-61.512-17.942-74.167-27.048-120.19-35.316-178.5-8.499-59.93-13.323-125.223-12.081-163.5.87-26.806 2.751-55.1 3.521-52.956.386 1.076 1.009 10.023 1.383 19.882 2.001 52.657 7.798 115.516 15.179 164.574 9.323 61.969 20.258 119.42 29.491 154.939 9.593 36.91 24.983 83.963 40.885 125.003 2.676 6.907 5.155 13.439 5.509 14.515.551 1.678 1.01 1.342 3.217-2.359 5.794-9.717 12.794-34.942 15.283-55.072 1.339-10.833 1.349-38.255.018-50.815-2.734-25.818-14.667-96.905-16.996-101.258-.559-1.045-3.168-4.499-5.797-7.676-5.793-7.001-16.363-21.277-15.753-21.277.241 0 4.1 1.35 8.575 3s8.486 3 8.913 3-.745-7.285-2.603-16.189c-5.472-26.212-16.165-82.881-19.307-102.311-11.757-72.723-16.207-120.506-16.345-175.5-.057-22.58.284-36.15.936-37.285.75-1.307 1.351 3.512 2.244 18 6.264 101.566 30.289 241.09 66.085 383.785 3.311 13.2 6.752 26.45 7.646 29.445l1.625 5.446 4.397-6.946c8.739-13.803 16.166-34.64 19.94-55.945 2.2-12.423 2.956-37.451 1.581-52.328l-1.14-12.328-10.736-11.949c-5.905-6.571-10.863-12.317-11.019-12.769-.155-.452 3.824.268 8.842 1.601s9.322 2.226 9.562 1.985c1.147-1.146-9.016-67.096-19.151-124.281-10.926-61.642-15.49-90.34-19.872-124.931-3.297-26.031-6.395-64.631-5.082-63.318.341.342 2.346 10.678 4.455 22.969 7.189 41.894 11.111 63.329 18.639 101.849 14.224 72.785 23.544 119.524 26.519 133 6.733 30.493 19.77 80 21.067 80 1.469 0 11.857-22.742 14.246-31.189 8.435-29.821 7.293-64.197-4.046-121.811-1.894-9.625-9.04-40.225-15.879-68s-13.999-58.15-15.911-67.5c-3.745-18.322-7.965-46.484-7.383-49.28.196-.946 1.41 3.23 2.697 9.28 7.769 36.533 30.409 120.014 45.289 167 8.692 27.442 21.331 61.468 22.842 61.492 1.199.018 5.143-9.657 7.076-17.356 2.997-11.943 3.614-35.153 1.398-52.636-2.004-15.815-3.479-23.218-11.057-55.5-18.949-80.722-26.126-117.281-30.402-154.867-1.841-16.181-3.743-52.569-2.621-50.133.253.55 1.185 6.4 2.07 13 3.385 25.245 10.724 62.566 15.241 77.5l2.57 8.5 3.238-7c2.757-5.96 14.28-39.713 20.052-58.738 4.948-16.306 1.164 7.154-4.635 28.738-2.217 8.25-5.656 21.75-7.643 30-3.444 14.305-3.611 15.81-3.599 32.5.011 16.292.226 18.328 3.108 29.5 3.235 12.538 12.33 32.941 14.38 32.258 2.784-.928 9.485-22.551 15.73-50.758 1.766-7.975 5.01-21.25 7.209-29.5 4.233-15.88 17.723-57.944 18.374-57.294.211.212-2.327 12.739-5.639 27.839-9.066 41.324-11.661 55.267-13.956 75.007-1.585 13.636-.714 32.052 2.007 42.448 2.218 8.473 7.372 20.5 8.785 20.5 2.551 0 17.094-33.36 24.071-55.214 4.718-14.781 8.336-31.763 14.761-69.286 2.542-14.85 4.805-27.188 5.027-27.417 1.493-1.539-1.147 32.24-5.23 66.917-3.271 27.779-4.165 57.228-2.098 69.066.823 4.711 2.342 10.506 3.376 12.877l1.88 4.312 3.822-3.877c9.884-10.027 20.284-28.651 26.627-47.681 4.101-12.305 4.471-12.251 5.498.803 1.211 15.383 4.657 46.247 8.54 76.5 7.581 59.054 7.487 57.634 7.445 112-.041 54.91-.843 66.898-8.053 120.421-1.932 14.343-4.191 31.479-5.021 38.079-2.35 18.687-2.885 50.754-1.284 77 .771 12.65 1.364 31.1 1.317 41-.091 19.056-1.053 26.467-6.365 49-4.958 21.036-5.39 25.004-4.754 43.677.325 9.528 1.141 20.248 1.814 23.823.717 3.807 1.258 15.866 1.307 29.108.093 25.378.519 25.857 5.229 5.892 2.173-9.214 2.578-13.991 3.307-39 .931-31.96 1.789-38.034 8.333-59 4.214-13.5 4.214-13.5 4.855-7.5.353 3.3.727 15.225.832 26.5.18 19.354.276 20.304 1.722 17 3-6.856 6.4-22.69 7.514-35 .938-10.356.844-15.93-.549-32.5-.925-11-1.676-22.114-1.671-24.698.016-7.069 4.367-19.474 13.025-37.14 7.529-15.363 7.805-15.767 8.555-12.519 1.354 5.859.644 65.177-1.043 87.236-3.933 51.415-12.833 96.386-27.482 138.873-14.804 42.932-39.525 93.169-57.994 117.853-7.681 10.266-17.844 20.583-42.116 42.751-6.839 6.246-15.256 14.571-18.706 18.5-6.934 7.898-16.097 20.913-21.221 30.144-7.751 13.962-12.703 18.767-36.981 35.876-11.148 7.857-11.412 8.128-8.515 8.748 5.532 1.183 22.92.88 31.489-.55 4.675-.78 13.3-2.571 19.167-3.979 16.624-3.989 28.343-5.588 40.833-5.571 20.196.028 30.603 2.204 55 11.504 28.881 11.009 39.253 11.835 62.165 4.952 13.504-4.057 32.746-8.902 33.271-8.377.613.612-4.523 18.426-7.894 27.382-4.488 11.922-3.018 19.87 5.123 27.706 10.308 9.922 26.564 11.843 33.679 3.982 1.701-1.88 3.244-9.458 10.281-50.509.362-2.109 1.22-4.051 1.908-4.315 3.096-1.188 25.717 7.281 88.289 33.057 42.973 17.702 70.146 24.338 103.681 25.32 24.898.729 33.434-.537 72.497-10.752 20.456-5.349 33.912-6.175 51.504-3.158 6.602 1.132 12.902 2.358 14 2.726 2.912.975-5.029-5.791-11.243-9.579-8.201-5-20.687-8.875-30.872-9.582-10.505-.73-22.066.558-42.174 4.698-32.29 6.647-61.912 4.678-92.895-6.176-11.085-3.883-27.977-12.576-35.82-18.433-7.766-5.799-18.504-16.418-24.091-23.825-25.133-33.313-41.259-80.237-45.384-132.06-1.015-12.753-.777-17.427.506-9.937 1.853 10.816 7.212 32.618 11.517 46.852 12.796 42.313 30.946 76.484 51.632 97.206 16.752 16.781 39.669 28.036 64.633 31.743 16.982 2.522 31.826 2.005 56.687-1.973a1988 1988 0 0 1 14.418-2.257l4.917-.738-7.417-3.874c-25.569-13.355-50.361-28.498-66.298-40.496-13.327-10.032-33.255-29.477-41.56-40.552-11.606-15.477-17.188-25.074-24.944-42.89-10.346-23.764-16.348-47.975-18.512-74.669-.632-7.796-.229-6.79 5.32 13.307 9.404 34.053 22.755 63.307 40.119 87.91 7.452 10.558 25.978 29.668 37.855 39.048 17.628 13.922 43.845 30.332 68.602 42.938 23.12 11.772 52.821 22.731 73 26.934 9.935 2.069 13.807 2.298 40 2.363 29 .071 29 .071 38.932 3.304 18.655 6.071 41.407 9.321 54.131 7.731l5.783-.722-10.923-5.72c-12.501-6.547-21.142-11.769-33.853-20.455-8.781-6.001-8.881-6.116-6-6.839 58.755-14.756 69.111-15.38 111.619-6.727 15.226 3.1 23.608 4.269 33.478 4.67 7.243.294 13.939.24 14.881-.122 1.298-.498-1.893-3.379-13.168-11.889-19.93-15.043-26.046-20.985-31.342-30.453-15.225-27.218-20.933-33.839-55.746-64.662-20.535-18.182-31.955-32.875-46.469-59.785-39.754-73.711-59.671-140.48-66.305-222.276-1.014-12.502-1.508-31.382-1.488-56.884l.031-38.171 3.479 6c5.08 8.761 13.036 25.248 14.916 30.912 3.121 9.404 3.893 19.928 2.61 35.587-1.59 19.392-1.438 38.603.387 49.001 2.463 14.029 5.808 28 6.705 28 .463 0 .904-2.362.98-5.25s.413-14.475.75-25.75l.612-20.5 3.727 11c7.114 20.997 7.806 25.347 8.757 55 .879 27.433 2.098 37.823 6.158 52.5 1.142 4.125 2.219 7.655 2.394 7.844s.332-8.361.349-19 .707-25.194 1.535-32.344c3.53-30.482 3.126-39.603-2.888-65.25-6.783-28.928-6.88-30.024-5.914-66.75.477-18.15.826-45.15.774-60-.098-27.917-.753-35.767-6.887-82.5-5.684-43.309-8.368-75.131-9.153-108.5-.839-35.703 1.276-65.914 8.678-123.967 4.321-33.88 8.97-76.25 8.97-81.741 0-2.635.45-4.792 1-4.792s1 .64 1 1.422c0 5.134 12.132 34.341 18.223 43.87 4.256 6.659 12.497 15.708 14.304 15.708 1.817 0 5.362-11.853 6.58-22 1.354-11.279.713-28.19-2.047-54-5.692-53.23-7.801-76.95-6.758-75.988.306.282 2.185 9.507 4.176 20.5 11.068 61.11 14.128 73.356 25.237 100.988 6.295 15.66 13.68 30.5 15.178 30.5 1.021 0 4.697-7.504 7.173-14.645 2.439-7.036 4.92-22.572 4.928-30.861.015-15.465-4.338-41.941-14.536-88.412-3.551-16.179-6.291-29.582-6.089-29.784.689-.689 9.757 26.173 14.584 43.202 2.65 9.35 7.583 28.811 10.96 43.248 5.842 24.967 10.218 39.663 14.036 47.132 1.728 3.38 1.728 3.38 5.764-4 11.574-21.158 15.745-47.467 11.754-74.137-.843-5.633-4.837-23.518-8.877-39.743-6.763-27.163-9.361-39.135-8.239-37.962.509.532 2.837 7.413 12.101 35.769 3.649 11.169 8.135 23.711 9.97 27.87l3.335 7.563 2.1-6.37c4.548-13.799 8.047-31.699 16.491-84.37l1.443-9 .105 10.105c.144 13.932-1.428 32.034-4.983 57.395-4.593 32.769-10.083 60.975-20.437 105-21.042 89.469-23.236 105.948-17.871 134.244 1.76 9.283 7.099 24.057 8.403 23.251 3.113-1.924 25.832-69.353 36.555-108.495a6247 6247 0 0 1 5.812-21c9.208-33.048 11.93-43.55 18.145-70 3.684-15.675 7.311-30.75 8.062-33.5 1.365-5 1.365-5 .812 1.5-1.029 12.101-5.23 38.416-8.861 55.5-1.986 9.35-8.301 35.675-14.032 58.5-17.873 71.185-22.854 97.924-25.058 134.5-1.504 24.97 3.425 51.729 13.124 71.25 3.074 6.188 5.952 11.25 6.395 11.25s1.032-.788 1.309-1.75c.277-.963 2.302-7.825 4.499-15.25 13.57-45.859 45.765-203.158 61.296-299.48 1.683-10.439 3.257-19.176 3.497-19.416 1.148-1.148-.646 26.174-3.604 54.896-2.52 24.461-11.64 82.497-20.507 130.5-8.511 46.069-20.017 121.081-19.255 125.522.28 1.626 1.01 1.551 9.518-.979l9.215-2.741-4.032 5.099c-2.218 2.804-7.095 8.49-10.839 12.635-3.886 4.303-7.063 8.807-7.405 10.5-.33 1.63-1.074 9.184-1.654 16.787-2.433 31.915 4.621 69.249 17.701 93.677 2.503 4.675 5.473 9.804 6.599 11.398 2.031 2.875 2.053 2.881 2.869.675 1.282-3.465 14.194-55.557 18.733-75.573 2.244-9.9 6.113-26.775 8.597-37.5 15.595-67.335 31.649-157.282 39.445-221 4.878-39.869 5.918-50.183 7.768-77 1.282-18.599 1.949-24.282 2.464-21 .852 5.439 1.153 59.443.383 68.824-.302 3.672-1.032 14.101-1.623 23.176-1.885 28.941-9.091 86.372-15.934 126.989-3.234 19.195-14.443 79.287-18.328 98.261-1.324 6.462-2.354 11.748-2.29 11.745.612-.026 17.021-6.127 17.84-6.634 1.417-.875.552.595-4.947 8.414-2.427 3.451-7.27 9.636-10.761 13.744-7.138 8.399-6.263 5.69-12.428 38.481-12.288 65.362-14.384 103.905-7.504 138 3.643 18.055 12.519 43.34 14.495 41.294 2.236-2.316 16.077-39.589 27.588-74.294 16.302-49.148 25.561-85.61 36.23-142.674 16.845-90.09 27.913-189.412 28.12-252.326.095-29.017 3.166-1.371 4.61 41.5 1.286 38.189-3.093 100.657-11.181 159.5-8.52 61.982-15.537 98.208-33.998 175.5-9.48 39.69-16.2 69.036-15.885 69.372.191.205 2.945-1.906 6.119-4.69s5.899-4.934 6.056-4.777c.459.459-8.166 19.429-12.548 27.595-3.565 6.644-4.256 9.097-6.06 21.5-2.942 20.228-3.163 22.391-4.035 39.464-1.242 24.331.891 50.228 6.034 73.246l2.169 9.711 2.642-4.211c8.276-13.192 21.191-40.863 29.268-62.71 6.1-16.498 17.482-50.75 22.928-69 26.937-90.267 44.871-180.455 56.274-283 4.283-38.513 6.141-60.915 8.123-97.944.837-15.645 1.667-28.589 1.843-28.766.589-.588 1.59 18.936 2.242 43.71 1.552 59.023-6.033 146.197-19.223 220.91-9.106 51.582-21.524 101.641-47.898 193.09-16.784 58.196-25.035 96.238-29.022 133.805-1.489 14.029-1.911 54.926-.651 63.054l.676 4.359 5.657-8.359c46.785-69.137 90.912-185.77 114.263-302.013 13.435-66.879 22.303-132.992 27.542-205.346 2.605-35.983 4.025-70.371 4.032-97.686l.006-21.686-5.568-6.314c-8.223-9.323-19.694-26.949-25.285-38.849-6.823-14.525-12.462-32.611-16.047-51.465-3.508-18.451-4.46-25.631-10.591-79.903-2.48-21.947-5.428-46.247-6.551-54-5.204-35.914-15.474-84.19-24.372-114.566-1.364-4.658-2.334-8.617-2.154-8.796.644-.644 9.419 21.509 13.375 33.765 13.416 41.561 21.852 81.331 29.167 137.5 10.676 81.98 13.295 97.19 20.514 119.128 2.389 7.259 6.368 17.399 8.843 22.534 5.328 11.057 16.635 28.322 23.143 35.338l4.638 5-.581-22.5c-1.19-46.065-5.951-94.66-13.618-139-16.599-95.984-29.02-149.583-49.646-214.24l-6.616-20.74-7.076-4.161c-8.89-5.229-22.779-19.06-29.638-29.514-6.863-10.459-17.081-31.614-26.491-54.845-15.086-37.244-25.783-59.804-37.932-80-7.732-12.854-21.041-31.599-29.848-42.041-4.491-5.325-9.291-11.074-10.666-12.776-2.449-3.031-2.453-3.061-.185-1.499 14.246 9.816 40.163 40.196 55.722 65.316 9.322 15.051 24.738 47.032 33.926 70.381 17.943 45.597 31.197 67.126 50.971 82.797 6.62 5.247 16.778 11.322 18.93 11.322.268 0-3.141-7.538-7.575-16.75s-9.517-20.125-11.293-24.25c-9.862-22.898-19.651-45.783-27.162-63.5-17.483-41.239-40.374-83.799-64.073-119.126l-8.134-12.126 8.991-.703c4.946-.387 10.766-1.231 12.934-1.874 3.942-1.171 3.942-1.171-15.39-20.671-10.633-10.725-25.575-26.475-33.206-35-18.479-20.645-35.164-38.792-44.294-48.176-7.468-7.676-7.468-7.676-4.065-8.237 12.32-2.033 16.471-2.82 17.177-3.256 1.312-.811-35.916-26.359-58.434-40.102-16.06-9.801-33.885-18.353-47.336-22.709-1.595-.516-.744-1.201 4.24-3.407 3.43-1.518 6.489-3.013 6.798-3.322.862-.862-13.544-6.582-21.213-8.422-9.731-2.335-28.729-2.363-38.329-.057-16.253 3.904-36.31 16.106-46.648 28.38-14.104 16.745-19.722 32.585-17.476 49.273.592 4.397 3.094 14.964 5.562 23.482 6.148 21.228 7.769 30.687 7.712 45.007-.1 24.942-6.53 46.661-20.489 69.207-17.459 28.199-39.815 48.943-71.852 66.668-6.094 3.373-27.943 12.671-29.772 12.671-.421 0 .281-5.062 1.561-11.25s4.158-26.1 6.397-44.25c8.574-69.526 12.537-92.54 19.627-114 5.019-15.189 9.583-23.872 24.558-46.72 17.509-26.715 22.931-37.692 28.419-57.53.976-3.528 2.289-6.25 3.014-6.25 2.26 0 6.152-6.286 8.359-13.5 7.203-23.546 13.545-42.53 16.562-49.578 2.636-6.16 3.466-9.499 3.466-13.946 0-3.215-.424-6.962-.943-8.326-.762-2.003-.156-4.263 3.143-11.74 6.138-13.909 5.468-21.796-2.414-28.442-1.807-1.524-4.673-3.352-6.368-4.063-5.057-2.119-12.511-2.567-16.734-1.006M1158 155.419c30.638 2.954 77.431 9.768 79.323 11.551.452.427.309 2.684-.319 5.015-1.719 6.382-.427 11.601 4.083 16.493 4.065 4.41 8.997 6.522 15.232 6.522 5.44 0 8.233-1.761 11.076-6.985 2.126-3.906 3.19-4.848 5.986-5.302 7.26-1.178 17.072 3.394 20.18 9.404 2.061 3.987 1.412 7.555-3.537 19.447-2.094 5.032-6.135 16.526-8.979 25.542s-5.885 18.322-6.757 20.678c-1.583 4.277-1.59 4.281-3.687 2.367-3.963-3.617-9.065-5.471-16.351-5.944-7.25-.47-7.25-.47-7.25-3.518 0-1.676.436-4.429.969-6.118s3.463-11.396 6.511-21.571 5.987-19.281 6.531-20.236.989-1.968.989-2.25-2.649-.514-5.886-.514c-11.482 0-21.661-8.148-24.167-19.344l-1.206-5.39-16.12-2.635c-30.511-4.988-54.52-7.778-82.956-9.642-20.676-1.355-78.204-1.367-96.665-.021-50.093 3.654-95.266 11.965-143.49 26.399-8.245 2.467-15.135 4.341-15.313 4.163-.546-.545 24.502-10.041 39.303-14.901 21.763-7.144 60.688-15.95 88.5-20.019 8.973-1.313 36.628-3.715 57.5-4.994 15.144-.928 80.914.301 96.5 1.803m137.033-.902c3.112 1.609 5.967 6.084 5.967 9.351 0 1.082-1.125 4.208-2.5 6.945s-2.5 5.475-2.5 6.082-.506 1.105-1.125 1.105c-.717 0-.907-1.09-.524-3.005.61-3.051-.958-7.995-2.537-7.995-.475 0-1.136 1.359-1.468 3.021s-.899 3.203-1.258 3.425c-.612.378-10.216-1.348-10.9-1.958-.622-.556 2.944-15.943 3.987-17.198 1.463-1.764 9.274-1.626 12.858.227m-1.467 9.733c1.655 5.311 2.49 6.833 3.432 6.251 2.367-1.463.214-8.501-2.601-8.501-1.13 0-1.348.591-.831 2.25m-202.492 20.415 6.367.666-11.971 5.818c-6.583 3.2-10.62 5.611-8.97 5.358 18.406-2.821 54.788-5.687 67.471-5.315l10.471.308-10.099 4.5-10.099 4.5 29.128.5 29.128.5 4.195 10.5c2.308 5.775 5.387 14.002 6.843 18.282l2.648 7.783 4.017-3.63c5.204-4.701 9.502-6.435 15.949-6.435 6.699 0 13.158 3.09 16.385 7.839 3.316 4.881 3.139 7.118-.246 3.095-3.341-3.97-9.524-6.883-14.675-6.912-6.991-.04-11.8 2.096-17.516 7.779l-5.401 5.369-12.099-4.715c-44.722-17.43-86.408-26.595-139.1-30.582-20.816-1.575-72.885-1.575-92 0-57.981 4.779-104.783 14.621-152.128 31.991-8.739 3.206-18.023 6.773-20.631 7.926-2.607 1.154-4.741 1.948-4.741 1.765s5.063-3.512 11.25-7.397c11.863-7.45 32.131-17.497 47.333-23.466 28.134-11.044 70.434-23.159 99.917-28.615 11.838-2.191 29.5-4.899 29.5-4.522 0 .126-4.163 2.359-9.25 4.961-8.574 4.385-13.851 7.488-12.723 7.481.26-.002 8.348-1.757 17.973-3.901 22.748-5.068 31.575-6.646 48.093-8.601 24.09-2.851 61.331-4.256 74.981-2.83M1284 195.3c0 1.265-.474 2.774-1.053 3.353-.737.737-.213 2.437 1.75 5.668 1.542 2.539 3.088 4.63 3.436 4.647.898.045 1.837-3.886 1.853-7.753.016-3.705-2.51-8.215-4.601-8.215-.779 0-1.385 1.007-1.385 2.3m-3.445 10.95c-4.07 13.307-7.538 27.966-7.478 31.604.042 2.555.647 6.446 1.343 8.646l1.266 4 .741-5c.751-5.072 5.722-23.838 8.099-30.573 1.152-3.267 1.085-4.038-.598-6.806-2.064-3.394-2.785-3.793-3.373-1.871m-16.978 40.625c-.297.482 1.709 3.125 4.459 5.875s5.231 4.626 5.514 4.169c1.061-1.717-2.485-7.834-5.422-9.353-3.514-1.817-3.826-1.864-4.551-.691m-8.872 18.975c2.196.647 2.185.711-2.633 15.15-2.661 7.975-6.028 17.65-7.481 21.5-2.36 6.253-2.424 6.733-.595 4.5 1.125-1.375 5.701-9.823 10.167-18.774s8.322-16.074 8.567-15.83c.847.848-1.975 12.135-4.845 19.375-5.064 12.779-9.858 21.295-22.567 40.088-13.374 19.775-21.39 35.07-26.279 50.141-6.135 18.911-11.608 52.01-20.011 121-2.602 21.367-8.558 51.268-14.57 73.157-4.188 15.246-23.506 74.183-25.601 78.106-.734 1.375-1.361 1.538-2.851.74-1.795-.96-1.82-1.277-.42-5.247 2.07-5.868 8.424-30.645 8.367-32.629-.025-.895-3.298 6.439-7.273 16.297s-7.665 18.064-8.203 18.234-1.538-.046-2.223-.481c-1.322-.838-1.681.396 12.109-41.677 12.767-38.953 21.431-75.213 25.088-105 4.729-38.519 7.97-65.963 11.031-93.409 1.877-16.825 4.067-32.435 4.867-34.688 2.414-6.799 5.395-12.083 17.436-30.903 22.828-35.679 31.519-52.157 37.843-71.75 2.587-8.016 3.036-8.742 5.348-8.65 1.388.055 3.516.392 4.729.75M666 273.079c9.47 1.475 21.202 5.587 28.414 9.958 13.223 8.014 26.592 22.552 31.169 33.894 4.866 12.059 4.503 19.51-2.148 44.069-5.419 20.005-6.762 29.555-6.684 47.5.085 19.487 1.968 31.93 7.208 47.612 10.707 32.046 29.24 57.505 58.129 79.856 13.359 10.337 19.463 14.359 35.912 23.671 15.9 9.001 21.002 12.696 20.996 15.209-.004 1.683-2.364 5.781-5.756 9.992-1.885 2.341-1.885 2.341-5.735-.272-8.808-5.978-17.011-6.612-39.505-3.054-7.919 1.253-13.29 1.589-17.25 1.081-5.754-.739-8.025-2.595-3.176-2.595 3.555 0 15.297-4.081 25.213-8.764l8.287-3.913-4.542-4.186c-6.243-5.755-15.158-11.405-27.218-17.25-11.964-5.798-22.452-8.699-34.572-9.563-7.827-.558-8.548-.771-6.785-2.006 3.845-2.694 10.653-4.544 19.043-5.177l8.5-.641-6.275-4.688c-8.73-6.521-15.719-9.013-26.858-9.578-8.186-.414-19.023.919-27.867 3.429-3.338.947 3.992-6.069 9.435-9.031 6.964-3.79 17.278-5.954 24.802-5.202 3.431.343 6.967.903 7.857 1.245.891.341-.502-2.258-3.096-5.777s-7.22-10.673-10.28-15.898-7.75-12.762-10.422-16.75c-4.625-6.903-6.796-8.805-6.796-5.953 0 2.215-7.262 8.481-12.333 10.643-2.658 1.133-5.066 2.06-5.35 2.06-.285 0 1.723-2.452 4.462-5.448 6.405-7.009 7.219-10.7 3.934-17.845-1.316-2.864-4.951-8.357-8.078-12.207-4.547-5.6-11.635-17.606-11.635-19.709 0-.233 2.173 1.671 4.83 4.232s7.268 6.471 10.25 8.691c6.206 4.622 14.922 9.598 14.915 8.516-.002-.401-2.412-5.68-5.355-11.73s-6.169-13.475-7.167-16.5c-1.934-5.856-2.493-18.317-1.056-23.5.767-2.764.946-2.45 2.277 4 1.474 7.142 5.667 17.725 7.686 19.4.815.677 1.15-2.249 1.23-10.735.06-6.416.285-21.34.5-33.165.39-21.5.39-21.5-2.306-27.253-5.752-12.275-17.883-21.355-31.804-23.807-18.684-3.291-44.334 5.421-73.949 25.117-22.647 15.061-40.814 32.41-63.293 60.443-6.615 8.25-14.33 17.402-17.143 20.338-9.897 10.328-23.134 18.275-36.615 21.983-6.439 1.77-7.148 1.823-5.015.371 17.58-11.968 34.592-27.999 54.326-51.192 31.75-37.315 55.596-58.556 86.189-76.77 7.21-4.293 8.304-5.226 5.5-4.693-3.681.699-26.111 8.042-36.75 12.03-3.437 1.289-6.25 2.193-6.25 2.008 0-.905 11.723-8.978 21.741-14.971 18.654-11.16 32.268-16.781 48.759-20.134 8.751-1.779 23.465-2.277 30.417-1.03l4.417.792-3.417-2.943c-5.445-4.691-12.45-9.176-19.437-12.445-6.746-3.157-8.059-4.215-4.23-3.408 1.237.261 5.625 1 9.75 1.643m727-1.187c0 .49-1.237 1.195-2.75 1.566-5.65 1.388-25.25 13.672-25.25 15.826 0 .172 3.832-.055 8.516-.505 17.036-1.635 38.072 3.346 60.083 14.226 13.371 6.61 38.387 22.166 36.602 22.761-.459.153-8.004-2.255-16.767-5.352-22.137-7.823-31.416-10.642-28.934-8.791 1.1.821 7.75 5.036 14.777 9.368 25.974 16.011 45.51 33.658 76.396 69.009 20.021 22.916 34.669 37.287 48.481 47.566 10.613 7.899 10.575 8.878-.206 5.339-19.478-6.394-29.166-14.468-50.948-42.46-11.288-14.506-39.064-42.346-51.251-51.368-33.771-25.002-62.919-36.484-84.047-33.109-10.264 1.639-17.074 4.606-22.991 10.013-12.847 11.742-15.599 24.714-12.202 57.519.797 7.7 1.479 17.375 1.514 21.5.065 7.5.065 7.5 1.986 3.866 2.211-4.185 5.991-17.217 5.991-20.655 0-1.281.397-2.084.881-1.784 1.554.96 2.349 15.149 1.168 20.837-.612 2.948-4.033 11.36-7.602 18.693s-6.341 13.483-6.158 13.666c.644.644 12.942-7.144 21.88-13.856 10.022-7.526 10.017-7.402-.282 6.919-12.258 17.043-14.1 21.349-12.042 28.16.607 2.01 2.967 5.567 5.244 7.904 2.278 2.337 3.873 4.25 3.546 4.25s-2.516-.756-4.865-1.679c-6.11-2.404-10.44-5.95-11.759-9.631l-1.143-3.19-3.435 3.918c-1.89 2.155-5.521 7.33-8.07 11.5s-7.724 12.595-11.499 18.723-6.864 11.34-6.864 11.583 2.588.083 5.75-.355c12.487-1.728 28.87 3.37 35.75 11.126 2 2.255 2 2.255-1 1.664-9.299-1.831-20.349-2.822-27.202-2.439-9.672.54-17.004 3.297-25.773 9.69l-6.603 4.813 9.289.491c7.736.408 10.275.989 15.186 3.478l5.897 2.987-9.397.653c-5.168.359-12.322 1.352-15.897 2.205-12.475 2.979-35.643 15.484-45.472 24.544l-4.47 4.12 9.113 4.435c9.015 4.388 21.166 8.364 25.559 8.364 3.661 0 2.605 1.683-1.48 2.358-6.682 1.105-13.928.685-24.949-1.446-7.169-1.387-13.521-1.975-18.892-1.75-6.774.283-9.116.867-14.39 3.588-5.912 3.05-6.383 3.142-7.677 1.5-3.193-4.054-6.512-10.365-6.065-11.531.266-.691 6.049-4.344 12.853-8.118 29.142-16.167 48.2-30.011 64.534-46.88 28.484-29.419 43.465-63.603 45.066-102.834.702-17.186-1.239-31.834-7.404-55.887-4.065-15.858-4.455-18.399-4.156-27.081.308-8.933.616-10.158 4.554-18.101 10.903-21.987 35.198-38.787 60.293-41.692 4.116-.477 7.821-.925 8.233-.996.412-.072.75.271.75.762M653 347c2.447.784 2.452.803.208.9-4.859.212-17.869 3.373-24.03 5.839-9.157 3.666-22.059 12.47-33.678 22.98-17.864 16.16-35.374 38.924-53.655 69.754-5.672 9.566-10.441 17.264-10.598 17.108-.914-.915 6.644-20.48 11.876-30.741 11.71-22.969 24.752-40.723 42.402-57.724 15.594-15.02 32.542-25.607 44.975-28.096 5.182-1.038 19.284-1.05 22.5-.02m765.502 1.001c18.159 4.644 40.052 20.671 58.719 42.988 10.604 12.676 18.089 24.007 25.633 38.804 4.986 9.78 13.146 30.853 13.146 33.948 0 .345-3.656-5.643-8.124-13.307-17.881-30.668-31.193-48.799-48.841-66.522-14.424-14.485-24.058-21.965-35.905-27.878-8.646-4.315-20.762-7.959-27.04-8.134-3.262-.09-3.361-.173-1.09-.9 4.636-1.485 15.612-1.018 23.502 1.001m-384.39 8.979c14.157 6.024 28.441 18.114 39.138 33.127 2.505 3.516 7.035 11.118 10.066 16.893 5.588 10.648 8.493 18.393 19.693 52.5 7.349 22.38 11.678 33.972 19.79 53 7.663 17.975 9.105 22.334 10.46 31.626 1.633 11.197-.678 24.344-6.259 35.606-2.296 4.634-4.392 8.209-4.658 7.944-.265-.266.403-3.348 1.485-6.851 2.995-9.697 4.478-21.408 3.782-29.867-.797-9.681-3.347-18.729-9.146-32.458-5.781-13.683-8.659-21.274-18.584-49-7.371-20.593-7.837-21.584-7.286-15.5.716 7.903 4.2 31.73 5.045 34.5 1.488 4.876-.899.055-4.62-9.333-2.234-5.636-6.061-18.534-8.504-28.664-5.107-21.174-9.284-32.983-15.575-44.036-4.622-8.122-14.164-18.628-19.816-21.82-3.182-1.797-3.13-1.666 1.701 4.329 2.74 3.401 6.365 8.778 8.055 11.948 3.169 5.947 10.121 25.531 10.121 28.513 0 1.107-1.293.191-3.769-2.67-5.612-6.484-11.253-11.324-17.778-15.253-3.209-1.933-6.132-3.514-6.495-3.514s2.772 3.488 6.967 7.75c8.322 8.457 18.094 22.352 24.047 34.197 2.088 4.154 7.262 15.878 11.498 26.053a2795 2795 0 0 0 15.603 36.597c17.726 40.592 20.573 54.514 15.312 74.86-2.97 11.484-7.481 19.41-16.972 29.818-15.596 17.104-21.393 24.033-26.544 31.725-10.48 15.648-20.31 39.375-26.406 63.742-1.547 6.183-2.991 11.063-3.209 10.845-.646-.646 3.663-24.821 5.839-32.761A184.2 184.2 0 0 1 1060.594 656c6.362-12.494 10.309-18.598 19.236-29.75 21.242-26.535 24.632-31.896 27.648-43.71.837-3.278 1.515-9.578 1.507-14-.025-13.658-2.646-21.847-16.961-52.995-4.308-9.375-9.506-21.095-11.551-26.045-5.635-13.644-14.15-30.171-19.655-38.153-6.861-9.948-15.39-17.784-23.473-21.566-5.73-2.682-7.879-3.149-14.469-3.149-6.792 0-8.544.408-14.308 3.333-7.574 3.845-14.296 9.946-21.043 19.1-5.975 8.108-9.385 14.888-21.587 42.92-5.39 12.383-12.144 27.69-15.009 34.015-8.939 19.734-11.087 27.014-11.659 39.519-.427 9.346-.167 12.232 1.714 19 2.83 10.186 6.831 17.72 13.628 25.665 20.099 23.491 27.004 33.397 34.9 50.071 8.03 16.957 14.126 39.03 15.945 57.745.395 4.054-.349 2.083-2.829-7.5-6.038-23.33-15.717-46.036-26.469-62.09-3.282-4.9-10.623-13.982-16.313-20.182-15.121-16.473-20.262-23.465-23.756-32.308-4.51-11.411-5.415-16.895-4.854-29.389.411-9.166 1.1-12.835 4.075-21.701 1.969-5.868 6.934-18.243 11.034-27.5 4.1-9.256 9.778-22.455 12.618-29.33 8.132-19.687 9.936-23.723 16.312-36.5 7.765-15.56 14.981-26.429 23.85-35.927 5.674-6.076 6.554-7.398 4.262-6.407-5.602 2.42-11.163 6.806-18.236 14.38-3.933 4.211-7.151 7.436-7.151 7.167 0-1.988 5.56-18.992 7.892-24.134 3.085-6.804 9.303-16.348 13.57-20.829 3.542-3.72 2.064-3.459-4.162.734-9.107 6.133-17.723 18.249-23.42 32.935-1.724 4.444-5.285 16.631-7.913 27.081-5.352 21.282-8.405 30.655-12.376 38-1.487 2.75-2.452 4.175-2.146 3.166.945-3.115 5.667-36.887 5.22-37.335-.233-.232-3.649 9.161-7.593 20.873S936.043 501.5 931.326 512.5c-10.591 24.704-11.166 26.322-12.369 34.802-.736 5.187-.596 9.435.575 17.523.851 5.871 2.183 12.909 2.96 15.639s1.259 5.119 1.068 5.309c-.719.719-6.483-10.537-8.588-16.773-1.921-5.687-2.131-7.938-1.677-18 .599-13.267 1.862-17.49 11.966-40 7.426-16.545 16.695-41.423 22.597-60.653 7.388-24.074 14.728-41.993 21.646-52.847 8.875-13.925 20.747-27.137 30.278-33.694 6.727-4.628 19.1-9.78 23.523-9.794 2.092-.007 6.956 1.329 10.807 2.968m163.635 35.77c-1.414 2.613-3.262 7.225-4.108 10.25-2.241 8.013-5.8 35.081-8.153 62-1.314 15.039-.194 9.922 11.49-52.5 2.265-12.1 4.307-22.562 4.539-23.25s.058-1.25-.387-1.25c-.446 0-1.967 2.137-3.381 4.75m-595.545 27.647c-2.229 2.418-7.171 8.606-10.982 13.75-12.779 17.249-20.126 29.763-37.116 63.217C547.997 509.389 543 518.702 543 518.06c0-2.65 5.337-19.87 9.104-29.372 10.122-25.538 26.607-49.255 46.294-66.608 3.794-3.344 7.114-6.08 7.378-6.08.263 0-1.345 1.979-3.574 4.397m858.002 12.544c18.88 20.323 31.878 43.86 41.705 75.519 1.7 5.478 3.08 10.428 3.067 11s-3.747-6.16-8.298-14.96c-13.936-26.949-31.419-57.91-37.517-66.44-3.186-4.457-8.688-11.349-12.227-15.315l-6.434-7.211 6.137 4.704c3.375 2.587 9.48 8.304 13.567 12.703m-835.43 14.157c-1.499 1.118-7.959 7.517-14.355 14.218S599.138 472.825 599.565 472c4.065-7.863 14.695-19.871 21.381-24.153 5.08-3.253 7.931-3.812 3.828-.749m802.794 1.491c6.244 4.144 12.556 10.863 17.136 18.237 2.799 4.507 2.924 4.976.984 3.705-2.576-1.687-25.159-25.531-24.182-25.531.36 0 3.088 1.615 6.062 3.589m-46.025 5.487c2.224 1.046 5.599 3.535 7.5 5.53 3.457 3.628 3.457 3.628.457 2.138-1.65-.82-7.608-2.992-13.24-4.827s-9.908-3.648-9.5-4.029c2.391-2.24 8.546-1.745 14.783 1.188m-700.684-1.417c1.804.483-.427 1.503-9.5 4.344-6.523 2.042-12.759 4.072-13.859 4.509-3.651 1.454 3.479-5.293 7.915-7.489 4.046-2.002 10.823-2.601 15.444-1.364m756.743 30.514c4.931 5.213 7.962 9.597 7.178 10.38-.21.21-4.859-4.147-10.331-9.683-8.729-8.832-9.458-9.822-5.942-8.072 2.204 1.097 6.296 4.416 9.095 7.375M618 479.179c-2.475 2.271-7.32 6.827-10.766 10.125-3.447 3.299-6.454 5.809-6.684 5.579-.946-.946 10.365-13.622 14.843-16.633 6.685-4.496 8.006-4.025 2.607.929m746.46 13.551c4.67 1.479 4.816 1.625 2.5 2.51-3.445 1.316-12.978.319-17.041-1.782-3.09-1.598-3.221-1.834-1.412-2.551 2.532-1.003 9.564-.2 15.953 1.823m-665.014-.828c3.041 1.19-5.977 3.114-14.139 3.017-6.807-.081-6.807-.081-2.807-1.974 4.106-1.943 13.214-2.503 16.946-1.043m-47.671 1.38c-.948.67-4.434 2.756-7.746 4.635-7.226 4.1-18.909 13.329-30.204 23.86-8.382 7.815-8.539 6.96-.635-3.444 8.403-11.061 21.409-20.861 32.248-24.298 7.078-2.245 8.726-2.441 6.337-.753m753.912 1.798c11.221 4.81 22.374 14.019 30.786 25.42 7.706 10.446 7.606 10.685-1.046 2.493-10.237-9.695-23.481-20.183-33.211-26.302-6.477-4.073-7.16-4.739-4.256-4.146 1.903.388 5.38 1.529 7.727 2.535M1532.461 525c6.333 9.404 18.759 31.978 25.044 45.5 1.79 3.85 5.721 12.175 8.736 18.5s7.183 15.1 9.263 19.5c5.677 12.012 16.917 32.604 24.671 45.197 7.705 12.513 17.378 25.343 26.944 35.737l6.381 6.934-5-2.855c-20.557-11.735-33.188-26.775-48.879-58.2-7.453-14.926-10.136-20.889-26.24-58.313-4.852-11.275-13.771-30.4-19.82-42.5s-11.158-22.45-11.353-23c-.704-1.981 3.979 4.185 10.253 13.5m-1018.642 9.75c-11.338 23.372-17.295 36.462-30.83 67.75-17.148 39.64-25.908 55.746-38.2 70.241-7.315 8.624-15.993 15.809-23.991 19.861-2.602 1.319-4.992 2.398-5.31 2.398-.319 0 2.704-3.712 6.717-8.25 15.792-17.855 31.439-41.864 43.503-66.75 22.625-46.674 36.104-73.139 43.125-84.677C515.616 524.178 523.87 512 524.642 512c.118 0-4.752 10.237-10.823 22.75m61.558-7c-4.052 15.357-7.812 37.104-9.456 54.688-1.451 15.522-.676 55.589 1.52 78.562 2.743 28.685 1.653 46.104-4.006 64.015-1.419 4.495-2.75 8.003-2.956 7.797-.207-.206.102-3.736.686-7.844 1.254-8.819.436-56.132-1.192-68.968-1.64-12.92-2.575-44.902-1.778-60.826 1.001-20.04 5.44-43.722 11.277-60.174 2.572-7.246 8.219-20 8.856-20 .227 0-1.101 5.737-2.951 12.75m902.956 9.25c4.249 12.528 8.1 28.951 9.847 42 1.769 13.207 1.667 54.007-.181 72.5-1.583 15.837-2.133 72.972-.766 79.5.554 2.644.478 3.067-.311 1.731-2.157-3.658-5.049-13.551-6.644-22.731-2.056-11.826-2.158-41.83-.207-60.5 1.707-16.329 1.751-62.435.074-76-1.724-13.933-4.819-31.273-7.586-42.5-3.843-15.589-3.879-16.132-.668-10 1.584 3.025 4.483 10.225 6.442 16m-809.314-16.198c-9.674 6.618-23.626 17.577-29.519 23.186-9.045 8.609-24.294 22.012-25.045 22.012-.32 0 3.113-4.52 7.631-10.044 14.239-17.416 29.255-29.738 42.006-34.473 7.626-2.831 8.183-2.908 4.927-.681m720.068 3.724c11.481 5.871 28.142 20.66 41.09 36.474l5.323 6.5-7-5.43c-3.85-2.986-12.261-10.124-18.692-15.861-9.664-8.623-24.562-20.166-33.445-25.914-2.477-1.603 8.371 2.004 12.724 4.231m-701.672 21.055c-10.811 6.788-20.031 13.545-31.738 23.262-4.866 4.039-8.335 6.387-7.71 5.219 2.406-4.496 18.897-20.072 26.42-24.955 6.529-4.237 17.147-8.81 21.016-9.051.496-.031-3.098 2.456-7.988 5.525m675.613-1.269c12.375 5.403 21.854 12.835 33.337 26.137 6.207 7.191 5.342 6.719-8.828-4.812-9.285-7.555-15.696-12.062-33.188-23.328-3.767-2.427 1.115-1.3 8.679 2.003M750.45 559.938c-.851.841-13.117 4.643-20.95 6.494-4 .946-2.505-.504 4.501-4.365 4.368-2.408 6.723-3.034 11.449-3.049 3.714-.011 5.593.335 5 .92m562.228 2.051c2.848 1.633 5.432 3.38 5.742 3.882 1.286 2.08-13.536-2.438-17.804-5.428-1.927-1.349-1.77-1.442 2.411-1.434 3.118.007 6.041.909 9.651 2.98M899 565.106c0 4.114 3.218 14.511 6.989 22.585 5.508 11.791 11.666 19.895 27.511 36.202 7.7 7.924 13.55 14.224 13 13.999s-4.251-2.092-8.225-4.15-7.574-3.739-8-3.735c-.426.003 3.735 4.391 9.248 9.75 8.352 8.119 14.244 15.551 20.01 25.241 1.402 2.356-24.583-24.698-27.986-29.137-1.676-2.186-7.386-7.529-12.689-11.872-5.302-4.344-12.011-10.622-14.907-13.952s-5.421-5.9-5.61-5.711c-.327.327 3.405 8.813 23.608 53.674 4.83 10.725 11.976 27.6 15.88 37.5 7.727 19.596 18.21 48.794 17.701 49.304-.554.553-14.773-27.096-32.297-62.804-18.271-37.232-23.592-46.854-31.501-56.968-6.102-7.804-18.954-22.144-19.424-21.673-.411.411 4.092 12.733 14.661 40.117 5.081 13.166 10.851 30.853 15.495 47.5 4.07 14.588 8.826 30.574 10.57 35.524 4.185 11.884 11.882 30.628 13.322 32.442.876 1.104.857 1.27-.081.707-2.446-1.469-14.425-20.641-21.754-34.815-4.225-8.172-12.513-21.687-18.964-30.925-6.302-9.025-13.98-21.238-17.061-27.14-5.668-10.856-12.146-27.695-14.531-37.769-1.275-5.381-1.322-5.435-2.196-2.5-1.443 4.848-1.034 26.257.688 36 4.355 24.643 13.675 52.685 25.092 75.5 3.44 6.875 7.442 14.3 8.894 16.5 2 3.031.867 2.183-4.677-3.5-12.8-13.121-20.98-27.15-33.755-57.892-8.726-21.001-11.358-28.521-14.561-41.608-3.045-12.443-3.167-21.509-.388-28.937 3.913-10.456 17.851-26.77 32.323-37.831 7.981-6.101 31.485-21.613 32.865-21.69.413-.023.75.906.75 2.064m249.011 10.644c-4.005 14.304-8.955 29.889-11.727 36.921-2.133 5.41-3.592 7.175-11.843 14.329-18.312 15.875-23.856 23.744-42.624 60.494-7.024 13.753-12.781 24.781-12.793 24.506-.051-1.122 7.009-22.048 9.952-29.5 6.312-15.98 17.852-35.267 32.91-55 16.509-21.635 24.172-33.345 30.276-46.268 5.321-11.263 7.492-15.232 8.33-15.232.137 0-.98 4.388-2.481 9.75m-464.613 1.5c-5.639 6.25-13.989 13.14-20.853 17.206-7.787 4.614-19.682 9.184-26.045 10.007-5 .646-5 .646 2.5-2.766 9.49-4.317 19.832-10.487 34.65-20.673 6.419-4.413 12.102-8.024 12.627-8.024s-.77 1.913-2.879 4.25m694.514 6.986c13.925 9.218 25.757 15.675 34.588 18.878 5 1.814 5 1.814 1 1.838-13.391.081-33.041-10.56-48-25.993-7.091-7.316-5.757-6.749 12.412 5.277m-173.305 23.428c12.19 15.49 14.324 24.251 10.476 43-2.816 13.722-7.174 26.732-13.148 39.25-5.329 11.168-14.112 25.058-18.35 29.019-2.603 2.433-2.603 2.433-.543-3.5 3.079-8.866 9.492-34.322 12.075-47.933 1.779-9.378 2.266-15.387 2.226-27.5-.029-8.525-.492-16.85-1.03-18.5-.921-2.823-1.085-2.528-2.768 5-2.481 11.09-8.023 26.753-12.207 34.5-3.522 6.52-10.478 17.219-10.891 16.75-.121-.137.81-7.225 2.07-15.75s3.481-24.05 4.936-34.5c2.593-18.626 6.108-37.981 7.226-39.789.789-1.278 12.253 10.2 19.928 19.953m-488.649-15.088c-5.837 5.991-19.151 17.211-25.458 21.455l-5 3.364 5.396-5.948c7.516-8.284 17.681-17.132 23.604-20.546 2.75-1.585 5.206-2.886 5.458-2.892s-1.548 2.05-4 4.567M1337 593.684c6.399 4.046 13.077 9.852 19.436 16.9 3.816 4.227 5.963 7.165 4.773 6.528-4.73-2.532-23.762-17.976-33.709-27.355-1.322-1.246 6.304 1.906 9.5 3.927m-523-1.871c0 1.587-5.566 6.099-10 8.106-3.292 1.49-6.514 2.024-12 1.989-9.761-.063-13.529-1.401-6.5-2.308 5.94-.766 16.418-3.879 22-6.535 4.399-2.093 6.5-2.498 6.5-1.252m429.402 3.212c4.321 1.664 11.286 3.541 15.477 4.172l7.621 1.146-5 1.365c-9.198 2.512-18.647.005-24.937-6.616-1.615-1.701-2.505-3.092-1.977-3.092s4.495 1.361 8.816 3.025m-729.848 6.045c-4.164 21.812-8.592 57.808-12.537 101.93-4.248 47.516-7.676 72.931-14.634 108.5-6.071 31.032-13.204 54.976-21.15 71-5.479 11.05-21.401 32.665-22.933 31.133-.244-.244.775-2.376 2.266-4.737 5.089-8.062 15.898-33.619 20.467-48.396 3.64-11.773 9.892-38.266 12.859-54.5 4.378-23.945 6.544-38.325 11.599-77 9.993-76.458 13.664-99.467 18.572-116.402 3.342-11.532 6.115-19.753 6.526-19.342.211.211-.255 3.727-1.035 7.814m1026.539 15.803c4.916 19.105 9.596 47.202 14.862 89.219 2.234 17.825 4.994 38.933 6.135 46.908 3.577 25.01 11.713 69.911 15.311 84.5 5.281 21.416 13.786 45.906 21.251 61.192 3.708 7.594 6.935 14.258 7.17 14.808 1.2 2.805-8.428-7.802-12.219-13.462-15.732-23.488-25.225-51.724-33.977-101.067-5.42-30.558-7.303-45.217-12.131-94.471-4.995-50.961-6.319-62.233-10.57-90-1.599-10.45-2.88-19.45-2.846-20 .135-2.185 3.261 7.784 7.014 22.373m-803.631-10.802c-6.71 6.857-17.896 14.217-25.528 16.794-6.772 2.287-8.867 2.191-4.277-.196 1.564-.813 7.118-4.534 12.343-8.268 8.106-5.794 20.434-13.303 21.962-13.378.255-.013-1.77 2.259-4.5 5.048m574.35-3.167c2.052 1.047 8.897 5.533 15.21 9.969s12.828 8.777 14.478 9.646c3 1.58 3 1.58-.5.941-1.925-.351-7.154-2.382-11.619-4.514-5.758-2.749-10.266-5.91-15.5-10.869-4.06-3.846-7.026-7.012-6.591-7.035s2.469.815 4.522 1.862M607.504 617c-1.256 5.775-3.494 17.025-4.975 25-3.111 16.763-6.149 29.968-7.101 30.872-.364.345-.41-.722-.103-2.372s.832-7.5 1.167-13c.663-10.896 2.737-23.859 5.201-32.5 1.536-5.39 7.353-19.31 7.844-18.773.137.15-.778 4.998-2.033 10.773m836.438 2.5c4.211 12.563 5.929 21.63 6.579 34.723.308 6.202.787 13.06 1.065 15.239s.227 3.684-.113 3.344c-1.059-1.058-5.314-20.584-8.022-36.806-1.422-8.525-3.231-18.567-4.019-22.315-.787-3.749-1.416-7.124-1.397-7.5.092-1.776 3.189 5.204 5.907 13.315m-679.047-1.665C754.672 627.163 751 630.254 751 629.534c0-1.449 6.111-9.45 9.219-12.069 3.103-2.616 8.213-5.34 10.176-5.426.492-.021-1.983 2.587-5.5 5.796m520.778-1.6c3.255 1.92 12.339 13.765 10.557 13.765-.464 0-4.868-3.843-9.787-8.541-8.787-8.391-9.039-10.103-.77-5.224m226.854 9.458c1.888 15.602 2.468 30.416 3.498 89.307.944 54.01 1.604 63.257 5.883 82.5 5.005 22.505 12.422 39.625 25.777 59.5 2.987 4.445-9.683-8.305-14.409-14.5-5.954-7.805-14.479-25.625-17.7-37-6.536-23.076-9.078-54.25-7.504-92 .505-12.1 1.21-39.447 1.568-60.772.357-21.324.859-38.563 1.114-38.307.255.255 1.053 5.327 1.773 11.272M538.938 708c2.88 60.764-3.811 101.271-21.389 129.473-4.304 6.906-16.369 21.04-17.227 20.182-.235-.234 1.428-3.29 3.693-6.791 10.565-16.319 19.365-40.485 23.441-64.364 3.127-18.323 3.697-29.309 4.533-87.5.646-44.875 1.242-62.204 2.425-70.5.863-6.05 1.652-11.675 1.752-12.5s.504 14.025.897 33c.392 18.975 1.236 45.525 1.875 59m127.671-77.25c-8.798 11.666-15.38 22.402-22.099 36.05-8.558 17.381-14.078 31.743-19.448 50.606-2.159 7.585-4.237 14.084-4.618 14.442s-.442-.248-.135-1.348 1.067-6.275 1.691-11.5c1.391-11.662 6.823-32.932 10.968-42.95 5.271-12.736 15.823-29.704 24.065-38.695 3.523-3.843 11.953-11.355 12.743-11.355.229 0-1.196 2.138-3.167 4.75m724.298 6.797c4.643 5.288 14.495 20.274 18.44 28.048 5.309 10.464 9.147 20.785 12.061 32.432 2.395 9.576 5.594 29.535 5.525 34.473-.015 1.1-1.74-3.85-3.833-11-6.06-20.701-10.796-34.093-16.747-47.359-6.462-14.405-9.794-20.322-20.583-36.545-7.916-11.905-7.916-11.905-2.926-7.726 2.745 2.298 6.374 5.753 8.063 7.677m-768.872 3.887c-3.942 7.461-7.319 13.566-7.504 13.566-.653 0 2.504-9.396 4.843-14.412 2.685-5.757 8.503-14.044 9.301-13.247.29.29-2.698 6.632-6.64 14.093m801.902-7.992c1.523 2.232 3.685 6.758 4.804 10.058 4.356 12.842 3.177 12.421-3.638-1.298-3.907-7.864-7.103-14.557-7.103-14.873 0-1.169 3.254 2.181 5.937 6.113m-549.606 13.074c1.077 10.995 6.393 25.097 13.863 36.772 1.685 2.633 3.252 4.599 3.484 4.368.572-.573-2.255-12.699-4.817-20.656-2.123-6.594-10.222-23.67-12.095-25.5-.697-.681-.835.921-.435 5.016m-198.96 19.613c-4.795 7.354-10.214 15.846-12.042 18.871s-3.325 5.023-3.326 4.44c-.006-2.24 5.005-13.692 8.529-19.493 3.611-5.943 14.34-18.408 15.149-17.599.226.225-3.514 6.427-8.31 13.781m455.275-7.271c8.72 3.772 17.527 7.402 19.571 8.067 6.239 2.028 8.114 5.318 10.64 18.666 5.778 30.528 9.569 46.581 13.322 56.409 2.205 5.775 5.822 15.225 8.037 21 3.598 9.381 7.475 25.642 6.376 26.741-.231.231-3.661-3.689-7.622-8.711-3.962-5.022-7.431-8.902-7.71-8.623-.435.434 2.133 5.73 12.978 26.763 1.127 2.186 1.765 5.137 1.577 7.296-.356 4.096 1.27 6.236-19.253-25.35-4.783-7.361-11.99-16.841-16.016-21.067-8.531-8.956-10.608-12.655-15.462-27.532-2.873-8.803-4.08-11.231-6.084-12.235-1.648-.826-7.365-1.258-16.784-1.267l-14.285-.015.644 4.851c.521 3.928.338 4.969-.962 5.467-2.505.962-5.613-6.073-5.613-12.706 0-5.468 0-5.468 5.25-5.997 2.888-.291 9.975-1.05 15.75-1.687 5.775-.636 13.088-1.385 16.25-1.663 5.248-.461 5.75-.713 5.75-2.885 0-2.38 0-2.38-21.063-2.38-21.064 0-21.064 0-20.75-3.25.313-3.25.313-3.25 9.813-3.974 5.225-.398 15.415-1.19 22.644-1.759 7.229-.57 13.889-.75 14.799-.4 2.011.771 5.774 8.098 12.008 23.383 2.58 6.325 5.159 11.95 5.732 12.5.714.685.857.37.455-1-.322-1.1-1.73-5.97-3.128-10.821-5.526-19.174-9.851-28.301-13.796-29.117-1.218-.251-9.864-.723-19.214-1.048-22.187-.772-25.5-1.232-25.5-3.546 0-5.041-.351-4.968 23.972-4.968 27.369 0 26.121-.527 31.46 13.267 1.966 5.078 3.573 9.709 3.571 10.292-.002.582.705 1.932 1.571 3 .866 1.067 1.338 1.457 1.049.865s-1.263-5.767-2.163-11.5-2.458-12.307-3.463-14.608c-1.936-4.435-1.799-4.365-14.497-7.388-2.75-.655-9.889-3.22-15.864-5.701l-10.863-4.51-2.459 3.141c-2.292 2.928-6.314 4.329-6.314 2.199 0-1.841 8.02-15.038 9.146-15.05.356-.004 7.781 3.079 16.5 6.851M711.33 663.75c-5.847 11.771-13.676 31.148-18.89 46.75-3.659 10.949-4.216 9.816-1.967-4 2.337-14.359 8.288-29.84 15.621-40.638 3.536-5.207 9.692-12.862 10.344-12.862.127 0-2.171 4.837-5.108 10.75m661.419-2.406c2.269 2.462 5.336 6.863 6.814 9.78 2.636 5.203 7.437 17.23 7.437 18.633 0 .391-1.706-2.209-3.792-5.778s-7.459-12.011-11.941-18.76c-6.072-9.145-7.447-11.771-5.396-10.311 1.514 1.078 4.61 3.974 6.878 6.436m-619.406-1.634c-5.861 7.179-8.471 10.942-14.075 20.29-8.788 14.66-13.163 25.104-24.923 59.5-3.573 10.45-8.076 22.598-10.008 26.997-4.482 10.206-11.043 20.069-17.41 26.17-5.787 5.547-9.738 8.073-5.824 3.725 7.935-8.816 16.893-26.791 22.871-45.892 13.432-42.919 18.02-54.079 28.999-70.532 5.865-8.788 22.563-26.765 23.755-25.573.289.289-1.234 2.68-3.385 5.315m475.609 10.183c1.057 4.184 3.313 14.903 5.013 23.819 4.241 22.251 7.598 32.908 18.14 57.583 4.983 11.663 11.678 28.855 14.878 38.205s7.491 21.275 9.537 26.5c6.512 16.634 7.645 28.493 5.017 52.5-1.382 12.626-5.117 35.979-6.078 38-.261.55-.244-8.9.038-21 .843-36.133-1.691-56.083-8.942-70.391-8.792-17.35-24.206-34.4-38.703-42.809l-8.276-4.8 6.058-.294c7.17-.347 14.753 2.151 22.315 7.353 5.504 3.786 5.711 2.889.953-4.136-5.136-7.586-15.026-13.279-26.902-15.486-3.575-.664-6.84-1.508-7.255-1.877-.415-.368 1.468-2.974 4.183-5.792 5.352-5.551 6.88-9.278 7.766-18.93.609-6.632-1.124-18.176-3.143-20.937-1.057-1.446-1.327-.86-1.824 3.954-.634 6.143-4.303 15.09-8.383 20.438-2.343 3.073-7.807 7.194-9.549 7.203-.388.002.351-2.808 1.642-6.246 3.133-8.341 6.247-23.769 7.518-37.25.919-9.747 5.616-30.014 9.032-38.973 1.133-2.974 1.133-2.974 3.089 1.393 1.075 2.402 2.819 7.79 3.876 11.973m73.632-5.32c7.672 7.716 16.101 20.337 22.077 33.056 2.551 5.429 8.117 20.446 12.369 33.371 4.253 12.925 8.928 26.65 10.389 30.5 4.039 10.638 12.181 26.443 16.699 32.411 3.751 4.956 3.83 5.188 1.114 3.254-3.693-2.63-8.918-8.395-13.048-14.397-6.167-8.965-12.042-22.487-21.089-48.548-5.018-14.453-11.05-30.653-13.403-36-5.802-13.18-14.238-27.229-21.593-35.962-3.354-3.983-6.099-7.501-6.099-7.818 0-1.18 6.697 4.213 12.584 10.133m41.851 5.744c1.916 3.427 4.674 9.371 6.127 13.207 2.658 7.02 7.457 27.551 7.416 31.73-.012 1.235-3.092-5.854-6.844-15.754-8.212-21.668-12.109-30.878-16.713-39.5l-3.47-6.5 4.999 5.292c2.75 2.911 6.568 8.097 8.485 11.525m-515.957-4.822c6.13 14.517 7.41 19.065 8.537 30.337 1.459 14.589 4.271 25.85 8.947 35.828 3.939 8.406 3.939 8.406.739 6.167-6.51-4.552-13.711-11.27-18.786-17.525-5.977-7.367-6.876-7.089-6.9 2.132-.01 3.923.665 7.339 1.991 10.079 2.115 4.369 13.29 15.639 26.212 26.435 4.245 3.547 7.604 6.563 7.464 6.703s-4.072-1.262-8.739-3.115c-15.302-6.075-27.823-6.365-38.635-.894-7.641 3.865-8.481 5.244-2.805 4.605 6.34-.715 18.464 1.421 28.341 4.993l8.345 3.017-10.895 3.645c-14.81 4.953-24.837 10.892-34.362 20.349-8.868 8.806-18.711 22.871-21.819 31.177-3.616 9.664-4.292 17.982-3.943 48.523.181 15.902.054 28.381-.284 27.731-1.053-2.025-4.841-31.511-5.9-45.918-1.009-13.745-.235-27.106 2.102-36.264 3.329-13.045 15.414-45.501 24.39-65.5 11.576-25.793 16.356-40.944 20.983-66.5 1.393-7.7 3.045-16.25 3.67-19 1.583-6.969 5.99-17.802 6.842-16.817.388.449 2.415 4.865 4.505 9.812m130.231 2.815c4.13 3.618 9.354 14.139 14.268 28.736 3.38 10.041 7.158 24.153 6.612 24.699-.18.18-1.362-2.277-2.627-5.459-5.869-14.768-18.141-36.645-29.857-53.224l-4.549-6.438 6.256 4.248c3.44 2.337 7.894 5.684 9.897 7.438m-189.633 35.471c-9.436 15.213-14.59 27.743-21.481 52.219-7.561 26.854-11.646 35.755-21.009 45.776-6.803 7.281-11.977 10.905-7.338 5.139 1.512-1.878 4.979-6.962 7.704-11.297 4.981-7.924 5.958-10.609 18.057-49.618 4.597-14.823 9.996-27.227 15.093-34.673C763 707.091 772.765 696 773.596 696c.168 0-1.866 3.501-4.52 7.781m513.677 1.508c9.647 11.889 15.587 25.422 22.727 51.775 6.892 25.438 13.237 39.385 22.383 49.201 2.442 2.621 4.243 4.962 4.003 5.203-.892.892-11.865-8.698-15.288-13.362-5.365-7.308-10.055-18.1-14.605-33.606-10.427-35.535-14.875-46.706-24.59-61.767-3.475-5.387-3.892-6.457-2.047-5.249 1.274.835 4.612 4.347 7.417 7.805m95.555 15.211c1.967 7.15 5.188 18.85 7.157 26 3.757 13.64 9.62 27.248 14.379 33.372 1.551 1.995 3.175 4.235 3.609 4.978 1.697 2.905-3.253-.85-8.07-6.123-9.342-10.225-14.435-24.852-19.778-56.801-1.433-8.566-2.591-15.991-2.575-16.5.077-2.336 1.993 3.136 5.278 15.074m-937.936-6.963c-6.461 17.748-14.66 56.095-17.312 80.963-1.262 11.833-2.788 37.968-4.058 69.5-2.316 57.518-5.61 82.248-13.983 105-2.797 7.602-12.863 25.49-13.809 24.543-.206-.205.997-5.249 2.672-11.208 8.424-29.964 10.416-45.212 15.105-115.659 1.641-24.654 3.685-50.979 4.543-58.5 4.652-40.798 12.272-70.224 24.204-93.469 2.482-4.836 4.661-8.645 4.843-8.463.181.181-.811 3.463-2.205 7.293m230.105 15.59c-3.953 21.685-5.988 28.98-10.668 38.251-2.976 5.895-11.448 15.823-15.23 17.847-1.458.781-1.175.047 1.096-2.836 8.308-10.547 12.347-19.746 17.359-39.537 4.947-19.537 10.381-37.513 10.763-35.603.192.962-1.302 10.807-3.32 21.878m940.441-11.877c9.838 21.064 16.917 45.902 21.044 73.828 2.711 18.35 4.6 39.462 7.016 78.422 4.02 64.803 6.159 81.895 14.067 112.397 1.625 6.268 2.952 11.668 2.949 12s-2.478-3.436-5.499-8.374c-6.43-10.507-10.32-20.206-13.886-34.618-4.596-18.578-5.602-30.285-8.628-100.405-2.316-53.671-7.734-91.495-18.336-128-1.916-6.6-3.794-12.788-4.172-13.75s-.384-1.75-.015-1.75c.37 0 2.827 4.612 5.46 10.25m-469.685-3.91c1.041 5.796 7.542 22.811 11.331 29.66 2.49 4.5 2.49 4.5 1.848 1-1.785-9.723-10.777-34.542-12.796-35.317-1.048-.402-1.124.532-.383 4.657m-27.632 23.545c1.336.747-4.559 22.109-6.101 22.106-.55 0-2.331-1.066-3.958-2.368-2.958-2.367-2.958-2.367-.297-9.245 1.463-3.783 2.955-8.112 3.314-9.62.564-2.365 1.018-2.656 3.297-2.115 1.454.345 3.139.904 3.745 1.242m8.024 7.365c-.344 1.788-1.815 7.168-3.27 11.958-2.343 7.716-2.849 8.598-4.439 7.747-1.706-.913-1.68-1.294.526-7.708 3.698-10.753 5.7-15.247 6.792-15.247.608 0 .765 1.305.391 3.25m69.307 7.716c5.099 2.601 10.092 8.586 14.946 17.916 2.183 4.196 5.306 8.618 6.942 9.827 1.635 1.209 5.227 5.567 7.981 9.686 14.1 21.081 19.231 50.87 20.774 120.605.683 30.905-.844 89.584-2.98 114.5-1.201 14-1.201 14-1.867 6.5-1.42-15.993-2.933-58.727-3.876-109.5-.983-52.958-1.808-70.42-3.092-65.5-.359 1.375-1.62 13.075-2.803 26s-2.468 24.349-2.855 25.387-1.254-10.661-1.926-26c-1.243-28.363-3.291-53.457-5.172-63.387-1.845-9.743-4.202-18.473-5.263-19.5-.699-.675-.811-.603-.346.223.924 1.639-.991 42.054-3.401 71.777-2.557 31.534-3.499 47.106-6.501 107.5-4.45 89.501-4.315 88.276-15.638 142-7.684 36.461-10.76 45.662-19.659 58.802l-2.913 4.302-2.166-10.302c-2.424-11.527-4.473-28.178-6.128-49.802-1.479-19.317-4.303-36.796-8.402-52-5.122-19.002-6.363-25.256-8.553-43.09-2.758-22.466-3.933-42.024-4.681-77.91-.725-34.796.437-60.379 4.223-93 1.373-11.825 2.661-21.95 2.863-22.5s.127 20.825-.166 47.5c-.671 61.14 1.277 122.715 4.792 151.5 1.419 11.614 4.022 23.678 8.42 39.015 4.219 14.714 7.051 31.159 8.523 49.485.597 7.425 1.735 18.45 2.53 24.5s1.449 11.563 1.454 12.25c.004.688.438 1.25.964 1.25 1.945 0 8.498-23.682 13.145-47.5 4.88-25.019 5.857-35.917 7.386-82.372 2.75-83.578 4.137-110.706 8.523-166.628 5.748-73.309 5.012-87.481-5.505-105.936-2.371-4.16-4.111-7.564-3.868-7.564.244 0 2.176.884 4.295 1.966M581.996 795.5c.098 20.957-1.295 31.935-5.457 42.993-2.493 6.624-6.962 13.954-10.091 16.55-1.302 1.08-1.112.214.778-3.558 6.558-13.09 8.541-25.84 9.793-62.985.537-15.95 1.289-31.025 1.669-33.5 1.126-7.316 3.202 18.112 3.308 40.5M1470.96 807c1.135 16.581 4.184 32.105 8.446 43 2.543 6.5 2.543 6.5.036 3.5-3.947-4.723-8.108-12.507-9.89-18.5-4.353-14.638-5.626-37.751-3.56-64.605 1.659-21.564 2.353-21.431 3.159.605.412 11.275 1.226 27.475 1.809 36m-363.015-35.644c5.255 4.045 12.14 9.008 15.3 11.027 7.742 4.949 9.286 7.398 7.772 12.329-2.453 7.982-3.211 9.372-4.52 8.285-.686-.569-1.533-2.819-1.881-5-.521-3.257-1.571-4.7-5.875-8.081-2.883-2.263-8.724-7.436-12.981-11.494s-8.845-7.656-10.197-7.995-4.168-.062-6.26.615c-4.544 1.473-26.479 11.129-26.081 11.481.373.331 15.145-2.101 20.778-3.42 8.658-2.028 10.492-1.578 14.862 3.647 7.112 8.503 20.722 25.684 22.52 28.43 1.651 2.52 1.655 2.833.072 5.25-.926 1.413-2.016 2.57-2.421 2.57-1.056 0-9.45-10.817-17.033-21.95-3.575-5.248-7.629-10.079-9.009-10.735-2.104-1-5.494-.55-21 2.79-10.17 2.191-19.841 4.394-21.491 4.895-1.999.606 3.672.858 17 .754 11-.085 20.9.164 22 .554s4.475 4.177 7.5 8.415 8.087 10.872 11.249 14.741c3.162 3.87 5.735 7.936 5.718 9.036-.04 2.582-2.538 5.883-3.842 5.077-.554-.342-5.503-6.601-10.998-13.908s-11.109-13.796-12.477-14.419c-1.881-.857-5.854-.789-16.318.279-7.608.776-17.394 1.425-21.749 1.441-4.354.017-7.682.264-7.396.55 1.258 1.258 17.357 3.598 28.729 4.175 11.531.586 12.616.815 15.213 3.218 5.126 4.741 19.831 24.556 19.851 26.748.025 2.674-4.88 6.939-9.028 7.849-4.139.91-4.769-.011-2.013-2.945 2.28-2.427 2.28-2.427-4.021-11.246-10.377-14.524-6.587-13.023-31.673-12.543-24.975.478-31.261-.412-43.793-6.203-6.009-2.776-8.984-3.567-13.343-3.547-6.153.028-26.459 2.933-58.109 8.313-11.275 1.917-25.45 4.222-31.5 5.123-6.05.902-12.213 1.872-13.696 2.156-2.696.517-2.696.517-1.146-3.428 1.527-3.889 1.666-3.97 9.696-5.669 21.358-4.52 73.538-18.315 69.855-18.467-.711-.03-9.261 1.045-19 2.389-15.121 2.086-29.328 3.84-49.013 6.05l-4.303.483 3.223-4.488c1.773-2.468 3.484-4.488 3.804-4.489 4.414-.008 43.114-4.724 61.375-7.479 44.822-6.761 79.215-14.303 104.205-22.849 7.15-2.446 13.9-4.67 15-4.943 5.28-1.31 7.071-.588 16.445 6.628m-299.211 1.732c-9.442 2.225-17.42 8.805-21.905 18.068-5.081 10.493-4.689 10.845 3.532 3.167 4.203-3.925 12.141-10.349 17.64-14.275s9.999-7.343 9.999-7.593c0-.701-5.076-.354-9.266.633m351.094 7.392c4.832 6.416 15.592 24.507 21.264 35.752 3.815 7.565 4.908 10.785 4.908 14.464 0 4.123-.185 4.544-1.433 3.268-.789-.805-6.166-10.464-11.95-21.464-10.58-20.121-18.151-36.526-16.829-36.469.392.017 2.21 2.019 4.04 4.449m-247.325-.479c1.449.551 4.26 2.238 6.248 3.75l3.613 2.749-7.932.525c-6.892.457-8.565.962-12.758 3.851-9.396 6.473-18.936 22.633-23.981 40.624-5.288 18.853-9.245 43.622-15.097 94.5-4.668 40.585-5.946 61.492-5.989 98-.041 33.623.59 40.777 5.994 68 1.911 9.625 4.361 25.6 5.445 35.5 1.083 9.9 2.642 21.311 3.462 25.358 1.654 8.154 7.404 23.321 9.039 23.84 1.678.534 4.104-7.882 7.963-27.622 1.981-10.134 5.822-25.308 8.537-33.721 10.553-32.711 12.823-45.174 18.455-101.355 1.958-19.525 4.882-46.075 6.499-59 2.506-20.029 6.997-63.371 9.739-93.988.62-6.925 1.082-8.55 2.51-8.824 1.55-.296 1.75.59 1.75 7.768 0 13.319-3.429 56.747-7.979 101.044-1.101 10.725-3.14 31.65-4.53 46.5-5.098 54.438-9.614 82.296-16.592 102.346-7.889 22.671-9.108 26.813-12.424 42.219-4.761 22.122-9.478 34.935-12.86 34.935-1.758 0-6.934-5.755-9.894-11-3.958-7.012-7.388-19.461-8.68-31.5-1.891-17.624-3.836-28.761-8.02-45.921-2.157-8.843-4.653-20.804-5.548-26.579-6.675-43.096 2.034-177.107 15.501-238.5 1.568-7.15 3.157-13.9 3.529-15 .373-1.1-.785.25-2.573 3-5.011 7.706-10.295 20.327-16.538 39.5-3.135 9.625-6.026 18.4-6.426 19.5-2.078 5.718 3.006-39.372 6.201-55 1.125-5.5 2.877-12.25 3.894-15l1.849-5-3.041 3.5c-7.907 9.101-16.279 23.994-21.222 37.752-5.536 15.409-8.387 30.124-11.092 57.248-2.825 28.329-7.521 103.768-7.564 121.5-.036 14.852-1.572 12.839-2.826-3.704-2.256-29.767-2.459-54.097-.754-90.296 2.692-57.127 4.248-70.386 10.081-85.881 5.004-13.296 15.108-31.14 25.472-44.984 2.827-3.776 4.961-7.043 4.744-7.261-.888-.887-9.232 2.84-13.703 6.123-10.578 7.764-24.949 25.86-31.51 39.676-1.918 4.039-4.599 11.723-5.956 17.076-4.228 16.664-4.78 27.18-4.03 76.751.447 29.612.346 45.151-.289 44.5-1.484-1.52-6.062-38.696-7.265-59-1.555-26.247.11-52.972 4.174-67 2.144-7.401 7.212-17.432 14.651-29 7.7-11.972 7.769-12.18 2.312-7-6.145 5.833-9.742 10.794-16.315 22.5-4.149 7.389-4.773 8.099-4.775 5.432-.006-8.364 7.429-24.46 15.253-33.021 10.231-11.194 22.857-17.018 42.245-19.486 7.466-.95 11.287-1.989 15.08-4.098 5.767-3.208 15.043-5.39 18.851-4.434 2.562.643 2.562.643-1.942 6.173-2.477 3.042-5.646 7.784-7.042 10.538l-2.537 5.007 8.295-7.206c17.689-15.367 29.096-20.402 38.298-16.904m326.324 16.989c5.745 4.161 12.692 13.339 15.605 20.615 1.349 3.371 3.267 9.902 4.261 14.512 1.587 7.362 1.8 13.499 1.752 50.383-.041 31.447-.485 46.648-1.769 60.5-1.632 17.602-4.389 39.047-5.114 39.772-1.179 1.179-1.613-46.062-.7-76.272 1.67-55.316.225-66.359-12.599-96.25-3.834-8.937-6.654-16.25-6.267-16.25s2.561 1.345 4.831 2.99M969 827.427c-12.925 2.95-35.13 8.368-49.345 12.04s-26.11 6.411-26.434 6.088c-1.181-1.181 1.598-2.616 13.813-7.133 28.225-10.438 42.71-14.038 61.408-15.262 25.794-1.69 25.819-1.498.558 4.267m102.789 19.421c1.02.648.652 3.202-1.762 12.235a2644 2644 0 0 0-6.516 25.026c-1.906 7.485-3.712 14.46-4.012 15.5-1.304 4.508 6.246-12.545 12.665-28.609 3.846-9.625 7.299-17.819 7.673-18.208.374-.39 1.225-.372 1.891.04 1.393.861-2.118 12.881-20.2 69.168-18.407 57.295-25.575 84.917-39.184 151-8.235 39.981-10.127 51.143-16.359 96.5-2.796 20.35-5.747 41.275-6.558 46.5-11.997 77.313-29.315 163.55-44.582 222-11.912 45.607-14.176 54.746-19.444 78.494-3.05 13.746-5.948 27.021-6.44 29.5s-3.63 17.556-6.974 33.506c-9.853 47.012-19.159 95.943-23.012 121-4.339 28.222-13.721 77.06-24.024 125.059-2.722 12.683-6.014 28.658-7.316 35.5-1.944 10.225-2.505 11.925-3.145 9.546-.429-1.592-.507-9.917-.175-18.5.566-14.608.511-15.317-.856-11.105-2.737 8.433-5.459 23.798-5.459 30.818 0 4.047.794 9.555 1.88 13.046 1.035 3.323 1.635 6.288 1.334 6.589-1.224 1.224-7.533.425-11.128-1.409-3.931-2.006-9.086-7.303-9.086-9.337 0-.626 1.806-6.867 4.013-13.868 5.845-18.54 19.049-73.507 26.865-111.839 4.464-21.894 11.334-59.694 19.628-108 14.172-82.538 25.477-132.725 50.039-222.145 12.314-44.833 17.66-68.392 27.876-122.855 6.396-34.096 16.184-95.667 22.018-138.5 12.361-90.764 23.878-148.096 40.878-203.5 2.447-7.975 6.331-20.8 8.632-28.5 11.256-37.676 27.5-85.528 29.018-85.485.293.009 1.113.384 1.822.833m-44.479 176.902c-.344.963-1.44 3.866-2.435 6.452-3.605 9.376-9.074 35.797-8.805 42.541.214 5.361 7.819-23.022 10.85-40.493 1.681-9.685 1.808-12.458.39-8.5m85.744 79.402c6.547 96.844 14.571 145.529 40.436 245.348 10.085 38.919 35.828 132.376 42.956 155.946.822 2.72 1.343 5.098 1.158 5.284-.655.654-14.523-32.469-21.95-52.424-4.133-11.107-10.514-29.782-14.178-41.5-19.306-61.732-27.391-90.802-33.88-121.806-10.823-51.708-18.6-122.193-18.593-168.5.003-17.236 1.165-51.666 1.724-51.106.226.226 1.273 13.167 2.327 28.758M939.628 1136.5c-.265 20.35-.966 42.625-1.557 49.5-6.934 80.653-20.751 142.542-52.242 234-4.45 12.925-10.537 29.8-13.526 37.5-7.261 18.706-20.511 49.625-21.04 49.096-.567-.567 3.53-15.502 11.411-41.596 13.693-45.337 22.421-76.245 36.429-129 11.947-44.996 14.866-57.237 19.903-83.466 9.849-51.288 12.631-73.753 17.155-138.534 2.258-32.345 2.367-33.173 3.144-24 .443 5.225.588 26.15.323 46.5M833.01 1146c1.321 30.181 3.287 58.651 6.664 96.5 3.253 36.466 3.663 80.803.975 105.5-3.071 28.223-5.914 50.49-6.536 51.197-.337.383-.666-24.592-.731-55.5-.107-51.065-.376-59.759-2.942-95.197-2.105-29.09-2.838-46.496-2.881-68.5-.053-26.722 1.347-54.864 3.183-64 .704-3.5.704-3.5.95 1 .135 2.475.728 15.525 1.318 29m386.09-10.284c2.1 32.672 1.605 71.816-1.552 122.784-2.243 36.212-2.754 52.525-2.887 92.162-.088 26.489-.285 48.04-.436 47.891-.573-.563-3.232-17.651-5.142-33.053-5.422-43.699-5.346-67.588.421-132.5 3.065-34.493 5.298-70.147 6.152-98.211.363-11.942.971-21.519 1.352-21.284.38.235 1.322 10.23 2.092 22.211m-413.136 155.855c1.419 18.754.282 31.513-4.441 49.828-2.932 11.372-9.579 30.078-11.226 31.592-.304.28-.298-9.616.012-21.991.707-28.148 2.347-39.602 11.38-79.5l1.811-8 .662 6.5c.364 3.575 1.175 13.282 1.802 21.571m443.963-3.071c6.18 31.271 7.167 39.282 7.636 62 .504 24.401.627 24.402-7.488-.049-6.462-19.471-8.075-29.002-8.075-47.72 0-17.039 1.945-39.091 3.186-36.119.433 1.038 2.567 10.888 4.741 21.888m-199.964 21.5c1.246 25.568 4.117 62.645 6.505 84 4.706 42.097 5.931 52 9.587 77.5 7.447 51.939 12.873 80.776 23.05 122.5 14.368 58.906 28.287 97.291 47.686 131.5 7.713 13.601 22.824 35.959 30.89 45.704 15.658 18.918 32.644 36.174 55.83 56.717l4.989 4.42-6.976-3.846c-45.366-25.011-91.864-65.415-129.522-112.545-29.717-37.192-47.794-68.822-64.145-112.236-11.232-29.822-18.322-56.176-23.326-86.704-2.512-15.322-6.062-50.917-5.306-53.186.216-.646.968 2.167 1.671 6.251 3.886 22.551 13.973 62.563 21.788 86.425 20.048 61.212 41.557 102.275 77.04 147.081 8.7 10.985 20.276 24.249 20.276 23.231 0-.291-2.637-6.555-5.859-13.921-25.765-58.884-44.023-122.954-54.541-191.391-8.789-57.187-13.686-120.018-13.951-179-.166-36.821 1.188-70.95 2.44-61.5.401 3.025 1.244 16.075 1.874 29m80.015 164c6.797 23.581 13.589 45.532 18.875 61 25.566 74.804 56.33 140.809 86.227 185 28.109 41.547 50.596 63.554 88.28 86.395 5.974 3.621 10.249 6.784 9.5 7.03-1.938.636-20.234 3.38-27.41 4.11-8.026.816-20.852-1.028-31.939-4.593-23.203-7.46-48.966-28.66-66.161-54.442-2.201-3.3-4.382-6.675-4.847-7.5s4.969 4.14 12.076 11.033c14.332 13.901 27.395 23.243 42.464 30.371 9.895 4.679 23.081 8.916 31.501 10.121 5.432.777 5.45.82-2.044-5.024-21.901-17.08-44.801-43.129-65.937-75.001-13.652-20.586-21.996-35.113-32.883-57.252-32.798-66.689-57.067-143.869-68.022-216.318-4.131-27.319-3.922-28.704 1.273-8.43 2.677 10.45 6.748 25.525 9.047 33.5m-189.354-14.793c-1.993 5.661-4.737 15.018-6.099 20.793-2.651 11.248-7.586 38.454-7.432 40.975.132 2.141 5.254-14.008 9.349-29.475 3.584-13.536 9.034-41.357 8.255-42.137-.247-.247-2.08 4.183-4.073 9.844m-40.059 67.502c-20.884 93.521-42.564 148.497-80.956 205.291-18.404 27.225-28.258 39.775-42.046 53.549-14.339 14.325-21.715 19.979-34.563 26.498-8.86 4.496-13.438 5.219-22.391 3.539l-3.703-.694 4.797-2.544c16.388-8.688 35.827-23.742 50.027-38.744 47.654-50.343 88.969-129.469 122.237-234.104 3.148-9.9 6.805-21.985 8.128-26.857 4.059-14.948 3.214-7.178-1.53 14.066m-88.523 79.373c-11.45 40.364-29.732 81.394-49.71 111.56-16.709 25.23-40.075 48.416-65.332 64.827-5.225 3.395-10.175 6.551-11 7.014-.825.462 7.234-7.895 17.908-18.571 41.686-41.694 53.929-59.275 85.506-122.789 7.28-14.643 15.898-32.552 19.151-39.8s6.032-13.06 6.174-12.918-1.072 4.947-2.697 10.677m429.46 6.918c10.714 24.177 29.605 61.471 40.476 79.906 18.693 31.704 30.562 46.718 60.881 77.017 12.804 12.796 19.867 20.477 17.539 19.075-19.619-11.821-31.671-21.423-48.052-38.286-18.606-19.152-31.14-37.074-45.259-64.712-14.509-28.402-23.184-51.387-33.779-89.5-1.155-4.153.668-.483 8.194 16.5m-344.335 37.72c-3.406 12.922-5.779 26.687-6.598 38.28-.53 7.5-.53 7.5.946 3.046 3.759-11.344 10.725-51.139 9.216-52.649-.252-.251-1.856 4.844-3.564 11.323m-53.025 123.366c-2.637 7.66-8.706 19.409-13.097 25.353-6.242 8.449-15.362 16.133-24.305 20.476-7.117 3.456-18.74 7.593-18.74 6.67 0-.168 2.844-2.146 6.32-4.394 14.615-9.451 34.861-29.647 45.001-44.888 3.365-5.058 6.246-9.07 6.401-8.914.156.156-.555 2.719-1.58 5.697"/></svg>