<svg xmlns="http://www.w3.org/2000/svg" viewBox="0 0 2048 2048"><path fill-rule="evenodd" d="M900.723 237.42c-6.255 1.682-14.638 7.529-18.409 12.84-1.655 2.332-3.866 6.49-4.912 9.24-1.412 3.711-1.884 7.449-1.832 14.5.054 7.317.578 10.798 2.283 15.147 1.218 3.106 3.951 7.621 6.075 10.034 2.124 2.412 6.271 5.707 9.217 7.321 4.703 2.578 6.572 2.981 15.355 3.309 8.509.318 10.887.04 15.949-1.865 7.503-2.823 14.637-9.385 18.289-16.821l2.762-5.625v-24l-2.909-6.3c-3.946-8.545-10.653-14.521-19.293-17.19-7.353-2.271-15.531-2.485-22.575-.59m182.507.13c-2.898.781-6.682 2.149-8.407 3.042-5.783 2.99-12.456 10.204-15.424 16.674-2.509 5.468-2.86 7.401-2.86 15.734 0 8.289.357 10.279 2.804 15.61 1.574 3.43 4.856 8.125 7.481 10.701 2.572 2.524 7.376 5.85 10.676 7.389l6 2.8h12.5c8.349 0 13.247-.427 14.75-1.285l2.25-1.285v-10.465c0-5.756-.17-10.465-.378-10.465s-1.993.675-3.968 1.5-6.192 1.498-9.372 1.496c-7.07-.004-11.781-2.552-13.842-7.486-2.037-4.875-1.834-13.305.423-17.526 2.668-4.989 7.429-7.475 14.135-7.38 3.026.043 6.942.825 8.702 1.737 1.761.912 3.336 1.658 3.5 1.656s.3-4.833.3-10.737v-10.733l-5-1.168c-6.861-1.601-17.935-1.514-24.27.191m-130.759 17.32c-.755 18.123-.226 30.941 1.54 37.253.557 1.992 2.809 5.663 5.004 8.157 4.695 5.334 10.191 7.586 20.485 8.393 8.34.655 17.047-.807 23.244-3.902 5.334-2.664 10.382-8.233 12.232-13.496.915-2.601 1.463-11.625 1.764-29.025l.437-25.25H991v49l-2 2c-2.654 2.654-6.5 2.552-8.443-.223-1.306-1.863-1.557-6.151-1.557-26.561v-24.339l-12.899.212-12.899.213zm-93.287-13.97-4.316.6-4.151 9.813c-4.779 11.293-4.587 11.323-9.908-1.521l-3.309-7.987-14 .68c-7.699.375-14.156.837-14.347 1.028s3.685 7.467 8.614 16.168c4.929 8.7 9.713 17.288 10.631 19.084 1.592 3.115 2.175 9.499 2.487 27.235l.114 6.5 13.25-1 13.251-1 .5-15.5.5-15.5 9.75-19.24c5.362-10.582 9.75-19.47 9.75-19.75 0-.661-13.228-.386-18.816.39m278.758 1.701c-2.721 7.029-22.986 66.685-22.728 66.906.157.136 5.735.563 12.396.949l12.109.703.643-4.022c.354-2.212 1.13-4.323 1.725-4.691s4.882-.352 9.526.035l8.444.703 1.163 4.349 1.163 4.349 6.059.54c3.332.297 9.304.675 13.272.84l7.214.299-.618-2.53c-.764-3.13-9.233-30.86-13.753-45.031a2615 2615 0 0 1-5.592-17.75l-2.243-7.25-4.111-.005c-2.261-.003-8.484-.295-13.829-.649l-9.718-.643zM1192 278.5V314h4.353c2.395 0 7.108.288 10.474.64l6.121.639.276-15.889.276-15.89 9.441 16.241 9.441 16.24 3.059.461c1.683.254 6.997.732 11.809 1.062l8.75.6V246l-5.75-.009c-3.162-.004-8.112-.292-11-.639l-5.25-.631-.022 16.39-.022 16.389-3.108-5.5c-1.709-3.025-6.041-10.504-9.625-16.619l-6.518-11.119-6.603-.624c-3.631-.343-8.74-.627-11.352-.631L1192 243zm76.532-31.399c-1.191 3.202-6.578 23.185-6.316 23.428.156.146 4.115.424 8.797.618l8.514.353 4.701-11.952c2.585-6.574 4.559-12.094 4.386-12.267s-4.645-.599-9.938-.947c-7.757-.51-9.725-.361-10.144.767M744 249.053c-10.175 1.009-19.012 1.859-19.638 1.89-.838.042-1.002 9.083-.62 34.307.285 18.837.59 34.343.679 34.457.088.114 4.609-.248 10.045-.804 5.437-.556 11.156-1.099 12.708-1.207l2.822-.196.002-12.625.002-12.625 3.125-.625c1.719-.344 4.588-.625 6.375-.625s4.656-.281 6.375-.625l3.125-.625v-15.696l-9.5.624-9.5.624v-8.075l4.25-.572c2.337-.314 7.288-.868 11-1.23l6.75-.658V247l-4.75.11c-2.612.06-13.075.934-23.25 1.943m-46 4.158c-5.225.514-9.881 1.306-10.347 1.759s-.516 16.163-.112 34.911l.736 34.088 2.111-.434c1.162-.238 5.262-.699 9.112-1.025 3.85-.327 8.913-.851 11.25-1.165l4.25-.572V252l-3.75.138c-2.062.076-8.025.559-13.25 1.073m593 7.859v8.734l5.983.694 5.984.695.266 25.653.267 25.654 5 .6c2.75.33 8.487.911 12.75 1.292l7.75.691v-14.886c0-8.187.296-19.719.657-25.627l.657-10.741 6.843.687 6.843.687v-9.102c0-6.467-.351-9.101-1.213-9.101-.667 0-10.005-.872-20.75-1.938s-22.125-2.115-25.287-2.332l-5.75-.395zm-375.524-3.685c1.312 1.312 2.915 4.349 3.564 6.75.667 2.472.991 7.954.747 12.638-.327 6.278-.921 8.931-2.461 11-1.117 1.5-3.223 3.152-4.68 3.671-2.102.748-3.218.519-5.396-1.107-1.51-1.127-3.274-3.802-3.921-5.943-1.528-5.063-1.628-15.322-.204-20.977 1.186-4.709 4.734-8.417 8.055-8.417 1.051 0 2.984 1.073 4.296 2.385M1155.941 286c.033.275-2.221.342-5.009.149-3.554-.246-4.924-.726-4.587-1.607.265-.69 1.514-5.831 2.775-11.424l2.294-10.168 2.233 11.275c1.229 6.201 2.261 11.5 2.294 11.775m-171.256 44.126c-.321 1.856-.887 7.945-1.257 13.532l-.673 10.158 11.123.72 11.122.721v80.439l10.656.652c5.86.359 14.86.652 20 .652H1045v-81.626l11 .43 11 .429v-13.549c0-12.047-.194-13.605-1.75-14.049-.963-.275-19.352-.811-40.865-1.191l-39.116-.692zm-93.185-.093c-7.15.406-14.576.79-16.503.853l-3.503.114.349 55.25c.192 30.387.418 55.295.503 55.349s10.729-.495 23.654-1.222c12.925-.726 28.606-1.605 34.846-1.953l11.347-.633-.362-14.646-.361-14.645-14.083.374-14.083.373-.687-5.848c-.378-3.216-.635-21.16-.571-39.874l.116-34.025-3.831-.103c-2.107-.057-9.681.229-16.831.636m182.5 18.76c0 10.934.297 35.451.661 54.481l.661 34.601 6.089.528c3.349.29 12.277.793 19.839 1.117l13.75.59V402h15.958l.271 19.75.271 19.75 19.832 1.522c10.908.836 20.044 1.178 20.303.76.259-.419.152-25.23-.238-55.135l-.709-54.372-11.594-.65c-6.377-.357-15.307-.93-19.844-1.275l-8.25-.625v44.554l-5.25-.631c-2.888-.347-6.487-.635-8-.639L1115 375v-43.841l-6.25-.543c-3.437-.299-12.662-.804-20.5-1.124l-14.25-.58zm-265.903-14.006-18.404 1.516.654 19.509c.359 10.73.653 35.92.653 55.978v36.468l4.75-.618c2.612-.34 16.225-1.514 30.25-2.609s27.862-2.257 30.75-2.583l5.25-.592v-30.097l-13.75.721c-7.562.396-14.2.788-14.75.87-.649.097-1.092-13.981-1.261-40.1l-.262-40.25-2.738.135c-1.507.075-11.021.818-21.142 1.652M1185 390.606v55.111l12.25 1.183c6.737.651 21.475 2.063 32.75 3.137s22.188 2.185 24.25 2.469l3.75.518v-14.012c0-10.527-.311-14.019-1.25-14.042-.687-.016-7.55-.682-15.25-1.479s-14.562-1.459-15.25-1.47c-.881-.015-1.25-2.124-1.25-7.15v-7.128l11.25.701c6.188.386 12.263.943 13.5 1.237l2.25.536v-25.961l-3.75-.575c-2.062-.315-8.138-.884-13.5-1.264l-9.75-.691v-16.688l4.25.502c9.572 1.13 27.262 2.282 27.739 1.806.281-.28.511-6.435.511-13.678V340.5l-22-1.702c-12.1-.937-28.412-2.063-36.25-2.503l-14.25-.799zM759 339.46c-6.325.703-14.234 1.597-17.576 1.987l-6.076.709.445 55.672c.245 30.62.622 55.865.837 56.1.334.363 18.79-1.5 35.671-3.602l4.801-.597-.301-55.615-.301-55.614-3-.159c-1.65-.087-8.175.416-14.5 1.119m-53.414 2.635c-10.402 1.595-18.952 3.013-19 3.152s-5.253 10.715-11.569 23.503c-6.315 12.788-11.749 23.25-12.074 23.25-.326 0-.706-9.56-.844-21.243-.139-11.684-.352-21.343-.474-21.465-.258-.258-34.982 4.51-38.509 5.288l-2.384.525.733 56.698c.403 31.183.914 56.885 1.135 57.115.415.431 34.148-3.628 38.13-4.587l2.231-.538.269-20.875.27-20.874 9.5 17.119c5.225 9.415 10.244 18.344 11.152 19.841l1.653 2.723 22.347-3.329c12.292-1.831 22.895-3.345 23.564-3.364s-2.514-5.772-7.074-12.784c-13.39-20.594-28.275-43.655-29.018-44.957-.716-1.255.292-3.233 13.909-27.293 6.687-11.816 14.522-26.364 16.292-30.25.188-.413-.033-.706-.492-.652s-9.344 1.403-19.747 2.997m568.531 17.104c-.674 9.516-2.555 34.584-4.18 55.709-1.625 21.124-2.755 38.607-2.511 38.852.579.579 28.136 4.19 32.189 4.218l3.115.022.885-27.483.885-27.484 9.872 28.864 9.872 28.865 4.517.619c8.919 1.222 8.774 1.303 12.008-6.631 1.626-3.988 6.28-16.131 10.343-26.984l7.388-19.735.265 28.485c.203 21.756.557 28.495 1.5 28.532.679.027 9.897 1.072 20.485 2.323l19.25 2.275v-9.209c0-11.509-2.061-104.832-2.321-105.092-.105-.105-8.738-1.121-19.185-2.258a37109 37109 0 0 1-22.677-2.473c-2.745-.302-3.851.014-4.344 1.24-.363.905-3.72 9.746-7.459 19.646s-7.371 19.244-8.073 20.764l-1.275 2.764-7.942-23.764c-4.368-13.07-8.231-24.068-8.583-24.439-.353-.372-7.841-1.381-16.641-2.244s-18.286-1.819-21.079-2.125l-5.079-.557zm-317.656 99.543-9.04.327-8.46 17.134-8.461 17.134-.275-16.168L929.95 461h-5.321c-2.927 0-9.441.292-14.475.65l-9.154.649v91.973l4.64-.636c2.551-.35 9.105-.636 14.564-.636h9.925l-.315-17.453c-.172-9.598-.059-17.136.253-16.75.312.387 2.08 4.078 3.928 8.203 1.849 4.125 5.266 11.493 7.593 16.372l4.232 8.873 10.84-.201c5.962-.11 13.37-.502 16.463-.872l5.623-.672-7.9-14.5c-4.345-7.975-10.375-19.354-13.4-25.287l-5.5-10.787 9.705-18.213c5.337-10.017 10.555-19.451 11.595-20.963l1.89-2.75-4.818.208c-2.65.114-8.886.354-13.857.534m32.289 2.001-7.75.341v89.971l14.25-.278 14.25-.277.312-31c.171-17.05.012-37.413-.354-45.25l-.666-14.25-6.146.201c-3.38.111-9.633.355-13.896.542M1019 506v45h23.784l-.142-20c-.078-11-.063-20 .034-20 .26 0 15.59 28.506 19.139 35.588l3.05 6.088 12.068.225 12.067.226v-90.831l-8.25-.642c-4.537-.353-9.713-.645-11.5-.648L1066 461v43.486l-7.083-12.993c-3.896-7.146-8.573-15.96-10.394-19.587s-3.917-7.564-4.658-8.75l-1.346-2.156H1019zm78 1.82v45.988l10.75.828c5.912.455 15.727.818 21.81.806l11.06-.021 5.581-2.731c6.224-3.045 12.558-9.337 15.802-15.697 3.069-6.016 4.96-16.087 4.98-26.533.029-15.293-4.023-26.215-13.092-35.284-2.615-2.614-6.784-5.767-9.266-7.007s-7.575-2.867-11.319-3.617c-3.743-.75-13.444-1.669-21.556-2.042l-14.75-.677zm-254.5-41.678c-5.5.476-10.562 1.075-11.25 1.331-.938.348-1.25 5.069-1.25 18.914v18.449l-6.87.332-6.871.332-.629-8.904c-.347-4.897-.63-13.171-.63-18.387v-9.484l-8.75.684c-4.812.376-11.112.95-14 1.275l-5.25.591v45.304c0 24.916.337 45.478.75 45.693.868.45 26.417-2.106 27.015-2.703.219-.22.653-7.364.964-15.877l.564-15.478 3.604-.596c1.982-.328 5.065-.601 6.853-.607L830 527l.118 14.75c.066 8.112.047 15.143-.04 15.622-.157.856 20.714.06 26.172-.998l2.75-.533V465l-3.25.137c-1.788.076-7.75.528-13.25 1.005m329.5 46.677v45.923l7.25.66c3.987.363 9.162.922 11.5 1.243l4.25.582.039-21.363.039-21.364 11.211 22 11.211 22 5.5.635c3.025.35 8.313.87 11.75 1.156l6.25.519V471l-3.25-.006c-1.787-.003-6.953-.294-11.48-.647l-8.229-.64-.271 21.103-.27 21.103-10.809-21.422-10.81-21.423-3.19-.486c-1.755-.267-7.128-.756-11.941-1.086l-8.75-.6zm-420-37.468-27.5 3.149-.107 10.779-.107 10.778 7.357-.666 7.357-.667V568l2.75-.032c1.513-.017 7.475-.678 13.25-1.468s11.063-1.451 11.75-1.468c.975-.025 1.25-7.69 1.25-34.903v-34.871l7-.689 7-.69v-10.94c0-8.138-.32-10.913-1.25-10.838-.687.055-13.625 1.518-28.75 3.25m497.504 41.099c-.399 24.228-.563 45.174-.365 46.547.32 2.216.982 2.573 5.861 3.168 3.025.37 13.375 1.615 23 2.767a5382 5382 0 0 1 20.605 2.495l3.105.4.671-11.054c.369-6.079.492-11.233.273-11.453s-5.969-1.181-12.776-2.137l-12.378-1.739-.301-6.343-.301-6.344 5.801.643c3.191.354 7.939.901 10.551 1.216l4.75.572v-20.029l-2.75-.542c-1.513-.298-5-.812-7.75-1.143-2.75-.332-6.125-.809-7.5-1.06l-2.5-.458.323-7.296.322-7.297 10.178 1.271c5.597.699 10.964 1.292 11.927 1.318 1.563.043 1.75-1.124 1.75-10.952 0-8.322-.314-11-1.292-11-.71 0-6.654-.703-13.208-1.563-6.555-.859-17.622-2.119-24.594-2.8l-12.677-1.237zM700.75 481.806 690 483.344v92.747l3.25-.606c1.788-.332 8.2-1.393 14.25-2.356l11-1.75.26-45.69.26-45.689-3.76.134c-2.068.073-8.597.826-14.51 1.672m631.25 2.159c-6.854 1.216-11.436 3.471-15.686 7.721-2.124 2.124-4.414 5.703-5.088 7.954s-1.226 6.764-1.226 10.03c0 4.362.667 7.249 2.513 10.884 3.009 5.924 6.35 9.699 14.147 15.986 9.907 7.987 13.29 11.415 13.979 14.158.516 2.055.137 3.065-1.713 4.563s-3.264 1.783-6.4 1.288c-5.446-.858-12.139-4.205-16.759-8.378-2.101-1.899-3.965-3.276-4.143-3.061s-.883 5.766-1.567 12.336l-1.242 11.945 1.842 1.418c3.668 2.823 14.707 7.516 20.708 8.804 12.873 2.763 26.301 1.032 33.279-4.29 1.792-1.367 4.405-4.788 5.807-7.601 1.888-3.789 2.549-6.684 2.548-11.168 0-4.621-.684-7.474-2.888-12.054-2.906-6.039-8.487-12.034-20.424-21.939-3.197-2.652-6.497-5.867-7.333-7.143-.901-1.376-1.248-3.177-.851-4.426 1.573-4.957 9.898-4.528 18.734.965 2.761 1.716 5.149 2.99 5.306 2.831.524-.527 3.457-16.969 3.457-19.378 0-1.806-1.248-3.091-5.25-5.405-2.888-1.669-7.5-3.673-10.25-4.453-6.64-1.884-15.949-2.571-21.5-1.587m-660.758 1.752c-7.996 1.294-9.329 1.79-9.781 3.64-.288 1.179-2.218 12.458-4.289 25.066l-3.766 22.923-1.757-7.923a6004 6004 0 0 1-5.005-22.923l-3.248-15-5.294.331c-2.911.182-8.273.88-11.913 1.552l-6.62 1.222-1.17 5.948c-.643 3.271-2.656 14.461-4.472 24.868l-3.304 18.921-4.467-23.508-4.466-23.507-11.095 2.393c-6.102 1.316-12.557 2.651-14.345 2.967s-3.25 1.173-3.25 1.905.929 5.285 2.064 10.119c1.738 7.398 13.68 60.298 17.025 75.413l1.023 4.625 14.185-2.949c7.801-1.621 14.353-3.117 14.56-3.323.206-.207 2.235-10.747 4.509-23.424s4.471-23.05 4.884-23.051.75.898.75 1.999c0 2.273 8.796 40.129 9.484 40.817.247.246 6.131-.595 13.077-1.869l12.628-2.316.924-2.431c.509-1.338 4.073-19.143 7.921-39.567s7.825-41.072 8.839-45.885l1.843-8.75-3.108.11c-1.709.06-7.274.784-12.366 1.607m460.773 1.533c1.821 1.238 4.14 3.857 5.153 5.82 2.575 4.992 3.865 16.632 2.731 24.641-.967 6.828-3.811 13.129-6.757 14.968-.939.587-3.155 1.385-4.925 1.773l-3.217.707V485h1.852c1.019 0 3.342 1.012 5.163 2.25M1399 494.981c-2.475.455-5.768 1.321-7.318 1.924-4.973 1.936-9.52 6.13-11.838 10.916-1.64 3.389-2.256 6.456-2.256 11.239 0 5.116.6 7.804 2.699 12.093 2.661 5.44 7.422 10.444 22.034 23.159 5.281 4.596 6.679 6.402 6.679 8.628 0 1.548-.679 3.378-1.508 4.067-2.054 1.704-9.212.791-14.727-1.879-2.429-1.176-6.316-3.764-8.638-5.752s-4.362-3.448-4.533-3.245-1.019 5.742-1.884 12.309l-1.574 11.939 1.682 1.337c3.28 2.606 14.886 8.143 20.742 9.894 3.882 1.161 9.404 1.797 15.94 1.833 8.779.05 10.685-.264 15.607-2.572 8.176-3.834 12.893-11.092 12.893-19.839 0-5.314-2.778-13.857-6.017-18.504-3.22-4.621-9.643-10.869-18.983-18.467-7.541-6.135-9.559-9.148-8.035-11.996.568-1.061 1.952-2.221 3.076-2.578 3.47-1.101 9.574.511 15.546 4.107 3.142 1.892 5.825 3.32 5.963 3.173s1.221-4.765 2.407-10.262l2.157-9.995-2.298-1.86c-8.753-7.088-26.785-11.698-37.816-9.669m-310 64.072c-5.728.741-13.356 3.09-18.5 5.697-1.65.836-5.516 3.275-8.592 5.419l-5.592 3.899-9.108-3.052c-5.009-1.678-13.743-3.71-19.408-4.515-12.145-1.727-35.903-1.936-49.589-.438-13.31 1.457-32.891 5.555-43.711 9.147-4.95 1.643-13.05 4.925-18 7.293-24.309 11.629-45.343 32.289-69.23 67.997-14.591 21.811-23.486 38.086-27.391 50.114-1.23 3.787-3.218 11.386-4.419 16.886l-2.183 10-.788-6c-.721-5.48.006-12.003 2.006-18 .389-1.165-1.195-.032-3.793 2.713-2.71 2.863-5.488 7.282-7.081 11.26-1.441 3.602-2.653 7.331-2.691 8.288-.127 3.126-1.781-1.873-1.86-5.618-.053-2.557-.427-3.22-1.57-2.781-.825.316-1.5.11-1.5-.459s1.509-4.267 3.354-8.219c1.844-3.951 5.309-9.38 7.7-12.065 3.794-4.261 4.035-4.787 1.896-4.14-1.347.407-5.336 2.099-8.864 3.76-4.272 2.011-8.668 5.274-13.167 9.773-5.348 5.349-7.812 8.911-11.837 17.114-2.795 5.698-5.082 9.576-5.082 8.617 0-2.426-1.676-2.176-3.4.507-2.002 3.114-3.581 12.582-3.7 22.184-.069 5.57-.347 7.292-.9 5.566-1.213-3.788-1.141-15.243.134-21.201 1.319-6.167 7.726-21.39 10.849-25.775 1.184-1.663 1.785-3.019 1.335-3.013-1.498.019-10.141 7.435-13.232 11.353-3.361 4.26-6.961 11.458-9.57 19.136-.934 2.75-1.944 9.314-2.244 14.588-.404 7.1-.094 11.612 1.191 17.391.955 4.292 2.985 10.872 4.512 14.623l2.775 6.821-1.475 6.288c-1.812 7.723-1.22 23.302 1.128 29.695.89 2.423 1.43 4.595 1.199 4.825-.818.818-7.484-12.333-9.75-19.231-1.878-5.721-2.303-9.22-2.325-19.153-.015-6.684-.383-11.634-.817-11-.435.634-1.845 3.178-3.133 5.653-3.385 6.501-4.92 15.144-4.124 23.224 1.26 12.785 5.107 22.283 13.803 34.082 5.415 7.347 13.249 14.265 21.305 18.814 4.339 2.45 5.397 3.681 7.411 8.619 3.195 7.836 8.4 15.561 13.383 19.863 5.296 4.571 13.562 8.771 21.725 11.038 4.79 1.33 9.974 1.774 20.42 1.749 14.926-.036 22.722-1.38 33.682-5.807 5.034-2.033 5.817-2.139 5.4-.73-.268.906-.767 2.825-1.109 4.263l-.622 2.615-12.064 3.122c-7.459 1.93-13.282 4.051-15.255 5.556-1.961 1.495-5.277 6.418-8.598 12.763-5.954 11.376-21.744 33.06-30.698 42.157-4.353 4.424-8.147 6.991-15.736 10.65-5.5 2.652-13.771 5.805-18.379 7.006l-8.38 2.184-12.62-1.83c-9.497-1.378-18.561-1.827-36.621-1.816-15.887.009-26.028.453-30 1.313-11.596 2.511-19.262 5.389-24.108 9.05-2.69 2.032-6.017 5.702-7.392 8.155-2.147 3.83-2.489 5.661-2.421 12.96.049 5.247.888 11.533 2.193 16.426l2.114 7.926-2.071 2.908c-2.885 4.052-8.245 17.05-10.662 25.856-3.282 11.959-4.436 22.347-4.431 39.884.005 18.548 1.291 31.199 4.868 47.905l2.442 11.404-.624 15.096a6691 6691 0 0 1-.797 18.775l-.173 3.68-6.14 4.1-6.139 4.099.501 7.721c.807 12.432 4.259 39.967 5.934 47.333.85 3.736 2.773 8.621 4.274 10.856s5.022 5.786 7.824 7.892c2.803 2.106 8.64 5.257 12.971 7.003l7.876 3.175 2.779 19.23c2.65 18.343 8.137 49.83 9.144 52.481.308.809 2.602 1.25 6.507 1.25 3.317 0 6.031-.355 6.031-.79 0-.434-1.54-8.647-3.421-18.25-5.757-29.377-12.579-73.711-12.579-81.741 0-1.552 1.596-2.478 7.75-4.501 4.263-1.4 12.475-3.594 18.25-4.875 9.016-2 13.185-2.323 29.5-2.29 15.881.032 20.724.41 29.5 2.303 10.582 2.282 27.834 7.605 29.281 9.035.969.957 2.925 16.667 5.787 46.469 1.782 18.562 1.951 23.01.898 23.661-.713.441-3.329 1.106-5.812 1.479-6.874 1.03-16.923 4.363-24.2 8.026-6.68 3.361-17.505 11.257-16.631 12.13.266.266 2.409-.499 4.763-1.7 7.503-3.827 16.512-6.836 26.666-8.906 9.008-1.835 18.503-2.92 66.748-7.624 17.943-1.749 49.874-6.884 68-10.936 14.883-3.326 45.242-12.055 61.085-17.562 15.171-5.274 36.731-15.551 44.992-21.446 3.521-2.512 11.627-9.386 18.014-15.275 18.362-16.932 22.289-19.624 33.857-23.214 5.529-1.716 14.785-4.847 20.571-6.957 12.483-4.554 28.594-9.089 29.405-8.279.317.317.576 1.386.576 2.374s.87 2.264 1.934 2.834c3.121 1.67 10.334 1.192 14.566-.965 2.158-1.1 4.053-2 4.211-2 1.012 0-.126 2.743-2.676 6.45-1.631 2.37-5.344 5.873-8.25 7.785-2.907 1.911-10.167 5.349-16.133 7.64-5.967 2.29-12.789 5.499-15.16 7.131-2.371 1.631-5.289 4.547-6.483 6.48-1.886 3.051-2.688 3.514-6.091 3.514-2.155 0-3.918.413-3.918.917 0 .505 1.912 1.617 4.25 2.472 25.066 9.171 38.463 13.632 42.459 14.139 2.973.377 9.535-.18 17.291-1.469 6.875-1.142 18.73-2.526 26.345-3.075l13.845-.998 10.807-6.529c5.944-3.591 13.53-7.596 16.857-8.9 6.933-2.717 14.798-4.559 19.445-4.553l3.201.003-3.043 1.856c-1.673 1.02-4.3 3.351-5.838 5.178-2.089 2.482-2.658 4.013-2.251 6.051.342 1.709.075 2.908-.716 3.211-.694.267-7.759 5.337-15.701 11.268-7.941 5.931-15.792 11.582-17.446 12.559-1.681.991-10.73 3.13-20.507 4.846-21.39 3.754-31.938 6.381-38.498 9.59l-5 2.445 4.5-.46c10.858-1.108 45.158-5.782 51.932-7.076 6.072-1.16 9.548-2.695 19-8.389 6.362-3.833 14.493-7.945 18.068-9.139s10.213-2.408 14.75-2.699c4.537-.292 8.25-.284 8.25.016s-2.028 1.735-4.507 3.187c-5.011 2.937-7.841 6.52-7.306 9.25.278 1.419-3.73 4.064-18.966 12.516-10.625 5.894-20.977 11.174-23.004 11.734-2.027.559-9.543 1.495-16.701 2.079-21.913 1.788-31.15 2.909-38.484 4.669-3.867.928-7.032 2.123-7.032 2.655 0 .616 10.019.73 27.554.315 16.84-.398 27.331-.292 26.981.275-1.406 2.275-12.706 5.148-27.728 7.05-18.517 2.344-27.807 4.314-27.807 5.897 0 .416 8.438.556 18.75.31 10.313-.246 19.65-.257 20.75-.024 1.748.37 1.608.632-1.109 2.076-2.07 1.1-8.252 2.084-18.5 2.944-8.465.71-17.866 1.233-20.891 1.162-4.009-.094-13.364-2.716-34.5-9.666-15.95-5.246-32.893-10.266-37.651-11.157-4.959-.929-12.216-1.494-17-1.326-4.592.162-7.674.585-6.849.94.825.354 5.249 1.664 9.831 2.909l8.331 2.265-14.831 3.744c-8.157 2.059-19.331 5.517-24.831 7.685-13.954 5.5-26.5 11.364-26.5 12.386 0 .476 49.568.861 110.86.861h110.86l2.221-11.147c1.221-6.131 2.597-12.137 3.057-13.347.56-1.475 2.827-2.945 6.874-4.458 7.804-2.918 30.689-16.166 40.638-23.523 4.268-3.156 11.491-9.321 16.052-13.7l8.293-7.962 11.823 7.919c19.203 12.862 38.43 22.62 55.322 28.075 15.485 5.001 43.446 10.143 55.157 10.143 4.584 0 14.971-2.486 18.799-4.5 4.915-2.585 11.329-9.883 14.421-16.409l3.123-6.591-.043-10c-.03-7.093-.681-12.326-2.239-18-1.208-4.4-2.868-13.63-3.688-20.511-2.354-19.735-8.703-38.326-20.258-59.315-7.42-13.48-18.144-28.526-35.775-50.198-20.484-25.177-32.986-43.822-45.581-67.975l-5.735-10.999 4.833-5.11c5.702-6.029 7.417-11.09 6.432-18.975-.521-4.176-.269-6.27 1.107-9.165 2.343-4.929 2.973-12.107 1.556-17.735-1-3.971-.892-5.022.875-8.485 4.165-8.164 1.601-20.196-5.449-25.573-2.699-2.059-3.363-3.361-3.862-7.575-.332-2.799-1.74-7.029-3.129-9.399-2.825-4.821-6.862-7.673-13.544-9.569-2.475-.702-4.683-1.416-4.906-1.586-.57-.433 7.461-10.646 19.918-25.33 25.701-30.296 32.401-38.679 34.242-42.841 3.309-7.48.807-14.982-5.935-17.799-3.759-1.571-8.255-1.104-11.812 1.227-1.112.729-10.794 10.882-21.514 22.563a19186 19186 0 0 1-30.902 33.593l-11.408 12.355-2.69-2.945c-3.476-3.805-7.864-6.036-13.351-6.789-9.585-1.313-17.445 4.311-23.867 17.081-2.228 4.43-5.11 10.867-6.404 14.305-1.295 3.437-3.708 8.649-5.362 11.581-3.545 6.281-3.933 11.523-1.046 14.135 1.079.977 2.654 1.511 3.5 1.187.845-.325 1.537-.213 1.537.248 0 1.045-7.21 10.389-11.722 15.191l-3.375 3.592-9.328-9.237c-7.773-7.697-10.907-10.021-18.806-13.943l-9.479-4.705-.604-9.913c-.719-11.797-3.012-17.969-7.549-20.315-4.233-2.189-16.302-2.022-29.712.411-11.598 2.105-19.705 4.27-41.425 11.065-11.444 3.58-14.794 4.222-22 4.217-8.161-.007-17.329-1.56-28.666-4.855-6.79-1.974-14.035-6.955-17.735-12.193l-2.901-4.106 1.537-2.305c.845-1.268 3.951-4.886 6.901-8.041l5.364-5.735 6.5 1.576c4.508 1.092 9.718 1.461 17 1.203 8.876-.315 11.423-.8 16.468-3.135 7.948-3.678 15.758-9.693 19.369-14.915 2.437-3.526 4.087-4.663 9.591-6.611 3.655-1.295 8.923-4.064 11.705-6.155 2.782-2.09 6.785-6.098 8.894-8.906 5.403-7.19 8.098-14.963 8.711-25.118.397-6.584.052-10.352-1.51-16.5-1.114-4.382-4.275-12.694-7.026-18.47-4.713-9.896-7.302-17.351-8.576-24.692-.462-2.666-.191-3.309 1.641-3.891 3.101-.984 7.482-4.383 9.377-7.276l1.613-2.461-3.496 2.161c-1.924 1.189-3.929 2.161-4.458 2.161-.528 0 .988-2.033 3.368-4.518s4.329-4.975 4.329-5.536-1.679.123-3.732 1.518-4.381 2.536-5.174 2.536c-1.081 0-.933-.564.591-2.25 1.119-1.237 3.784-5.494 5.921-9.458 3.382-6.271 4.444-7.421 8.159-8.84 5.723-2.186 14.279-9.293 18.06-15.002 1.692-2.554 4.083-7.638 5.313-11.297 1.596-4.748 2.255-9.131 2.299-15.309l.063-8.656 3.74-.604c6.504-1.051 14.512-4.563 20.569-9.023 7.107-5.231 13.411-14.295 16.182-23.266 2.519-8.156 2.716-22.524.416-30.363-1.712-5.835-6.089-14.161-9.186-17.472-1.087-1.162-2.211-4.327-2.613-7.356-.964-7.265-4.948-17.55-9.216-23.79-10.161-14.855-27.544-24.237-45.018-24.297-3.164-.01-7.181-.919-10.5-2.374-2.956-1.297-7.833-2.94-10.839-3.652l-5.465-1.294 5.465-4.822c6.498-5.734 12.06-8.85 21.274-11.918 4.595-1.53 6.383-2.541 5.5-3.112-1.281-.827-8.63-3.188-31.809-10.22-21.76-6.601-29.153-7.847-39-6.572m22.5 10.432c6.05 1.335 15.162 3.23 20.25 4.211s9.25 2.114 9.25 2.518-1.463 1.488-3.25 2.409-7.075 4.222-11.75 7.336c-14.775 9.839-15.337 10.092-25.73 11.558-5.374.758-13.595 2.299-18.27 3.424s-9.175 2.028-10 2.008.188-.928 2.25-2.017c5.847-3.087 4.82-4.309-3-3.57-5.902.558-6.524.463-4.948-.76.992-.77 3.435-1.705 5.429-2.079s5.683-1.658 8.198-2.852l4.571-2.171-8-.5-8-.5 6-3.47c4.971-2.876 5.611-3.531 3.733-3.822-2.851-.442-8.43 1.304-14.157 4.431-3.428 1.871-4.607 2.127-5.235 1.138-.446-.702-.813-1.727-.817-2.277-.013-2.019 21.211-14.263 28.476-16.426 5.25-1.564 13.677-1.088 25 1.411M1083 574c-1.1 1.1-2 3.125-2 4.5 0 2.19.433 2.5 3.5 2.5 4.487 0 8.011-3.177 6.551-5.905-.948-1.771-3.144-3.095-5.133-3.095-.505 0-1.818.9-2.918 2m28.2 1.2c-1.965 1.965-1.369 4.766 1.27 5.968 1.889.861 2.831.827 4-.143.842-.699 1.53-2.025 1.53-2.947 0-2.121-1.92-4.078-4-4.078-.88 0-2.14.54-2.8 1.2M957 588.433c11.275 1.334 25.675 2.976 32 3.649 12.9 1.373 16.036 2.312 11.237 3.366-1.704.374-3.629 1.319-4.277 2.1-.953 1.149-.634 1.637 1.681 2.567 1.573.632 5.334 1.247 8.359 1.367 4.503.178 5.5.537 5.5 1.979 0 1.257-2.091 2.592-7.295 4.657-8.371 3.322-11.209 4.976-16.481 9.608-4.83 4.242-3.092 5.098 4.885 2.404 3.23-1.09 6.025-1.829 6.212-1.643.186.187-1.945 2.145-4.736 4.351-7.324 5.79-15.443 9.341-22.684 9.922-5.367.431-6.813.141-11.2-2.247-4.888-2.66-10.316-8.542-18.47-20.013-3.257-4.582-13.731-23.683-13.731-25.042 0-.319 1.913-.326 4.25-.016 2.337.311 13.475 1.656 24.75 2.991m94.191-.683c3.104 3.329 4.331 5.713 5.143 10l.616 3.25h-3.61c-2.588 0-4.282-.724-5.98-2.556-2.518-2.717-4.36-2.507-4.36.498 0 2.202-2.657 3.026-9.817 3.044-4.148.011-6.053.576-8.669 2.571l-3.352 2.557-3.581-6.111c-1.969-3.36-3.581-6.717-3.581-7.459 0-1.47 4.98-3.544 8.512-3.544 1.217 0 3.912 1.35 5.988 3s4.565 3 5.531 3c2.801 0 3.284-3.083.971-6.211-1.54-2.083-1.748-2.931-.793-3.246 2.815-.929 5.49-1.316 9.854-1.427 3.772-.096 5.007.361 7.128 2.634m48.535 1.001c-1.146 1.266-1.314 2.235-.606 3.5.539.962 1.767 1.749 2.73 1.749 1.772 0 4.15-1.793 4.15-3.129 0-.968-2.936-3.871-3.916-3.871-.426 0-1.487.788-2.358 1.751m-154.696 2.193c-2.211 4.131 2.673 8.356 6.991 6.045 1.581-.847 2.02-1.903 1.787-4.305l-.308-3.184-3.685-.306c-2.884-.24-3.923.14-4.785 1.75M1085 592.5c-1.116 1.344-1.068 1.861.299 3.228 1.349 1.348 2.073 1.423 4.235.438 1.641-.747 2.486-1.833 2.279-2.927-.437-2.305-5.094-2.81-6.813-.739m-106.8 6.7c-.66.66-1.2 2.145-1.2 3.3s.54 2.64 1.2 3.3 2.145 1.2 3.3 1.2 2.64-.54 3.3-1.2 1.2-2.145 1.2-3.3-.54-2.64-1.2-3.3-2.145-1.2-3.3-1.2-2.64.54-3.3 1.2m147.922 8.238c10.419 2.209 18.358 6.775 26.878 15.459 5.629 5.738 8.538 9.759 11.661 16.124 2.289 4.663 4.478 10.467 4.866 12.897.611 3.823.85 4.16 1.779 2.5.591-1.055 1.354-4.843 1.696-8.418l.623-6.5 2.678 5.5c1.473 3.025 2.682 6.962 2.687 8.75.006 1.788.442 3.25.97 3.25.964 0 2.742-5.34 3.33-10 .271-2.151.481-1.942 1.507 1.5 1.558 5.228 1.404 18.923-.269 24l-1.318 4-.105-4.75c-.058-2.612-.494-4.75-.969-4.75s-1.632 2.01-2.57 4.466c-2.267 5.937-9.985 16.379-15.566 21.061-5.353 4.491-13.378 8.241-19.253 8.997l-4.247.547 5.5-2.183c12.493-4.96 21.898-13.381 24.41-21.857.739-2.492 1.195-4.697 1.014-4.901s-2.622 1.313-5.424 3.37-5.334 3.499-5.628 3.205c-.294-.293-.021-1.493.607-2.666.627-1.172 1.001-3.505.831-5.185l-.31-3.053-3.818 3.045c-2.1 1.674-5.475 3.573-7.5 4.22s-4.11 1.571-4.632 2.055c-1.498 1.386-2.436 1.033-2.312-.871.186-2.845-1.265-9.25-2.095-9.25-.422 0-1.765 1.35-2.985 3s-2.654 3-3.188 3c-.533 0-.97-1.143-.97-2.54 0-2.616-3.262-9.886-4.887-10.89-.503-.311-1.454 1.685-2.114 4.435-.66 2.751-1.549 5.217-1.975 5.48s-1.05-1.245-1.387-3.353c-.636-3.975-3.961-9.132-5.889-9.132-.608 0-2.582 1.611-4.386 3.581-2.303 2.514-3.832 3.404-5.138 2.99-2.588-.821-6.384 3.478-7.132 8.078l-.6 3.693-2.76-4.171c-1.518-2.294-3.204-4.171-3.746-4.171-1.532 0-1.16 9.647.527 13.686.832 1.991 1.336 3.798 1.12 4.015-.595.594-7.078-8.599-9.64-13.672-1.295-2.562-2.471-7.116-2.756-10.668-.385-4.799-.816-6.076-1.91-5.656-.777.298-2.395 2.399-3.595 4.668-1.669 3.154-2.18 5.829-2.167 11.347.009 3.972-.344 6.672-.784 6s-1.729-4.37-2.863-8.22c-1.135-3.85-2.781-8.704-3.659-10.787-1.112-2.638-1.843-3.396-2.412-2.5-.449.708-.823 2.749-.832 4.537-.008 1.788-.375 3.25-.814 3.25-.44 0-1.376-1.594-2.08-3.542-1.41-3.9-8.068-11.458-10.094-11.458-.932 0-1.111 1.071-.657 3.913.344 2.151.912 4.659 1.263 5.573.35.913-1.731-.61-4.625-3.385-5.905-5.662-12.179-9.101-16.601-9.101-1.629 0-3.974.709-5.212 1.576l-2.25 1.576-4.392-2.126c-2.415-1.169-4.933-2.779-5.595-3.576-1.026-1.237-.386-1.45 4.361-1.45 3.059 0 5.835-.441 6.168-.979.333-.539.098-1.928-.522-3.086s-.908-2.325-.641-2.592c.268-.268 2.658.251 5.312 1.152 5.725 1.943 17.26 3.482 17.934 2.392.261-.422-.998-2.446-2.798-4.497l-3.272-3.73 3 .729c5.437 1.32 10.923 4.516 16.317 9.505 3.817 3.53 5.47 4.521 5.858 3.51.298-.775.252-2.557-.1-3.96l-.64-2.552 3.282 2.286c1.806 1.257 4.238 3.106 5.405 4.108 1.818 1.561 2.205 1.607 2.697.326.544-1.419-.151-4.736-1.895-9.054-1.234-3.052 7.869 3.874 14.053 10.692 2.868 3.163 5.509 5.75 5.869 5.75s.654-1.575.654-3.5.277-3.5.615-3.5 2.092 1.612 3.896 3.582l3.281 3.582 2.854-5.081c2.759-4.911 4.564-6.17 5.854-4.083 1.095 1.772 3.5 1.063 3.5-1.032 0-1.118-.681-3.662-1.513-5.654s-1.345-3.789-1.139-3.995c.646-.646 10.872 9.002 13.747 12.97 2.459 3.395 2.811 3.582 3.379 1.794.348-1.097.329-3.703-.042-5.789-.425-2.392-.326-3.424.269-2.794 2.36 2.502 7.18 9.303 8.705 12.283.923 1.805 2.11 3.016 2.637 2.691.526-.326.957-2.14.957-4.033s.45-3.441 1-3.441 2.238 2.244 3.75 4.986 3.057 4.992 3.433 5c1.113.023 1.984-3.77 1.984-8.643v-4.558l2.916 2.795 2.917 2.794-.022-4.437c-.012-2.44-.92-6.416-2.017-8.835-2.271-5.006-7.633-11.326-13.004-15.329-9.39-6.998-23.911-11.689-36.665-11.843-4.161-.051-5.229-.313-3.792-.93 3.142-1.35 16.34-1.105 23.622.438M956.2 609.2c-.66.66-1.2 2.145-1.2 3.3 0 2.83 1.856 4.5 5 4.5s5-1.67 5-4.5-1.856-4.5-5-4.5c-1.43 0-3.14.54-3.8 1.2m-53.85 10.05c-4.656 4.974-8.577 10.571-8.194 11.698.197.58 2.632-.048 5.693-1.467 2.942-1.365 5.585-2.481 5.873-2.481s-3.799 4.503-9.081 10.007c-5.283 5.503-11.413 12.294-13.623 15.089s-4.018 4.58-4.018 3.965 1.35-3.792 3-7.061 3-6.181 3-6.471-.639-.529-1.421-.529-3.482 2.061-6 4.579-4.579 4.173-4.579 3.678c0-1.648 10.094-15.685 14.831-20.625 5.275-5.5 15.185-13.63 16.615-13.631.521-.001-.423 1.461-2.096 3.249m276.62-.269c5.436 3.488 9.662 7.72 8.686 8.697-.377.377-2.142-.69-3.921-2.371s-5.215-4.463-7.635-6.182c-5.607-3.982-3.293-4.099 2.87-.144m-236.589 8.344c1.99 4.028 3.619 8.27 3.619 9.427 0 2.602 4.455 6.248 7.635 6.248 1.301 0 2.365.384 2.365.854s-3.038 3.569-6.75 6.885c-11.639 10.399-26.963 25.97-34.667 35.226-25.852 31.061-39.392 54.373-45.531 78.393l-1.752 6.857-2.269-8.857c-1.457-5.689-2.451-13.175-2.778-20.924-.598-14.171.964-23.589 6.174-37.243 7.377-19.332 17.626-36.225 31.357-51.691 8.221-9.259 23.108-22.177 33.068-28.696 3.107-2.033 5.707-3.72 5.779-3.75s1.759 3.242 3.75 7.271m27.63-4.838c-.679.818-.962 2.198-.629 3.067.802 2.09 5.557 1.526 7.017-.832.85-1.373.759-1.997-.399-2.735-2.19-1.396-4.581-1.197-5.989.5M1190 630.118c0 .55-.45.722-1 .382s-1-1.068-1-1.618.45-.722 1-.382 1 1.068 1 1.618M927.2 634.2c-1.811 1.811-1.468 6.589.55 7.647 2.456 1.287 6.047-.307 7.405-3.288.876-1.923.846-2.853-.13-4.029-1.513-1.823-6.137-2.018-7.825-.33m-27.077 22.169c-1.267 1.349-2.151 3.232-1.964 4.185.496 2.518 3.142 3.838 6.171 3.078 4.736-1.189 4.761-8.711.031-9.424-1.064-.16-2.971.812-4.238 2.161m91.328 9.137c4.682 5.713 8.734 8.791 15.591 11.844 6.754 3.006 10.958 4.03 10.958 2.669 0-.56-.378-1.019-.84-1.019-1.006 0-6.277-7.216-5.696-7.798.223-.222 1.672.796 3.221 2.262 1.548 1.467 4.165 3.391 5.815 4.275 3.689 1.978 13.516 4.369 14.77 3.594.505-.312.713-1.64.463-2.95-.251-1.311-.355-2.383-.233-2.383.123 0 3.467 1.783 7.433 3.963l7.21 3.963-.691-3.213-.69-3.213 6.869 6.547c3.778 3.601 8.351 7.583 10.163 8.85l3.294 2.302-.55-2.85c-.302-1.567-.281-2.276.047-1.575.679 1.448 9.302 8.226 10.465 8.226.42 0 .511-.961.204-2.135-.449-1.719.53-1.249 5.023 2.41 8.493 6.917 17.079 11.547 26.456 14.264 6.792 1.969 10.719 2.457 19.629 2.44 6.126-.011 13.935-.607 17.353-1.323l6.215-1.303.675 4.5c1.156 7.708-.383 25.965-3.088 36.647-1.394 5.5-3.284 12.112-4.202 14.692l-1.669 4.692-3.073-2.192c-4.952-3.532-10.969-2.863-25.873 2.878l-12.799 4.93-11.256 11.5c-6.191 6.325-12.706 14.052-14.479 17.171s-4.163 9.392-5.313 13.94c-2.125 8.403-2.143 10.236-.273 28.889l.652 6.5-2.527 2.524c-1.39 1.389-5.717 3.552-9.616 4.808s-7.089 2.686-7.089 3.179c0 1.134 6.554 2.983 10.5 2.961 1.65-.009 4.834-.849 7.076-1.867 2.754-1.251 4.619-2.996 5.75-5.379.921-1.941 1.674-4.456 1.674-5.59 0-1.135-.985-5.952-2.188-10.705l-2.189-8.642 1.146-7.86c1.148-7.879 4.71-17.929 6.354-17.929.482 0 .892.563.91 1.25.088 3.304 8.29 9.758 15.395 12.115 5.694 1.889 16.633 2.174 18.33.477.876-.876 1.531-.847 2.7.123 1.845 1.531 2.025.189.44-3.289l-1.101-2.418-4.75 2.007c-3.697 1.562-5.81 1.848-9.53 1.29l-4.78-.717 2.882-1.776c4.495-2.77 6.373-5.416 7.217-10.172l.78-4.39 4.097 4.346c7.887 8.367 7.335 6.411 7.459 26.434l.114 18.22-2.686 8.249c-3.65 11.21-12.023 23.47-23.752 34.784-5.142 4.959-16.313 14.405-24.826 20.992-8.513 6.586-20.74 17.009-27.17 23.162-9.886 9.46-12.504 11.429-16.953 12.75-2.894.86-6.643 1.555-8.331 1.546-5.548-.032-16.779-2.893-23.263-5.928-3.504-1.639-9.82-5.36-14.036-8.268-10.866-7.494-35.972-32.224-45.45-44.769-4.371-5.785-9.919-14.591-12.33-19.569-4.624-9.548-9.431-25.144-11.438-37.105-1.054-6.285-.995-7.552.486-10.415 2.331-4.508 1.52-11.734-1.896-16.896-1.462-2.209-4.458-5.207-6.658-6.663-3.005-1.989-5.303-2.659-9.241-2.696-3.217-.031-6.573.651-8.686 1.764l-3.444 1.814-2.304-2.876c-1.268-1.582-3.286-4.901-4.486-7.376-2.984-6.159-2.97-16.518.038-29.25 1.267-5.362 2.668-9.75 3.114-9.75s1.073 1.05 1.395 2.333 2.405 4.401 4.63 6.928c2.615 2.971 3.647 4.84 2.92 5.289-.618.382-1.765 2.231-2.55 4.109-1.133 2.713-1.197 4.267-.307 7.57.793 2.946 2.847 5.847 7.054 9.964 3.388 3.315 6.828 5.807 8.016 5.807 1.605 0 1.908-.401 1.324-1.75-.416-.962-1.46-4.311-2.32-7.441l-1.562-5.691 1.636-3.431 1.636-3.431 6.827.483c3.755.266 8.637-.006 10.849-.605 4.123-1.116 12.478-6.603 12.478-8.196 0-.496-1.134-.457-2.565.087-1.411.536-4.448.95-6.75.919l-4.185-.056 6.081-1.929c3.344-1.06 6.902-2.835 7.905-3.943L933.31 765l-6.405-.091-6.405-.091 5.909-1.854c3.25-1.019 6.609-2.553 7.464-3.409l1.556-1.555-4.965-.067-4.964-.067 4.5-1.4c5.472-1.702 9-3.519 9-4.635 0-.457-1.334-.831-2.965-.831-2.949 0-11.901-2.603-13.232-3.848-.384-.359 2.316-.68 6-.714 4.348-.04 8.1-.719 10.697-1.936l4-1.875-3-.361c-5.529-.666-13.96-3.4-18.375-5.96-4.947-2.869-12.125-9.065-12.125-10.468 0-.511 2.069.65 4.597 2.581s7.142 4.471 10.25 5.645c7.095 2.68 15.688 3.516 19.653 1.912l3-1.214-4.5-1.601-4.5-1.6 7.535-.714c4.145-.393 9.995-1.641 13-2.773 5.625-2.119 12.471-5.904 11.828-6.541-.2-.198-2.388.032-4.863.51-5.507 1.065-15.613 1.042-19-.043-1.834-.587-.762-.827 4.022-.9 7.948-.122 18.133-2.829 24.351-6.473 2.545-1.491 4.627-2.967 4.627-3.28s-1.687-.293-3.75.045l-3.75.614 4.566-2.428c2.511-1.336 5.06-3.025 5.665-3.754.893-1.076-.148-1.326-5.566-1.337-3.666-.007-9.14-.785-12.165-1.729-5.435-1.696-12.6-5.491-11.826-6.265.219-.22 2.786.301 5.703 1.156 3.567 1.045 7.813 1.413 12.964 1.121 4.212-.238 9.009-1.023 10.659-1.743l3-1.309-6.419-1.363c-5.85-1.242-15.837-5.932-14.813-6.956.234-.234 2.055.256 4.046 1.088 6.74 2.816 17.052 1.395 20.558-2.832 1.219-1.469 1.074-1.655-1.295-1.655-3.236 0-6.646-3.235-9.608-9.116-1.215-2.411-3.776-6.588-5.693-9.281-2.508-3.525-2.964-4.665-1.63-4.069 1.02.456 3.287.865 5.037.91 1.901.049 4.218 1.054 5.75 2.493l2.567 2.412v-5.093c0-2.801.29-5.849.645-6.773.488-1.273.946-.806 1.884 1.924.682 1.982 2.897 5.627 4.922 8.099M922 668.5c0 1.03.655 1.52 1.75 1.31 2.108-.406 1.975-2.181-.197-2.633-.906-.189-1.553.362-1.553 1.323m290.904 19.803c.159 6.316-2.84 17.257-6.065 22.127-2.878 4.345-10.338 11.57-11.946 11.57-.411 0 .795-2.561 2.68-5.691 3.152-5.234 4.019-7.309 3.054-7.309-.205 0-2.342.852-4.75 1.893s-5.502 2.209-6.877 2.596c-2.138.601-1.944.233 1.339-2.54 2.112-1.783 5.184-5.313 6.828-7.845 2.438-3.757 2.878-4.098 2.391-1.854-.328 1.513-.216 2.75.249 2.75 1.418 0 4.843-4.254 7.246-9 1.572-3.105 2.441-6.98 2.805-12.5l.526-8 1.212 5c.667 2.75 1.255 6.711 1.308 8.803m-315.249-8.474c-2.198 2.429-2.094 5.464.262 7.596 1.52 1.375 2.343 1.506 3.977.632 2.726-1.459 4.26-4.476 3.425-6.735-1.366-3.696-5.025-4.41-7.664-1.493m-18.893 22.244c-.955.557-2.225 1.924-2.821 3.037-.832 1.555-.714 2.588.511 4.457 1.725 2.633 5.636 3.267 7.303 1.183.55-.687 1.303-2.239 1.674-3.449.469-1.531.051-2.821-1.378-4.25-1.128-1.128-2.388-2.037-2.801-2.021s-1.532.486-2.488 1.043M867 729c-1.1 1.1-2 2.705-2 3.566 0 2.66 1.981 5.434 3.88 5.434 2.364 0 5.12-3.099 5.12-5.757 0-2.148-2.404-5.243-4.071-5.243-.511 0-1.829.9-2.929 2m128.407 2.418c-6.936 1.309-21.93 7.685-25.907 11.017l-2 1.675 2-.918c5.2-2.386 17.65-4.631 25.5-4.597 6.414.028 9.647.551 13.176 2.132 5.882 2.635 12.926 9.082 17.57 16.078 4.989 7.515 12.29 14.765 16.745 16.627 2.064.862 5.386 1.566 7.381 1.564 3.463-.003 10.13-3.119 10.126-4.731-.001-.421-2.039-2.052-4.529-3.625s-8.227-6.973-12.748-12c-11.977-13.315-17.594-18.43-23.221-21.141-2.779-1.338-7.666-2.633-11-2.914-3.3-.278-9.192.097-13.093.833M854.64 749.251c.081 5.948 1.009 14.427 2.212 20.204 1.14 5.475 1.87 10.157 1.622 10.404-.842.843-4.304-8.338-5.535-14.678-1.538-7.923-.582-26.19 1.37-26.18.105.001.254 4.613.331 10.25m-35.334 9.853c2.102 4.906 7.015 11.276 10.743 13.931l3.227 2.298-.465-3.167c-.255-1.741-.083-3.166.384-3.166s3.664 1.276 7.105 2.837c3.533 1.602 7.015 3.995 8.001 5.5 1.318 2.011 1.419 2.663.413 2.663-.732 0-2.205-.661-3.273-1.468-1.067-.808-2.278-1.483-2.691-1.5-1.432-.061-.717 3.497 1.781 8.863 1.381 2.968 2.344 5.563 2.14 5.767-.205.205-3.027-1.231-6.271-3.19l-5.9-3.561-.31 2.478c-.171 1.363.404 3.858 1.276 5.545s1.325 3.066 1.006 3.066c-1.068 0-13.923-10.738-18.43-15.394-2.452-2.533-4.789-4.606-5.193-4.606s-.872 1.845-1.042 4.099l-.307 4.099-2.803-2.213c-1.541-1.217-3.084-1.931-3.429-1.586-.905.905 1.9 6.362 6.091 11.851 1.995 2.612 3.388 4.75 3.095 4.75-.294 0-2.359-.931-4.591-2.07-2.231-1.138-4.314-1.812-4.628-1.498-1.142 1.142 2.437 6.133 10.406 14.51 5.774 6.07 10.183 9.655 15.162 12.331 3.861 2.075 10.323 4.666 14.359 5.758l7.338 1.985-10.5-.35c-10.296-.344-15.802-1.623-24-5.578-1.925-.928-4.825-2.562-6.444-3.63l-2.945-1.943 2.913 5.351c3.056 5.615 8.581 11.026 14.476 14.175 8.059 4.307-6.134.482-15.003-4.042-6.226-3.177-14.974-12.317-19.431-20.301-2.088-3.741-3.621-6.976-3.408-7.19.214-.213 2.358.935 4.766 2.552 4.187 2.813 6.076 3.561 6.076 2.407 0-.294-1.125-2.754-2.5-5.467s-2.5-5.438-2.5-6.056c0-.617 1.385.043 3.077 1.467s3.717 2.589 4.5 2.589 1.423-.199 1.423-.443c0-.243-.902-1.972-2.005-3.842-1.103-1.869-3.152-7.182-4.554-11.807-1.733-5.717-2.739-11.929-3.145-19.408l-.597-11 3.4 4.397c1.871 2.419 4.468 5.097 5.773 5.953l2.371 1.556-.74-5.453-.741-5.453 4.869 4.795 4.869 4.795.257-2.795c.141-1.537.725-4.493 1.297-6.569.884-3.207 1.248-3.567 2.419-2.396.758.758 2.033 2.907 2.833 4.774m169.351 3.211c-1.172 2.572-2.288 3.71-3.423 3.492-.926-.179-2.206-1.373-2.845-2.654-.869-1.743-1.366-2-1.971-1.02-.445.72-.713 2.581-.594 4.134l.215 2.824-2.04-1.091c-1.122-.601-2.589-1.971-3.26-3.046s-1.562-1.954-1.98-1.954c-1.103 0-.93 3.812.276 6.066 1.669 3.118-.749 2.36-4.192-1.316l-3.045-3.25.729 2.5c1.191 4.082 4.12 9.373 6.259 11.308 1.1.994 3.256 2.144 4.791 2.554 3.475.929 4.337 3.086 1.528 3.821-3.076.804-2.571 2.317.773 2.317 1.582 0 3.392.62 4.021 1.378.902 1.087.663 1.541-1.128 2.152-2.029.691-1.899.819 1.225 1.203 4.475.551 6.422 2.059 4.949 3.833-.851 1.026-.378 1.28 2.238 1.201 1.824-.055 6.917.65 11.317 1.566 4.4.917 10.475 1.613 13.5 1.548l5.5-.119-5-1.285c-2.75-.707-6.489-1.328-8.309-1.381-1.932-.056-3.052-.512-2.691-1.096.34-.55 1.439-1 2.443-1 2.274 0 8.787-7.078 9.64-10.475.349-1.389.88-2.525 1.181-2.525s2.064 1.157 3.918 2.571 5.42 5.577 7.924 9.25l4.552 6.679-.675-4.5c-.371-2.475-1.821-7.093-3.221-10.262-4.364-9.877-13.735-16.495-25.262-17.839l-6.5-.758 8 .26c9.857.32 15.462 2.62 22.61 9.278l5.175 4.821-1.642-3.198c-3.821-7.447-18.075-14.261-29.893-14.29-4.079-.01-4.75-.294-4.75-2.012 0-2.762-1.449-2.505-2.818.5-.651 1.428-1.979 2.5-3.097 2.5-1.468 0-2.05-.814-2.324-3.25l-.366-3.25zm11.378 18.227c.895 1.079.964 1.859.229 2.594-1.683 1.683-4.735.544-5.084-1.896-.237-1.662.183-2.24 1.628-2.24 1.071 0 2.523.694 3.227 1.542m140.322.3c1.491 1.648 1.518 2.262.253 5.847-3.468 9.83-8.477 16.356-12.495 16.281-1.403-.027-1.385-.165.135-1.05.963-.561 1.75-1.491 1.75-2.068 0-.692-2.039-.812-6-.352-3.731.433-6 .325-6-.285 0-.54 1.013-1.294 2.25-1.677 1.911-.59 1.496-.914-2.75-2.148-2.912-.846-7.848-1.32-11.818-1.135-5.874.274-6.567.134-5-1.012 1-.732 4.293-2.016 7.318-2.853 7.377-2.041 10.106-3.105 19.447-7.582 4.371-2.094 8.689-3.808 9.595-3.808s2.398.829 3.315 1.842M1011.5 783.5c0 1.313-.773 2.11-2.25 2.32-1.846.262-2.25-.155-2.25-2.32s.404-2.582 2.25-2.32c1.477.21 2.25 1.007 2.25 2.32M1116 797c.825.533 1.275.983 1 1.001-4.731.295-21.738.401-21.469.133.202-.201 1.853-.718 3.668-1.148 4.765-1.128 15.047-1.12 16.801.014m-21.571 13.338c.813 1.305.71 1.944-.429 2.654-1.979 1.235-4.3-1.047-3.414-3.357.772-2.01 2.329-1.725 3.843.703m-191.815 1.769c4.945 4.645 5.585 13.923 1.279 18.507-1.203 1.281-3.696 2.826-5.54 3.435-4.427 1.461-9.444-.18-12.82-4.192-6.752-8.025 1.011-21.995 11.36-20.444 1.867.279 4.441 1.492 5.721 2.694M1105 810.941c0 1.068-.489 2.243-1.087 2.613-1.529.945-3.299-1.106-2.577-2.987.857-2.234 3.664-1.947 3.664.374m-211.679 6.248c-1.198.579-2.714 2.346-3.369 3.926-.985 2.378-.908 3.303.442 5.363 2.309 3.525 6.142 4.257 9.443 1.803 3.644-2.708 3.951-6.584.773-9.762-1.385-1.385-3.102-2.489-3.815-2.451-.712.037-2.275.541-3.474 1.121m12.482 33.45c1.628 8.58 8.099 28.55 14.332 44.23 10.626 26.729 26.908 54.823 41.514 71.627 3.823 4.398 9.514 10.062 12.648 12.587 6.027 4.855 13.543 8.921 20.514 11.097 2.863.893 4.044 1.756 3.684 2.693-1.288 3.357-3.486 18.898-3.395 24.008.109 6.168 1.17 11.163 2.04 9.609.305-.545 1.607-5.153 2.895-10.24 1.287-5.087 2.609-9.25 2.939-9.25.329 0 1.845 4.483 3.368 9.962 2.986 10.741 2.89 11.622-1.75 15.962-1.426 1.334-2.592 2.796-2.592 3.25s1.097.826 2.438.826c2.931 0 15.179-2.667 18.259-3.975 1.723-.732 2.307-.566 2.704.771 1.593 5.353 3.756 21.846 4.779 36.445.897 12.794.898 20.416.004 32.334-.643 8.576-1.441 16.032-1.773 16.57-.763 1.233-78.469-76.018-98.899-98.32-23.678-25.846-39.76-45.954-52.41-65.529-3.906-6.045-7.102-11.524-7.102-12.176s1.08-3.318 2.4-5.922c3.064-6.047 9.802-25.919 12.951-38.198 2.936-11.445 7.268-32.431 8.25-39.96.602-4.611 1.41-6.206 5.193-10.25 2.464-2.635 4.765-4.79 5.115-4.79.349 0 1.202 2.988 1.894 6.639m95.697-.515c-1.669.53-7.659.677-13.5.331l-10.5-.621-3.5 2.368c-2.072 1.401-3.967 3.781-4.644 5.833-.629 1.906-.962 3.657-.74 3.892.223.235.963-.288 1.644-1.163 1.232-1.58 7.661-5.753 8.875-5.76.349-.002.953 2.547 1.343 5.665 1.124 9.001 7.259 30.075 11.048 37.952 1.908 3.967 5.762 9.721 8.563 12.787 9.376 10.257 25.191 15.733 36.389 12.598 2.498-.699 6.465-2.964 8.816-5.033 2.35-2.069 5.554-6.172 7.12-9.118 6.19-11.645 8.749-14.904 13.654-17.389 2.635-1.336 5.047-2.843 5.36-3.35.891-1.441-13.164-5.409-20.928-5.907-4.709-.302-7.884-1.075-9.7-2.361-4.99-3.535-13.265-6.765-25.322-9.885-6.588-1.705-14.51-4.23-17.604-5.612s-7.288-4.215-9.319-6.295l-3.693-3.782 6.276-.71c6.602-.747 12.154-2.61 13.299-4.462.375-.606.542-1.063.372-1.016s-1.659.515-3.309 1.038m37 5.876c-1.128 1.825.571 3 4.337 3 2.045 0 4.689.68 5.875 1.511 3.202 2.243 3.871-.019.887-3.003-1.839-1.838-3.572-2.508-6.495-2.508-2.192 0-4.264.45-4.604 1m-209.279 10.926c4.794 2.236 10.868 4.573 13.498 5.195 9.739 2.301 8.832 2.861-4.219 2.604l-13-.257-5.8-2.702c-6.584-3.067-12.074-6.725-11.282-7.518.294-.293 1.107-.078 1.808.477 1.683 1.334 11.773 4.609 12.368 4.014.256-.255-.898-1.924-2.565-3.708-3.218-3.445-4.233-6.431-1.277-3.755.964.872 5.675 3.415 10.469 5.65M1008 879.155c7.425 3.606 15.545 7.48 18.045 8.609 8.215 3.712 17.203 6.236 22.203 6.236 5.892 0 5.894 1.124.012 5.623-5.692 4.354-11.321 5.039-20.052 2.439-3.782-1.126-9.538-3.777-12.792-5.89-6.308-4.097-17.686-15.651-20.798-21.12-1.035-1.818-1.485-3.114-1-2.88zm135.733 3.095c-.306 3.987-1.557 9.913-2.78 13.169-1.223 3.255-4.008 7.856-6.191 10.223-3.636 3.945-14.361 10.358-17.322 10.358-.682 0 .35-1.59 2.293-3.533 1.944-1.944 3.28-3.787 2.97-4.097s-3.407.572-6.883 1.96-9.245 2.803-12.82 3.146l-6.5.622 7.059-2.869c8.029-3.264 15.256-7.939 18.511-11.975 1.746-2.165 2.108-2.326 1.689-.754a39 39 0 0 1-1.311 3.902c-.675 1.649-.075 1.52 4.492-.966 2.899-1.578 6.585-4.459 8.192-6.402 3.883-4.699 6.941-11.16 7.597-16.051.898-6.695 1.594-4.43 1.004 3.267m-336.634 8.963c3.445 2.083 5.719 3.787 5.054 3.787-.666 0-3.832-1.323-7.036-2.941-3.378-1.705-7.777-5.111-10.471-8.108-2.555-2.842-4.646-5.62-4.646-6.172 0-.553 2.438 1.391 5.418 4.321s8.236 7.03 11.681 9.113m270.326-7.856c.041 3.654.397 6.643.79 6.643 1.164 0 2.785-3.68 2.785-6.323 0-1.351-.821-3.469-1.825-4.709l-1.824-2.253zm289.756 15.141c1.867 4.098-.067 6.745-26.681 36.511-2.75 3.075-13.67 15.536-24.267 27.691s-19.822 22.334-20.5 22.622c-6.368 2.7-26.195 10.678-26.536 10.678-.571 0 4.897-6.802 16.739-20.823 5.26-6.228 11.589-13.725 14.064-16.659 6.798-8.061 45.723-51.168 52.053-57.645 3.053-3.125 6.653-5.861 8-6.081 3.248-.528 5.804.8 7.128 3.706M1022 910c4.475 1.65 9.343 3.007 10.818 3.015 2.099.012 2.356.226 1.182.985-.825.533-3.557.976-6.071.985-3.038.01-6.376-.907-9.955-2.735-2.962-1.513-5.555-3.312-5.763-4-.208-.687.079-1.25.637-1.25.559 0 4.677 1.35 9.152 3m-154.428 16.994c-1.512 3.853-3.129 7.006-3.593 7.006s-1.13-.9-1.479-2c-.853-2.688-3.149-2.539-3.845.25-.913 3.653.812 9.097 5.847 18.454 10.031 18.642 33.888 50.552 57.382 76.75 18.352 20.464 66.109 67.539 94.343 92.995 4.24 3.822 7.529 7.128 7.311 7.347-.219.218-2.464-1.025-4.989-2.762-6.384-4.393-30.872-16.115-43.949-21.037-9.559-3.599-36.379-10.743-46.71-12.442l-3.611-.593 1.722-6.231c2.345-8.488 6.412-30.651 5.746-31.317-.739-.739-14.508 6.291-37.831 19.316l-19.584 10.937-4.274-13.084c-7.349-22.498-12.9-34.913-35.859-80.2-5.61-11.064-10.199-20.556-10.199-21.095s.896-1.789 1.992-2.781c3.209-2.904 13.188-18.14 19.507-29.783 4.068-7.495 6.816-11.373 9.025-12.739 3.005-1.857 14.505-5.109 15.386-4.35.226.194-.826 3.505-2.338 7.359m407.647 28.05c3.841 1.067 9.781 5.387 9.781 7.114 0 .54-2.856 4.662-6.346 9.162-3.49 4.499-8.035 10.88-10.099 14.18-3.821 6.108-13.221 16.5-14.926 16.5-.516 0-.219-.796.661-1.768 2.821-3.117 5.391-10.049 4.918-13.267-.519-3.54-4.223-6.456-7.21-5.675-1.099.288-1.998.063-1.998-.499 0-.561 2.22-5.623 4.932-11.247 4.934-10.228 7.275-12.859 12.982-14.588 3.513-1.065 3.137-1.07 7.305.088M1031.5 972.211c1.65.905 6.654 5.39 11.12 9.967 15.587 15.976 36.298 42.075 51.207 64.53 10.829 16.309 13.965 21.81 12.004 21.057-7.423-2.848-33.132-9.051-42.581-10.274-3.746-.484-5.25-.341-5.25.499 0 .648 5.25 6.541 11.666 13.095s11.478 12.047 11.25 12.206c-6.035 4.201-13.572 10.202-17.742 14.128-6.788 6.392-17.787 19.409-22.682 26.846-2.087 3.171-3.897 5.646-4.022 5.5-.124-.146.355-3.64 1.065-7.765s1.832-14.377 2.494-22.783c.927-11.768.935-18.668.036-30-1.425-17.98-2.543-25.733-5.59-38.795-3.48-14.912-8.994-31.237-15.149-44.849a3209 3209 0 0 1-5.979-13.271c-.363-.835 1.245-1.289 5.316-1.5 8.799-.456 9.594-.368 12.837 1.409m149.492 2.28c2.008 2.419 2.927 15.194 1.942 27.009-.504 6.05-1.144 11.972-1.422 13.16l-.505 2.16-8.753.594c-11.919.808-33.305 4.908-38.175 7.317l-3.986 1.972-5.91-7.602c-3.251-4.18-9.572-11.735-14.047-16.787s-8.136-9.439-8.136-9.75.899-.564 1.997-.564 8.148-2.277 15.666-5.06c7.518-2.784 17.594-6.187 22.39-7.563 20.702-5.938 36.429-7.911 38.939-4.886m141.554 6.525c3.222 1.108 6.898 2.992 8.168 4.185 2.656 2.495 4.224 7.611 4.024 13.123-.124 3.422.412 4.317 5.093 8.5 5.515 4.929 7.608 9.454 6.515 14.091-.335 1.422-1.675 4.017-2.977 5.768-1.303 1.751-2.353 4.001-2.334 5s.679 2.942 1.465 4.317 1.445 4.485 1.465 6.912c.024 3.019-.803 5.843-2.621 8.944l-2.655 4.531 1.155 4.321c.636 2.376 1.156 5.598 1.156 7.158 0 4.615-3.957 9.267-11.147 13.107-3.632 1.94-8.022 5.176-9.756 7.19-6.61 7.682-20.038 13.837-30.186 13.837-2.701 0-4.911.41-4.911.911s1.942 1.851 4.316 3c6.042 2.925 14.672 2.786 23.383-.376l6.789-2.464 3.921 3.714c2.156 2.043 4.974 4.84 6.262 6.215 2.055 2.194 25.178 30.597 55.64 68.343 13.229 16.393 24.523 33.362 31.599 47.477 9.935 19.82 14.047 33.649 15.965 53.692.525 5.494 2.118 13.976 3.54 18.85 2.95 10.114 3.325 18.923 1.039 24.42-.85 2.045-3.661 5.871-6.246 8.502-3.291 3.35-6.181 5.224-9.636 6.25-2.714.806-6.483 1.466-8.375 1.466-9.597 0-35.798-5.211-51.197-10.183-10.55-3.406-19.929-8.611-25.12-13.94-5.431-5.576-12.035-18.14-14.39-27.377-2.037-7.991-2.869-21.7-1.728-28.5l.922-5.5 1.109 2.686c2.314 5.605 10.777 18.658 17.808 27.466 6.736 8.439 17.003 17.962 24.444 22.674l3.053 1.933-5.561-7.752c-10.235-14.265-20.671-34.867-25.331-50.007-.847-2.75-2.509-9.725-3.693-15.5-1.929-9.403-2.02-11.141-.873-16.635.705-3.375 2.224-12.592 3.377-20.484 1.502-10.277 2.137-19.921 2.238-33.991l.142-19.643-2.482-4.874c-1.815-3.564-4.107-5.969-8.534-8.953-7.081-4.773-18.266-8.555-34.766-11.754l-11.798-2.287-3.703-6.94c-4.828-9.051-10.724-19.824-13.872-25.348-2.235-3.921-2.304-4.327-.627-3.668 1.037.408 6.221 1.822 11.521 3.142 18.311 4.562 38.729 5.469 43.518 1.933 3.709-2.739.085-3.814-15.379-4.559-10.678-.515-17.687-1.44-25.275-3.333-5.775-1.441-13.33-3.8-16.789-5.242l-6.288-2.622 2.038-1.428c2.321-1.625 2.526-3.152.9-6.719-1.444-3.171-6.505-5.595-11.679-5.595h-4.016l2.094-3.823 2.094-3.823 3.611 3.573c4.459 4.412 14.221 9.286 24.056 12.012 14.344 3.975 34.009 2.133 46.883-4.39 4.97-2.519 6.851-4.752 3.346-3.973-12.129 2.695-25.1 4.424-33.189 4.424-7.594 0-11.857-.585-18.694-2.566-7.801-2.261-18.541-7.288-19.75-9.245-.234-.379 6.394-.704 14.728-.722 10.263-.022 18.06-.6 24.155-1.791 16.544-3.234 28.837-8.091 33.5-13.237 2.175-2.401 2.24-2.658.5-1.979-7.655 2.984-25.829 7.899-35.349 9.56-16.572 2.891-40.375 2.582-32.547-.422 1.191-.457 1.509-1.619 1.233-4.514l-.372-3.898 11.089-4.12c6.099-2.266 18.026-6.369 26.504-9.117s17.222-6.169 19.429-7.601c4.84-3.141 8.513-6.392 8.513-7.536 0-.461-1.687-.112-3.75.777s-13.425 4.883-25.25 8.877c-11.825 3.993-23.975 8.173-27 9.289-3.025 1.117-7.075 2.35-9 2.743-2.863.583-3.273.475-2.25-.593.688-.718 1.25-2.137 1.25-3.155 0-2.967-2.801-7.552-5.05-8.266-1.801-.571-1.378-1.091 3.239-3.979 14.949-9.349 26.811-15.106 48.811-23.689 7.556-2.948 8.535-3.621 8.816-6.066.213-1.85.899-2.75 2.094-2.75.977 0 4.413.907 7.636 2.016m-374.968 9.132c2.491 10.921 7.416 26.948 10.541 34.298 3.844 9.04 8.269 15.923 11.669 18.151 3.029 1.985 10.011 3.537 10.724 2.384.258-.417-1.075-1.936-2.962-3.375-4.048-3.088-13.247-16.606-17.084-25.106-1.49-3.3-5.089-11.772-7.998-18.828-2.91-7.055-5.526-13.063-5.814-13.351s.128 2.334.924 5.827m307.236-1.308c.241 2.44-.372 3.872-2.622 6.121-2.89 2.891-7.696 4.869-8.901 3.663-.339-.338-.113-1.718.501-3.066 1.609-3.533 8.307-10.691 9.605-10.265.607.198 1.244 1.795 1.417 3.547m-427.612 25.324c10.654 13.249 20.367 26.908 26.467 37.221 4.92 8.318 8.268 16.959 13.314 34.365 1.156 3.987 2.547 7.25 3.091 7.25.545 0 2.63-.685 4.635-1.523s3.982-1.175 4.393-.75c1.94 2.004 20.117 36.579 28.658 54.511l3.21 6.738-9.653 4.766c-5.309 2.621-9.856 5.375-10.104 6.12-.743 2.227 6.796.479 21.787-5.051 7.425-2.739 16.2-5.841 19.5-6.892 16.625-5.299 34.805-6.27 55-2.939 6.6 1.088 12.45 2.011 13 2.051s-3.725 1.765-9.5 3.834-14.283 5.402-18.907 7.406c-17.48 7.578-33.068 18.84-37.151 26.842-1.068 2.094-1.942 5.673-1.942 7.953 0 4.602 2.784 14.624 9.742 35.07l4.64 13.636-5.571 9.364c-11.186 18.8-21.941 42.569-23.406 51.732-.479 2.994-.211 4.78.993 6.616 2.337 3.567 6.593 3.341 11.067-.588 1.944-1.707 3.529-2.944 3.522-2.75-.008.195-1.084 3.729-2.392 7.854l-2.379 7.5-6.358 1.652c-3.497.909-7.048 1.696-7.892 1.75-1.191.076-2.395-3.864-5.394-17.652-20.024-92.085-39.817-155.189-67.426-214.971-17.327-37.519-34.614-65.613-54.013-87.779-3.369-3.85-6.128-7.255-6.13-7.567s2.489-1.353 5.534-2.313 8.333-3.038 11.75-4.618l6.213-2.873 7.098 7.35c3.903 4.042 10.476 11.551 14.604 16.685m323.486-22.662c-2.647.727-7.219 2.54-10.161 4.029-5.361 2.712-18.02 12.309-17.252 13.078.225.225 4.336-1.431 9.136-3.68s14.995-6.115 22.657-8.59c7.663-2.476 13.932-4.915 13.932-5.42 0-1.354-12.742-.949-18.312.583m-65.492 2.884 9.697 1.114 3.658 3.5c4.298 4.112 16.03 18.559 23.146 28.5 9.489 13.258 20.336 33.138 28.894 52.955l4.298 9.954-12.099 3.308c-6.655 1.819-12.164 3.189-12.243 3.045-.078-.144-2.111-5.212-4.517-11.262-7.626-19.177-17.92-39.857-28.371-57-4.979-8.167-19.245-27.667-23.687-32.378l-4.128-4.378 2.828.764c1.555.42 7.191 1.265 12.524 1.878m-345.553 2.154c6.461.847 15.481 2.476 20.046 3.621l8.3 2.082 6.396 6.628c7.845 8.131 14.83 16.247 14.374 16.703-.186.186-6.171-.312-13.299-1.108-7.128-.795-14.422-1.451-16.21-1.456-9.076-.028 1.419 4.886 21.438 10.038 11.773 3.03 15.967 4.535 17.346 6.224 1.191 1.458 1.413 2.309.643 2.464-.648.129-9.164-.562-18.927-1.536s-17.75-1.411-17.75-.971 1.443 1.678 3.206 2.75c3.568 2.17 19.765 6.19 32.794 8.14 5.23.782 8.972 1.87 9.726 2.826.674.855 3.753 5.752 6.841 10.881s5.312 9.629 4.941 10c-.976.975-20.163.522-25.758-.608-2.702-.546-4.75-.578-4.75-.074 0 1.605 6.354 4.787 10.933 5.473 4.095.614 16.467-.682 20.206-2.117 1.154-.442 3.046 2.344 7.671 11.29l6.139 11.878-7.224 4.994c-10.456 7.228-17.254 10.861-25.518 13.639-4.011 1.348-7.529 2.687-7.817 2.976-.288.288 1.086 1.055 3.053 1.704 2.675.883 4.874.902 8.721.077 7.658-1.642 16.495-6.245 24.165-12.587 3.756-3.105 6.92-5.494 7.03-5.308.538.906 4.521 9.724 10.309 22.826l6.402 14.488-3.254 9.935c-1.79 5.464-5.777 15.032-8.86 21.262-3.084 6.229-5.329 11.326-4.99 11.326.34 0 2.483-1.912 4.764-4.25 5.095-5.222 9.143-12.811 12.255-22.975l2.366-7.725 2.409 6.725c1.325 3.699 3.74 10.491 5.367 15.094l2.957 8.369-2.018 6.131c-2.652 8.053-6.141 22.889-5.528 23.502.557.557 2.881-2.242 4.886-5.884.76-1.382 2.163-5.198 3.117-8.48l1.735-5.967 3.914 12.98c2.152 7.139 6.516 23.33 9.696 35.98 3.883 15.445 5.426 23.204 4.698 23.622-.596.342-3.886.926-7.312 1.297-3.946.428-6.989.268-8.306-.437-1.633-.874-2.013-1.902-1.772-4.79.247-2.969.884-3.945 3.306-5.064 4.186-1.935 7.5-5.146 7.5-7.268 0-.985-1.338-3.314-2.974-5.177-2.004-2.283-5.949-4.635-12.103-7.215-5.022-2.106-10.401-5.1-11.955-6.654-2.208-2.208-2.959-4.081-3.437-8.57-.994-9.334-1.859-11.548-5.461-13.976-2.793-1.882-4.711-2.268-11.263-2.268h-7.898l-2.591-2.591-2.59-2.591.663-7.955c.365-4.376 2.451-14.882 4.636-23.347s3.973-17.071 3.973-19.125c0-6.592-4.673-9.163-10.848-5.97-1.512.782-6.678 5.59-11.481 10.684-7.581 8.041-8.921 9.073-10.165 7.829-.788-.789-5.195-7.694-9.793-15.346l-8.361-13.912 1.816-7.588c2.218-9.267 2.378-24.847.353-34.404-.794-3.749-2.474-8.662-3.733-10.917-1.337-2.396-3.791-4.873-5.904-5.962-2.295-1.182-6.597-2.037-11.774-2.34-4.486-.262-8.994-1-10.017-1.639-3.805-2.376-5.258-6.745-6.647-19.992-1.546-14.733-3.781-20.807-8.833-23.994-2.625-1.656-4.289-1.881-10.613-1.433-4.125.292-9.613.92-12.194 1.395-3.223.593-5.596.485-7.567-.344-3.475-1.461-7.474-6.385-13.563-16.702l-4.571-7.744 2.454-.616c10.515-2.639 35.366-3.048 52.084-.856m511.775 23.067c.87.334 1.582 1.632 1.582 2.885 0 3.473-5.068 6.122-10.75 5.619-2.538-.225-1.132-3.184 2.9-6.105 2.283-1.653 4.271-3.006 4.418-3.006s.98.273 1.85.607m-82.561 9.513c12.879 1.185 21.754 3.218 24.364 5.58.988.894 1.77 2.985 1.758 4.705-.012 1.702-1.095 6.754-2.408 11.226s-2.717 11.22-3.122 14.996c-.651 6.084-1.121 7.219-4.133 9.978l-3.399 3.113-5.226-1.215c-2.874-.668-7.856-1.543-11.07-1.945-4.655-.581-5.755-.459-5.402.6.244.732 3.895 2.629 8.112 4.216s7.669 3.245 7.669 3.683-2.5 2.019-5.555 3.514c-3.205 1.568-5.909 2.339-6.39 1.824-.459-.492-2.294-4.27-4.077-8.395-5.913-13.679-15.145-31.358-22.107-42.334-3.779-5.959-6.871-11.038-6.871-11.287 0-.63 24.159.481 37.857 1.741m68.252 3.479c1.35 1.222 1.552 2.162.857 3.991-.998 2.624-.439 5.004 1.784 7.597 1.292 1.508 1.036 2.146-2.402 5.984-8.661 9.67-18.651 20.194-34.03 35.851-10.195 10.378-16.832 17.964-17.85 20.399-.891 2.133-2.025 9.098-2.52 15.478-.496 6.381-1.299 12.955-1.786 14.61-1.336 4.545-5.729 12.823-8.642 16.285-1.425 1.694-4.88 4.996-7.678 7.338l-5.087 4.259.681-3.1c.402-1.832.251-3.366-.369-3.75-1.034-.638-8.271 3.748-12.965 7.859l-2.398 2.1.687-2.5c.378-1.375.952-3.955 1.276-5.732.444-2.437.188-3.386-1.041-3.858-2.49-.956-5.889.229-11.511 4.013-2.813 1.893-5.115 3.112-5.115 2.709 0-.402.396-1.159.879-1.682.484-.522 1.439-2.75 2.123-4.95 2.347-7.553 9.376-19.795 14.581-25.395 2.865-3.083 7.802-7.165 10.971-9.073 4.966-2.989 6.741-3.496 12.854-3.678l7.092-.21 1.958-7.531c1.077-4.142 1.719-7.769 1.427-8.061-.678-.679-22.45 3.819-29.234 6.039-13.55 4.434-30.232 14.885-40.31 25.254-7.776 8-12.667 15.154-16.048 23.469-1.795 4.414-2.544 8.192-2.614 13.186-.084 5.936.338 7.8 2.779 12.267 3.15 5.765 9.28 10.547 15.752 12.29 2.106.567 7.362 1.038 11.68 1.048 14.036.031 27.622-4.863 40.583-14.617 4.135-3.112 9.49-7.982 11.9-10.823 5.421-6.39 10.594-14.585 13.36-21.165 2.842-6.761 5.903-19.193 7.264-29.5 1.238-9.385 3.654-15.411 7.649-19.084l2.628-2.416-.686 7c-1.05 10.722-1.368 11.5-4.696 11.5H1198v7l16.25.005c21.74.007 51.733 1.64 65.25 3.553 25.192 3.565 37.226 7.381 44.21 14.021 3.474 3.302 4.29 4.75 4.29 7.61 0 3.848-3.41 9.802-7.819 13.652-10.309 9.003-37.295 21.899-65.181 31.149-19.922 6.608-37.682 11.117-66.984 17.007-21.891 4.4-57.236 9.159-81.516 10.976-8.25.618-27.15 1.388-42 1.712-39.963.872-70.599-1.651-94.332-7.771-11.785-3.038-21.375-7.377-25.121-11.364-1.169-1.245-2.367-3.79-2.661-5.657-.422-2.68.118-4.371 2.57-8.047 1.708-2.56 6.129-6.996 9.825-9.858s12.119-7.82 18.719-11.016c13.026-6.307 37.141-14.902 55.688-19.849 6.429-1.714 21.871-5.36 34.317-8.102s23.049-5.245 23.562-5.562.933-.382.933-.144-1.096 2.402-2.436 4.809c-3.553 6.384-6.564 18.338-6.564 26.06 0 8.456 3.345 18.09 8.44 24.308 2.032 2.479 3.519 4.508 3.305 4.508s-2.509-.722-5.1-1.605c-2.821-.961-6.023-1.359-7.983-.991-2.002.375-4.805 2.21-7.218 4.724-5.474 5.704-10.498 7.823-18.612 7.85-3.668.012-7.38-.251-8.25-.585s-1.582-1.201-1.582-1.928c0-.996 1.297-1.187 5.28-.776 4.238.438 5.564.203 6.718-1.186 1.276-1.537 1.175-1.944-.891-3.618-1.281-1.037-3.223-1.885-4.317-1.885-2.421 0-8.559 2.818-9.521 4.372-.384.62-.94 2.928-1.234 5.128l-.535 4-10 .257-10 .257 6.214-3.545c3.418-1.95 6.482-3.978 6.809-4.507.879-1.422-6.657-1.176-17.413.569-5.164.837-9.548 1.364-9.742 1.17-.566-.566 29.185-12.549 48.132-19.386 3.85-1.389 7.427-2.928 7.95-3.42 1.901-1.79-16.19-.737-28.337 1.649-4.077.801 9.26-5.697 25.838-12.59 8.277-3.441 15.049-6.685 15.049-7.209 0-1.064-13.764-.155-20.883 1.379-2.41.519-4.549.777-4.753.574s6.203-3.003 14.236-6.221 14.835-6.447 15.115-7.176.005-1.933-.61-2.674c-.938-1.13-2.486-1.129-9.595.009-12.758 2.044-36.081 7.966-52.567 13.35-16.871 5.51-38.236 15.375-44.61 20.598-2.4 1.966-5.032 4.867-5.849 6.446-2.279 4.407-1.881 9.25 1.018 12.377 3.055 3.297 12.906 8.002 20.998 10.028 3.3.826 10.95 2.285 17 3.241 8.992 1.421 17.755 1.739 48 1.742 20.514.002 43.906-.549 52.5-1.238 42.371-3.393 76.635-8.849 118-18.788 22.341-5.368 37.356-9.97 54-16.551 14.285-5.649 23.624-10.519 29.766-15.524 6.999-5.704 8.938-11.623 5.639-17.208-2.19-3.708-6.728-6.57-14.311-9.027-9.247-2.997-20.689-4.921-36.094-6.07-15.091-1.126-49.228-1.354-56.36-.376l-4.64.636v2.845c0 3.31-.674 3.099 16.916 5.317 6.829.861 12.582 1.731 12.784 1.933.203.202-2.685.672-6.416 1.044s-9.259 1.244-12.284 1.938l-5.5 1.262 10 1.783c5.5.981 14.5 2.631 20 3.667s12.004 2.243 14.454 2.684l4.455.8-13.455 2.375c-7.4 1.306-13.822 2.699-14.271 3.095s2.7 1.222 7 1.836 11.053 1.574 15.009 2.133 8.792 1.016 10.75 1.016c1.957 0 3.558.346 3.558.769s-3.937 1.835-8.75 3.137c-4.812 1.302-9.177 2.756-9.7 3.231-.978.889 10.901 1.47 19.95.975 3.284-.179 4.657.065 4 .71-.55.54-7.75 3.306-16 6.146-16.758 5.769-42.837 12.472-66.503 17.094l-15.715 3.069-3.785-2.568c-2.082-1.413-5.461-3.071-7.509-3.685-3.279-.982-4.964-.715-14.106 2.235-9.215 2.974-11.618 3.35-21.382 3.339-9.184-.009-11.786-.372-15.759-2.2-6.679-3.072-14.106-10.349-16.688-16.35-4.69-10.902-3.661-21.17 3.597-35.902 3.862-7.839 6.12-10.924 12.911-17.642 9.458-9.356 17.673-15.223 27.817-19.866 8.381-3.836 14.881-5.766 26.97-8.008 10.962-2.034 16.069-3.802 20.299-7.028 1.806-1.378 9.174-9.356 16.374-17.73s18.577-21.617 25.284-29.428c6.707-7.812 12.385-14.224 12.616-14.25.232-.027 1.216.671 2.188 1.551m-542.483 8.029c3.023 2.006 7.991 6.437 11.04 9.846s9.293 11.559 13.875 18.112c8.943 12.791 23.971 37.236 23.301 37.905-.224.224-4.205-4.632-8.847-10.792-10.351-13.733-32.798-36.526-38.852-39.45-2.396-1.157-4.984-1.864-5.75-1.57s-1.393 1.82-1.393 3.39c0 3.967 3.061 11.957 11.209 29.253 3.84 8.151 6.783 15.02 6.54 15.263s-3.678-3.808-7.634-9.002c-8.048-10.567-13.238-15.583-16.124-15.583-1.158 0-2.654 1.31-3.713 3.25-1.51 2.767-1.769 5.85-1.745 20.75.015 9.625.629 21.775 1.364 27 1.859 13.217 6.41 31.281 10.644 42.248 1.964 5.089 5.762 13.414 8.44 18.502l4.868 9.25h-12.747l-6.404-13.25c-3.522-7.287-7.257-15.399-8.301-18.026-2.548-6.415-5.648-10.225-7.683-9.445-2.613 1.003-4.601 9.941-6.42 28.868-1.103 11.474-2.135 17.962-2.905 18.257-1.947.747-2.771-21.655-1.43-38.904.641-8.25 2.702-27.375 4.58-42.5 4.059-32.694 4.89-43.465 3.661-47.5l-.913-3-3.597 11.5a3598 3598 0 0 1-6.645 21l-3.048 9.5.4-15c.321-12.051.914-16.966 3.016-25 1.44-5.5 4.383-13.614 6.542-18.032 4.264-8.724 11.934-17.613 17.278-20.024 4.886-2.204 10.947-1.095 17.393 3.184m560.091-2.994c.648 1.972-2.733 4.366-6.166 4.366-1.818 0-3.907-.724-4.641-1.608-1.135-1.368-1.042-1.823.628-3.045 2.253-1.649 9.611-1.442 10.179.287M1150 1044.33c-2.475.644-4.428 1.62-4.341 2.17.088.55 5.938 1.526 13 2.169 19.22 1.749 20.204 1.802 20.885 1.12 1.077-1.077-3.776-3.618-10.004-5.238-6.915-1.8-13.192-1.87-19.54-.221m102.045 20.92 2.423 2.25-2.251.322c-2.578.368-9.217-1.6-9.217-2.733 0-2.874 5.89-2.77 9.045.161m-154.869 57.5c-3.2 4.489-5.424 5.946-10.176 6.665-2.475.374-5.625.919-7 1.21s2-1.949 7.5-4.978 10.368-5.539 10.818-5.577-.064 1.167-1.142 2.68M1026.5 1129c.34.55.168 1-.382 1s-1.278-.45-1.618-1-.168-1 .382-1 1.278.45 1.618 1m184 33c-.34.55.309 1 1.441 1s2.059-.45 2.059-1-.648-1-1.441-1-1.719.45-2.059 1m-423.418 18.25c5.183 13.933 12.976 37.99 12.476 38.513-.138.145-1.887-.42-3.887-1.256-2.276-.951-3.816-2.358-4.117-3.763-.265-1.234-1.213-6.069-2.107-10.744s-3.161-14.75-5.037-22.39c-1.875-7.639-3.41-14.051-3.41-14.25s.176-.36.391-.36 2.776 6.412 5.691 14.25m539.589.5c-.906 19.433-3.844 35.771-9.535 53.022-5.445 16.507-12.059 30.375-20.853 43.728-13.834 21.005-27.99 35.44-47.053 47.983-7.514 4.943-5.652 1.928 2.765-4.479 4.473-3.405 8.659-7.387 9.301-8.848s3.394-5.356 6.115-8.656c12.463-15.113 26.66-41.094 31.967-58.5 6.011-19.716 9.565-40.44 9.604-56l.022-8.5 4.748-3.261c2.611-1.794 6.548-4.814 8.748-6.712 2.2-1.899 4.182-3.469 4.406-3.489s.117 6.15-.235 13.712m-96.04-12.048c-.347.347-.631 1.436-.631 2.419 0 1.781-2.077 2.462-9.5 3.115l-3 .264 2.764 2.628c3.211 3.052 7.702 4.216 11.176 2.895 3.086-1.173 4.905-4.512 4.133-7.587-.613-2.442-3.814-4.861-4.942-3.734m-43.035 13.604c-2.673 1.955-1.713 5.938 1.722 7.141 2.115.741 3.486.612 5.493-.514 5.038-2.828 3.596-7.933-2.242-7.933-1.753 0-3.99.588-4.973 1.306m94.404 20.143c0 7.962-2.927 26.8-5.913 38.051-1.605 6.05-4.986 15.915-7.513 21.922-4.796 11.402-11.431 24.054-12.208 23.278-.248-.248.682-3.012 2.066-6.142 3.908-8.836 8.195-23.118 10.073-33.558.94-5.225 1.941-17.15 2.225-26.5l.516-17 4.627-2.161c2.545-1.189 4.965-2.201 5.377-2.25s.75 1.913.75 4.36m-549.211 6.606c13.261 1.442 30.132 5.305 43.903 10.053 11.916 4.109 26.115 10.728 28.005 13.056.597.735 1.81 4.711 2.697 8.836 1.554 7.235 4.606 26.631 4.606 29.276 0 .813-3.61-.49-9.75-3.519-5.362-2.645-13.477-5.954-18.032-7.353-11.196-3.44-28.444-6.959-41.432-8.453-13.22-1.522-39.71-.742-52.286 1.538-11.625 2.108-28.017 7.584-35.9 11.992l-6.211 3.474-1.296-10.228c-.713-5.625-1.846-15.804-2.517-22.62l-1.22-12.394 6.145-2.786c3.38-1.533 8.813-3.683 12.072-4.779 7.301-2.455 20.27-5.122 29.779-6.123 10.971-1.156 30.655-1.141 41.437.03m236.263 22.094c.029-.357 1.751 3.626 3.827 8.851 7.278 18.312 17.786 37.086 28.342 50.634 2.628 3.373 4.779 6.35 4.779 6.614s-2.063 1.268-4.584 2.231l-4.584 1.751-3.403-3.299c-6.471-6.271-19.951-26.486-27.136-40.692-3.967-7.844-8.356-17.88-9.753-22.302s-2.54-8.197-2.54-8.388 3.375.912 7.5 2.451 7.523 2.506 7.552 2.149m190.556-2.653c-1.04.787-2.39 1.615-3 1.839-.81.298-.811.912-.001 2.286.779 1.322 2.855 2.108 7 2.652 3.241.424 6.68.579 7.643.343 3.236-.793 1.732.86-3.864 4.248-3.057 1.851-5.181 3.702-4.722 4.114 1.497 1.343 10.098 3.022 15.479 3.022 2.923 0 4.835.373 4.307.84-.522.462-2.525 1.434-4.45 2.161s-6.425 2.929-10 4.893l-6.5 3.57 6.5 1.152c3.575.634 9.192 1.475 12.483 1.869l5.982.717-8.481 3.421c-4.664 1.882-11.509 4.397-15.21 5.589-3.7 1.192-6.575 2.321-6.387 2.508.27.27 21.879 3.03 26.113 3.335.55.039-.125.522-1.5 1.073-2.484.995-23.857 7.042-29.395 8.316-5.608 1.291-.954 2.703 10.82 3.283 6.42.316 11.313.892 10.874 1.28-1.444 1.273-23.965 4.993-30.23 4.993-3.507 0-8.794-.881-12.351-2.057-12.809-4.239-22.718-8.24-22.718-9.175 0-2.259 6.271-6.47 13.608-9.137 17.239-6.266 27.818-13.664 32.41-22.666 1.205-2.362 2.011-6.317 2.192-10.749.234-5.75-.057-7.39-1.617-9.114-1.047-1.156-3.041-2.102-4.431-2.102s-7.733 1.754-14.095 3.897c-12.12 4.083-30.493 9.725-52.833 16.226-7.297 2.123-15.397 4.946-18 6.273-2.604 1.327-7.807 4.481-11.562 7.009-3.756 2.527-7.356 4.583-8 4.568-1.226-.028 5.27-5.899 6.578-5.946.412-.015.75-.674.75-1.466 0-.94-1.473-1.628-4.25-1.986-2.338-.302-5.375-.699-6.75-.883l-2.5-.335 3-1.195c7.075-2.82 10.5-4.513 10.5-5.191 0-.827-8.01-4.337-12.5-5.477l-3-.762 3.5-.935c11.553-3.087 14.139-4.058 13.233-4.964-.532-.532-3.614-1.788-6.85-2.791l-5.883-1.823 6.5-.595c3.575-.328 17.525-1.059 31-1.626 23.978-1.008 37.791-1.961 65-4.484 7.425-.688 14.4-1.296 15.5-1.351l2-.099zm-8.608 8.849c0 .74-.787 2.037-1.75 2.884-2.681 2.357-9.923 5.771-12.242 5.771-2.332 0-3.789-2.619-2.29-4.118 1.381-1.381 12.417-5.83 14.532-5.858.963-.013 1.75.581 1.75 1.321m-295.223 25.174c8.692 14.269 24.282 37.18 36.393 53.481 4.291 5.775 7.808 10.937 7.816 11.471.022 1.501-12.389-10.989-20.456-20.585-3.983-4.738-9.868-12.838-13.078-18-6.961-11.195-22.101-42.869-19.017-39.784.24.239 3.994 6.277 8.342 13.417m39.192 29.731c.045 1.085-3.181.921-6.82-.348-1.732-.604-3.149-1.741-3.149-2.528s1.424-4.231 3.165-7.653l3.165-6.221 1.804 8c.992 4.4 1.818 8.338 1.835 8.75M1250 1280.915c0 1.135-9.355 8.085-10.884 8.085-1.85 0-1.27-1.482 1.634-4.179 4.485-4.164 9.25-6.176 9.25-3.906m5.183 7.302c-.717.717-1.183.776-1.183.15 0-1.335 1.183-2.518 1.85-1.85.284.284-.016 1.049-.667 1.7m-437.64 24.856c2.603 4.44 7.776 12.274 11.495 17.409l6.762 9.337-2.15.577c-1.182.317-4.409.583-7.169.59l-5.02.014-4.264-15.75c-5.679-20.975-5.503-20.25-4.909-20.25.287 0 2.652 3.633 5.255 8.073m439.457-2.109c0 1.377-7.126 6.036-9.232 6.036-2.969 0-1.986-1.756 2.482-4.434 4.462-2.674 6.75-3.217 6.75-1.602m-512.21 120.015-.29 31.978-2.776 2.772c-2.38 2.375-3.523 2.75-8 2.627-2.873-.079-7.085-.796-9.36-1.593l-4.135-1.45-.615 4.483c-.337 2.466-.614 7.971-.614 12.234v7.751l8.25 2.3c6.184 1.724 10.88 2.304 18.75 2.313 8.751.01 11.349-.365 15.599-2.249 6.222-2.759 12.626-9.104 15.292-15.151 1.093-2.478 2.461-7.428 3.04-11s1.057-19.813 1.061-36.091l.008-29.597-11.25-.649c-6.187-.356-14.27-.65-17.96-.652l-6.71-.005zm400.96-30.285-9.75.378v41.325c0 22.728.286 43.412.636 45.963l.636 4.64H1170l.024-16.75.023-16.75 8.727 16.74 8.726 16.741 19.75.009c10.862.006 19.75-.189 19.75-.431 0-.243-2.444-3.73-5.43-7.75-2.987-4.02-9.209-12.698-13.827-19.286l-8.396-11.976 5.036-3.024c5.79-3.476 11.074-9.906 12.571-15.298.569-2.049 1.037-5.999 1.04-8.779.008-6.553-3.828-14.354-9.116-18.543-2.181-1.727-6.758-4.057-10.171-5.178-5.227-1.716-9.127-2.067-24.707-2.224-10.175-.102-22.888-.015-28.25.193m71.699 1.056c.365.963 6.747 12.908 14.182 26.545l13.518 24.795-.108 20.455-.109 20.455H1280v-39.549l7.068-12.476c3.887-6.861 9.368-16.75 12.18-21.975s6.382-11.657 7.932-14.294 2.82-4.999 2.82-5.25-7.436-.456-16.525-.456h-16.525l-1.042 2.75c-2.394 6.316-10.283 23.248-10.823 23.23-.322-.011-2.83-5.861-5.574-13l-4.989-12.98h-37.736zm-143.091-.005-11.141.318-.595 2.219c-.327 1.22-.601 6.137-.608 10.928l-.014 8.709 8.25.291 8.25.29.263 34.275.263 34.274 16.188-.274 16.188-.275.049-34.5.049-34.5 9.25-.288 9.25-.287V1401l-22.25.214c-12.237.117-27.264.357-33.392.531m-281.938 11.981c-.429 6.476-.811 22.13-.85 34.787l-.07 23.013 3.5 6.987c3.989 7.963 8.606 12.021 17.718 15.574 4.405 1.718 8.509 2.36 17.232 2.698 12.644.49 19.88-.665 27.05-4.315 2.475-1.26 5.914-3.794 7.642-5.631 4.999-5.312 7.383-11.149 8.439-20.665.53-4.771.841-20.824.691-35.674l-.272-27-15.686-.275-15.685-.275-.315 31.275c-.274 27.256-.534 31.677-2.027 34.404-.942 1.721-2.441 3.408-3.332 3.75-3.526 1.353-6.34.547-8.961-2.569l-2.684-3.19.321-32.06.322-32.06-16.126-.274-16.127-.275zM909 1403.067c-7.987 1.381-17.222 6.243-21.857 11.508-6.513 7.399-7.741 17.455-3.208 26.267 1.035 2.012 3.161 4.829 4.723 6.261 4.116 3.769 10.903 8.163 18.342 11.873 7.436 3.708 11 6.638 11 9.043 0 .919-.823 2.416-1.829 3.326-3.606 3.263-17.635 1.509-27.302-3.415l-3.631-1.849-1.619 10.396c-.89 5.718-1.619 11.27-1.619 12.338 0 1.19 1.065 2.361 2.75 3.024 5.849 2.3 15.997 4.339 24.193 4.86 10.41.662 22.616-1.429 29.904-5.121 5.705-2.891 11.332-8.09 13.689-12.648 2.333-4.51 2.94-12.159 1.402-17.653-2.073-7.401-8.757-13.393-21.73-19.479-5.889-2.763-11.496-5.717-12.458-6.566-2.483-2.188-2.265-6.886.385-8.304 1.174-.629 4.976-1.1 8.449-1.048 5.558.083 9.556.998 15.624 3.576 1.954.83 1.934.891 4.658-13.662l1.817-9.706-7.092-1.677c-8.354-1.977-26.786-2.693-34.591-1.344m71.25-.335-23.25.305v3.831c0 2.106-.291 7.273-.647 11.481l-.646 7.651h17.047l.737 34.405.737 34.405 5.636-.245c3.1-.135 10.248-.318 15.886-.405l10.25-.16v-69h17.066l-.283-11.25-.283-11.25-9.5-.036c-5.225-.02-19.962.101-32.75.268m203.104 20.72c2.042 1.892 2.646 3.4 2.646 6.599 0 3.341-.598 4.705-3.079 7.023-2.757 2.575-8.283 4.905-11.671 4.92-.921.005-1.25-2.758-1.25-10.494V1421h5.354c4.297 0 5.876.484 8 2.452M655.5 1450.674c-6.825.852-7.5 1.237-7.5 4.284v2.919l4.75.812c6.203 1.059 38.1 1.047 45.557-.018l5.808-.829-.308-3.171-.307-3.171-5-.662c-5.215-.691-37.782-.815-43-.164m686.889.368c-8.311.496-16.299 1.353-17.75 1.905-3.047 1.159-3.45 3.548-.836 4.948 3.427 1.834 26.787 3.295 51.946 3.251 22.393-.04 42.277-1.202 47.559-2.778 1.273-.38 1.717-1.328 1.5-3.204l-.308-2.664-6-.661c-10.843-1.195-60.689-1.717-76.111-.797m67.611 58.436c-13.475 1.233-26.75 2.556-29.5 2.94l-5 .698 1 48.443c.55 26.644.662 48.443.25 48.442s-.75-.672-.75-1.492-1.33-4.533-2.956-8.25c-3.137-7.171-29.435-68.454-33.901-79.001-2.246-5.304-3.019-6.239-5.143-6.221-6.93.062-54.008 3.85-54.931 4.42-1.457.901-1.513 182.543-.056 182.543 1.302 0 43.249 4.778 48.35 5.507l3.863.553-.374-41.999c-.205-23.1-.077-41.226.285-40.28.613 1.6 20.592 43.989 34.745 73.719l6.189 13 30.598 3.783c16.829 2.081 30.722 3.656 30.873 3.5.309-.319 1.703-34.737 3.981-98.283.848-23.65 2.202-56.264 3.009-72.476s1.468-32.299 1.468-35.75V1507l-3.75.118c-2.062.065-14.775 1.127-28.25 2.36m-743 1.123c-8.691 1.155-46.426 8.108-54.84 10.105l-2.339.556.716 102.619c.393 56.44.867 102.886 1.052 103.213s7.441-1.126 16.124-3.229A4953 4953 0 0 1 660 1716.19l16.5-3.853-.084-2.918c-.046-1.606-.413-13.591-.815-26.634l-.732-23.714 2.816-.601c8.498-1.815 27.238-7.904 32.614-10.597 16.006-8.019 28.127-18.896 36.321-32.596 9.475-15.843 12.968-30.28 12.042-49.777-.314-6.6-1.305-14.7-2.203-18-2.397-8.811-7.224-17.309-13.168-23.184-6.296-6.223-17.049-11.766-26.791-13.812-8.903-1.869-35.092-1.818-49.5.097m375.5-.058c-16.435 3.677-27.99 9.778-38.586 20.372-8.655 8.654-13.083 16.584-15.403 27.585-1.883 8.928-1.888 14.633-.019 21.807 3.306 12.695 10.027 21.671 22.815 30.473 3.956 2.723 13.184 8.219 20.506 12.212s14.889 8.748 16.815 10.564c2.991 2.821 3.455 3.854 3.187 7.091-.253 3.038-1.008 4.259-3.815 6.162l-3.5 2.373-9.5-.418c-6.995-.308-11.61-1.153-17.5-3.204-4.4-1.533-11.745-4.713-16.322-7.068-5.137-2.644-8.451-3.844-8.662-3.137-.187.63-.866 5.42-1.51 10.645-.643 5.225-2.066 15.952-3.161 23.837s-1.773 14.908-1.505 15.607c.629 1.64 26.09 10.087 35.036 11.624 4.409.757 12.841.992 23.5.653 13.048-.414 18.238-1.001 24.124-2.729 11.572-3.397 20.647-8.563 28.027-15.955 3.589-3.595 7.926-9.237 9.636-12.537 4.078-7.869 6.34-17.368 6.325-26.564-.019-12.239-3.077-20.809-11.001-30.833-4.763-6.025-14.476-12.656-32.987-22.519-6.882-3.667-13.736-8.087-15.25-9.834-4.897-5.653-2.978-11.825 4.565-14.683 7.301-2.767 25.898-.033 36.568 5.374l5.076 2.572.519-2.257c1.164-5.063 8.522-47.102 8.522-48.693 0-1.244-2.157-2.468-7.837-4.445-4.31-1.5-11.398-3.363-15.75-4.138-9.989-1.78-34.837-1.744-42.913.063m137 1.535c-14.425 2.86-25.42 8.682-35.572 18.834-13.88 13.88-23.221 34.479-27.022 59.588-.666 4.4-1.196 14.525-1.177 22.5.025 10.809.565 16.982 2.119 24.251 2.282 10.668 6.586 22.268 11.357 30.607 4.248 7.425 13.757 17.307 21.658 22.507 7.242 4.767 16.883 8.906 25.273 10.85 3.012.699 11.721 1.229 19.864 1.211 13.032-.03 15.323-.307 22.631-2.735 9.516-3.163 21.098-10.431 27.144-17.032 9.199-10.045 16.051-23.638 20.24-40.155 1.116-4.397 2.557-14.374 3.202-22.17.896-10.835.897-17.314.001-27.504-1.191-13.56-4.387-27.655-8.419-37.132-4.179-9.825-9.135-17.211-16.331-24.34-5.585-5.534-9.322-8.179-16.588-11.744-5.159-2.531-12.08-5.304-15.38-6.162-7.405-1.925-26.264-2.71-33-1.374m-352.63.928c-7.677 1.216-17.285 4.543-23.736 8.217-12.628 7.193-24.199 19.781-31.508 34.277-10.31 20.449-15.195 48.593-12.709 73.22.623 6.17 2.243 15.597 3.6 20.947s4.366 13.577 6.685 18.281c3.306 6.703 5.956 10.285 12.258 16.566 4.869 4.854 10.48 9.3 14.226 11.275 3.402 1.793 9.702 4.205 14 5.359 5.819 1.563 11.005 2.123 20.314 2.194 9.028.068 14.583-.416 20-1.746 14.964-3.673 31.098-13.077 39.058-22.765 8.796-10.706 13.959-20.377 17.793-33.331 2.68-9.056 4.946-23.248 5.736-35.925.759-12.177-1.386-30.207-5.13-43.125-1.406-4.855-4.646-12.871-7.2-17.815-3.461-6.701-6.565-10.922-12.199-16.588-8.748-8.796-17.89-14.063-29.619-17.063-9.051-2.314-23.667-3.23-31.569-1.978m116.762 2.065c-12.027 1.007-22.045 2.009-22.262 2.226-.675.674-2.329 99.189-2.35 139.953L919 1696l4.75-.04c3.599-.03 49.954-3.578 50.939-3.899.805-.262 1.416-15.006 2.303-55.561 1.072-49.092 2.735-106.545 3.393-117.25l.385-6.25-7.635.12c-4.199.066-17.476.944-29.503 1.951m-250.665 44.412c3.751 1.939 7.594 6.656 9.071 11.133 1.792 5.43.726 16.048-2.256 22.478-3.971 8.562-12.273 15.698-22.43 19.282l-4.082 1.44-.6-6.658c-.33-3.662-.909-15.97-1.286-27.351l-.687-20.693 2.402-.518c1.32-.285 3.301-.733 4.401-.995 3.289-.784 12.472.333 15.467 1.882m153.168 8.296c4.856 5.206 7.663 14.283 9.114 29.468.833 8.715.83 14.524-.01 22.5-2.021 19.194-6.968 30.491-15.069 34.413-3.763 1.821-4.859 1.95-8.165.96-2.12-.635-5.197-2.713-6.914-4.67-5.239-5.966-7.421-12.815-9.026-28.332-1.052-10.161.048-25.885 2.467-35.283 2.57-9.986 7.031-18.458 11.268-21.398 3.013-2.09 4.529-2.481 8.163-2.101 3.607.377 5.174 1.229 8.172 4.443m355.263-2.68c1.468 1.154 3.784 4.299 5.147 6.989 7.115 14.042 8.05 46.427 1.902 65.89-1.38 4.368-3.673 9.326-5.097 11.018s-3.958 3.784-5.632 4.65c-3.602 1.862-9.237 1.37-13.071-1.141-3.568-2.338-8.23-12.356-10.103-21.713-1.984-9.905-1.995-29.893-.024-41.411 1.753-10.241 6.116-20.056 10.589-23.819 2.427-2.043 4.117-2.562 8.333-2.562 3.857 0 6.01.568 7.956 2.099M975 1707.679c-44.321.971-112.686 4.701-152.506 8.321-47.998 4.364-105.438 12.064-149.731 20.071-11.955 2.161-21.968 3.929-22.25 3.929s-.514.338-.515.75 3.261.627 7.25.477c12.316-.462 82.949-4.2 108.252-5.728 117.898-7.119 279.456-10.756 382.108-8.603 29.209.613 64.759 1.568 79 2.123 36.76 1.432 91.665 4.656 128.15 7.524 17.192 1.351 32.492 2.443 34 2.427 5.943-.066-.863-1.968-19.346-5.405-25.005-4.651-38.71-6.81-69.912-11.015-56.466-7.611-117.858-12.293-190.5-14.53-28.572-.88-100.979-1.064-134-.341"/></svg>