<svg xmlns="http://www.w3.org/2000/svg" viewBox="0 0 2048 2048"><path fill-rule="evenodd" d="M1087.663 410.646c-.359 5.42-.655 11.754-.658 14.076l-.005 4.222 13.75.278 13.75.278-.234 13c-.248 13.745-1.868 59.016-2.817 78.704l-.564 11.704 16.953.296 16.953.296.602-12c.331-6.6 1.31-29.325 2.176-50.5s1.765-39.095 1.999-39.823c.328-1.021 3.226-1.266 12.679-1.074l12.253.25.853-12.74c.469-7.007.682-12.911.473-13.12-.446-.447-37.558-2.143-66.918-3.059l-20.593-.643zm-47.574-7.911-3.411.416.661 36.088c.364 19.848.661 49.328.661 65.511v29.423l15.75-.711c8.662-.392 15.939-.882 16.17-1.091.46-.414 2.294-37.844 4.013-81.871.601-15.4 1.365-32.613 1.699-38.25l.607-10.25-16.37.16c-9.003.088-17.904.347-19.78.575M938.5 405.55c-12.65 1.286-27.456 2.872-32.902 3.525l-9.901 1.187.691 23.119c.977 32.626 4.347 107.687 4.859 108.199.399.399 68.906-5.618 69.546-6.108.161-.124.569-5.719.907-12.433l.614-12.209-4.407.6c-10.419 1.417-33.338 3.472-33.781 3.029-.266-.265-.684-7.823-.93-16.794l-.446-16.312 11.375-1.219c6.256-.671 12.987-1.471 14.956-1.778l3.582-.558-.454-10.649c-.25-5.857-.581-10.793-.736-10.97-.154-.176-6.378.386-13.829 1.25S933.624 459 933.048 459c-.682 0-1.048-5.02-1.048-14.371v-14.371l6.75-.631c3.712-.347 12.782-1.074 20.155-1.617 7.372-.542 13.494-1.104 13.604-1.248.111-.144-.016-5.55-.28-12.012l-.481-11.75-5.124.107c-2.818.058-15.474 1.158-28.124 2.443m340 8.082c-6.577 1.016-14.321 3.704-20.5 7.115-9.396 5.187-17.936 14.287-22.916 24.42-2.253 4.583-5.053 11.933-6.224 16.333-1.679 6.31-2.145 11.064-2.206 22.5-.089 16.733 1.357 24.155 6.988 35.861 2.499 5.197 5.555 9.405 10.212 14.062 3.655 3.655 9.121 8.052 12.146 9.772s8.875 4.165 13 5.433c5.86 1.802 9.906 2.313 18.5 2.335 8.269.021 12.365-.444 16.5-1.873 7.127-2.463 11.778-5.434 15.955-10.191 7.246-8.253 11.136-21.53 12.62-43.071l.696-10.107-1.886-.562c-1.842-.549-28.813-3.919-41.036-5.128l-6.151-.608-.722 10.583c-.396 5.82-.494 10.809-.217 11.086s3.763.778 7.747 1.112l7.243.607-.492 6.124c-.271 3.381-1.451 8.005-2.634 10.324-2.273 4.456-6.352 7.241-10.605 7.241-3.816 0-8.873-2.395-11.908-5.639-1.472-1.574-3.656-6.011-4.852-9.861-1.795-5.774-2.169-9.365-2.134-20.5.023-7.425.597-16.367 1.275-19.87 2.159-11.16 5.959-19.814 11.235-25.586 3.654-3.998 5.932-5.575 9.268-6.415 4.673-1.177 9.457-.676 13.598 1.425 3.872 1.963 7.638 6.435 10.334 12.27l2.46 5.324 7.853-9.793c4.319-5.386 8.469-10.635 9.223-11.664 1.229-1.679.922-2.336-3-6.407-6.066-6.295-15.031-11.944-22.73-14.323-6.408-1.979-20.777-3.235-26.64-2.329m-455.008 2.46c-6.054 1.06-14.829 2.965-19.5 4.234l-8.492 2.307-.292 7.673c-.447 11.758 6.457 122.535 7.77 124.658.348.563 6.977-.235 16.439-1.98 8.721-1.608 16.055-3.123 16.299-3.366.243-.244-.156-10.157-.887-22.031s-1.104-21.578-.829-21.567c.369.015 17.736 26.078 26.082 39.143.325.509 4.078-.17 8.5-1.536 4.355-1.346 10.618-3.183 13.918-4.083s6.551-1.822 7.225-2.049c1.05-.354-6.945-12.089-28.291-41.53l-3.289-4.535 5.913-4.731c7.877-6.303 15.23-16.89 17.465-25.146 2.241-8.279 1.666-19.103-1.38-25.973-3.108-7.011-8.12-12.705-13.998-15.905-6.23-3.39-16.476-5.662-25.145-5.575-3.575.036-11.453.932-17.508 1.992M774 426.171c-12.586 2.677-62.897 13.948-65.5 14.673l-3 .837.253 9.909c.341 13.371 3.616 54.26 7.318 91.382 1.671 16.759 3.135 30.568 3.253 30.686.203.202 35.524-7.536 60.572-13.27l11.396-2.609-.661-11.571c-.363-6.364-.818-11.728-1.01-11.921s-8.509 1.464-18.48 3.682S749.612 542 749.125 542s-1.402-5.288-2.031-11.75a2760 2760 0 0 0-1.632-16.335l-.487-4.586 15.083-3.375 15.083-3.376-.695-11.039c-.382-6.071-.813-11.176-.958-11.344s-6.82 1.221-14.832 3.086c-11.68 2.717-14.671 3.121-15.088 2.036-.285-.744-.82-7.349-1.188-14.678l-.669-13.326 20.395-3.942 20.394-3.942.292-9.964c.161-5.481.04-10.977-.269-12.215-.61-2.446-1.54-2.564-8.523-1.079m603.487 8.628c-7.79 2.694-13.761 6.626-19.356 12.748-5.848 6.399-11.073 16.568-14.037 27.32-1.118 4.052-2.55 11.978-3.184 17.612-.878 7.798-.871 12.67.027 20.399.65 5.585 1.834 12.734 2.632 15.888s3.29 9.49 5.537 14.08c2.797 5.713 5.914 10.174 9.879 14.139 6.382 6.382 15.696 12.02 23.731 14.365 13.203 3.853 28.75 2.916 39.896-2.404 4.419-2.109 8.031-4.933 12.381-9.68 3.574-3.9 7.549-9.642 9.508-13.734 4.316-9.014 7.263-20.322 8.713-33.438.88-7.949.87-12.636-.042-19.856-1.429-11.311-5.072-22.665-9.734-30.34-4.605-7.581-16.771-18.964-23.845-22.311-13.364-6.322-31.655-8.402-42.106-4.788m-534.786 8.161c1.761 1.073 3.931 3.361 4.822 5.084 2.079 4.02 2.078 12.581-.002 17.567-2.007 4.81-6.839 9.955-11.707 12.465l-3.687 1.9-.489-1.738c-.268-.956-.795-9.726-1.171-19.488l-.682-17.75 4.858.004c3.052.002 6.047.729 8.058 1.956M667.5 449.764c-9.9 3.089-18.166 5.733-18.369 5.878-.309.22.973 14.803 4.481 50.985l.595 6.127-10.783 3.61c-5.93 1.986-10.883 3.504-11.006 3.373-.431-.456-3.38-34.34-4.046-46.487-.37-6.738-1.037-12.25-1.482-12.25s-8.366 2.3-17.6 5.112c-9.235 2.811-17.63 5.352-18.656 5.647l-1.867.535.651 8.103c.358 4.457 1.753 17.103 3.1 28.103 12.18 99.435 12.231 99.802 13.886 99.191.603-.223 8.071-2.792 16.596-5.71 8.525-2.917 15.888-5.642 16.363-6.055.478-.416-.39-11.538-1.944-24.91-2.421-20.839-2.608-24.283-1.363-25.068 2.877-1.812 19.366-6.923 19.986-6.195.351.411 1.648 8.397 2.883 17.747 4.228 32.014 4.164 31.68 5.955 30.992.891-.342 8.595-2.659 17.12-5.149 8.525-2.489 15.608-4.631 15.741-4.759s-.842-13.474-2.164-29.658-3.677-46.414-5.23-67.176c-1.729-23.103-3.218-37.721-3.836-37.675-.556.041-9.111 2.601-19.011 5.689m805.076 8.099c-1.202 5.943-8.829 65.592-12.547 98.137-1.665 14.575-3.213 27.293-3.438 28.263-.232.995.373 2.183 1.389 2.726.99.53 13.887 4.777 28.66 9.439 14.773 4.661 30.201 9.622 34.285 11.023 4.084 1.402 7.926 2.549 8.537 2.549s1.189-.788 1.283-1.75.79-6.108 1.549-11.434l1.379-9.684-19.458-6.301c-10.702-3.465-19.674-6.864-19.939-7.554-.481-1.254 3.166-32.052 3.88-32.766.208-.209 5.996 1.346 12.861 3.455s13.36 3.991 14.431 4.184l1.948.35 1.635-10.757 1.634-10.758-7.082-2.075-14.083-4.122c-3.85-1.126-7.3-2.327-7.668-2.668-.367-.341.051-6.807.929-14.37 1.043-8.989 2.003-13.75 2.774-13.75.649 0 9.633 2.7 19.965 6 17.759 5.672 21.5 6.634 21.5 5.53 0-.258.71-5.248 1.578-11.089.867-5.84 1.43-10.731 1.25-10.869-.454-.345-52.916-17.105-66.023-21.092l-10.696-3.254zm-66.847.714c5.287 3.419 8.228 15.228 8.254 33.139.009 6.718-.678 17.198-1.527 23.288-3.314 23.755-9.728 35.555-19.181 35.287-2.896-.082-4.425-.878-6.923-3.604-1.763-1.924-3.732-5.228-4.376-7.343-.643-2.114-1.407-10.237-1.697-18.05-.868-23.346 2.243-44.075 8.447-56.274 4.276-8.41 10.383-10.724 17.003-6.443M561.5 480.453c-18.935 6.579-54.337 20.428-72.028 28.175-8.655 3.791-10.467 4.958-10.44 6.729.017 1.179.678 6.868 1.468 12.643s1.451 10.775 1.468 11.111c.018.336 7.075-2.252 15.683-5.75 8.607-3.499 15.941-6.361 16.297-6.361.746 0 1.12 2.919 8.138 63.5 2.867 24.75 5.292 45.109 5.39 45.243s1.942-.593 4.1-1.616c2.158-1.022 10.786-4.9 19.174-8.617 12.768-5.658 15.25-7.104 15.25-8.885 0-1.169-1.316-11.576-2.925-23.126-1.609-11.549-4.307-32.924-5.997-47.499s-3.286-28.081-3.549-30.013l-.477-3.513 12.224-4.688a3074 3074 0 0 1 14.788-5.642l2.564-.953-1.315-12.845c-.722-7.066-1.426-13.139-1.563-13.497-.138-.358-8.35 2.164-18.25 5.604m1012.494 15.421c-4.42 1.45-9.415 4.281-12.336 6.99-4.842 4.492-6.958 9.812-7.448 18.727-.317 5.785.042 9.764 1.261 13.958 3.312 11.393 7.093 17.12 27.366 41.451 5.728 6.875 11.248 14.3 12.267 16.5 3.949 8.529 1.419 14.5-6.144 14.5-2.222 0-5.709-.863-7.75-1.917-2.04-1.055-5.583-3.868-7.873-6.25-4.459-4.641-9.914-13.301-10.931-17.353-.343-1.364-.854-2.48-1.137-2.48-.895 0-21.097 18.46-21.185 19.358-.142 1.451 9.707 13.267 15.209 18.247 11.529 10.435 26.086 17.61 40.641 20.032 10.042 1.67 18.65 1.019 24.843-1.88 5.22-2.444 10.501-8.405 12.062-13.615 1.651-5.51 1.436-17.835-.422-24.21-2.07-7.1-8.236-18.549-14.082-26.146-2.567-3.336-9.151-11.291-14.63-17.676-5.479-6.386-10.795-13.41-11.812-15.61-2.459-5.32-2.402-10.583.15-13.828 2.725-3.464 7.456-4.257 12.752-2.137 5.643 2.258 13.092 10.616 16.745 18.789 1.628 3.642 3.193 6.634 3.478 6.649s5.151-4.622 10.814-10.305l10.297-10.331-7.315-7.451c-4.023-4.098-10.745-9.736-14.938-12.529s-11.619-6.552-16.5-8.354c-7.63-2.817-10.42-3.325-19.876-3.614-6.05-.186-12.128.033-13.506.485M981.5 556.102c-6.51 4.957-15.77 9.789-32.369 16.891-8.597 3.678-18.334 8.06-21.638 9.739-8.454 4.294-17.683 11.474-22.587 17.57-3.587 4.459-8.403 13.334-10.2 18.795-.423 1.285-2.744 1.722-11.866 2.236-6.237.351-14.805 1.482-19.04 2.513l-7.7 1.874-4.622-3.286c-2.542-1.807-8.171-5.133-12.51-7.39-15.1-7.856-26.474-11.178-44.761-13.074-10.827-1.123-30.057.047-49.93 3.036-7.027 1.058-22.002 3.3-33.277 4.984-11.275 1.683-21.288 3.304-22.25 3.602-3.622 1.123-1.739 5.861 8.308 20.908 5.211 7.805 9.635 13.298 17.406 21.61 2.885 3.086 5.521 6.057 5.859 6.603.337.547-1.51 2.499-4.105 4.34-18.015 12.778-39.468 32.297-50.499 45.947-8.602 10.644-18.16 25.509-22.632 35.198-8.676 18.797-13.185 36.606-15.132 59.765-.844 10.035-.843 16.91.004 27 .625 7.445 1.379 14.942 1.676 16.659l.54 3.123-3.838.708c-6.289 1.16-16.844 6.02-23.696 10.909-10.966 7.825-18.341 17.718-22.468 30.138-1.097 3.3-2.5 10.215-3.118 15.367l-1.124 9.368-5.496 7.023c-6.535 8.352-11.773 18.829-13.877 27.757-.886 3.759-1.528 11.11-1.528 17.485.001 12.331 1.946 21.794 6.935 33.734 3.645 8.723 12.495 20.493 20.018 26.619l5.482 4.465 1.743 10.352c1.964 11.661 6.158 22.655 11.954 31.335 7.744 11.596 20.596 20.908 35.305 25.579 9.561 3.036 24.715 4.486 35.533 3.399l8.5-.853 1.998 2.685c4.202 5.649 11.238 11.841 15.996 14.077 2.723 1.28 8.325 3.016 12.446 3.856 5.965 1.217 9.44 1.331 17.027.561 5.243-.532 9.701-.838 9.906-.681s-.757 3.117-2.138 6.579c-1.981 4.964-3.01 6.36-4.873 6.611-6.746.91-16.434 4.723-23.168 9.119-4.146 2.707-11.013 8.216-15.259 12.242s-15.065 15.253-24.041 24.948l-16.32 17.628-19.787 7.749c-26.874 10.523-53.311 21.543-66.282 27.627l-10.762 5.048-9.107-5.49c-5.009-3.02-12.435-6.876-16.503-8.569s-11.612-3.808-16.765-4.698c-7.69-1.329-10.89-1.425-17.868-.533-5.976.764-10.358 2.026-14.755 4.251-7.059 3.571-16.526 12.437-22.186 20.777-9.42 13.88-16.945 33.054-21.42 54.583-2.521 12.126-6.086 38.66-5.45 40.566.389 1.167 10.417 5.567 45.811 20.1 48.488 19.911 96.257 36.336 149 51.236 21.788 6.155 64.129 16.802 64.67 16.262.652-.652-16.34-50.043-24.568-71.411-14.022-36.418-27.258-64.911-42.854-92.253-5.491-9.625-11.616-20.2-13.613-23.5s-3.631-6.481-3.632-7.069c-.005-1.814 41.062-17.127 42.894-15.995.946.585 1.171 1.573 4.683 20.564 4.371 23.629 10.17 46.387 17.327 68.001 3.825 11.551 8.557 24.334 10.517 28.407 3.127 6.503 4.121 7.677 8.138 9.622 3.977 1.925 5.514 2.124 11.757 1.522 3.949-.381 11.664-1.555 17.144-2.609s10.256-1.585 10.613-1.18c.358.405 5.979 10.637 12.493 22.737s14.15 26.275 16.97 31.5c3.742 6.935 4.872 9.915 4.185 11.038-.678 1.109 1.025 6.269 6.105 18.5 3.875 9.329 7.487 18.133 8.028 19.565.786 2.085 1.843 2.724 5.312 3.211 2.382.334 5.8.908 7.596 1.275l3.265.667-2.209-5.878c-1.214-3.233-4.544-11.728-7.398-18.878s-5.084-13.12-4.956-13.267c.129-.147 9.189.184 20.134.736s29.662 1.01 41.594 1.017c44.713.029 88.321-3.755 121.805-10.569 9.625-1.959 33.475-7.584 53-12.501s40.631-9.615 46.903-10.441 11.601-1.304 11.843-1.063 1.544 6.436 2.895 13.764 3.591 17.824 4.977 23.324c2.764 10.961 9.17 30.465 10.482 31.914.455.502.628-.623.385-2.5s-.919-11.064-1.502-20.414-1.991-24.875-3.129-34.5l-2.069-17.5-2.736-3c-1.504-1.65-3.67-4.575-4.814-6.5-5.375-9.051-19.204-47.489-17.611-48.953.482-.443 2.676-1.37 4.876-2.06 2.2-.691 6.326-2.114 9.168-3.162l5.169-1.908-.792-2.708c-6.58-22.498-31.976-71.795-49.207-95.518-2.72-3.745-5.214-7.508-5.542-8.362-.483-1.258-.043-1.44 2.304-.959 1.595.327 6.05 1.059 9.9 1.627 3.85.567 11.5 1.961 17 3.097l10 2.066 5.207 6.67c6.684 8.562 11.432 16 18.941 29.67 8.186 14.905 17.784 36.424 25.647 57.5 8.763 23.49 11.837 32.98 18.14 56 9.212 33.647 14.822 61.283 19.182 94.5.938 7.15 2.026 13.37 2.417 13.823.391.452 5.317.264 10.945-.418l10.234-1.24-.606-4.833c-.334-2.657-.865-6.97-1.18-9.582l-.573-4.75 12.553-7.813c19.436-12.096 42.406-22.512 56.343-25.548 3.271-.713 4.25-.631 4.25.355 0 2.913-5.309 19.302-8.393 25.906-1.823 3.905-5.404 9.913-7.958 13.35-2.555 3.438-4.274 6.25-3.821 6.25 1.091 0 21.784-2.817 25.891-3.524l3.22-.555 1.984-6.711c2.56-8.659 6.137-22.134 16.649-62.71 14.172-54.706 22.311-83.997 39.041-140.5 12.741-43.028 16.904-55.952 20.13-62.5 4.143-8.407 13.106-19.291 19.848-24.102 13.112-9.356 26.409-12.62 52.104-12.786l17.195-.112-3.195-1.645c-7.416-3.817-16.344-5.942-27.53-6.552l-11.336-.618 6.485-4.172c7.939-5.108 20.58-9.814 34.049-12.674 7.87-1.671 13.827-2.173 26.637-2.246 14.685-.083 17.323.165 23.98 2.256 5.793 1.819 8.444 3.312 11.75 6.618 2.349 2.348 4.27 4.771 4.27 5.383s-3.37 3.034-7.489 5.382c-4.12 2.347-7.495 4.594-7.5 4.993-.006.399 1.226.519 2.739.267 1.513-.251 10.472-1.394 19.909-2.539 13.767-1.671 18.573-1.886 24.309-1.091 8.058 1.116 10.745 2.574 8.881 4.82-2.303 2.775-17.288 11.302-23.764 13.523-5.201 1.783-8.687 2.244-16.585 2.19-8.807-.06-11.601-.564-23.419-4.231-9.265-2.875-15.225-4.164-19.25-4.164-3.221 0-5.831.448-5.831 1 0 .55.483 1 1.073 1s7.122 2.936 14.515 6.525c7.393 3.588 16.248 7.263 19.677 8.167 3.857 1.016 10.049 1.629 16.235 1.608 7.578-.026 11.43-.546 15.904-2.146 7.918-2.831 20.547-10.863 32.921-20.938 28.121-22.894 35.298-27.17 47.014-28.008l6.933-.496-10.246 12.394c-15.92 19.256-30.679 36.553-39.484 46.271-10.922 12.055-23.798 23.096-31.042 26.62-3.3 1.605-8.7 3.368-12 3.918s-14.765 1.494-25.479 2.098c-23.985 1.352-39.596 3.207-56.521 6.717-9.368 1.943-15.933 2.692-23.5 2.682-8.99-.012-11.399-.386-16.75-2.597-3.437-1.42-6.25-2.35-6.25-2.067 0 .284.924 2.011 2.053 3.838s4.268 4.947 6.975 6.935c5.207 3.822 14.227 7.479 18.447 7.479 1.389 0 2.525.434 2.525.965s-1.435 2.6-3.189 4.598l-3.189 3.632-7.625-.348c-6.313-.287-8.86-.961-14.811-3.914-3.952-1.962-7.186-3.407-7.186-3.21 0 .196.865 2.026 1.922 4.067 1.056 2.04 4.43 6.635 7.498 10.21 3.126 3.644 6.501 8.916 7.682 12 2.438 6.367 2.622 2.135-2.554 58.5-3.668 39.939-9.324 107.792-9.024 108.262.092.144 2.149-.587 4.571-1.625 2.423-1.038 7.571-3.071 11.441-4.518l7.035-2.63 2.289-39.245c2.606-44.68 6.385-92.884 8.617-109.906.834-6.361 2.205-13.521 3.048-15.909s2.894-6.466 4.559-9.06c3.091-4.818 7.044-8.351 12.46-11.14 7.389-3.805 23.655-6.559 54.456-9.222 18.706-1.617 30.885-3.936 37.744-7.189 2.066-.979 6.681-4.007 10.256-6.729l6.5-4.948 11-1.349c15.235-1.867 25.285-4.412 40.206-10.178 7.037-2.719 16.526-5.897 21.088-7.062 11.453-2.924 19.682-6.026 27.262-10.277 3.544-1.988 11.563-7.667 17.82-12.621 6.541-5.178 16.317-11.66 23-15.252 6.393-3.435 13.649-7.331 16.124-8.657 16.069-8.61 30.355-16.917 34.56-20.095 6.339-4.791 9.44-9.444 9.44-14.163 0-8.129-7.259-11.987-22.556-11.987-7.34 0-9.476-.334-10.572-1.655-2.389-2.881-7.837-4.456-15.41-4.456-7.662 0-12.68 1.001-19.128 3.817-2.804 1.224-6.119 1.605-12.334 1.416-6.342-.193-10.15.26-15 1.785-7.745 2.435-17.807 8.176-26.611 15.182l-6.41 5.1-2.808-3.006c-2.044-2.188-4.129-3.204-7.662-3.734-2.67-.4-7.814-.274-11.432.28-3.617.554-6.708.898-6.868.765-.16-.134.809-1.55 2.153-3.147 3.765-4.475 8.577-14.62 9.238-19.476.489-3.594.191-4.883-1.678-7.251l-2.272-2.881-14.575.544c-10.593.395-16.624 1.13-22.075 2.691-7.576 2.169-10.201 3.479-31 15.465-6.325 3.645-15.1 7.819-19.5 9.274l-8 2.646-33 .711c-28.112.606-34.437 1.025-42.699 2.831-12.458 2.722-24.737 7.042-37.301 13.123-13.554 6.56-26.646 15.263-35.443 23.561-9.122 8.605-14.781 15.91-19.499 25.166-4.33 8.496-7.073 16.291-17.508 49.749-4.289 13.75-13.004 41.65-19.367 62a36774 36774 0 0 0-20.98 67.348l-9.411 30.348-3.091-5.024c-7.391-12.012-12.667-28.484-22.636-70.672-3.119-13.2-6.57-27.15-7.668-31-6.876-24.11-17.576-48.256-25.57-57.704-11.701-13.829-27.111-21.754-48.336-24.858-11.57-1.691-41.83-.647-58.991 2.035-7.425 1.161-14.625 2.167-16 2.234s-9.925-1.29-19-3.018c-9.075-1.729-23.64-4.259-32.366-5.624l-15.866-2.482-13.634-8.885c-30.773-20.054-49.503-31.043-57.884-33.962-2.625-.914-3.25-1.671-3.249-3.934l.002-2.802 10.748-.029c8.405-.023 12.286-.527 17.797-2.311 9.227-2.986 18.478-9.968 27.097-20.45 3.713-4.516 6.801-8.312 6.862-8.436.062-.125 2.56.708 5.553 1.85 7.796 2.975 22.392 3.644 32.154 1.472 7.73-1.72 16.852-6.426 22.12-11.413 5.373-5.086 10.06-12.499 13.231-20.928l3.179-8.452 7.33-3.977c9.648-5.235 16.246-10.484 22.748-18.096 5.995-7.019 13.187-20.997 15.81-30.73 2.38-8.831 2.416-28.087.069-37-2.579-9.795-8.879-21.755-15.049-28.571-6.211-6.861-16.686-14.436-27.402-19.815-6.464-3.245-7.25-3.95-7.25-6.502 0-1.574-.273-4.226-.606-5.893l-.606-3.031 4.478-1.982c5.975-2.643 12.277-8.482 15.82-14.659 1.592-2.776 2.899-5.344 2.905-5.706s-1.786.208-3.979 1.267c-2.193 1.06-6.099 2.216-8.681 2.57l-4.693.643 3.931-3.567c2.162-1.962 4.765-4.995 5.784-6.74l1.853-3.172-3.053 1.579c-5.632 2.912-6.003 2.382-3.958-5.669 2.157-8.495 4.805-28.773 4.805-36.801v-5.609l5.214-2.421c2.867-1.332 7.817-4.962 10.999-8.067 4.031-3.932 6.891-7.972 9.428-13.314l3.642-7.668.108-9.686c.06-5.327-.218-11.5-.618-13.716l-.726-4.031 5.368-3.211c10.198-6.099 18.809-17.908 22.139-30.359 2.469-9.233 2.84-20.402 1.022-30.83-5.811-33.343-25.088-63.132-50.752-78.43-5.322-3.172-12.967-7.106-16.989-8.743-14.081-5.731-33.072-9.549-52.422-10.539l-12.087-.619.945-5.104c1.938-10.462-1.537-29.79-7.806-43.422-3.366-7.319-9.399-17.207-10.465-17.152-.275.014-2.3 1.396-4.5 3.072m4.373 16.148c3.189 7.046 4.988 14.319 5.694 23.027 1.232 15.184-2.818 27.134-12.467 36.783-4.225 4.225-8.399 7.135-14.285 9.957-4.573 2.193-11.465 4.648-15.315 5.456s-12.625 1.947-19.5 2.531-13.557 1.291-14.848 1.572c-4.435.965-1.669-1.903 6.464-6.703 9.806-5.787 19.613-15.873 15.433-15.873-3.588 0-12.691 2.736-18.886 5.676-4.036 1.916-7.468 3.335-7.627 3.154-.16-.182-1.222-2.178-2.36-4.437l-2.071-4.107 1.331-5.043c.731-2.773 2.596-7.369 4.144-10.212 3.383-6.216 12.912-15.362 21.337-20.48l6.149-3.736 2.04 2.592c1.411 1.794 2.994 2.593 5.138 2.593 1.704 0 3.921-.745 4.927-1.655 1.969-1.782 2.46-5.837.829-6.845-1.456-.9-1.224-2.5.363-2.5 1.577 0 23.679-10.883 28.137-13.854 1.65-1.1 3.101-2.033 3.225-2.073s1.091 1.84 2.148 4.177m-12.302 21.321c-.864.865-1.571 2.879-1.571 4.477 0 1.994.782 3.419 2.493 4.539 3.223 2.112 6.827 1.2 8.336-2.11.644-1.414 1.171-3 1.171-3.524 0-1.848-4.03-4.953-6.429-4.953-1.335 0-3.135.707-4 1.571M931 604.704c-2.242.786-4 3.393-4 5.93 0 2.449 3.382 5.366 6.223 5.366 2.306 0 5.777-3.49 5.777-5.809 0-3.693-4.437-6.736-8-5.487m-123.129 11.748c5.608 1.392 18.867 6.154 20.069 7.208.241.212-.546 1.076-1.75 1.92-2.625 1.838-2.883 5.996-.535 8.591.91 1.006 2.562 1.829 3.671 1.829 2.825 0 5.674-2.863 5.674-5.701v-2.391l4.446 3.395c10.224 7.807 11.563 9.407 12.73 15.219.61 3.039.933 5.688.717 5.887s-3.318-.078-6.893-.615c-9.287-1.395-30.112-1.524-32.345-.201-1.551.919.048 1.756 10 5.236 13.835 4.838 18.585 5.955 27.077 6.368 3.485.169 6.429.808 6.678 1.448.632 1.62-18.385 10.875-27.41 13.339-4.125 1.126-12.049 2.33-17.61 2.675-7.538.468-12.575.184-19.804-1.118-7.913-1.425-10.144-2.23-12.141-4.383-2.11-2.277-2.718-2.469-4.428-1.4-1.651 1.03-3.073.827-8.493-1.213-11.318-4.26-26.522-12.65-36.84-20.329-10.452-7.778-24.943-21.78-27.947-27.004l-1.763-3.065 5.763-.615c4.569-.487 37.696-4.421 58.263-6.918 1.925-.234 10.925-.272 20-.084 10.597.219 18.779.906 22.871 1.922M776 622c-1.1 1.1-2 3.107-2 4.461 0 3.007 3.574 6.539 6.616 6.539 1.243 0 3.186-1.204 4.368-2.707 1.48-1.881 1.943-3.482 1.518-5.25-1.217-5.062-6.85-6.695-10.502-3.043m-46.72 5.02c-2.688 1.082-3.859 5.029-2.336 7.875.612 1.145 2.244 2.365 3.625 2.712 5.487 1.377 8.897-6.767 4.208-10.05-1.222-.856-2.459-1.528-2.75-1.494s-1.526.466-2.747.957m230.12-.255c-.605.404-1.618 1.718-2.25 2.92-3.141 5.967 5.441 11.593 9.293 6.092.856-1.222 1.557-3.177 1.557-4.345 0-3.908-5.371-6.823-8.6-4.667m-63.057 8.29c1.563 1.229 3.224 4.114 4.135 7.181.837 2.82 1.522 6.159 1.522 7.42 0 2.837-3.619 4.826-10.5 5.771-2.75.378-5.678.882-6.507 1.12-.982.283-2.318-1.095-3.837-3.959-1.282-2.416-3.954-5.548-5.939-6.961-1.986-1.412-3.728-2.449-3.873-2.304-.145.144.565 2.944 1.576 6.22s2.131 7.315 2.488 8.975c.56 2.604.248 3.254-2.284 4.75-1.613.952-3.133 1.732-3.379 1.732-.245 0-1.922-2.908-3.726-6.463-2.464-4.854-3.406-8.208-3.782-13.474l-.502-7.012 2.698-1.025c1.483-.564 3.548-1.026 4.588-1.026 1.039 0 3.548 1.125 5.574 2.5s4.939 2.5 6.473 2.5c3.6 0 6.235-2.636 5.657-5.658l-.448-2.342h3.727c2.245 0 4.765.817 6.339 2.055m140.157-.02c11.869 1.687 22.59 4.865 32.361 9.59 7.246 3.505 10.887 6.054 16.12 11.287 7.582 7.582 12.382 16.325 14.154 25.779 1.164 6.214.511 19.379-1.098 22.137-.755 1.293-.99.766-1.039-2.328-.079-4.982-2.87-13.223-6.07-17.922-1.335-1.96-2.653-3.567-2.928-3.571s-.571 3.831-.657 8.521-.711 10.877-1.388 13.75-2.47 7.697-3.984 10.722c-2.81 5.612-11.474 15.831-12.528 14.776-.32-.32.314-2.34 1.411-4.489 3.217-6.306 5.146-15.474 5.146-24.453 0-18.305-7.486-32.988-21.594-42.352-5.56-3.691-13.523-6.943-15.437-6.305-.584.195.896 2.875 3.289 5.957s5.63 8.454 7.195 11.94c1.564 3.485 3.309 9.565 3.877 13.511.773 5.367.71 8.985-.252 14.368-1.341 7.503-6.223 18.401-10.547 23.547l-2.522 3 .746-4.5c.41-2.475.707-7.65.66-11.5-.06-4.883-.747-8.49-2.273-11.928-1.224-2.758-2.544-4.519-2.999-4-.447.511-1.6 3.068-2.563 5.684-1.76 4.784-3.572 5.508-3.59 1.435-.013-2.928-4.259-11.521-7.382-14.941-1.382-1.513-2.696-2.75-2.921-2.75s-.66 3.938-.966 8.75c-.355 5.586-1.463 11.281-3.064 15.75-1.796 5.013-2.529 6.222-2.583 4.261-.115-4.258-3.714-12.776-6.725-15.918-1.498-1.564-3.026-2.843-3.396-2.843s-.927 2.362-1.237 5.25c-.83 7.728-6.139 22.944-10.245 29.363-1.972 3.083-3.753 5.438-3.958 5.234-.204-.205.089-2.534.653-5.176.709-3.327.695-6.672-.046-10.879-.588-3.341-1.314-6.319-1.612-6.617-.816-.817-1.868.555-7.517 9.801-5.49 8.987-14.929 21.419-15.687 20.662-.248-.249.347-1.956 1.323-3.795 2.502-4.712 2.488-17.891-.025-23.343l-1.843-4-2.651 5.733-2.651 5.733-1.754-4.938c-1.817-5.117-7.267-13.063-9.453-13.783-.754-.248-1.25.489-1.25 1.858 0 2.918-2.995 15.147-3.969 16.203-.408.443-1.035-1.685-1.393-4.73-1.31-11.147-7.534-23.525-16.175-32.165-2.517-2.518-7.694-6.037-11.709-7.962-3.959-1.897-6.31-3.446-5.226-3.443 3.516.01 9.819 2.121 16.916 5.666 7.074 3.532 12.485 7.287 18.308 12.7 3.481 3.238 4.842 2.892 5.413-1.372l.335-2.5 6.949 6.737c4.852 4.705 7.186 6.364 7.735 5.5 1.542-2.425 2.093-8.164 1.05-10.928-.583-1.545-.762-2.808-.397-2.806s4.805 3.844 9.867 8.539l9.204 8.536 1.747-3.289c1.216-2.29 1.757-5.643 1.783-11.039.019-4.263.332-7.75.693-7.75.362 0 2.039 1.291 3.728 2.868 1.689 1.578 3.312 2.628 3.606 2.334s.535-1.391.535-2.436c0-1.343.514-1.747 1.75-1.379 6.068 1.811 11.423 2.761 12.732 2.258 2.096-.804 2.038-9.458-.084-12.487-.881-1.258-1.438-2.451-1.238-2.652.512-.512 13.388 2.073 19.09 3.833l4.75 1.465v-2.086c0-1.148-.965-4.08-2.144-6.516-1.409-2.909-3.725-5.458-6.75-7.427l-4.606-2.998 4.458.657c2.451.361 6.458 1.541 8.904 2.623s4.636 1.779 4.866 1.548c.231-.23-.254-1.722-1.077-3.314-2.482-4.799-9.932-10.878-16.208-13.227-3.242-1.213-9.424-2.719-13.736-3.348-5.099-.743-7.206-1.393-6.024-1.859 2.745-1.082 29.851-.955 37.817.178m-285.087 18.458c-2.112 3.223-1.2 6.827 2.11 8.336 1.414.644 3 1.171 3.524 1.171 1.82 0 4.953-4.013 4.953-6.345 0-5.422-7.616-7.697-10.587-3.162M797 653c-1.1 1.1-2 2.8-2 3.777s.701 2.778 1.557 4c1.147 1.639 2.562 2.223 5.385 2.223 2.965 0 4.192-.556 5.443-2.465.888-1.355 1.615-3.155 1.615-4 0-2.537-3.792-5.535-7-5.535-1.667 0-3.889.889-5 2m31 13c-2.257 2.257-2.582 5.018-.8 6.8.66.66 2.595 1.2 4.3 1.2s3.64-.54 4.3-1.2c1.901-1.901 1.458-6.592-.734-7.765-2.871-1.536-4.833-1.268-7.066.965m-75.278 25.791 9.158 5.291-1.333 4.429c-.733 2.436-3.602 11.08-6.375 19.209s-5.674 18.267-6.446 22.53c-.773 4.263-1.307 7.75-1.188 7.75.12 0 5.95-7.664 12.957-17.032 7.006-9.368 16.65-21.068 21.43-26l8.69-8.968 11.443-.014c6.293-.007 12.535-.306 13.872-.663 1.906-.51.749 1.268-5.38 8.263-11.091 12.661-19.707 25.802-42.563 64.914-6.749 11.55-18.656 31.35-26.459 44-25.436 41.233-28.423 46.304-34.899 59.234-6.726 13.429-11.053 24.835-12.255 32.299l-.72 4.467-.901-3c-.496-1.65-1.156-10.821-1.467-20.38l-.566-17.38-2.459 5.831c-3.657 8.672-6.158 19.703-7.006 30.898l-.755 9.97-4.659-9.47c-7.016-14.259-11.784-31.022-13.431-47.219l-.686-6.75h2.983c3.135 0 5.626-2.082 6.692-5.593.414-1.363-.093-3.02-1.454-4.75-1.536-1.953-2.999-2.657-5.518-2.657H660v-4.039c0-6.81 2.027-22.985 4.056-32.375 1.06-4.903 3.122-12.665 4.582-17.25 2.355-7.393 2.927-8.336 5.054-8.336 1.32 0 3.554-1.155 4.965-2.566 2.076-2.076 2.447-3.175 1.941-5.75-.344-1.751-1.311-3.696-2.148-4.321-1.324-.989-.956-2.241 2.809-9.559 2.384-4.632 6.754-12.091 9.713-16.576l5.38-8.154 3.481.131c2.646.099 4.043-.523 5.824-2.593 2.583-3.002 2.875-4.75 1.287-7.716-.904-1.69-.088-3.053 5.698-9.518 8.796-9.829 28.667-26.927 30.372-26.134.303.141 4.672 2.637 9.708 5.547m-15.267 16.664c-1.35 1.35-2.455 3.395-2.455 4.545s1.105 3.195 2.455 4.545S740.85 720 742 720c2.819 0 7-4.349 7-7.28 0-2.934-3.865-6.72-6.86-6.72-1.227 0-3.335 1.105-4.685 2.455m100.796 10.065c3.238 6.376 11.262 13.91 18.196 17.084 6.497 2.975 16.105 5.081 27.553 6.042l8.5.713-4.487 1.115c-2.468.613-4.043 1.377-3.5 1.698s4.097.906 7.899 1.302c10.129 1.055 16.524 2.965 28.441 8.494 5.856 2.717 13.329 5.636 16.607 6.486S945.845 763 948.808 763c4.271 0 7.077.833 13.54 4.019 10.853 5.35 20.557 7.343 32.235 6.619 6.767-.419 12.374-1.615 22-4.694 11.168-3.572 13.741-4.059 19.004-3.591 3.348.298 7.398 1.107 9 1.799 5.526 2.386 11.617 7.341 13.98 11.372 1.303 2.224 3.076 7.403 3.94 11.51 2.089 9.931 3.75 36.431 2.925 46.671l-.661 8.205-3.747-3.011c-4.465-3.588-11.554-5.899-18.094-5.899-6.333 0-15.586 2.979-21.157 6.812-2.709 1.864-5.373 4.823-6.631 7.365-1.815 3.669-1.919 4.528-.759 6.287 2.357 3.571 6.752 3.066 17.872-2.051 8.351-3.843 11.539-4.791 17.245-5.127 5.765-.339 7.564-.056 10.199 1.606 4.254 2.682 5.974 8.639 4.43 15.35-1.413 6.148-5.35 12.023-9.582 14.302l-3.363 1.812-5.842-2.567c-3.213-1.412-7.559-2.868-9.657-3.236-5.432-.951-13.738 1.047-19.091 4.593-2.527 1.673-4.594 3.384-4.594 3.802 0 .417 2.348.15 5.218-.594 2.87-.745 7.482-1.322 10.25-1.283l5.032.071-6.149 1.76c-7.447 2.132-14.819 6.712-20.203 12.554-3.395 3.682-8.148 11.251-8.148 12.973 0 .28 2.393-1.165 5.317-3.21 6.118-4.279 15.403-8.833 16.261-7.974.321.321.024 1.63-.66 2.909-.685 1.279-1.267 5.48-1.294 9.336-.034 4.718.512 8.126 1.667 10.422.945 1.877 1.496 3.635 1.224 3.906-.271.272-2.378-.246-4.682-1.151-2.303-.905-4.446-1.387-4.76-1.07-1.001 1.005 3.813 4.215 9.718 6.479 6.948 2.664 19.339 3.14 23.209.891l2.5-1.453-2.781-.326-2.78-.327 2.685-3.18c1.477-1.75 3.459-4.904 4.406-7.01l1.72-3.829.718 7.829c.766 8.349.899 9.094 5.053 28.329 2.31 10.697 2.621 14.014 2.157 23-.407 7.895-1.287 12.769-3.546 19.646-5.663 17.235-15.084 33.381-34.763 59.576-18.024 23.992-41.434 52.905-48.682 60.126-8.894 8.861-15.262 11.878-26.3 12.461-15.08.795-30.737-3.81-55.117-16.212-14.931-7.595-38.484-22.891-53.316-34.624-5.75-4.548-15.953-13.832-22.674-20.632-8.348-8.444-14.462-15.755-19.294-23.072-8.447-12.79-15.68-27.289-20.946-41.989-6.835-19.079-7.186-19.653-19.054-31.206-12.348-12.02-12.305-11.911-9.37-23.595.961-3.828 1.351-7.841.963-9.912-.812-4.329-4.741-7.567-9.179-7.567-2.309 0-4.43.965-6.916 3.148-3.409 2.993-6.484 7.609-6.484 9.733 0 .61 1.117.659 2.966.129 1.631-.468 4.669-.987 6.75-1.153 2.868-.228 3.736.055 3.587 1.171-.108.809-.742 4.397-1.409 7.972s-.904 8.142-.527 10.149c.377 2.008 1.799 5.29 3.159 7.295 1.361 2.005 2.474 3.794 2.474 3.975s-1.351.601-3.002.931c-1.672.335-5.005 2.605-7.526 5.125-2.489 2.489-4.882 4.525-5.318 4.525-.437 0-2.639-1.579-4.894-3.51-7.849-6.718-14.316-20.109-16.896-34.99-2.494-14.377-.062-28.585 6.03-35.233 2.858-3.119 3.906-3.6 7.831-3.6 5.766 0 10.748 2.901 21.275 12.391 4.4 3.966 9.448 7.826 11.218 8.577 4.15 1.76 12.427 1.749 16.669-.023 4.545-1.9 10.106-7.679 13.13-13.645 1.384-2.732 2.369-4.967 2.188-4.967s-2.192.9-4.469 2-4.627 2-5.222 2 .489-1.381 2.411-3.068c3.579-3.143 9.36-13.48 8.192-14.648-.358-.358-1.183-.118-1.834.533-2.532 2.532-2.273.915.892-5.567 1.813-3.712 3.302-7.312 3.31-8 .018-1.495-1.614-1.659-2.485-.25-.34.55-1.111 1-1.714 1s-.364-.809.53-1.797c1.785-1.972 8.684-16.41 8.684-18.173 0-.789-.563-.799-1.992-.035-1.095.587-5.707 1.308-10.25 1.604l-8.258.538 8.5-3.084c4.675-1.696 12.065-5.215 16.423-7.818 9.504-5.68 20.487-16.181 26.859-25.681 2.563-3.82 4.56-7.044 4.439-7.164-.122-.12-3.821 1.504-8.221 3.608s-9.575 4.137-11.5 4.517l-3.5.692 6.209-4.055c8.077-5.275 16.937-14.344 23.281-23.828 2.792-4.175 4.906-7.761 4.699-7.969-.208-.207-5.735 2.318-12.283 5.612-6.549 3.294-13.256 6.275-14.906 6.623-2.641.559-2.425.26 1.81-2.494 13.617-8.855 25.09-24.746 28.188-39.039l.746-3.444-1.775 1.775c-2.914 2.915-11.826 9.264-19.77 14.087-4.099 2.489-7.706 4.525-8.015 4.525s2.902-3.487 7.137-7.75c8.083-8.136 12.83-15.808 15.584-25.182 2.813-9.577 2.64-9.659-7.44-3.547-4.969 3.014-9.507 5.479-10.084 5.479-.576 0-.096-1.237 1.067-2.75s4.431-6.125 7.262-10.25 6.529-9.162 8.218-11.194l3.072-3.695.601 2.195c.331 1.207 1.748 4.453 3.15 7.214M1128.94 729c.111 11.726-2.66 19.49-9.654 27.053-7.352 7.948-20.1 13.897-29.786 13.899-2.562 0-2.165-.343 2.719-2.351 3.145-1.294 7.977-3.802 10.737-5.573 6.229-3.997 13.673-12.053 17.278-18.699 2.804-5.171 5.068-13.002 6.309-21.829.548-3.903.88-4.561 1.51-3 .443 1.1.843 5.825.887 10.5m-629.225 0c-.313 1.375-1.063 6.394-1.666 11.153-1.413 11.146-4.473 22.964-7.657 29.577-5.057 10.498-12.623 13.95-40.273 18.369-.34.054 3.027.665 7.482 1.357 4.456.693 11.244 2.213 15.085 3.38 4.903 1.489 8.388 3.357 11.696 6.269 7.841 6.902 11.054 15.182 15.023 38.718 2.505 14.855 2.437 14.873 4.996-1.323 2.398-15.183 5.509-26.766 8.677-32.313 1.951-3.416 4.619-6.307 7.514-8.143 4.73-3 16.176-6.462 25.408-7.686l5.5-.728-10.912-1.816c-11.203-1.864-20.285-5.254-24.434-9.122-1.294-1.206-3.393-4.237-4.666-6.736-2.783-5.467-6.884-20.168-9.38-33.622-1.267-6.834-1.997-9.071-2.393-7.334m266.87 5.906c-1.096 1.212-1.609 3.115-1.405 5.219.229 2.372 1.088 3.742 3.024 4.823l2.704 1.511 2.796-2.08c1.538-1.144 2.929-2.961 3.09-4.038.413-2.747-3.474-7.341-6.212-7.341-1.249 0-3.048.858-3.997 1.906M1322.71 748c-.317 1.925-1.531 9.921-2.698 17.769-1.166 7.848-3.028 17.735-4.138 21.97-2.546 9.72-7.613 20.756-11.634 25.335-6.221 7.085-18.546 11.684-38.24 14.268-5.775.758-9.825 1.62-9 1.916s6 1.321 11.5 2.278 13.454 2.812 17.677 4.122c8.245 2.559 16.144 7.749 20.484 13.458 6.704 8.818 11.604 25.024 15.687 51.884 2.622 17.244 2.279 17.597 5.684-5.85 3.723-25.639 8.775-41.305 15.958-49.486 3.947-4.495 9.624-7.951 17.531-10.671 6.708-2.308 24.286-5.993 28.587-5.993 1.591 0 2.892-.45 2.892-1s-1.687-1-3.75-1c-6.398-.001-26.459-3.685-32.497-5.968-8.198-3.1-15.618-10.211-19.537-18.722-4.071-8.841-7.827-23.017-11.211-42.31-2.122-12.105-2.844-14.733-3.295-12M712 752c-2.499 2.499-2.584 7.161-.171 9.345 4.024 3.642 11.171.542 11.171-4.845 0-1.375-.9-3.4-2-4.5s-3.125-2-4.5-2-3.4.9-4.5 2m29.009 21.959c-4.991 1.256-5.279 10.227-.389 12.087 5.452 2.073 10.682-3.861 8.019-9.099-1.375-2.703-4.264-3.835-7.63-2.988m781.69 16.092c-2.123 13.029-6.136 21.804-11.872 25.96-2.493 1.805-6.864 3.532-11.658 4.606l-7.669 1.717 7.5 1.64c8.073 1.766 12.509 3.72 15.206 6.701 3.405 3.763 6.834 13.245 8.647 23.913 1.975 11.619 2.131 11.559 4.118-1.588 2.172-14.375 6.316-22.206 13.949-26.36 2.658-1.446 7.476-3.247 10.706-4.001l5.874-1.37-5-.765c-8.03-1.228-15.122-4.309-18.329-7.962-3.582-4.079-5.816-10.531-8.068-23.292l-1.702-9.647zm-835.525 8.263c-1.245 1.326-2.174 3.61-2.174 5.345 0 5.95 6.683 8.436 10.826 4.027 2.982-3.174 2.796-7.052-.461-9.613-1.449-1.14-3.396-2.073-4.326-2.073s-2.669 1.042-3.865 2.314M890.5 808.612c-14.331 1.951-29.117 8.408-40.409 17.645-6.377 5.216-14.809 14.359-13.994 15.173.235.235 3.797-1.635 7.915-4.155 11.15-6.823 20.494-11.001 29.933-13.384 6.889-1.739 10.389-2.043 19-1.647 12.983.596 18.826 2.656 31.147 10.981 10.439 7.053 15.226 8.985 18.851 7.607 1.384-.527 2.856-1.491 3.271-2.145 1.247-1.96.884-7.597-.684-10.629-3.063-5.922-15.522-13.399-28.146-16.889-7.144-1.975-21.283-3.32-26.884-2.557m-175.277 7.945c-2.394 1.676-2.9 5.309-1.188 8.509 1.506 2.814 7.361 2.634 9.408-.289.856-1.222 1.557-3.022 1.557-4 0-.977-.9-2.677-2-3.777s-2.8-2-3.777-2-2.778.701-4 1.557m86.506.047c-.332.332-1.195.368-1.916.079-.798-.319-.561-.556.604-.604 1.054-.043 1.644.193 1.312.525m-109.506 35.953c-2.4 1.68-2.835 4.431-1.188 7.509.662 1.236 2.092 1.934 3.965 1.934s3.303-.698 3.965-1.934c1.647-3.078 1.212-5.829-1.188-7.509-1.222-.856-2.472-1.557-2.777-1.557s-1.555.701-2.777 1.557m189.511 1.611c-2.621.58-8.55 2.953-13.174 5.274l-8.409 4.22-2.431-1.475c-1.338-.811-3.203-2.648-4.145-4.081l-1.713-2.606.598 4.355c.328 2.395 1.271 5.658 2.094 7.25l1.497 2.895-2.775-.044c-3.736-.059-9.936-2.347-12.492-4.611l-2.083-1.845.702 3c.387 1.65 1.566 4.775 2.621 6.945s1.709 4.155 1.453 4.411c-.981.981-11.483-2.073-14.036-4.081l-2.682-2.11.735 2.418c1.03 3.39 4.357 8.901 7.415 12.28 6.37 7.04 15.699 10.125 22.165 7.33 1.884-.814 7.239-4.016 11.9-7.116 4.71-3.132 11.309-6.511 14.855-7.606 3.51-1.084 6.987-1.971 7.727-1.971 1.037 0 .902.978-.583 4.25-3.51 7.734-2.166 20.564 2.72 25.963 1.059 1.17 1.2 1.787.409 1.787-3.274 0-16.315-3.588-22.564-6.208-3.871-1.623-7.938-3.211-9.038-3.528l-2-.578 1.952 2.208c1.073 1.215 5.608 4.021 10.077 6.236 6.05 2.997 10.535 4.399 17.549 5.486 9.447 1.464 18.705 1.208 26.172-.723 4.274-1.106 5.015-2.893 1.199-2.893h-2.551l2.433-3.25c3.355-4.481 5.669-9.258 5.669-11.7 0-2.505 1.646-2.706 2.449-.3.321.962 1.51 2.875 2.641 4.25l2.056 2.5-.485-8.5c-.268-4.675-1.207-10.489-2.089-12.919l-1.603-4.419 1.911-2.081c2.856-3.111 6.112-8.853 6.116-10.786.003-1.409-.414-1.286-2.41.71-1.328 1.327-3.568 2.703-4.978 3.057-2.061.517-3.071.041-5.148-2.427-1.421-1.689-5.496-4.504-9.055-6.257-5.712-2.811-7.613-3.22-16.189-3.475-5.344-.159-11.861.185-14.482.765M1217.12 886c-1.883 14.115-5.705 30.413-8.637 36.83-3.043 6.659-7.44 11.55-12.922 14.374-4.369 2.251-19.845 5.725-26.061 5.851-3.07.062-3.535.269-2 .892 1.1.446 6.434 1.754 11.852 2.906s12.199 3.168 15.067 4.481 6.935 4.138 9.038 6.277 4.879 6.164 6.168 8.944c3.276 7.068 7.86 25.128 9.442 37.205.733 5.596 1.478 10.029 1.655 9.852s1.42-7.25 2.762-15.717c5.003-31.551 9.742-41.582 22.312-47.223 5.213-2.339 9.991-3.591 23.704-6.211l4-.764-10-1.7c-5.5-.935-12.7-2.481-16-3.435-4.785-1.383-7.023-2.784-11.05-6.92-3.697-3.797-5.75-7.077-7.667-12.248-2.576-6.95-6.407-22.146-9.05-35.894l-1.345-7zm-791.316-4c-.302.825-1.314 8.025-2.25 16s-2.381 18.55-3.21 23.5c-1.844 11.003-7.384 28.079-11.37 35.045-3.715 6.493-11.138 13.491-17.999 16.968-5.836 2.957-22.032 6.658-37.475 8.564-10.287 1.269-15.688 2.835-9.975 2.893 4.379.044 30.018 4.676 36.475 6.59 3.025.897 8.122 3.019 11.326 4.715 8.03 4.252 16.829 14.098 21.829 24.427 4.672 9.654 9.518 28.079 13.358 50.798 1.487 8.8 2.815 16.122 2.95 16.272s.802-3.901 1.48-9 2.34-15.797 3.693-23.772c5.293-31.205 10.418-45.267 19.461-53.397 2.817-2.533 8-5.979 11.518-7.658 6.686-3.191 22.091-7.088 36.135-9.14 4.538-.663 8.25-1.463 8.25-1.777s-6.637-1.604-14.75-2.868c-17.844-2.778-25.071-4.548-32.047-7.846-10.429-4.93-18.47-15.847-24.54-33.314-3.988-11.476-8.99-34.901-11.959-56q-.353-2.498-.9-1M1060 886c-.589 1.1-1.799 2-2.69 2-1.43 0-1.408-.235.19-2 .995-1.1 2.206-2 2.69-2s.399.9-.19 2m-72.277 3.75c-4.662 6.859-6.042 12.696-6.088 25.75-.025 7.013.498 13.853 1.256 16.46.715 2.452 3.132 8.527 5.372 13.5 2.241 4.972 4.273 11.098 4.516 13.614.584 6.044-2.142 11.339-8.864 17.219-2.902 2.539-4.858 4.99-4.476 5.608.373.605 2.25 1.099 4.17 1.099 6.609 0 12.252-4.522 14.857-11.904 2.672-7.572 2.025-12.17-3.363-23.918-2.693-5.873-5.493-13.153-6.222-16.178-1.833-7.607-1.402-25.569.87-36.25 1.023-4.812 1.559-8.75 1.191-8.75-.369 0-1.817 1.688-3.219 3.75M610 892.391c0 .215-.89 2.352-1.978 4.75-2.14 4.717-2.679 10.859-.952 10.859.588 0 2.951-1.273 5.25-2.83 2.299-1.556 4.643-3.096 5.208-3.422.678-.39.895 1.77.637 6.33-.421 7.462.33 8.427 3.835 4.922 1.1-1.1 2.214-2 2.475-2s-.04 1.237-.67 2.75c-.647 1.555-1.171 8.399-1.205 15.75-.045 9.845.381 14.444 1.755 18.948 2.846 9.322 7.094 16.843 13.302 23.548 5.646 6.099 14.24 11.976 17.538 11.995 1.498.008 1.411-.609-.75-5.331-2.421-5.287-6.466-19.504-6.422-22.57.012-.874 1.549 1.242 3.414 4.703 4.037 7.491 6.802 11.22 12.65 17.062 5.606 5.602 11.589 9.706 20.78 14.254l7.368 3.647-13.773-.526c-12.335-.471-13.906-.343-15.053 1.226-.93 1.272-1.007 2.475-.281 4.397.549 1.456 2.116 3.818 3.48 5.248l2.481 2.601-6.539.611c-3.596.336-7.441 1.094-8.544 1.684s-2.006 1.925-2.006 2.967c0 1.041 1.498 3.482 3.329 5.423 2.579 2.735 2.996 3.658 1.853 4.097-3.595 1.379-16.491 1.717-22.373.587-3.47-.667-9.641-2.844-13.713-4.837-9.815-4.804-17.874-12.38-22.465-21.117-1.997-3.8-3.631-7.319-3.631-7.82s2.362 1.365 5.25 4.146c9.167 8.829 22.803 14.557 34.656 14.557h5.486l-3.021-3.25c-1.662-1.788-4.56-5.253-6.439-7.7-2.647-3.447-2.968-4.262-1.424-3.615 6.072 2.545 9.329 3.482 12.242 3.521 1.788.024 3.25-.2 3.25-.499s-4.541-6.474-10.092-13.724c-12.226-15.969-18.753-28.703-22.686-44.26l-2.774-10.973-2.746-.319c-2.355-.273-2.974.225-4.335 3.483-2.421 5.794-2.858 17.627-.951 25.733.893 3.793 1.425 7.095 1.183 7.337-.793.793-7.35-14.104-8.686-19.734-.718-3.025-1.29-9.55-1.271-14.5.036-9.246 1.889-17.7 5.378-24.539 2.347-4.6 9.724-13.961 11.003-13.961.537 0 .977.176.977.391m989.347 9.602c-4.774 2.437-9.131 8.165-10.414 13.691-1.176 5.068-1.124 15.777.103 21.094.769 3.334.624 5.385-.656 9.298-2.091 6.395-1.425 16.559 1.528 23.309 1.312 3 4.945 7.694 9.412 12.161l7.274 7.274-5.379.672c-7.17.896-15.777 3.937-19.775 6.986-1.788 1.364-4.248 4.093-5.466 6.065-1.787 2.89-2.12 4.588-1.719 8.763l.498 5.177 5.623 5.03c3.093 2.766 5.624 5.83 5.624 6.808 0 2.473 2.363 6.762 5.169 9.381 4.148 3.873 9.151 5.299 18.549 5.286 12.411-.017 23.872-3.466 34.848-10.487l5.434-3.476.004 2.737c.002 1.506.895 4.201 1.985 5.988 1.63 2.674 2.605 3.25 5.493 3.25 5.328 0 10.985-5.643 15.688-15.647 2.106-4.481 3.83-8.644 3.83-9.25 0-.607.338-1.089.75-1.072s2.55 1.14 4.75 2.495c4.387 2.702 7.452 3.122 9.3 1.274 1.473-1.473 1.575-8.231.165-10.866l-1.035-1.934 7.285-.006c4.007-.003 8.884-.449 10.839-.992 4.359-1.211 7.946-4.404 7.946-7.072 0-2.913-2.846-3.595-4.593-1.1-.806 1.151-3.14 2.557-5.186 3.126-4.087 1.134-14.011 1.199-18.721.121l-3-.687 2.208-.749c2.755-.935 13.262-13.004 18.839-21.641 6.27-9.71 10.253-18.136 14.045-29.711 4.203-12.832 4.535-20.643 1.158-27.304-2.922-5.764-7.513-8.438-14.317-8.34-7.263.105-14.058 4.114-22.897 13.51-4.966 5.279-8.716 10.532-11.807 16.54-2.491 4.843-5.096 10.718-5.788 13.055-.691 2.337-1.531 4.25-1.865 4.25-.333 0-1.433-2.362-2.443-5.25-2.682-7.668-11.049-21.905-17.82-30.322-10.705-13.308-24.318-22.167-35.457-23.077-4.649-.379-6.712-.041-10.009 1.642M711.49 904.31c-1.894 1.894-3.823 5.211-4.508 7.75-1.294 4.796-.847 11.645 1.071 16.44l1.2 3 1.723-7.5c2.111-9.188 3.249-12.027 5.659-14.116 3.365-2.915 6.74-3.029 11.927-.403 2.662 1.348 5.008 2.283 5.213 2.078.777-.777-2.845-6.469-5.39-8.471-1.957-1.539-4.092-2.088-8.12-2.088-4.853 0-5.836.371-8.775 3.31m695.6 24.305c-.727 5.987-2.139 14.104-3.14 18.039-2.113 8.31-5.751 15.913-9.113 19.047-3.675 3.425-10.442 5.93-21.337 7.9l-10 1.809 5.686.751c8.778 1.16 17.901 3.748 22.384 6.35 2.239 1.299 5.313 4.155 6.831 6.346 3.736 5.391 6.941 15.972 9.699 32.022l2.3 13.379 2.266-14.657c3.132-20.258 5.502-27.743 10.5-33.165 4.478-4.858 10.356-7.489 23.334-10.445 5.132-1.169 6.858-1.853 4.815-1.907-4.538-.12-16.355-2.716-21.216-4.661-2.273-.909-5.925-3.691-8.117-6.181-4.774-5.423-7.833-14.305-10.945-31.778-1.172-6.58-2.242-12.362-2.379-12.849-.136-.487-.842 4.013-1.568 10m214.671-7.431c5.941 2.738 17.292 14.068 23.36 23.316 2.526 3.85 6.429 11.05 8.674 16 4.516 9.96 8.205 22.841 8.205 28.653 0 5.04-2.37 6.288-10.497 5.53-12.792-1.195-32.996-10.951-40.981-19.79-6.842-7.574-8.17-14.409-4.368-22.496l2.153-4.582-1.796-5.657c-2.061-6.491-2.235-12.996-.462-17.276 1.336-3.226 5.143-5.779 8.712-5.842 1.243-.022 4.393.943 7 2.144m85.744 8.23c1.327 1.328 2.714 3.609 3.081 5.071 1.476 5.883-5.839 25.718-13.747 37.274-6.059 8.854-16.011 18.241-19.34 18.241-.331 0-1.253-1.561-2.05-3.468-1.888-4.519-1.848-17.215.082-25.399 2.935-12.454 10.661-24.638 19.838-31.286 2.167-1.569 5.231-2.847 6.826-2.847 1.728 0 3.87.974 5.31 2.414M711 938.832c0 1.228.607 3.68 1.348 5.45 1.541 3.676 6.369 9.718 7.767 9.718.515 0-.946-3.487-3.247-7.75s-4.562-8.178-5.026-8.7c-.488-.551-.842-.013-.842 1.282m909 10.826c0 .362 3.214 3.85 7.142 7.75s11.691 12.916 17.25 20.035c5.56 7.118 10.421 13.405 10.804 13.971.382.565 1.025.699 1.427.296.828-.828-1.938-6.097-8.334-15.876-7.526-11.508-22.912-26.834-26.939-26.834-.743 0-1.35.296-1.35.658m-865.51 19.927c1.361.892 3.383 3.091 4.492 4.887 2.638 4.267 2.696 11.98.12 15.887-3.054 4.632-6.958 6.627-12.984 6.634-6.534.008-11.208-2.555-13.512-7.41-5.227-11.015 3.36-23.559 15.152-22.134 2.341.283 5.371 1.245 6.732 2.136m196.733.972c-1.223.856-2.223 2.206-2.223 3 0 1.151 1.824 1.443 9 1.443 8.072 0 9-.19 9-1.839 0-1.012-1.146-2.362-2.547-3-3.614-1.647-10.613-1.438-13.23.396m149.71 25.382c.72 5.743.733 10.471.04 14.977-1.411 9.181-6.918 19.985-13.582 26.649-2.989 2.989-5.959 5.435-6.6 5.435s.017-1.237 1.463-2.75c3.064-3.206 6.692-10.761 6.724-14 .023-2.323-1.383-3.021-2.487-1.236-.345.558-2.363 1.9-4.485 2.983l-3.858 1.968.565-5.471.564-5.471-5.388 2.97c-2.964 1.634-5.688 2.979-6.052 2.989-.365.01 1.674-2.377 4.532-5.304 5.043-5.165 12.631-17.826 12.631-21.074 0-.882.401-1.604.891-1.604.491 0 1.473 2.925 2.184 6.5.969 4.874 1.708 6.5 2.953 6.5.914 0 2.462-.884 3.44-1.965 2.047-2.262 4.493-11.715 4.516-17.452.009-2.154.214-3.718.456-3.476s.914 4.217 1.493 8.832M887 991.653c-9.3 1.385-16 5.542-16 9.929v2.207l3.528-.795 3.528-.796 1.538 3.651c.845 2.008 4.021 9.699 7.056 17.091 7.345 17.887 12.173 27.316 17.698 34.56 7.258 9.518 15.381 15.355 25.934 18.636 8.259 2.568 21.947 3.488 28.498 1.917 2.803-.673 7.065-2.471 9.47-3.997s5.802-4.929 7.547-7.563c1.744-2.634 4.977-10.362 7.183-17.173 2.207-6.811 4.938-14.199 6.069-16.416s4.734-6.627 8.004-9.798c3.577-3.467 5.947-6.609 5.947-7.884v-2.118l-3.029 1.056-3.029 1.056-3.955-4.493c-2.175-2.471-5.748-5.21-7.94-6.088-3.391-1.356-5.17-1.427-11.905-.475l-7.919 1.12-6.362-3.89-6.361-3.89-10.176-.339c-5.597-.186-16.04.376-23.208 1.25-15.246 1.859-22.148 1.985-27.483.504l-3.867-1.074 3.367-2.88c1.852-1.584 2.841-2.898 2.199-2.92-.643-.023-1.768-.203-2.5-.401-.733-.197-2.457-.192-3.832.013M772.949 1012c5.367 14.352 19.293 44.356 26.181 56.408 18.426 32.243 45.48 66.741 64.77 82.592 5.02 4.125 12.373 9.179 16.339 11.232 3.967 2.053 10.59 4.483 14.719 5.402 6.003 1.336 8.711 1.466 13.524.65 3.31-.561 6.143-.917 6.296-.791s-.225 1.53-.84 3.118c-.615 1.589-1.122 7.614-1.128 13.389-.007 7.488.587 12.748 2.071 18.337l2.082 7.837-1.982 5.881c-1.089 3.235-1.981 6.796-1.981 7.913 0 1.364-.656 2.032-1.997 2.032-2.344 0-9.645 6.296-10.528 9.078-.486 1.531-1.563 1.926-5.292 1.944-5.437.025-12.26 2.821-14.424 5.911l-1.505 2.149-3.764-2.221c-4.725-2.787-11.636-2.997-17.133-.52l-4.085 1.84-2.646-2.645c-1.455-1.456-4.201-3.296-6.103-4.091-3.999-1.671-12.781-1.912-15.554-.428-1.582.846-2.151.532-3.399-1.881-1.985-3.839-6.665-7.682-11.163-9.167-2.004-.661-5.548-.988-7.875-.725l-4.231.476-1.224-3.382c-1.837-5.082-7.643-10.156-13.603-11.889-2.844-.826-5.859-1.239-6.7-.916-1.128.433-1.696-.305-2.166-2.81-.351-1.869-2.293-5.332-4.317-7.696-3.764-4.397-10.023-7.966-14.041-8.005-1.466-.014-2.252-.632-2.256-1.772-.013-4.321-2.511-10.002-5.876-13.368-5.529-5.528-13.63-7.218-21.368-4.456-2.062.736-3.75.981-3.75.545 0-1.159 5.654-5.726 8.018-6.477 2.199-.698 6.208-7.975 10.902-19.793 4.48-11.277 9.813-32.604 12.572-50.271 3.582-22.944 4.691-44.95 3.449-68.43-.567-10.725-1.248-20.132-1.514-20.904-.52-1.514 5.695-7.371 6.647-6.264.315.368 2.509 5.843 4.875 12.168m854.25-11.009c5.666 1.095 14.33 3.243 19.254 4.773l8.953 2.781-3.953 4.398c-5.584 6.213-14.525 12.565-21.228 15.081-7.429 2.789-15.752 4.167-20.521 3.397-3.25-.524-4.019-1.168-5.34-4.47-.849-2.121-3.43-5.403-5.737-7.293-5.296-4.34-8.149-9.444-7.259-12.989.687-2.735 4.722-5.417 10.132-6.734 5.548-1.351 15.328-.949 25.699 1.056m59.186 7.474c1.927 2.941 2.098 5.537.365 5.53-.687-.003-2.587-1.074-4.221-2.382-2.568-2.055-2.789-2.595-1.627-3.995.739-.89 1.911-1.618 2.605-1.618.695 0 1.99 1.109 2.878 2.465m-62.48 2.019c-7.842 1.321-11.905 2.874-11.905 4.551 0 .531 1.912.962 4.25.957 8.253-.014 30.75-4.457 30.75-6.072 0-1.3-14.066-.956-23.095.564m-703.819 4.528c11.447 1.634 26.574 4.085 33.614 5.446s15.838 2.777 19.55 3.147 6.75.822 6.75 1.006-1.128 2.717-2.507 5.63-3.701 6.582-5.16 8.156l-2.653 2.861-12.09-.547c-8.506-.385-14.824-1.305-21.312-3.102-11.356-3.147-22.328-8.264-28.846-13.455-5.593-4.453-13.014-13.975-9.988-12.814 1.005.386 11.194 2.038 22.642 3.672m626.1-.899c-2.624.774-3.248 1.436-3 3.182l.314 2.205 7-.36c3.85-.198 7.815-.791 8.81-1.317.996-.527 1.667-1.715 1.491-2.64-.249-1.306-1.55-1.724-5.811-1.865-3.019-.1-6.981.258-8.804.795m-33.186 7.763c-3.025.972-6.513 2.314-7.75 2.981-2.227 1.201-3.055 4.527-1.384 5.56.966.597 15.937-4.147 17.863-5.661.877-.689.938-1.509.215-2.861-.558-1.042-1.561-1.871-2.229-1.841-.668.029-3.69.849-6.715 1.822m-588.486 19.248c9.85 3.421 23.477 5.876 32.617 5.876 5.319 0 6.869.326 6.869 1.443 0 5.01-13.366 6.123-26.798 2.233-7.892-2.286-16.52-6.793-21.946-11.464-2.042-1.758-2.238-2.178-.756-1.622 1.1.413 5.606 2.004 10.014 3.534m549.372.364c-3.637 2.463-7.199 5.184-7.914 6.045-1.079 1.301-1.027 1.841.305 3.173l1.606 1.605 6.44-4.196c3.542-2.307 7.23-5.069 8.196-6.136 1.437-1.588 1.527-2.218.497-3.46-.694-.836-1.543-1.517-1.888-1.515-.346.003-3.604 2.02-7.242 4.484m-200.604 4.433c-1.044 1.671-.693 2.379 2.699 5.443 2.145 1.938 5.209 4.2 6.811 5.028 2.191 1.134 3.194 1.222 4.059.357.632-.632 1.149-1.711 1.149-2.398s-2.87-3.298-6.377-5.8c-3.507-2.503-6.549-4.551-6.759-4.551-.211 0-.923.864-1.582 1.921M504.207 1056.5c-2.897 18.478-6.71 28.534-12.442 32.813-5.195 3.877-7.527 4.809-16.656 6.657l-8.592 1.739 5.824.728c7.641.955 16.146 3.934 20.323 7.12 1.845 1.408 4.216 4.247 5.269 6.311 2.31 4.528 4.668 13.377 6.948 26.069l1.695 9.437 1.749-11.703c.963-6.436 2.622-14.527 3.688-17.978 1.141-3.692 3.4-7.984 5.487-10.422 3.801-4.44 9.311-7.016 20-9.35l6-1.31-5.738-.672c-9.446-1.107-14.538-2.989-19.212-7.104-3.093-2.722-5.076-5.626-6.57-9.617-2.013-5.38-5.533-21.085-6.212-27.718-.194-1.89-.771-.041-1.561 5m932.793 7.707c-4.125 2.288-7.796 4.599-8.157 5.136-1.072 1.59.225 3.657 2.293 3.657 2.633 0 12.942-5.313 15.235-7.853 1.957-2.167 1.612-5.164-.59-5.123-.704.013-4.656 1.896-8.781 4.183m-130.643 2.306c-.32.832-.048 2.155.604 2.94 1.303 1.571 13.62 6.547 16.203 6.547 2.092 0 3.295-3.09 1.62-4.159-2.114-1.349-15.559-6.841-16.746-6.841-.605 0-1.362.681-1.681 1.513m-663.231 4.863c2.956 1.308 8.907 3.163 13.225 4.123 6.308 1.404 10.632 1.635 22 1.18 7.782-.312 15.499-.852 17.149-1.199 2.529-.532 2.215-.151-2 2.428-2.75 1.682-7.25 3.847-10 4.811-6.819 2.39-18.156 2.165-26.416-.524-6.424-2.091-18.616-9.534-19.534-11.924-.268-.699-.332-1.271-.143-1.271s2.763 1.069 5.719 2.376m753.05 7.094c-3.478.703-6.8 1.754-7.382 2.336-.583.583-.765 1.828-.404 2.767.553 1.441 1.558 1.613 6.448 1.102 3.186-.333 7.564-1.186 9.728-1.895 2.834-.928 3.934-1.847 3.934-3.284 0-1.517-.72-2.033-3-2.149-1.65-.084-5.846.421-9.324 1.123m-49.509.197c-.367.366-.667 1.446-.667 2.4 0 1.255 1.311 2.021 4.75 2.776 2.612.573 6.818 1.31 9.346 1.638 3.51.455 4.907.22 5.914-.993 1.095-1.32 1.079-1.811-.096-2.902-.778-.722-4.651-1.825-8.607-2.45-8.338-1.317-9.731-1.378-10.64-.469m-298.667 7.18c0 1.697-7.424 8.432-10.914 9.902-3.9 1.641-15.086 3.292-15.086 2.226 0-.362 2.664-1.465 5.92-2.451s8.994-3.745 12.75-6.132 6.942-4.352 7.08-4.366.25.355.25.821m523.777 6.71c4.183 2.929 2.293 8.314-5.44 15.503-11.26 10.468-29.691 20.137-45.702 23.976-9.552 2.29-23.217 2.583-27.964.6-3.653-1.527-9.223-7.544-7.977-8.618.443-.383 3.772-1.642 7.398-2.798 9.746-3.108 16.85-6.522 32.245-15.495 7.61-4.436 17.735-9.549 22.5-11.362 6.749-2.568 10.215-3.304 15.69-3.33 4.788-.022 7.737.463 9.25 1.524m117.973 12.429c.688.008 1.25.494 1.25 1.081 0 3.132-33.626 39.428-47.892 51.694-8.64 7.43-20.446 14.74-27.054 16.753-2.55.777 5.632-8.454 34.584-39.014 7.816-8.25 16.77-18.15 19.899-22 3.128-3.85 5.858-7.183 6.065-7.406.74-.798 7.936-1.899 9.898-1.514 1.1.216 2.563.399 3.25.406m-30.991 3.44c.281.281-2.812 4.377-6.874 9.102s-9.117 10.701-11.235 13.281c-9.707 11.829-27.074 30.307-36.502 38.839-5.693 5.152-13.258 10.993-16.81 12.98-8.82 4.932-19.02 8.235-30.338 9.824-5.225.733-9.593 1.251-9.707 1.15-.51-.451 15.546-19.831 22.038-26.602 3.956-4.125 11.646-11.1 17.091-15.5s13.927-11.6 18.849-16c17.408-15.563 22.291-19.496 27.992-22.547 6.602-3.533 16.674-6.078 21.611-5.461 1.856.233 3.604.652 3.885.934m56.632.574c1.775 0 4.07.617 5.101 1.371l1.874 1.37-6.933 5.111c-6.765 4.988-33.007 18.908-33.921 17.994-.252-.253 2.792-4.04 6.764-8.416 3.973-4.375 8.944-10.061 11.047-12.635 2.796-3.422 4.677-4.785 7-5.071 1.747-.216 3.776-.242 4.509-.058.732.184 2.784.334 4.559.334m-991.226 54.257c-1.75 2.334-4.416 6.268-5.924 8.743-2.422 3.976-2.741 5.493-2.741 13.021v8.521l3.432 6.979c4.669 9.495 20.895 33.41 32.492 47.888 19.346 24.151 31.514 37.659 55.511 61.625 24.619 24.589 40.234 39.053 73.372 67.966 9.77 8.525 17.15 15.631 16.399 15.791-2.814.598-54.444-17.159-79.706-27.414-4.675-1.898-14.237-6.219-21.25-9.602l-12.75-6.151.087-8.562c.048-4.709.429-12.612.846-17.562.584-6.928.444-9.518-.61-11.25-.836-1.374-2.348-2.25-3.884-2.25-2.93 0-13.254 3.907-36.939 13.979-17.723 7.536-32.685 12.021-40.108 12.021h-4.351l-1.916-3.755c-4.415-8.654-14.632-35.34-20.77-54.245-1.874-5.775-4.502-14.781-5.839-20.014-2.859-11.187-5.506-26.811-5.512-32.526-.006-6.308 2.707-15.177 6.207-20.293 4.128-6.032 31.584-33.545 39.015-39.094 5.407-4.039 16.705-9.475 17.675-8.505.245.245-.986 2.355-2.736 4.689m215.246 3.82c2.508 2.981 3.329 7.268 1.824 9.523-1.323 1.981-5.045 3.407-9.332 3.575-3.297.129-4.61-.329-6.056-2.116-1.016-1.254-1.847-3.378-1.847-4.719 0-2.923 2.455-7.957 4.229-8.671.699-.281 2.918-.547 4.932-.59 2.913-.063 4.19.549 6.25 2.998M971 1184.043c5.775 3.465 15.58 9.67 21.788 13.787 10.031 6.653 12.042 8.498 18.06 16.578 3.725 5.001 8.139 11.117 9.81 13.592 6.366 9.428 15.883 26.009 22.387 39 7.223 14.427 17.385 37.903 16.703 38.585-.227.227-4.2.924-8.83 1.548-10.003 1.35-32.357.557-45.418-1.61-15.775-2.618-19.804-2.845-21.932-1.24l-1.933 1.457 7.467 10.38c4.107 5.709 9.184 13.028 11.282 16.264 3.358 5.181 3.678 6.184 2.672 8.391-2.317 5.088-10.017 15.991-17.967 25.447-8.022 9.539-25.628 26.39-30.04 28.752-1.979 1.059-2.173.985-1.675-.638 1.236-4.026 3.675-20.183 5.076-33.631 2.682-25.747 3.845-54.34 3.201-78.705-.583-22.091-3.337-54.815-5.629-66.886-.562-2.963-1.022-9.393-1.022-14.29 0-6.909-.445-9.776-1.986-12.796-1.092-2.141-2.354-4.12-2.804-4.398s-.372-2.938.172-5.911l.991-5.405 4.563 2.714c2.51 1.493 9.289 5.55 15.064 9.015m-224.175-1.627c1.344 1.318 2.532 3.924 2.818 6.181.416 3.291.011 4.479-2.584 7.576-1.692 2.019-4.39 3.96-5.995 4.313-3.417.75-8.176-1.38-10.503-4.703-1.799-2.567-2.047-8.007-.497-10.902.585-1.094 2.497-2.879 4.25-3.967 2.311-1.436 4.147-1.815 6.686-1.378 1.925.33 4.546 1.627 5.825 2.88m196.098 8.173c2.548 2.144 3.077 3.32 3.077 6.845 0 2.931-.599 4.798-1.926 5.999-1.624 1.47-2.99 1.628-8.744 1.012-4.403-.472-7.252-1.3-8.042-2.338-.674-.884-1.239-3.254-1.256-5.268-.025-2.882.623-4.212 3.045-6.25 2.143-1.803 4.244-2.589 6.923-2.589s4.78.786 6.923 2.589m-176.821 11.695c2.338 1.571 3.695 3.474 4.348 6.097.721 2.892.6 4.433-.5 6.37-3.628 6.392-11.397 8.534-16.694 4.603-1.57-1.165-3.156-3.623-3.685-5.712-.719-2.835-.547-4.47.758-7.206 1.705-3.574 6.113-6.319 10.273-6.397 1.156-.021 3.631.989 5.5 2.245m385.363 10.135c8.878 2.482 17.805 7.225 23.038 12.238 5.96 5.711 11.056 16.369 12.595 26.343 1.367 8.856.651 25.532-1.652 38.5-3.553 20.003-12.151 49.02-22.077 74.5l-4.869 12.5-.618-6.471c-.533-5.577-.207-7.648 2.361-15 5.114-14.64 10.677-35.934 13.33-51.029 3.061-17.419 4.15-38.508 2.524-48.884-.636-4.061-2.104-9.587-3.263-12.279-1.261-2.932-4.1-6.689-7.078-9.366-2.735-2.459-5.553-4.471-6.264-4.471-.735 0-2.426 3.519-3.925 8.164-2.839 8.804-9.943 23.559-14.842 30.828-5.177 7.682-9.836 13.057-10.802 12.461-.507-.314-.923-1.409-.923-2.433s2.516-7.41 5.591-14.191c6.822-15.045 11.13-27.6 11.995-34.961l.649-5.528-3.867-1.92c-3.278-1.627-6.08-1.92-18.368-1.92-7.975 0-15.854.305-17.51.677-2.653.597-3.406.205-6.356-3.31-1.841-2.193-3.156-4.178-2.923-4.411 1.29-1.291 16.374-2.275 30.789-2.009 11.543.213 18.292.805 22.465 1.972m-212.395 1.849c4.193 2.826 5.722 7.405 3.924 11.746-1.216 2.936-5.398 5.986-8.208 5.986-.722 0-3.669-1.587-6.549-3.527-4.415-2.973-5.237-4.009-5.237-6.6 0-2.162 1.008-4.081 3.4-6.473 4.083-4.083 7.798-4.415 12.67-1.132m-150.348 5.404c3.588 1.703 6.278 6.164 6.278 10.414 0 1.182-1.806 3.955-4.012 6.162l-4.013 4.012-4.237-.568c-5.534-.742-9.738-5.177-9.738-10.274 0-1.952.479-4.444 1.064-5.537 1.294-2.419 6.75-5.872 9.285-5.877 1.017-.002 3.435.749 5.373 1.668m-24.271 14.746c.577 1.994 2.307 5.191 3.844 7.106 3.902 4.861 9.486 7.476 15.964 7.476h5.339l1.195 3.304c1.504 4.159 6.723 9.578 10.925 11.344 3.774 1.586 12.601 1.787 15.289.348 1.551-.83 2.188-.473 3.684 2.068 2.421 4.11 9.542 8.699 14.703 9.472 2.902.436 5.94.038 9.887-1.295l5.697-1.923 1.643 1.816c2.687 2.969 9.713 5.866 14.227 5.866 4.847 0 10.633-2.164 13.839-5.176l2.215-2.08 4.069 1.628c2.238.895 6.168 1.628 8.734 1.628 6.509 0 12.179-3.036 15.795-8.458l3-4.498 5.185-.022c6.034-.026 9.866-1.286 13.197-4.339 3.101-2.842 6.068-9.345 6.096-13.36.018-2.531.642-3.486 3.073-4.699 2.264-1.129 3.147-1.212 3.421-.323 1.84 5.961 2.192 69.168.51 91.609-1.348 17.979-3.601 37.732-6.052 53.06-1.526 9.543-2.497 13.005-4.137 14.75-1.178 1.254-2.626 2.277-3.217 2.273-1.294-.007-40.941-33.952-70.076-59.998-27.056-24.186-44.341-40.615-63.648-60.495-20.77-21.386-32.077-34.255-43.963-50.038-.517-.686.793-.976 3.865-.853l4.648.185zm52.438 2.142c1.79 1.506 3.301 3.937 3.67 5.903 1.202 6.406-4.36 13.537-10.559 13.537-2.935 0-7.585-2.57-9.439-5.217-.859-1.225-1.561-3.973-1.561-6.106 0-3.076.702-4.579 3.4-7.277 2.74-2.74 4.181-3.4 7.423-3.4 2.858 0 4.905.742 7.066 2.56m107.886-.556c5.862 3.574 6.914 10.461 2.302 15.073-3.335 3.335-7.454 3.813-12.11 1.406-3.166-1.637-5.967-6.097-5.967-9.499 0-2.574 1.769-6.056 3.913-7.702 2.42-1.858 8.208-1.506 11.862.722m-406.406 11.382c7.037 2.678 18.68 9.222 18.569 10.436-.034.373-2.127 2.186-4.651 4.029l-4.59 3.35-7.598-2.268c-4.18-1.248-10.974-2.456-15.099-2.684-5.611-.311-9.076.083-13.756 1.565-3.441 1.089-8.494 3.687-11.229 5.773-5.69 4.339-13.408 13.502-18.513 21.979-1.926 3.199-3.502 5.304-3.502 4.677 0-2.998 5.712-18.686 9.687-26.609 6.253-12.46 14.435-20.282 23.813-22.762 1.65-.437 6.825-.638 11.5-.447 6.099.248 10.441 1.085 15.369 2.961m326.231.014c2.831 2.831 3.4 4.133 3.4 7.777 0 2.429-.726 5.415-1.631 6.706-.897 1.281-3.086 2.936-4.864 3.679-9.007 3.764-17.317-5.833-12.975-14.983.953-2.009 2.911-4.293 4.351-5.076 4.452-2.419 7.973-1.849 11.719 1.897m57.323 1.677c1.692 1.692 3.147 4.055 3.233 5.25.359 5.017-.386 7.324-3.205 9.923-2.097 1.934-4.046 2.75-6.567 2.75-2.743 0-4.382-.798-6.984-3.4-2.74-2.74-3.4-4.181-3.4-7.423 0-2.87.743-4.906 2.589-7.1 2.158-2.564 3.311-3.077 6.923-3.077 3.506 0 4.922.588 7.411 3.077m-27.673 3.904c2.053 2.278 2.75 4.085 2.75 7.135 0 3.311-.643 4.727-3.4 7.484-2.58 2.58-4.25 3.4-6.923 3.4-4.372 0-9.267-3.857-10.182-8.024-.966-4.397 1.21-9.817 4.858-12.101 4.307-2.697 9.302-1.881 12.897 2.106m-305.481 16.299c7.717 2.71 15.331 8.075 20.89 14.72 6.523 7.799 15.841 26.22 20.738 41 3.645 11 11.639 40.283 11.553 42.318-.078 1.837-6.656-11.58-18.544-37.818-5.98-13.2-12.68-26.7-14.889-30-2.389-3.568-6.651-7.985-10.517-10.898l-6.5-4.897-.621 30.685c-.342 16.877-.808 30.873-1.037 31.102s-2.124-9.801-4.212-22.288c-4.432-26.515-7.119-38.775-9.189-41.934-1.286-1.963-2.33-2.267-7.714-2.246-7 .026-14.53 2.677-22.075 7.769-2.559 1.727-4.652 2.781-4.652 2.342 0-1.326 14.229-14.579 18.324-17.067 2.103-1.277 5.703-2.938 8-3.689 4.975-1.628 14.432-1.211 20.445.901m636.313 11.31c2.781 6.241 5.591 17.156 9.373 36.41 2.987 15.208 6.671 39.341 6.482 42.458-.108 1.761-1.852-3.275-7.085-20.458-6.522-21.41-10.21-30.85-13.391-34.268l-2.575-2.768 1.498-8.232c.823-4.528 1.819-10.932 2.213-14.232.393-3.3.928-5.325 1.189-4.5.26.825 1.293 3.341 2.296 5.59m-915.307 67.759c-26.888 82.103-43.096 132.699-42.62 133.047.19.139 2.595 1.198 5.345 2.353s8.986 3.962 13.857 6.236 9.018 3.973 9.216 3.776c.787-.787 16.569-50.191 20.528-64.261 2.322-8.25 4.527-15.355 4.899-15.789.748-.871 1.994 37.137 1.998 60.923l.002 15.134 7.057 2.616c3.882 1.439 7.223 2.616 7.425 2.616.203 0 3.214-4.387 6.693-9.748s11.324-17.174 17.433-26.25c6.11-9.076 11.88-18.006 12.824-19.845s1.928-3.13 2.189-2.87c.43.431-3.984 20.29-14.682 66.064-2.167 9.268-3.939 16.997-3.939 17.177 0 .375 12.228 5.143 25.659 10.004l9.193 3.328 3.033-12.68c1.667-6.974 6.169-26.405 10.004-43.18 5.782-25.294 12.677-54.659 20.663-88 .725-3.025 1.009-5.809.633-6.186-.614-.615-16.975-8.176-27.887-12.888l-4.203-1.814-10.87 14.694c-5.979 8.082-15.787 21.607-21.798 30.056l-10.927 15.362-.738-18.862c-.407-10.374-1.02-28.676-1.363-40.671l-.624-21.81-11.638-5.548c-6.4-3.052-13.911-6.58-16.691-7.842l-5.055-2.293zM1813 1335.056c-1.925 1.012-9.912 4.865-17.75 8.563-7.838 3.697-14.25 6.792-14.25 6.878 0 .352-15.093 61.374-16.288 65.854l-1.294 4.851-3.736-17.851c-3.484-16.65-7.886-36.515-8.224-37.113-.163-.287-15.372 6.328-28.037 12.194l-8.079 3.743 2.188 9.662c10.775 47.565 17.376 78.406 24.023 112.245l4.829 24.582 7.559-2.79c7.629-2.816 28.252-11.017 28.92-11.501.199-.144-2.407-13.169-5.79-28.944-3.383-15.776-5.976-28.857-5.763-29.07.363-.364 44.477 44.758 45.808 46.856.339.534 9.03-4.08 19.313-10.252l18.696-11.223-2.813-2.964c-1.546-1.63-15.525-14.711-31.062-29.069s-28.25-26.423-28.25-26.811c0-.387 4.089-15.26 9.088-33.05s10.35-37.071 11.894-42.846c1.543-5.775 3.127-11.287 3.519-12.25s.327-1.701-.144-1.642-2.432.937-4.357 1.948m-132.199 52.943c-2.584.451-7.084 2.089-10 3.638-2.916 1.55-8.239 5.762-11.83 9.36-4.615 4.622-7.9 9.193-11.2 15.584-2.569 4.973-5.766 12.84-7.105 17.481s-2.966 13.163-3.615 18.938c-.88 7.842-.9 13.231-.077 21.285.606 5.932 2.227 15.157 3.602 20.5 3.356 13.035 10.87 28.163 17.614 35.46 9.976 10.793 22.035 15.677 35.586 14.411 8.855-.826 18.115-5.382 24.52-12.062 2.67-2.785 6.385-8.246 8.256-12.135 3.7-7.692 7.303-19.938 6.193-21.048-.381-.381-5.517-2.631-11.412-5.001l-10.72-4.308-2.414 7.656c-1.665 5.284-3.434 8.677-5.706 10.949-1.933 1.933-4.305 3.293-5.745 3.293-1.349 0-3.981-1.021-5.85-2.269-7.543-5.037-15.275-27.337-17.935-51.731-1.26-11.549-.697-21.442 1.72-30.245 2.047-7.455 5.065-10.755 9.835-10.755 4.326 0 6.901 1.217 11.217 5.302 1.779 1.684 3.407 2.867 3.617 2.63 1.157-1.307 14.641-24.136 14.605-24.727-.077-1.287-9.792-8.245-14.158-10.141-5.352-2.324-12.85-3.139-18.998-2.065m-1267.189 7.251c.201 2.338.833 12.8 1.405 23.25.571 10.45 1.75 28.675 2.62 40.5s1.645 27.8 1.722 35.5l.141 14-4.75 18.861c-2.613 10.374-4.75 19.425-4.75 20.115 0 .737 7.099 3.58 17.25 6.907 9.488 3.11 17.707 5.646 18.266 5.636.559-.011 3.422-11.157 6.363-24.769 4.162-19.271 6.024-25.968 8.411-30.25 1.686-3.025 13.133-22.315 25.437-42.867 12.304-20.553 22.237-37.491 22.072-37.642-.164-.15-5.229-2.986-11.256-6.301l-10.956-6.028-7.838 12.669c-4.31 6.968-11.98 19.605-17.043 28.082l-9.206 15.412-.221-5.912c-1.54-41.132-2.542-61.036-3.102-61.615-.734-.756-31.921-9.798-33.797-9.798-.725 0-1.002 1.534-.768 4.25m647.323 5.842c-1.211 1.7-3.042 5.79-4.068 9.089-1.312 4.215-1.846 8.869-1.797 15.658.039 5.314.406 10.517.817 11.562.64 1.633 1.109 1.281 3.318-2.5 4.87-8.333 6.01-12.181 6.538-22.066.525-9.824-.047-14.835-1.694-14.835-.502 0-1.903 1.391-3.114 3.092m544.579 19.583c-6.592 2.455-12.085 4.562-12.206 4.683s1.808 12.128 4.286 26.681c11.636 68.345 13.245 83.039 9.741 88.971-1.511 2.559-5.071 4.99-7.305 4.99-.482 0-2.254-1.159-3.937-2.575-1.959-1.648-3.614-4.437-4.598-7.75-.846-2.846-2.64-11.7-3.987-19.675-4.026-23.842-12.508-79.254-12.508-81.713 0-1.258-.338-2.291-.75-2.295-1.293-.014-33.712 10.275-34.487 10.945-.647.559 1.992 18.828 9.327 64.563 4.694 29.274 9.707 45.807 16.66 54.955 4.634 6.097 11.083 11.127 16.025 12.499 5.536 1.538 17.124 1.263 23.293-.552 7.443-2.19 16.22-7.688 20.299-12.715 4.664-5.749 8.159-13.049 9.664-20.187 1.993-9.451 1.456-25.189-1.467-43-5.242-31.945-13.581-75.775-15.247-80.144l-.817-2.143zm-674.014 12.81c-4.4.679-7.619 1.297-7.154 1.375.466.077 6.541 1.248 13.5 2.602 6.96 1.353 17.024 2.928 22.365 3.5 11.415 1.22 37.789 1.391 37.789.244 0-1.088-20.287-5.902-32.5-7.712-11.683-1.732-22.809-1.734-34-.009m-387.269 30.205a6913 6913 0 0 0-10.209 58.31c-2.755 16.225-6.108 35.8-7.451 43.5s-2.133 14.282-1.756 14.626c.936.855 62.218 19.179 62.645 18.731.605-.632 4.907-26.826 4.466-27.185-.234-.191-7.401-2.359-15.926-4.818l-15.5-4.472.307-3.941c.274-3.525 9.369-53.891 17.246-95.51 1.621-8.563 2.947-16.485 2.947-17.604 0-1.773-1.826-2.518-14.25-5.813a4119 4119 0 0 1-15.784-4.207c-1.272-.354-2.424 4.499-6.735 28.383m275.586-25.947c3.026 4.25 14.025 12.857 19.556 15.304 2.603 1.151 7.975 2.274 12.585 2.629 4.423.341 8.042.363 8.042.049s-3.106-2.636-6.902-5.16c-7.421-4.933-14.767-8.469-25.098-12.082-3.575-1.25-7.377-2.627-8.449-3.061l-1.948-.788zM1496 1450.392c-17.875 5.087-33.665 9.667-35.09 10.178l-2.589.93 7.241 54c11.646 86.852 12.161 90.557 12.659 91.054.261.261 5.605-1.093 11.876-3.008 6.272-1.915 13.944-4.189 17.049-5.054 4.386-1.222 5.561-1.955 5.268-3.283-.208-.94-1.966-13.409-3.906-27.709s-3.72-27.147-3.953-28.55l-.425-2.549 11.685-3.239a3234 3234 0 0 1 15.289-4.208l3.605-.968-1.855-12.159c-1.02-6.688-2.064-12.37-2.321-12.627s-7.116 1.358-15.244 3.589c-8.127 2.232-14.853 3.979-14.947 3.884-.48-.484-4.342-27.997-4.342-30.93v-3.41l18.75-5.327c10.313-2.93 19.012-5.46 19.333-5.622s-.212-5.603-1.182-12.09c-.971-6.487-1.795-11.906-1.833-12.044-.183-.671-4.929.566-35.068 9.142m-862.693 32.369c-4.506 12.506-10.954 30.164-14.33 39.239s-8.086 21.951-10.467 28.614-7.561 20.759-11.513 31.324-7.01 19.383-6.797 19.595c.213.213 6.379 1.59 13.702 3.06 10.366 2.081 13.486 2.397 14.085 1.427.424-.684 2.712-7.269 5.086-14.632 2.374-7.364 4.791-13.377 5.371-13.363 1.848.044 22.636 4.722 23.116 5.202.254.253.752 7.506 1.107 16.117.424 10.266 1.023 15.657 1.74 15.659.601.001 8.257 1.125 17.012 2.497 8.755 1.373 16.125 2.289 16.377 2.037s-.5-14.764-1.671-32.248c-2.124-31.717-5.872-98.67-6.247-111.625-.172-5.915-.48-6.942-2.288-7.629-2.588-.984-33.28-8.039-34.907-8.024-.651.005-4.87 10.243-9.376 22.75m726.969-4.31c-8.717 1.979-19.604 7.989-26.993 14.901-7.163 6.701-13.903 16.355-17.629 25.252-4.014 9.584-6.654 24.531-6.654 37.672 0 20.543 4.647 39.332 12.828 51.863 2.649 4.058 7.003 9.302 9.675 11.655s7.815 5.723 11.428 7.491l6.569 3.215h12c9.587 0 13.409-.443 19.008-2.205 7.984-2.513 17.733-8.879 22.977-15.007 1.966-2.296 4.7-6.635 6.077-9.643s3.009-9.245 3.627-13.86c.909-6.793.797-12.087-.587-27.809-.941-10.68-1.897-19.605-2.126-19.833-.513-.514-44.747 8.032-45.566 8.802-.529.498 1.69 23.013 2.327 23.608.145.135 3.283-.326 6.975-1.025s6.954-1.028 7.25-.732c.296.295.514 4.175.484 8.621-.096 14.17-4.4 20.916-13.345 20.916-6.115 0-10.618-3.586-14.547-11.588-3.663-7.458-5.586-16.122-7.129-32.105-.876-9.086-.862-14.115.062-21.5.664-5.302 2.16-12.554 3.325-16.116 1.529-4.677 3.378-7.78 6.653-11.166 3.179-3.287 5.654-4.897 8.278-5.384 2.059-.382 4.759-.429 6-.105 4.348 1.136 8.824 4.668 11.738 9.262l2.94 4.636 1.007-2.383c.553-1.311 3.463-8.143 6.465-15.181l5.46-12.797-4.032-2.921c-9.081-6.578-22.867-9.186-34.545-6.534m-628.11 3.022c-3.484.79-8.27 2.57-10.635 3.956-6.089 3.568-13.034 11.693-15.702 18.369-1.901 4.758-2.282 7.605-2.302 17.202l-.023 11.5 3.157 6.687c1.736 3.679 4.636 8.854 6.443 11.5 1.808 2.647 7.987 10.213 13.731 16.813s11.501 14.25 12.794 17 2.356 6.722 2.361 8.827c.008 2.94-.697 4.533-3.038 6.875-2.732 2.732-3.52 2.994-7.613 2.533-2.763-.312-6.197-1.658-8.702-3.411-3.035-2.125-5.245-5.053-8.298-10.993l-4.161-8.096-6.531 7.132a1873 1873 0 0 1-10.089 10.939c-1.957 2.093-3.558 4.14-3.558 4.55 0 1.423 8.923 12.996 13.198 17.117 2.366 2.281 6.582 5.456 9.37 7.056 5.924 3.401 15.768 5.935 23.133 5.956 11.631.033 22.7-4.097 29.972-11.184 2.295-2.236 5.414-6.819 6.931-10.184 5.209-11.55 4.187-28.164-2.553-41.515-3.703-7.337-10.613-16.52-21.504-28.579-4.62-5.115-9.559-11.586-10.974-14.379-2.965-5.851-3.404-12.947-1.024-16.578 2.052-3.132 6.708-4.965 10.623-4.182 1.739.348 4.576 1.712 6.305 3.031 3.454 2.634 9.523 13.134 9.523 16.475 0 1.16.337 2.096.75 2.078.413-.017 4.941-5.448 10.063-12.068l9.312-12.036-5.567-6.34c-3.062-3.488-7.655-7.724-10.207-9.415-10.37-6.869-23.354-9.318-35.185-6.636m52.43 22.658c-1.34 9.819-1.499 13.311-.633 13.846.636.393 5.968 1.499 11.847 2.456 5.88.957 10.756 1.813 10.836 1.903.26.291-5.449 68.477-7.706 92.028-1.846 19.265-1.974 23-.815 23.734.756.479 3.4.913 5.875.963 2.475.051 9.085.627 14.688 1.281l10.189 1.19.564-4.516c.31-2.484 1.242-13.066 2.071-23.516s1.942-24.175 2.474-30.5 1.703-21.625 2.602-34 1.727-22.605 1.84-22.733 5.125.373 11.139 1.114 11.205 1.197 11.537 1.014.912-4.509 1.288-9.614.942-11.543 1.257-14.308l.574-5.028-16.861-1.823c-9.274-1.002-25.862-2.901-36.862-4.219s-20.925-2.397-22.056-2.399l-2.057-.004zm491.654-9.844-13.25 2.052v5.524c0 3.038.459 11.624 1.019 19.08 1.173 15.593 2.837 47.426 2.5 47.827-.204.244-4.044-8.224-24.609-54.27-3.439-7.7-6.405-14.192-6.592-14.427s-8.209.414-17.828 1.442c-10.47 1.119-17.486 2.294-17.481 2.927.005.582.886 14.783 1.959 31.558a8022 8022 0 0 1 3.543 59.5c1.643 29.923 3.186 51.602 3.697 51.946.332.224 27.158-2.476 27.436-2.761.099-.102-.62-16.835-1.599-37.185s-1.675-37.127-1.547-37.282 2.618 5.02 5.534 11.5a1857 1857 0 0 0 10.134 22.083c2.659 5.665 4.834 10.463 4.834 10.663 0 .199 2.878 6.433 6.395 13.853l6.395 13.491 7.284-1.388c4.006-.764 11.591-2.117 16.855-3.008s9.73-1.77 9.925-1.953c.392-.37-1.095-25.993-3.336-57.459-5.705-80.114-6.221-86.105-7.397-85.882-.341.064-6.584 1.041-13.871 2.169M1170.5 1506.6c-17.708 1.704-20.501 2.208-20.498 3.695.002.663.663 10.655 1.47 22.205s2.595 40.575 3.972 64.5 2.777 45.89 3.11 48.812l.605 5.312 2.671-.515c1.468-.284 8.407-.816 15.42-1.182l12.75-.668.026-5.629c.055-11.992-3.169-131.807-3.629-134.88-.268-1.787-.805-3.193-1.192-3.124-.388.069-7.005.732-14.705 1.474m-255.25.067-5.25.438v8.697c.001 7.812-.705 25.246-4.004 98.96-.548 12.244-.996 24.957-.996 28.25V1649h34.688l.656-15.159c.361-8.337.656-19.075.656-23.86s.286-10.79.636-13.341l.636-4.64H973v-24.767l-2.25-.603c-1.237-.331-8.212-.609-15.5-.616L942 1566l.005-5.75c.002-3.162.297-10.83.655-17.04l.65-11.29 19.256.29 19.256.29.578-3.5c.318-1.925.583-7.662.589-12.75L983 1507h-19.343c-10.639 0-24.701-.173-31.25-.385-6.549-.211-14.269-.188-17.157.052m-263.761 53.101c-.25.35-13.461-2.434-15.781-3.326-.986-.379-1.585-1.195-1.332-1.815s3.701-11.027 7.661-23.127 7.484-22.45 7.832-23 .896 10.7 1.221 25c.324 14.3.504 26.12.399 26.268M997 1508.731l-5.5.353.57 71.708c.314 39.439.652 71.82.75 71.958.099.138 15.255.25 33.68.25h33.5v-26h-33.743l-.482-8.25c-.265-4.537-.258-31.312.015-59.5l.497-51.25-11.893.189c-6.542.104-14.369.348-17.394.542m120.155 2.519c-.551 1.787-4.936 16.187-9.745 31.999-4.81 15.812-8.831 28.637-8.936 28.5s-4.805-14.05-10.444-30.918l-10.253-30.669-3.138.399c-1.727.22-9.886 1.118-18.133 1.996-8.246.879-15.145 1.749-15.331 1.934-.185.186.102 1.164.639 2.173 1.193 2.244 18.377 48.287 24.198 64.836 2.321 6.6 5.607 15.375 7.301 19.5l3.081 7.5.618 23.732c.34 13.052.814 23.914 1.053 24.137s8.985-.106 19.435-.731l19-1.138-.265-10.5c-.145-5.775-.528-16.125-.849-23l-.585-12.5 3.555-12c9.343-31.536 16.368-54.525 22.155-72.5 2.036-6.325 3.914-12.218 4.172-13.095.396-1.347-.963-1.696-8.761-2.25-5.076-.36-11.15-.655-13.498-.655h-4.269z"/></svg>