<svg xmlns="http://www.w3.org/2000/svg" viewBox="0 0 2048 2048"><path fill-rule="evenodd" d="M992.74 239.464c-5.918.672-10.938 1.406-11.155 1.629-.218.224.018 7.382.524 15.907s.849 37.325.762 64l-.157 48.5h29.786l.27-21.75c.148-11.962.649-21.75 1.113-21.75s1.977 2.587 3.361 5.75 5.367 12.275 8.849 20.25 7.301 15.473 8.486 16.661c2.547 2.557 10.993 3.906 18.165 2.902 6.365-.892 15.256-3.437 15.256-4.368 0-.412-1.851-3.212-4.113-6.222-5.134-6.832-9.799-15.92-16.407-31.961l-5.144-12.488 6.668-6.512c4.036-3.941 7.709-8.684 9.304-12.012 3.691-7.704 5.135-18.135 3.749-27.074-.604-3.89-2.169-9.187-3.478-11.77-3.021-5.962-11.166-13.616-17.32-16.277-11.238-4.858-26.419-5.927-48.519-3.415m75.26 2.762c0 .675 5.622 18.401 12.493 39.391l12.494 38.165-2.119 25.683c-1.209 14.651-1.743 26.041-1.244 26.516 1.173 1.116 31.558 3.251 32.46 2.281.39-.419 1.611-12.759 2.713-27.423l2.004-26.66 5.797-9.84c13.496-22.905 18.094-30.574 26.218-43.72l8.578-13.881-2.117-1.715c-1.595-1.291-4.918-1.867-13.448-2.332-9.976-.543-11.484-.412-12.629 1.096-.715.942-5.665 10.564-11 21.381s-9.929 19.705-10.21 19.75c-.28.045-2.977-10.047-5.992-22.428-3.83-15.723-5.938-22.645-6.991-22.961-2.836-.849-30.097-4.529-33.555-4.529-2.059 0-3.452.495-3.452 1.226m-159 .27c-.825.194-6.562 1.123-12.75 2.063S885 246.695 885 247.214c0 .52.455 5.072 1.011 10.116s1.909 23.57 3.008 41.17c3.912 62.707 4.922 75.841 5.906 76.825.662.662 5.602.61 14.729-.157 7.553-.635 14.068-1.495 14.479-1.911s.343-3.907-.15-7.757c-1.495-11.682-2.387-35.5-1.33-35.5.527 0 5.693 9.113 11.482 20.25 7.164 13.785 11.297 20.668 12.944 21.558 4.887 2.641 29.286-.354 31.454-3.861.294-.476-.979-2.572-2.828-4.657-5.673-6.392-9.348-12.453-17.618-29.054l-7.948-15.954 6.216-6.391c9.019-9.275 12.57-17.87 12.621-30.552.03-7.627-2.841-17.135-7.027-23.268-1.745-2.558-5.429-6.32-8.185-8.359-7.6-5.623-13.089-6.992-29.264-7.302-7.7-.147-14.675-.109-15.5.086m-88.7 8.309c-10.964 3.909-19.056 11.783-25.323 24.641-2.305 4.732-4.603 11.513-5.569 16.439-1.269 6.475-1.524 11.83-1.12 23.5.367 10.573 1.131 17.392 2.543 22.692 5.078 19.058 12.782 32.695 22.143 39.196 7.623 5.294 14.334 7.054 24.928 6.539 6.491-.316 9.975-1.051 14.218-3.001 3.091-1.42 7.555-4.321 9.92-6.446 5.674-5.1 11.332-13.968 13.969-21.891 2.814-8.456 4.984-22.168 4.981-31.474-.001-4.125-.676-12-1.5-17.5-2.736-18.266-8.251-31.579-17.156-41.42-3.734-4.126-7.495-7.019-12.031-9.252-5.717-2.814-7.817-3.291-15.701-3.563-6.942-.239-10.336.126-14.302 1.54m395.343 14.47c-.896 12.751-12.134 90.474-15.141 104.725-1.335 6.325-2.71 12.468-3.055 13.651-.518 1.773-.129 2.252 2.212 2.728 1.563.318 14.928 2.221 29.701 4.231 22.485 3.057 27.004 3.427 27.743 2.271.987-1.545 5.897-17.102 5.897-18.685 0-.974-3.28-1.645-22-4.499-4.675-.712-8.429-1.723-8.342-2.246l3.797-22.951c8.171-49.397 11.672-68.312 13.743-74.261 1.356-3.896 1.825-6.613 1.241-7.191-.517-.512-7.464-2.091-15.439-3.509s-15.67-2.816-17.099-3.105l-2.599-.527zM778 259.127c-1.925.52-6.502 1.832-10.172 2.915-7.324 2.16-7.065 1.771-8.3 12.458-.826 7.141-5.528 62.192-5.528 64.721 0 1.162-.268 1.844-.596 1.517s-1.65-4.116-2.938-8.417l-6.84-22.821c-2.474-8.25-6.292-21.003-8.485-28.34s-4.195-13.548-4.449-13.801c-.493-.493-11.39 2.115-26.491 6.34-5.542 1.551-9.123 3.046-8.863 3.701.24.605 3.459 8.498 7.154 17.541l6.718 16.441-2.162 20.059c-2.35 21.799-3.013 25.932-3.779 23.559-.267-.825-4.497-12.663-9.4-26.306s-10.72-30.068-12.926-36.5c-2.207-6.432-4.392-12.307-4.856-13.057-.687-1.108-4.053-.468-17.966 3.416-9.417 2.629-17.121 5.293-17.121 5.921 0 .627 3.421 8.764 7.602 18.083 7.378 16.445 23.424 54.562 36.492 86.69 5.292 13.01 6.754 15.742 8.406 15.715 2.348-.039 22.31-5.438 23.128-6.256.69-.691 2.838-16.083 5.183-37.147l1.775-15.94 8.387 24.242c4.612 13.334 8.803 24.5 9.311 24.815.509.314 6.515-1.142 13.347-3.236 10.104-3.096 12.504-4.193 12.858-5.874.24-1.136 1.353-9.266 2.474-18.066 7.913-62.101 14.137-109.341 14.657-111.25.481-1.765.211-2.231-1.253-2.16-1.027.05-3.442.516-5.367 1.037m245.037 2.893c1.076.576 2.965 2.944 4.198 5.263 1.811 3.408 2.243 5.848 2.253 12.717.01 7.082-.405 9.334-2.488 13.499-2.792 5.582-7.803 9.501-12.148 9.501H1012v-43.272l4.54.622c2.498.343 5.421 1.094 6.497 1.67m-91.918 5.787c1.531 1.713 3.286 4.984 3.901 7.269 1.62 6.013 1.352 17.097-.52 21.578-.877 2.1-2.557 4.842-3.733 6.094-1.997 2.126-9.421 4.931-10.417 3.935-.504-.504-2.052-20.576-2.626-34.042l-.377-8.86 5.495.456c4.587.38 5.954.97 8.277 3.57m-94.817 4.216c5.961 4.688 10.363 25.625 12.191 57.977.69 12.212-.726 25.002-3.246 29.317-2.268 3.883-6.228 5.276-9.962 3.505-8.481-4.024-15.199-35.987-14.004-66.631.294-7.53 1.063-15.436 1.709-17.569 1.456-4.806 5.142-8.622 8.33-8.622 1.326 0 3.567.91 4.982 2.023m474.633 6.7c-1.276 3.177-6.783 15.902-12.238 28.277a9280 9280 0 0 0-16.217 37c-3.464 7.975-10.108 22.921-14.766 33.213l-8.468 18.713 3.127.973c9.139 2.843 15.728 4.276 17.149 3.731.878-.337 3.668-5.004 6.2-10.371s5.217-10.71 5.966-11.872l1.363-2.114 12.614 2.591 12.614 2.591-.546 13.795-.546 13.795 2.801 1.449c3.595 1.859 27.262 6.684 28.101 5.729.349-.398 1.184-18.948 1.854-41.223s1.799-51.75 2.507-65.5c.707-13.75 1.233-25.064 1.168-25.143s-8.443-2.465-18.618-5.303-19.23-5.373-20.123-5.634c-1.209-.353-2.214.999-3.942 5.303m76.016 21.027c-1.645 7.939-7.904 29.22-15.062 51.211-8.672 26.638-10.873 35.974-10.856 46.039.011 6.596.538 9.772 2.35 14.178 1.285 3.124 3.758 7.475 5.496 9.669 3.813 4.814 10.442 9.346 18.016 12.315 4.308 1.69 7.808 2.214 15.123 2.268l9.517.07 6.68-3.287c8.122-3.996 13.621-9.934 18.204-19.656 1.829-3.881 6.138-15.157 9.575-25.057 7.846-22.601 19.153-53.479 21.909-59.833 1.153-2.658 2.097-5.447 2.097-6.197 0-.863-4.582-2.855-12.457-5.417-6.852-2.229-13.357-4.053-14.455-4.053-1.526 0-2.15.885-2.646 3.75-1.072 6.2-6.221 27.652-9.993 41.628-4.852 17.984-12.064 40.207-14.779 45.544-3.053 6.001-6.662 8.543-11.838 8.337-2.992-.12-4.912-.919-6.994-2.914-3.367-3.226-5.089-8.699-4.235-13.46 2.138-11.918 20.337-66.725 27.27-82.125l3.034-6.739-1.834-.982c-2.126-1.138-30.949-11.039-32.136-11.039-.437 0-1.331 2.587-1.986 5.75m-817.006 6.349L534 319.657c-12.227 4.612-15.238 6.185-14.647 7.652.265.655 1.876 5.241 3.58 10.191s3.443 9.542 3.864 10.205c.568.894 3.516.249 11.404-2.496 5.852-2.036 10.816-3.479 11.033-3.206.519.655 17.972 55.908 25.968 82.214l6.298 20.718 2-.573c7.568-2.169 28.21-9.741 29.156-10.696.877-.884.309-3.225-2.344-9.666-4.934-11.977-9.737-25.935-15.313-44.5-4.699-15.646-12.313-42.434-13.527-47.593l-.61-2.593 10.592-3.774 10.593-3.774-.508-3.133c-2.123-13.108-3.857-21.711-4.449-22.077-.385-.238-12.6 4.056-27.145 9.543m751.29 10.651c-.74 18.889-2.139 41.488-2.598 41.946-.422.423-16.546-2.572-17.437-3.238-.165-.124 3.944-9.84 9.13-21.591s9.695-22.155 10.019-23.117.724-1.75.889-1.75.164 3.488-.003 7.75M502 319.949c-3.575 2.127-7.576 5.019-8.892 6.425l-2.392 2.557 2.56 7.285C498.424 350.87 506 378.263 506 382.227c0 .975.249 1.773.553 1.773s3.68-2.494 7.5-5.543c5.747-4.585 6.947-6.047 6.947-8.465 0-8.498-6.713-46.074-9.211-51.556-.611-1.34-1.6-2.418-2.2-2.396-.599.022-4.014 1.781-7.589 3.909m978.383 9.652.658 5.6-9.645 26.15c-7.777 21.083-19.227 53.251-29.833 83.818l-1.273 3.669 7.105 2.573c3.908 1.415 8.475 2.839 10.15 3.165l3.046.592 5.846-16.334a6407 6407 0 0 0 12.151-34.334c3.468-9.9 6.329-17.26 6.358-16.356.03.904.5 6.079 1.045 11.5s2.114 23.088 3.487 39.26 2.614 29.51 2.759 29.641c.951.859 20.291 9.455 21.273 9.455 1.363 0 4.19-6.05 10.748-23 19.192-49.6 33.527-85.565 36.846-92.446 1.047-2.17 1.565-4.261 1.15-4.645-1.373-1.273-17.899-9.909-18.962-9.909-1.012 0-5.235 10.609-18.708 47-3.563 9.625-6.503 16.435-6.531 15.134-.106-4.754-5.061-67.739-5.598-71.156l-.554-3.521-14.7-5.737c-8.086-3.155-15.325-5.733-16.089-5.728-1.096.006-1.249 1.184-.729 5.609M466 345.495c-5.956 2.717-9.385 4.832-9.191 5.67.17.734 3.599 8.76 7.621 17.835 10.198 23.015 19.79 46.114 19.336 46.568-.21.209-4.631-3.497-9.824-8.238-17.621-16.084-46.094-40.826-48.03-41.736-1.48-.696-4.773.499-14.17 5.143-6.733 3.327-13.142 6.745-14.242 7.594l-2 1.544 4.694 4.813c3.562 3.651 5.89 7.586 9.652 16.312 2.727 6.325 6.414 14.65 8.194 18.5s5.595 12.4 8.478 19 10.245 22.958 16.362 36.351S454 499.607 454 500.101c0 1.82 3.709.759 12-3.435 5.145-2.602 8.436-4.865 8.337-5.733-.156-1.374-10.127-23.023-24.047-52.209-3.614-7.577-6.327-14.02-6.029-14.318s12.173 9.675 26.39 22.162 28.18 24.474 31.03 26.636l5.181 3.932 10.646-5.186c5.855-2.853 10.873-5.779 11.151-6.503.415-1.081-20.222-50.481-44.887-107.447-2.738-6.325-5.481-12.738-6.095-14.25s-1.354-2.714-1.646-2.669-4.806 2.031-10.031 4.414m1109.63 22.755c-.331 1.238-.609 3.483-.616 4.991-.013 2.535-17.213 44.314-37.365 90.759l-8.461 19.5 3.156 2.793c5.035 4.455 17.757 11.52 25.465 14.142 3.903 1.328 10.543 2.936 14.755 3.575 17.779 2.695 33.761-2.927 46.936-16.51 12.569-12.959 23.5-39.712 23.5-57.516 0-3.237-.505-8.27-1.121-11.185-1.525-7.206-6.117-17.108-10.83-23.35-2.146-2.843-6.731-7.295-10.187-9.894-7.537-5.665-20.952-12.222-33.669-16.456-5.119-1.705-9.679-3.099-10.133-3.099-.455 0-1.098 1.012-1.43 2.25m35.646 35.892c1.074 1.453 2.31 4.593 2.746 6.979.872 4.77-.23 13.413-2.638 20.685-2.545 7.685-11.018 24.874-15.824 32.104-4.949 7.444-13.078 15.576-17.098 17.104-3.141 1.195-10.466 1.27-12.269.127-1.002-.636 1.376-6.989 10.194-27.235 6.325-14.523 13.821-31.581 16.658-37.906s5.854-13.184 6.705-15.243l1.548-3.743 4.012 2.243c2.207 1.234 4.892 3.432 5.966 4.885m-1262.99-2.746c-6.562 2.136-12.424 5.975-17.639 11.55-5.092 5.444-8.495 12.111-10.747 21.054-1.828 7.261-1.573 24.676.488 33.345.895 3.764 3.441 11.483 5.658 17.153 7.839 20.05 24.893 41.406 38.582 48.315 3.37 1.701 9.075 3.635 12.678 4.299 4.849.894 8.223.93 12.988.141 3.54-.587 9.084-2.316 12.321-3.843 7.457-3.517 16.234-12.221 19.575-19.41 4.163-8.958 5.151-15.056 4.524-27.916-.397-8.125-1.343-14.272-3.168-20.584-3.364-11.637-11.932-28.943-19.323-39.031-3.211-4.383-8.512-10.358-11.781-13.278-3.268-2.92-9.267-6.957-13.33-8.97l-7.388-3.661-9.612-.269c-6.135-.171-11.136.229-13.826 1.105M979.5 403.98c-18.569 2.641-27.09 4.149-28.555 5.054-1.003.62-.785 2.151 1.014 7.128 1.26 3.486 3.521 9.073 5.024 12.415l2.734 6.076-4.608 2.419c-2.535 1.33-8.253 6.02-12.707 10.423-6.254 6.182-9.019 9.861-12.141 16.153-5.236 10.552-7.049 20.121-5.513 29.091.612 3.572 2.178 8.647 3.481 11.279l2.368 4.785-1.884 6.348c-1.185 3.995-2.083 10.984-2.421 18.849-.42 9.765-.173 13.921 1.127 18.994.915 3.571 4.085 11.027 7.044 16.567s6.105 12.743 6.993 16.006 1.874 10.883 2.192 16.933c.481 9.128.147 13.468-1.963 25.5-1.398 7.975-2.823 17.2-3.167 20.5-.768 7.371.768 21.408 3.471 31.723 1.113 4.247 4.07 13.022 6.57 19.5 5.324 13.792 26.784 58.008 31.434 64.767 3.803 5.527 13.104 12.639 19.752 15.103 2.615.969 4.843 1.807 4.95 1.863s.626 2.017 1.152 4.359l.957 4.259-7.152 3.69c-10.81 5.577-24.174 11.083-33.652 13.863l-8.5 2.493-19.5-.665c-20.742-.708-30.023.056-44.5 3.664-4.4 1.096-12.248 4.045-17.44 6.552-7.566 3.654-10.841 5.979-16.5 11.715-3.883 3.936-9.172 9.673-11.753 12.749l-4.693 5.594-8.807 2.744c-4.844 1.51-10.382 3.556-12.307 4.548s-6.777 4.768-10.782 8.391c-4.006 3.623-11.882 9.673-17.503 13.444-11.976 8.035-29.132 18.04-38.246 22.305l-6.438 3.013-14.765.314c-10.127.215-16.494.838-20.266 1.982-3.025.918-9.678 4.172-14.785 7.231l-9.285 5.563-9.715-.535c-6.198-.342-15.145-1.868-24.715-4.218-12.188-2.991-17.531-3.78-28.5-4.204-12.05-.467-14.186-.291-19.887 1.641-7.191 2.438-13.596 6.33-23.113 14.046-3.575 2.898-8.075 5.938-10 6.756s-7.773 2.348-12.997 3.399c-5.223 1.051-11.312 2.79-13.532 3.865-2.219 1.074-6.626 4.263-9.793 7.085l-5.758 5.132-14.71-1.241c-8.897-.75-22.81-1.04-35.21-.733-18.079.447-21.59.813-29.729 3.1-5.076 1.426-11.996 3.99-15.377 5.696-7.259 3.665-14.598 10.253-18.915 16.98-1.707 2.66-4.438 8.301-6.068 12.535-1.631 4.234-3.827 8.909-4.88 10.389-1.188 1.668-6.63 5.02-14.326 8.824-10.379 5.129-13.319 7.114-17.962 12.13-7.208 7.785-9.121 13.299-9.053 26.089.057 10.83 2.52 25.294 5.478 32.17 1.241 2.884 4.564 7.114 8.672 11.039 3.663 3.501 8.141 7.499 9.951 8.885l3.29 2.52-2.438 7.943c-1.342 4.369-2.963 10.191-3.603 12.939-1.336 5.735-3.173 9.798-9.499 21.004-3.986 7.061-4.512 8.704-4.484 14 .017 3.3.74 7.8 1.606 10s1.949 9.235 2.406 15.634c.538 7.524 1.702 14.412 3.296 19.5 1.355 4.326 3.228 11.016 4.162 14.866s3.428 10.646 5.543 15.103c2.732 5.758 5.938 10.345 11.078 15.848 3.978 4.26 10.522 9.964 14.542 12.677 4.021 2.713 7.312 5.257 7.315 5.652s1.591 8.145 3.527 17.22a8328 8328 0 0 1 7.06 33.491c1.946 9.346 4.698 19.921 6.116 23.5 1.419 3.58 4.18 8.984 6.136 12.009 4.888 7.558 16.159 18.524 25.156 24.474 18.075 11.954 47.423 24.491 80 34.175 30.659 9.113 69.635 16.773 108.5 21.322 29.066 3.403 66.459 5.99 96.585 6.684 15.903.367 28.915.809 28.915.983 0 .175-4.725 9.766-10.5 21.315s-10.5 21.394-10.5 21.878 3.487 2.025 7.75 3.423l7.75 2.543 2.5-2.857c1.375-1.571 8.089-12.324 14.921-23.894 6.831-11.571 12.521-20.927 12.644-20.792s-3.547 11.496-8.157 25.246-8.387 25.062-8.395 25.137c-.025.262 27.549 5.376 38.987 7.231 10 1.621 11.652 1.676 12.669.418.643-.795 3.566-8.165 6.496-16.378 2.93-8.212 5.48-14.472 5.667-13.912.187.561-1.049 7.061-2.746 14.445S851 1497.945 851 1499.263v2.395l13.75 1.705c7.563.937 15.437 1.954 17.5 2.259 3.261.482 3.869.249 4.664-1.784.504-1.286 2.842-9.188 5.196-17.559s4.431-15.071 4.615-14.887-.77 7.934-2.121 17.222c-1.352 9.287-2.153 17.171-1.781 17.519s4.277.931 8.677 1.295l8 .663 5.306-27.296c2.919-15.012 6.528-32.468 8.022-38.791l2.715-11.496 10.978-2.121c6.039-1.167 11.244-1.844 11.567-1.504.323.339-.451 10.517-1.72 22.617-2.482 23.649-4.03 58.272-2.689 60.15.452.632 2.388 1.307 4.304 1.5l3.482.35 5.664-33.734c6.012-35.809 7.335-42.394 8.994-44.775.739-1.061.869.601.451 5.759-.323 3.987-.287 7.25.082 7.25 1.071 0 24.522-12.565 38.513-20.635 7.062-4.073 20.286-12.122 29.387-17.886s16.801-10.479 17.111-10.479.294 2.362-.036 5.25c-.983 8.597-2.912 82.493-2.226 85.228.603 2.403 2.925 3.416 3.966 1.73.511-.826 1.635-12.365 6.641-68.208l3.003-33.5 3.242-2.792 3.243-2.791.286 3.291c.158 1.811.608 9.142 1 16.292l.714 13h4l1.13-11c.621-6.05 1.448-15.349 1.837-20.664l.707-9.665 9.781-8.534 9.782-8.533 3.2 14.698c2.752 12.645 11.078 62.401 18.105 108.198 2.908 18.95 2.618 18 5.486 18h2.489l-.522-5.25c-2.178-21.884-5.015-46.118-7.988-68.25-1.921-14.3-5.145-38.391-7.163-53.537l-3.67-27.536 1.778-2.714c.978-1.492 2.361-2.713 3.074-2.713 2.719 0 7.292 12.671 14.943 41.401 2.475 9.296 4.713 17.114 4.972 17.374s1.224.184 2.142-.169c1.353-.518 1.564-1.54 1.113-5.373-2.313-19.644-4.98-52.282-4.325-52.934 1.501-1.496 4.585 3.857 7.512 13.038 5.795 18.182 10.578 40.143 17.673 81.139 2.472 14.286 4.895 26.375 5.383 26.863 1.743 1.743 3.061-.535 3.061-5.291 0-12.194-6.479-61.462-12.499-95.048-1.922-10.725-3.496-19.838-3.498-20.25s4.442-.75 9.874-.75h9.877l1.999 4.75c4.561 10.834 13.463 42.265 18.623 65.75 4.635 21.095 10.933 54.382 13.769 72.776 1.379 8.944 2.689 14.623 3.317 14.39.571-.211 5.426-1.205 10.788-2.209l9.75-1.824v-2.706c0-1.488-.702-6.404-1.559-10.924s-1.389-8.388-1.182-8.595 1.634 4.003 3.171 9.357 3.081 10.236 3.432 10.849c.447.78 4.76.153 14.4-2.095 7.569-1.765 13.976-3.424 14.239-3.687s-1.77-8.087-4.517-17.387-4.856-17.329-4.686-17.84c.274-.821 12.018 23.835 14.646 30.748.554 1.456 1.58 2.636 2.281 2.623 2.508-.047 30.996-7.637 35.005-9.326l2.729-1.15-4.326-10.005c-7.867-18.194-26.093-53.174-35.329-67.806-1.347-2.133-2.244-4.082-1.995-4.331.806-.806 17.667 18.778 27.674 32.142 9.413 12.571 18.633 26.271 26.414 39.25 2.062 3.438 4.016 6.25 4.345 6.25s3.919-1.236 7.98-2.746c5.967-2.219 7.293-3.09 6.913-4.54-.989-3.785-11.575-21.856-21.793-37.204-5.862-8.806-10.532-16.14-10.377-16.3.154-.159 2.987.463 6.295 1.383 8.109 2.254 12.287 1.387 16.203-3.364 1.676-2.033 5.037-8.429 7.469-14.213 5.007-11.904 16.304-45.514 17.216-51.217.525-3.282.221-4.117-2.379-6.531-1.639-1.522-6.533-4.649-10.875-6.947-16.08-8.512-34.048-14.563-52.881-17.809-4.942-.852-17.64-2.43-28.217-3.508s-21.295-2.478-23.819-3.114c-5.717-1.44-10.477-5.945-10.477-9.917 0-2.215 1.074-3.744 4.686-6.673 12.743-10.333 17.988-16.28 24.07-27.294l3.034-5.493 7.33-1.228c10.957-1.834 20.601-5.045 26.513-8.827 8.904-5.696 22.332-24.437 31.451-43.895 7.77-16.582 16.097-42.463 22.992-71.467 2.17-9.128 4.381-17.609 4.914-18.846s1.479-2.25 2.104-2.25 5.724-2.213 11.332-4.918c7.842-3.782 11.974-6.578 17.898-12.111 12.055-11.258 17.173-22.192 20.269-43.303 1.884-12.85 1.377-19.869-1.961-27.159-1.262-2.755-5.261-8.563-8.888-12.907l-6.593-7.898-2.069-8.602c-1.138-4.731-3.652-17.377-5.586-28.102-6.73-37.32-11.003-53.845-17.456-67.5-7.47-15.808-18.464-28.38-32.024-36.623-7.007-4.26-18.245-7.928-33.493-10.932-6.037-1.189-17.512-4.31-25.5-6.936-24.219-7.96-62.689-25.034-75.369-33.45-5.139-3.412-16.213-14.333-15.379-15.167.197-.197 1.903.108 3.791.678 1.889.57 8.159 1.04 13.934 1.046 7.768.007 12.581-.565 18.5-2.197 4.4-1.214 12.05-2.534 17-2.935 9.852-.797 16.872-3.089 24.556-8.02 6.826-4.38 15.072-13.749 18.843-21.411 1.724-3.501 3.892-9.438 4.819-13.193 1.302-5.278 2.377-7.386 4.733-9.284 15.475-12.469 22.549-28.163 22.549-50.026 0-10.69-1.445-18.831-4.712-26.55-2.14-5.058-7.743-14.069-11.24-18.078-2.253-2.583-2.879-4.657-3.892-12.9-1.403-11.417-5.039-23.063-9.265-29.674-5.629-8.807-16.563-17.158-25.182-19.234-1.535-.37-2.529-1.097-2.208-1.616.32-.518 1.266-4.667 2.1-9.22.872-4.753 1.504-13.814 1.486-21.278-.052-21.529-4.618-37.762-15.12-53.759-5.701-8.683-17.098-21.159-25.325-27.72l-5.616-4.479 4.38-4.521c2.408-2.487 5.129-6.012 6.045-7.835.916-1.822 1.527-4.747 1.358-6.5-.262-2.702-1.032-3.531-5.071-5.461-6.258-2.989-31.489-11.351-44.738-14.826-9.156-2.401-12.292-2.745-24.5-2.684-9.532.047-16.553.638-22 1.85-4.4.979-8.9 1.763-10 1.741s-6.05-1.049-11-2.283c-6.968-1.737-12.588-2.317-24.889-2.568l-15.888-.324-5.662-3.018c-3.113-1.659-9.914-4.483-15.111-6.274l-9.45-3.258-18.5-.225c-13.663-.166-21.899.259-31.5 1.624m49.04 8.546c6.643 1.701 20.669 8.125 24.351 11.154l2.392 1.967-1.786 2.085-1.785 2.086-4.606-1.398c-2.533-.769-5.622-1.403-6.864-1.409-2.009-.01-2.121-.232-1.008-2.014.923-1.477.965-2.463.16-3.75-.6-.961-2.172-2.35-3.493-3.088-1.847-1.032-3.061-1.086-5.259-.234-2.506.971-2.808 1.527-2.458 4.524l.399 3.418-3.042-.684c-1.672-.376-10.016-.661-18.541-.633-13.823.044-16.628.356-25.927 2.889l-10.428 2.841-1.905-2.353c-2.743-3.387-7.06-10.941-6.546-11.454.24-.241 6.932-1.531 14.871-2.868 10.684-1.799 18.473-2.453 29.975-2.518 10.912-.061 17.315.367 21.5 1.439m-21.29.979c-1.237.884-2.25 2.278-2.25 3.097 0 2.516 4.692 6.398 7.732 6.398 3.592 0 7.268-2.546 7.268-5.034 0-2.245-3.368-4.699-7.552-5.504-1.893-.363-3.754.01-5.198 1.043m662.847 1.678c-1.392 3.57-51.481 105.739-55.842 113.905-.287.539 25.759 14.912 27.023 14.912.304 0 4.678-7.987 9.719-17.75s9.579-18.178 10.085-18.7c.578-.598 1.324-.544 2.016.148.793.793.82 7.529.099 24.182l-1 23.084 3.151 3.374c1.734 1.856 4.308 4.113 5.721 5.015s6.406 3.147 11.095 4.987l8.526 3.347.645-22.093c.354-12.152.934-25.504 1.287-29.671l.642-7.577 5.618-1.167c8.331-1.731 17.523-6.49 22.575-11.688 2.46-2.531 5.951-7.607 7.758-11.281l3.285-6.679V461.5l-3.098-6.5c-1.703-3.575-5.143-8.998-7.642-12.051s-7.985-7.929-12.188-10.834c-6.836-4.726-30.521-16.839-36.321-18.576-1.763-.528-2.445-.173-3.154 1.644M979.408 416.5l-1.638 2.5 1.673 2.554c.921 1.404 2.323 2.803 3.118 3.108 2.502.96 6.492-.634 7.364-2.942.855-2.264-.249-5.569-2.325-6.955-.605-.404-2.327-.741-3.827-.75-1.816-.01-3.274.82-4.365 2.485m-619.306 7.785c1.869 1.257 5.873 5.745 8.898 9.974 6.957 9.726 19.376 33.645 25.55 49.211 3.392 8.551 4.879 13.836 5.206 18.5.393 5.614.151 6.916-1.722 9.28-1.727 2.18-3.01 2.75-6.187 2.75-3.55 0-4.658-.656-9.715-5.75-7.214-7.268-13.404-16.631-21.026-31.804-9.844-19.597-15.689-40.002-13.713-47.876.889-3.544 4.095-6.57 6.959-6.57 1.294 0 3.881 1.028 5.75 2.285m793.43 2.48c.568.404 1.018 2.524 1 4.71-.028 3.426.375 4.172 2.911 5.397 2.545 1.23 3.288 1.229 5.5-.006 1.902-1.063 2.636-2.381 2.867-5.147.171-2.046.399-3.719.507-3.719.109 0 4.019 1.08 8.69 2.4 13.281 3.753 16.529 5.139 16.211 6.92-.198 1.105 1.005 1.932 4 2.75 2.355.644 5.795 1.618 7.645 2.165l3.362.994-7.862 7.968c-9.645 9.773-24.981 22.293-32.76 26.744l-5.797 3.317-5.953-1.803c-3.274-.991-11.604-5.053-18.511-9.027-10.238-5.89-12.169-7.348-10.452-7.893 1.158-.368 2.389-1.796 2.735-3.175 1.379-5.498-3.783-9.951-8.568-7.391-1.171.627-2.382 2.405-2.691 3.952l-.563 2.812-4.934-3.321c-2.714-1.827-6.72-4.324-8.902-5.551-2.182-1.226-3.967-2.596-3.967-3.045s1.264-.816 2.809-.816c3.674 0 6.502-2.138 6.041-4.566-.236-1.246-1.342-2.047-3.109-2.25-1.507-.174-2.741-.694-2.741-1.155 0-.803 8.204-6.029 9.463-6.029.334 0 .095.957-.531 2.126-.83 1.552-.843 2.774-.047 4.521 2.516 5.523 11.276 4.795 11.94-.993.383-3.34-2.199-6.64-5.23-6.684-3.499-.051.167-1.54 6.905-2.805 3.3-.62 6.9-1.308 8-1.53 3.597-.725 20.974-.623 22.032.13m-65.302 1.898c2.348.914 4.431 1.788 4.628 1.941.265.206-4.21 8.211-7.338 13.126-.239.375-14.696-4.345-18.838-6.15l-3.817-1.663 1.872-3.206c1.03-1.764 2.973-3.763 4.318-4.444 3.508-1.776 14.163-1.556 19.175.396m-16.03 1.537c-.66.66-1.2 2.209-1.2 3.443 0 2.433 3.384 5.357 6.199 5.357.965 0 2.492-1.125 3.393-2.5l1.638-2.5-1.638-2.5c-1.096-1.673-2.556-2.5-4.415-2.5-1.527 0-3.317.54-3.977 1.2m61.357 10.023c-.856 1.222-1.557 2.943-1.557 3.825 0 2.193 4.183 5.952 6.623 5.952 2.566 0 5.009-1.937 5.794-4.593.398-1.348-.126-3.038-1.472-4.75-2.664-3.386-7.174-3.595-9.388-.434m563.107 7.511c1.19.761 2.933 3.004 3.873 4.986 1.229 2.59 1.559 5.064 1.173 8.804-.954 9.239-8.662 21.304-15.412 24.125-3.807 1.591-9.131 1.745-12.747.37l-2.58-.98 10.005-19.992c10.665-21.31 10.215-20.812 15.688-17.313M969.543 452.6c1.326.333 4.452.443 6.948.244 3.743-.298 4.425-.097 3.895 1.148-.354.829-.862 2.515-1.129 3.746-.835 3.848 3.006 4.007 12.597.521 3.104-1.128-1.467 3.147-8.368 7.827-6.717 4.555-9.454 8.453-9.526 13.565l-.04 2.849-1.632-3c-.897-1.65-2.16-4.777-2.805-6.948s-1.679-4.117-2.298-4.324-1.965 1.007-2.992 2.695-2.165 2.771-2.53 2.407c-.365-.365-.663-2.838-.663-5.497 0-4.166-.276-4.833-2-4.833-1.1 0-3.775 1.775-5.945 3.945-2.601 2.601-4.474 5.728-5.5 9.181-.855 2.881-1.587 6.168-1.625 7.306l-.071 2.068-.859-2c-.473-1.1-.887-4.475-.92-7.5-.073-6.607 2.997-13.866 8.387-19.832 2.015-2.23 5.996-5.22 8.848-6.646l5.185-2.593.316 2.533c.213 1.703 1.106 2.731 2.727 3.138m201.521-2.72c-2.864 5.352.275 10.5 6.061 9.94 2.38-.23 3.742-1.088 4.838-3.05l1.525-2.73-1.674-2.77c-1.309-2.166-2.546-2.836-5.679-3.074-3.166-.241-4.23.113-5.071 1.684m-161.076 10.142c-.645 1.206-.794 2.566-.331 3.023.464.457 5.036-.262 10.161-1.596s13.113-2.791 17.75-3.236l8.432-.81v3.776c0 2.979.558 4.141 2.646 5.508l2.646 1.734 4.876-2.723 4.876-2.722-.602 2.399-.602 2.399 12.86-.522c10.336-.419 14.033-.184 18.83 1.196 16.51 4.751 31.006 16.018 36.006 27.983 2.519 6.031 1.58 7.305-1.468 1.99-3.891-6.784-12.819-14.808-18.711-16.815-7.12-2.426-7.697-2.246-6.891 2.144l.688 3.75-3.327-3.598c-1.83-1.979-4.877-4.398-6.771-5.376-2.82-1.456-5.123-1.69-12.7-1.294-7.366.385-10.378 1.033-14.754 3.174-6.35 3.107-9.602 7.514-9.602 13.012 0 2.025.708 5.051 1.574 6.725.865 1.673 1.361 3.256 1.101 3.516-.614.613-4.938-5.173-7.218-9.659-1.004-1.974-1.985-6.668-2.251-10.764l-.471-7.264-2.387-.599c-3.189-.801-7.846 1.242-10.78 4.729l-2.392 2.842-1.059-3.038c-1.359-3.899-4.89-6.83-8.278-6.873-1.786-.022-3.538 1.009-5.328 3.136-2.381 2.83-2.632 3.847-2.339 9.502.18 3.483.063 6.332-.261 6.331-1.326-.005-2.943-5.498-3.554-12.073-.358-3.846-.994-7.204-1.413-7.464-2.578-1.593-7.315 4.434-8.744 11.124l-.835 3.911-1.291-5.289c-1.018-4.165-1.041-6.289-.108-10 .652-2.591 2.328-6.212 3.725-8.046 2.421-3.178 8.294-7.514 9.094-6.714.207.208-.151 1.365-.797 2.571m737.646-1.318c-.291.988-1.689 12.596-3.106 25.796s-3.24 29.941-4.052 37.202-1.476 14.817-1.476 16.791c0 1.973-.855 4.807-1.901 6.297-1.045 1.491-7.542 11.911-14.437 23.156-6.895 11.246-12.332 20.778-12.082 21.183.676 1.095 27.16 18.872 28.107 18.867.447-.003 5.052-7.09 10.233-15.75 17.07-28.535 18.3-30.366 21.991-32.729 8.358-5.353 38.591-23.789 50.868-31.02 7.304-4.302 13.154-8.158 13-8.571-.153-.412-5.17-5.049-11.148-10.304l-10.87-9.554-4.13 2.884c-2.272 1.586-11.331 8.275-20.131 14.864s-16.122 11.463-16.272 10.832 1.776-11.495 4.278-24.141c3.756-18.986 4.313-23.169 3.195-24-.745-.554-6.87-5.282-13.612-10.507s-13.533-10.308-15.092-11.296l-2.833-1.796zm-1487.525.813c-2.965.833-7.336 2.374-9.712 3.426-10.105 4.47-30.613 19.754-36.532 27.227l-3.244 4.096 4.131 3.617c3.124 2.736 10.431 14.457 29.996 48.117 14.226 24.475 27.622 47.763 29.769 51.75 2.902 5.389 4.427 7.244 5.943 7.226 2.857-.033 12.604-4.168 19.181-8.136 7.544-4.552 20.448-16.705 26.005-24.492 2.518-3.529 5.702-9.647 7.075-13.597 3.102-8.919 3.959-20.236 2.308-30.476-1.544-9.573-4.898-19.14-10.615-30.275-8.782-17.104-23.381-31.975-36.363-37.041-7.292-2.845-20.514-3.527-27.942-1.442m887.546 2.312c-2.225 2.459-2.087 5.739.345 8.171 2.496 2.496 6.173 2.571 8.345.171 2.09-2.31 2.132-6.551.084-8.6-2.122-2.121-6.744-1.986-8.774.258m43.505 18.921c2.387 3.712 4.47 7.029 4.63 7.369.159.34-.869.397-2.285.127-5.268-1.007-8.59 5.792-4.85 9.925 2.36 2.608 7.825 2.409 9.762-.356l1.53-2.184 2.505 5.665c7.089 16.028 12.888 37.324 14.387 52.829l.748 7.742-2.308 1.052c-1.27.578-2.824 2.183-3.454 3.566-.853 1.872-.858 3.147-.02 4.987.62 1.36 2.205 2.743 3.522 3.074l2.395.601-.486 7.177c-.756 11.162-4.651 25.054-9.281 33.099-4.52 7.854-7.735 12.13-8.525 11.34-.899-.898 1.823-10.224 3.229-11.063 1.667-.994 1.769-7.872.141-9.5-1.591-1.591-5.282-1.529-6.643.111-.679.818-1.007 5.8-.873 13.25.133 7.353-.211 12.66-.895 13.816-.893 1.51-1.245.038-1.796-7.5-1.446-19.793-5.391-38.156-13.214-61.497-7.983-23.821-17.478-44.549-29.033-63.38-3.543-5.775-7.204-11.593-8.135-12.93l-1.694-2.429 1.992.632c1.095.348 4.466 1.553 7.491 2.679 3.486 1.297 7.548 1.985 11.092 1.88 3.823-.115 6.344.36 7.972 1.5 1.31.918 3.039 1.668 3.844 1.668 2.188 0 6.092-4.066 6.092-6.346 0-1.098-.696-2.766-1.548-3.707l-1.547-1.71 4.797-4.112c2.639-2.262 5.095-4.115 5.458-4.119s2.614 3.032 5 6.744m-920.768 5.297c9.042 5.385 28.313 35.187 34.67 53.618 2.672 7.747 3.489 16.136 2.008 20.622-1.203 3.645-6.579 9.751-8.51 9.666-1.036-.045-2.755-2.778-18.523-29.453-4.226-7.15-12.747-21.55-18.935-32-7.896-13.334-10.99-19.42-10.375-20.409.482-.775 2.428-2.265 4.325-3.311 4.327-2.386 9.99-1.918 15.34 1.267m959.637 18.517c3.739 5.72 9.011 18.91 8.938 22.361-.026 1.204-.475 1.045-1.911-.675-1.032-1.237-2.099-2.25-2.372-2.25s-.328 3.712-.124 8.25c.203 4.538.151 7.35-.117 6.25-2.943-12.085-4.334-16.196-7.952-23.5-2.315-4.675-5.009-10.975-5.987-14s-2.616-7.17-3.641-9.21-1.846-4.066-1.825-4.5c.07-1.441 10.962 11.11 14.991 17.274m-66.67-2.014c-1.993 1.993-2.403 3.14-1.874 5.245.372 1.481 1.145 3.259 1.718 3.949 1.462 1.763 7.294 1.566 8.841-.297.709-.855 1.289-2.95 1.289-4.656 0-2.022-.793-3.745-2.277-4.947-1.253-1.014-2.923-1.844-3.712-1.844s-2.583 1.148-3.985 2.55m-99.85 8.465c1.267 2.05 7.893 3.985 13.645 3.985 6.476 0 16.048 2.791 22.346 6.516 5.045 2.984 10.147 7.608 15.333 13.896 3.203 3.882 3.938 5.482 3.509 7.628-.638 3.189 2.393 10.635 6.225 15.292 1.433 1.742 4.223 4.405 6.198 5.918s2.949 2.736 2.163 2.719c-.785-.017-3.659-1.124-6.386-2.459-2.726-1.336-5.146-2.239-5.378-2.007-.851.851 2.041 10.123 4.444 14.246 1.361 2.337 5.102 7.208 8.312 10.824 6.805 7.666 7.212 9.291 6.362 25.393-.719 13.64.587 19.545 5.342 24.154 3.136 3.04 4.063 3.38 9.208 3.38 4.96 0 6.655-.565 12.754-4.25 3.869-2.337 8.19-4.25 9.602-4.25 4.764 0 6.19 4.282 4.767 14.315-.536 3.778-2.32 10.091-3.966 14.027-3.716 8.892-11.098 18.813-16.894 22.706-3.204 2.151-5.584 2.952-8.778 2.952-2.41 0-5.997-.675-7.971-1.5s-4.187-1.5-4.917-1.5c-2.223 0-12.394 23.394-10.832 24.914.331.322 2.425-1.439 4.653-3.914l4.051-4.5-.711 3.5c-.39 1.925-1.125 9.125-1.631 16-1.574 21.354 1.7 45.151 9.644 70.116l1.469 4.617-2.179 5.824c-1.199 3.204-3.703 8.424-5.565 11.601-4.47 7.626-16.626 23.78-23.772 31.588l-5.716 6.246-9.67 2.968c-5.319 1.633-14.428 4.145-20.243 5.583s-12.327 3.599-14.47 4.801c-3.708 2.08-7.52 6.926-6.361 8.086.299.298 3.887-.386 7.974-1.521 9.101-2.526 30.282-6.89 30.823-6.349 1.445 1.445-37.001 40.452-70.92 71.954-28.313 26.297-32.03 29.569-32.947 29.002-1.402-.867-5.076-16.145-6.557-27.27-1.864-14.01-1.853-37.214.026-51.546 1.925-14.685 5.767-29.764 8.98-35.247 1.393-2.377 3.922-5.312 5.62-6.521 4.04-2.876 10.983-3.711 13.117-1.577 1.024 1.024 1.829 4.465 2.306 9.859.403 4.557 1.08 9.186 1.505 10.286l.771 2 1.172-2.997c2.517-6.435 4.005-15.402 4.019-24.216l.015-9.212 6.037-4.1c10.178-6.912 22.826-18.051 37.006-32.589 14.067-14.422 26.235-28.816 36.677-43.386 6.324-8.824 13.975-22 12.775-22-.379 0-3.682 2.745-7.342 6.1-9.101 8.345-22.187 16.916-36.583 23.959-22.653 11.083-42.538 15.916-57.582 13.997-4.119-.525-9.482-1.662-11.919-2.525-4.672-1.655-10.334-5.431-13.402-8.937-1.685-1.926-13.964-26.411-24.118-48.094-5.513-11.774-10.943-26.038-13.705-36-1.714-6.183-2.223-10.726-2.239-20-.012-7.324.622-15.117 1.628-20 .907-4.4 2.163-11.248 2.793-15.217l1.144-7.218 2.665 1.694c1.466.932 2.996 2.155 3.4 2.718s.741.706.75.319c.008-.387 2.359.382 5.223 1.709s5.421 2.199 5.681 1.939c.261-.261-.957-1.951-2.707-3.757-1.75-1.805-3.182-3.996-3.182-4.868s.788-1.864 1.75-2.203c.962-.34 2.313-.879 3-1.2.89-.415 1.25.579 1.25 3.445 0 2.77.724 4.869 2.317 6.722 2.048 2.38 3.212 2.751 9.979 3.186 8.097.519 13.704-.868 13.704-3.39 0-1.558.203-1.622 2.418-.772 3.365 1.291 1.04 14.705-4.883 28.176-1.959 4.457-3.829 9.438-4.156 11.07-.876 4.382 1.327 9.821 5.165 12.748 1.86 1.419 5.198 2.823 7.419 3.121 3.499.469 4.037.286 4.037-1.373 0-1.053-2.475-4.896-5.5-8.54-3.292-3.966-5.5-7.588-5.5-9.022 0-1.317 1.368-4.552 3.04-7.189 3.933-6.202 7.611-17.355 8.477-25.703.411-3.965.214-8.961-.493-12.5-.648-3.242-3.141-9.98-5.539-14.973-3.486-7.254-5.667-10.298-10.857-15.153-8.066-7.546-15.096-10.526-25.171-10.669-5.186-.074-7.756.367-9.75 1.673L955 570.046v-5.472c0-7.617 3.645-25.792 6.733-33.574 3.469-8.742 5.184-11.249 7.165-10.472.881.346 5.202 1.287 9.602 2.093 9.69 1.773 20.524 1.178 39-2.143 7.15-1.285 17.95-3.073 24-3.974 12.762-1.9 17.682-3.247 18.8-5.145.947-1.61 2.335-1.758 3.209-.344m125.146.814c-1.716 1.895-2.169 5.855-.89 7.771.404.605 1.804 1.664 3.11 2.352 2.027 1.069 2.759.966 5-.7 1.444-1.074 2.758-2.834 2.919-3.911.413-2.747-3.474-7.341-6.212-7.341-1.249 0-3.017.823-3.927 1.829m-245.375 5.725c1.198.46 1.019 1.607-1.052 6.733-2.915 7.217-3.916 16.567-2.372 22.157.6 2.169.883 4.15.63 4.403-1.082 1.083-3.798-7.887-4.253-14.049-.352-4.77.003-8.229 1.231-12 1.518-4.658 3.16-7.798 4.077-7.798.162 0 .945.249 1.739.554M1179.2 535.2c-1.822 1.822-1.447 7.266.629 9.145 1.006.91 2.736 1.655 3.845 1.655 4.399 0 7.267-6.956 4.329-10.497-1.492-1.797-7.115-1.991-8.803-.303m23.045 9.05c-3.623 4.529-1.478 10.75 3.707 10.75 1.598 0 3.612-.707 4.477-1.571 2.121-2.122 1.986-6.744-.258-8.774-2.159-1.954-6.509-2.176-7.926-.405m-464.603 16.5c-.285 1.513-.797 5.45-1.138 8.75-1.155 11.172-3.55 23.442-5.433 27.834-5.058 11.8-15.245 17.556-37.462 21.169-8.57 1.393-10.459 1.981-9.489 2.951.25.249 4.699.969 9.888 1.6 5.188.631 12.166 1.991 15.505 3.023 11.36 3.508 18.74 10.204 22.175 20.118.82 2.368 2.525 11.416 3.788 20.108 1.264 8.692 2.563 16.069 2.887 16.393.925.925 1.439-1.358 3.106-13.782 2.651-19.753 5.866-29.182 12.065-35.381 1.924-1.924 4.75-4.146 6.281-4.938 4.907-2.537 15.447-5.472 23.935-6.665 4.538-.638 8.25-1.558 8.25-2.045a.895.895 0 0 0-.901-.885c-.495 0-6.071-.884-12.391-1.964-12.334-2.109-20.236-5.055-25.507-9.509-6.585-5.564-10.113-16.367-12.349-37.813-.671-6.443-1.552-11.714-1.957-11.714s-.969 1.237-1.253 2.75m452.013 9.079c-2.09 2.31-2.132 6.551-.084 8.6.865.864 2.633 1.571 3.929 1.571 3.156 0 5.5-2.522 5.5-5.916 0-3.174-2.714-6.084-5.674-6.084-1.109 0-2.761.823-3.671 1.829M1062 574.966c-4.675 1.004-9.72 2.304-11.21 2.89-4.128 1.621-6.79 4.805-6.79 8.121 0 2.08.761 3.476 2.526 4.632 3.527 2.311 9.002 1.371 21.603-3.71 6.747-2.72 12.5-4.34 16.569-4.667 5.309-.426 7.017-.115 11.518 2.099 2.906 1.43 7.52 4.457 10.254 6.726 2.862 2.377 5.132 3.636 5.354 2.971.708-2.124-5.331-10.449-10.356-14.276-2.732-2.081-7.187-4.451-9.9-5.268-6.555-1.973-19.088-1.769-29.568.482m-91.147 2.482c5.29 1.866 15.373 8.725 20.789 14.142 4.346 4.345 10.382 14.943 10.328 18.131-.027 1.577-.156 1.552-1.132-.221-1.977-3.59-7.258-8.634-11.129-10.629-2.084-1.074-6.359-2.33-9.5-2.79l-5.709-.837 5.282-.122c2.905-.067 6.898.553 8.872 1.378s3.787 1.5 4.027 1.5.13-.497-.245-1.104c-.376-.607-2.54-1.948-4.809-2.978-5.093-2.313-13.172-2.45-21.167-.36-3.278.858-7.398 1.292-9.157.965l-3.196-.594-.306-4.714c-.169-2.593.234-5.885.894-7.315 1.286-2.784 6.449-5.84 9.929-5.877 1.169-.013 3.971.629 6.229 1.425m233.22 8.187c-1.14 1.449-2.073 3.188-2.073 3.865 0 2.167 4.078 6.5 6.118 6.5 2.501 0 6.882-4.317 6.882-6.78s-4.071-6.22-6.742-6.22c-1.162 0-3.046 1.186-4.185 2.635m50.205 7.368c5.685 2.127 9.473 5.474 12.108 10.697 2.183 4.329 2.107 5.634-.255 4.37-1.027-.55-2.132-.736-2.455-.413s.538 2.806 1.913 5.518c3.484 6.875 4.733 14.412 3.392 20.461-.593 2.675-2.188 6.552-3.544 8.614-2.866 4.359-4.886 5.061-3.412 1.185 1.476-3.882 1.171-11.711-.552-14.171-.883-1.26-2.149-1.942-3-1.615-.926.355-1.473-.04-1.473-1.063 0-.896-2.362-4.051-5.25-7.011-5.387-5.523-9.558-7.437-16.75-7.684l-3.5-.121 4-.827c2.2-.455 6.561-.854 9.691-.885s5.935-.454 6.234-.937c.835-1.351-4.434-6.121-6.761-6.121-3.473 0-.456-1.969 4.246-2.772 2.346-.4 4.274-1.178 4.283-1.728.038-2.126-5.505-4.957-11.953-6.107l-6.74-1.201 7.212-.096c4.965-.066 8.881.528 12.566 1.907m167.273 7.247c-1.475 17.214-4.593 28.183-10.042 35.327-1.337 1.753-4.387 4.334-6.778 5.735-4.737 2.776-15.791 5.835-28.017 7.753-4.499.705-7.638 1.662-7.437 2.266.192.575 5.72 1.819 12.286 2.765 13.124 1.891 20.373 4.228 25.691 8.284 4.386 3.345 9.264 12.395 11.172 20.723.805 3.518 2.001 11.234 2.656 17.147 1.138 10.263 2.355 13.368 3.331 8.5.248-1.237 1.187-7.363 2.086-13.612 1.946-13.524 4.506-22.259 8.037-27.427 5.532-8.097 15.374-12.598 32.546-14.884 4.905-.653 8.918-1.526 8.918-1.94 0-1.012-1.926-1.526-12.448-3.326-12.577-2.151-20.596-5.051-25.448-9.204-2.295-1.964-5.079-5.347-6.186-7.518-3.015-5.91-5.759-18.135-6.528-29.089-.467-6.646-1.075-9.75-1.908-9.75-.809 0-1.464 2.798-1.931 8.25m-351.051-2.469c-1.65.155-4.69 1.012-6.755 1.905-3.736 1.614-6.667 5.326-13.185 16.695l-2.798 4.881 3.163-.464c1.74-.256 3.395-.09 3.678.369s1.276.819 2.206.801l1.691-.032-1.79-1.357-1.79-1.358 5.04-3.101 5.04-3.102.022 2.241c.012 1.233.878 4.127 1.925 6.432 1.609 3.545 2.569 4.374 6.228 5.377 2.379.653 6.817 1.242 9.862 1.309 3.979.088 6.371-.428 8.5-1.835 1.63-1.077 3.99-1.83 5.246-1.674 3.349.416 10.671-4.278 13.104-8.401 1.162-1.97 2.113-3.829 2.113-4.133s-1.135-.266-2.522.082c-1.768.444-2.697.177-3.107-.891-.322-.839-1.122-1.525-1.779-1.525s-4.029-1.842-7.493-4.093-7.941-4.779-9.949-5.619c-4.113-1.72-12.145-2.929-16.65-2.507m7 3.134c2.453.554 1.775.798-3.722 1.341-6.595.651-11.552 2.471-15.028 5.52-1.017.891-1.75 1.071-1.75.43 0-1.662 6.032-5.904 10-7.031 4.044-1.149 6.317-1.206 10.5-.26m-333.922 10.618c1.76 2.218 4.825 4.907 6.811 5.977 3.496 1.883 4.688 3.49 2.589 3.49-2.121 0-10.365 8.674-12.234 12.872l-1.945 4.372-2.471-4.372c-3.348-5.925-6.715-9.292-11.411-11.409l-3.936-1.775 3.76-1.712c4.866-2.217 10.911-8.373 12.48-12.709l1.234-3.414.962 2.323c.529 1.278 2.401 4.139 4.161 6.357M981 610c0 .55-.198 1-.441 1s-.719-.45-1.059-1-.141-1 .441-1 1.059.45 1.059 1m93 7c0 .55-.45 1-1 1s-1-.45-1-1 .45-1 1-1 1 .45 1 1m352.822 23.021c1.887 3.035 4.899 6.1 7.618 7.75 4.545 2.758 5.667 4.229 3.227 4.229-2.379 0-8.599 6.367-11.505 11.777l-2.834 5.276-1.812-4.017c-2.344-5.198-9.223-12.01-12.878-12.751-2.555-.518-2.662-.684-1-1.55 5.479-2.856 9.757-6.566 12.561-10.892 1.726-2.664 3.22-4.843 3.32-4.843s1.587 2.259 3.303 5.021m-265.622 2.222-2.3 1.107.627 5.075c.562 4.552.312 5.539-2.432 9.575-1.682 2.475-3.067 5.077-3.077 5.781-.052 3.685 6.35 1.702 11.11-3.442 3.821-4.128 4.872-6.653 4.872-11.702 0-6.763-3.202-9.09-8.8-6.394m118.498 22.12c.476 4.612.832 5.442 1.943 4.52 1.081-.897 1.355-.643 1.337 1.245-.035 3.83-3.439 10.084-7.728 14.197l-3.987 3.825.484 4.294c.291 2.589.041 4.569-.632 4.985-.709.438-1.115-.242-1.115-1.87 0-2.983-3.187-6.559-5.845-6.559-1.015 0-2.613.848-3.551 1.885l-1.705 1.885-3.7-1.786c-6.859-3.311-15.642-5.337-23.457-5.411-6.47-.061-7.661-.322-7.176-1.573.32-.825.65-1.725.732-2 .083-.275-1.131-3.094-2.698-6.265s-3.072-7.895-3.344-10.5l-.495-4.735 2.912 5.482c3.316 6.24 9.383 11.368 15.619 13.2 2.314.679 7.604 1.216 11.756 1.193 5.949-.034 8.754-.595 13.244-2.651 3.132-1.434 6.87-3.871 8.305-5.416 3.519-3.788 6.403-9.629 6.403-12.968 0-1.926.314-2.426 1.058-1.682.581.581 1.319 3.599 1.64 6.705m-262.161-.422c-.406.656-.58 1.303-.387 1.438s1.925.74 3.85 1.343 4.961 1.686 6.746 2.405c2.81 1.133 3.465 1.091 4.866-.31l1.619-1.619-2.538-1.664c-3.258-2.134-13.135-3.246-14.156-1.593M536 673.193c0 .326-.675 7.054-1.5 14.95-1.987 19.013-4.074 29.057-7.577 36.464-1.681 3.553-4.806 7.874-7.476 10.335-8.161 7.522-17.727 10.783-44.197 15.066-7.241 1.171-9.249 2.543-5 3.416 1.238.254 6.746.984 12.242 1.622 11.918 1.383 22.79 4.037 28.526 6.963 6.606 3.37 12.743 9.696 15.894 16.384 3.482 7.39 5.387 15.76 7.649 33.607 1.539 12.139 2.583 16.219 3.824 14.933.23-.238 1.168-6.733 2.084-14.433 1.959-16.463 4.741-30.052 7.102-34.688 3.087-6.058 8.333-12.483 12.383-15.163 5.739-3.798 17.468-7.474 29.305-9.184 13.181-1.905 14.943-2.33 14.259-3.437-.311-.502-2.692-1.195-5.291-1.541-24.276-3.228-35.876-6.665-42.666-12.643-2.526-2.223-5.687-5.91-7.025-8.193s-3.155-6.851-4.038-10.151-2.708-14.304-4.055-24.454c-1.348-10.149-2.898-18.901-3.447-19.45s-.996-.729-.996-.403m449.75 11.656c-5.689 1.344-6.75 1.926-6.75 3.699 0 2.148 3.786 6.452 5.676 6.452.613 0 1.258 3.706 1.556 8.943.428 7.504.99 9.797 3.488 14.25 2.504 4.462 4.015 5.841 9.487 8.659 5.384 2.772 7.96 3.442 14.901 3.874 18.149 1.129 29.069-4.171 41.924-20.346 4.852-6.107 5.992-7.056 7.004-5.837 1.794 2.162 5.635 1.765 7.407-.766.856-1.222 1.557-3.906 1.557-5.965 0-2.739-.811-4.666-3.026-7.188-1.664-1.895-4.364-3.913-6-4.483-1.635-.57-2.974-.813-2.974-.539s.687 1.825 1.526 3.448l1.525 2.95-5.775-.006c-3.42-.004-10.01-1.228-16.155-3-5.709-1.647-11.835-2.994-13.614-2.994s-5.532.436-8.34.968c-4.519.857-5.712.686-10.386-1.49-6.201-2.887-12.72-3.065-23.031-.629m17.75 13.165c3.3.552 10.275 1.215 15.5 1.475 20.067.998 28 1.729 28 2.581 0 1.487-4.199 3.687-10.475 5.488-6.849 1.965-21.842 2.282-28.03.591-4.646-1.269-10.06-5.654-10.987-8.899-.353-1.237-.5-2.247-.325-2.244.174.003 3.017.457 6.317 1.008m239.604 13.486c1.096 2.367 1.861 6.3 1.874 9.635.019 4.873.355 5.853 2.487 7.25 1.355.888 3.431 1.615 4.611 1.615h2.147l-.696 3.75c-.644 3.477-4.065 10.25-5.176 10.25-.267 0-.206-.883.137-1.962.778-2.452-1.053-6.038-3.083-6.038-.838 0-3.46 1.618-5.826 3.596s-7.369 5.256-11.119 7.285-6.988 4.202-7.196 4.828c-.209.625.659 1.319 1.928 1.542 2.077.364 1.936.572-1.41 2.077-7.313 3.289-16.163 1.458-23.7-4.904-3.792-3.2-9.082-10.972-9.082-13.342 0-1.076.457-.875 1.546.68.85 1.214 3.663 3.452 6.25 4.973 4.009 2.356 5.813 2.765 12.204 2.765 6.405 0 8.264-.424 12.73-2.898 6.145-3.405 11.581-10.682 13.344-17.864.66-2.686.982-8.682.74-13.753l-.43-8.992 2.934 2.754c1.614 1.514 3.768 4.553 4.786 6.753m-210.718 7.683c-.232.375-2.791 1.175-5.689 1.776-3.56.739-7.425.788-11.921.151-11.704-1.657-10.173-2.61 4.196-2.61 7.609 0 13.645.307 13.414.683m-487.783 21.8c2.091 2.314 5.96 5.44 8.597 6.946l4.794 2.738-4.902 3.177c-6.153 3.987-10.712 9.138-13.596 15.362l-2.241 4.836-2.69-5.498c-3.023-6.18-11.122-13.913-16.393-15.652l-3.365-1.111 4.846-2.78c6.624-3.799 11.88-9.145 14.955-15.214l2.578-5.088 1.808 4.038c.994 2.22 3.518 5.931 5.609 8.246m987.967 5.124c-.263.766-.967 5.893-1.566 11.393-1.495 13.731-3.635 25.113-6.039 32.112-1.112 3.238-3.587 8.248-5.5 11.132-6.417 9.677-17.394 14.824-40.965 19.208-6.6 1.227-12.403 2.615-12.895 3.084-1.106 1.056 1.058 1.507 14.163 2.951 5.648.623 12.848 1.79 16 2.594 8.597 2.193 17.771 7.039 21.231 11.214 4.089 4.936 7.673 12.667 9.476 20.442.811 3.498 2.381 13.495 3.488 22.216 1.107 8.72 2.243 16.086 2.525 16.368a.73.73 0 0 0 1.032-.007c.286-.286 1.422-6.774 2.526-14.417 4.126-28.571 8.169-39.737 17.463-48.231 3.236-2.957 7.728-5.859 10.918-7.053 2.981-1.115 11.642-3.227 19.247-4.692 7.604-1.465 14.417-2.831 15.139-3.035.723-.205 1.067-.772.765-1.26-.302-.489-4.043-1.202-8.314-1.585-18.418-1.653-32.887-6.592-41.132-14.041-2.19-1.979-5.135-6.321-6.93-10.22-3.289-7.144-5.305-16.913-7.54-36.535-1.302-11.437-2.114-14.493-3.092-11.638M658.766 766c-.304.825-1.086 5.289-1.737 9.92-.652 4.631-2.104 10.878-3.227 13.881-1.124 3.003-3.577 7.158-5.452 9.233s-5.308 4.665-7.629 5.755c-2.322 1.09-8.046 2.75-12.721 3.69s-8.851 2.04-9.279 2.444 3.397 1.483 8.5 2.397c5.445.976 11.858 2.931 15.521 4.73 8.38 4.118 10.729 8.177 13.396 23.143 2.868 16.097 2.891 16.189 3.761 15.202.433-.492 1.345-4.72 2.026-9.395 1.536-10.534 4.45-19.452 7.802-23.869 3.25-4.283 12.51-8.575 22.023-10.207 3.987-.685 7.25-1.567 7.25-1.961s-4.212-1.69-9.361-2.88c-5.686-1.313-11.465-3.423-14.721-5.373-4.206-2.518-5.964-4.395-8.161-8.71-1.539-3.025-3.477-9.1-4.306-13.5-2.736-14.526-3.12-16.035-3.685-14.5m516.325 41.083 8.054 9.417-.644 5.5c-.937 8.014-2.737 14.521-10.564 38.189-7.297 22.069-12.937 42.305-12.937 46.419 0 1.316-.249 2.392-.553 2.392s-4.44-2.534-9.19-5.63c-12.689-8.271-27.923-16.07-34.861-17.847-4.852-1.243-7.51-1.358-13.097-.565-3.855.546-7.862 1.302-8.904 1.678l-1.895.684 2.091-2.41c1.15-1.325 6.942-7.81 12.872-14.41 20.907-23.273 33.499-40.387 41.573-56.5 5.304-10.586 7.07-16.366 7.696-25.183l.545-7.684 5.88 8.266c3.234 4.547 9.504 12.505 13.934 17.684m366.14 4.429c2.49 2.757 6.665 6.08 9.279 7.386l4.751 2.373-3.16 1.328c-4.622 1.944-13.294 11.092-16.348 17.247l-2.653 5.345-2.144-4.562c-3.075-6.541-9.2-13.073-14.941-15.934l-4.964-2.474 3.146-1.302c4.662-1.932 14.08-11.715 16.689-17.338l2.283-4.919 1.768 3.919c.972 2.155 3.805 6.175 6.294 8.931m-873.901-1.586c1.728.64 1.565.938-1.498 2.745-1.89 1.116-4.138 3.477-4.995 5.247l-1.559 3.218-1.989-3.37c-1.093-1.854-3.472-4.089-5.285-4.967l-3.296-1.597 3.067-1.586c1.687-.872 4.026-2.932 5.197-4.577l2.131-2.992 3.144 3.581c1.729 1.97 4.016 3.904 5.083 4.298m299.033 16.769c-2.124 2.643-9.037 11.083-15.362 18.756C934.544 865.413 920 884.28 920 885.665c0 1.148 9.775 6.335 11.938 6.335 1.581 0 1.283 2.125-.772 5.5-1.005 1.65-2.956 5.025-4.335 7.5-8.901 15.97-10.974 20.186-10.512 21.388.285.743 5.842 5.95 12.35 11.571 13.609 11.754 36.472 27.279 49.13 33.361l8.701 4.18 11-.115c6.05-.064 17.75-1.115 26-2.336 15.016-2.223 72.139-12.135 81.488-14.14l4.967-1.065 4.678-7.672c6.835-11.209 21.052-33.291 23.221-36.066l1.872-2.394 11.079 5.644c6.093 3.104 11.989 5.644 13.102 5.644s2.437-.788 2.943-1.75 1.452-5.8 2.101-10.75c1.39-10.608 6.345-34.711 8.017-39 1.535-3.941 21.279-23.392 31.924-31.452l8.392-6.354 13.108 5.335c7.209 2.935 15.512 6.392 18.451 7.682l5.343 2.346-14.843 15.267c-20.53 21.117-35.679 41.277-50.852 67.676-8.767 15.254-12.802 23.658-18.962 39.5-5.061 13.013-7.938 22.397-13.494 44-4.986 19.389-5.954 22.5-6.999 22.5-.446 0-9.523-2.865-20.173-6.366s-25.213-7.85-32.363-9.663-13.336-3.581-13.747-3.93 3.67-7.138 9.067-15.088 11.021-16.518 12.497-19.041c2.718-4.647 3.444-7.912 1.76-7.912-2.732 0-13.21 11.944-28.375 32.342-4.817 6.479-6.211 7.752-8.016 7.324-2.979-.706-30.576-5.062-56.911-8.982l-21.724-3.233-5.389-6.534c-2.964-3.593-7.138-7.91-9.276-9.594-9.107-7.175-20.294-10.714-37.741-11.94l-9.765-.687-5.921-7.246c-6.782-8.3-14.033-15.001-18.627-17.215l-3.167-1.527 2.623-5.348c1.953-3.981 2.334-5.638 1.491-6.481-.842-.842-2.514.176-6.539 3.982l-5.407 5.114-7.916-2.629c-4.354-1.447-8.075-2.761-8.268-2.922-.192-.16.625-1.334 1.818-2.608 3.98-4.252 18.741-27.123 28.603-44.316 5.363-9.35 13.444-22.625 17.957-29.5 8.556-13.033 23.453-32.753 27.893-36.925 1.516-1.424 5.357-3.112 9.328-4.1 3.714-.924 6.915-1.546 7.114-1.382.199.163-1.376 2.46-3.499 5.102m18.303 12.428c-2.427 8.457-5.418 19.877-6.646 25.377l-2.233 10-7.714.156c-4.243.086-11.671.897-16.507 1.803-4.836.907-8.92 1.511-9.075 1.344-.33-.353 15.551-20.472 25.886-32.795 8.774-10.46 19.772-22.192 20.306-21.659.217.218-1.59 7.316-4.017 15.774M930 825.603c0 .332-2.083 2.919-4.628 5.75-6.41 7.129-17.386 23.997-22.775 35.001-3.763 7.684-9.167 19.977-14.902 33.896-.624 1.513-1.407 2.75-1.741 2.75-.696 0-.486-2.174 1.72-17.782.878-6.205 1.273-11.604.879-11.998-.889-.89-3.222 2.091-5.5 7.026-.951 2.06-2.027 3.447-2.391 3.083s-.662-5.231-.662-10.814c0-10.831 1.489-17.668 5.555-25.515 1.283-2.475 3.515-5.85 4.961-7.5l2.629-3-.611 2.5c-.336 1.375-1.494 5.834-2.572 9.91-2.151 8.123-2.436 11.09-1.066 11.09 1.325 0 5.756-5.339 13.368-16.105 3.72-5.262 8.35-11.42 10.288-13.684l3.524-4.118 6.212-.354c3.417-.194 6.549-.44 6.962-.546s.75.078.75.41m350.45 38.197c-.522.44-3.159 2.554-5.859 4.697s-4.44 4.053-3.868 4.244 8.239-1.425 17.037-3.591c13.551-3.336 16.715-3.803 20.7-3.059 5.478 1.024 14.671 5.742 19.206 9.857 5.365 4.87 11.669 13.223 15.507 20.552 6.178 11.796 10.503 28.835 16.31 64.25.834 5.088 1.517 10.464 1.517 11.947v2.695l-3.25-3.096c-3.931-3.745-15.331-11.153-18.314-11.901l-2.153-.541-.515-17.677c-.561-19.289-1.478-23.231-6.282-27.01-1.516-1.192-4.444-2.673-6.507-3.291l-3.75-1.124 2.421-3.569c1.333-1.963 2.294-4.222 2.136-5.02s-1.504-2.36-2.993-3.47c-1.998-1.49-4.753-2.137-10.525-2.471-8.998-.521-18.146 1.421-25.162 5.342-8.191 4.579-20.287 13.843-29.746 22.784-5.148 4.866-9.36 8.311-9.36 7.655s5.737-6.888 12.75-13.851c16.941-16.82 31.811-27.295 45.75-32.229 2.75-.973 5-2.334 5-3.024 0-2.053-8.901-5.867-15.239-6.53-7.367-.769-14.376 1.155-23.134 6.35-7.676 4.555-18.295 13.736-25.255 21.837-6.026 7.013-14.051 18.973-19.757 29.444-2.248 4.125-4.093 6.858-4.101 6.072-.023-2.348 5.917-17.88 10.935-28.591 2.582-5.51 6.298-12.527 8.259-15.592 6.932-10.836 19.432-22.502 32.728-30.545 3.432-2.075 7.497-3.214 5.514-1.544m-442.056 33.45c7.225 16.532 9.606 22.246 9.606 23.052 0 1.893-3.215-1.795-5.44-6.239-3.183-6.359-7.344-20.063-6.092-20.063.278 0 1.144 1.462 1.926 3.25m-34.942 19.584c-.157.183-5.023-1.729-10.813-4.25s-11.115-4.599-11.833-4.618 2.287-1.932 6.678-4.25l7.985-4.216 4.135 8.5c2.274 4.675 4.006 8.65 3.848 8.834m-30.977-.786c4.389.634 11.063 2.798 18 5.836 6.064 2.656 11.925 5.179 13.025 5.607s9.2 1.121 18 1.541c12.228.582 17.405 1.257 21.961 2.863 3.278 1.156 8.392 3.79 11.364 5.853a991 991 0 0 0 9.453 6.479c2.228 1.499 10.389 4.767 18.136 7.262 15.89 5.117 21.928 8.855 27.357 16.934 1.8 2.677 3.122 5.017 2.939 5.2-.622.622-19.146-4.663-33.71-9.616-23.115-7.862-25.735-8.389-42-8.452-12.499-.047-15.535.268-22 2.285-4.125 1.288-15.375 6.103-25 10.701s-21.55 9.675-26.5 11.283c-10.839 3.521-24.161 5.818-39.006 6.728l-11.007.674-8.104-5.583c-14.159-9.753-24.057-13.898-41.383-17.329l-4.5-.891 8.281-2.269c4.555-1.248 10.855-2.691 14-3.206 3.146-.515 12.95-.939 21.787-.942 17.993-.007 23.491-1.093 30.224-5.971 7.124-5.16 17.196-21.38 14.778-23.798-.341-.341-2.971 1.672-5.845 4.473-5.664 5.52-14.159 11.221-19.725 13.237-1.925.698-9.35 1.451-16.5 1.675s-16.73.546-21.29.716l-8.29.308 5.29-4.923c12.787-11.9 22.551-20.072 26.274-21.99 2.209-1.138 6.491-2.869 9.516-3.847 4.539-1.468 9.168-1.784 26.5-1.812 11.55-.019 24.139.419 27.975.974m-137.356 5.432c8.176 1.443 39.882 9.187 40.614 9.92.678.677-14.794 14.027-23.564 20.334-4.768 3.428-11.594 7.34-15.169 8.692-5.728 2.167-8.58 2.519-24 2.963-9.625.277-21.24 1.026-25.81 1.664s-8.498.972-8.727.744c-.55-.551 2.972-9.749 6.088-15.898 1.991-3.929 2.185-4.899.978-4.899-.828 0-6.148 3.15-11.823 7s-10.63 7-11.012 7-.694-1.35-.694-3-.44-3-.977-3-1.764 1.237-2.727 2.75-3.91 5.755-6.55 9.428c-4.754 6.612-6.682 7.899-15.473 10.327l-2.227.615 1.398-3.961c2.758-7.817 7.006-15.347 10.279-18.221 1.833-1.609 5.059-3.807 7.169-4.883 2.111-1.077 8.197-2.659 13.526-3.517 5.464-.879 11.768-2.612 14.454-3.973 2.621-1.328 8.258-5.383 12.526-9.01s9.567-7.517 11.775-8.643c7.813-3.986 16.945-4.728 29.946-2.432m824.504 14.77c-2.709 18.812-5.134 26.619-9.748 31.379-1.726 1.781-5.217 4.124-7.757 5.207s-8.331 2.796-12.868 3.807-8.25 2.103-8.25 2.425 3.713 1.152 8.25 1.844 10.391 2.177 13.007 3.299c2.617 1.123 6.058 3.523 7.648 5.333 4.023 4.582 7.067 13.314 8.45 24.236.646 5.103 1.618 9.153 2.159 9 .542-.154 1.711-4.604 2.598-9.888 1.729-10.309 4.932-18.457 9.27-23.586 2.976-3.519 10.806-6.884 19.618-8.432 3.025-.531 6.175-1.207 7-1.502s-3.258-1.737-9.074-3.204c-6.163-1.555-12.292-3.806-14.694-5.396-2.267-1.5-5.341-4.808-6.831-7.35-2.015-3.439-3.246-7.926-4.805-17.519-1.153-7.092-2.413-12.897-2.801-12.899-.387-.002-.915 1.458-1.172 3.246m-706.073 9.356c-3.273.791-7.889 2.574-10.258 3.963-4.744 2.78-7.86 6.704-6.749 8.5 1.273 2.06 10.531.488 17.457-2.965 7.508-3.743 11-6.688 11-9.278 0-1.346-.724-1.804-2.75-1.743-1.513.046-5.428.731-8.7 1.523M511.5 960.108c11.989 1.314 13.496 1.738 12.785 3.593-.453 1.18-1.605 1.385-5.184.923-2.53-.326-10.843-1.06-18.473-1.63-33.482-2.503-60.782 5.363-67.617 19.483-1.211 2.501-2.605 7.766-3.099 11.699-.547 4.357-1.585 7.911-2.655 9.096-1.812 2.005-8.915 5.898-13.172 7.218l-2.416.75 2.528-4.37c1.391-2.404 3.552-7.52 4.803-11.37 3.04-9.351 5.355-13.776 9.793-18.715 8.345-9.285 23.329-15.963 39.707-17.696 8.996-.952 29.454-.467 43 1.019m345.466 9.383c3.166.82 11.582 4.083 18.703 7.25l12.948 5.759-13.058.027c-9.403.019-14.879.529-19.559 1.82-3.575.986-13.964 5.121-23.088 9.188-9.123 4.068-20.373 8.793-25 10.502-11.223 4.144-25.929 7.651-39.713 9.471-11.118 1.468-18.962 1.922-18.087 1.047.245-.245 5.156-1.15 10.914-2.011 19.748-2.953 35.62-8.382 50.326-17.216 8.293-4.982 15.532-10.597 25.405-19.708 9.194-8.484 10.081-8.753 20.209-6.129m604.034 2.39c0 .485 1.36 2.211 3.022 3.837l3.023 2.955-3.63 3.848c-3.182 3.375-3.746 3.639-4.58 2.148-1.144-2.043-4.93-5.669-5.92-5.669-.872 0 6.29-7.681 7.335-7.867.412-.073.75.264.75.748m-955 2.664c3.575.335 7.749.857 9.276 1.162 2.279.454 2.66.933 2.126 2.673-.358 1.166-.856 2.345-1.106 2.62s-7.508.751-16.126 1.057c-13.298.473-16.427.897-20.67 2.795-2.75 1.231-7.475 4.659-10.5 7.618-4.625 4.525-6.273 5.492-10.359 6.085l-4.858.705.712-2.38c1.343-4.486 5.396-10.549 9.577-14.326 2.301-2.079 6.263-4.707 8.806-5.842s7.547-2.369 11.122-2.745c6.441-.676 9.425-.597 22 .578m154.224 1.022c6.448.796 14.573 2.481 18.056 3.745 12.679 4.603 25.44 13.033 47.72 31.526 12.228 10.15 16.344 13.767 47 41.311 21.977 19.745 51 47.607 51 48.958 0 1.314-13.763 1.088-16.316-.267-1.201-.638-8.709-5.954-16.684-11.813-20.666-15.184-31.731-22.706-46-31.269-12.077-7.248-34.121-18.74-46.5-24.241-18.388-8.171-49.084-19.277-60.898-22.033-8.473-1.976-9.581-.266-2.027 3.129 33.662 15.13 54.728 25.773 73.6 37.183 13.409 8.107 30.179 19.238 40.325 26.766 15.078 11.187 29.096 23.176 28.174 24.097-.263.263-2.962.019-5.998-.542s-9.976-3.256-15.422-5.99c-15.788-7.922-26.529-10.169-39.209-8.202-3.975.617-9.758 2.011-12.851 3.098s-7.272 1.977-9.286 1.977-8.077-1.359-13.474-3.02c-14.016-4.315-21.995-5.332-35.934-4.583-16.803.903-25.911-.449-35.921-5.333-9.596-4.682-27.477-16.232-55.833-36.064-11.403-7.975-23.548-16.097-26.989-18.05-8.462-4.8-14.845-7.262-15.954-6.153-1.141 1.141 8.741 14.551 18.362 24.919 3.973 4.281 12.416 13.071 18.763 19.534l11.541 11.75h-7.09c-5.15 0-12.67-1.379-27.485-5.039-33.965-8.392-55.346-14.382-63.207-17.708-3.337-1.412-3.739-1.934-3.214-4.183.925-3.972 11.077-24.088 14.746-29.221 5.16-7.218 10.668-12.908 15.913-16.438 6.303-4.241 16.239-8.015 38.889-14.771 28.074-8.373 49.433-12.901 68.957-14.618 12.788-1.124 48.739-.246 63.246 1.545m673.952-1.535c2.022.562 6.312 2.962 9.534 5.334 7.509 5.527 28.474 25.693 37.952 36.505 6.245 7.123 7.337 8.911 7.328 12-.011 4.264-2.9 10.775-10.531 23.742-6.324 10.746-11.413 18.191-16.459 24.077l-3.5 4.083-.036-8.637c-.033-7.71-.398-9.386-3.403-15.636-2.318-4.822-5.42-9.028-9.969-13.517-3.633-3.584-9.276-8.025-12.541-9.867-13.453-7.593-29.776-11.784-49.551-12.724-14.616-.695-27.813.999-40.961 5.256-4.727 1.531-11.305 4.647-14.903 7.06-3.543 2.376-6.569 4.192-6.725 4.037-.355-.356 2.235-20.248 3.671-28.182.59-3.265 2.123-8.008 3.406-10.54 3.05-6.017 10.269-12.583 17.212-15.654 7.714-3.411 15.722-5.083 30.3-6.325a3109 3109 0 0 0 16-1.394c8.652-.815 39.862-.538 43.176.382M449.597 984.25c-1.85 3.438-4.164 8.5-5.141 11.25-1.701 4.788-3.784 7.5-5.761 7.5-1.097 0-.099-8.192 1.524-12.5 1.735-4.607 4.741-8.505 8.17-10.595 1.711-1.044 3.44-1.899 3.842-1.901s-.783 2.809-2.634 6.246m512.848 7.623c2.595 1.148 6.095 3.245 7.777 4.66l3.057 2.573-5.389-.803c-7.984-1.19-18.903-.719-27.648 1.191-4.258.93-20.567 5.886-36.242 11.014-30.189 9.876-40.464 12.838-42.344 12.209-.636-.213 1.319-1.203 4.344-2.201 8.421-2.778 25.163-9.338 50.717-19.871 12.769-5.264 24.694-10.023 26.5-10.577 4.746-1.455 13.775-.608 19.228 1.805m377.914 9.633c-.345.899 2.71 6.526 7.568 13.943 4.481 6.841 9.414 15.275 10.962 18.744s3.643 9.57 4.656 13.557 2.316 7.244 2.898 7.238c1.494-.018 5.193-6.01 6.394-10.359.589-2.133.665-4.88.181-6.565-1.552-5.411-13.676-21.73-24.38-32.814-2.788-2.888-5.662-5.25-6.385-5.25-.724 0-1.576.678-1.894 1.506m-901.901 10.576c-1.045 2.019-5.254 5.447-12.211 9.944-5.84 3.775-10.984 6.637-11.432 6.36-1.456-.9-.863-4.055 1.271-6.768 1.147-1.459 6.657-4.895 12.243-7.635s10.509-4.983 10.94-4.983.065 1.387-.811 3.082m555.042 3.396c8.551 2.212 19.108 7.636 25.492 13.097 11.092 9.49 20.396 24.016 26.212 40.925 2.081 6.05 3.786 11.722 3.79 12.605.005 1.261-1.943 1.884-9.091 2.909-5.003.717-11.84 1.345-15.192 1.395l-6.095.091-4.553-6.495c-5.514-7.865-10.829-13.308-15.26-15.628-2.029-1.062-6.454-1.9-11.474-2.174-6.371-.347-9.682.013-15.024 1.636-3.769 1.144-10.719 3.867-15.444 6.05-4.726 2.184-10.124 4.257-11.997 4.609-3.006.564-4.225.032-10.385-4.53-17.931-13.279-33.843-17.388-52.295-13.507-3.82.804-13.866 3.694-22.324 6.423-24.63 7.946-36.04 9.427-45.36 5.888-3.951-1.501-12.774-7.59-18.963-13.088l-4.963-4.409 5.463-1.638c6.971-2.09 46.812-8.451 79.463-12.686 8.8-1.142 18.475-2.781 21.5-3.644 3.025-.862 12.694-4.224 21.487-7.471 17.158-6.335 30.675-10.311 40.122-11.803 8.004-1.263 27.549-.454 34.891 1.445m-594.302 9.466c-.336 4.644.035 6.906 1.697 10.339 2.517 5.199 7.686 9.154 19.879 15.209 22.064 10.958 53.111 21.159 107.726 35.392 6.6 1.72 14.775 3.856 18.166 4.747 6.185 1.625 7.28 2.744 7.32 7.48l.014 1.612-7.75-1.281c-11.319-1.872-20.177-3.856-44.515-9.972-11.97-3.009-23.018-5.47-24.55-5.47-2.964 0-5.185 1.576-5.185 3.68 0 .703 1.788 2.192 3.974 3.307 4.677 2.386 34.204 10.622 52.026 14.511 6.875 1.501 13.513 3.363 14.75 4.138 1.366.856 2.25 2.401 2.25 3.932v2.523l-3.75-.652c-6.045-1.052-39.454-9.028-56.137-13.403-8.463-2.22-17.099-4.036-19.191-4.036s-4.068-.428-4.392-.951c-.323-.523.271-3.494 1.321-6.603s1.677-6.534 1.395-7.613-1.606-2.678-2.942-3.554c-2.425-1.588-36.705-16.08-49.615-20.974-4.989-1.891-7.109-2.285-7.921-1.473s-.17 1.987 2.401 4.389c5.255 4.908 17.776 11.853 32.147 17.832l12.817 5.331-.689 2.058c-.379 1.132-.905 5.771-1.169 10.308s-.875 8.25-1.358 8.25c-1.568 0-20.173-7.68-29.917-12.348-5.225-2.504-12.903-6.795-17.061-9.536-7.478-4.928-15.939-13.004-15.939-15.212 0-.628 1.688.149 3.75 1.727 7.471 5.713 16.897 11.671 24.246 15.324 13.273 6.598 29.891 13.302 31.47 12.697 1.72-.66 2.037-4.844.574-7.577-.528-.987-3.341-2.795-6.25-4.017-12.092-5.08-25.932-12.532-32.395-17.442-4.402-3.345-8.965-8.109-12.62-13.177-9.086-12.601-10.98-20.859-6.216-27.106 1.408-1.845 4.67-4.454 7.25-5.797 2.58-1.344 4.72-2.464 4.755-2.489.035-.026-.13 2.628-.366 5.897m643.394-2.386c30.512 5.237 47.926 9.794 60.408 15.809 11.594 5.588 19.049 15.84 16.149 22.206-.81 1.778-3.535 3.66-8.867 6.123-5.15 2.379-7.828 3.165-8.092 2.374-.217-.65-1.83-3.069-3.584-5.376-5.342-7.021-19.757-13.144-41.869-17.784-9.069-1.903-10.708-2.552-11.646-4.609-.6-1.317-1.091-2.537-1.091-2.71 0-.704 18.122 2.628 26.827 4.933 5.129 1.358 13.638 4.271 18.907 6.473s10.137 4.003 10.817 4.003c2.095 0 2.578-3.154.88-5.745-3.937-6.009-29.319-13.901-58.961-18.333l-8.031-1.201-4.816-4.36c-2.649-2.399-4.169-4.361-3.377-4.361s8.147 1.151 16.346 2.558m246.908 10.541c11.322 1.374 25.229 5.769 33.008 10.43 6.732 4.034 14.906 11.558 17.114 15.755 1.22 2.32 1.278 4.152.35 11-2.438 17.972-10.173 50.78-18.087 76.716-7.777 25.488-16.311 45.92-24.599 58.894-4.549 7.122-12.754 15.71-17.878 18.713-6.769 3.967-17.452 7.221-35.678 10.868-35.465 7.096-64.494 10.161-109.108 11.52-19.927.607-41.799.551-64.622-.166-18.975-.596-49.575-1.139-68-1.206l-33.5-.123-4.5 2.549c-2.475 1.402-11.475 8.152-20 15.001-8.525 6.848-20.675 15.868-27 20.044-23.25 15.35-51.696 30.177-69 35.966-7.286 2.438-11.831 3.29-19.5 3.656-7.744.369-10.429.15-11.903-.968-1.046-.795-1.591-1.949-1.21-2.566s5.223-2.519 10.759-4.227c17.544-5.414 44.267-18.334 49.204-23.789 2.026-2.239 1.484-4.178-1.159-4.145-.93.012-6.416 2.517-12.191 5.567-15.619 8.248-28.145 13.325-41 16.618-9.273 2.376-13.86 2.98-23.688 3.12-8.75.125-12.552-.186-13.478-1.104-.956-.947-1.008-1.722-.203-3 .634-1.004 8.336-4.256 18.478-7.801 9.565-3.343 21.216-7.831 25.891-9.972 9.971-4.568 26.079-13.509 30.735-17.06 3.488-2.661 4.173-4.827 1.812-5.733-.799-.306-11.037 4.299-22.75 10.234-14.161 7.176-25.502 12.158-33.846 14.87-12.87 4.181-29.671 7.634-42.951 8.827l-7.5.674 2.419-2.625c2.861-3.104 15.651-9.789 37.214-19.45 22.118-9.91 43.599-23.057 52.152-31.92 2.554-2.646 3.576-4.465 3.143-5.594-.353-.919-1.324-1.672-2.157-1.672s-6.972 3.307-13.643 7.349c-19.441 11.779-27.336 16.156-40.628 22.522-13.12 6.284-27.559 11.712-34.778 13.074l-4.278.807.668-2.105c1.696-5.344 9.755-12.26 36.888-31.658 27.85-19.91 37.078-26.688 51.91-38.129 20.175-15.562 29.014-23.107 29.396-25.09.174-.904-.809-2.381-2.184-3.282-2.026-1.328-6.728-1.78-24.811-2.386-19.948-.669-22.841-.985-27.311-2.977-8.554-3.811-15.056-11.545-12.399-14.747 1.209-1.456 6.866-1.775 13.129-.739 6.029.996 3.26 2.361-4.789 2.361-6.001 0-7.441.295-7.441 1.525 0 2.055 4.086 3.475 10 3.475 5.621 0 9.612-1.302 12.615-4.114l2.115-1.981 32.885-.197c23.662-.142 34.643.165 39.153 1.095 3.447.71 13.347 3.343 22 5.85 13.88 4.022 17.203 4.617 28.232 5.053 8.562.339 19.745-.181 35.5-1.651 12.65-1.181 29.075-3.03 36.5-4.11 28.159-4.096 57.603-10.889 88-20.302 9.625-2.98 27.041-8.385 38.702-12.01 35-10.881 53.827-13.276 79.658-10.133 8.078.983 14.957 1.517 15.287 1.187 1.137-1.138-.551-3.586-3.539-5.131-1.647-.852-8.982-3.177-16.301-5.167s-13.46-3.757-13.647-3.927c-.541-.491 2.666-21.319 6.442-41.834 1.91-10.38 4.178-20.236 5.039-21.902 2.053-3.969 6.67-8.154 12.859-11.658 6.116-3.462 9.688-4.615 20-6.459 9.904-1.77 20.267-1.935 32-.51m-346 4.923c-7.114.867-9.72 1.815-9.21 3.351.224.675 5.659 1.605 13.539 2.318 7.24.655 15.978 1.9 19.417 2.767 3.44.866 10.457 3.592 15.593 6.058 5.137 2.466 9.749 4.484 10.25 4.484 2.153 0 .614-3.592-3.021-7.05-4.616-4.391-12.664-8.409-20.778-10.372-7.543-1.825-18.272-2.472-25.79-1.556m-336.5 7.863c0 1.141 2.74 4.429 6.577 7.892 11.402 10.29 35.542 23.544 44.423 24.39 2.944.28 3.5.016 3.5-1.667 0-1.562-3.173-3.646-14.5-9.52-7.975-4.137-19.236-10.479-25.024-14.094s-11.526-7.11-12.75-7.765c-1.949-1.043-2.226-.948-2.226.764m537.913 4.682c5.976 1.775 12.991 7.605 15.492 12.874.973 2.05 1.595 6.007 1.595 10.144 0 8.19-2.477 14.014-7.84 18.435-4.463 3.679-16.691 10.125-25.87 13.638-3.734 1.429-11.445 4.078-17.135 5.887-8.691 2.763-10.257 3.022-9.795 1.622 2.422-7.352 3.291-9.167 4.385-9.167.69 0 1.255.45 1.255 1s1.523 1 3.384 1c3.55 0 19.075-6.04 28.868-11.232 9.302-4.931 16.769-14.52 12.498-16.049-.687-.246-5.3 1.7-10.25 4.324-8.903 4.72-24.867 10.382-37.551 13.319-4.652 1.077-7.697 1.256-10.5.616-5.92-1.35-10.81.344-14.596 5.055-2.017 2.51-4.017 3.967-5.445 3.967-4.329 0-44.297 6.87-46.345 7.966-2.409 1.289-2.66 3.294-.623 4.984 1.125.934 6.435.633 24.297-1.378 12.571-1.414 24.873-2.572 27.337-2.572 5.648 0 8.926-2.179 8.926-5.934 0-1.552.617-3.333 1.371-3.959 1.049-.871 1.899-.709 3.629.692l2.258 1.829-2.088 4.72c-1.545 3.493-2.97 5.088-5.481 6.137-6.499 2.716-65.704 15.376-88.689 18.966-18.905 2.952-49.862 6.499-66.662 7.638-18.035 1.223-27.429.711-29.346-1.599-.747-.899-1.034-4.816-.82-11.187l.328-9.803-2.24-.318c-2.735-.389-3.67 1.526-5.723 11.713-.819 4.068-2.288 8.282-3.263 9.365-2.152 2.389-5.757 3.876-7.644 3.152-.82-.315-1.58-2.538-1.859-5.439-.259-2.699-1.044-5.597-1.743-6.44s-2.327-1.533-3.615-1.533c-4.05 0-5.326 4.918-2.902 11.182.473 1.223-.259 2.177-2.68 3.492l-3.331 1.81-44 .759c-24.2.417-46.25.871-49 1.008l-5 .249.155-3.316c.085-1.824.976-4.223 1.979-5.332 1.498-1.655 2.458-1.875 5.346-1.227 5.211 1.169 65.472.761 72.959-.495 3.542-.594 7.103-1.744 7.914-2.555 1.246-1.245 1.265-1.728.122-3.105l-1.353-1.63-36.061.685-36.061.685-4.5-2.083c-5.968-2.763-12.905-2.776-16.393-.032-3.97 3.122-6.607 9.055-6.607 14.865v5.04l-5.75.001c-6.1.002-37.513-2.128-38.092-2.583-.188-.148.247-1.896.966-3.885l1.308-3.616 15.683.163c8.626.089 16.178-.143 16.784-.518 1.484-.917 1.396-4.078-.149-5.329-.687-.557-6.763-1.337-13.5-1.733s-12.25-1.08-12.25-1.518c0-1.788 10.12-9.721 16.1-12.621l6.4-3.103 37-.571c33.803-.522 64.273-2.03 94.5-4.678 6.325-.553 22.975-1.903 37-2.998 66.495-5.192 78.262-6.169 103-8.554 27.012-2.605 57.861-6.993 74.335-10.576 11.202-2.436 23.354-5.941 30.559-8.814 2.967-1.183 7.711-3.69 10.544-5.569 4.99-3.313 9.562-9.492 9.562-12.924 0-2.193-3.447-8.87-5.427-10.513-.865-.718-1.573-1.926-1.573-2.683 0-1.868 5.268-1.785 11.913.189M909 1068.131c7.581 2.588 17.897 9.859 25.024 17.636 3.287 3.587 5.976 6.907 5.976 7.378 0 .47-.788.858-1.75.863-.962.004-14.8.897-30.75 1.983s-32.502 1.984-36.783 1.993c-6.524.013-8.662-.429-13.223-2.734-5.426-2.743-6.841-4.25-3.989-4.25.827 0 6.565-1.845 12.75-4.101 10.767-3.926 14.819-6.158 13.528-7.449-.328-.329-7.393.111-15.699.976-8.306.866-18.586 1.549-22.843 1.519l-7.741-.055 7-1.855c3.85-1.02 14.875-4.4 24.5-7.511s20.2-6.007 23.5-6.435c7.469-.971 13.408-.379 20.5 2.042m-314.92 21.214c3.069.722 12.559 3.51 21.089 6.195l15.51 4.882-4.285 5.261c-4.152 5.097-6.924 11.65-5.74 13.567.319.515 2.44-.843 4.713-3.019 6.134-5.871 14.415-12.087 19.607-14.718 2.526-1.28 7.441-2.887 10.922-3.572 4.977-.979 7.72-.989 12.845-.045 3.585.661 9.383 2.501 12.886 4.089l6.369 2.888-2.898 4.813c-3.342 5.549-4.568 9.905-3.053 10.842 1.191.736 1.691.402 12.573-8.413 4.335-3.512 10.807-7.787 14.382-9.5 5.603-2.685 7.604-3.115 14.5-3.115 5.441 0 9.562.603 12.885 1.884 5.228 2.017 4.955 2.82-1.385 4.084-1.925.384-7.631 2.681-12.681 5.104-9.784 4.695-19.094 12.333-24.359 19.986-4.134 6.008-7.482 16.816-10.425 33.648-4.612 26.375-9.609 42.851-18.288 60.294-2.463 4.95-4.626 9.162-4.806 9.36s-4.775-3.402-10.211-8-13.674-11.269-18.307-14.824-14.748-12.78-22.478-20.5c-9.982-9.968-16.002-16.971-20.772-24.164-7.32-11.037-12.757-22.679-17.468-37.399-3.513-10.978-8.205-32.416-8.205-37.489V1088l10.75.016c5.913.008 13.261.606 16.33 1.329M467.282 1105.1c8.854 2.99 44.809 11.965 67.718 16.903 10.725 2.312 20.288 4.623 21.25 5.135.962.513 1.75 1.856 1.75 2.985v2.053l-4.25-.657c-10.676-1.649-45.227-8.932-54.724-11.535-8.469-2.321-22.993-6.6-36.176-10.657-.907-.279-1.842-1.817-2.077-3.417-.234-1.601-.265-2.91-.068-2.91s3.156.945 6.577 2.1m535.293 15.817c-1.337 1.477-1.494 2.366-.686 3.875.576 1.077 1.924 2.187 2.995 2.467 2.491.652 6.506-1.332 6.907-3.413.421-2.186-2.437-4.846-5.207-4.846-1.251 0-3.055.863-4.009 1.917m-601.219 2.955c.557 2.92.442 3.205-.857 2.127-1.551-1.287-2-4.165-.832-5.332.366-.367.752-.555.856-.417s.479 1.767.833 3.622m570.561-.46c-.229.226-11.217 1.195-24.417 2.153s-25.461 2.324-27.248 3.037c-1.786.712-3.765 2.429-4.397 3.816-.888 1.949-.86 2.871.12 4.052 1.588 1.913 5.857 1.983 7.946.13.937-.831 6.055-1.863 12.579-2.537 6.05-.625 18.197-2.032 26.993-3.128 16.707-2.081 20.097-3.314 17.549-6.385-.74-.89-2.866-1.55-4.998-1.55-2.041 0-3.898.185-4.127.412m-522.6 6.61c5.727 2.212 11.191 4.882 12.143 5.934 1.622 1.792 4.697 9.201 4.08 9.831-.577.59-16.934-5.828-21.148-8.298-4.231-2.479-7.392-6.729-7.392-9.939 0-.853.429-1.55.952-1.55.524 0 5.639 1.81 11.365 4.022m226.38 5.228c-.842 1.787-3.183 10.675-5.202 19.75-4.091 18.391-8.603 31.146-14.602 41.275-2.682 4.53-3.804 7.429-3.385 8.75 1.035 3.26 4.244 2.3 7.545-2.257 9.148-12.629 13.251-24.141 18.027-50.589 2.834-15.689 3.102-18.452 1.865-19.234-.795-.503-1.731-.921-2.081-.93-.35-.008-1.325 1.448-2.167 3.235m442.988-1.81c-2.204 1.671-17.322 5.859-18.992 5.262-.656-.235 2.857-1.645 7.807-3.134s9.45-2.864 10-3.058c2.298-.809 2.878-.354 1.185.93m-716.386 11.172c.311 3.012 1.59 7.594 2.841 10.183 1.371 2.833 7.325 9.92 14.97 17.815 11.786 12.172 15.89 17.47 15.89 20.512 0 2.04-3.178 4.878-5.464 4.878-1.184 0-4.638-1.496-7.675-3.325-8.801-5.299-24.119-16.996-30.565-23.339-4.452-4.381-6.256-7.01-7.232-10.546-2.072-7.5-1.296-9.743 8.658-24.999l1.767-2.709 3.123 3.026c2.514 2.437 3.232 4.093 3.687 8.504m99.537-.634c8.435 2.175 17.74 5.055 20.679 6.4 4.598 2.105 5.491 2.981 6.408 6.284.586 2.111 1.068 4.123 1.071 4.472.008.863-12.82-1.641-21.994-4.294-4.125-1.193-10.271-3.398-13.659-4.901-5.988-2.655-8.423-5.062-9.804-9.689-.459-1.537-.254-2.246.646-2.238.724.006 8.218 1.791 16.653 3.966m571.66 1.029c-1.267 2.05-6.961 4.203-17.338 6.557-5.862 1.33-12.626 2.422-15.03 2.427-3.787.008-4.205-.193-3.12-1.501 1.544-1.86 9.257-4.153 21.894-6.511 11.374-2.122 14.44-2.341 13.594-.972m-618.751 11.176c4.535 1.693 9.355 4.107 10.71 5.363 2.461 2.281 4.316 7.016 3.189 8.143-.823.823-11.91-3.263-19.035-7.015-4.279-2.254-6.262-3.992-7.25-6.356-.747-1.79-1.359-3.542-1.359-3.894 0-.935 4.401.269 13.745 3.759m101.755-.662c2.2.349 6.149 1.09 8.775 1.645 4.147.878 5.04 1.531 6.798 4.976l2.023 3.967-3.798-.612c-10.324-1.662-17.853-3.962-20.001-6.109-3.029-3.029-3.053-5.581-.047-4.965 1.237.254 4.05.748 6.25 1.098m457.5 2.388c-2.338 1.322-13.557 2.971-24 3.528-7.823.418-8.706.332-5-.488 13.516-2.991 32.417-4.972 29-3.04M952 1164c0 .589-2.979.935-7.25.843l-7.25-.157 5-.686c7.829-1.074 9.5-1.074 9.5 0m-448.5 4.455c16.668 4.421 23.611 6.675 26.32 8.545 1.196.825 2.457 2.963 2.802 4.75.529 2.736.331 3.249-1.247 3.243-3.097-.012-18.263-3.837-28.073-7.081-5.059-1.673-10.301-3.91-11.65-4.971s-2.924-3.282-3.5-4.935c-.897-2.573-.803-3.006.65-3.003.934.002 7.548 1.555 14.698 3.452m274.157 6.55c5.037.466 10.549 1.567 12.25 2.447 2.458 1.271 3.093 2.242 3.093 4.729v3.13l-14.75-.614c-17.9-.746-32.307-2.216-42-4.285-6.524-1.393-7.25-1.786-7.25-3.917 0-1.924.609-2.442 3.25-2.763 4.659-.567 34.606.273 45.407 1.273m-67.856 4.685c.335 4.51-.709 5.433-5.18 4.578l-2.753-.526.681-4.121c.375-2.267.857-4.419 1.071-4.783s1.625-.335 3.135.066c2.347.623 2.789 1.317 3.046 4.786m-252.513-.679c5.711 2.205 11.314 5.018 12.452 6.25 1.137 1.231 2.531 3.947 3.096 6.035l1.028 3.796-2.182-.625c-5.234-1.498-15.448-5.629-18.441-7.457-3.508-2.144-7.231-7.421-7.237-10.26-.002-.963.2-1.75.448-1.75.249 0 5.125 1.805 10.836 4.011m113.126-1.364c4.903.809 10.078 2.08 11.5 2.823s3.908 2.742 5.523 4.441l2.937 3.089h-4.056c-4.96 0-19.954-2.518-27.007-4.536-2.853-.816-5.891-2.187-6.75-3.046-.858-.858-1.561-2.444-1.561-3.524v-1.963l5.25.622c2.888.343 9.261 1.285 14.164 2.094M424.5 1204.263c6.05 3.036 12.238 6.672 13.75 8.081 3.317 3.088 3.81 8.185.882 9.114-2.537.805-16.939-3.839-26.22-8.455-9.993-4.969-14.729-8.021-18.59-11.979-2.996-3.07-4.128-6.181-5.717-15.716l-.532-3.193 12.714 8.314c6.992 4.573 17.663 10.798 23.713 13.834m83.812-13.311c8.445 2.173 17.867 4.891 20.938 6.04 4.518 1.691 5.789 2.682 6.666 5.198.596 1.71 1.084 3.549 1.084 4.088 0 2.369-25.466-3.527-35.726-8.271-4.256-1.968-6.865-3.928-8.246-6.193-2.252-3.693-2.496-4.814-1.049-4.814.538 0 7.888 1.778 16.333 3.952m258.188 4.653c8.8.816 18.362 2.151 21.25 2.967l5.25 1.484v3.503c0 2.218-.56 3.719-1.526 4.089-3.033 1.164-47.712-3.213-58.73-5.754-3.835-.884-4.881-1.591-5.398-3.651-.466-1.859-.124-2.94 1.257-3.97 1.485-1.108 4.068-1.278 11.897-.783 5.5.348 17.2 1.3 26 2.115m-185.495 2.436c10.418 1.7 13.679 2.69 19.973 6.066 4.137 2.219 8.181 4.678 8.986 5.464 1.278 1.247 1.086 1.428-1.5 1.419-4.988-.016-28.511-2.834-36.59-4.384-14.325-2.747-15.883-3.384-17.45-7.133-.783-1.875-1.424-3.713-1.424-4.085 0-.982 13.649.311 28.005 2.653m252.032-2.034c2.921.554 5.552 1.249 5.848 1.544.295.296-.796 1.66-2.424 3.033l-2.961 2.495-9.815-.391c-7.103-.282-10.242-.816-11.357-1.932l-1.542-1.542 2.107-2.107c1.701-1.701 3.332-2.107 8.471-2.107 3.499 0 8.753.453 11.673 1.007m-127.505 2.442c3.034 1.268 3.468 1.893 3.468 5V1207l-4.75-.015c-2.612-.009-5.394-.423-6.182-.922-1.195-.756-1.23-1.579-.21-4.984.72-2.403 1.835-4.079 2.714-4.079.821 0 3.053.652 4.96 1.449m-247.464 4.163c2.988.887 8.052 2.935 11.254 4.551 4.4 2.221 6.172 3.774 7.25 6.356.786 1.879 1.428 4.082 1.428 4.895 0 1.294-.654 1.284-5.25-.08-6.186-1.837-15.877-6.577-17.538-8.579-1.778-2.142-4.351-8.755-3.407-8.755.458 0 3.276.726 6.263 1.612m55.782 11.408c8.443 2.206 17.511 4.94 20.152 6.076 4.289 1.845 4.918 2.531 5.9 6.428.604 2.399 1.098 4.664 1.098 5.034 0 2.161-26.68-4.231-37.341-8.945-4.379-1.937-5.964-3.291-7.597-6.49-1.134-2.224-2.062-4.511-2.062-5.083s1.012-1.038 2.25-1.035 9.158 1.81 17.6 4.015m-108.671 4.071c2.336 1.192 11.014 5.046 19.284 8.564 14.973 6.37 20.002 9.811 19.303 13.21-.267 1.299-1.338 1.57-5.211 1.318-5.994-.39-19.139-4.453-26.656-8.24-3.081-1.552-7.038-4.03-8.794-5.508-3.269-2.75-7.105-9.16-7.105-11.87 0-1.198.517-1.319 2.466-.578 1.356.516 4.377 1.913 6.713 3.104m358.821-.557c15.04 1.789 25.789 3.826 26.991 5.115.437.468.573 2.272.302 4.008-.41 2.629-1.041 3.261-3.768 3.772-4.009.752-27.374-.94-41.188-2.982-5.59-.827-12.453-2.183-15.25-3.014l-5.087-1.51v-8.227l12.25.616c6.737.339 18.325 1.339 25.75 2.222m54.491-1.52c-.345.558-2.396 1.917-4.559 3.021l-3.932 2.006v-2.354c0-1.295.3-2.654.667-3.02.366-.367 2.418-.667 4.559-.667 2.376 0 3.648.395 3.265 1.014M590 1220.599c17.622 2.495 23.195 3.594 28.25 5.569 2.245.877 2.75 1.695 2.75 4.453V1234l-6.75-.001c-8.84-.002-31.292-2.605-43.179-5.007-5.721-1.156-10.107-2.611-11.152-3.699-.948-.986-2.041-3.313-2.429-5.171l-.705-3.377 7.858.688c4.321.378 15.732 1.802 25.357 3.166m115.25.291c2.267.874 2.75 1.669 2.75 4.526 0 1.906-.397 3.712-.883 4.012-.834.515-17.213-1.19-17.885-1.863-.174-.173.449-2.227 1.384-4.564l1.7-4.248 5.092.538c2.801.297 6.329 1.016 7.842 1.599m-234.343 9.432c4.076 1.748 8.231 4.303 9.239 5.678 1.007 1.375 2.128 4.014 2.49 5.864l.66 3.365-2.398-.727c-6.129-1.857-17.302-6.971-19.776-9.053-1.509-1.269-3.25-3.959-3.87-5.978l-1.126-3.67 3.687.671c2.028.369 7.02 2.101 11.094 3.85m46.593 8.726c11.802 2.994 21.068 6.185 23.834 8.207 1.854 1.356 5.112 10.745 3.729 10.745-.463 0-4.604-.713-9.203-1.585-10.231-1.94-25.228-6.689-29.584-9.37-2.974-1.83-6.276-7.43-6.276-10.642 0-1.61 1.793-1.339 17.5 2.645m129.5-.001c1.375.982 4.279 3.623 6.453 5.869 3.313 3.423 3.631 4.084 1.96 4.084-3.973 0-13.943-3.106-15.163-4.724-1.337-1.774-1.692-6.501-.572-7.62.901-.902 4.235.187 7.322 2.391m116 1.969c8.525 1.146 15.877 2.461 16.337 2.921.461.461-2.155 2.973-5.812 5.583l-6.65 4.745-8.42-.683c-11.968-.971-30.269-4.182-31.993-5.614-.889-.737-1.462-2.989-1.462-5.743v-4.531l11.25.619c6.188.34 18.225 1.557 26.75 2.703m-187 .487c11.706 1.055 38.863 5.542 42.342 6.996 2.005.837 3.656 2.363 4.017 3.711 1.386 5.174 1.465 5.141-10.609 4.484-11.295-.614-37.21-4.624-43.75-6.771-4.297-1.41-7-4.343-7-7.595v-2.451l4.25.52c2.337.286 7.175.784 10.75 1.106m123.736 2.097c2.62.872 5.27 2.106 5.888 2.743.628.646.911 2.812.641 4.907l-.484 3.75h-5.073c-6.58 0-22.871-2.09-22.49-2.886.161-.338 1.641-3.009 3.288-5.937l2.994-5.322 5.236.579c2.88.319 7.38 1.294 10 2.166m-276.236 2.909c8.391 2.967 10.5 4.11 10.5 5.693 0 2.433-16.499-3.836-19.697-7.484-1.378-1.572-1.449-1.937-.303-1.548.825.28 5.1 1.783 9.5 3.339m43.585 5.59c9.842 3.221 16.927 7.02 18.373 9.851.715 1.403 1.608 3.977 1.984 5.721l.682 3.171-4.812-1.422c-7.509-2.22-18.666-8.072-20.222-10.608-1.231-2.005-3.277-8.812-2.65-8.812.126 0 3.117.945 6.645 2.099m755.881 13.48c-5.28 5.39-19.39 16.673-22.128 17.695-.908.339-.213 1.466 2.162 3.505l3.5 3.005v11.504c0 9.594-.293 11.828-1.766 13.455-2.176 2.403-6.353 3.684-19.234 5.901-7.596 1.307-15.771 1.716-34 1.702-13.2-.01-27.784-.539-32.408-1.174-4.625-.636-8.635-1.382-8.911-1.658-.521-.521 1.161-9.155 3.097-15.89l1.114-3.877 6.554.642c3.605.352 13.817 1.108 22.693 1.679 11.18.719 20.245.718 29.5-.005 7.349-.574 14.374-1.325 15.611-1.67 2.678-.746 2.957-2.902.5-3.863-.963-.376-10.525-1.103-21.25-1.615-18.441-.88-35.632-2.205-46.25-3.564-4.019-.515-4.738-.935-4.67-2.73.044-1.166.839-4.821 1.767-8.121l1.687-6 2.983.066c1.641.037 9.058.874 16.483 1.862 10.045 1.335 17.594 1.678 29.5 1.338 12.137-.347 18.173-1.004 25-2.724 9.723-2.449 20.333-7.022 27.5-11.853 2.475-1.668 4.935-3.068 5.466-3.111s-1.494 2.433-4.5 5.501m-547.466-1.538c13.999 2.014 25.778 4.502 28.688 6.06 1.272.68 1.812 2.127 1.812 4.852 0 6.385-.6 7.047-6.387 7.047-6.182 0-26.767-2.43-38.613-4.558-4.675-.839-10.625-2.215-13.223-3.056-4.116-1.332-4.854-2.001-5.744-5.207-1.218-4.385-1.299-6.578-.283-7.6 1.03-1.037 18.069.207 33.75 2.462m-156.789-.031c12.93 2.957 26.2 7.918 27.79 10.39.743 1.155 1.659 3.788 2.036 5.85l.686 3.75h-2.991c-4.738 0-27.253-5.981-32.482-8.629-2.613-1.322-4.75-2.51-4.751-2.638 0-.128-.898-2.595-1.995-5.483l-1.996-5.25h2.457c1.352 0 6.412.904 11.246 2.01m62.289.54c14.639 1.679 36.378 5.754 40.353 7.565 2.601 1.185 3.611 3.478 3.633 8.252l.014 2.868-7.75-.702c-19.853-1.797-42.764-5.733-47.47-8.154-3.08-1.585-4.48-3.741-4.789-7.379-.3-3.532-.153-4 1.259-3.999.688.001 7.325.698 14.75 1.549m159.211-.443c5.659.609 10.434 1.242 10.611 1.406s-1.812 3.047-4.421 6.406l-4.743 6.108-3.579-.574c-9.015-1.445-13.179-2.771-14.1-4.492-1.349-2.521-1.228-7.312.221-8.761 1.477-1.477 3.06-1.486 16.011-.093m258.762 2.943c-1.291 2.413-3.375 3.405-11.473 5.462-7.89 2.003-29.317 5.004-30.105 4.216-.794-.794 4.254-5.488 7.974-7.416 4.79-2.482 14.602-4.149 24.916-4.233l9.785-.079zm90.027 2.776c0 .454-1.013 1.767-2.25 2.919-2.104 1.958-9.12 4.174-18.126 5.725l-3.875.668.706-2.814c.859-3.424 2.32-5.282 5.01-6.372 2.674-1.084 18.535-1.192 18.535-.126m-42 6.773c0 .879-.702 3.078-1.56 4.887-1.592 3.353-4.822 5.071-13.985 7.437-6.811 1.758-18.928 3.905-19.411 3.439-.25-.242.2-2.294 1-4.56.801-2.267 2.581-4.939 3.956-5.939 2.746-1.997 11.395-4.416 20.583-5.756 8.823-1.287 9.417-1.256 9.417.492m-563.201 6.405c5.626 2.426 7.524 4.87 8.717 11.228l.687 3.663-3.852-1.046c-6.14-1.668-13.574-4.971-17.21-7.646-3.056-2.248-7.065-8.946-7.119-11.893-.015-.809 2.145-.452 6.728 1.109 3.712 1.266 9.134 3.329 12.049 4.585M996 1285.351c0 3.352-2.454 7.833-5.015 9.157-1.539.796-6.215 2.384-10.391 3.53-9.266 2.542-28.515 5.9-29.031 5.064-.781-1.264 2.452-8.675 4.518-10.359 2.756-2.244 10.769-4.575 23.419-6.811 12.546-2.219 16.5-2.358 16.5-.581m87.832 4.702c-.586 1.679-2.025 3.678-3.198 4.442s-5.959 2.495-10.634 3.847c-7.183 2.077-8.552 2.229-8.839.979-.606-2.648 2.089-7.465 4.745-8.483 4.856-1.86 12.586-3.706 15.792-3.772l3.198-.066zm-486.41 1.512c16.987 2.59 26.992 4.988 28.428 6.812.486.618 1.192 3.54 1.568 6.495l.683 5.372-6.8-.683c-17.3-1.737-46.542-7.554-49.744-9.895-1.826-1.336-3.976-9.178-2.965-10.815.753-1.217 6.765-.651 28.83 2.714m80.174.023c8.852 1.347 18.527 3.229 21.5 4.181l5.404 1.731.301 6.383.301 6.383-9.301-.708c-11.08-.844-36.075-4.93-43.801-7.16-3.025-.873-6.04-2.031-6.701-2.574s-1.507-3.025-1.88-5.516c-.501-3.338-.316-4.772.701-5.451 1.845-1.232 13.904-.248 33.476 2.731m-151.159.878c14.502 3.717 21.121 6.284 23.78 9.221 1.532 1.693 4.118 10.311 3.331 11.099-.66.659-13.057-1.98-20.824-4.433-13.529-4.274-16.428-5.845-18.533-10.046-2.445-4.88-3.517-9.307-2.253-9.307.537 0 7.061 1.56 14.499 3.466m212.731 4.536c.235 4.968-.017 7.002-.869 7-2.978-.005-12.013-2.336-14.049-3.624-1.786-1.131-2.25-2.347-2.25-5.901V1290h16.836zm195.432 3.314c-.351 1.875-1.436 4.131-2.411 5.013-1.823 1.649-10.871 4-19.689 5.114l-5 .632 2.5-1.989c4.559-3.625 17.445-10.896 21-11.848 1.925-.515 3.667-.801 3.87-.634.204.166.082 1.837-.27 3.712m107.848.934c-2.075 6.793-3.51 8.878-7.162 10.407-4.914 2.056-22.021 6.316-25.43 6.331l-2.643.012.927-4.13c.511-2.271 1.358-4.932 1.883-5.912.525-.981 2.872-2.515 5.216-3.408 4.925-1.878 20.938-5.376 25.078-5.48 2.47-.061 2.733.208 2.131 2.18m-564.221 5.111c9.862 3.712 15.191 6.332 16.906 8.311.871 1.006 2.083 3.316 2.693 5.135l1.11 3.307-2.218-.669c-1.22-.368-5.544-2.037-9.609-3.709-4.551-1.872-9.067-4.645-11.75-7.217-2.398-2.297-4.359-4.928-4.359-5.848s.215-1.671.477-1.671c.263 0 3.3 1.062 6.75 2.361m600.773 2.583c0 2.484-5.253 6.285-12.477 9.027-4.388 1.666-8.55 3.029-9.25 3.029-2.361 0-1.296-3.803 1.794-6.403 1.686-1.419 5.399-3.23 8.25-4.025 9.662-2.695 11.683-2.977 11.683-1.628m51.5.159c-2.992 1.783-3.065 1.928-1.471 2.936 1.628 1.03 18.172 1.282 21.721.331 1.237-.332 2.25-.953 2.25-1.38 0-1.398-3.365-2.129-12-2.608-5.59-.309-9.185-.062-10.5.721m-138.991 2.147c-.343 1.237-1.338 3.929-2.211 5.982-1.32 3.107-2.491 4.071-6.99 5.754-5.792 2.167-28.36 7.014-32.659 7.014h-2.599l.616-3.25c.765-4.04 2.185-6.877 4.247-8.492 3.697-2.894 27.979-8.927 36.904-9.168 2.975-.081 3.253.143 2.692 2.16m241.662-.315c4.581 1.064 15.979 2.672 25.329 3.574 19.053 1.837 38.216 5.356 49.479 9.086 8.345 2.763 24.568 10.474 28.436 13.516l2.494 1.963-4.843 13.713c-5.736 16.24-11.584 31.231-14.243 36.512-1.053 2.089-2.521 4.032-3.263 4.317-1.682.645-15.107-4.868-29.8-12.236-13.267-6.654-25.461-14.694-37.474-24.707-9.604-8.005-26.122-24.993-30.046-30.9l-2.475-3.727 1.69-4.273c2.065-5.221 4.288-8.773 5.489-8.773.494 0 4.646.871 9.227 1.935m-10.171 4.376c0 2.874 2.727 5.869 8.249 9.061 7.806 4.512 20.751 7.243 20.751 4.378 0-1.7-23.818-15.75-26.699-15.75-1.738 0-2.301.566-2.301 2.311m-620.122 3.693c16.048 2.773 23.092 4.537 24.755 6.2.779.779 1.701 3.824 2.05 6.767l.634 5.35-8.143-.628c-4.479-.345-14.982-2.008-23.34-3.694-14.423-2.91-22.856-5.607-24.168-7.731-.326-.527-.903-2.901-1.283-5.274l-.69-4.315 9.282.659c5.105.362 14.512 1.562 20.903 2.666m60.122-1.506c10.27.918 33.083 5.46 37.75 7.517l4.25 1.873v12.411l-8.796-.624c-9.589-.68-32.722-4.722-40.721-7.114-2.76-.825-5.857-2.114-6.884-2.865-1.109-.811-2.155-3.271-2.579-6.066-.572-3.767-.396-4.89.883-5.649.878-.52 3.397-.748 5.597-.505s6.925.703 10.5 1.022m-129.841 4.067c6.787 1.961 14.676 4.623 17.53 5.917 4.659 2.111 5.303 2.794 6.299 6.685.611 2.383 1.313 4.931 1.56 5.662.341 1.008-.337 1.171-2.799.675-15.783-3.181-30.231-8.259-33.549-11.791-1.173-1.248-2.803-4.17-3.622-6.491l-1.489-4.222h1.864c1.025 0 7.418 1.604 14.206 3.565m222.703.442c6.799 1.182 15.799 3.127 20 4.321l7.638 2.172.328 2.871c.181 1.579.043 4.007-.306 5.397l-.634 2.526-11.194-.673c-12.434-.748-28.604-2.937-39.048-5.287-3.769-.848-7.707-2.395-8.75-3.438-1.202-1.202-1.896-3.299-1.896-5.729 0-2.109.337-4.185.75-4.615 1.201-1.252 19.676.118 33.112 2.455M931 1324.032c0 1.668-.62 4.515-1.377 6.328-1.409 3.371-3.587 4.655-11.123 6.555-5.817 1.467-26.763 4.085-32.681 4.085h-5.079l.52-4.618c.791-7.012 3.481-9.081 14.805-11.388 10.148-2.067 22.54-3.653 30.185-3.863L931 1321zm104.683 4.218c-.793 1.95-2.855 4.113-5.154 5.406-4.409 2.482-20.821 7.344-24.788 7.344-2.097 0-2.557-.38-2.119-1.75 1.392-4.356 2.921-6.282 6.273-7.904 5.121-2.479 18.921-6.184 23.358-6.272l3.753-.074zm38.317-.339c0 1.701-6.474 6.384-13.472 9.742-3.834 1.841-7.505 3.347-8.156 3.347-1.759 0-.528-3.504 2.097-5.97 2.166-2.036 15.626-7.922 18.281-7.996.688-.019 1.25.376 1.25.877m-586.709 4.124c8.909 3.381 13.086 6.23 15.069 10.281 1.022 2.089 1.696 3.962 1.496 4.161-.645.646-13.927-5.391-18.099-8.226-2.226-1.513-5.22-4.289-6.652-6.168l-2.605-3.418 2.791.697c1.535.383 5.135 1.586 8 2.673m376.487.52c-.622.622-15.025 2.532-15.501 2.055-.234-.234 2.196-1.157 5.399-2.051s6.724-2 7.824-2.457c1.425-.592 2.097-.416 2.338.612.187.793.16 1.622-.06 1.841m383.732 3.43c-.885 1.431 4.45 4.369 14.391 7.925 4.791 1.714 16.335 6.902 25.654 11.529 17.349 8.615 21.648 9.552 15.888 3.463-6.761-7.148-22.441-15.929-37.379-20.934-8.803-2.949-17.39-3.867-18.554-1.983m-261.545 3.138c-1.695 5.909-3.444 7.432-11.125 9.688-7.763 2.28-18.116 4.515-26.231 5.662l-4.892.692.659-3.296c.992-4.958 4.949-8.416 11.844-10.351 8.14-2.284 23.532-5.33 27.46-5.434l3.18-.084zm757.537-.04c-7.52 1.86-18.393 8.101-27.818 15.967-8.746 7.3-18.684 17.308-18.684 18.815 0 .357 2.035 1.879 4.522 3.381 3.256 1.967 5.845 4.845 9.25 10.283 2.6 4.154 14.316 22.271 26.035 40.261s25.149 38.898 29.843 46.46c4.695 7.563 8.891 13.75 9.326 13.75.784 0 17.209-11.669 23.579-16.751l3.327-2.655-5.65-8.047c-17.375-24.744-20.092-29.016-18.928-29.756.658-.418 1.685-.767 2.282-.776.598-.008 4.873 2.705 9.5 6.03 10.378 7.456 24.599 14.634 31.914 16.108 6.797 1.369 11.804.18 18.599-4.417 5.069-3.429 9.979-10.374 11.022-15.592l.629-3.144h-2.915c-4.585 0-13.849-2.715-21.8-6.388-4.009-1.853-12.183-6.631-18.163-10.619-5.979-3.987-11.002-7.359-11.161-7.493s.48-4.156 1.419-8.938c1.451-7.383 1.532-9.851.538-16.377-2.387-15.673-13.058-31.052-25.951-37.399l-6.601-3.25-10.058-.22c-5.532-.122-11.857.224-14.056.767m-1141.936 6.899c16.895 3.021 25.378 5.148 27.401 6.872 1.063.905 2.241 3.393 2.618 5.528l.687 3.882-5.886-.709c-9.934-1.196-31.473-5.597-38.193-7.803-6.313-2.073-8.249-3.796-9.697-8.63l-.712-2.378 6.858.719c3.772.396 11.388 1.529 16.924 2.519m473.317-.037c-3.013 4.074-12.926 11.936-21.912 17.378-17.879 10.826-47.492 21.794-80.971 29.991-22.225 5.441-34.287 7.865-55.5 11.152-30.919 4.791-66.284 7.919-108.177 9.568-20.423.804-36.933.811-60 .028-59.657-2.027-102.049-6.201-143.821-14.162-21.987-4.189-37.026-7.861-57.002-13.917-20.136-6.104-39.997-13.99-54.5-21.639-10.133-5.345-22.209-13.254-23.55-15.426-.358-.578-.416-1.285-.13-1.571s6.068 2.165 12.85 5.446c12.948 6.265 32.173 14.213 44.83 18.534 10.017 3.419 29.19 8.986 41.5 12.049 34.663 8.624 72.914 14.005 130 18.286 17.66 1.324 35.305 1.723 76 1.716 30.803-.005 60.329-.512 70.5-1.211 24.257-1.666 56.019-4.889 71.5-7.255 59.157-9.041 102.216-21.488 138.596-40.063 7.479-3.819 15.129-8.024 17-9.347 1.872-1.322 3.755-2.426 4.184-2.453s-.2 1.276-1.397 2.896M669 1347.564c12.8 1.751 30.668 5.988 33.741 8.002 1.844 1.208 2.259 2.393 2.259 6.457V1367h-4.869c-9.848 0-40.034-6.379-46.999-9.933-3.276-1.671-3.96-2.592-4.518-6.079-.361-2.26-.403-4.521-.092-5.024.593-.959 3.318-.746 20.478 1.6m-411 2.906v4.469l-14.325 21.781a20017 20017 0 0 0-31.62 48.28c-9.513 14.575-18.142 27.719-19.176 29.21s-1.879 3.073-1.879 3.518c0 .993 15.109 11.285 16.5 11.24.55-.018 5.725-7.707 11.5-17.086a6254 6254 0 0 1 19.361-31.217l8.861-14.165-.682 4.5c-.376 2.475-2.007 12.6-3.625 22.5-4.347 26.589-8.127 54.504-7.576 55.942.489 1.272 18.641 13.931 19.165 13.364.548-.594 25.524-39.927 33.357-52.531 26.89-43.273 36.16-58.777 35.763-59.814-.504-1.312-13.683-11.436-14.908-11.451-.431-.006-1.776 1.678-2.989 3.74s-6.896 11.175-12.631 20.25a8685 8685 0 0 0-16.368 26c-3.268 5.225-5.691 8.375-5.385 7 .993-4.465 5.577-30.986 9.159-52.995l3.5-21.495-2.251-1.752c-7.107-5.532-20.148-13.758-21.811-13.758-1.631 0-1.94.713-1.94 4.47m281-.79c4.675 1.374 11.522 3.868 15.216 5.542 5.685 2.576 6.89 3.57 7.85 6.477.623 1.889.938 3.63.699 3.869-.681.681-14.405-3.067-23.697-6.471-4.637-1.7-9.45-4.047-10.695-5.216-1.244-1.169-2.726-3.454-3.292-5.077l-1.028-2.951 3.223.664c1.773.365 7.049 1.788 11.724 3.163m308.5-1.693c14.896 1.569 14.5 1.407 14.5 5.921 0 2.307-.764 4.814-1.892 6.207l-1.893 2.337-13.857.377c-15.258.415-32.652-.989-38.858-3.136l-4-1.384-.308-4.732c-.513-7.891-.307-7.969 19.304-7.259 9.352.339 21.504 1.09 27.004 1.669m-98.207.579c15.303 1.686 26.535 3.623 31.007 5.344l2.8 1.079-.3 5.755-.3 5.756-12-.073c-13.368-.08-31.179-2.466-40.954-5.486l-6.43-1.986-.67-4.465c-.368-2.456-.408-5.146-.089-5.978.43-1.12 2.156-1.512 6.655-1.512 3.341 0 12.467.705 20.281 1.566m281.835.195c-1.848 3.452-5.017 5.379-14.259 8.669-10.924 3.888-17.869 5.296-17.869 3.623 0-2.5 3.357-5.98 7.309-7.577 4.766-1.925 21.282-6.353 23.976-6.427 1.399-.038 1.581.332.843 1.712M926 1350.599c0 .879-.715 3.107-1.59 4.949-1.225 2.583-2.659 3.701-6.25 4.878-5.332 1.748-20.106 4.186-31.273 5.161-5.141.448-7.835.306-8.295-.438-.375-.607-.189-2.933.414-5.17 1.189-4.415 2.515-5.254 11.28-7.134 6.329-1.357 24.898-3.598 30.964-3.737 3.731-.085 4.75.235 4.75 1.491m53.996 10.651c-.002.688-.858 2.651-1.902 4.363-1.476 2.421-3.529 3.688-9.246 5.706-6.665 2.352-15.779 4.505-26.224 6.192l-3.875.627.687-2.819c.377-1.55 1.7-3.85 2.94-5.111s4.699-2.965 7.688-3.79c6.088-1.678 26.753-6.256 28.686-6.354a1.175 1.175 0 0 1 1.246 1.186m772.525 4.621c2.212 1.004 6.038 4.069 8.502 6.809 9.296 10.34 13.158 22.922 9.44 30.757-1.913 4.032-5.728 7.135-7.458 6.066-1.624-1.003-27.005-39.56-27.005-41.023 0-1.512 6.475-4.365 10-4.407 1.375-.016 4.31.793 6.521 1.798M607 1370.429c14.433 2.891 21.854 4.976 24.166 6.791.898.704 1.953 2.356 2.345 3.672l.714 2.392-6.363-.697c-8.967-.983-25.146-4.289-33.118-6.768-6.593-2.05-11.744-5.522-11.744-7.914 0-1.561 7.597-.762 24 2.524m64.144 5.67c13.836 2.272 30.525 6.381 32.469 7.994.763.634 1.387 2.288 1.387 3.677v2.525l-8.75-.666c-16.543-1.26-40.978-6.392-43.203-9.073-.57-.686-1.322-2.681-1.673-4.434l-.637-3.188 4.381.627c2.41.344 9.622 1.486 16.026 2.538m250.168-.184c-.847 3.239-4.814 6.135-10.438 7.619-5.613 1.482-22.604 4.036-31.624 4.754-4.459.355-5.25.159-5.25-1.3 0-.945.904-2.867 2.009-4.272 1.554-1.976 3.984-3.01 10.75-4.574 11.927-2.757 32.033-5.328 34.397-4.398.361.142.431 1.119.156 2.171m-80.327.228c6.867.597 13.55 1.49 14.852 1.985 1.585.603 2.168 1.418 1.765 2.468-.331.862-.602 2.229-.602 3.037s-1.687 2.201-3.75 3.095c-2.909 1.261-7.225 1.637-19.25 1.674-15.458.048-28.374-1.484-31.418-3.728-.895-.66-1.7-2.911-1.837-5.139l-.245-3.966 3-.713c3.47-.825 19.536-.273 37.485 1.287m-84.485 2.354c6.05.746 14.263 2.1 18.25 3.01 7.607 1.735 7.982 2.155 6.584 7.381l-.639 2.387-18.098-.578c-12.352-.395-21.056-1.212-27.418-2.574-5.127-1.098-9.964-2.53-10.75-3.182-1.498-1.243-1.968-7.051-.679-8.382.897-.926 17.475.055 32.75 1.938m923 5.389c-2.2 1.014-6.925 4.006-10.5 6.65-13.519 9.996-32 25.917-32 27.566 0 .378 1.356 2.138 3.013 3.912 1.657 1.773 5.113 7.108 7.68 11.855s10.141 18.531 16.831 30.631 15.193 27.557 18.896 34.349c6.921 12.692 12.871 26.783 14.104 33.401.384 2.063.986 3.734 1.337 3.715 1.699-.094 38.92-20.342 57.395-31.223l6.756-3.978-3.188-5.632c-1.753-3.098-4.231-7.311-5.506-9.362s-2.318-4.189-2.318-4.75-.562-1.02-1.25-1.019-7.775 4.103-15.75 9.116-15.062 9.335-15.75 9.606c-.687.27-1.25.031-1.25-.531s-3.825-7.901-8.5-16.309c-4.675-8.407-8.488-15.758-8.474-16.335.014-.576 5.527-4.625 12.25-8.996s12.342-8.015 12.486-8.096c.472-.265-10.245-18.418-10.884-18.437-.342-.011-4.167 2.302-8.5 5.14s-9.968 6.397-12.523 7.912l-4.646 2.754-7.676-13.829c-4.222-7.607-7.912-14.731-8.2-15.832-.411-1.57.847-3.007 5.822-6.654 3.49-2.558 10.053-7.133 14.584-10.166l8.24-5.514-2.944-4.28c-3.179-4.619-8.139-7.563-12.686-7.528-1.567.012-4.649.851-6.849 1.864M1264 1387c0 .55-.198 1-.441 1s-.719-.45-1.059-1-.141-1 .441-1 1.059.45 1.059 1m-918.392 23.083c-2.69.435-6.29 1.348-8 2.029-6.192 2.464-16.769 10.004-23.017 16.407-8.509 8.722-15.727 19.353-21.623 31.853-5.357 11.358-8.678 22.663-9.614 32.725-1.285 13.833 3.809 29.402 11.938 36.486 2.314 2.016 6.683 4.848 9.708 6.292 4.745 2.265 6.807 2.625 15.021 2.625h9.521l6.752-3.324c10.739-5.287 22.907-17.715 32.083-32.769 5.7-9.352 11.458-23.569 14.296-35.295 2.181-9.01 2.49-12.122 2.049-20.612-.35-6.743-1.221-11.857-2.674-15.702-2.947-7.796-9.497-14.844-16.748-18.021-6.771-2.967-12.861-3.8-19.692-2.694m1267.642 18.98c-7.838 3.865-14.25 7.448-14.25 7.963s1.662 3.531 3.694 6.705c3.085 4.819 22.306 43.291 22.306 44.648 0 .382-2.369 1.789-14.746 8.755l-3.245 1.827-2.921-5.787c-1.607-3.183-7.06-14.986-12.119-26.23s-9.3-20.56-9.426-20.703c-.177-.202-27.291 12.477-28.285 13.227-.134.101 1.291 3.299 3.165 7.108a995 995 0 0 1 7.371 15.424c2.18 4.675 9.023 19.3 15.207 32.5 18.445 39.372 22.578 48.517 26.548 58.735l3.782 9.735 11.584-6.124c6.372-3.367 12.935-7.04 14.585-8.161a695 695 0 0 1 3.264-2.208c.144-.094-2.072-4.402-4.925-9.574-8.3-15.042-18.067-35.725-17.389-36.823.343-.555 4.468-3.005 9.167-5.444l8.543-4.435 9.742 20.15c5.358 11.082 10.321 21.599 11.03 23.371l1.288 3.223 12.64-6.42c6.952-3.53 13.439-7.008 14.416-7.728l1.777-1.309-6.242-11.994c-10.624-20.416-34.253-69.283-40.614-83.994-9.263-21.422-10.237-23.501-10.994-23.482-.387.01-7.115 3.18-14.953 7.045m-1253.079 3.592c2.549 2.306 2.329 7.54-.712 16.967-3.336 10.343-14.789 33.442-22.497 45.378-6.508 10.076-13.707 18.233-18.162 20.578-3.761 1.98-7.172 1.774-9.285-.562-1.45-1.602-1.692-3.094-1.258-7.75.296-3.171 1.548-8.691 2.782-12.266 2.843-8.235 10.692-23.989 17.098-34.317 6.103-9.84 17.26-24.036 20.759-26.414 5.443-3.698 8.49-4.135 11.275-1.614M404 1445.417c0 2.429-.85 6.367-1.889 8.75-1.038 2.383-11.549 23.908-23.357 47.833s-23.133 45.674-25.167 48.332-3.56 5.248-3.391 5.756c.17.509 4.132 3.648 8.806 6.975 11.528 8.208 28.674 16.559 38.01 18.512 8.038 1.682 13.225 1.371 21.478-1.288 6.929-2.232 15.368-10.765 18.588-18.794 1.911-4.767 2.404-7.834 2.412-14.993.007-7.781-.371-9.813-2.797-15-1.543-3.3-3.99-7.237-5.437-8.75l-2.63-2.75h2.582c1.42 0 5.488-.898 9.04-1.995 8.158-2.52 14.342-7.824 18.247-15.653 2.491-4.995 2.919-7.023 2.925-13.852.005-6.678-.466-9.035-2.85-14.263-3.919-8.596-13.33-17.37-25.124-23.424-10.609-5.445-22.408-9.813-26.506-9.813H404zm846.683.771c-.319.797-.556.56-.604-.605-.043-1.054.193-1.644.525-1.312s.368 1.195.079 1.917m263.877 31.883c-18.117 8.2-33.247 15.251-33.624 15.669-.376.418 1.035 5.26 3.135 10.76 3.08 8.066 4.167 9.935 5.623 9.662.993-.186 5.761-1.818 10.595-3.626l8.788-3.287 1.539 3.626c2.155 5.077 11.188 28.079 20.076 51.125 8.173 21.191 13.485 36.076 15.259 42.759l1.131 4.259 2.709-.654c4.332-1.045 18.983-6.296 24.21-8.678l4.796-2.186-5.945-13.5c-5.708-12.961-21.787-54.515-29.978-77.475-2.153-6.037-3.737-11.437-3.519-12 .219-.564 4.522-2.788 9.563-4.943 7.153-3.057 9.031-4.266 8.547-5.5-.342-.87-2.249-5.97-4.24-11.332-1.99-5.362-4.093-9.713-4.672-9.669-.579.045-15.876 6.791-33.993 14.99M433.135 1475.5c1.021 1.65 1.855 4.8 1.851 7-.008 5.352-3.836 13.283-8.306 17.208-2.001 1.756-5.109 3.451-6.909 3.766-4.188.733-9.366-.761-8.971-2.587.165-.763 3.484-8.241 7.377-16.619l7.077-15.231 3.011 1.731c1.657.953 3.848 3.082 4.87 4.732m64.041 12.586c-7.411 1.431-14.539 5.387-21.583 11.976-3.73 3.489-8.779 9.143-11.22 12.564s-6.854 11.318-9.805 17.547c-5.362 11.318-8.395 20.244-10.56 31.076-1.6 8.002-1.405 25.218.349 30.991 5.73 18.851 23.207 29.061 41.655 24.336 3.541-.908 8.475-2.836 10.963-4.285 6.193-3.606 15.113-13.056 20.534-21.753 2.48-3.979 6.304-11.374 8.498-16.433 6.239-14.384 8.095-22.632 8.686-38.605.402-10.869.154-15.544-1.109-20.904-.895-3.797-2.84-9.133-4.323-11.859-1.484-2.725-4.462-6.466-6.62-8.312-6.17-5.282-16.994-7.976-25.465-6.339M1457 1501.545c-8.525 2.989-15.666 5.438-15.869 5.444s.745 1.474 2.106 3.261 3.384 5.05 4.497 7.25c2.332 4.615 29.213 83.89 34.756 102.5 2.047 6.875 3.833 12.621 3.969 12.77.265.289 28.175-9.426 29.587-10.299.465-.287-.282-2.767-1.66-5.511-3.525-7.019-12.698-32.208-22.197-60.96-8.059-24.391-17.189-55.423-17.189-58.424 0-.867-.562-1.551-1.25-1.52s-8.225 2.501-16.75 5.489M510 1510c1.218 1.218 2 3.333 2 5.412 0 6.203-2.747 17.917-7.529 32.098-5.617 16.661-12.656 32.813-17.758 40.752-3.862 6.008-8.624 9.728-12.463 9.734-1.238.002-3.15-.896-4.25-1.996-1.519-1.519-2-3.333-2-7.542 0-12.628 6.034-31.639 17.048-53.715 6.203-12.433 10.228-18.838 14.096-22.433 2.125-1.974 6.146-4.081 8.106-4.247.413-.034 1.65.837 2.75 1.937m908 2.359c-7.578 2.701-37.064 15.982-40.54 18.259l-2.375 1.557 2.042 2.162c1.124 1.19 2.628 3.288 3.343 4.663 1.382 2.658 15.82 51.716 22.385 76.063 3.35 12.424 5.588 23.569 7.769 38.694.397 2.755.81 3.18 2.673 2.752 1.212-.278 6.253-1.425 11.203-2.549 10.856-2.465 45.668-12.811 46.821-13.915.827-.793-3.826-20.97-5.123-22.215-.384-.369-6.457 1.501-13.497 4.154-7.039 2.653-13.801 5.075-15.027 5.383l-2.229.559-4.273-15.383c-2.351-8.461-4.363-16.568-4.473-18.016l-.199-2.632 11.364-4.361c6.25-2.399 11.71-4.738 12.134-5.198s-.483-4.804-2.014-9.653c-1.532-4.849-2.975-9.008-3.209-9.241s-5.769 1.372-12.302 3.567c-6.534 2.195-12.185 3.991-12.56 3.991-.374 0-.914-1.013-1.201-2.25s-2.364-8.549-4.617-16.248c-2.252-7.7-4.095-14.064-4.095-14.143 0-.407 21.207-9.308 25.634-10.759l5.135-1.684-.941-4.208c-.517-2.314-1.625-5.258-2.462-6.542-1.679-2.574-7.035-5.178-10.584-5.145-1.255.012-5.207 1.064-8.782 2.338m-864.097-.609c-.053.412-.027 2.329.059 4.26.095 2.128-2.851 12.166-7.484 25.5-4.202 12.094-12.488 36.39-18.413 53.99s-11.091 32.732-11.479 33.627c-.533 1.228.591 2.426 4.58 4.88 2.908 1.789 8.222 4.384 11.81 5.767 5.102 1.966 8.971 2.619 17.749 2.995 6.979.299 13.01.032 15.941-.706 8.733-2.2 15.156-6.143 22.366-13.734 4.868-5.124 8.27-9.961 11.426-16.245 5.863-11.674 11.302-29.801 12.644-42.139 1.352-12.422.039-22.021-4.204-30.734-1.684-3.459-5.388-8.642-8.23-11.518s-7.979-6.709-11.414-8.518c-3.436-1.808-10.581-4.388-15.878-5.732-9.322-2.364-19.274-3.23-19.473-1.693m-148.542 11.3c1.911 1.128 4.177 3.121 5.034 4.43s1.85 4.199 2.206 6.424c.783 4.899-1.641 13.092-5.307 17.931-3.16 4.173-7.961 7.156-11.524 7.161-3.229.005-10.77-2.843-10.77-4.067 0-.47 2.739-6.608 6.086-13.641s6.771-14.475 7.608-16.538c.838-2.062 1.899-3.75 2.357-3.75s2.399.923 4.31 2.05m212.38 10.61c-.269.462-.123 3.792.323 7.399 1.124 9.078 4.878 58.895 5.082 67.441.169 7.108-.344 9.199-11.029 44.985-1.64 5.491-2.899 10.024-2.799 10.072s6.392 1.439 13.982 3.089c7.59 1.651 13.947 2.743 14.126 2.427s2.92-11.639 6.091-25.165l5.766-24.591 8.795-12.409c15.291-21.571 35.922-51.893 35.922-52.796 0-.477-2.587-1.802-5.75-2.944-5.932-2.142-13.522-4.284-13.789-3.891-4.818 7.093-10.313 15.535-17.375 26.697l-8.871 14.021-.64-17.748-.857-23.742-.218-5.994-10.591-3.18c-12.741-3.826-17.517-4.791-18.168-3.671m-33.931 5.596c4.253 3.527 5.309 13.761 2.776 26.906-2.04 10.591-7.194 26.002-11.949 35.729-4.347 8.893-11.001 17.211-15.717 19.651-2.713 1.402-10.92 2.066-10.92.883 0-.516 24.236-74.118 27.092-82.274l1.172-3.348 3.023.604c1.662.333 3.697 1.165 4.523 1.849m740.19 4.433c-5.189 1.839-36.828 13.759-39.656 14.941l-3.434 1.435 2.144 3.011c3.777 5.304 21.743 82.055 25.67 109.662l1.606 11.291 3.585-.608c1.972-.334 14.665-3.04 28.207-6.014s24.935-5.407 25.317-5.407.475-.787.205-1.75-1.253-6.138-2.185-11.5c-1.34-7.708-2.037-9.739-3.327-9.699-.898.028-7.707 1.998-15.132 4.378s-13.573 4.269-13.663 4.198-1.825-7.663-3.858-16.875c-2.032-9.211-3.478-17.311-3.213-18 .265-.688 5.151-2.765 10.858-4.614 5.707-1.85 10.688-3.65 11.069-4 1.063-.98-3.456-19.25-4.651-18.802-3.718 1.392-22.66 5.879-23.074 5.465-.706-.705-6.431-26.822-6.452-29.428-.012-1.595 1.172-2.63 4.734-4.137 2.612-1.106 8.688-3.279 13.5-4.829 7.823-2.521 8.75-3.076 8.75-5.247 0-4.386-2.313-10.261-4.814-12.228-1.581-1.244-3.922-1.904-6.571-1.853-2.263.043-4.79.318-5.615.61m-624.453 6.912c-.868 4.628-9.916 29.978-13.665 38.287-1.585 3.514-2.882 6.609-2.882 6.879 0 .93 10.318-.88 13.037-2.286 3.932-2.034 7.567-6.734 11.901-15.389 3.405-6.802 11.062-27.648 11.062-30.119 0-.561-3.972-.973-9.389-.973h-9.388zm41.953 12.018c-11.492 2.925-19.537 8.224-24.615 16.213-1.633 2.567-3.905 7.744-5.05 11.504-1.619 5.317-1.973 8.539-1.591 14.5.856 13.376 3.797 18.718 21.704 39.416 5.419 6.264 7.597 12.03 6.584 17.429-.805 4.29-5.725 9.925-9.283 10.633-4.722.938-10.966-1.274-15.203-5.385-2.172-2.108-4.767-5.427-5.767-7.377l-1.819-3.545-6.73 6.313c-3.701 3.472-6.73 6.864-6.73 7.536 0 2.556 4.306 9.503 8.474 13.67 2.384 2.385 6.077 5.225 8.205 6.31 5.573 2.843 15.441 4.541 22.253 3.829 9.109-.952 16.42-4.163 22.12-9.716 9.601-9.351 14.612-25.604 12.213-39.61-1.706-9.959-6.021-17.581-15.761-27.839-8.525-8.979-13.504-16.806-13.504-21.228 0-3.688 2.509-8.741 5.514-11.104 1.516-1.192 3.978-2.168 5.473-2.168 3.92 0 9.018 3.843 11.605 8.749 1.232 2.337 2.421 4.79 2.641 5.45.242.726 2.916-.756 6.767-3.749 3.502-2.723 6.755-5.215 7.23-5.538s-.055-3.042-1.178-6.042c-2.448-6.546-8.722-13.394-14.684-16.032-4.317-1.909-15.101-3.178-18.868-2.219m521 1.324c-15.842 2.69-15.298 2.44-15.925 7.311-.301 2.335-1.231 15.271-2.068 28.746-.836 13.475-1.793 27.146-2.127 30.38l-.606 5.88-4.7-10.88c-4.132-9.565-22.956-50.195-23.765-51.295-.281-.382-27.387 4.907-28.143 5.491-.183.142.622 2.416 1.789 5.054 3.29 7.439 7.064 33.039 12.998 88.176 1.676 15.569 3.047 28.867 3.047 29.553 0 .934 1.441 1.066 5.75.528 3.162-.395 6.65-.763 7.75-.818 4.59-.229 4.625-.593 2.023-21.124-1.356-10.695-3.378-25.943-4.494-33.884-1.116-7.942-2.012-14.692-1.992-15 .038-.573 1.181 2.079 16.453 38.189 4.826 11.412 9.191 20.75 9.7 20.75s3.994-.507 7.745-1.126l6.819-1.127.57-5.123c.314-2.818 1.513-16.374 2.665-30.124s2.368-26.575 2.703-28.5c.473-2.726 1.331.591 3.882 15 1.801 10.175 4.519 26.263 6.04 35.75 2.365 14.75 3.02 17.25 4.525 17.25 1.783 0 22.021-3.704 24.96-4.569 1.436-.422 1.372-1.458-.631-10.2l-5.322-23.231c-6.363-27.768-12.998-60.032-15.682-76.25-1.525-9.213-3.041-16.695-3.368-16.627-.328.067-5.096.886-10.596 1.82m-444.549 15.754-2.548.397-.105 8.203c-.103 8.081-5.574 53.612-11.259 93.703-1.599 11.275-2.599 20.809-2.223 21.187 1.385 1.391 21.21 4.813 27.881 4.813 8.042 0 16.31-1.956 23.354-5.526 7.516-3.808 15.79-12.675 20.781-22.268 2.363-4.542 5.443-12.634 6.843-17.982 2.072-7.911 2.57-12.242 2.669-23.224.101-11.254-.253-14.799-2.125-21.309-2.701-9.395-6.258-16.715-10.9-22.436-7.503-9.246-17.729-13.751-34.603-15.245-11.321-1.002-13.138-1.034-17.765-.313m296.247 5.982c-2.365.837-6.997 4.018-10.292 7.069-4.527 4.191-6.935 7.527-9.854 13.649-2.124 4.457-4.688 11.253-5.698 15.103-1.467 5.595-1.832 10.715-1.817 25.5l.019 18.5 2.762 10c5.303 19.198 13.64 31.877 24.455 37.188 4.99 2.45 6.885 2.812 14.727 2.812 7.936 0 9.709-.348 15-2.944 3.3-1.619 8.203-5.203 10.895-7.966l4.896-5.022-.654-14.534c-.932-20.684-2.733-42.396-3.596-43.332-.405-.438-8.005-.031-16.889.905l-16.152 1.702v2.699c0 1.484.292 5.489.648 8.899l.648 6.2 5.247-.656 5.247-.655.593 3.852c.326 2.119 1.09 8.705 1.697 14.637.969 9.468.907 11.086-.511 13.25-2.989 4.562-9.003 2.463-12.47-4.351-5.937-11.672-9.54-34.563-8.91-56.602.341-11.89.752-14.855 2.645-19.045 1.233-2.73 2.962-5.759 3.841-6.731.88-.972 3.096-2.048 4.925-2.391 2.468-.463 4.245-.056 6.887 1.577 1.959 1.211 4.237 3.508 5.063 5.105.826 1.596 1.905 2.903 2.398 2.903 1.479 0 10.052-10.582 10.052-12.407 0-4.551-6.905-12.409-13.218-15.042-4.741-1.978-16.824-1.909-22.584.128M921 1588.935c-9.36 2.858-18.759 11.633-24.268 22.659-7.529 15.068-10.984 30.531-11.04 49.406-.031 10.545.431 15.412 2.112 22.234 1.183 4.803 3.556 11.553 5.274 15 3.606 7.236 9.767 14.076 15.214 16.89 2.085 1.078 6.271 2.418 9.301 2.978 6.71 1.24 15.015-.195 20.965-3.623 2.231-1.286 5.92-4.359 8.197-6.829 4.41-4.784 9.927-14.936 12.581-23.15 2.799-8.664 4.656-23.524 4.66-37.292.006-20.114-3.486-34.256-11.19-45.326-4.167-5.986-10.154-10.837-15.705-12.726-3.772-1.283-12.241-1.399-16.101-.221m94.75 4.81c-4.812.183-8.75.696-8.75 1.14s.788 2.339 1.75 4.211l1.75 3.404-.119 57.682-.12 57.683 8.872.317 8.872.318.177-17.5c.098-9.625.07-25.364-.061-34.975s-.057-17.262.165-17c.221.261 6.564 15.325 14.094 33.475s14.094 33.651 14.586 34.447c.687 1.109 3.289 1.448 11.165 1.453l10.271.006-.202-24.453c-.334-40.418-1.217-85.987-1.815-93.741l-.563-7.287-8.48.287-8.479.288.112 25c.062 13.75.3 28.15.529 32l.417 7-2.062-4.5c-1.135-2.475-6.568-15.75-12.073-29.5s-10.647-26.237-11.424-27.75c-1.237-2.407-1.94-2.724-5.638-2.544-2.323.113-8.161.355-12.974.539m-43.433 30.51c-.101 16.635-.681 44.141-1.288 61.124s-.92 31.064-.695 31.289c.225.224 6.542.686 14.038 1.024l13.628.616.023-28.404c.023-28.804 1.369-75.42 2.56-88.654l.652-7.25-14.368.005-14.367.005zm-122.861-21.876c5.187 3.399 8.115 16.127 7.046 30.621-1.378 18.685-4.86 34.685-9.605 44.143-2.55 5.081-9.242 10.562-13.505 11.059l-3.487.408.579-5.055 5.048-43.938c2.457-21.386 4.468-39.107 4.468-39.381 0-.955 7.229.684 9.456 2.143m83.358 6.923c1.191 1.268 2.617 4.699 3.174 7.637 2.174 11.463.414 50.381-2.96 65.435-2.264 10.102-6.395 16.626-10.528 16.626-1.183 0-3.09-1.013-4.236-2.25-3.56-3.841-4.658-10.15-4.571-26.25.092-16.979 2.361-37.248 5.464-48.813 1.516-5.649 2.994-8.765 5.338-11.25 1.782-1.89 3.897-3.437 4.699-3.437.801 0 2.431 1.036 3.62 2.302"/></svg>