<svg xmlns="http://www.w3.org/2000/svg" viewBox="0 0 2048 2048"><path fill-rule="evenodd" d="M955 420.112c-107.326 4.707-206.5 17.275-296 37.512-71.389 16.141-133.941 36.108-169 53.943-36.073 18.352-51.233 34.168-45.984 47.975 1.016 2.673 1.016 2.673 5.25-.788 6.697-5.473 18.612-13.187 26.234-16.985 7.433-3.704 19.466-8.136 20.172-7.43.233.232-3.598 2.96-8.513 6.06C470.148 551.133 450 568.423 450 572.287c0 1.014.476 2.734 1.057 3.82 1.048 1.958 1.082 1.957 3.75-.121 5.885-4.583 21.021-14.358 26.64-17.203 8.451-4.279 22.573-9.252 22.534-7.935-.011.359-3.048 2.401-6.75 4.539-14.346 8.285-31.497 20.918-38.591 28.426-2.473 2.617-2.729 3.409-1.892 5.857.532 1.556 1.594 2.785 2.36 2.731s5.365-2.88 10.22-6.278c4.856-3.399 12.506-8.033 17-10.299 9.077-4.576 23.818-10.041 24.641-9.134.292.321.043.76-.554.975-2.43.877-21.308 12.78-28.633 18.053-4.315 3.107-10.57 8.307-13.9 11.555-5.252 5.124-5.967 6.258-5.397 8.566.361 1.464 1.061 3.075 1.556 3.581.542.555 4.243-1.305 9.328-4.689 13.508-8.99 23.821-13.794 41.381-19.278.688-.215 1.25.015 1.25.511s-.839 1.167-1.864 1.493c-3.713 1.178-25.104 14.43-32.778 20.305-11.886 9.1-13.746 11.354-12.936 15.672.368 1.961 1.118 3.566 1.666 3.566.549 0 3.341-1.74 6.205-3.866 6.295-4.673 17.954-11.469 25.097-14.628 7.083-3.132 21.61-7.535 21.61-6.549 0 .437-3.263 2.493-7.25 4.568-11.46 5.964-29.168 17.999-36.302 24.673-5.998 5.611-6.484 6.371-5.888 9.209.358 1.701.941 3.389 1.295 3.751.355.361 4.02-1.611 8.145-4.383s12-7.206 17.5-9.852c10.109-4.864 27.308-10.494 28.404-9.298.328.357-.079.88-.904 1.164-3.539 1.214-20.405 10.387-27.313 14.854-4.131 2.672-10.925 7.771-15.099 11.332-7.871 6.718-8.605 8.219-6.598 13.497.989 2.603.989 2.603 8.656-2.571 4.217-2.845 12.21-7.337 17.761-9.981 9.704-4.623 26.875-10.326 28.977-9.625.557.185-4.814 3.375-11.936 7.088-15.073 7.858-29.982 17.644-36.616 24.033-4.641 4.47-4.857 5.16-3.257 10.38.273.889 2.212.065 6.161-2.615 8.618-5.85 23.207-12.884 34.62-16.692 11.312-3.774 18.664-5.605 18.604-4.633-.022.354-3.96 2.439-8.75 4.633-17.63 8.073-38.857 21.277-45.584 28.355-2.458 2.587-2.777 3.539-2.204 6.59.368 1.961.925 3.566 1.239 3.566s2.735-1.589 5.38-3.53c9.498-6.972 33.444-17.188 44.459-18.967 3.197-.516 1.291.796-9.5 6.541-15.316 8.154-28.013 16.364-34.945 22.596-4.73 4.253-4.73 4.253-3.701 9.557.567 2.917 1.138 5.46 1.27 5.651.131.192 2.407-1.313 5.057-3.344 16.226-12.433 63.391-28.947 118.319-41.428 43.729-9.935 100.102-19.884 153-27.002 82.937-11.159 171.886-17.042 258-17.064 65.115-.016 112.007 1.942 179.5 7.496 24.633 2.027 22.694 2.203 20.975-1.912-1.239-2.964-1.229-4.059.073-8.443 2.811-9.465 14.292-18.161 35.754-27.082 10.661-4.431 10.661-4.431 13.022-10.5 1.298-3.338 2.256-6.206 2.129-6.374s-1.518.889-3.092 2.35c-5.608 5.206-12.344 7.143-19.358 5.567-5.293-1.189-8.731-4.39-10.074-9.377-1.049-3.896-1.049-3.896-5.754.504-7.141 6.68-13.253 9.876-19.925 10.418-7.13.58-11.952-1.623-14.57-6.657-1.465-2.819-1.716-4.96-1.286-11 .932-13.112 11.336-46.386 22.49-71.922 2.264-5.183 4.116-9.642 4.116-9.909s-4.052 5.322-9.005 12.422c-31.947 45.799-54.458 73.409-59.85 73.409-4.245 0-4.562-2.244-2.158-15.266 1.759-9.524 10.021-44.756 13.656-58.234.297-1.1-2.595 4.101-6.426 11.557-12.712 24.742-24.414 41.949-37.081 54.523-12.198 12.108-24.079 17.42-38.963 17.42-10.892 0-17.173-3.654-17.173-9.99 0-3.41 4.342-9.619 8.079-11.551 5.469-2.828 8.972.447 5.453 5.1-2.217 2.931-1.914 7.166.611 8.517 3.003 1.608 13.536 1.339 18.618-.475 13.572-4.843 27.751-21.173 43.934-50.601 13.471-24.496 25.305-46.861 25.305-47.823 0-2.269-23.075-3.015-33.566-1.085-8.178 1.504-19.34 6.858-24.811 11.901-12.079 11.134-14.273 29.624-4.088 34.456 4.217 2.002 4.993 3.21 3.34 5.201-.978 1.179-2.613 1.454-6.657 1.118-4.548-.377-5.919-1.003-9.04-4.125-3.676-3.679-3.678-3.687-3.678-12.412 0-7.716.348-9.418 2.996-14.643 10.693-21.106 39.339-32.614 71.368-28.672 5.151.634 10.887 1.789 12.748 2.566 5.608 2.344 5.992 4.633 3.047 18.174-2.16 9.931-11.826 52.733-14.192 62.844-.702 3-.702 3 2.377-.5 1.694-1.925 7.932-10.25 13.864-18.5 18.352-25.526 27.331-37.757 32.385-44.113 11.94-15.015 22.697-20.555 23.707-12.209.165 1.363-2.703 10.542-6.374 20.4-7.672 20.605-16.239 46.255-20.49 61.345-4.703 16.699-3.629 24.066 3.308 22.678 5.565-1.113 10.286-4.032 15.966-9.874 4.396-4.52 7.067-8.683 11.607-18.09 6.122-12.684 10.232-17.637 14.637-17.637 4.656 0 4.831 2.083 1.014 12.083-4.646 12.175-7.798 24.466-7.044 27.47 1.387 5.524 7.832 5.488 14.338-.082 5.04-4.314 9.138-10.765 13.32-20.971 3.922-9.573 8.528-14.791 12.637-14.319 2.041.234 2.87.945 3.114 2.672.183 1.294-2.454 10.657-5.86 20.807s-5.991 18.655-5.745 18.901c.722.722 11.892-6.838 17.618-11.924 2.899-2.575 5.695-4.421 6.213-4.101 3.957 2.446-4.271 11.316-17.938 19.338-8.982 5.273-8.982 5.273-12.61 13.949-7.096 16.971-14.954 28.351-23.743 34.386-3.732 2.561-3.819 2.735-1.607 3.197 1.286.269 5.039.77 8.339 1.114 11.295 1.176 55.987 7.571 77.5 11.09 84.858 13.879 154.353 30.924 194 47.584 11.771 4.946 21.04 10.024 25.591 14.02 1.912 1.679 3.726 2.802 4.031 2.497 1.35-1.35 2.355-8.886 1.418-10.635-2.562-4.788-20.065-16.863-39.395-27.179-6.52-3.48-11.333-6.501-10.696-6.713 3.82-1.274 31.38 10.074 44.836 18.461 4.033 2.514 7.468 4.41 7.633 4.213s.61-1.645.988-3.218c.597-2.485.123-3.39-3.609-6.886-6.28-5.884-23.424-16.976-36.71-23.753-6.373-3.25-12.487-6.597-13.587-7.438-1.885-1.44-1.798-1.492 1.5-.902 9.73 1.739 34.452 12.292 47.279 20.183 4.537 2.791 6.905 3.754 7.161 2.913 1.491-4.902 1.267-5.815-2.288-9.319-5.223-5.147-23.686-17.207-37.396-24.425-10.192-5.367-14.269-8.013-12.344-8.013.291 0 6.025 1.805 12.741 4.01 11.712 3.846 28.479 11.909 37.717 18.138 2.403 1.62 4.578 2.737 4.834 2.482.255-.256.7-2.221.988-4.368.505-3.769.304-4.095-5.834-9.463-8.18-7.152-19.929-14.924-33.815-22.366-6.074-3.256-11.043-6.236-11.043-6.622 0-.937 8.429 1.589 19.5 5.843 9.554 3.671 18.037 8.051 28.28 14.603 3.454 2.209 6.486 3.81 6.739 3.557s.753-1.925 1.112-3.717c.599-2.997.193-3.689-5.095-8.69-6.69-6.327-22.106-16.778-35.262-23.907-8.499-4.606-10.897-6.5-8.23-6.5.574 0 5.411 1.625 10.75 3.611 11.985 4.459 26.789 11.954 35.271 17.857 6.393 4.449 6.407 4.453 7.634 2.245 2.001-3.6 1.581-4.576-4.449-10.333-6.707-6.404-18.386-14.533-33.497-23.314-9.503-5.523-13.073-8.066-11.326-8.066.3 0 5.165 1.736 10.809 3.858 13.141 4.94 21.962 9.42 33.539 17.037 9.276 6.102 9.276 6.102 10.25 3.538.536-1.41.975-3.154.975-3.877 0-2.098-12.741-13.512-22.52-20.174-4.939-3.365-13.158-8.487-18.264-11.382-5.107-2.895-9.093-5.457-8.858-5.691 2.008-2.008 32.695 12.327 45.115 21.075 4.386 3.089 8.338 5.616 8.783 5.616.444 0 1.19-1.012 1.656-2.25 1.653-4.388-3.288-10.097-18.426-21.293-6.909-5.109-27.04-17.758-29.915-18.796-.589-.213-.783-.699-.431-1.081.907-.982 17.807 5.709 26.799 10.61 4.158 2.266 11.802 7.031 16.986 10.587 8.793 6.032 9.513 6.344 10.75 4.653.729-.997 1.325-2.445 1.325-3.218 0-2.303-12.872-14.948-22-21.613-4.675-3.414-12.399-8.658-17.165-11.653s-8.489-5.623-8.274-5.839c.664-.667 12.531 3.95 20.809 8.095 8.551 4.282 21.958 12.853 27.802 17.775 3.672 3.091 3.672 3.091 4.406.807 1.297-4.033.596-11.522-1.454-15.541-2.537-4.973-11.89-13.644-21.857-20.265-9.128-6.062-39.687-21.258-53.267-26.486-40.374-15.543-92.395-30.959-139.772-41.419-88.334-19.502-200.52-33.681-293.228-37.061-31.002-1.131-119.322-1.07-146 .1m-59.5 58.78c0 2.823-4.936 4.978-13.772 6.013-12.679 1.486-16.301 2.852-22.447 8.469-9.359 8.553-15.332 18.749-21.381 36.493l-2.852 8.367 9.337-.7c7.846-.588 9.43-.459 9.917.81.966 2.518-1.813 3.791-11.41 5.224-5.039.753-9.265 1.496-9.391 1.651-.125.154-1.928 5.456-4.006 11.781-11.217 34.14-28.843 53.874-53.252 59.619-12.041 2.834-26.454.29-32.955-5.819-5.276-4.956-6.59-15.448-2.841-22.697C744.189 580.867 751.806 575 757.46 575c3.607 0 3.174 1.375-1.91 6.061-10.614 9.783-11.453 22.907-1.779 27.809 8.207 4.16 18.452 3.566 29.692-1.72 10.321-4.854 19.127-15.484 25.621-30.93 3.199-7.607 9.916-26.854 9.916-28.412 0-1.402-9.937 2.916-16.398 7.126-6.837 4.454-7.602 4.726-7.602 2.701 0-4.159 9.882-11.739 19.843-15.219 6.557-2.291 6.557-2.291 10.626-13.104 6.283-16.689 12.431-27.084 21.939-37.091 4.065-4.279 4.065-4.279-3.421-3.679-44.052 3.529-60.122 7.804-73.217 19.476-6.964 6.206-11.248 15.049-10.501 21.676.764 6.782 4.775 10.068 13.174 10.795 2.842.246 3.023 2.16.369 3.897-6.276 4.108-17.682 2.415-21.478-3.188-2.832-4.179-2.491-16.186.645-22.698 3.654-7.589 14.98-18.304 24.57-23.245 16.075-8.282 33.351-11.671 77.451-15.193l30-2.396c7.6-.608 10.5-.27 10.5 1.226m135.299 25.183c.164 1.406-1.299 6.968-3.25 12.36S1024 526.637 1024 527.124c0 .486 4.041.798 8.979.693 4.939-.105 9.311.139 9.715.544.404.404.254 1.501-.333 2.437-.845 1.345-3.082 1.807-10.667 2.204-5.279.276-10.022.951-10.54 1.5-1.53 1.621-8.757 22.279-11.117 31.779-2.263 9.107-2.069 14.386.565 15.396.777.299 2.991.247 4.92-.115 4.661-.875 15.204-10.765 21.636-20.296 2.696-3.996 5.353-7.266 5.904-7.266 3.738 0 .706 7.523-6.691 16.605-9.39 11.528-18.02 17.374-25.671 17.387-2.639.004-6.066-.647-7.615-1.448-7.661-3.962-8.078-17.35-1.155-37.125 2.295-6.555 4.436-12.739 4.757-13.742.536-1.67-.049-1.799-7.008-1.54-8.158.304-9.717-.265-8.038-2.935.836-1.33 2.844-1.765 9.194-1.992 8.124-.29 8.124-.29 13.704-11.198 5.653-11.054 11.074-17.421 14.308-16.808.918.174 1.786 1.45 1.952 2.871m-142.37 7.496c3.688 3.688.05 12.429-5.173 12.429-6.05 0-8.353-6.994-3.801-11.545 2.802-2.803 6.673-3.184 8.974-.884m89.33 19.424c7.096 4.326 9.368 13.542 4.959 20.107-1.486 2.212-3.232 3.508-5 3.714-3.185.371-3.156.476-1.189-4.23 1.885-4.512.584-10.564-3.053-14.201-3.046-3.046-5.926-3.026-9.016.064-3.23 3.23-2.312 5.638 5.504 14.432 6.38 7.178 9.979 13.846 10.014 18.553.012 1.614-.943 4.928-2.122 7.364-5.799 11.98-26.712 15.859-36.608 6.791-2.904-2.662-3.589-4.083-3.993-8.285-.41-4.265-.141-5.418 1.69-7.249 1.406-1.406 3.128-2.066 4.866-1.866 2.433.281 2.74.787 3.227 5.311.891 8.281 3.675 11.5 9.946 11.5 4.447 0 8.638-2.477 9.792-5.786 1.419-4.071-.55-8.992-6.157-15.388-6.564-7.488-8.989-12.849-8.356-18.47 1.2-10.64 16.307-17.964 25.496-12.361m-37.982.562c4.419 3.095 1.291 15.362-5.557 21.79-5.693 5.345-9.694 1.073-6.765-7.223 2.264-6.412 1.941-6.898-2.038-3.07-5.217 5.016-13.321 17.597-20.903 32.446-3.65 7.15-7.373 13.565-8.273 14.255-1.734 1.33-5.214.722-6.527-1.14-.433-.613-.57-2.597-.306-4.407.48-3.293.48-3.293-4.483 1.17-2.73 2.454-6.897 5.398-9.26 6.542-4.552 2.204-12.501 2.773-15.594 1.118-3.059-1.637-4.395-6.456-3.64-13.127.763-6.75 7.747-30.355 10.694-36.146 2.404-4.725 6.04-7.191 9.368-6.356 3.612.906 3.323 3.683-2.532 24.325-5.155 18.175-6.063 23.564-4.269 25.358 2.813 2.813 11.758-3.595 19.622-14.056 3.38-4.497 5.333-8.717 8.198-17.719 5.692-17.884 8.515-22.317 14.211-22.317 3.564 0 3.39 4.141-.703 16.763-1.559 4.805-2.705 8.87-2.548 9.032s1.529-1.862 3.05-4.5c5.339-9.261 12.927-18.624 17.383-21.45 5.084-3.224 7.671-3.53 10.872-1.288m662.071 77.289c-2.017 5.198-6.894 20.497-11.304 35.461-5.303 17.998-8.498 32.424-12.001 54.193-3.845 23.895-5.494 28.62-12.369 35.445-9.849 9.778-24.425 13.65-48.117 12.78-16.858-.618-22.975-1.703-55.466-9.831-28.763-7.197-43.287-9.804-58.591-10.52-18.225-.851-31.627 2.346-42.633 10.17-4.646 3.304-4.646 3.304-.757 4.316 2.14.556 16.49 3.511 31.89 6.566s39.25 8.481 53 12.056c77.997 20.283 105.857 26.57 152.939 34.513 25.583 4.316 56.97 8.399 77.561 10.089 17.192 1.411 65.543 1.413 82.5.002 26.052-2.166 57.18-7.128 73.826-11.768 5.826-1.624 5.826-1.624-10.215-9.386-16.519-7.992-28.772-15.405-40.111-24.268-8.987-7.023-25.403-22.123-29.026-26.696-3.003-3.792-3.003-3.792 6.262-11.052 33.774-26.467 59.762-54.719 76.927-83.627 8.581-14.452 9.837-16.763 9.837-18.107 0-.522-2.588.094-5.75 1.369-23.826 9.61-63.717 15.371-97.25 14.047-41.174-1.627-80.19-8.896-123.611-23.031-16.511-5.375-16.511-5.375-17.541-2.721M436.5 611.7c-80.606 25.753-154.396 29.595-214.703 11.179C214.81 620.746 208.84 619 208.53 619c-1.502 0 11.194 22.014 18.744 32.5 17.978 24.971 40.666 48.318 66.461 68.392 10.236 7.966 10.236 7.966 6.4 12.787-4.884 6.137-18.852 19.483-26.635 25.448-13.762 10.546-35.046 22.724-51.381 29.395-2.96 1.209-4.972 2.451-4.471 2.76 3.578 2.212 37.154 8.804 56.852 11.162 30.798 3.687 72.88 4.73 101.55 2.518 50.387-3.888 128.227-17.703 191.95-34.068 58.03-14.903 70.391-17.83 99-23.439 16.225-3.181 29.725-5.98 30-6.22 1.162-1.011-7.656-7.285-13.561-9.649-9.187-3.678-18.948-4.939-32.939-4.257-15.887.774-25.526 2.505-59.5 10.687-36.302 8.742-47.43 10.41-64.5 9.664-23.97-1.047-38.782-7.502-44.157-19.242-1.376-3.005-3.367-11.171-4.768-19.549-4.047-24.217-5.562-31.771-9.702-48.389-3.945-15.838-15.75-52.606-16.819-52.386-.305.062-6.854 2.126-14.554 4.586m818 .26c-11.588 5.639-17.887 10.651-19.489 15.507-1.161 3.516-.201 7.039 2.389 8.768 3.596 2.401 11.595-1.089 17.076-7.451 3.931-4.562 10.813-15.798 11.965-19.534.991-3.213-.434-2.89-11.941 2.71m99.968 58.091c-.747 1.21-4.316 24.672-6.457 42.449-2.712 22.527-2.709 22.5-2.372 22.5.162 0 3.022-1.764 6.357-3.919 15.243-9.852 30.758-13.628 52.504-12.78 16.335.637 26.375 2.465 61.689 11.234 31.922 7.926 44.473 9.864 59.811 9.237 15.958-.652 30-5.29 30-9.91 0-2.401-7.097-7.376-18.446-12.93-23.351-11.427-74.765-26.507-125.616-36.844-32.957-6.699-56.615-10.42-57.47-9.037m-680.846 3.477c-88.307 15.639-153.668 35.367-170.944 51.597-4.979 4.678-5.103 4.922-3.238 6.369 6.227 4.828 24.638 8.082 39.56 6.992 11.775-.86 28.345-3.835 47.911-8.602 9.124-2.222 24.014-5.617 33.089-7.542 36.7-7.789 63.989-4.924 83.536 8.768 3.133 2.195 5.912 3.775 6.176 3.511.82-.82-1.644-20.716-5.25-42.384-1.898-11.405-3.453-21.074-3.456-21.487-.011-1.423-8.566-.555-27.384 2.778m352.003 33.941c-4.948 1.764-10.264 6.906-11.729 11.347-2.82 8.543 1.721 19.745 9.42 23.241 13.5 6.128 28.165-2.493 28.083-16.511-.053-9.155-5.237-16.028-13.899-18.427-5.1-1.412-7.096-1.354-11.875.35m-65.595 1.644c-8.076 3.223-12.823 11.11-11.6 19.272 1.481 9.871 9.455 16.049 19.833 15.365 18.638-1.228 22.505-26.045 5.278-33.87-4.418-2.007-9.659-2.305-13.511-.767m125.96 4.137c-7.747 5.272-9.98 13.637-5.805 21.75 2.581 5.018 8.916 9 14.315 9 1.692 0 5.084-1.013 7.538-2.25 4.98-2.511 8.962-8.843 8.962-14.25 0-4.469-3.974-11.634-7.898-14.242-4.677-3.108-12.552-3.112-17.112-.008m-866.777 1.889c-4.291 2.747-6.214 6.637-6.209 12.561.007 8.701 5.919 14.617 14.618 14.628 14.397.018 19.637-18.937 7.48-27.058-4.453-2.975-11.359-3.032-15.889-.131M905 714.706c-4.74 1.733-9 8.285-9 13.843 0 11.526 12.833 18.798 22.791 12.915 6.777-4.003 8.978-14.247 4.393-20.441-4.301-5.81-12.13-8.53-18.184-6.317m915.5.248c-4.399 1.82-6.857 5.827-7.296 11.899-.784 10.848 4.674 16.555 15.187 15.878 5.408-.348 6.206-.718 9.75-4.516 3.431-3.679 3.859-4.702 3.859-9.226 0-6.268-1.912-10.153-6.344-12.892-3.539-2.188-11.228-2.768-15.156-1.143m-677.656 5.301c-3.433 2.902-4.848 5.81-4.829 9.929.02 4.517 1.869 7.821 5.897 10.536 5.958 4.015 12.625 2.574 16.808-3.632 3.885-5.765 2.444-13.785-3.134-17.44-3.785-2.48-11.464-2.164-14.742.607m-285.535.849c-6.136 1.774-9.126 9.814-6.112 16.429 1.207 2.648 7.326 6.467 10.362 6.467 3.141 0 8.54-3.29 9.985-6.085 3.167-6.124.944-13.506-4.901-16.28-3.825-1.815-4.72-1.866-9.334-.531m-688.039 1.324c-6.348 2.867-8.996 11.133-5.754 17.965 4.032 8.495 17.921 8.936 22.75.721 1.519-2.585 2.06-5.478 1.845-9.879-.061-1.245-1.589-3.877-3.395-5.848-2.621-2.86-4.186-3.668-7.75-4.001-2.645-.247-5.783.178-7.696 1.042m1023.437.588c-3.629 2.855-5.173 8.041-3.712 12.468 1.653 5.009 5.303 7.521 10.89 7.494 8.851-.043 13.726-8.153 9.92-16.506-2.454-5.386-12.152-7.346-17.098-3.456m680.793-.613c-5.347 2.36-7 5.141-7 11.779 0 5.653.206 6.16 3.86 9.51 3.647 3.342 4.168 3.512 9.415 3.077 4.87-.404 5.979-.925 9.004-4.225 3.219-3.512 3.42-4.125 3.005-9.139-.499-6.012-2.469-8.913-7.502-11.043-3.98-1.685-6.899-1.674-10.782.041m-1061 .313c-3.228.772-7.427 5.377-8.081 8.862-1.195 6.37 4.603 13.422 11.035 13.422 6.885 0 12.381-6.738 11.093-13.601-.622-3.315-5.49-8.399-8.042-8.399-.738 0-1.941-.172-2.673-.381-.733-.21-2.232-.166-3.332.097m426.829 2.73c-9.468 4.154-5.867 18.554 4.64 18.554 6.966 0 11.644-6.691 9.053-12.947-2.397-5.787-8.029-8.093-13.693-5.607m-1118.116 5.061c-4.549 1.976-6.84 7.456-5.287 12.641 1.543 5.15 5.254 7.852 10.786 7.852 3.576 0 5.012-.57 7.365-2.923 2.336-2.336 2.923-3.798 2.923-7.278 0-5.226-2.089-8.52-6.599-10.405-4.087-1.708-5.025-1.696-9.188.113m1799.71 2.416c-2.286 2.286-2.923 3.822-2.923 7.05 0 8.137 4.678 12.817 11.695 11.701 5.591-.889 9.305-5.386 9.305-11.267 0-3.708-.547-5.108-2.923-7.484-2.393-2.393-3.767-2.923-7.577-2.923s-5.184.53-7.577 2.923m-637.288.15c-1.911 1.503-2.635 2.994-2.635 5.427 0 3.594 3.646 7.5 7 7.5s7-3.906 7-7.5-3.646-7.5-7-7.5c-.952 0-2.916.933-4.365 2.073m-518 1c-5.068 3.986-2.457 11.927 3.922 11.927 6.822 0 9.752-6.782 4.988-11.545-2.998-2.999-5.45-3.104-8.91-.382m-687.18 4.382c-3.118 3.117-3.202 7.598-.205 10.952 3.467 3.88 6.848 4.223 10.592 1.073 2.534-2.133 3.158-3.416 3.158-6.496 0-7.171-8.453-10.622-13.545-5.529M1964 739c-4.615 4.615-.912 13 5.742 13 3.622 0 7.258-3.848 7.258-7.68 0-5.944-8.782-9.538-13-5.32M743.5 824.664c-23.896 3.743-45.761 16.937-60.513 36.514-17.189 22.812-26.289 54.551-26.325 91.822-.061 62.933 24.13 107.114 66.988 122.344 11.668 4.146 22.405 5.759 38.35 5.76 30.644.003 51.232-7.707 70.866-26.539 18.582-17.824 29.707-43.211 33.771-77.065 3.776-31.448-2.146-73.055-14.102-99.087-8.479-18.464-23.56-34.645-40.306-43.246-5.567-2.86-14.251-6.266-19.819-7.774-8.76-2.373-11.999-2.715-27.91-2.942-9.9-.141-19.35-.045-21 .213m128.82 3.945c-1.03 2.685.407 64.626 1.57 67.641 1.002 2.599 1.409 2.75 7.391 2.75 6.331 0 6.331 0 8.055-8.99 2.549-13.3 5.177-20.946 9.493-27.625C905.618 851.881 913.962 847 925.126 847H931v96.257c0 59.609-.372 97.552-.976 99.66-1.876 6.54-6.727 9.45-19.236 11.539-3.272.547-3.789 1.031-4.362 4.089-.358 1.908-.348 5.49.023 7.962.674 4.493.674 4.493 42.362 4.489 22.929-.002 48.119-.297 55.977-.657l14.288-.654-.288-8.092c-.288-8.093-.288-8.093-8.792-8.676-8.748-.6-11.781-1.613-15.841-5.292-5.727-5.19-5.528-3.03-6.374-69.125-.429-33.55-.668-76.75-.531-96l.25-35 6 .093c7.583.117 14.434 3.442 20.376 9.888 5.293 5.742 9.396 14.343 13.509 28.32 3.148 10.699 3.148 10.699 10.798 10.99 7.649.29 7.649.29 8.286-6 .35-3.46.5-19.116.334-34.791l-.303-28.5-86.779-.256c-79.209-.233-86.834-.114-87.401 1.365m191.287-.027c-.847 2.207-.732 11.686.158 13.013.404.603 2.524 1.379 4.712 1.724 4.823.763 8.356 3.258 11.023 7.786 1.874 3.182 2.041 5.844 2.647 42.395.356 21.45.693 63.427.75 93.282.112 58.825.122 58.698-5.337 62.992-1.475 1.16-5.242 2.606-8.371 3.212-10.177 1.972-10.189 1.984-10.189 10.024 0 4.77.405 7.177 1.25 7.438.688.212 24.555.636 53.039.944l51.788.559-.288-8.683c-.289-8.683-.289-8.683-6.701-9.978-8.673-1.752-12.154-3.953-14.868-9.399-2.256-4.527-2.283-5.039-2.5-47.484l-.22-42.907 30.633-.264 30.633-.265.742 37.612c.86 43.55.581 50.845-2.124 55.555-2.038 3.55-9.185 7.862-13.031 7.862-1.222 0-3.377.439-4.788.975-2.458.935-2.565 1.31-2.565 8.955 0 7.979 0 7.979 3.25 8.46 1.787.264 21.025.969 42.75 1.568 21.725.598 43.213 1.355 47.75 1.683 8.25.596 8.25.596 8.25-7.9 0-5.599-.426-8.836-1.25-9.492-.687-.548-3.29-1.291-5.783-1.652-5.448-.787-10.212-3.515-12.663-7.253-1.592-2.428-1.88-6.165-2.448-31.798-.354-15.975-.691-58.873-.75-95.328-.115-71.922-.208-70.633 5.382-75.03 1.502-1.182 4.95-2.442 7.661-2.802 4.93-.654 4.93-.654 4.641-8.27l-.29-7.616-48.131-.26c-55.12-.297-49.647-1.395-48.636 9.757.54 5.951.572 6.003 3.694 6.003 4.026 0 11.428 3.767 13.755 7 .989 1.375 2.218 4.75 2.73 7.5.731 3.922 1.608 56.773 1.177 70.909-.089 2.909-.089 2.909-29.604 2.3-16.233-.335-30.001-.91-30.596-1.278-.761-.47-.895-10.629-.451-34.3.346-18.497.872-35.579 1.169-37.959.972-7.806 8.814-14.148 17.518-14.166 2.118-.005 2.742-.589 3.228-3.023.777-3.885-.337-12.266-1.757-13.218-.603-.404-22.535-.741-48.739-.75-42.531-.013-47.708.155-48.25 1.567m-458.204.537c-16.003.443-33.553.935-39 1.093-9.903.288-9.903.288-12.07 7.288-1.192 3.85-5.613 18.475-9.824 32.5s-9.842 32.7-12.513 41.5-8.743 29.493-13.494 45.985c-4.751 16.491-8.773 30.119-8.937 30.284-.165.164-1.963-6.354-3.996-14.485-6.961-27.842-29.468-105.61-38.729-133.822-2.121-6.462-2.121-6.462-8.731-6.446-6.813.017-45.968 1.406-72.859 2.584l-15.25.668v8.347c0 9.447-1.138 8.369 10.886 10.305 7.751 1.248 10.759 3.085 12.948 7.908 1.519 3.349 1.664 12.419 1.646 103.172-.022 112.033.298 107.027-7.364 115.242-3.184 3.412-5.472 4.606-14.693 7.667-10.923 3.626-10.923 3.626-10.801 11.397.067 4.275.292 7.927.5 8.118.208.19 3.303-.063 6.878-.562s22.475-2.945 42-5.437c19.525-2.491 36.569-4.793 37.875-5.117 2.32-.574 2.359-.766 1.688-8.177-.378-4.174-.791-7.693-.917-7.819-.127-.126-3.586-.748-7.688-1.381s-8.642-1.761-10.089-2.505c-4.344-2.236-7.653-7.037-8.727-12.666-.997-5.221-2.405-180.356-1.443-179.394.263.262 1.77 6.576 3.35 14.03 10.641 50.194 33.796 135.42 47.439 174.604 7.596 21.816 5.933 19.316 12.399 18.646 3.087-.32 8.837-.876 12.778-1.235 5.374-.489 7.287-1.06 7.653-2.282.268-.896 2.731-9.054 5.473-18.129s9.073-30.675 14.069-48 11.554-40.05 14.572-50.5 9.893-34.571 15.278-53.601l9.79-34.602.256 84.974c.165 54.836-.103 86.302-.754 88.721-1.948 7.234-7.144 11.149-18.489 13.933-2.742.672-5.48 1.633-6.083 2.133-.916.76-.855 11.661.071 12.736.139.161 8.521-.379 18.626-1.2 10.105-.822 35.473-2.674 56.373-4.116 20.9-1.443 38.583-2.809 39.296-3.037.95-.303 1.217-2.489 1-8.173-.296-7.76-.296-7.76-4.296-8.497-2.2-.406-6.502-1.209-9.56-1.786-6.58-1.24-12.445-5.59-14.712-10.91-2.09-4.905-3.005-37.579-3.407-121.575-.313-65.354-.272-67.097 1.679-70.936 3.212-6.32 8.078-9.517 16.359-10.746 7.141-1.06 7.141-1.06 7.141-9.439s0-8.379-7.25-8.222c-3.987.086-20.344.519-36.347.962m685.048 2.22c-.367 1.463-.281 4.749.191 7.302.839 4.537.97 4.67 5.822 5.9 5.904 1.497 10.904 6.374 12.434 12.129.614 2.306 1.472 40.424 2.157 95.83 1.256 101.481 1.424 97.922-4.816 102.121-1.793 1.207-5.618 2.515-8.5 2.908s-5.57 1.221-5.974 1.842c-1.003 1.541-.932 13.817.089 15.427.599.944 7.891 1.694 26.735 2.751 39.834 2.233 104.107 6.407 121.911 7.916 8.8.745 16.225 1.134 16.5.862 1.042-1.028 2.267-67.46 1.262-68.465-.548-.548-4.331-1.248-8.406-1.557-7.41-.56-7.41-.56-9.239 5.318-2.92 9.389-8.48 19.083-13.514 23.561-9.244 8.225-23.553 12.723-40.603 12.766-9.38.024-12.38-1.192-14.7-5.958-1.482-3.043-1.791-9-2.408-46.372l-.708-42.88 8.908.458c17.97.922 26.691 8.465 32.042 27.71 1.694 6.092 1.694 6.092 7.787 6.092 6.092 0 6.092 0 5.836-18.75-.141-10.312-.531-29.621-.866-42.908-.61-24.158-.61-24.158-4.751-24.5-7.585-.627-8.017-.34-10.506 6.972-4.994 14.668-12.144 20.23-27.008 21.01-7.346.386-8.632.204-9.791-1.381-1.064-1.455-1.335-10.507-1.335-44.567 0-49.523-1.412-44.561 12.34-43.349 14.998 1.322 24.831 5.047 32.057 12.145 5.749 5.648 8.471 10.248 11.551 19.519 2.76 8.309 2.76 8.309 12.156 8.309h9.396v-29.168c0-16.042-.289-29.456-.642-29.808s-35.313-.911-77.69-1.242c-77.05-.602-77.05-.602-77.717 2.057M1469 839.481c0 8.443.012 8.484 2.75 9.069 12.183 2.607 15.997 6.84 17.264 19.16.889 8.651 3.282 127.722 3.406 169.515.08 26.724.08 26.724-3.17 29.98-2.982 2.988-3.861 3.287-10.661 3.63-6.571.332-7.476.618-7.986 2.52-1.099 4.095-.628 12.477.779 13.884.946.946 8.76 2.098 24.75 3.648 12.853 1.246 34.618 3.351 48.368 4.676s27.138 2.684 29.75 3.018c4.75.607 4.75.607 4.75-8.908 0-10.734 1.021-9.587-10-11.241-6.913-1.038-12.865-4.271-15.672-8.513-3.419-5.166-4.248-15.622-4.292-54.169C1549 985 1549 985 1551.435 985c3.423 0 7.657 1.755 10.416 4.317 3.017 2.801 7.596 11.902 15.024 29.857 10.253 24.786 27.069 63.77 30.271 70.175 4.295 8.593 7.376 12.392 10.592 13.063 3.58.746 75.976 10.588 77.886 10.588 1.182 0 1.4-1.62 1.165-8.673-.289-8.674-.289-8.674-6.029-9.975-17.112-3.879-23.152-12.146-43.73-59.852-13.495-31.286-16.397-36.802-22.8-43.346-3.164-3.233-8.196-7.117-11.184-8.631l-5.432-2.752 5.443-2.229c21.785-8.922 35.176-20.31 42.593-36.223 5.437-11.665 6.613-18.577 6.095-35.819-.387-12.891-.805-15.948-2.971-21.742-5.626-15.05-15.546-26.86-29.37-34.964-14.417-8.452-30.807-12.699-56.904-14.746-13.101-1.028-75.105-3.048-93.555-3.048-9.945 0-9.945 0-9.945 8.481m-696.645 2.666c15.04 7.744 23.356 28.854 26.611 67.55 1.834 21.799 2.371 57.824 1.136 76.303-2.896 43.362-9.604 63.233-24.102 71.401-4.89 2.755-6.387 3.097-13.5 3.082-6.247-.014-8.876-.488-12-2.163-11.919-6.391-17.959-20.533-22.132-51.82-1.566-11.735-1.868-20.633-1.868-55 0-42.238.626-52.08 4.52-71.067 5.735-27.963 17.192-41.473 33.835-39.898 2.945.279 6.32 1.004 7.5 1.612m791.952 12.345c13.15 3.425 22.33 10.894 28.239 22.977 4.536 9.277 6.454 19.124 6.454 33.139 0 25.829-7.747 42.969-22.341 49.425-8.205 3.629-22.345 4.632-26.771 1.898-1.149-.71-1.435-9.807-1.664-52.911-.187-35.305.065-52.692.785-54.037 1.322-2.469 7.004-2.652 15.298-.491m-538.622 273.568c-7.607 1.289-12.793 7.2-13.469 15.352-.59 7.116.143 9.789 3.845 14.005 4.389 4.999 10.191 6.983 16.37 5.598 2.676-.599 6.11-1.976 7.631-3.059 3.61-2.571 6.938-9.555 6.938-14.56 0-4.806-3.53-12.073-7.142-14.702-3.285-2.391-9.162-3.483-14.173-2.634m-54.185 3.952c-4.745 1.013-7.149 2.684-9.625 6.69-3.063 4.956-3.18 13.063-.247 17.023 7.194 9.711 20.467 9.728 26.377.034 2.361-3.872 2.654-11.592.59-15.559-3.219-6.187-10.387-9.62-17.095-8.188m104.918 1.957c-3.194 1.292-7.094 6.49-7.836 10.445-1.011 5.391.925 10.946 5.091 14.603 3.387 2.974 4.057 3.171 9.487 2.778 4.755-.344 6.404-.961 8.863-3.317 7.462-7.15 5.904-19.362-3.062-23.998-3.105-1.606-9.22-1.855-12.543-.511M546 1136.393c-9.933 2.204-19.423 8.099-29.888 18.564-14.316 14.316-27.74 36.334-41.125 67.453-9.473 22.024-7.367 20.189-27.976 24.38-2.16.44-3.617 1.376-3.823 2.457-.528 2.766 3.897 3.839 12.17 2.953l7.282-.78-3.834 11.04c-9.208 26.521-8.76 25.541-11.657 25.533-5.136-.014-18.911-3.928-28.226-8.02-5.183-2.277-19.323-9.488-31.423-16.024-39.666-21.425-59.285-28.223-85.5-29.622-32.275-1.723-55.957 12.879-55.99 34.522-.012 7.391 1.64 11.467 6.692 16.52 5.322 5.322 10.598 6.975 20.524 6.43 9.356-.514 18.195-3.977 21.778-8.531 3.318-4.218 1.065-4.698-8.135-1.734-5.602 1.805-10.683 2.723-15.369 2.776-7.925.089-11.749-1.441-15.881-6.351-2.097-2.492-2.615-4.144-2.597-8.286.029-6.888 2.678-12.359 8.437-17.428 10.008-8.81 27.114-11.982 49.567-9.192 20.662 2.567 35.887 8.32 73.022 27.595 14.549 7.551 30.277 15.149 34.952 16.884 8.619 3.199 20.034 6.196 25.5 6.694 2.088.191 2.887.73 2.627 1.774-.205.825-1.907 6.9-3.781 13.5-7.873 27.725-11.194 54.415-8.421 67.677 1.354 6.477 5.644 13.032 10.006 15.287 4.111 2.126 11.374 1.931 16.001-.43 12.59-6.422 19.342-25.388 19.415-54.534.045-18.196-2.075-29.582-7.307-39.242-1.956-3.611-2.521-5.508-1.724-5.79.651-.23 5.234-1.83 10.184-3.556 9.223-3.216 15.376-6.112 21.441-10.092 3.235-2.123 3.393-2.141 2.639-.289-1.495 3.666-1.905 19.954-.602 23.901 1.58 4.789 6.581 10.486 10.724 12.217 5.234 2.187 15 1.703 20.878-1.034 6.624-3.084 17.106-12.958 22.428-21.127 3.418-5.246 4.731-6.492 6.859-6.51 3.391-.028 10.128-3.097 14.645-6.671 4.045-3.201 11.394-12.237 13.87-17.057 1.604-3.123 1.905-3.25 7.7-3.25 6.031 0 6.031 0 3.39 4.25-4.727 7.604-11.248 22.125-12.373 27.549-1.513 7.298-1.379 11.462.525 16.219 1.863 4.657 5.502 6.982 10.925 6.982 5.581 0 10.271-2.718 18.116-10.498 6.898-6.841 7.184-7.011 7.692-4.554.29 1.404 1.852 4.623 3.47 7.155 5.499 8.603 16.236 11.849 27.815 8.411 8.673-2.576 21.856-13.069 30.17-24.014 2.279-3 2.279-3 1.653 1.205-1.547 10.398 3.813 21.374 11.107 22.743 11.933 2.238 30.971-21.094 40.583-49.737 3.74-11.142 4.474-22.222 1.595-24.075-3.951-2.542-7.864 3.115-10.281 14.864-4.081 19.839-11.134 35.596-20.543 45.89-7.718 8.446-8.311 7.97-7.653-6.14.309-6.628 1.677-17.149 3.138-24.138 3.608-17.26 3.364-23.833-.947-25.487-2.092-.803-7.108 1.841-8.529 4.496-.618 1.155-2.006 5.283-3.083 9.172-4.214 15.207-11.709 27.681-22.978 38.245-8.492 7.96-17.295 12.326-22.315 11.066-2.64-.663-4.986-5.576-6.035-12.641-.663-4.463-.663-4.463 6.087-6.798 13.094-4.529 23.009-12.715 28.352-23.408 4.142-8.289 4.18-14.447.117-18.991-2.722-3.044-3.351-3.264-9.25-3.24-4.974.02-7.761.698-13.01 3.164-11.714 5.505-18.726 13.5-30.911 35.248-6.732 12.016-16.902 24.062-20.314 24.062-1.64 0-1.791-.552-1.244-4.544.934-6.813 5.12-18.155 11.727-31.77 9.097-18.749 8.353-20.39-8.735-19.245-5.676.38-10.711.45-11.188.155s-.047-2.912.956-5.816c2.098-6.074 2.441-13.828.689-15.58-1.688-1.688-5.426-1.491-8.376.442-6.837 4.48-9.898 17.943-5.385 23.681 2.04 2.592 2.04 2.592-.631 6.885-4.393 7.062-9.273 12.603-13.901 15.787-5.673 3.903-7.817 3.984-6.782.255.419-1.513.76-6.35.756-10.751-.005-7.09-.358-8.623-3.099-13.475-4.509-7.98-9.279-10.327-19.882-9.781-12.171.626-18.9 4.86-30.181 18.989-5.934 7.431-13.86 13.304-24.697 18.299-7.446 3.431-18.445 6.979-19.224 6.201-.417-.418 9.418-27.636 12.92-35.756 1.317-3.053 3.049-4.284 12.986-9.229 30.764-15.307 61.815-47.312 69.754-71.896 3.126-9.682 3.318-20.863.442-25.746-4.003-6.797-9.929-8.836-19.5-6.712m374.299.567c-11.201 6.829-6.187 24.04 7.003 24.04 3.967 0 9.624-3.482 11.419-7.03 1.834-3.625 1.544-9.023-.681-12.671-3.729-6.117-11.649-8.054-17.741-4.339m-42.799-.006c-3.511 1.452-6.648 5.728-7.195 9.808-.788 5.876 1.845 10.648 7.342 13.309 4.347 2.105 4.576 2.115 8.992.429 5.274-2.014 8.354-6.253 8.354-11.5 0-8.733-9.57-15.323-17.493-12.046m247 0c-1.1.455-3.125 2.038-4.5 3.517-2.037 2.192-2.5 3.708-2.5 8.186 0 5.07.29 5.762 3.735 8.92 4.438 4.067 9.402 4.551 14.54 1.419 7.67-4.677 6.851-18.165-1.309-21.575-3.763-1.572-6.935-1.721-9.966-.467m-293.456 2.715c-6.25 5.585-5 16.226 2.313 19.696 4.285 2.033 6.916 2.062 10.676.118 6.376-3.297 8.045-13.126 3.158-18.596-2.263-2.533-3.791-3.238-7.858-3.629-4.506-.433-5.395-.174-8.289 2.411m335.344-1.721c-3.795 1.592-6.388 5.96-6.388 10.764 0 3.576.57 5.012 2.923 7.365 2.393 2.393 3.767 2.923 7.577 2.923s5.184-.53 7.577-2.923c6.12-6.12 2.464-17.251-6.077-18.502-1.925-.283-4.45-.115-5.612.373m-370.888.793c-2.986.685-6.304 4.136-7.52 7.82-.83 2.516-.754 4.035.333 6.603 2.629 6.216 7.467 8.724 13.187 6.836 6.758-2.23 9.428-9.371 5.99-16.02-2.106-4.072-7.259-6.324-11.99-5.239m408.857 1.204c-5.942 2.527-7.265 11.3-2.434 16.132 3.95 3.95 8.852 3.989 13.198.107 6.261-5.595 3.16-15.605-5.175-16.698-1.895-.249-4.41-.042-5.589.459m-646.992 4.128c2.245 1.765 2.635 2.844 2.635 7.289 0 20.342-19.851 49.026-49.322 71.269-8.081 6.099-20.092 13.369-22.087 13.369-1.803 0 23.481-50.31 31.242-62.164 8.602-13.138 20.488-25.82 27.453-29.291 6.175-3.078 6.734-3.104 10.079-.472m195.864-1.404c-2.293.923-4.46 6.424-3.811 9.671.979 4.897 4.256 7.66 9.082 7.66 4.543 0 7.739-2.506 8.81-6.908.749-3.082-1.549-8.614-4.16-10.012-2.06-1.102-7.629-1.333-9.921-.411m486.694 2.254c-3.181 3.181-3.508 4.699-1.813 8.42 2.225 4.883 8.622 6.016 12.435 2.202 3.441-3.441 3.359-8.689-.18-11.472-3.651-2.872-6.991-2.6-10.442.85m43.392.084c-4.348 1.752-5.516 6.792-2.315 9.993 3.933 3.933 11 1.089 11-4.427 0-1.432-1.081-3.278-2.635-4.5-2.924-2.301-2.967-2.308-6.05-1.066m-570.86 2.448c-2.963 2.962-3.146 6.427-.489 9.278 2.885 3.097 5.741 3.689 8.637 1.792 3.159-2.071 4.405-5.326 3.23-8.444-2.022-5.363-7.4-6.605-11.378-2.626m605.895-.198c-2.932 1.308-4.649 5.316-3.332 7.777 1.158 2.164 4.073 3.966 6.416 3.966 4.166 0 7.485-8.254 4.316-10.733-2.042-1.598-5.136-2.02-7.4-1.01m255.268 11.812c-14.482 3.56-33.714 21.704-47.221 44.551-6.052 10.236-14.141 26.553-19.771 39.88-6.201 14.678-5.965 14.396-8.286 9.923-5.512-10.62-22.045-9.514-37.136 2.485-6.88 5.47-12.795 13.607-19.934 27.423-4.469 8.647-7.358 12.785-12.809 18.345-9.845 10.043-15.287 10.956-13.842 2.324.322-1.925 3.998-12.05 8.167-22.5 5.309-13.304 7.709-20.676 8.007-24.592.394-5.194.221-5.752-2.434-7.847-7.886-6.222-22.088 2.965-38.311 24.781-2.941 3.955-5.471 7.068-5.622 6.917s1.061-4.996 2.694-10.767c4.345-15.354 3.923-20.992-1.568-20.992-3.168 0-5.894 3.393-10.018 12.47-8.454 18.609-25.706 39.961-36.742 45.476-11.605 5.799-16.078 3.436-16.217-8.568-.075-6.438-.075-6.438 6.445-8.731 8.9-3.13 15.244-7.016 21.622-13.243 15.756-15.382 12.747-34.233-5.102-31.966-7.875 1.001-15.239 5.158-23.029 13.002-5.852 5.893-8.218 9.394-14.309 21.173-4.013 7.763-9.672 16.988-12.574 20.5-5.236 6.337-9.965 9.884-11.342 8.507-1.136-1.137 2.356-16.35 7.79-33.939 2.997-9.698 4.884-17.583 4.712-19.681-.274-3.329-.489-3.515-4.401-3.801-6.531-.477-9.309 2.617-14.861 16.553-2.574 6.461-6.749 15.086-9.278 19.165-7.292 11.763-19.743 24.083-24.338 24.083-1.864 0-.429-8.82 2.626-16.136 1.462-3.5 5.954-12.974 9.983-21.053 10.039-20.128 9.472-21.526-8.231-20.32-10.432.711-10.432.711-8.341-3.387 3.012-5.904 3.718-12.296 1.593-14.422-2.572-2.571-5.142-2.036-9.61 2-6.219 5.618-8.288 10.438-7.624 17.761.493 5.433.226 6.66-2.624 12.053-4.322 8.178-17.336 21.178-26.008 25.981-5.964 3.303-18.486 8.049-19.236 7.291-.147-.147 3-8.783 6.992-19.191 7.258-18.923 7.258-18.923 14.58-22.147 11.086-4.881 19.551-10.869 29.514-20.874 10.599-10.646 17.079-19.402 21.936-29.645 6.242-13.161 6.955-22.994 2.08-28.657-2.158-2.507-2.985-2.754-9.206-2.749-5.409.005-7.98.572-12.334 2.721-17.459 8.618-34.169 29.986-49.481 63.274-6.023 13.093-5.772 12.869-15.657 13.981-6.461.728-9.486 2.451-8.556 4.874.508 1.324 2.093 1.645 8.12 1.645h7.49l-5.363 15.25c-9.875 28.08-7.876 24.974-17.339 26.936-9.573 1.984-10.214 2.289-10.214 4.854 0 2.55 3.161 3.205 10 2.073 3.025-.501 5.59-.829 5.701-.728s-1.374 5.118-3.299 11.149c-14.618 45.81-15.856 68.106-4.183 75.281 15.042 9.246 31.349-4.16 38.41-31.576 3.456-13.42 4.239-32.581 1.962-48.002-.915-6.195-1.894-11.864-2.176-12.598-.345-.899 1.384-2.031 5.286-3.461 9.483-3.475 18.278-9.211 26.341-17.178 6.246-6.172 15.024-17.698 16.227-21.307.154-.463 3.181-1.105 6.725-1.426 6.444-.584 6.444-.584 4.812 1.907-4.752 7.252-13.302 23.897-15.496 30.166-3.256 9.302-2.807 14.625 1.603 19.032 2.853 2.851 3.681 3.123 9.359 3.074 8.235-.071 13.087-2.67 22.004-11.786 4.308-4.404 6.738-6.313 6.312-4.959-1.048 3.335 1.227 10.267 4.416 13.457 2.302 2.302 3.72 2.842 7.459 2.842 6.352 0 11.086-2.694 18.316-10.423 6.146-6.57 6.146-6.57 7.28-2.36 1.724 6.405 7.168 11.273 14.248 12.743 7.225 1.5 12.519.718 20.193-2.984 7.634-3.682 14.315-9.245 20.844-17.357 11.749-14.595 11.019-14.158 6.697-4.007-5.646 13.266-6.594 16.878-5.222 19.891.894 1.961 1.879 2.497 4.593 2.497 4.182 0 6.285-2.398 18.858-21.5 4.706-7.15 11.487-16.63 15.068-21.068 6.461-8.005 14.908-15.853 15.946-14.815.298.298-2.303 6.385-5.78 13.527-3.476 7.142-7.77 17.412-9.542 22.822-3.704 11.311-3.529 15.249.901 20.207 6.218 6.959 18.704 4.151 30.168-6.784 5.948-5.673 5.969-5.683 5.973-2.791.009 7.064 7.645 13.115 15.263 12.093 8.449-1.133 22.749-14.288 35.268-32.442 3.698-5.362 6.409-8.849 6.026-7.749-1.987 5.695-3.799 15.735-3.88 21.5-.155 10.99 5.536 18.364 15.371 19.919 11.453 1.811 22.986-3.03 34.415-14.444 7.765-7.755 13.3-16.266 14.205-21.842.999-6.156-1.971-4.409-8.059 4.74-9.627 14.469-22.722 24.593-31.84 24.617-5.775.015-7.319-3.133-7.091-14.454.197-9.735 2.191-18.676 7.289-32.688 3.134-8.616 3.17-8.662 8.338-10.87 12.63-5.395 24.763-13.756 36.521-25.167 19.082-18.519 31.17-39.626 31.17-54.427 0-6.448-1.202-9.816-4.205-11.781-3.08-2.015-9.425-2.702-14.177-1.534m9.553 7.586c2.774 2.51 2.263 8.691-1.481 17.923-8.473 20.889-30.657 45.394-51.94 57.376-3.162 1.78-5.75 2.939-5.75 2.574 0-1.064 14.85-30.37 19.27-38.028 10.956-18.983 24.883-35.866 32.805-39.767 4.286-2.111 4.843-2.118 7.096-.078m-337.206 18.279c1.546 2.89 1.266 6.441-1.053 13.348-4.868 14.494-19.632 33.43-34.742 44.56-6.572 4.841-15.17 9.735-15.17 8.635 0-2.193 17.558-35.631 23.017-43.834 12.517-18.81 24.726-28.729 27.948-22.709M250.5 1195.588c-34.292 4.929-54.503 13.845-70.703 31.19-26.494 28.367-20.412 65.624 13.531 82.88 5.214 2.651 14.672 4.324 14.672 2.595 0-.564-3.262-2.955-7.25-5.313-9.584-5.669-19.605-15.767-23.26-23.44-2.323-4.876-2.94-7.72-3.291-15.177-.54-11.498 1.307-17.922 8.056-28.013 11.028-16.488 30.57-28.339 55.745-33.806 10.23-2.222 38.74-3.086 52.035-1.578 31.682 3.596 63.498 15.094 92.835 33.55 10.329 6.499 12.13 7.334 12.13 5.624 0-1.656-11.412-11.386-19.725-16.819-23.068-15.074-48.895-25.027-77.289-29.786-9.072-1.521-41.199-2.811-47.486-1.907m1473 1.982c-35.923 5.492-74.124 21.852-101.75 43.576-4.263 3.351-7.75 6.463-7.75 6.915 0 2.268 2.516 1.666 7.733-1.852 15.096-10.178 34.927-20.699 51.341-27.238 45.84-18.263 97.02-19.677 130.426-3.604 40.195 19.341 49.282 60.447 18.583 84.069-3.148 2.422-8.729 6.056-12.403 8.076-9.014 4.955-9.078 7.048-.164 5.39 12.013-2.234 26.599-12.172 33.383-22.745 5.327-8.301 7.376-15.501 7.446-26.157.097-14.887-4.358-25.595-15.683-37.702-14.384-15.377-34.089-24.897-59.662-28.827-11.877-1.824-39.264-1.772-51.5.099m-424.749 18.411c-1.385 1.09-3.268 3.854-4.183 6.142-5.514 13.779 11.23 18.843 17.061 5.159 1.915-4.495 1.712-7.579-.702-10.647-2.603-3.31-8.403-3.622-12.176-.654m-475.556 14.041c-3.398 2.072-8.166 10.537-8.185 14.532-.006 1.129 1.152 4.385 2.572 7.235 2.582 5.181 2.582 5.181-.451 10.482-9.925 17.347-28.492 38.737-37.538 43.244-9.841 4.905-13.796 2.577-14.421-8.485-.386-6.824-.386-6.824 2.971-7.55 13.884-3.004 31.226-18.645 33.757-30.448 4.261-19.871-19.421-21.4-38.345-2.476-13.962 13.962-20.276 35.886-14.064 48.829 2.346 4.886 8.991 9.219 15.517 10.116 6.281.864 14.648-1.502 21.576-6.1 10.335-6.86 28.633-28.035 37.416-43.297 3.5-6.082 3.5-6.082 8.25-6.093 2.612-.006 4.75.221 4.75.506 0 .284-2.422 5.346-5.383 11.25-5.875 11.715-9.617 22.539-9.617 27.818 0 5.028 2.83 11.158 6.288 13.62 10.211 7.271 27.948-3.301 42.81-25.514 6.036-9.023 7.555-12.548 6.541-15.189-1.071-2.792-3.674-1.526-6.414 3.12-6.069 10.292-11.032 17.052-16.876 22.989-7.214 7.327-13.733 11.145-15.925 9.326-3.563-2.957-.904-12.608 9.651-35.026 3.809-8.09 6.925-15.847 6.925-17.239 0-1.391-.751-3.28-1.67-4.199-1.448-1.448-3.105-1.576-12.483-.963-10.814.706-10.814.706-8.83-5.058 2.582-7.507 2.576-12.859-.017-15.452-2.524-2.524-4.637-2.519-8.805.022m869.305 6.575c-23.086 4.089-48.939 14.573-78 31.63l-26 15.263c-20.965 12.308-33.465 20.853-31.18 21.315 2.224.45 21.746-9.203 47.18-23.329 49.685-27.596 75.377-37.078 103.508-38.2 16.753-.668 25.683.703 35.029 5.379 23.631 11.822 19.831 36.974-5.537 36.642-4.68-.061-10.232-1.075-16.75-3.057-8.942-2.719-9.75-2.816-9.75-1.17q-.002 3.243 11.7 8.699c5.078 2.368 7.045 2.706 15.8 2.718 8.359.011 10.656-.341 14-2.145 8.604-4.643 12.741-11.835 12.747-22.157.008-16-12.64-27.455-35.085-31.773-9.179-1.766-27.147-1.678-37.662.185m-699.615 8.783c-1.988.71-4.913 2.217-6.5 3.349-3.042 2.169-11.643 11.04-17.231 17.771-1.84 2.216-3.024 3.108-2.656 2 .366-1.1.911-5.172 1.213-9.05.414-5.33.159-7.8-1.043-10.126-3.034-5.866-11.169-4.876-18.268 2.223-4.221 4.221-18.4 24.679-18.4 26.548 0 .498-.382.905-.85.905s.155-3.487 1.383-7.75c4.762-16.525 4.039-24.447-2.289-25.062-5.312-.517-7.462 2.661-10.632 15.716-1.518 6.251-5.202 18.335-8.186 26.852S904 1305.312 904 1306.62c0 3.576 3.583 6.689 6.837 5.94 3.792-.874 6.855-4.658 22.964-28.369 15.081-22.197 22.086-31.025 22.158-27.924.023.971-3.617 11.546-8.088 23.5-8.559 22.882-9.71 28.415-6.415 30.824 1.059.775 2.585 1.409 3.39 1.409 2.548 0 8.441-7.281 15.032-18.573 8.218-14.079 22.319-32.833 27.52-36.6 2.235-1.619 4.207-2.513 4.382-1.986.176.526-1.712 5.068-4.194 10.093-11.08 22.429-14.375 34.848-11.239 42.355 1.702 4.071 6.195 6.719 11.371 6.701 6.426-.022 15.685-6.377 24.413-16.755 3.587-4.265 3.587-4.265 4.209.986 1.069 9.031 6.598 14.259 14.952 14.138 9.024-.13 17.076-6.006 25.13-18.336 1.968-3.013 3.578-5.088 3.578-4.612 0 .934-5.993 21.971-6.309 22.147-.105.059-4.433 1.297-9.618 2.753-8.872 2.489-11.6 4.028-10.448 5.891.66 1.068 7.92.972 12.847-.171 2.184-.506 4.146-.746 4.359-.533.79.79-5.248 15.348-10.819 26.086-17.625 33.972-39.207 55.416-55.772 55.416-4.825 0-5.815-.375-8.75-3.31-4.823-4.823-6.083-10.45-4.121-18.401 2.175-8.814 5.804-14.604 14.596-23.289 11.622-11.48 25.615-18.844 45.72-24.06 9.106-2.363 12.036-3.965 10.827-5.92-1.686-2.729-20.916 1.231-34.512 7.106-16.17 6.988-29.307 16.999-37.739 28.757-13.589 18.95-11.851 38.961 3.957 45.564 5.881 2.456 18.814 2.029 27.103-.896 21.298-7.516 38.389-24.602 52.712-52.696 3.318-6.508 8.028-17.801 10.466-25.094 4.432-13.261 4.432-13.261 13.31-17.761 14.568-7.385 24.167-15.898 32.074-28.446 3.656-5.8 4.172-10.554 1.147-10.554-1.324 0-3.586 2.375-6.906 7.25-2.715 3.987-7.566 9.793-10.78 12.902-8.467 8.188-21.344 15.946-21.344 12.857 0-2.72 6.327-25.668 10.468-37.967 2.493-7.402 4.532-14.008 4.532-14.679 0-2.312-3.151-4.363-6.703-4.363-5.023 0-8.7 4.276-15.595 18.138-11.43 22.976-22.485 37.862-28.118 37.862-3.326 0-4.045-2.862-3.264-12.991.431-5.594 2.149-12.371 6.178-24.371 5.976-17.799 6.079-19.774 1.098-21.025-6.656-1.67-11.82 3.817-18.428 19.58-2.861 6.825-6.881 15.26-8.935 18.743-4.27 7.246-14.521 18.7-19.129 21.375-2.782 1.615-3.185 1.642-3.722.243-1.27-3.311 1.979-13.449 12.038-37.554 3.634-8.709 4.611-16.206 2.601-19.961-.538-1.006-2.405-2.326-4.149-2.934-3.799-1.324-3.483-1.335-7.987.275m-439.316 6.084c3.056 4.665 3.094 25.536.046 25.536-1.43 0-5.904-4.558-7.361-7.5-.545-1.1-1.295-3.687-1.668-5.75-1.252-6.94-5.586-3.656-5.586 4.234 0 5.677 2.176 9.363 7.751 13.131 2.612 1.765 4.91 3.334 5.106 3.488.876.683-6.673 12.266-10.469 16.061-4.523 4.523-11.075 8.336-14.325 8.336-3.706 0-5.571-4.579-5.482-13.456.092-9.259 2.128-17.031 6.991-26.686 7.755-15.4 20.495-24.265 24.997-17.394m120.883 2.653c-.063 5.707-3.192 12.07-9.316 18.941-4.579 5.138-14.583 11.828-15.827 10.584-.837-.837 4.413-13.394 8.212-19.642 4.736-7.787 13.175-15.507 15.979-14.619.55.175.978 2.306.952 4.736m118.088-2.813c.811 3.229-2.821 12.271-7.283 18.13-3.74 4.912-15.099 13.566-17.807 13.566-1.148 0-1.027-1.008.631-5.25 4.501-11.52 11.126-21.436 17.319-25.924 4.732-3.429 6.38-3.549 7.14-.522m558.027 6.096c-.868 5.788-6.485 14.262-13.048 19.686-4.442 3.671-11.437 7.914-13.047 7.914-2.321 0 8.038-20.156 13.512-26.289 9.019-10.107 13.98-10.624 12.583-1.311m141.876-2.177c2.294 3.275 1.933 5.909-1.786 13.045-6.536 12.539-20.734 29.945-30.056 36.844-2.994 2.217-4.212 2.626-5.25 1.765-1.934-1.606-1.67-6.631.763-14.522 2.78-9.016 5.727-14.698 11.935-23.012 5.647-7.562 9.674-11.421 14.951-14.327 4.646-2.559 7.551-2.495 9.443.207m-1149.096 24.802c-2.835.512-7.742 1.899-10.906 3.083-7.438 2.783-15.823 10.722-17.312 16.392-2.88 10.964 5.005 20.929 16.56 20.929 5.781 0 9.682-2.134 12.284-6.719 1.653-2.913.831-4.622-1.352-2.81-2.305 1.912-7.859 3.146-11.277 2.505-9.742-1.828-9.72-12.44.04-19.884 1.955-1.492 6.381-3.644 9.835-4.784 8.616-2.842 27.785-2.799 48.781.109 17.501 2.424 19 2.521 19 1.236 0-1.243-10.15-4.533-23.5-7.618-12.265-2.835-33.247-4.049-42.153-2.439m1297.732.046c-8.003.98-26.516 5.658-35.823 9.052-10.348 3.773-26.256 11.112-26.256 12.112 0 .539.738.696 1.639.35 5.892-2.261 34.23-9.894 43.598-11.743 15.872-3.133 34.537-3.187 44.286-.127 11.543 3.623 19.574 12.498 16.503 18.236-2.922 5.459-12.324 7.109-17.898 3.14-5.431-3.867-6.821-1.909-2.848 4.011 4.225 6.297 15.456 7.572 22.843 2.594 11.873-8.001 8.402-24.955-6.653-32.494-9.719-4.867-25.139-6.875-39.391-5.131m135.535 14.012c-.249.779-.669 4.203-.933 7.608-1.013 13.042-8.552 24.159-20.333 29.982-6.761 3.341-8.582 3.789-16.9 4.152-7.589.332-10.682-.005-16.635-1.813-4.022-1.222-9.246-3.354-11.608-4.738-4.88-2.859-6.218-2.468-3.861 1.128 4.35 6.639 17.026 12.537 28.656 13.333 17.759 1.215 34.377-7.586 41.39-21.92 3.237-6.618 4.822-16.358 3.667-22.542-.915-4.893-2.686-7.564-3.443-5.19m-1545.683 3.046c-.728 1.36-1.003 5.064-.729 9.804.358 6.185 1.064 8.786 3.752 13.829 4.209 7.898 11.26 14.497 19.823 18.553 6.448 3.055 7.235 3.185 19.223 3.173 14.244-.014 20.067-1.68 28.306-8.098 4.517-3.52 8.292-8.126 7.394-9.024-.253-.253-3.327 1.114-6.83 3.038-8.352 4.586-16.421 6.596-26.475 6.596-15.122 0-26.973-5.713-34.477-16.619-3.449-5.014-6.918-14.746-6.918-19.411 0-3.685-1.576-4.63-3.069-1.841m236.543 4.821c6.653 12.866 7.047 43.71.813 63.55-3.042 9.68-4.397 12.417-8.409 16.987-5.374 6.12-8.39 4.412-10.128-5.735-1.97-11.504 2.619-39.215 10.931-66.002 2.006-6.463 4.011-11.75 4.457-11.75s1.497 1.328 2.336 2.95m711.318 10.3c3.001 16.478 2.423 38.742-1.389 53.516-1.811 7.016-6.398 17.05-9.885 21.621-1.426 1.87-4.038 4.102-5.805 4.961-4.154 2.019-5.737.617-6.451-5.717-1.222-10.845 3.23-33.019 12.416-61.839 5.287-16.586 5.995-17.992 9.399-18.676.318-.064 1.089 2.697 1.715 6.134m-573.869 85.673c-4.72 4.72-3.155 12.495 3.03 15.057 4.158 1.723 8.702-.19 10.774-4.534 1.875-3.931 1.117-7.693-2.222-11.032-3.399-3.399-7.87-3.202-11.582.509m764.294-1.362c-5.972 4.182-6.506 12.335-1.106 16.879 4.169 3.508 8.9 3.415 13.01-.256 2.577-2.304 3.152-3.573 3.152-6.968 0-2.283-.76-5.311-1.689-6.728-2.878-4.392-9.276-5.793-13.367-2.927m35.978.929c-2.576 2.167-3.195 3.435-3.195 6.543 0 4.705 3.176 8.716 7.568 9.557 2.399.459 3.762.003 6.25-2.09 2.668-2.245 3.182-3.373 3.182-6.978 0-5.369-2.333-8.396-7.055-9.152-2.893-.462-4.151-.067-6.75 2.12m36.305-1.566c-5.84 2.453-7.643 10.166-3.426 14.655 5.157 5.49 14.926 1.577 14.926-5.978 0-6.082-6.322-10.852-11.5-8.677m-801.587 1.358c-4.665 3.582-5.103 9.682-.99 13.795 4.1 4.1 8.959 4.04 12.488-.154 1.458-1.733 2.589-4.32 2.589-5.923s-1.131-4.19-2.589-5.923c-2.038-2.422-3.368-3.07-6.25-3.045-2.014.017-4.375.58-5.248 1.25m-67.712 1.746c-4.062 3.784-4.035 9.186.066 13.006 4.861 4.529 12.733.49 12.733-6.534 0-7.075-7.877-11.058-12.799-6.472m100.388 1.049c-2.952 3.508-3.322 7.605-1.079 11.943 1.876 3.626 4.314 4.98 8.97 4.98 6.947 0 11.479-8.31 8.098-14.849-1.999-3.865-4.351-5.151-9.423-5.151-3.213 0-4.474.591-6.566 3.077m801.158-1.093c-7.015 5.518-1.888 16.774 6.664 14.628 7.227-1.814 8.966-11.814 2.624-15.094-3.926-2.03-6.264-1.913-9.288.466m-141.997 1.096c-4.004 2.332-5.907 9.789-3.633 14.236 2.767 5.409 8.301 7.071 13.903 4.174 3.725-1.927 4.98-4.32 4.98-9.501 0-5.698-4.181-10.002-9.673-9.959-2.105.017-4.615.489-5.577 1.05m-619.397 2.846c-5.991 3.653-6.593 13.691-1.054 17.571 2.736 1.916 9.632 1.94 12.341.043 5.719-4.006 5.191-13.843-.944-17.584-4.016-2.449-6.365-2.455-10.343-.03m-171.898 1.529c-3.303 3.302-3.139 7.015.468 10.622 3.591 3.591 5.065 3.646 9 .334 2.158-1.816 3.077-3.472 3.077-5.545 0-3.703-3.969-7.866-7.5-7.866-1.425 0-3.695 1.105-5.045 2.455m966 0c-5.858 5.857.378 14.381 7.667 10.48 4.448-2.381 3.92-10.208-.81-12.006-3.519-1.338-4.129-1.202-6.857 1.526m-211.067.479c-5.836 2.486-8.229 11.14-4.723 17.076 3.399 5.755 11.655 6.823 16.361 2.118 3.618-3.618 4.55-7.262 3.098-12.108-1.749-5.837-9.228-9.434-14.736-7.086m-545.074 4.98c-3.949 2.453-5.314 4.911-5.314 9.57 0 10.878 11.428 16.067 19.238 8.735 3.481-3.268 4.369-7.832 2.426-12.48-2.727-6.526-10.667-9.356-16.35-5.825m503.442 4.841c-7.957 4.933-7.396 18.815.918 22.761 6.975 3.31 15.416-1.147 16.872-8.908 1.979-10.552-9.144-19.214-17.79-13.853m282.899.074c-4.25 4.695.131 10.956 5.845 8.353 3.31-1.508 3.467-6.391.277-8.625-2.879-2.017-4.1-1.963-6.122.272m-1024.41.326c-3.212 3.212-.307 9.212 4.203 8.681 3.765-.444 5.266-2.898 3.996-6.533-.736-2.104-1.725-2.877-3.967-3.098-1.643-.162-3.547.265-4.232.95m276.898 3.378c-11.132 9.367-.823 27.154 12.167 20.99 3.973-1.885 6.467-5.063 6.789-8.651.518-5.792-.211-8.184-3.499-11.472-2.864-2.864-4.112-3.4-7.923-3.4-3.382 0-5.283.639-7.534 2.533m421.214 5.779c-3.01 2.758-3.695 4.152-4.097 8.334-1.075 11.193 8.353 19.049 18.016 15.012 9.292-3.882 10.501-17.969 2.109-24.57-1.868-1.469-4.1-2.088-7.535-2.088-4.13 0-5.435.509-8.493 3.312m354.393-1.232c-2.699 1.572-2.262 6.539.75 8.512 2.316 1.517 2.684 1.517 5 0 2.724-1.785 3.419-6.273 1.3-8.392-1.452-1.452-4.668-1.507-7.05-.12m-1082.193 2.192c-1.933 2.951-.948 6.592 1.983 7.327 3.728.936 5.856.06 6.872-2.828 1.927-5.48-5.68-9.344-8.855-4.499m349.742.688c-8.841 5.39-8.314 19.402.942 25.045 1.792 1.093 4.354 1.989 5.693 1.991 3.843.006 10.446-3.676 12.338-6.879 2.39-4.046 2.246-11.755-.298-15.927-3.599-5.903-12.591-7.94-18.675-4.23m336.431 10.031c-3.863 3.048-5.73 7.124-5.73 12.509 0 10.641 8.899 17.669 18.402 14.532 9.891-3.264 12.68-16.607 5.182-24.788-2.928-3.195-3.95-3.642-9.189-4.017-4.944-.354-6.342-.07-8.665 1.764m-290.426 2.965c-3.807 2.322-6.045 5.5-6.907 9.811-2.771 13.853 12.118 23.402 22.66 14.532 3.735-3.144 5.095-6.353 5.104-12.046.015-10.863-11.792-17.824-20.857-12.297m245.196 5.4c-11.248 5.139-12.329 21.843-1.859 28.746 3.488 2.3 11.267 2.514 15.312.422 7.234-3.741 9.896-15.743 5.057-22.804-1.33-1.942-3.605-4.231-5.056-5.088-3.883-2.294-9.963-2.871-13.454-1.276m213.5 3.697c-21.661 1.611-37.407 5.085-79 17.43-33.834 10.042-53.877 14.751-83 19.501-16.697 2.723-17 2.807-17 4.69 0 1.465 1.384 1.568 13.25.985 26.629-1.307 56.232-6.972 95.405-18.258 49.624-14.297 73.019-17.977 98.345-15.471 29.411 2.911 52.138 13.884 60.473 29.197 2.359 4.335 2.931 6.631 2.974 11.942.045 5.562-.374 7.22-2.716 10.761-5.932 8.965-15.405 13.171-29.663 13.169-7.338 0-9.431-.409-14.577-2.843-10.463-4.95-15.66-13.337-13.381-21.592.634-2.297 3.106-6.026 6.073-9.164 5.872-6.208 5.641-7.922-.945-7.019-17.352 2.378-22.648 22.714-9.56 36.706 8.575 9.168 21.268 13.578 36.322 12.619 15.85-1.009 27.033-6.992 33.868-18.119 3.476-5.658 3.632-6.303 3.632-15 0-7.767-.389-9.918-2.68-14.805-6.95-14.829-25.02-26.656-48.524-31.761-13.497-2.931-33.557-4.139-49.296-2.968m-665.002 1.901c-20.146 3.664-34.028 10.134-45.113 21.023-12.875 12.647-16.662 26.784-10.531 39.315 7 14.307 27.221 23.062 45.91 19.877 13.715-2.337 24.815-9.523 29.798-19.291 2.799-5.486 2.46-16.322-.644-20.596-3.73-5.136-17.08-10.287-19.748-7.619-.365.365 1.772 3.216 4.748 6.336 4.378 4.59 5.54 6.541 6.093 10.224 1.894 12.633-10.516 22.777-27.867 22.777-10.055 0-16.833-2.215-22.39-7.317-12.164-11.168-10.96-25.245 3.299-38.584 18.698-17.491 54.669-23.884 96.193-17.097 13.119 2.145 26.917 5.648 60.689 15.408 23.692 6.846 48.207 12.229 69.065 15.162 14.239 2.003 38.616 2.5 39.199.799.247-.722-2.601-1.552-7.906-2.305-36.035-5.112-55.89-9.659-100.824-23.088-45.766-13.677-58.55-16.086-87.969-16.576-17.94-.299-23.239-.042-32.002 1.552m250.243 3.041c-4.727 2.881-7.234 7.562-7.234 13.505 0 16.123 20.943 21.659 28.298 7.48 2.382-4.591 1.856-12.54-1.104-16.698-4.322-6.07-13.724-8.089-19.96-4.287m98.681 4.279c-9.455 6.371-11.436 19.209-4.277 27.716 3.619 4.301 7.417 6.01 13.355 6.01 6.211 0 10.017-1.844 13.659-6.619 3.825-5.016 4.486-14.216 1.449-20.17-4.322-8.471-16.66-12.009-24.186-6.937m54.078-.105c-3.981 2.67-8 9.817-8 14.227 0 4.542 3.8 11.396 7.839 14.141 12.823 8.713 28.848-6.153 22.384-20.766-2.581-5.835-7.131-9.02-13.631-9.541-4.118-.33-5.762.041-8.592 1.939m-104.793 1.5c-7.509 3.701-10.731 16.326-5.957 23.341 3.506 5.151 6.865 7.157 11.989 7.157 10.97 0 18.848-10.164 15.824-20.417-2.931-9.94-12.855-14.518-21.856-10.081m-229.017 29.357c-1.861 1.134-3.996 3.65-4.876 5.746-1.361 3.242-1.386 4.245-.19 7.695 2.479 7.15 10.321 10.423 16.865 7.039 4.035-2.087 6.011-5.301 6.011-9.778 0-10.218-9.37-15.848-17.81-10.702m556.163.9c-6.295 3.839-6.678 14.314-.694 19.02 5.137 4.041 14.809 1.917 17.824-3.913 1.916-3.706 1.917-6.389.001-10.426-2.971-6.26-10.96-8.443-17.131-4.681m-517.764 15.151c-5.843 6.944-1.473 16.923 7.411 16.923 5.847 0 10-4.153 10-10 0-3.258-.631-4.784-2.923-7.077-2.362-2.362-3.784-2.923-7.411-2.923-3.784 0-4.894.483-7.077 3.077m481.911-1.922c-3.329 1.82-4.5 4.019-4.5 8.447 0 3.485.536 4.671 3.077 6.809 4.304 3.622 9.169 3.497 13-.334 7.794-7.795-1.859-20.238-11.577-14.922m-33.75 5.925c-.963.561-2.454 2.38-3.313 4.043-4.569 8.835 6.82 17.682 14.036 10.903 3.526-3.313 3.563-10.081.072-13.571-2.616-2.617-7.578-3.249-10.795-1.375M818 1509.253c-6.316 3.298-5.941 12.62.618 15.361 4.248 1.775 7.805.935 10.488-2.476 2.437-3.099 2.047-8.429-.827-11.304-2.425-2.424-7.243-3.165-10.279-1.581m137.5 7.437c-14.38 9.757-32.86 17.606-53.857 22.875-17.741 4.451-17.593 4.401-17.035 5.855.288.751 3.307 2.627 6.708 4.169 5.29 2.397 7.486 2.805 15.184 2.82 7.965.015 9.884-.36 16.691-3.265 13.326-5.686 31.305-20.008 37.774-30.09 5.093-7.935 3.66-8.555-5.465-2.364m244.875-4.705c-3.075 1.242-4.459 5.91-2.871 9.686 3.047 7.248 12.496 4.906 12.496-3.098 0-2.512-.704-3.982-2.635-5.5-2.86-2.251-3.764-2.391-6.99-1.088m-303.311 2.396c-.701 1.309-.972 3.333-.603 4.498.78 2.457 5.125 3.868 7.444 2.417 2.003-1.253 2.628-5.949 1.045-7.856-1.931-2.326-6.425-1.79-7.886.941M1085 1512.85c0 1.762 5.93 8.883 12.698 15.247 17.115 16.094 34.582 24.86 49.596 24.891 10.204.021 24.938-4.952 25.147-8.488.032-.55-2.191-1.368-4.941-1.818-26.483-4.332-49.559-12.58-72.976-26.083-8.15-4.7-9.524-5.241-9.524-3.749m60.381 1.691c-2.15 3.282-.609 7.113 3.254 8.082 2.105.528 3.107.178 4.534-1.583 2.236-2.761 2.283-3.949.274-6.817-2.119-3.027-5.97-2.874-8.062.318M1173 1514c-3.627 3.627-1.909 9.232 3.225 10.52 3.23.811 6.775-2.339 6.775-6.02 0-3.003-3.228-6.5-6-6.5-1.1 0-2.9.9-4 2m-326.345.829c-2.197 2.427-2.105 7.454.174 9.516 1.006.91 3.23 1.655 4.943 1.655 5.578 0 8.257-6.971 4.228-11-2.499-2.499-7.161-2.584-9.345-.171m23.916.742c-2.272 2.273-2.047 8.104.363 9.394 2.596 1.389 6.392 1.309 7.866-.165 1.712-1.712 1.484-7.373-.371-9.229-.865-.864-2.633-1.571-3.929-1.571s-3.064.707-3.929 1.571m121.993 7.027c-3.815 3.503-12.14 10.057-18.5 14.563-22.457 15.911-24.045 17.486-24.057 23.866-.023 12.243 18.262 15.05 28.096 4.315 4.72-5.154 9.207-12.603 13.593-22.569 4.211-9.568 8.771-23.989 8.125-25.696-.177-.467-3.442 2.017-7.257 5.521m59.841-3.081c.406 1.641 2.506 7.378 4.665 12.75 9.59 23.852 18.18 36.646 26.021 38.758 5.507 1.482 10.439.284 14.467-3.515 2.738-2.582 3.442-4.016 3.442-7.01 0-5.698-3.119-9.644-13.152-16.637-15.813-11.023-25.558-18.214-30.956-22.846-5.226-4.483-5.226-4.483-4.487-1.5m-25.405.892c0 .775-2.213 8.088-4.917 16.25-7.026 21.205-9.25 30.65-9.382 39.841-.197 13.725 3.902 20.408 13.002 21.204 12.11 1.058 19.034-10.189 16.388-26.621-1.431-8.881-13.269-52.083-14.272-52.083-.45 0-.819.634-.819 1.409"/></svg>