<svg xmlns="http://www.w3.org/2000/svg" viewBox="0 0 2048 2048"><path fill-rule="evenodd" d="M1016.893 433.414c-5.433 3.126-6.241 5.784-7.013 23.086-.393 8.8-.752 22.603-.797 30.673-.081 14.36-.028 14.739 2.49 17.731 5.161 6.134 15.99 6.466 21.788.669 2.549-2.55 3.684-5.074 5.392-11.992 1.19-4.82 3.337-10.766 4.772-13.214q7.247-12.368 25.686-12.367c5.113 0 5.113 0 4.453 35.25-.581 31.073-2.201 94.711-4.448 174.75l-.716 25.5-11.5.5c-12.495.543-15.147 1.45-17.49 5.98-1.919 3.712-1.948 12.272-.054 15.935 2.721 5.262 5.486 5.776 37.544 6.981 16.225.609 42.881 1.869 59.236 2.798 27.702 1.574 29.973 1.577 33.212.032 8.738-4.167 10.113-21.036 2.14-26.261-2.498-1.636-9.423-3.095-19-4.003l-6.911-.656.652-45.653c.59-41.295 1.547-85.501 3.49-161.153.681-26.5.681-26.5 5.181-26.192 11.777.806 20.8 5.96 25.062 14.314 1.055 2.067 2.639 7.938 3.52 13.047s2.244 10.528 3.028 12.043c2.075 4.013 6.297 5.788 13.763 5.788 5.877 0 6.753-.28 9.512-3.039 3.566-3.566 3.76-4.532 5.096-25.366 1.509-23.551 1.335-38.082-.498-41.628-2.826-5.464-3.289-5.561-37.983-7.941-7.7-.529-20.75-1.429-29-2.001-22.039-1.527-75.41-3.863-103.5-4.529-20.701-.491-24.904-.349-27.107.918M748.5 437.005c-24.039 1.013-55.564 2.773-64.451 3.598-5.561.517-6.906 1.054-9.75 3.898S671 448.483 671 452.752c0 5.572 2.868 10.863 7.03 12.969 1.401.708 6.215 1.256 11.119 1.264 10.122.018 8.566-6.274 12.367 50.015 1.355 20.075 2.701 38.525 2.991 41s2.103 27.675 4.029 56c1.927 28.325 4.169 60.05 4.983 70.5S715 705.8 715 708.611c0 5.11 0 5.11-5.126 5.718-9.357 1.108-13.227 5.443-13.14 14.718.066 6.945 2.425 11.757 6.801 13.87 2.477 1.196 5.118 1.229 16.95.213 26.334-2.261 50.006-4.128 69.535-5.485 20.939-1.455 24.452-2.383 27.686-7.319 2.31-3.526 2.167-12.04-.272-16.168-2.851-4.827-6.784-6.158-18.199-6.158-9.962 0-9.962 0-10.663-10.25-.386-5.638-1.513-21.725-2.506-35.75s-1.656-25.766-1.474-26.092c.182-.325 7.21-.876 15.619-1.223 24.408-1.009 44.893-5.2 58.289-11.928 29.213-14.669 47.882-38.913 53.096-68.949 2.204-12.696 1.498-36.131-1.416-46.983-4.607-17.165-11.39-29.663-21.772-40.118-15.159-15.265-36.266-24.3-65.82-28.175-14.397-1.887-48.757-2.595-74.088-1.527m488.9 11.395c-3.135 3.135-3.4 3.882-3.4 9.6 0 5.668.28 6.48 3.267 9.467 3.279 3.279 10.092 5.533 16.723 5.533 4.869 0 5.052-12.786-1.552 108.5-1.917 35.2-4.133 74.575-4.925 87.5a8940 8940 0 0 0-2.134 35.886c-.694 12.386-.694 12.386-8.397 11.792-14.168-1.092-18.971 2.308-18.978 13.437-.004 5.799 1.96 9.725 5.928 11.849.978.523 11.856 1.879 24.173 3.013 32.756 3.015 52.533 5.001 59.895 6.013 20.472 2.814 26.846 3.141 29.944 1.539 4.139-2.14 6.443-6.92 6.383-13.243-.086-9.099-4.181-12.703-15.786-13.892-4.074-.417-6.914-1.204-7.22-1.999-.276-.721.232-11.117 1.129-23.103 2.006-26.78 6.696-96.41 10.057-149.292 1.38-21.725 2.949-46.025 3.486-54s.983-15.02.992-15.656c.008-.636.802-.975 1.765-.754.963.222 6.025.811 11.25 1.31 11.244 1.072 14.959.014 17.552-5 2.084-4.03 2.301-11.938.424-15.445-.773-1.444-2.68-3.285-4.237-4.09-1.821-.942-15.046-2.679-37.036-4.866-36.112-3.591-79.662-7.499-83.575-7.499-1.314 0-3.809 1.481-5.728 3.4m-698.9 9.744c-3.3.497-14.325 2.024-24.5 3.394-33.704 4.537-72.463 10.648-75 11.825-9.295 4.311-6.711 21.664 3.611 24.254 1.577.396 7.976.16 14.218-.525 6.243-.685 11.565-1.031 11.826-.77s-4.515 40.683-10.614 89.826c-6.099 49.144-11.978 96.777-13.065 105.852-5.558 46.429-7.022 57.437-7.717 58.03-.417.356-3.865 1.194-7.661 1.861-9.57 1.684-12.088 3.207-14.127 8.546-2.422 6.343-1.358 12.48 2.957 17.056 4.375 4.639 5.857 4.604 39.826-.937 14.985-2.444 29.496-4.749 32.246-5.123 8.44-1.147 11.349-2.837 13.587-7.897 1.461-3.303 1.82-5.548 1.325-8.284-1.829-10.1-5.934-12.795-18.177-11.93-8.347.589-8.347.589-7.713-6.617.349-3.963 1.469-14.855 2.488-24.205s2.419-23.378 3.111-31.174c1.259-14.175 1.259-14.175 4.319-14.712 3.415-.599 55.675-6.34 62.278-6.841 4.217-.32 4.217-.32 6.84 5.704 1.443 3.312 5.457 13.448 8.922 22.523 3.464 9.075 8.413 21.823 10.997 28.329s4.515 12.012 4.292 12.235-3.962.9-8.31 1.505c-8.986 1.25-10.48 1.87-13.381 5.56-1.617 2.055-2.078 4.074-2.078 9.106 0 6.019.235 6.7 3.4 9.865 3.128 3.128 3.891 3.4 9.539 3.4 3.376 0 21.084-1.827 39.35-4.059s40.549-4.898 49.518-5.923c10.839-1.238 17.155-2.418 18.834-3.518 3.696-2.422 5.675-7.891 4.858-13.426-1.431-9.7-7.154-14.453-16.787-13.942-5.03.267-5.03.267-11.839-16.513-9.572-23.587-25.236-64.102-61.328-158.619-8.086-21.175-16.641-43.45-19.012-49.5-2.37-6.05-5.823-15.231-7.671-20.402-1.849-5.17-4.555-10.683-6.013-12.25-2.477-2.66-3.136-2.84-10-2.727-4.042.066-10.049.527-13.349 1.023m851.881 5.766c-5.43 3.311-7.168 13.462-3.361 19.623 2.447 3.958 3.208 4.309 13.98 6.435 8.5 1.679 8.5 1.679 8.209 5.105-.683 8.061-9.087 70.602-19.206 142.927-3.27 23.375-7.327 52.625-9.014 65s-3.313 23.9-3.613 25.61c-.546 3.111-.546 3.111-7.211 2.635-6.197-.443-6.852-.289-9.327 2.188-5.354 5.358-5.843 17.538-.884 22.026 1.476 1.336 9.716 3.002 33.254 6.724 36.647 5.795 43.606 6.522 46.682 4.876 3.832-2.051 6.102-6.993 6.106-13.293.003-4.858-.416-6.197-2.746-8.763-2.292-2.524-4.328-3.369-12.224-5.073-5.211-1.125-9.67-2.241-9.91-2.48-.239-.24 1.211-12.026 3.224-26.193 9.056-63.762 14.838-103.603 16.508-113.757 2.097-12.749 1.017-14.622 8.651 15 11.643 45.174 14.099 54.582 20.561 78.744 3.787 14.159 7.64 26.894 8.561 28.301 2.342 3.574 6.474 5.455 11.984 5.455 7.757 0 4.31 5.065 63.585-93.433 12.793-21.259 16.805-27.232 16.788-25-.03 3.879-5.723 62.549-11.139 114.79l-4.339 41.858-7.5-.619c-9.217-.76-11.691.308-14.75 6.369-3.684 7.301-2.734 15.362 2.193 18.59 1.456.954 12.632 3.509 26.295 6.013 24.684 4.523 26.59 4.898 54.992 10.832 18.228 3.808 23.786 4.297 26.345 2.318 5.157-3.988 7.074-13.332 4.109-20.034-2.088-4.721-5.572-6.76-13.934-8.152-4.098-.682-4.25-.839-4.248-4.37.001-2.014 1.147-15.362 2.547-29.662s4.081-42.425 5.957-62.5 5.013-53.375 6.97-74 4.349-46.275 5.315-57c1.351-15.006 2.062-19.435 3.082-19.217.73.156 5.535.56 10.677.898 7.869.517 9.768.341 11.984-1.111 5.217-3.418 7.136-13.178 3.5-17.8-2.648-3.366-5.259-4.254-21.034-7.154-7.425-1.365-24.3-4.568-37.5-7.118-14.284-2.76-25.374-4.422-27.393-4.107-6.505 1.016-4.418-2.178-47.119 72.109-13.91 24.2-26.322 45.53-27.583 47.399-2.292 3.399-2.292 3.399-2.953.5a676 676 0 0 0-2.012-8.399c-.743-3.025-6.104-26.2-11.913-51.5s-11.973-52.075-13.697-59.5c-3.444-14.828-5.501-19.261-10.021-21.599-2.439-1.261-76.901-12.408-82.809-12.396-.825.001-2.904.858-4.619 1.905m-600.018 4.609c10.966.816 22.192 4.578 29.298 9.818 10.312 7.605 15.287 14.618 19.98 28.163 2.575 7.431 2.774 9.139 2.796 24 .027 18.274-1.234 24.771-7.383 38.038-7.739 16.698-21.064 26.817-39.435 29.948-12.094 2.062-13.482 1.989-14.05-.736-.258-1.237-.944-9.9-1.523-19.25-.58-9.35-2.155-32.75-3.501-52-1.345-19.25-2.759-40.537-3.141-47.304-.694-12.303-.694-12.303 4.201-11.783 2.692.287 8.433.784 12.758 1.106m-477.082 30.005c-21.02 4.614-39.289 9.09-40.596 9.947q-4.688 3.072-4.681 10.826c.005 5.366 2.956 10.239 7.518 12.415 3.147 1.5 4.589 1.552 13.137.473 10.513-1.328 11.706-.991 12.68 3.587.319 1.501 4.221 19.603 8.67 40.228s10.544 49.425 13.544 64 6.727 32.237 8.283 39.25 2.566 12.728 2.246 12.701-4.057-4.639-8.303-10.25a14275 14275 0 0 0-23.74-31.201c-8.81-11.55-32.919-43.162-53.575-70.248-25.524-33.47-38.559-49.767-40.687-50.867-2.302-1.191-4.472-1.448-8.203-.973-2.791.355-25.754 5.532-51.029 11.504-44.326 10.474-46.054 10.97-48.75 13.987-5.145 5.759-3.238 17.14 3.626 21.637 2.832 1.856 8.257 1.702 20.326-.578 4.591-.866 7.593-1.019 8.191-.415.519.524 2.079 6.128 3.466 12.453 6.638 30.255 38.682 180.819 44.683 209.947 1.637 7.945 2.769 14.985 2.517 15.643s-4.205 2.434-8.782 3.946c-9.554 3.155-13.239 5.435-15.337 9.493-3.34 6.46-.714 18.767 4.589 21.509 4.049 2.094 6.032 1.882 19.958-2.134 6.857-1.977 25.38-7.122 41.16-11.434 15.781-4.311 29.595-8.321 30.699-8.912 5.451-2.917 6.659-10.563 2.859-18.093-3.611-7.155-6.385-7.782-23.804-5.378-4.555.629-4.555.629-6.784-9.229-2.328-10.299-11.153-51.332-18.033-83.858-4.078-19.274-12.542-62.687-13.648-70-.742-4.905-4.239-9.108 29.519 35.477 32.745 43.249 93.959 122.188 98.299 126.763 1.724 1.816 4.534 3.513 6.399 3.863 3.575.671 49.197-7.745 55.03-10.151 3.445-1.421 7.262-6.651 7.268-9.959.002-1.104-5.589-30.129-12.425-64.5S363.031 635.9 358.008 609.5c-5.024-26.4-10.459-54.923-12.078-63.384s-3.225-17.775-3.569-20.698c-.709-6.032-1.941-5.18 11.455-7.921 8.978-1.837 10.761-2.755 13.234-6.811 3.482-5.711 1.848-15.543-3.167-19.055-1.447-1.014-4.23-1.606-7.356-1.564-2.765.037-22.226 3.843-43.246 8.457m1388.975 21.505c-2.729 1.097-6.025 6.277-6.882 10.817-.772 4.082.941 10.224 3.495 12.536 1.038.939 6.661 2.87 12.495 4.292 9.704 2.365 10.57 2.766 10.156 4.706-.25 1.166-1.615 9.545-3.035 18.62-1.419 9.075-4.582 28.875-7.027 44a13521 13521 0 0 0-5.94 37c-3.722 23.677-21.55 132.739-22.031 134.775-.51 2.159-.861 2.242-6.831 1.631-8.458-.867-11.827.857-14.292 7.312-3.291 8.615-1.582 16.108 4.17 18.295 1.337.508 13.801 3.616 27.698 6.906 34.957 8.275 77.034 18.563 117.48 28.723 37.233 9.353 38.844 9.518 43.675 4.476 2.951-3.08 2.76-2.293 10.186-42.118 4.199-22.516 4.517-27.407 2.031-31.201-3.646-5.565-14.761-8.507-21.146-5.598-1.688.769-3.842 3.554-5.994 7.75-1.847 3.602-4.243 7.85-5.324 9.44-4.192 6.167-11.638 12.729-17.994 15.858-6.283 3.093-7.118 3.243-17.125 3.089-8.28-.127-14.036-.982-27.021-4.015-16.5-3.853-16.5-3.853-16.197-7.338.391-4.502 10.16-60.319 14.524-82.985 2.499-12.98 3.732-17.467 4.771-17.374 3.338.3 25.869 4.583 30.703 5.836 2.915.756 6.441 2.122 7.834 3.034 3.468 2.273 6.314 8.988 6.358 15.004.02 2.75.599 6.111 1.286 7.47 3.423 6.764 14.844 9.409 20.314 4.704 2.982-2.565 3.464-4.577 11.497-48.002 3.818-20.639 3.949-21.964 2.396-24.333-2.18-3.328-7.272-5.339-13.52-5.339-6.691 0-8.47 1.088-11.473 7.013-3.343 6.598-6.269 7.987-16.818 7.987-7.293 0-32.399-3.438-33.597-4.601-.232-.225.81-7.044 2.314-15.154s4.067-22.17 5.695-31.245c3.482-19.409 8.801-46.998 9.385-48.677.289-.831 4.912-.02 15.719 2.756 25.152 6.46 28.791 7.952 36.165 14.826 7.459 6.954 10.532 14.168 12.165 28.562.578 5.091 1.216 6.505 4.351 9.64 7.86 7.861 21.329 7.704 26.503-.309 1.302-2.018 6.021-24.173 9.686-45.483 1.983-11.525-1.079-16.194-12.751-19.449-44.928-12.53-177.994-44.958-183.81-44.795-1.1.031-3.01.462-4.244.958M518.504 557C539.854 615.362 543 624.077 543 624.867c0 .787-41.571 6.206-47.225 6.157-2.416-.021-2.672-.335-2.253-2.774.259-1.513 1.811-12.65 3.449-24.75s4.57-33.475 6.516-47.5c1.947-14.025 3.533-25.928 3.526-26.45-.043-3.085 2.838 3.796 11.491 27.45M773 790.594c-7.656 3.316-12.241 9.961-12.356 17.906-.151 10.448 7.04 17.524 17.763 17.478 9.909-.043 17.169-5.624 19.719-15.159 2.191-8.193-1.728-16.371-9.547-19.923-4.925-2.236-10.847-2.351-15.579-.302m70 20.955c-20.53 5.694-35.821 27.892-33.375 48.451.36 3.025 1.266 7.241 2.013 9.369 1.344 3.831 1.311 3.939-3.342 11-11.901 18.059-23.505 32.115-31.437 38.078-6.353 4.776-9.239 5.612-10.252 2.971-1.138-2.964-.605-17.895.961-26.918.859-4.95 3.332-16.067 5.497-24.705 4.758-18.988 5.019-24.438 1.347-28.111-4.236-4.235-18.155-5.037-22.302-1.284-.995.901-3.07 4.891-4.611 8.869-11.669 30.115-34.138 56.985-57.455 68.709-11.777 5.921-17.687 7.315-28.931 6.823-12.117-.531-18.266-3.26-27.845-12.357-6.85-6.505-9.371-7.53-13.323-5.414-2.419 1.294-4.945 6.087-4.945 9.383 0 1.382.932 5.002 2.071 8.046 4.087 10.925 16.192 20.745 29.052 23.568 9.201 2.02 26.831.816 35.608-2.431 14.936-5.526 29.407-16.063 43.286-31.516l6.483-7.219-.317 10.109c-.467 14.87 2.954 23.367 11.186 27.781 4.751 2.547 18.686 2.25 24.858-.531 15.506-6.985 26.438-17.915 45.518-45.51 6.088-8.805 7.751-10.621 8.738-9.542.67.732 3.274 4.775 5.786 8.983 4.567 7.65 4.567 7.65-.389 10.222-19.273 9.999-33.315 24.583-37.871 39.332-3.738 12.104-2.29 20.287 4.854 27.434 5.239 5.242 11.395 7.607 22.137 8.507 19.032 1.594 41.586-10.029 49.406-25.46 5.462-10.78 6.968-25.2 4.039-38.686-.836-3.85-1.761-8.125-2.055-9.5-.489-2.282.147-2.836 7.287-6.35 11.77-5.794 23.411-13.077 27.234-17.041 2.712-2.811 3.429-4.388 3.5-7.691.159-7.441-1.31-7.258-18.528 2.299-20.885 11.593-25.994 14.084-26.888 13.111-.419-.455-3.718-6.453-7.332-13.328-10.827-20.599-12.419-33.647-5.379-44.094 5.41-8.027 13.01-9.845 22.565-5.396 6.522 3.036 10.239 3.156 12.723.41 2.533-2.799 2.464-9.031-.139-12.627-1.112-1.536-4.69-4.135-7.951-5.776-5.233-2.633-7.103-3.013-15.955-3.238-6.644-.169-11.883.26-15.527 1.27m369.538 21.95c-2.179.776-4.749 2.444-5.712 3.706-.962 1.262-2.878 7.081-4.257 12.931-4.953 21.016-11.352 34.908-23.858 51.803-7.913 10.689-15.39 18.271-19.834 20.112-2.702 1.119-3.249 1.021-5.198-.935-1.94-1.947-2.169-3.199-2.084-11.401.109-10.493.692-13.683 7.486-40.967 5.839-23.445 6.035-26.467 2.011-30.971-2.746-3.074-3.348-3.274-10.857-3.615-8.787-.399-12.986 1.002-15.78 5.266-.86 1.312-2.622 7.04-3.916 12.729-5.197 22.846-11.29 37.674-22.259 54.173-6.198 9.324-12.586 15.949-14.945 15.5-4.219-.803-2.585-16.752 4.796-46.83 5.929-24.159 5.22-31.916-3.516-38.438-2.144-1.601-4.255-2.062-9.438-2.062-5.566 0-7.509.485-11.677 2.915-9.517 5.55-27.224 24.548-36.375 39.031-1.719 2.72-3.125 4.745-3.124 4.5s.708-3.821 1.574-7.946c.865-4.125 1.589-11.434 1.608-16.243.047-11.441-2.503-17.158-9.145-20.507-5.773-2.911-10.25-2.83-16.995.31-6.97 3.244-17.499 14.094-25.503 26.279-3.278 4.991-6.03 8.981-6.116 8.868-.086-.114.892-5.382 2.173-11.707 4.241-20.94 3.194-24.232-8.439-26.537-8.762-1.736-16.824 2.259-20.132 9.976-3.282 7.657-10.81 43.314-14.088 66.731-3.005 21.468-1.774 28.782 5.419 32.195 4.244 2.014 13.777 2.134 17.478.22 3.454-1.786 4.121-3.125 9.75-19.585 7.468-21.839 18.473-41.558 32.108-57.539 4.69-5.496 6.881-7.433 7.104-6.276.177.919-2.148 12.841-5.168 26.493-8.103 36.639-8.765 45.566-3.874 52.245 2.631 3.593 7.963 6.074 13.061 6.075 7.608.003 9.201-1.814 13.865-15.817 5.709-17.142 16.733-37.29 28.803-52.642 6.497-8.263 15.161-17.253 15.878-16.477.223.241-1.788 9.16-4.468 19.82-9.608 38.218-10.333 51.689-3.236 60.123 8.203 9.75 22.517 8.307 36.182-3.646 5.328-4.661 14.366-15.361 17.942-21.242 1.932-3.176 1.932-3.176 2.474 5.103.649 9.921 3.1 16.13 8.103 20.522 7.323 6.43 19.402 6.926 30.654 1.259 10.612-5.346 25.268-21.863 33.143-37.352 1.636-3.218 3.132-5.693 3.323-5.5.368.371-2.769 20.75-4.551 29.564-.999 4.937-1.354 5.383-6.741 8.45-40.324 22.959-71.834 52.925-81.308 77.323-5.274 13.583-5.669 26.456-1.123 36.667 2.358 5.298 9.754 12.277 16.068 15.161 6.971 3.184 20.296 2.919 29.348-.584 16.263-6.293 32.953-21.07 46.004-40.73 12.717-19.158 22.266-45.05 28.788-78.057 1.033-5.232 1.404-5.743 6.317-8.706 7.828-4.723 20.032-10.037 29.648-12.911 10.366-3.098 31.899-4.334 41.344-2.373 7.749 1.609 17.975 6.924 25.058 13.025 6.579 5.666 9.213 6.18 13.363 2.606 2.566-2.209 2.806-2.999 2.802-9.25-.004-5.601-.488-7.656-2.68-11.392-8.738-14.888-27.217-22.736-50.816-21.582-18.316.895-34.594 6.172-52.418 16.994-4.209 2.555-7.767 4.646-7.907 4.646s.744-7.456 1.965-16.57c3.023-22.563 5.365-45.685 5.36-52.93-.004-7.881-2.332-12.602-7-14.194-4.711-1.606-11.639-1.525-16.462.193m-738.044 4.251c-2.735 20.688-7.634 33.288-16.645 42.816-7.538 7.97-22.279 14.849-36.159 16.873-3.759.548-4.739 1.068-4.487 2.379.237 1.227 1.846 1.867 5.996 2.385 19.324 2.414 34.215 10.181 41.688 21.743 4.358 6.743 8.546 18.633 10.083 28.624 1.594 10.367 2.103 12.43 3.064 12.43.482 0 1.162-1.687 1.512-3.75 4.424-26.058 9.586-38.359 20.361-48.523 7.987-7.535 16.432-11.981 27.561-14.51 4.143-.942 7.532-2.205 7.532-2.808s-3.905-1.864-8.678-2.802c-20.435-4.015-32.804-12.863-40.744-29.146-3.598-7.379-7.578-20.529-7.578-25.039 0-2.86-.967-5.422-2.046-5.422-.457 0-1.114 2.138-1.46 4.75m976.182-4.016c-.254.421-.961 4.008-1.571 7.971-3.489 22.662-12.634 37.068-28.617 45.081-4.994 2.504-16.424 5.871-22.798 6.717-3.001.398-4.664 1.075-4.422 1.802.394 1.182 1.032 1.383 12.946 4.079 9.144 2.069 17.1 6.146 23.644 12.116 10.246 9.349 14.968 19.404 17.767 37.841 2.358 15.532 2.265 15.204 3.858 13.565.752-.773 2.306-6.702 3.454-13.175 5.524-31.156 18.52-44.747 47.634-49.817 3.663-.638 6.369-1.594 6.173-2.182-.192-.575-5.05-2.231-10.796-3.679-12.843-3.237-21.362-7.683-27.83-14.522-8.297-8.773-14.661-24.022-16.642-39.879-.669-5.35-1.756-7.649-2.8-5.918m155.474 71.188c-2.898 17.546-9.28 30.663-19.1 39.253-8.533 7.464-18.302 11.529-34.3 14.273-6.435 1.103-4.314 2.928 6.019 5.177 13.523 2.945 22.231 7.353 30.341 15.361 3.635 3.589 7.776 8.83 9.203 11.645 2.774 5.474 6.247 17.572 7.28 25.356.74 5.585 1.913 7.946 3.229 6.505.498-.546 2.075-6.335 3.505-12.866 3.366-15.369 7.043-23.156 14.418-30.531 7.435-7.435 17.553-12.41 30.041-14.771 5.962-1.127 9.214-2.197 9.214-3.033 0-.71-1.013-1.299-2.25-1.308-4.442-.034-17.324-3.963-24.221-7.387-15.59-7.74-23.932-20.886-28.332-44.645-.946-5.111-2.209-9.455-2.807-9.654-.646-.216-1.553 2.466-2.24 6.625M324 903.976c-13.918 1.937-24.778 7.941-38.032 21.024-18.326 18.092-30.664 39.305-44.015 75.678-7.407 20.177-16.407 54.904-20.975 80.931-1.248 7.11-1.248 7.11-6.087 8.227-25.853 5.967-48.824 1.836-60.277-10.841-8.356-9.249-11.877-22.124-9.852-36.02 1.344-9.221.551-12.607-3.174-13.542-7.179-1.802-18.209 7.378-24.373 20.287-3.52 7.372-3.715 8.304-3.715 17.78 0 12.087 1.78 17.943 8.036 26.442 8.049 10.934 24.292 20.047 42.398 23.788 9.473 1.957 32.544 1.976 43.316.036 4.262-.768 7.75-1.294 7.75-1.168 0 .125-1.1 8.255-2.445 18.065-5.928 43.247-8.054 78.238-6.496 106.906 1.489 27.383 4.171 37.318 11.653 43.161 5.097 3.98 9.313 5.27 17.225 5.27 7.516 0 14.136-2.699 17.304-7.055 1.214-1.669 2.894-8.432 4.844-19.5 1.642-9.32 4.323-22.246 5.959-28.725 7.887-31.236 22.953-61.981 41.573-84.835 5.801-7.12 22.254-23.347 22.958-22.643.236.236-.24 2.64-1.058 5.343-2.076 6.867-6.904 30.67-10.428 51.415-6.705 39.468-6.507 62.5.658 76.513 8.395 16.419 30.639 19.758 49.174 7.381 8.445-5.639 16.951-16.075 22.764-27.928 2.648-5.4 5.04-9.845 5.315-9.879s1.728 2.97 3.23 6.675c3.56 8.788 10.19 16.316 17.543 19.921 4.831 2.368 6.987 2.808 13.779 2.812 7.193.005 8.794-.366 15-3.464 12.295-6.14 25.05-20.635 36.547-41.531l4.401-8 .682 8.222c1.181 14.253 5.628 27.566 11.214 33.579 5.033 5.417 15.811 7.836 25.733 5.776 11.568-2.401 27.112-14.76 37.713-29.984 6.12-8.788 5.807-10.711 3.461 21.269-2.201 29.992-2.489 95.859-.449 102.638 2.798 9.299 11.312 14 25.356 14 7.869 0 12.99-1.597 17.429-5.433 4.354-3.765 4.289-2.808 2.502-36.85-1.025-19.526-1.057-29.918-.149-48.989.634-13.314 1.319-24.373 1.523-24.576.203-.204 1.755.616 3.448 1.822 8.121 5.782 27.517 8.729 40.168 6.103 7.119-1.478 18.266-6.802 25.193-12.032 13.866-10.469 25.909-30.891 31.644-53.659.926-3.676 1.89-4.658 9.043-9.211 7.051-4.488 7.953-4.833 7.548-2.886-.252 1.216-.708 5.586-1.012 9.711s-1.668 20.1-3.032 35.5c-1.363 15.4-2.947 35.2-3.52 44-1.492 22.932-2.425 70.772-1.539 79 .683 6.352 1.101 7.331 4.514 10.583 4.858 4.626 11.249 6.446 22.141 6.306 6.875-.088 9.556-.582 13.292-2.448 2.575-1.286 5.217-2.983 5.872-3.773.885-1.066 1.215-14.942 1.286-54.051.053-28.939.455-54.294.894-56.345.799-3.727.799-3.727 3.504-1.801 6.854 4.88 12.933 6.388 26.041 6.46 14.051.078 18.723-.897 29.918-6.242 17.748-8.473 32.791-29.298 40.845-56.546 2.914-9.856 2.914-9.856 10.154-13.666 3.983-2.095 8.039-4.532 9.014-5.414 1.69-1.53 1.77-.871 1.717 14.166-.107 30.135 6.419 45.244 21.474 49.715 10.281 3.053 20.565 1.755 32.857-4.148 14.606-7.014 30.578-26.325 44.575-53.893 3.602-7.097 6.332-11.778 6.065-10.403s-.8 11.725-1.187 23c-.702 20.5-.702 20.5-5.317 23.357-10.659 6.597-38.407 26.153-48.615 34.261-6.05 4.806-16.911 14.62-24.136 21.81-17.898 17.811-26.696 31.451-30.729 47.636-4.637 18.613.557 33.592 14.077 40.59 15.822 8.191 38.93 4.104 72.788-12.873 11.495-5.764 18.926-11.362 28.546-21.506 20.309-21.416 30.684-49.658 35.342-96.215 1.145-11.439 1.145-11.439 6.023-14.305 7.495-4.404 19.165-7.99 27.742-8.524 15.644-.975 24.372 3.822 31.421 17.269 4.592 8.759 7.469 11.208 11.873 10.103 13.328-3.345 13.737-27.419.689-40.467-8.722-8.722-21.094-12.671-37.136-11.852-11.645.594-20.532 2.95-31 8.219-6.5 3.271-6.5 3.271-6.198-4.866 1.013-27.32 1.616-69.889 1.134-80.137-.629-13.4-1.998-17.351-7.088-20.446-4.342-2.641-10.616-3.327-18.255-1.997-12.45 2.168-15.165 5.842-21.021 28.443-6.082 23.472-11.324 38.288-19.225 54.336-14.74 29.941-31.385 49.862-36.8 44.044-5.647-6.068-4.735-30.975 3.007-82.155 4.156-27.467 4.329-33.117 1.159-37.827-2.905-4.315-5.663-5.615-14.613-6.884-12.676-1.798-19.727.799-23.746 8.746-2.228 4.404-3.56 11.025-7.495 37.24-2.326 15.5-2.326 15.5-6.526 20.033-2.31 2.493-6.283 6.028-8.829 7.856-4.627 3.324-4.627 3.324-4.035-3.033.327-3.496.814-8.448 1.083-11.006.599-5.681-1.078-21.208-3.168-29.35-.848-3.3-2.874-8.636-4.502-11.858-6.095-12.057-12.562-17.655-23.519-20.359-5.405-1.334-7.566-1.412-12.689-.46-9.116 1.696-17.542 6.309-26.072 14.276-9.698 9.056-16.062 17.116-22.635 28.665-2.9 5.095-5.382 9.145-5.517 9-.134-.145.618-4.539 1.671-9.764s2.194-14.465 2.535-20.533c.733-13.047-.365-16.258-6.659-19.468-4.558-2.326-16.382-3.618-23.428-2.562-6.535.98-11.936 6.382-13.453 13.456-1.244 5.803-3.239 21.978-5.705 46.267-1.692 16.661-1.692 16.661-7.802 21.089-3.36 2.435-6.578 4.694-7.151 5.02-.716.407-.768-2.12-.168-8.089 1.191-11.827.278-33.331-1.722-40.595-3.775-13.71-11.316-23.404-21.902-28.155-7.894-3.542-19.325-3.748-27.53-.496-14.184 5.623-27.858 19.465-40.074 40.566-2.866 4.95-4.973 8.1-4.681 7s1.449-7.747 2.574-14.772c4.679-29.22 2.009-35.122-16.478-36.427-9.686-.683-15.404.902-19.72 5.467-3.305 3.495-4.119 6.722-7.786 30.856-5.852 38.519-9.229 53.747-14.384 64.875-7.368 15.901-23.164 38.222-30.07 42.491-3.691 2.281-3.691 2.281-5.854.12-1.948-1.945-2.196-3.422-2.499-14.847-.185-6.977.152-16.821.748-21.875 1.219-10.336 5.871-35.328 9.659-51.888 4.383-19.161 6.641-32.861 6.145-37.291-.88-7.872-6.391-11.487-17.716-11.621-9.398-.11-12.73 1.953-17.085 10.58-3.022 5.988-3.022 5.988-7.3 2.045-11.704-10.788-35.16-11.224-53.615-.995-26.064 14.446-48.766 49.805-55.583 86.574-3.385 18.253-4.546 22.045-10.351 33.796-6.465 13.088-13.934 23.918-17.211 24.958-3.904 1.239-4.359-.766-4.275-18.852.086-18.462.451-21.229 8.93-67.694 6.961-38.147 7.449-48.477 2.657-56.23-6.057-9.801-25.056-10.526-42.625-1.626-14.179 7.182-32.599 23.653-44.432 39.728-8.446 11.475-19.218 29.715-24.611 41.672-2.469 5.476-4.491 9.046-4.494 7.933-.009-3.722 4.991-45.775 7.507-63.148 1.369-9.444 2.488-17.657 2.488-18.25s.563-1.079 1.25-1.08c.688 0 7.1-2.852 14.25-6.338 35.869-17.486 63.84-44.049 81.778-77.661 9.029-16.918 15.997-40.251 17.32-58 1.522-20.404-5.99-40.139-18.894-49.639-9.381-6.906-23.748-10.188-36.704-8.385m512 21.475c0 8.669-3.398 18.303-8.661 24.558-2.923 3.474-11.374 7.965-15.018 7.981-4.988.023-6.733-5.675-3.851-12.572 1.894-4.534 11.277-13.824 19.394-19.202 3.5-2.319 6.763-4.216 7.25-4.216s.886 1.553.886 3.451m-495.899 2.685c12.849 4.294 15.472 22.365 7.239 49.864-8.664 28.938-29.837 59.035-58.323 82.904-6.53 5.472-12.866 10.48-14.08 11.13-2.034 1.088-2.161.995-1.612-1.194.328-1.307 1.992-9.118 3.698-17.358 5.156-24.901 13.373-56.005 19.677-74.482 10.651-31.214 25.339-51.065 38.401-51.898.88-.056 3.13.409 5 1.034m218.882 16.114c-.038 4.814-3.085 16.371-5.908 22.403-5.45 11.646-17.745 20.977-31.278 23.738-3.234.66-5.879 1.601-5.877 2.091.003.49 3.746 1.649 8.319 2.574 10.181 2.062 16.907 5.366 22.568 11.09 6.187 6.254 10.021 14.675 11.448 25.144 1.174 8.605 2.269 10.837 3.17 6.46 2.993-14.538 4.118-18.516 6.685-23.655 5.751-11.508 17.483-19.351 31.068-20.771 3.938-.412 5.822-1.048 5.822-1.966 0-.797-1.078-1.358-2.606-1.358-4.625 0-14.755-3.085-20.065-6.111-6.517-3.712-10.855-8.63-14.416-16.342-2.596-5.621-5.913-18.807-5.913-23.505 0-1.148-.656-2.042-1.5-2.042-.884 0-1.507.924-1.517 2.25m625.647 18.272c-.321.837-1.965 6.261-3.652 12.054-6.036 20.719-12.071 34.662-20.573 47.528-11.233 16.998-27.986 24.735-35.256 16.282-2.075-2.412-2.31-3.534-1.975-9.456.301-5.325 1.166-8.268 4.168-14.183 4.451-8.77 15.338-21.773 25.173-30.066 8.168-6.888 30.595-23.521 31.842-23.616.471-.036.594.62.273 1.457m97.717 7.573c-13.669 2.283-24.326 8.727-39.411 23.829-13.029 13.044-22.25 26.64-32.944 48.576-8.927 18.312-14.359 32.619-20.498 53.99-4.306 14.991-4.306 14.991-10.15 16.219-3.214.676-10.344 1.506-15.844 1.845-18.245 1.123-32.545-3.365-44.273-13.895-3.45-3.098-7.368-5.907-8.707-6.243-6.008-1.508-12.541 4.494-12.498 11.482.075 12.238 14.72 24.054 36.908 29.777 7.679 1.981 12.237 2.491 23.07 2.584 7.425.064 15.346-.221 17.602-.634 4.103-.751 4.103-.751 2.273 7.686-6.589 30.387-10.239 60.72-10.309 85.689-.077 27.324 1.89 35.029 10.268 40.206 5.015 3.1 21.074 3.865 27.734 1.321 5.572-2.128 6.575-4.04 9.299-17.713 3.034-15.236 7.234-27.269 15.116-43.314 11.738-23.896 26.587-44.622 41.961-58.573 7.822-7.096 15.202-12.591 13.744-10.231-1.141 1.846-9.509 29.804-12.757 42.621-6.437 25.402-8.592 51.013-5.423 64.452 4.191 17.779 14.203 26.231 31.068 26.231 17.625 0 32.371-10.469 45.933-32.61l4.844-7.909 3.482 6.769c5.782 11.24 16.339 20.703 27.997 25.094 4.724 1.779 7.846 2.137 18.743 2.146 13.076.01 13.076.01 21.736-4.281 17.854-8.847 32.549-28.701 43.086-58.212 3.335-9.342 3.335-9.342 11.17-11.671 4.309-1.282 10.907-3.863 14.662-5.736 6.827-3.405 6.827-3.405 6.287-.248-2.885 16.868-3.405 49.261-.958 59.644 2.744 11.642 7.863 17.645 18.442 21.625 6.495 2.444 20.063 2.436 26.5-.015 13.235-5.041 27.455-19.223 39.953-39.846 2.583-4.263 4.796-7.75 4.917-7.75.122 0 .345 3.713.496 8.25.531 15.911 3.994 27.6 10.844 36.605 8.051 10.584 26.464 14.023 40.898 7.64 10.135-4.483 23.618-16.628 34.894-31.432 11.725-15.394 26.463-41.353 36.938-65.063 2.552-5.775 5.061-11.4 5.576-12.5.516-1.1 1.76-4.25 2.765-7 1.828-5 1.828-5 6.774-4.821 2.72.098 6.859.463 9.199.811 5.107.761 5.479-1.846-3.851 27.01-14.073 43.521-16.352 54.171-16.37 76.5-.014 16.678 1.055 22.306 6.139 32.34 4.734 9.341 15.605 18.844 27.305 23.868 12.77 5.484 35.408 7.647 51.023 4.876 32.284-5.729 64.125-28.234 81.179-57.377 9.728-16.624 12.933-35.294 7.701-44.857-4.067-7.433-14.726-11.049-21.795-7.394-2.861 1.479-4.846 4.846-7.103 12.044-2.47 7.881-10.121 23.019-16.389 32.426-7.766 11.657-16.68 20.843-26.386 27.192-10.261 6.712-16.997 9.08-27.448 9.65-8.013.436-9.205.248-14.323-2.255-10.591-5.182-14.188-13.985-13.082-32.013.685-11.156 3.661-25.049 9.212-43 7.821-25.291 12.413-41.73 13.953-49.952 1.456-7.77 1.459-9.084.034-14.646-1.884-7.355-4.285-10.934-9.952-14.833-6.953-4.783-15.188-7.01-28.593-7.731-6.605-.355-12-.914-11.991-1.242s.917-3.971 2.017-8.096 2.282-11.181 2.627-15.681c1.814-23.681-8.23-37.564-29.414-40.659-27.851-4.068-53.996 21.859-51.969 51.535 1.224 17.924 11.415 29.111 31.622 34.71 4.061 1.126 7.5 2.17 7.641 2.321.618.66-6.301 16.626-13.986 32.274-17.212 35.048-34.117 59.111-45.99 65.465-5.642 3.02-8.347-2.938-8.485-18.685-.095-10.966 3.679-41.661 7.782-63.28 7.006-36.918 7.407-43.005 3.218-48.887-3.248-4.562-7.534-6.389-16.199-6.903-11.158-.662-17.961 2.176-21.467 8.956-.85 1.645-2.426 8.242-3.501 14.662-2.523 15.06-5.961 27.621-11.441 41.799-10.443 27.02-29.039 57.234-39.023 63.405-4.294 2.653-5.15 2.506-7.46-1.282-1.647-2.702-1.982-5.047-1.985-13.904-.005-13.701 3.356-33.787 11.185-66.846 6.743-28.476 7.39-34.361 4.252-38.672-5.973-8.207-26.562-11.091-35.617-4.989-5.351 3.607-7.206 7.539-10.719 22.731-1.836 7.936-3.749 16.105-4.252 18.152-.733 2.981-2.151 4.596-7.134 8.124-6.872 4.865-11.053 7.155-16.707 9.15-3.761 1.327-3.761 1.327-3.25-13.86.605-18.021-.999-28.178-6.203-39.265-4.26-9.078-8.938-14.228-16.659-18.344-8.23-4.386-14.808-6.004-24.4-6-15.161.005-27.963 4.669-40.747 14.846-25.898 20.615-43.423 55.587-45.414 90.627-.563 9.902-.974 11.699-4.118 18-4.889 9.799-10.114 17.204-16.05 22.75-9.015 8.421-12.521 6.092-12.408-8.242.092-11.799 2.403-24.538 9.433-52.008 13.013-50.85 13.925-56.832 9.703-63.663-4.375-7.079-16.462-9.934-29.291-6.919-8.751 2.056-22.372 8.417-29.551 13.8-16.444 12.33-36.072 35.986-47.944 57.782-2.247 4.125-4.091 7.202-4.099 6.839-.026-1.233 4.938-32.274 7.011-43.839 2.579-14.389 3.793-19 5.001-19 2.827 0 30.24-14.399 41.276-21.68 34.573-22.811 57.675-56.624 60.315-88.278 1.534-18.399-6.929-35.175-20.994-41.614-8.995-4.118-16.84-5.077-27.276-3.333m15.136 24.899c8.406 3.196 6.554 23.083-4.125 44.289-6.41 12.729-13.331 21.929-25.74 34.217-9.953 9.856-27.526 23.933-31.614 25.325-.526.179-.111-1.846.921-4.5s4.001-10.675 6.598-17.825c18.168-50.014 32.419-75.217 45.832-81.053 3.835-1.669 4.791-1.722 8.128-.453m410.594 93.929c2.508 2.509 2.92 3.679 2.899 8.25-.031 6.58-1.361 12.541-4.1 18.368-1.933 4.111-2.388 4.459-5.838 4.459-4.317 0-9.886-3.329-11.759-7.03-.687-1.359-1.249-5.17-1.248-8.47.002-7.141 2.725-12.745 7.882-16.22 4.677-3.152 8.575-2.946 12.164.643m-878.35 15.79c1.533 2.347 1.759 5.015 1.67 19.75-.095 15.875-.782 24.412-3.518 43.714-1.088 7.677-1.088 7.677-9.733 11.9-22.178 10.833-47.146 26.187-47.146 28.992 0 .512-.401.931-.891.931-1.404 0 3.655-22.288 8.057-35.5 4.754-14.269 15.579-36.856 23.004-48 8.017-12.033 21.099-24.322 26.057-24.477.4-.013 1.525 1.198 2.5 2.69m-157.215 6.665c3.656 5.58 3.61 26.231-.124 55.203-1.686 13.081-1.686 13.081-6.787 15.906-18.558 10.277-39.976 23.576-47.322 29.385-2.871 2.27-5.41 4.128-5.643 4.128-.735 0 4.111-21.567 6.902-30.718 9.415-30.873 26.836-62.09 40.85-73.2 4.918-3.899 9.843-4.185 12.124-.704m-185.368 6.699c4.772 2.554 6.185 12.675 3.409 24.423-6.311 26.706-26.229 65.65-40.129 78.463-5.593 5.156-8.785 5.986-11.869 3.088-3.707-3.482-4.914-9.693-4.242-21.837 1.052-19.017 5.108-33.365 15.225-53.857 11.993-24.289 26.689-36.123 37.606-30.28m957.275 2.567c3.74 2.696 7.354 10.755 8.68 19.356 1.1 7.142.674 24.647-.763 31.367-.593 2.771-.767 2.846-5.188 2.24-9.575-1.313-17.68-7.538-22.269-17.107-2.496-5.204-2.878-7.165-2.878-14.782-.001-5.679.548-10.096 1.552-12.5 1.736-4.156 5.912-8.969 8.947-10.31 2.908-1.285 8.946-.406 11.919 1.736m-36.1 64.543c8.482 8.421 20.576 13.726 31.431 13.789 2.338.013 4.25.483 4.25 1.044 0 2.078-4.985 13.193-8.545 19.053-2.021 3.328-6.168 8.743-9.215 12.035-9.334 10.082-17.463 13.497-24.815 10.425-9.306-3.888-12.521-11.091-13.183-29.533-.487-13.559.962-24.778 4.872-37.727l2.182-7.227 3.602 6.182c1.981 3.4 6.22 8.782 9.421 11.959m-587.843 17.464c-5.025 11.361-9.957 16.905-18.338 20.612-3.607 1.596-5.977 1.888-12.338 1.519-4.33-.25-8.327-.909-8.881-1.463-1.052-1.052 5.304-6.409 14.081-11.871 5.509-3.427 26.218-14.396 27.237-14.426.406-.012-.387 2.521-1.761 5.629m-157.079 5.026c-5.965 15.849-14.18 22.39-27.897 22.214-3.85-.05-8.078-.392-9.395-.761-2.391-.669-2.389-.676 1-3.227 1.867-1.406 9.92-6.834 17.895-12.063 19.596-12.849 19.405-12.728 20.205-12.788.388-.028-.426 2.953-1.808 6.625m322.04 29.573c-1.968 14.249-7.138 35.092-11.471 46.25-8.008 20.618-20.13 35.441-35.111 42.936-11.602 5.805-22.289 4.556-25.434-2.97-2.054-4.917-1.759-9.522 1.096-17.107 6.812-18.099 23.778-36.092 61.674-65.409 4.23-3.273 7.969-6.4 8.309-6.95 1.216-1.968 1.514-.933.937 3.25M352 1349.048c-24.633 1.116-68.944 4.572-81.878 6.387-5.432.763-11.241 2.092-12.911 2.956-6.476 3.349-9.123 10.434-5.716 15.299 3.1 4.425 41.822 39.246 54.571 49.072 2.667 2.056 4.868 4.076 4.891 4.488.024.412-1.546.75-3.489.75-8.109 0-15.468 5.673-15.468 11.924 0 7.229 6.485 11.814 18.089 12.787 3.801.318 6.911.792 6.911 1.053s-3.528 4.357-7.839 9.105c-12.972 14.282-32.989 37.281-37.411 42.983-6.157 7.939-5.268 14.76 2.443 18.748 5.306 2.744 38.195 3.746 81.307 2.479 54.65-1.606 81.59-4.038 102-9.207 17.572-4.45 35.558-13.108 51.672-24.872 9.318-6.803 24.483-22.343 32.328-33.129l7-9.624 26-.65c39.95-.999 131.803-2.414 241.5-3.72 54.725-.651 99.598-1.25 99.717-1.331s-1.906-6.981-4.5-15.334l-4.717-15.187-29.5.015c-29.757.014-221.254 2.366-293.556 3.606l-39.057.669-5.572-7.907c-24.565-34.856-54.588-53.439-96.815-59.925-12.835-1.971-61.142-2.741-90-1.435m737 2.507c-8.874 1.906-21.331 8.273-28.192 14.41-5.901 5.279-14.034 16.517-15.969 22.067-1.111 3.188-1.111 3.188-4.141-2.459-5.888-10.973-19.723-23.69-30.941-28.441-8.621-3.651-17.911-5.29-29.757-5.249-13.169.045-20.409 1.619-29.341 6.379-16.922 9.02-26.71 24.713-26.967 43.238-.136 9.815 1.497 16.857 6.028 26 5.393 10.882 11.651 18.944 25.244 32.525 18.537 18.52 37.935 33.791 61.845 48.685 17.354 10.812 24.576 14.46 26.889 13.587 3.676-1.388 24.154-14.215 34.802-21.799 43.911-31.276 73.769-66.037 78.496-91.384 3.189-17.102-.904-31.931-11.863-42.983-13.246-13.359-35.225-19.066-56.133-14.576m438.634 12.476c-4.976 1.49-10.49 6.041-12.599 10.396-6.256 12.924 2.516 27.815 25.646 43.533l7.819 5.314-13.5-.646c-7.425-.356-42.975-1.317-79-2.136s-114.273-2.629-173.885-4.022-108.509-2.406-108.66-2.251c-.705.722-12.5 31.069-12.195 31.374.191.191 17.873.799 39.294 1.35s45.021 1.244 52.446 1.54 46.35 1.191 86.5 1.989c76.496 1.52 94.931 1.957 149 3.528 18.15.528 38.236 1.081 44.634 1.23l11.635.27-13.135 13.53c-13.439 13.843-18.306 20.849-19.745 28.419-1.481 7.786 2.857 16.293 9.782 19.187 7.953 3.323 16.139 1.24 62.829-15.983 8.25-3.043 25.8-9.43 39-14.192 73.117-26.38 90.14-32.906 93.25-35.751 2.994-2.739 2.935-7.173-.133-10.008-1.311-1.211-11.999-6.454-23.75-11.651-23.366-10.334-70.852-31.719-113.867-51.28-15.125-6.878-29.612-13.015-32.193-13.638-5.401-1.304-14.991-1.355-19.173-.102M441.5 1369.594c17.163 3.568 31.224 12.986 56.5 37.846l13.5 13.277-19.259.611-19.259.611-20.741-20.827c-11.408-11.455-24.116-23.881-28.241-27.614l-7.5-6.786 9 .713c4.95.393 12.15 1.369 16 2.169m-27.589 25.246c27.411 26.841 27.411 26.841 20.5 27.493-3.801.359-11.115.656-16.253.66-9.341.007-9.341.007-36.5-27.527l-27.158-27.534 16 .034 16 .034zm-62.773 2.41 26.685 27.25-16.001.275-16.001.275-16.66-16.203c-9.164-8.911-21.994-20.96-28.511-26.775L288.8 1371.5l9.85-.556c27.896-1.576 22.57-4.245 52.488 26.306m764.703-23.203c9.873 4.366 14.622 11.675 14.589 22.453-.016 5.377-.582 8.119-2.44 11.823-3.165 6.315-3.846 6.576-3.245 1.245.554-4.912-1.247-13.758-3.577-17.568-5.695-9.316-12.4-13.116-24.549-13.916-8.881-.584-8.881-.584-4.576-2.996 8.154-4.568 15.132-4.873 23.798-1.041m-130.273.437c2.713.816 6.282 2.596 7.932 3.955 3 2.472 3 2.472-1 1.398-5.401-1.451-15.793-.358-21.121 2.221-9.908 4.797-16.037 16.175-15.169 28.165.427 5.909.417 5.935-1.383 3.614-.997-1.285-2.567-4.68-3.489-7.543-1.435-4.458-1.5-5.994-.451-10.68 2.09-9.337 10.471-18.067 20.286-21.13 5.711-1.782 8.473-1.782 14.395 0M1585 1409.31c5.775 2.484 15.675 6.944 22 9.91s15.971 7.392 21.436 9.836c8.235 3.683 9.456 4.5 7.13 4.772-5.167.604-19.999-1.94-26.566-4.557-8.145-3.245-21.82-11.643-31.548-19.373-4.099-3.257-7.452-6.131-7.452-6.385 0-.576 1.847.138 15 5.797m-1075.837 44.44c-3.708 5.166-30.649 30.862-37.27 35.546-3.633 2.571-9.568 6.061-13.188 7.755-6.328 2.961-22.238 6.909-27.955 6.936-2.628.012-2.672-.067-1-1.777.962-.984 11.817-12.666 24.12-25.96 25.107-27.127 20.108-24.488 47.448-25.049 9.818-.201 9.818-.201 7.845 2.549m-65.239.988c-4.071 4.598-30.873 33.021-40.424 42.869-9 9.28-9 9.28-25.712 9.657s-16.712.377-12.989-3.693c10.751-11.753 40.076-44.316 42.504-47.197 2.803-3.326 2.803-3.326 19.5-3.626 9.183-.165 17.338-.401 18.121-.524.905-.142.541.774-1 2.514m-76.617 13.512c-7.594 8.388-18.696 20.763-24.672 27.5C331.77 1508 331.77 1508 316.844 1508s-14.925 0-11.501-3.75c6.78-7.428 22.452-25.216 33.112-37.583 10.872-12.613 10.872-12.613 24.458-12.92 7.473-.17 14.625-.407 15.894-.528 1.806-.171-.688 3.088-11.5 15.031"/></svg>