<svg xmlns="http://www.w3.org/2000/svg" viewBox="0 0 2048 2048"><path fill-rule="evenodd" d="M980.955 234.944c-16.307 3.441-33.965 14.022-49.872 29.885-17.351 17.303-30.264 39.574-37.605 64.86-2.892 9.96-5.478 26.754-5.478 35.573v6.505l-2.25.618c-12.398 3.405-33.992 8.707-34.282 8.416-.736-.736 15.534-66.725 30.496-123.684 1.645-6.26 2.785-11.714 2.534-12.12s-1.729-.993-3.284-1.304l-2.827-.566.429-3.678c.283-2.422-.039-3.976-.943-4.549-2.113-1.338-20.171-1.023-31.873.556-13.622 1.839-20.806 3.511-41.684 9.706l-17.185 5.098-.613 6.62c-1.129 12.184-4.533 35.443-7.993 54.62-4.99 27.653-15.932 95.397-19.679 121.83-2.348 16.567-2.948 23.288-2.189 24.5.575.918 2.577 1.803 4.448 1.966l3.402.295-.285 4.205c-.451 6.655.167 7.014 9.879 5.731 16.564-2.187 114.454-16.067 117.021-16.593 2.335-.478 2.856-1.432 4.769-8.735 1.182-4.51 2.93-11.738 3.887-16.063l1.738-7.863 3.269 5.045c4.606 7.108 15.94 17.264 23.982 21.49 3.753 1.972 10.403 4.582 14.778 5.801 6.105 1.7 10.513 2.2 18.955 2.152 8.808-.05 12.751-.582 19.788-2.669 9.751-2.891 20.36-7.92 28.712-13.611 11.094-7.56 25.325-22.341 33.548-34.846l2.87-4.365.906 2.365c3.287 8.577 9.614 19.915 14.653 26.256 5.737 7.219 14.403 14.29 22.53 18.383 9.119 4.594 16.702 6.373 29.493 6.921 10.44.448 13.909.199 21.048-1.513 4.702-1.127 12.09-3.663 16.419-5.635 8.242-3.756 20.947-11.927 28.449-18.297l4.417-3.75-.614 3.11c-.337 1.71-.908 5.337-1.27 8.06l-.656 4.951 4.225 1.266 4.225 1.266-.507 4.499c-.324 2.872-.097 4.65.628 4.917 1.27.468 63.991 9.431 65.994 9.431.787 0 3.252-6.62 6.423-17.25 2.831-9.488 5.525-18.809 5.987-20.715l.841-3.464 4.123 10.964c6.582 17.502 8.754 22.227 13.882 30.193l4.827 7.498 4.69-.555c2.58-.306 17.98-3.507 34.222-7.113s30.345-6.548 31.339-6.535c1.188.015 3.177 2.458 5.801 7.121 5.726 10.178 14.274 19.125 21.814 22.831 8.35 4.105 16.934 5.548 24.776 4.167 3.345-.589 8.522-2.188 11.502-3.553 7.221-3.305 15.746-11.528 19.16-18.48 2.45-4.988 2.755-6.718 2.755-15.63v-10.021l-3.199-6.479c-1.76-3.563-6.184-9.741-9.831-13.729-3.783-4.135-5.99-7.25-5.139-7.25.821 0 5.989 1.063 11.485 2.361l9.991 2.362 11.269-17.612c26.849-41.96 40.778-64.607 54.022-87.83 7.772-13.63 17.23-30.116 21.017-36.636s6.876-12.145 6.865-12.5c-.021-.699-16.044-7.089-33.242-13.256-13.259-4.755-38.791-12.199-49.246-14.359l-7.786-1.608-4.557 3.862c-3.654 3.097-5.416 5.828-8.898 13.789-7.601 17.378-21.213 51.211-29.744 73.927-11.624 30.953-23.918 66.635-24.495 71.092-.007.05 2.688.909 5.988 1.908s6 2.096 6 2.437-3.129 1.426-6.953 2.411c-3.873.998-9.52 3.453-12.75 5.544-8.882 5.751-14.083 12.41-16.794 21.5l-1.16 3.892-7.309-18.392c-4.02-10.116-9.476-24.958-12.124-32.984-4.789-14.511-6.888-23.99-6.902-31.165l-.008-3.756 19.25-15.271c10.588-8.399 27.237-21.286 37-28.636 9.763-7.351 17.75-13.646 17.75-13.99s-1.135-2.296-2.522-4.337l-2.522-3.712 1.481-3.544 1.48-3.544-7.208-5.277c-10.257-7.51-45.379-31.676-46.036-31.676-.302 0-6.315 4.614-13.361 10.252-21.723 17.384-21.802 17.442-20.851 15.24.917-2.123 7.79-21.463 8.974-25.252l.706-2.261-44.218.261-44.218.26-2.889 11c-6.992 26.624-15.085 55.077-15.914 55.95-.543.572-.902-.844-.902-3.56 0-7.012-3.823-20.623-8.141-28.987-2.158-4.179-5.93-9.949-8.383-12.823-10.914-12.785-25.363-21.578-40.502-24.645-15.036-3.047-32.433-.515-48.346 7.036-16.523 7.841-32.436 20.94-45.858 37.749l-7.207 9.025-1.679-6.653c-2.807-11.122-6.066-16.455-16.12-26.377-5.095-5.029-10.839-10.337-12.764-11.796-4.816-3.65-14.44-7.952-20.799-9.298-7.654-1.619-21.387-1.257-31.246.823m28.155 9.093c3.326 1.121 7.699 3.099 9.719 4.397 4.887 3.141 11.263 9.919 15.111 16.066 4.316 6.894 7.672 18.141 9.113 30.542 1.452 12.485.722 26.321-2.129 40.381-2.747 13.544-6.834 25.45-12.792 37.267-8.953 17.758-19.64 31.023-33.268 41.291-4.361 3.286-11.231 7.563-15.268 9.505-9.825 4.726-21.171 7.514-30.574 7.514-13.183 0-24.58-4.575-34.161-13.714-4.109-3.919-6.876-7.806-9.704-13.634-2.177-4.484-4.79-11.527-5.807-15.652-1.425-5.776-1.83-11.063-1.765-23 .074-13.268.474-17.077 2.781-26.457 1.482-6.026 3.383-13.001 4.223-15.5 2.708-8.052 10.994-24.515 16.682-33.145 6.233-9.455 14.902-19.588 21.993-25.706 7.797-6.728 17.111-13.025 23.365-15.797 14.605-6.473 31.161-8.171 42.481-4.358m153.197-.545c8.692 2.264 15.489 6.144 21.779 12.434 3.131 3.131 7.088 8.456 8.793 11.834s4.117 9.651 5.361 13.941c1.984 6.848 2.26 10.055 2.26 26.299 0 14.275-.423 20.441-1.851 27-4.021 18.466-10.638 35.239-19.17 48.594-5.412 8.471-15.294 19.254-23.869 26.045-9.33 7.389-25.137 15.497-34.674 17.786-3.61.866-10.378 1.575-15.04 1.575-15.776 0-27.811-4.736-37.923-14.924-3.589-3.617-7.945-9.279-9.679-12.583s-4.135-9.379-5.336-13.5c-1.648-5.656-2.305-11.17-2.682-22.493-.382-11.49-.108-17.077 1.168-23.874 2.086-11.104 5.707-22.652 10.184-32.477 5.621-12.333 15.828-26.701 26.822-37.753 19.708-19.813 38.55-29.164 59.09-29.325 5.03-.039 11.58.591 14.767 1.421M861 243.524c0 .289-3.419 13.001-7.597 28.25-15.649 57.114-31.003 122.96-29.112 124.85.313.313 10.75-1.737 23.194-4.555 20.197-4.574 36.923-8.068 38.621-8.069.333 0 .007 3.488-.723 7.75-1.691 9.855-6.654 35.654-6.936 36.05-.118.165-11.566 2.081-25.442 4.258-20.98 3.292-60.165 10.026-80.273 13.796l-4.768.894.533-4.624c2.106-18.279 3.987-32.062 6.52-47.767 3.014-18.693 10.659-61.685 15.977-89.857 2.687-14.231 6.032-33.473 7.571-43.545l.541-3.545 14.197-3.825c14.492-3.905 42.789-10.379 45.947-10.511.962-.041 1.75.162 1.75.45m446 3.92c0 1.732-28.415 68.43-31.211 73.263-1.925 3.325-1.153 2.832 6.258-3.996 35.159-32.399 44.954-41.266 55.89-50.598 6.84-5.837 13.251-11.399 14.246-12.36l1.81-1.746 16.461 11.746c9.053 6.461 16.48 12.02 16.503 12.353.024.334-6.336 5.509-14.133 11.5-50.727 38.983-64.721 50.281-64.782 52.302-.058 1.946 7.599 20.765 24.158 59.378 7.734 18.033 13.89 32.906 13.681 33.053s-12.208 3.13-26.664 6.63c-16.262 3.938-26.639 6.009-27.216 5.432-1.36-1.36-11.079-27.59-19.554-52.775-4.049-12.03-7.53-22.043-7.737-22.249-.207-.207-1.729 1.311-3.382 3.373-3.244 4.047-6.004 11.799-14.866 41.75-3.091 10.45-5.956 19.348-6.365 19.774-.41.426-10.387.092-22.171-.741-11.784-.834-22.015-1.52-22.735-1.524s-1.086-.37-.813-.812 3.92-12.704 8.104-27.25 10.552-36.122 14.151-47.947c6.588-21.645 8.876-28.869 20.742-65.5 3.564-11 8.051-24.95 9.972-31l3.493-11 5.83-.582c6.997-.698 50.33-1.106 50.33-.474m166 3.211c16.31 4.235 47 14.358 47 15.504 0 .601-5.325 8.799-11.833 18.217-15.794 22.855-40.78 59.56-57.255 84.107-7.377 10.99-13.643 20.294-13.925 20.675s-7.707-.614-16.5-2.212-16.317-2.915-16.721-2.926-.077-1.482.726-3.27 7.081-18.1 13.952-36.25c11.119-29.372 23.714-60.924 35.193-88.167l3.863-9.168 3 .512c1.65.282 7.275 1.622 12.5 2.978m-771 8.026-15 2.453c-11.844 1.936-31.815 6.26-32.408 7.016-.35.447-10.2 54.091-11.615 63.258-.586 3.799-1.522 9.036-2.08 11.637-.896 4.179-1.374 4.8-4.115 5.349-1.706.341-3.263.459-3.46.262s.785-7.738 2.181-16.757c2.891-18.669 7.027-47.542 8.066-56.306l.701-5.907-6.549.611c-7.429.694-26.475 4.492-41.255 8.227-10.259 2.593-24.555 7.041-34.061 10.597L557 291.144v16.272c0 8.95-.299 21.161-.665 27.135l-.664 10.861-1.271-3.671c-2.079-6.006-8.843-16.78-15.07-24.007-10.223-11.864-23.35-20.121-37.145-23.365-9.29-2.184-29.828-1.378-40.185 1.579-16.645 4.751-36.833 17.008-50.784 30.834-6.71 6.65-17.047 19.386-21.991 27.094-6.888 10.74-14.261 26.575-18.604 39.952-4.989 15.368-7.297 27.413-8.245 43.035-1.193 19.659 3.152 43.736 10.583 58.637 4.637 9.297 17.444 26.79 24.894 34 6.752 6.534 15.946 12.053 24.647 14.795 5.904 1.86 9.271 2.2 21.5 2.172l14.5-.033 9.223-3.189c16.002-5.533 27.4-12.05 41.081-23.491 8.654-7.238 22.378-22.212 27.008-29.467 1.478-2.318 2.913-4.229 3.188-4.248s.5 3.155.5 7.053c0 6.14.3 7.33 2.246 8.905 1.236 1 3.092 1.597 4.124 1.327 1.568-.41 1.989.251 2.553 4.011.371 2.476 1.215 4.942 1.876 5.48.812.662 11.395-1.353 32.666-6.217l31.466-7.196.774-3.728c1.123-5.403 4.341-23.511 7.849-44.174 2.822-16.618 4.002-20.778 5.474-19.305.597.596-2.665 28.219-4.817 40.805-.706 4.125-1.04 8.85-.743 10.5.451 2.503 1.069 3.051 3.732 3.309l3.191.31.304 4.19c.268 3.685.622 4.228 2.927 4.495 3.872.449 16.135-2.927 41.64-11.462 12.506-4.186 22.802-7.662 22.88-7.726.494-.405 23.532-128.51 26.456-147.116 2.623-16.69 5.672-41.257 6.472-52.144l.671-9.144-3.12-.685-3.121-.686V258l-10.25.136c-5.638.075-11.375.32-12.75.545m9.543 12.569c-.273 1.238-1.883 10.043-3.577 19.569-1.695 9.525-3.271 17.85-3.503 18.5-.636 1.779-17.942 95.838-21.01 114.181-1.471 8.8-3.425 20.5-4.341 26l-1.667 10-4.972 1.66c-2.735.913-12.319 3.912-21.297 6.665l-16.323 5.005.58-3.665c.32-2.016 1.717-12.215 3.105-22.665s3.384-24.838 4.435-31.974 1.731-13.155 1.511-13.375c-.449-.449-17.932 3.782-30.055 7.272l-7.929 2.283-3.186 21.897c-6.71 46.112-6.355 44.275-8.69 45.024-1.168.375-11.349 3.05-22.624 5.944-15.987 4.105-20.569 4.962-20.814 3.892-.173-.754.835-10.729 2.241-22.167 4.055-32.998 9.394-80.644 12.079-107.796 5.376-54.364 6.133-61.472 6.595-61.934.712-.713 36.164-10.354 43.797-11.911 4.671-.953 6.669-1.027 6.832-.251.127.603-2.385 19.004-5.581 40.891s-5.551 39.928-5.231 40.091c.527.268 36.252-8.282 36.825-8.814.134-.124 1.791-10.091 3.681-22.149 4.215-26.881 8.919-55.827 9.132-56.196.451-.782 42.704-7.91 48.213-8.135 1.85-.075 2.178.323 1.774 2.158m270.342 12.13c-4.893 1.748-8.431 4.39-14.558 10.868-13.105 13.856-22.785 35.934-25.186 57.442-1.864 16.687 1.642 30.078 8.848 33.804 4.073 2.107 10.862 1.894 14.723-.46 7.147-4.358 14.455-13.493 20.738-25.923 4.316-8.538 9.2-24.663 11.057-36.509 2.136-13.619 1.732-29.517-.874-34.431-1.641-3.094-6.692-6.235-9.851-6.127-.705.024-2.909.625-4.897 1.336m152.615.494c-12.704 5.812-26.643 24.295-33.472 44.383-3.984 11.721-6.379 26.685-5.616 35.096 1.088 12.004 6.293 20.545 13.48 22.123 4.044.889 10.003-.893 14.931-4.463 6.278-4.548 12.72-13.337 18.7-25.513 5.9-12.013 9.445-23.139 11.893-37.323 1.853-10.735 2.003-18.126.509-25.09-.792-3.694-1.984-5.809-4.535-8.049-2.698-2.37-4.387-3.033-7.675-3.016-2.318.012-6.015.845-8.215 1.852m-639.035 19.659c7.337 1.911 14.38 5.698 20.317 10.924 6.035 5.313 13.344 16.662 17.282 26.834 1.747 4.515 4.115 12.484 5.262 17.709 1.689 7.696 2.083 12.919 2.071 27.5-.016 19.871-1.487 30.67-6.54 48-3.561 12.215-13.981 33.532-21.018 43-7.47 10.05-24.1 26.247-32.839 31.985-8.047 5.284-21.685 11.538-29 13.298-2.475.595-7.65 1.368-11.5 1.718-9.054.822-20.279-1.351-28.553-5.528-6.816-3.44-15.158-10.768-20.42-17.936-5.28-7.192-10.309-18.076-13.269-28.715l-2.733-9.822-.012-19.5c-.009-12.556.477-21.993 1.364-26.5 3.626-18.427 14.526-44.925 24.683-60 18.027-26.756 42.43-45.996 66.44-52.384 9.095-2.419 20.518-2.653 28.465-.583m648.142 18.91c-.864 4.179-2.706 10.978-4.093 15.11-4.728 14.085-14.655 31.344-20.069 34.891l-2.702 1.771.728-5.858c.869-6.992 4.523-18.929 8.526-27.85 1.596-3.557 4.788-9.246 7.094-12.642 4.691-6.907 10.953-14.154 11.638-13.469.247.247-.258 3.868-1.122 8.047m-155.141 2.146c-3.139 18.101-11.997 38.315-21.176 48.321l-4.211 4.59-.038-4c-.051-5.194 4.807-23.197 8.499-31.5 4.25-9.557 9.269-17.837 13.774-22.725 2.188-2.374 4.14-4.154 4.338-3.957.197.198-.337 4.369-1.186 9.271M463.5 350.397c-5.78 2.748-14.771 11.666-19.764 19.603-7.151 11.369-13.303 28.717-15.78 44.5-1.817 11.578-1.633 28.541.407 37.614.948 4.215 3.026 9.685 4.654 12.252 1.618 2.551 4.413 5.536 6.212 6.632 4.136 2.522 12.569 2.659 17.62.288 2.008-.943 5.915-3.981 8.682-6.75 5.256-5.262 11.459-16.13 15.807-27.695 3.001-7.982 6.159-22.739 7.746-36.193.87-7.379.878-12.797.031-21.721-1.603-16.886-5.331-25.919-12.154-29.447-1.574-.814-4.122-1.476-5.661-1.47-1.54.005-5.05 1.079-7.8 2.387m15.201 40.853c-.384 10.777-1.295 19.607-2.705 26.217-2.391 11.21-7.978 26.919-11.735 32.995-3.446 5.572-8.319 10.538-10.341 10.538-1.986 0-2.69-2.195-3.527-11-1.127-11.858 2.794-35.061 8.251-48.83 4.725-11.922 15.189-26.17 19.219-26.17 1.188 0 1.324 2.622.838 16.25m937.43 25.317c6.241 3.162 10.556 8.585 11.835 14.873.791 3.888.697 6.3-.406 10.416-.789 2.946-2.658 7.121-4.153 9.278-5.495 7.929-15.365 12.866-25.722 12.866-2.724 0-6.696-.522-8.827-1.161-4.97-1.489-11.381-6.983-13.892-11.907-3.69-7.231-1.91-18.905 3.97-26.038 6.656-8.075 16.797-12.293 27.047-11.25 3.015.307 7.582 1.622 10.148 2.923m-282.995 75.464c-29.7 2.324-63.375 8.648-93.636 17.584-15.803 4.666-38.022 12.948-54.062 20.151-15.587 7-54.573 28.564-70.332 38.904-19.301 12.663-32.819 28.259-40.187 46.365-4.061 9.979-5.919 20.263-5.919 32.763 0 12.373 2.009 21.854 6.929 32.706l3.091 6.817-1.76 2.089c-.968 1.15-4.533 5.094-7.922 8.766-6.5 7.041-12.705 15.655-16.082 22.324-1.114 2.2-3.249 7.825-4.744 12.5-2.224 6.951-2.728 10.413-2.767 19-.053 11.821 1.649 19.912 6.282 29.847 1.627 3.491 4.4 8.216 6.161 10.5 6.464 8.383 17.691 17.637 27.071 22.313 2.03 1.012 3.703 2.295 3.716 2.851.024.984-2.631 4.974-14.967 22.489-3.292 4.675-7.34 11.729-8.995 15.676-3.745 8.931-6.013 19.47-6.013 27.942 0 7.269 2.309 18.604 5.131 25.187 1.028 2.398 1.869 4.544 1.869 4.769 0 .224-2.211-.953-4.912-2.615-6.142-3.779-11.212-9.335-14.761-16.173-2.381-4.59-2.748-6.471-2.783-14.286-.036-7.992.277-9.603 2.792-14.383 1.558-2.96 4.881-7.573 7.385-10.25S858 851 857.665 851s-3.007 1.061-5.94 2.358c-10.181 4.503-16.245 11.943-19.42 23.827-1.162 4.347-1.67 10.06-1.631 18.33.045 9.616.603 14.21 2.793 23 1.504 6.042 4.265 14.311 6.134 18.376s3.399 7.548 3.399 7.741-2.19-.998-4.867-2.645-6.971-5.245-9.545-7.996c-5.054-5.403-10.246-15.224-11.23-21.241-.338-2.062-.951-3.75-1.364-3.75s-1.246 3.33-1.851 7.399c-.984 6.616-.881 8.068.973 13.717 5.828 17.751 18.308 34.583 33.197 44.773 6.266 4.288 15.751 8.555 23.46 10.552 3.387.878 10.111 1.948 14.942 2.378l8.785.783-8 1.925c-5.103 1.228-11.44 1.911-17.5 1.887-7.862-.031-10.578-.481-15.75-2.609-3.437-1.415-6.25-2.21-6.25-1.766 0 1.322 9.538 9.259 15.387 12.803 2.994 1.815 8.744 4.475 12.778 5.911 5.73 2.041 9.962 2.736 19.335 3.18l12 .567-7.778 1.75c-9.496 2.136-23.992 2.246-32.476.246-3.439-.811-9.513-3.116-13.498-5.123-13.332-6.714-27.637-23.264-34.03-39.373-3.368-8.487-6.701-25.03-6.781-33.657-.054-5.751-.232-6.444-1.12-4.343-1.658 3.922-2.237 26.761-.878 34.607.656 3.791 2.279 10.137 3.606 14.102 1.812 5.413 2.53 10.145 2.885 19 .781 19.54 5.379 33.308 15.495 46.401 2.715 3.515 8.098 8.859 11.961 11.877 5.443 4.253 7.406 6.503 8.725 10 2.669 7.079 7.545 14.051 13.86 19.817 6.509 5.944 12.678 9.38 22.016 12.265 7.175 2.216 24.294 4.845 32.513 4.994l5.5.099-4 1.892c-2.2 1.04-6.138 2.187-8.75 2.548-2.612.36-4.75.992-4.75 1.404 0 1.154 9.995 5.184 14.288 5.759 2.808.377 3.536.811 2.723 1.625-.675.675-5.302 1.11-11.811 1.11h-10.7l-5.661-2.78c-3.113-1.53-7.487-4.553-9.718-6.719l-4.058-3.938.586 3.218c.323 1.771 2.121 6.472 3.996 10.448 4.772 10.117 14.265 19.6 24.998 24.972 4.441 2.223 10.35 4.625 13.132 5.338 3.586.919 5.365 1.974 6.119 3.627 1.683 3.695 9.183 11.333 13.061 13.303 5.514 2.799 14.598 4.312 21.474 3.575 3.377-.361 9.812-1.889 14.301-3.395l8.161-2.738 4.496 4.778c6.128 6.513 15.613 12.444 24.071 15.05 5.526 1.702 9.517 2.163 18.542 2.142 8.061-.018 14.191-.653 20.5-2.121 4.95-1.152 9.675-2.362 10.5-2.688 1.19-.47 1.829 1.072 3.089 7.458.874 4.428 1.218 8.28.763 8.561-2.859 1.767-18.868 6.519-26.402 7.837-17.757 3.106-29.029 1.68-58.369-7.386-9.03-2.79-20.955-6-26.5-7.134-13.261-2.711-29.076-3.504-39.493-1.981-4.544.664-11.71 2.36-15.925 3.769-22.484 7.515-42.641 22.437-58.076 42.996-12.591 16.768-24.151 41.14-28.606 60.308l-1.743 7.5-8.369 5.669-8.369 5.67-.022-4.17c-.052-9.817-2.022-45.982-3.005-55.169-2.161-20.195-7.148-46.652-11.592-61.5-3.662-12.234-11.48-27.451-18.797-36.586-9.788-12.22-23.43-21.476-41.924-28.446-10.373-3.908-36.413-11.159-64.66-18.002-10.806-2.618-16.273-3.367-27.395-3.751l-13.896-.481.654-12.229c.36-6.726 1.107-14.879 1.662-18.117s1.246-7.351 1.537-9.138c.466-2.864.901-3.25 3.668-3.25 4.708 0 10.932-3.553 13.982-7.982 1.492-2.167 4.515-4.858 6.717-5.982 2.202-1.123 4.496-2.961 5.096-4.084.955-1.783.447-2.621-4.016-6.634-2.81-2.526-5.98-6.301-7.045-8.389-1.987-3.895-9.047-21.588-13.937-34.929l-2.749-7.5 2.611-9.158 2.611-9.158 3 2.403c1.671 1.339 4.337 2.405 6.018 2.408 5.126.008 15.194-7.851 26.464-20.658l6.232-7.082 2.98 1.122c2.646.997 3.194.859 4.886-1.23 1.25-1.541 1.701-3.172 1.309-4.732-.429-1.71.163-3.283 2.107-5.592l2.703-3.213-.365-7.216c-.259-5.143-.878-7.785-2.152-9.193l-1.788-1.976 2.537-19.481c1.395-10.715 2.924-20.528 3.397-21.807l.86-2.326 2.751 4.695c1.513 2.582 2.991 4.694 3.285 4.694s.224-3.15-.155-7l-.69-7h9.587l-5.277-4.616-5.277-4.616.599-4.634c.329-2.549.829-5.759 1.112-7.134l.514-2.5-4.356 4.25c-2.396 2.337-4.677 4.25-5.069 4.25s-.712-.883-.712-1.962c0-2.781-3.603-11.983-6.083-15.538l-2.093-3 .493 6.249c.271 3.436.263 7.962-.018 10.056l-.51 3.807-6.034-.436c-4.945-.358-5.882-.187-5.192.944.464.759 1.877 2.2 3.14 3.203s2.297 2.205 2.297 2.673-2.467 2.393-5.482 4.279c-3.015 1.885-5.19 3.72-4.833 4.077s2.634.648 5.061.648h4.412l-.329 7.567-.329 7.567 2.5-2.903c1.375-1.597 2.983-3.738 3.572-4.759.59-1.021 1.307-1.432 1.593-.914s-.251 7.692-1.193 15.942c-2.858 25.034-2.948 25.5-4.929 25.5-2.885 0-6.704 4.678-7.966 9.759-.648 2.608-1.501 5.858-1.896 7.224-.455 1.577-3.944 4.764-9.565 8.738-4.866 3.44-9.245 6.008-9.732 5.708-.486-.301-.886-1.758-.888-3.238-.004-3.021-2.388-7.355-6.461-11.745-1.504-1.62-3.954-5.419-5.446-8.442-2.696-5.462-5.058-7.4-10.339-8.48-2.016-.412-2.746-1.157-2.736-2.793.029-4.806 1.2-6.419 6.569-9.052 6.401-3.14 9.774-7.688 8.952-12.072-.301-1.607-.002-3.545.674-4.358.979-1.181.85-1.733-.666-2.841l-1.882-1.376 1.67-1.845c.918-1.014 1.669-2.518 1.669-3.341s-1.183-2.588-2.629-3.922c-2.446-2.255-5.371-7.606-5.371-9.824 0-.531.894-1.249 1.986-1.596 1.092-.346 3.342-1.986 5-3.644 1.894-1.894 3.014-4.038 3.014-5.77 0-1.516-.262-3.018-.582-3.338s-2.105.055-3.967.833-4.348 1.415-5.522 1.415-4.315-1.96-6.979-4.355c-2.948-2.65-6.725-4.902-9.647-5.75-2.642-.767-8.178-1.372-12.303-1.343-5.847.04-8.723.613-13.046 2.601-3.05 1.402-7.208 4.009-9.241 5.794l-3.696 3.245-2.984-2.511c-1.642-1.381-4.259-2.791-5.817-3.133s-4.589-.043-6.737.665c-9.178 3.025-13.246 18.063-7.459 27.579 2.467 4.057 7.535 7.199 11.619 7.204l3.138.004.702 3.75c.387 2.063 1.834 6.144 3.218 9.07 2.841 6.012 8.286 10.564 14.714 12.302l5.215 1.413c.648.177.911 1.437.618 2.968-.312 1.632-1.52 3.093-3.126 3.78-1.44.616-3.804 1.923-5.253 2.905l-2.635 1.785-3.865-4.279c-2.126-2.354-7.666-9.14-12.311-15.082-4.645-5.941-12.04-14.142-16.435-18.225-14.371-13.35-32.251-24.177-49.128-29.747-4.404-1.454-11.154-3.31-15-4.124-7.095-1.503-20.024-2.016-22.909-.909-3.245 1.245-1.234 14.374 3.7 24.154.76 1.506 2.837 5.74 4.617 9.408 1.921 3.959 5.564 9.039 8.965 12.5 3.151 3.207 6.78 7.555 8.064 9.662 2.76 4.527 10.676 11.035 15.582 12.809 1.915.692 3.731 2.045 4.036 3.005s3.119 4.093 6.254 6.963c3.775 3.455 5.23 5.375 4.308 5.685-3.025 1.018-9.127 7.605-11.551 12.468-1.406 2.822-2.557 6.601-2.557 8.396 0 4.047 2.872 6.914 7.837 7.824 2.014.369 5.013 1.964 6.663 3.544 3.939 3.773 9.142 5.864 16.506 6.633 3.297.345 5.994.945 5.994 1.334 0 1.363-5.69 8.537-9.237 11.647-3.323 2.914-6.823 4.372-17.378 7.242-4.477 1.217-8.823 4.2-10.393 7.133-.789 1.476-.385 2.527 1.956 5.09 2.586 2.832 3.604 3.24 8.251 3.313 2.916.046 6.283-.275 7.484-.713 1.934-.705 2.22-.42 2.5 2.5.261 2.709.782 3.35 2.927 3.599 3.375.392 8.094-3.546 11.573-9.658 1.454-2.555 3.806-5.91 5.227-7.457 1.42-1.546 6.184-5.09 10.586-7.875 5.315-3.362 11.769-8.943 19.212-16.612l11.209-11.55 1.156 2.925c1.979 5.004 3.903 12.792 3.915 15.851.01 2.366-1.663 4.568-8.738 11.5-4.812 4.715-12.268 12.51-16.568 17.322s-9.925 10.203-12.5 11.98-6.92 3.993-9.656 4.924c-2.736.93-5.119 2.125-5.296 2.656-.176.53 2.624 3.954 6.224 7.607 5.032 5.107 6.546 7.315 6.546 9.546 0 2.94 1.937 4.82 8.219 7.976 1.495.752 3.692 2.403 4.883 3.671l2.165 2.304-2.155 9.293c-1.467 6.331-4.024 12.986-8.017 20.874-3.224 6.368-6.169 13.396-6.544 15.617l-.682 4.037-5.772.524c-3.175.287-7.188 1.255-8.918 2.149-3.327 1.721-6.179 6.125-6.179 9.543 0 1.351-.651 2.05-1.909 2.05-2.72 0-25.061-6.596-32.703-9.656-8.096-3.24-15.729-8.161-27.025-17.418-4.875-3.995-12.463-9.61-16.863-12.476-10.508-6.846-24.294-13.69-33-16.381-3.85-1.191-10.393-2.427-14.54-2.749-5.487-.425-9.078-.137-13.189 1.058-3.106.903-6.32 2.313-7.14 3.134-1.2 1.2-2.043 1.271-4.311.363-1.551-.621-7.545-1.128-13.32-1.125-8.375.003-12.193.518-18.868 2.545-4.602 1.397-8.869 3.042-9.481 3.654-2.072 2.072 3.347 10.185 13.491 20.197l9.773 9.647-2.84 1.176c-1.562.647-4.074 2.464-5.582 4.039-2.183 2.278-2.602 3.422-2.053 5.609.991 3.947 11.246 13.533 25.268 23.619 7.033 5.059 15.648 12.418 20.468 17.485 4.578 4.812 13.282 13.706 19.341 19.764 12.363 12.359 20.151 17.526 38.571 25.588 6.276 2.747 12.762 5.652 14.412 6.455s6.375 4.145 10.5 7.426 10.65 7.536 14.5 9.453 11.05 4.652 16 6.078 14.595 5.076 21.432 8.111c6.838 3.035 16.063 6.57 20.5 7.854 9.783 2.833 23.831 5.093 40.568 6.526 18.24 1.563 41.324 4.835 50.5 7.159 10.4 2.633 21.678 7.352 24.262 10.149 1.125 1.219 2.537 4.016 3.137 6.216 4.013 14.724-3.846 84.396-16.413 145.5-3.612 17.562-10.379 44.611-13.068 52.233-.792 2.244-1.238 4.281-.991 4.527.792.792 19.485-17.912 22.597-22.61 1.654-2.497 4.323-8.648 5.932-13.67 6.014-18.777 13.704-58.076 17.508-89.48 1.578-13.034 3.912-38.531 5.055-55.236l.666-9.736 2.157 1.211c3.178 1.782 29.168 1.679 33.464-.133 1.818-.767 2.943-1.737 2.5-2.156s-4.631-1.529-9.306-2.466c-8.923-1.788-21.449-5.984-26.512-8.88l-2.988-1.709 5.599.543c7.844.762 20.689-1.044 29.16-4.1 6.955-2.508 15.348-7.065 14.527-7.886-.222-.222-5.327.252-11.345 1.053-6.017.801-13.866 1.461-17.441 1.467l-6.5.01 9.721-3.351c10.775-3.715 19.188-8.394 23.978-13.336l3.157-3.257-3.428 1.014c-6.841 2.023-22.652 3.936-32.428 3.923-12.675-.018-26.653-1.88-48.63-6.48-41.126-8.608-50.823-10.165-105.87-16.996-15.675-1.946-32.415-4.404-37.2-5.464-4.785-1.059-12.093-3.581-16.241-5.603-13.17-6.422-24.307-17.221-55.927-54.227-8.597-10.063-15.632-18.693-15.632-19.179s2.362-1.176 5.25-1.536c6.4-.797 16.577 1.375 23.953 5.113 3.167 1.605 10.097 7.377 17.804 14.828 6.941 6.711 15.516 14.258 19.056 16.771 9.411 6.681 21.386 12.56 29.937 14.696 13.634 3.406 47.839 5.663 50.189 3.313 1.983-1.983-6.889-5.066-20.878-7.258-24.134-3.78-28.406-4.877-38.811-9.962-9.48-4.633-24.398-15.091-25.246-17.698-.238-.732 3.473.09 9.427 2.088 5.4 1.812 13.982 4.318 19.069 5.569l9.25 2.274v2.753c0 1.514.971 3.988 2.158 5.497l2.158 2.744 5.592-.408c3.076-.224 7.167-1.203 9.092-2.175 6.764-3.416 26.004-3.172 43.418.551l4.918 1.052-2.411 1.819-2.412 1.819 1.769.679c.973.373 8.313.15 16.312-.495 15.701-1.267 35.729-4.124 63.406-9.045 19.807-3.521 36.317-4.813 49.5-3.873 10.384.74 18.069 2.749 28.129 7.353 12.592 5.764 22.709 14.581 30.241 26.359 4.75 7.426 7.559 14.524 10.147 25.636 3.449 14.808 4.004 29.941 2.805 76.488-.84 32.626-.83 53.411.041 83.022 1.403 47.647 3.12 65.696 8.327 87.5 1.667 6.98 2.79 9.6 5.002 11.672 2.563 2.401 16.821 10.828 18.32 10.828.333 0 .387-.354.12-.787-1.073-1.736-5.648-36.84-7.065-54.213-1.777-21.775-3.567-54.644-3.567-65.481v-7.653l4.74 3.817c14.865 11.969 24.069 20.043 35.01 30.709 6.737 6.568 12.097 12.095 11.91 12.281s-6.963-3.087-15.06-7.273-14.925-7.408-15.175-7.159c-.249.25.385 1.535 1.408 2.856 4.327 5.585 33.087 46.903 32.648 46.903-.265 0-8.918-4.233-19.231-9.407-10.312-5.174-18.922-9.239-19.133-9.034-.558.544 4.78 6.586 15.743 17.82 5.302 5.433 14.949 13.876 21.437 18.761 14.608 10.999 31.96 19.785 46.203 23.394 5.5 1.394 10.715 2.406 11.59 2.25 1.283-.229.569-2.404-3.703-11.284-2.911-6.05-5.313-11.311-5.34-11.691-.026-.38 3.665 1.766 8.203 4.768 8.796 5.822 28.417 15.922 33.031 17.003l2.781.652-1.925-4.885c-5.392-13.68-25.29-45.966-40.581-65.847-12.119-15.756-27.746-33.63-44.58-50.991-8.539-8.805-16.919-17.809-18.623-20.009-3.68-4.752-10.608-18.234-10.121-19.696.188-.564 1.603.793 3.143 3.016 4.191 6.048 21.227 22.172 38.125 36.085 8.25 6.792 20.493 17.928 27.206 24.744 12.946 13.146 28.624 32.009 37.399 44.997 8.844 13.09 18.099 29.298 23.782 41.648l5.388 11.706h9.362c5.15 0 9.363-.25 9.363-.557 0-.306-1.616-4.468-3.59-9.25-6.829-16.534-19.778-40.983-28.704-54.193-7.678-11.362-31.163-41.364-38.438-49.103l-3.387-3.603 1.559-11.181c1.92-13.762 1.963-36.787.098-52.113-1.315-10.812-7.696-38.706-9.607-42-.51-.88-.929 10.494-1.013 27.5-.078 15.95-.435 33.275-.793 38.5l-.65 9.5-1.797-6c-1.873-6.259-9.173-25.919-12.343-33.24-1.963-4.534-3.678-5.721-2.904-2.01.258 1.237.736 5.85 1.063 10.25s1.289 14.672 2.139 22.828 1.317 15.056 1.037 15.335c-.574.575-22.65-18.524-32.999-28.548-3.756-3.638-9.744-10.087-13.308-14.331l-6.479-7.716 2.558-10.612c2.848-11.821 5.906-20.077 11.833-31.948 6.142-12.302 13.229-22.187 22.639-31.576 13.693-13.665 28.999-22.576 45.431-26.451 7.943-1.873 26.859-1.892 37.155-.037 8.23 1.483 18.027 4.622 34.347 11.005 13.752 5.378 25.246 7.517 40.496 7.535 13.211.016 25.768-1.895 38.522-5.865l6.029-1.876.564 2.628c.31 1.446 1.962 10.729 3.672 20.629 2.375 13.752 3.228 22.189 3.613 35.75.466 16.369-1.054 47.737-2.5 51.601-.548 1.463-.417 1.486 1.156.205 2.206-1.796 8.632-14.544 11.37-22.556 1.128-3.3 2.782-9.545 3.676-13.878 4.674-22.658 2.563-44.928-9.018-95.122-8.1-35.11-13.43-58.722-13.408-59.402.01-.329 5.332 10.213 11.826 23.427 10.608 21.583 25.475 47.319 28.369 49.107 1.318.815 1.669 2.11-6.1-22.497-3.363-10.65-6.11-20.1-6.105-21 .006-1.079 2.948-2.979 8.653-5.588 4.754-2.174 13.413-7.084 19.241-10.912 8.436-5.54 14.381-10.75 29.149-25.547 17.131-17.165 26.614-27.496 47.268-51.5 20.562-23.898 39.277-50.407 51.6-73.088 3.885-7.15 7.067-12.182 7.071-11.183.005.999-.874 7.524-1.954 14.5-3.292 21.279-5.053 40.677-5.69 62.683-.67 23.193.447 39.758 3.773 55.914 4.054 19.692 10.271 35.7 19.545 50.327 5.039 7.949 16.181 22.105 25.399 32.271 9.206 10.153 22.454 21.862 33.444 29.559 4.396 3.079 13.973 8.556 21.284 12.171s12.936 6.891 12.5 7.28c-.436.388-4.392 3.09-8.792 6.005-23.518 15.581-44.091 37.718-58.712 63.177-2.592 4.513-4.573 8.345-4.402 8.515.17.171 4.766-4.268 10.212-9.864 16.196-16.642 30.391-30.265 38.902-37.335 4.4-3.654 12.295-9.3 17.545-12.546 27.168-16.797 51.538-22.655 78.591-18.892 9.784 1.361 21.807 5.124 30.864 9.66 10.62 5.32 22.117 13.731 31.012 22.689 4.406 4.438 9.745 10.697 11.863 13.91 9.623 14.59 17.102 33.227 20.156 50.225 1.994 11.104 2.979 33.8 2.021 46.583l-.723 9.646-7.972-4.944c-9.868-6.12-20.792-10.976-31.878-14.17-15.399-4.437-22.121-5.185-45.979-5.117-19.604.055-24.516.407-38.165 2.731-16.622 2.829-45.394 9.214-60.335 13.388-13.909 3.885-47.157 13.95-55.425 16.778-4.084 1.396-7.58 2.539-7.769 2.539-1.491 0 8.89-27.963 16.755-45.133 3.266-7.131 5.939-13.42 5.939-13.975 0-1.872-10.144 10.54-16.432 20.108-8.548 13.005-14.534 23.635-20.081 35.654l-4.685 10.153-3.651.984c-2.008.542-12.297 3.52-22.865 6.619-17.975 5.271-36.714 10.014-89.286 22.596-28.519 6.826-47.501 12.103-64.5 17.932-18.013 6.176-29.003 10.754-42.296 17.617l-10.704 5.527 11.5-.523c6.325-.287 17.35-1.409 24.5-2.494 12.321-1.869 21.844-3.879 75.873-16.012 12.581-2.826 23.338-4.983 23.906-4.793s-1.175 1.299-3.873 2.467-17.506 7.556-32.906 14.196l-28 12.073 38.5-.304 38.5-.305 20.5-3.643c74.798-13.293 107.737-18.7 129-21.173 28.316-3.295 54.216-4.9 79-4.898 14.025.002 30.225.555 36 1.229 18.848 2.202 36.455 6.809 51.212 13.402 9.475 4.233 24.709 14.961 34.977 24.629l9.689 9.124 4.189-7.171c8.552-14.643 15.213-32.3 17.094-45.313.958-6.622.959-10.112.005-16.253-1.146-7.38-5.628-18.949-8.641-22.304-1.148-1.279-1.144-3.237.024-12.516 1.826-14.498 1.794-41.309-.066-54.5-2.742-19.444-8.185-37.487-16.049-53.194-8.871-17.719-26.858-37.942-43.434-48.834-5.225-3.433-12.742-7.735-16.704-9.561-8.413-3.875-21.071-7.873-31.454-9.933-11.862-2.353-31.239-2.927-50.214-1.488-13.793 1.046-18.309 1.06-22.676.067-8.136-1.85-24.279-10.025-34.452-17.448-10.847-7.915-17.429-13.574-15.812-13.594.653-.008 4.253.729 8 1.639 4.461 1.083 11.126 1.657 19.312 1.663 10.357.007 13.615-.375 19-2.229 3.575-1.231 8.518-3.411 10.985-4.843 6.083-3.533 13.273-10.414 17.078-16.343 1.73-2.696 3.578-4.902 4.107-4.902.528 0 4.307-1.546 8.396-3.435l7.434-3.435v2.967c0 1.632-.625 4.463-1.388 6.29-3.074 7.357-13.747 14.761-23.355 16.202-2.341.351-4.257 1.017-4.257 1.479 0 1.377 6.756 2.227 13.346 1.679 3.385-.281 8.629-1.627 11.654-2.991s7.612-4.359 10.194-6.654c2.581-2.295 5.891-6.62 7.354-9.611 1.463-2.99 3.736-9.78 5.051-15.087s3.34-11.187 4.501-13.065c1.16-1.878 5.775-6.5 10.255-10.27 10.42-8.77 14.425-12.61 18.316-17.56l3.138-3.992-.471 4.992c-1.081 11.446-5.988 21.372-14.093 28.507-2.49 2.191-4.126 3.979-3.636 3.972 2.944-.039 12.502-3.354 19.661-6.82 8.96-4.336 18.159-10.705 26.082-18.056 5.566-5.165 15.619-18.216 17.475-22.687.668-1.609 2.802-4.011 4.743-5.337 1.94-1.327 6.898-5.995 11.016-10.373 5.67-6.027 8.553-10.178 11.867-17.088 2.408-5.02 4.866-11.512 5.463-14.426 1.558-7.618 1.335-21.819-.452-28.678-2.248-8.631-4.529-13.217-10.328-20.765-2.849-3.708-5.633-7.936-6.188-9.394-1.773-4.665.618-9.019 10.063-18.321 6.08-5.988 9.729-10.566 11.985-15.034 5.593-11.08 7.435-28.384 4.595-43.171-3.152-16.411-10.234-31.598-20.159-43.23-3.522-4.128-10.039-10.44-14.482-14.028-4.442-3.587-14.686-10.983-22.764-16.436-8.077-5.454-16.795-11.78-19.373-14.059s-6.483-6.834-8.679-10.122c-2.195-3.287-5.859-10.812-8.141-16.72-5.002-12.948-9.594-31.42-14.977-60.243-4.616-24.712-10.103-50.378-13.631-63.754-3.59-13.614-10.96-34.426-15.975-45.115-10.235-21.814-21.362-38.291-34.93-51.726-9.346-9.253-24.182-19.52-36.647-25.362-9.085-4.257-28.339-10.191-39.566-12.194l-6.767-1.208-11.504-11.07c-20.563-19.789-42.047-32.381-68.149-39.943-21.153-6.128-39.195-8.561-67.347-9.08-12.1-.224-27.114-.006-33.364.483m10.028 22.524c10.756 4.096 21.241 9.604 31.586 16.593 5.765 3.895 7.25 4.535 7.249 3.125-.001-2.873-5.48-13.612-8.975-17.593-1.777-2.024-2.715-3.68-2.083-3.68 1.955 0 27.126 9.866 31.715 12.432 2.389 1.335 4.344 2.109 4.344 1.72 0-1.304-3.255-5.613-7.859-10.402-2.511-2.612-4.254-4.75-3.874-4.75 1.251 0 20.784 7.992 26.029 10.65 6.298 3.191 17.806 7.581 18.378 7.01.23-.231-1.865-3.399-4.655-7.04s-4.639-6.62-4.106-6.62c1.925 0 15.465 5.25 19.972 7.745 13.159 7.282 19.907 13.931 25.126 24.755 3.861 8.009 7.628 22.658 6.355 24.717-.459.742.261.909 2.229.518 1.598-.318 7.63-1.111 13.405-1.763 14.562-1.643 20.769-2.884 22.354-4.469 1.03-1.03 2.353-1.131 5.506-.423 4.441.998 17.111 5.754 18.445 6.924.443.388-4.507 1.018-11 1.398-6.493.381-13.605 1.147-15.805 1.703s-7.375 1.819-11.5 2.808-12 3.017-17.5 4.508c-20.454 5.545-23.682 6.664-23.158 8.028.356.926-1.918 1.985-7.668 3.572-4.496 1.24-10.073 3.166-12.394 4.279l-4.219 2.024 1.719 1.306c1.485 1.128.968 1.32-3.78 1.408-3.025.057-6.4.473-7.5.925l-2 .822 1.75.715c.963.393 1.75 1.066 1.75 1.496s-1.687 1.094-3.75 1.477c-4.435.823-18.25 6.416-18.25 7.39 0 .371 3.938 1.742 8.75 3.045 15.581 4.218 30.35 10.129 50 20.013 10.588 5.325 19.25 9.515 19.25 9.311 0-.739-6.292-9.495-9.215-12.824-1.646-1.874-2.711-3.408-2.366-3.408 1.191 0 17.102 8.28 22.331 11.621 2.888 1.845 5.25 3.022 5.25 2.617 0-.406-2.363-3.874-5.25-7.706s-8.23-9.457-11.873-12.5c-8.148-6.806-20.02-13.928-29.915-17.946-4.104-1.667-6.493-3.043-5.309-3.058 3.698-.048 22.453 6.955 31.347 11.704 4.675 2.496 14.067 7.649 20.87 11.45s12.548 6.733 12.766 6.516c.59-.591-8.953-14.714-12.466-18.448-1.681-1.788-2.683-3.25-2.225-3.25s5.696 2.01 11.642 4.468c5.946 2.457 10.983 4.295 11.193 4.085s-.104-1.291-.699-2.402-1.081-2.28-1.081-2.598 3.263 1.111 7.25 3.176 7.647 3.928 8.132 4.14c1.803.788-3.063-6.18-9.128-13.072-3.446-3.916-6.101-7.283-5.901-7.483.372-.373 5.272 1.618 14.147 5.747 2.75 1.279 9.45 4.951 14.889 8.16s10.071 5.652 10.293 5.431c.765-.766-4.707-11.948-8.282-16.924l-3.586-4.991 2.843.707c1.564.389 6.626 2.478 11.251 4.641s8.529 3.811 8.679 3.662c.479-.48-6.819-12.087-10.782-17.148-2.11-2.695-3.657-5.08-3.438-5.299s3.794 1.662 7.943 4.181c4.15 2.519 10.65 7.685 14.444 11.48 8.352 8.352 15.269 18.177 22.602 32.1 5.766 10.948 13.073 27.843 12.354 28.562-.231.232-2.132-2.505-4.223-6.081s-5.869-8.936-8.395-11.911c-4.561-5.373-15.092-15.324-15.092-14.261 0 .305.889 2.934 1.976 5.842 2.747 7.348 13.026 39.889 13.017 41.208-.005.594-2.062-2.52-4.574-6.92-7.08-12.407-17.148-25.035-23.651-29.665l-2.856-2.034.703 2.85c.387 1.567 3.332 10.888 6.544 20.714 3.213 9.826 5.841 18.347 5.841 18.936s-2.087-2.05-4.638-5.865c-6.095-9.115-7.922-11.3-18.178-21.738-4.757-4.842-8.786-8.391-8.954-7.887-.168.503 2.437 8.676 5.789 18.162s5.945 17.397 5.761 17.58c-.183.183-2.571-2.39-5.306-5.72-5.058-6.155-24.467-25.174-25.072-24.568-.611.61 6.607 23.738 11.723 37.567 6.73 18.19 14.048 33.124 23.303 47.558 4.194 6.54 7.453 12.063 7.242 12.273-.401.401-11.949-12.254-19.767-21.663-2.513-3.025-9.652-12.25-15.864-20.5l-11.295-15 .703 5c.942 6.694 5.507 20.225 10.058 29.81 2.039 4.296 3.513 8.006 3.274 8.245s-7.115-6.761-15.279-15.555-15.024-15.81-15.243-15.59c-.219.219.58 3.685 1.776 7.701 2.449 8.224 8.24 21.214 12.364 27.733 1.511 2.39 2.593 4.499 2.405 4.687s-8.566-7.333-18.619-16.714-18.445-16.888-18.65-16.683c-.585.585 13.616 29.409 19.253 39.078 13.306 22.824 29.957 40.337 54.295 57.107 5.27 3.631 19.178 12.055 30.907 18.721 21.417 12.171 34.528 20.482 45.323 28.731 3.196 2.442 5.992 4.259 6.213 4.038s-3.651-6.906-8.606-14.856c-14.992-24.053-24.734-45.261-33.511-72.953-1.307-4.125-2.366-7.95-2.352-8.5.013-.55 3.071 5.3 6.794 13 3.724 7.7 8.722 17.375 11.108 21.5 5.223 9.03 17.073 26.303 17.65 25.727.227-.227-1.418-6.136-3.654-13.131-4.212-13.174-11.978-44.586-11.891-48.096.027-1.1 1.994 3.625 4.371 10.5 9.977 28.852 20.863 51.715 32.244 67.723 3.584 5.041 9.859 12.678 13.944 16.971l7.428 7.806-8.401-17c-8.496-17.192-16.046-34.436-15.371-35.11.202-.202 3.808 5.14 8.014 11.871s12.427 18.051 18.269 25.155 12.872 16.104 15.623 20c5.431 7.691 11.96 20.12 16.234 30.904 2.869 7.24 3.037 11.36.243 5.978-1.643-3.167-15.447-17.848-16.131-17.156-.195.197.706 4.323 2.001 9.169 2.241 8.386 6.035 33.458 5.19 34.302-.22.22-.972-1.516-1.672-3.857s-2.411-6.503-3.801-9.25c-2.922-5.773-8.694-13.607-10.966-14.884-1.278-.719-1.455-.446-.973 1.5.325 1.308 1.124 7.509 1.777 13.779 1.313 12.609.783 28.642-1.226 37.099l-1.307 5.5-.686-11c-.378-6.05-1.406-13.623-2.284-16.829-2.03-7.407-5.853-15.188-9.665-19.671l-2.976-3.5.554 8.5.553 8.5-2.431-5.169c-2.835-6.024-9.623-16.266-12.178-18.371l-1.771-1.46.621 2.5c.341 1.375 1.141 8.757 1.777 16.404.872 10.482.874 16.106.009 22.851-1.174 9.151-3.79 18.132-7.354 25.245-3.911 7.805-15.931 21.623-17.471 20.083-.274-.274.707-1.932 2.181-3.683 3.947-4.692 7.226-11.685 10.057-21.454 1.777-6.133 2.512-11.078 2.512-16.899 0-4.526-.63-10.321-1.399-12.878-.77-2.557-2.676-6.791-4.237-9.409l-2.837-4.76-.649 7c-.357 3.85-1.709 10.825-3.004 15.5l-2.355 8.5-.743-6.642c-.409-3.653-1.238-7.928-1.842-9.5l-1.099-2.858-2.231 7c-1.227 3.85-3.927 10.227-6 14.17-4.845 9.219-14.139 18.282-23.005 22.43-5.815 2.722-18.681 5.833-24.099 5.829-1.139-.001.305-1.117 3.352-2.591 6.56-3.172 15.997-12.291 18.921-18.283 1.193-2.445 1.978-4.637 1.744-4.872-.234-.234-2.919.981-5.965 2.701-5.538 3.125-16.956 7.303-23.552 8.618l-3.5.697 4.869-3.273c2.678-1.8 6.15-5.04 7.715-7.201 2.934-4.05 4.448-7.526 3.633-8.341-.256-.256-1.997.439-3.869 1.543-1.872 1.105-10.688 5.359-19.59 9.454s-20.134 10.019-24.959 13.164c-14.952 9.747-23.271 20.155-26.846 33.586-2.797 10.507-1.346 19.804 4.391 28.143 3.701 5.379 10.685 9.934 17.878 11.659 3.981.955 6.436.984 10.45.124 2.885-.619 6.052-1.855 7.037-2.746.985-.892 1.791-1.295 1.791-.896 0 1.225-5.898 9.374-7.238 10.001-1.82.852 7.352-.048 9.738-.956 1.426-.542.996.311-1.5 2.977-3.866 4.129-9.778 7.563-13.019 7.563-1.155 0-1.821.45-1.481 1s2.391 1 4.559 1 3.941.433 3.941.961c0 1.778-8.348 3.23-16.456 2.862-6.025-.273-9.425-1.014-13.544-2.954-8.025-3.778-14.141-9.705-18.425-17.858-2.046-3.893-3.534-7.625-3.308-8.295s1.123.134 1.995 1.784c2.259 4.278 11.495 12.924 16.448 15.398 5.257 2.625 7.15 2.755 5.126.352-2.569-3.05-9.673-15.76-11.653-20.85-3.015-7.747-4.522-17.839-3.81-25.502.352-3.788 1.762-9.868 3.134-13.512 5.867-15.587 16.27-27.852 34.993-41.255 15.923-11.399 23.425-19.03 27.845-28.322 1.911-4.02 4.05-10.009 4.752-13.309l1.276-6 .87 6.5c.817 6.099.047 14.395-1.81 19.5-1.171 3.22 7.238-5.313 9.284-9.421l1.783-3.579.5 6.5.5 6.5 2.762-4.608c3.911-6.526 5.986-14.227 6.122-22.718l.116-7.325 2.748 5.825c1.511 3.204 3.018 7.401 3.348 9.326s.924 4.85 1.321 6.5l.72 3 2.182-6.444c1.426-4.214 2.181-8.885 2.181-13.497v-7.053l3.584 4.997c4.862 6.78 8.196 13.489 9.819 19.762l1.355 5.235 1.233-4.5c1.826-6.662.777-23.986-1.907-31.49-6.807-19.038-24.253-37.157-51.902-53.906-5.125-3.104-12.033-7.014-15.351-8.689s-5.8-3.279-5.515-3.564c.695-.696 20.327 7.828 29.684 12.889 13.331 7.209 24.293 15.06 33.801 24.205 5.115 4.921 11.64 12.101 14.5 15.956s7.347 11.079 9.972 16.054l4.772 9.045-.629-5c-.769-6.103-4.581-17.918-7.884-24.438-3.809-7.516-13.585-19.894-22.191-28.096-14.673-13.985-33.668-28.772-57.351-44.645-5.781-3.874-14.106-9.896-18.5-13.382-10.753-8.53-24.526-22.389-33.728-33.939-4.163-5.225-13.29-18.05-20.283-28.5-14.126-21.111-21.268-30.311-28.871-37.194-11.511-10.419-27.352-18.621-41.108-21.283-3.3-.638-8.575-1.017-11.723-.842l-5.723.319 9.223 5.642c10.229 6.258 22.137 14.778 21.518 15.396-.219.22-3.67-.738-7.669-2.129-3.998-1.39-7.87-2.389-8.605-2.219-.735.171 4.54 5.035 11.722 10.81 15.566 12.517 31.008 26.082 30.393 26.698-.243.243-3.973-1.605-8.289-4.107-8.966-5.196-18.058-9.071-23.825-10.153l-3.966-.744 6.347 5.903c3.492 3.247 6.963 6.261 7.715 6.698 1.882 1.096 18.902 20.059 24.273 27.044 2.415 3.142 4.177 5.926 3.916 6.188-.262.261-3.309-1.798-6.77-4.576-8.124-6.52-17.234-12.695-20.636-13.989l-2.683-1.02 1.391 1.997c.765 1.098 6.733 9.709 13.261 19.135 6.529 9.427 15.114 21.029 19.078 25.782 12.395 14.865 29.941 30.202 45.317 39.613 3.446 2.109 6.109 3.99 5.919 4.181-.623.623-19.035-7.727-25.184-11.421-8.946-5.374-21.3-14.925-27.403-21.186-2.971-3.049-7.422-8.243-9.891-11.543l-4.488-6 .552 5.5c.303 3.025 1.524 8.087 2.712 11.25 2.848 7.576 12.188 21.527 20.253 30.25 3.56 3.85 9.877 9.608 14.04 12.795 8.909 6.823 23.17 15.018 30.225 17.369 2.75.916 4.498 1.834 3.883 2.04-1.988.666-20.644-5.827-29.488-10.263-11.288-5.661-23.203-14.733-30.358-23.115-3.169-3.712-5.985-7.33-6.257-8.038s-.855-1.288-1.295-1.288c-1.071 0 2.116 10.357 5.384 17.496 4.292 9.374 9.318 16.966 15.166 22.908 3.028 3.077 7.306 6.786 9.506 8.242s3.809 2.837 3.576 3.07c-.567.567-8.045-3.274-13.617-6.994-2.475-1.653-6.412-4.835-8.75-7.072s-4.25-3.69-4.25-3.231 1.389 3.657 3.087 7.106 5.334 8.792 8.08 11.873 4.714 5.602 4.373 5.602-2.445-.931-4.677-2.07-4.328-1.798-4.66-1.467c-.331.332 2.184 3.255 5.589 6.495 7.509 7.146 14.454 10.099 25.392 10.8l7.684.491.68 6.358c.375 3.497.383 7.947.019 9.89-.45 2.397-2.577 5.578-6.615 9.895-3.274 3.5-5.952 7.123-5.952 8.051 0 2.838 1.964 5.557 4.015 5.557 3.282 0 10.151-3.092 17.357-7.814 12.566-8.232 15.86-17.698 9.597-27.573l-3.03-4.779 6.78.723c3.73.397 8.449 1.222 10.489 1.833l3.707 1.11-2.213 6.54c-1.217 3.598-3.898 8.886-5.958 11.753-2.059 2.866-3.744 5.445-3.744 5.73s1.688-.352 3.75-1.415c4.957-2.555 9.645-7.566 12.261-13.108l2.125-4.5-.485 5.642c-.592 6.899-3.943 15.446-9.104 23.221-4.884 7.358-10.884 13.517-20.941 21.498l-7.894 6.264-3.802-3.713c-2.793-2.727-5.001-3.895-8.315-4.398-6-.91-11.237.971-15.458 5.553l-3.364 3.651-2.515-1.147c-1.384-.63-2.604-1.017-2.711-.858s-1.144 1.665-2.304 3.348c-1.161 1.684-5.679 10.768-10.04 20.187-9.148 19.756-19.108 37.349-27.298 48.217-7.481 9.929-19.473 21.308-29.428 27.924-11.711 7.783-46.827 24.701-71.698 34.543-27.539 10.897-54.393 19.86-67.436 22.507-13.757 2.792-25.848 2.718-35.98-.218-4.37-1.266-10.411-3.971-13.598-6.087-6.156-4.088-10.307-8.743-13.494-15.134-2.027-4.065-5.981-15.768-10.8-31.968-3.327-11.182-9.59-27.957-17-45.532-21.599-51.231-25.464-60.864-28.321-70.588-3.425-11.659-5.15-23.139-5.149-34.272.002-12.055 1.466-21.51 6.446-41.64 1.906-7.7 3.767-15.913 4.136-18.25.548-3.461 1.067-4.247 2.795-4.235 1.167.009 2.797.467 3.622 1.019 1.325.887 1.315 1.148-.087 2.235-.872.677-2.122 2.237-2.777 3.466l-1.19 2.234 4.527-.62c2.951-.405 4.527-.246 4.527.456 0 .592-.45 1.355-1 1.695s-1 1.224-1 1.964c0 .985 1.037 1.207 3.87.827 2.313-.311 4.148-.071 4.559.595.388.627 3.394 1.108 6.88 1.101 4.572-.009 7.499-.664 11.191-2.502l5-2.489-4.763.565-4.762.565 2.538-3.74c1.396-2.057 2.81-4.824 3.142-6.149.697-2.775-.122-15.038-1.067-15.983-.349-.348-1.324.352-2.168 1.556-2.084 2.976-5.957 2.826-8.012-.31l-1.638-2.5 1.593-2.431c.912-1.392 2.779-2.568 4.365-2.75l2.772-.319-4.175-2.833c-3.147-2.136-5.355-2.834-8.965-2.834h-4.791l2.466-1.906c3.047-2.357 8.281-3.914 13.18-3.921 2.043-.003 5.868.719 8.5 1.604 5.117 1.722 14.482 8.044 20.417 13.782 1.997 1.931 3.872 3.271 4.165 2.978.937-.937-2.372-7.678-6.881-14.019-2.405-3.382-6.669-7.835-9.475-9.894-5.524-4.055-15.113-8.395-18.632-8.433-3.988-.043-3.439-1.912.905-3.082 5.961-1.605 13.319.208 20.535 5.058 3.152 2.119 5.911 3.673 6.131 3.454.836-.836-5.121-7.523-9.16-10.282-6.652-4.544-10.838-5.493-21.624-4.904l-9.596.525-2.351-2.146-2.351-2.147.351 4.478c.278 3.544.006 4.547-1.3 4.805-.908.179-3.57-1.5-5.915-3.731s-4.408-3.911-4.585-3.734.541 3.434 1.595 7.238c1.055 3.803 1.735 7.098 1.511 7.322-1.092 1.092-3.656-2.722-5.215-7.759-1.287-4.157-1.73-9.001-1.703-18.619.041-14.26.876-17.276 5.788-20.91 1.986-1.469 4.243-2.069 7.596-2.02 3.731.054 7.809 1.519 18.706 6.717 14.408 6.873 23.658 9.828 25.378 8.108 1.669-1.669-3.042-9.55-9.571-16.012-10.415-10.309-26.88-16.99-35.934-14.582-2.2.585-4.731 1.345-5.624 1.69-1.438.555-1.523.018-.738-4.682 5.222-31.297 9.824-50.627 14.437-60.649 5.912-12.846 15.329-24.347 23.615-28.843 1.821-.987 5.038-2.505 7.15-3.373l3.84-1.578-3.792-3.331c-2.086-1.831-6.74-4.721-10.341-6.421l-6.547-3.092-11.5-.011c-6.325-.006-13.075.319-15 .723-2.637.552-1.897-.041 3-2.404 5.491-2.649 7.673-3.141 14.058-3.167 6.363-.027 8.576.447 14 2.992 3.595 1.688 10.409 6.428 15.419 10.728 9.603 8.241 20.321 14.899 30.023 18.65 4.575 1.769 8.019 2.323 14.5 2.331 7.508.009 10.123-.539 22.41-4.697 7.65-2.589 16.957-5.342 20.681-6.119 3.724-.776 7.916-2.162 9.315-3.078 1.399-.917 3.737-4.106 5.195-7.087 2.042-4.173 2.767-7.432 3.149-14.152.351-6.174.025-10.568-1.112-15.003-1.891-7.377-4.945-14.408-6.999-16.112-1.209-1.004-1.554-.732-2.011 1.586-.304 1.539-.857 5.01-1.229 7.714l-.676 4.916-1.611-2.984c-2.089-3.868-8.205-11.348-9.279-11.348-.458 0-.833 1.959-.833 4.353 0 2.395-.29 7.129-.645 10.521l-.644 6.167-2.211-5.44c-1.216-2.992-3.964-7.83-6.106-10.751l-3.894-5.312-.546 12.981c-.3 7.14-.638 11.374-.75 9.409-.313-5.487-2.959-12.23-6.282-16.01l-3.004-3.418.488 3c.268 1.65.765 5.475 1.104 8.5l.616 5.5-2.951-5c-3.188-5.402-10.937-13.48-16.015-16.696-1.738-1.1-3.16-1.769-3.16-1.485s.938 2.69 2.083 5.348c3.548 8.23 5.947 19.38 6.527 30.333.305 5.775.142 12.975-.363 16l-.918 5.5-.683-4c-1.295-7.573-4.758-19.013-7.637-25.23-5.924-12.793-15.459-24.441-27.358-33.423-4.483-3.384-9.951-6.974-12.151-7.978-5.753-2.625-1.75-2.29 5.927.497l6.518 2.366-2.04-2.866c-1.621-2.276-1.737-2.866-.562-2.866.813 0 4.287.874 7.72 1.942l6.24 1.943-4.401-4.502c-5.133-5.248-16.101-10.959-23.788-12.384-2.963-.55-8.363-1.013-12-1.029l-6.614-.031 5.884-3.375c8.814-5.055 15.98-7.096 24.116-6.868 13.327.374 30.32 6.399 43.827 15.54 3.205 2.169 5.981 3.789 6.17 3.6.188-.188-.971-2.269-2.577-4.625s-2.92-4.429-2.92-4.61c0-.505 13.373 3.993 15.916 5.354 1.24.664 2.491.971 2.78.683.288-.289-1.863-3.049-4.781-6.134-8.047-8.509-18.845-15.159-31.415-19.347-2.365-.788-2.548-1.016-.862-1.078 3.015-.111 18.391 4.461 26.252 7.806 3.635 1.548 14.012 6.931 23.059 11.964s16.79 9.151 17.206 9.151c.869 0-1.208-6.269-3.627-10.946-.903-1.745-3.268-4.975-5.257-7.176l-3.616-4.003 2.922.701c2.694.646 18.283 6.09 22.92 8.003l1.998.825-1.88-2.952c-4.031-6.331-6.981-9.695-11.948-13.626l-5.167-4.089 3.5.711c4.555.925 29.665 9.408 33.343 11.264 1.564.79 3.039 1.239 3.278 1 .814-.814-7.603-11.145-11.762-14.436-2.277-1.802-3.706-3.276-3.174-3.276 2.041 0 22.014 6.334 27.188 8.622 2.989 1.322 5.609 2.23 5.822 2.017.655-.656-9.962-11.811-14.095-14.809-2.145-1.557-3.421-2.83-2.836-2.83.586 0 5.266 1.6 10.4 3.555M691.675 541.5c-1.563 23.043-3.711 33.733-7.831 38.971-1.118 1.422-3.758 3.465-5.866 4.54s-9.326 2.968-16.04 4.205l-12.207 2.249 9.306 1.246c5.118.686 11.701 1.943 14.63 2.794 7.297 2.122 11.93 6.413 13.86 12.839.851 2.836 2.2 13.031 2.997 22.656s1.506 17.95 1.576 18.5c.069.55.958-6.588 1.975-15.863 1.947-17.755 3.598-25.057 6.865-30.347 1.09-1.765 3.709-4.091 5.821-5.168 4.793-2.445 17.446-5.112 24.447-5.152 6.379-.037 4.701-1.404-2.905-2.367-9.383-1.188-20.536-4.543-24.075-7.243-1.906-1.454-4.274-4.492-5.261-6.752-1.648-3.77-3.789-17.93-5.763-38.108l-.783-8zm515.054 3.183c4.134 5.027 8.271 11.466 8.271 12.872 0 .451-1.237-.345-2.75-1.767-2.844-2.675-12.117-8.788-13.33-8.788-.378 0 .34 2.587 1.597 5.75s2.603 7.325 2.993 9.25l.71 3.5-6.36-6.246c-3.498-3.435-7.364-6.942-8.592-7.794-2.566-1.78-14.276-8.46-14.83-8.46-.204 0 .488 1.462 1.538 3.25 3.379 5.753 8.024 21.243 8.024 26.758v5.212l-4.378-5.86c-5.499-7.362-15.073-16.667-14.259-13.86 3.087 10.646 4.624 20.189 4.63 28.75.004 5.838-.394 9.75-.993 9.75-.55 0-1-1.978-1-4.395 0-5.89-3.344-16.38-7.455-23.387-3.327-5.67-14.97-17.795-19.295-20.093-1.237-.657-2.25-1.012-2.25-.787s.866 2.377 1.925 4.785c1.059 2.407 2.947 8.202 4.196 12.877 1.829 6.848 2.281 11.221 2.322 22.5.042 11.67-.325 15.3-2.209 21.809-1.243 4.295-3.489 10.145-4.991 13-1.503 2.855-2.873 5.494-3.045 5.864s2.238.08 5.356-.645c3.119-.724 7.005-2.304 8.637-3.511 1.631-1.206 3.22-1.94 3.53-1.63s-1.248 2.375-3.461 4.588-3.656 4.025-3.204 4.025c2.839 0 15.18-3.531 19.406-5.552 6.49-3.103 13.521-9.197 17.44-15.113 1.704-2.573 3.098-3.926 3.098-3.006 0 1.138.839 1.671 2.634 1.671 5.938 0 10.647-2.451 18.129-9.438l7.562-7.062 5.088.31c3.909.239 6.244-.281 10.087-2.245 2.75-1.406 6.35-2.559 8-2.562 3.695-.006 13.839-4.714 18.337-8.511 2.81-2.372 4.286-2.831 9.337-2.904 5.28-.077 6.29-.425 8.413-2.894 1.327-1.543 2.413-4.025 2.413-5.515s-.944-4.502-2.097-6.694c-2.265-4.305-8.649-11.381-13.292-14.733l-2.888-2.086.73 4.866.729 4.865-3.841-3.466c-2.113-1.906-5.416-4.432-7.341-5.613-3.783-2.322-15.958-6.693-16.667-5.984-.239.238 1.389 3.035 3.617 6.215 2.227 3.181 4.05 6.202 4.05 6.715s-1.463-.046-3.25-1.242c-7.959-5.324-19.301-9.518-31.116-11.506l-3.866-.65zm282.271.698c0 3.104-3.257 29.059-4.093 32.619-.582 2.475-2.175 5.967-3.54 7.759s-4.144 4.103-6.175 5.134-8.417 2.877-14.192 4.101-11.175 2.487-12 2.807c-.927.358-.353.712 1.5.927 1.65.191 7.5 1.234 13 2.317 7.004 1.38 11.198 2.797 14 4.731 6.608 4.561 8.014 8.828 10.623 32.224l1.282 11.5 1.309-10c2.496-19.073 4.054-25.71 7.031-29.945 3.451-4.91 8.419-6.942 23.221-9.501 5.794-1.001 9.859-2.066 9.034-2.365s-4.527-1.039-8.226-1.642c-11.076-1.807-19.248-4.751-22.547-8.126-1.649-1.687-3.706-5.397-4.569-8.244-.863-2.848-2.317-11.702-3.23-19.677-.914-7.975-1.834-14.687-2.045-14.917-.211-.229-.383-.095-.383.298m-383.005 22.369c2.514 6.627 4.401 23.041 3.658 31.827-.991 11.728-3.536 22.379-7.146 29.918-1.843 3.847-3.243 7.102-3.112 7.233.598.598 16.078-5.978 19.394-8.239 2.932-1.998 3.777-2.222 4.024-1.062.173.808-.181 2.392-.785 3.521-.604 1.128-.687 2.052-.185 2.052s2.573-.694 4.602-1.542c5.541-2.315 12.043-8.857 14.639-14.731 1.911-4.323 2.311-6.956 2.313-15.227.002-8.532-.386-10.939-2.64-16.395-3.283-7.948-8.972-16.498-9.859-14.819-.353.668-.948 5.039-1.323 9.714-.668 8.333-2.271 17.228-2.473 13.725-.224-3.886-4.168-13.047-7.673-17.821-2.037-2.776-6.046-6.815-8.908-8.976-2.861-2.16-5.456-3.928-5.766-3.928s.248 2.138 1.24 4.75M993.5 592.47c3.85 1.874 8.771 5.227 10.935 7.451s3.729 4.249 3.477 4.501-2.827-1.348-5.721-3.555-8.959-6.04-13.477-8.516c-5.098-2.795-7.076-4.273-5.214-3.896 1.65.334 6.15 2.141 10 4.015m-8.956 8.461c5.005 1.759 14.093 7.765 13.16 8.698-.213.213-3.721-.992-7.796-2.679-8.495-3.518-17.617-5.869-23.408-6.035-3.487-.1-3.68-.217-1.5-.915 4.646-1.488 13.918-1.046 19.544.931m-85.969 6.491c-5.261 10.457-7.075 19.065-7.075 33.578 0 10.983.298 13.224 2.454 18.466l2.454 5.966 1.779-9.062c.979-4.984 2.445-10.594 3.257-12.466l1.478-3.404.039 5.114c.021 2.812.459 7.327.972 10.033 1.231 6.493 4.72 15.703 7.028 18.553l1.847 2.282-.511-6.491c-.761-9.676 1.988-23.985 6.305-32.816 1.97-4.029 3.79-7.116 4.046-6.861.255.256-.332 3.327-1.306 6.825-2.485 8.932-2.453 28.834.062 38.361 2.222 8.416 6.391 17.925 10.582 24.135l3.079 4.562-5.282-.706c-8.183-1.093-19.61-5.977-26.995-11.539-4.574-3.445-8.29-7.413-11.667-12.464-6.931-10.362-8.564-16.266-8.568-30.988-.004-9.684.439-13.447 2.294-19.5 1.263-4.125 3.883-10.2 5.821-13.5 3.719-6.334 10.5-15.665 11.012-15.153.166.166-1.231 3.35-3.105 7.075M583.105 604c-.08.825-.795 9.6-1.588 19.5-1.929 24.084-3.693 33.542-7.736 41.496-2.753 5.417-4.214 7.043-8.791 9.787-3.02 1.809-7.965 4.02-10.99 4.913s-12.7 2.868-21.5 4.389-15.312 2.8-14.47 2.841c4.764.231 27.017 3.319 33.21 4.609 3.993.831 9.578 2.637 12.41 4.013s6.309 4.021 7.726 5.878c3.297 4.322 6.201 11.709 7.543 19.186.581 3.238 1.958 15.296 3.059 26.794 1.1 11.499 2.146 21.051 2.323 21.228s.9-6.305 1.607-14.406c1.851-21.208 4.704-39.563 6.934-44.603 2.607-5.894 8.306-12.006 13.437-14.41 5.329-2.497 15.888-4.768 31.131-6.696 11.414-1.444 15.827-2.519 10.336-2.519-4.279 0-31.907-4.903-36.851-6.54-2.533-.838-6.647-2.82-9.143-4.402-8.941-5.671-12.876-18.663-16.675-55.058-1.004-9.625-1.892-16.825-1.972-16m200.663 18c-.329 1.375-1.076 9.25-1.659 17.5-.584 8.25-1.736 17.268-2.562 20.04-1.564 5.254-4.943 9.194-10.047 11.712-3.251 1.603-10.085 3.273-18 4.397l-5 .709 7.579 1.201c11.775 1.864 18.175 4.053 21.256 7.269 1.528 1.595 3.441 5.099 4.249 7.785.809 2.687 2.167 12.532 3.018 21.878.852 9.346 1.676 17.121 1.833 17.277s.834-6.139 1.506-13.991c1.364-15.943 3.228-25.544 5.822-29.99.955-1.637 3.486-3.875 5.624-4.972s7.988-2.797 13-3.778c9.705-1.898 9.646-2.026-1.85-4.016-3.28-.567-8.005-2.1-10.5-3.405-3.228-1.688-5.185-3.634-6.784-6.744-2.429-4.728-4.77-18.222-6.084-35.07-.467-6-1.053-9.258-1.401-7.802m410.982 4.303c-4.009 1.122-4.851 2.338-2 2.887 1.182.228-.033 1.347-3.75 3.451-5.303 3.003-10.271 7.355-8.405 7.363.498.002 5.18.693 10.405 1.535 21.584 3.479 40.294 9.704 62 20.628 5.775 2.906 10.91 5.469 11.41 5.696 2 .902-6.215-9.387-10.768-13.487-2.672-2.407-4.573-4.376-4.225-4.376 1.533 0 17.342 8.469 28.333 15.179 1.787 1.091 3.25 1.582 3.25 1.09 0-1.854-14.563-16.6-22.561-22.846-4.578-3.574-12.159-8.296-16.847-10.493-12.159-5.698-21.858-7.957-33.502-7.804-5.274.07-11.277.599-13.34 1.177m-18.36 20.748c-5.37.938-10.939 2.758-10.279 3.359.214.194 5.339 2.16 11.389 4.368s17.975 5.845 26.5 8.082 18.65 5.152 22.5 6.477c9.467 3.259 22.743 9.525 29.833 14.082 3.208 2.062 6.065 3.516 6.349 3.233.901-.902-12.063-12.939-20.271-18.821-11.88-8.513-27.755-16.284-38.112-18.657-10.936-2.506-21.234-3.289-27.909-2.123m345.123 40.142c-.387 4.569-1.309 11.538-2.047 15.488-2.796 14.95-5.56 17.057-28.966 22.076l-4 .858 9.5 1.851c5.225 1.018 11.349 2.637 13.609 3.597 2.544 1.08 4.956 3.114 6.331 5.34 2.481 4.015 4.541 14.435 5.611 28.382.392 5.107.848 9.149 1.013 8.984.166-.166.804-5.244 1.418-11.285 1.946-19.142 3.612-25.165 8.129-29.372 1.933-1.802 11.883-4.908 21.389-6.678l4-.744-4.5-.903c-11.091-2.225-16.63-4.03-19.812-6.457-1.884-1.437-4.275-4.532-5.312-6.878-1.111-2.511-2.541-9.955-3.477-18.108-.875-7.614-1.724-13.982-1.886-14.151s-.612 3.43-1 8m-397.565 35.295c-12.456 2.354-31.085 8.385-36.948 11.96-3.025 1.845-6.332 4.754-7.349 6.465-2.494 4.197-2.537 9.45-.098 12.149 1.642 1.817 2.685 2.067 6.657 1.598 2.59-.306 11.815-3.33 20.5-6.72 8.684-3.39 18.49-7.054 21.79-8.142s9.6-2.212 14-2.499c6.551-.426 9.177-.123 14.5 1.676 3.575 1.208 10.325 4.728 15 7.823 4.675 3.094 13.675 10.704 20 16.91s11.623 11.285 11.773 11.288c.622.01-7.232-13.782-11.053-19.408-4.749-6.993-14.143-17.379-20.699-22.884-2.487-2.088-7.807-5.43-11.822-7.427l-7.301-3.632-10.699-.292c-6.357-.174-13.764.286-18.251 1.135m-254.049 3.123c-.636 1.589-1.199 7.164-1.251 12.389-.108 10.867 1.682 18.085 6.669 26.883l3.183 5.617.613-10.813c.337-5.947 1.125-11.325 1.75-11.95.849-.849 1.137-.367 1.137 1.904 0 7.342 5.931 20.528 12.729 28.299 2.48 2.835 4.693 4.971 4.918 4.746s.009-1.484-.479-2.797c-.489-1.314-1.211-5.314-1.605-8.889l-.716-6.5 2.718 4c1.495 2.2 6.525 10.075 11.178 17.5s10.062 15.464 12.02 17.865l3.56 4.365-4.412-.699c-7.969-1.265-16.194-3.64-22.49-6.494-8.41-3.814-17.933-10.417-23.717-16.447-2.639-2.749-6.347-8.17-8.242-12.045-1.944-3.976-3.972-10.203-4.657-14.295-.931-5.569-.945-9.085-.059-15.16.654-4.487 2.477-10.83 4.212-14.658 1.683-3.711 3.293-6.514 3.579-6.229.285.286-.002 1.82-.638 3.408M442.844 727.5c-.326.55-.909 5.584-1.295 11.188-.385 5.603-1.28 12.68-1.988 15.726s-2.486 7.11-3.951 9.03c-2.047 2.684-4.159 3.954-9.126 5.488-3.554 1.098-8.727 2.297-11.496 2.664-2.768.367-5.216.964-5.44 1.326s3.217 1.229 7.646 1.926 9.799 1.966 11.933 2.819c4.689 1.877 8.426 6.091 9.853 11.114.581 2.045 1.589 9.456 2.24 16.469s1.465 12.75 1.81 12.75c.344 0 1.204-5.713 1.911-12.696s1.927-14.513 2.711-16.736c.784-2.222 2.616-5.282 4.071-6.801 3.178-3.317 11.303-6.517 18.773-7.396 3.001-.352 5.251-.971 5.002-1.374s-3.276-1.05-6.726-1.437c-7.561-.847-13.346-3.3-16.938-7.18-1.466-1.584-3.393-5.13-4.28-7.88s-2.177-10.625-2.865-17.5-1.518-12.05-1.845-11.5m288.258 34.026c-.171 10.122-2.095 22.54-4.1 26.47-2.247 4.405-6.332 6.597-15.808 8.483-3.682.733-6.244 1.383-5.694 1.444.55.062 4.052.758 7.782 1.549 3.729.79 8.124 2.393 9.765 3.561s3.707 3.525 4.592 5.236c.938 1.815 2.302 9.387 3.271 18.171l1.663 15.06 1.209-12c.666-6.6 1.658-13.575 2.206-15.5 1.522-5.353 4.59-9.73 8.086-11.538 1.74-.9 5.922-2.22 9.295-2.933 3.372-.714 5.456-1.526 4.631-1.806s-3.983-1.016-7.018-1.636-7.003-2.03-8.818-3.133c-1.945-1.184-4.063-3.741-5.158-6.231-1.023-2.323-2.379-8.948-3.015-14.723s-1.523-11.85-1.972-13.5c-.676-2.489-.832-1.973-.917 3.026m283.936 14.549c-.021.316 1.103 3.916 2.497 8s3.239 11.475 4.1 16.425c1.701 9.778 1.326 18.587-1.234 29-2.159 8.779-12.427 28.793-19.495 38-3.378 4.4-7.275 10.423-8.659 13.385-2.226 4.763-2.446 6.227-1.903 12.658.592 7.007 3.503 16.704 6.317 21.042 1.649 2.542 4.644 4.075 9.533 4.878 2.459.404 3.902 1.263 4.317 2.572.799 2.517 3.172 2.54 3.966.038.927-2.92-1.751-8.281-7.999-16.014-5.772-7.144-9.478-14.911-9.478-19.862 0-1.986 1.972-5.114 6.888-10.924 3.788-4.478 8.978-11.494 11.532-15.593 8.957-14.371 14.602-32.207 14.563-46.018-.023-8.192-2.384-18.95-5.516-25.138-2.306-4.555-9.339-13.84-9.429-12.449m100.087 3.565c-2.957.802-7.803 3.012-10.77 4.909-2.966 1.898-5.763 3.451-6.214 3.451s-1.455-1.237-2.23-2.75l-1.411-2.75-.298 6.25c-.238 5.001-.625 6.25-1.935 6.25-.901 0-2.68-.978-3.953-2.174s-2.311-1.759-2.308-1.25c.014 2.434 2.363 9.115 3.754 10.68.859.966 1.364 1.954 1.122 2.195-.241.241-2.226.036-4.41-.457-2.185-.492-4.759-1.867-5.722-3.055-2.506-3.094-2.18-.255.516 4.496 1.428 2.515 3.753 4.681 6.441 6 2.88 1.414 4.035 2.538 3.664 3.565-1.196 3.308-3.337 14.702-3.354 17.842-.009 1.839-.943 4.519-2.074 5.957l-2.056 2.615 1.954.723c1.075.398 2.252 1.204 2.616 1.793.363.588 1.575 1.07 2.693 1.07s3.85 1.556 6.072 3.458c5.242 4.487 11.115 5.521 16.465 2.898 2.083-1.021 4.744-3.294 5.913-5.051 2.715-4.079 3.728-10.403 2.422-15.117-1.134-4.096-2.982-7.451-3.007-5.461-.008.675-1.11 1.944-2.448 2.821-1.88 1.232-2.897 1.346-4.477.5-1.124-.602-2.536-2.014-3.138-3.138-.846-1.58-.732-2.597.5-4.477 1.03-1.572 2.539-2.433 4.265-2.433h2.672l-3.373-2.488c-4.156-3.066-9-4.062-12.991-2.671-1.668.582-3.025.653-3.025.158 0-1.667 6.879-6.158 11.614-7.583 9.526-2.867 20.72-1.161 31.12 4.742 2.878 1.633 9.489 6.976 14.689 11.872 5.201 4.896 10.656 9.203 12.123 9.571 3.773.947 12.084-1.139 17.954-4.506 4.804-2.756 14.786-12.068 16.807-15.679.815-1.456.666-1.611-.917-.956-4.564 1.885-10.938 3.54-13.638 3.54h-2.93l2.625-3.12c2.608-3.099 5.985-8.88 5.188-8.88-.229 0-2.378.89-4.776 1.978s-5.829 1.988-7.626 2l-3.267.022 2.534-5c1.394-2.75 2.189-4.986 1.767-4.968s-1.641.692-2.708 1.5c-2.489 1.882-7.559 1.943-7.559.09 0-.757-.686-1.947-1.525-2.643-1.308-1.085-1.327-1.495-.135-2.872.765-.884 1.695-2.881 2.065-4.438l.674-2.831-3.622 2.763-3.622 2.762-2.667-1.71c-6.989-4.482-17.064-8.947-23.053-10.216-8.265-1.752-16.037-1.683-22.99.203m4.888 8.328c-.9 2.174-1.929 3.032-3.634 3.032-2.246 0-2.535-.329-2.779-3.161-.055-.638 1.475-1.703 3.4-2.367s3.673-1.055 3.885-.871-.181 1.699-.872 3.367m10.862-3.343c2.007.401 3.125 1.224 3.125 2.3 0 2.479-2.036 4.075-5.2 4.075h-2.8v-3.5c0-1.925.394-3.5.875-3.5s2.281.281 4 .625m20.877 7.312c2.339 1.403 4.091 3.004 3.893 3.557-.496 1.392-5.111 1.041-11.693-.89l-5.548-1.628.402-3.439.401-3.438 4.147 1.644c2.28.904 6.059 2.792 8.398 4.194m-45.02 1.665c-.245.245-1.248.137-2.229-.239l-1.784-.685 1.891-1.389c1.644-1.208 1.934-1.177 2.228.239.187.896.138 1.829-.106 2.074M523.073 811.5c-.101 4.804-1.57 10.43-3.363 12.882-.72.984-3.761 2.636-6.759 3.671-3.157 1.09-4.487 1.895-3.161 1.914 3.984.057 9.839 3.723 11.203 7.015.703 1.698 1.587 5.659 1.964 8.803l.685 5.715.72-4c1.464-8.142 2.853-11.795 5.374-14.132 1.423-1.318 4.404-2.687 6.625-3.042l4.039-.646-4.95-1.391c-2.722-.766-5.934-2.486-7.136-3.822-1.266-1.407-2.456-4.437-2.829-7.198-.353-2.623-1.021-5.894-1.485-7.269-.742-2.204-.852-2.026-.927 1.5m432.432 18.82c-.004 2.51-.521 3.331-2.455 3.897-1.347.394-2.629.537-2.849.317-.22-.219-.102-2.162.262-4.316.566-3.352.978-3.856 2.855-3.498 1.711.328 2.192 1.118 2.187 3.6m200.995 9.116c-3.307 3.377-8.76 7.573-12.149 9.35-3.382 1.773-9.457 3.974-13.5 4.89l-7.351 1.667 2.997.808c3.178.857 10.055.415 20.145-1.296 4.537-.769 6.716-.734 8.336.133 1.206.646 2.475.892 2.82.548.344-.345.081-1.5-.586-2.568-.667-1.067-1.212-2.228-1.212-2.578 0-.351 2.475-.432 5.5-.182 3.025.251 5.5.052 5.5-.441 0-.494-.496-1.826-1.103-2.96-.847-1.583-.789-2.26.25-2.919.744-.471 2.816-.864 4.603-.873 1.787-.008 3.242-.352 3.232-.765-.022-.926-6.757-6.56-9.482-7.932-1.711-.862-2.868-.121-8 5.118m-592.959 9.631c1.06 1.715.111 1.883-1.984.351-1.622-1.186-1.672-1.418-.307-1.418.898 0 1.929.48 2.291 1.067m-82.534 3.284c12.189 3.374 22.936 7.91 33.573 14.17 11.96 7.039 22.278 15.382 32.393 26.194 8.104 8.661 22.508 26.768 23.639 29.715.331.864.201 1.57-.289 1.57-1.112 0-9.657-8.877-14.807-15.382-5.768-7.284-22.744-20.371-32.016-24.68-9.258-4.303-12.5-5.405-12.5-4.247 0 .453 3.038 2.841 6.75 5.306s9.45 6.489 12.75 8.944c7.097 5.278 19.667 16.225 19.185 16.708-.186.185-3.003-.551-6.261-1.636s-8.763-2.623-12.232-3.418c-4.53-1.037-6.2-1.119-5.923-.289.351 1.053 9.335 5.322 24.432 11.609 6.359 2.648 9.431 4.79 5.299 3.694-5.191-1.377-15.727-1.861-17.602-.809-2.291 1.286-2.558 1.182 11.102 4.317l10 2.294-4.776.967c-2.627.532-4.615 1.452-4.42 2.044.202.61 3.687 1.205 8.026 1.37 4.219.161 7.67.461 7.67.668s-.273 1.088-.607 1.958c-.507 1.32-2.58 1.582-12.532 1.582-8.151 0-13.023-.459-15.393-1.449-1.907-.797-3.468-1.869-3.468-2.383s1.013-1.22 2.25-1.568l2.25-.633-1.79-1.373c-.985-.756-4.36-1.687-7.5-2.069-3.141-.382-7.642-1.54-10.004-2.573-4.946-2.164-10.206-5.717-10.206-6.895 0-.444 1.35-1.077 3-1.407 4.014-.803 3.862-3.319-.25-4.14-7.902-1.579-15.777-4.841-19.611-8.123-2.277-1.949-4.139-3.926-4.139-4.395s.977-.997 2.172-1.172c3.97-.585 3.162-2.785-1.833-4.991-7.24-3.199-12.254-6.811-14.959-10.777l-2.422-3.552 3.26-.5c1.809-.278 3.385-1.167 3.542-2 .171-.912-1.511-2.447-4.29-3.916-2.514-1.329-5.656-3.705-6.982-5.281-2.58-3.066-4.473-8.58-4.482-13.053L461 850h5.757c3.166 0 9.579 1.058 14.25 2.351M370.187 865c-1.369 14.336-3.566 25.806-5.773 30.131-3.285 6.439-10.791 9.834-26.914 12.173l-9 1.305 8.5 1.332c11.491 1.8 20.304 4.602 23.844 7.581 1.615 1.359 3.662 4.284 4.548 6.501 1.898 4.743 4.163 18.625 5.218 31.977.413 5.225.883 8.825 1.044 8s.962-8.025 1.779-16 2.198-16.869 3.069-19.764 2.942-6.811 4.601-8.701c3.527-4.016 10.844-7.038 19.415-8.016 10.321-1.178 10.475-1.706 1.054-3.614-4.904-.993-10.301-2.349-11.994-3.015-5.292-2.08-9.23-5.618-11.407-10.249-2.009-4.275-4.245-17.523-5.93-35.141l-.765-8zM684 853.5c.685.825 1.98 1.5 2.878 1.5.991 0 2.063 1.376 2.728 3.501.826 2.639.801 3.746-.103 4.497-.835.693-1.748.388-3.006-1.002-.994-1.098-2.31-1.996-2.924-1.996-.615 0-2.869 1.444-5.01 3.209l-3.892 3.208.653-3.958c.36-2.178.659-4.972.665-6.209.008-1.73.588-2.25 2.511-2.25 1.375 0 2.5-.45 2.5-1 0-1.477 1.577-1.214 3 .5m-114 4.868c0 4.607-2.002 8.367-3.848 7.226-.634-.392-1.152-2.058-1.152-3.703 0-3.6 2.703-9.193 4.043-8.365.526.326.957 2.504.957 4.842m50.11 4.485c1.594 3.494 4.298 7.66 6.009 9.259 2.569 2.399 2.896 3.165 1.874 4.397-.681.82-1.858 1.491-2.615 1.491-.771 0-1.378 1.013-1.378 2.3 0 1.265-.465 2.765-1.033 3.333-1.542 1.542-.15 4.104 2.605 4.796 1.336.335 2.428 1.072 2.428 1.638s-1.168 2.111-2.595 3.434c-2.904 2.691-9.521 4.072-14.389 3.002-3.666-.805-18.672-8.137-19.545-9.55-.324-.524.113-.953.97-.953s1.559-.528 1.559-1.174 1.055-.183 2.345 1.028c1.431 1.345 2.989 1.955 4 1.567 1.286-.493 1.663-2.005 1.69-6.778.05-8.734 2.363-18.729 4.624-19.981 1.013-.561 3.191-2.416 4.841-4.124 2.654-2.747 3.156-2.928 4.355-1.571.746.843 2.66 4.392 4.255 7.886M588 855.908c-.825.467-4.2 1.166-7.5 1.555-4.068.48-5.678.38-5-.311.908-.925 4.785-1.584 11.5-1.953 1.843-.102 2.106.084 1 .709m291.983 3.152c-.541 1.885-.983 7.297-.983 12.027 0 8.79 1.605 15.339 5.732 23.382l1.962 3.824.704-6.896c.387-3.794 1.208-8.903 1.824-11.355l1.12-4.457 1.271 6.233c1.484 7.275 7.067 19.177 11.343 24.182l2.99 3.5.045-8.5.046-8.5 3.414 8.288c1.877 4.559 6.365 13.896 9.971 20.75 7.295 13.862 7.395 13.427-2.623 11.378-2.914-.597-9.349-3.031-14.299-5.411-6.395-3.073-10.565-5.912-14.408-9.805-2.975-3.014-6.469-7.217-7.765-9.34-1.297-2.123-3.284-6.785-4.416-10.36-2.629-8.305-2.904-22.196-.594-30.068 2.01-6.853 4.655-13.294 5.224-12.724.234.234-.018 1.967-.558 3.852m-267.65 3.17c-3.287 2.335-5.819 5.618-4.98 6.456.27.271 2.206-.673 4.301-2.097S616.26 864 617.232 864s1.768-.36 1.768-.8c0-.914-2.117-3.2-2.964-3.2-.31 0-1.977 1.004-3.703 2.23m-.402 6.685c-2.893 2.893-3.195 5.36-.606 4.954.646-.102 2.028.185 3.07.636 1.365.591 2.285.286 3.292-1.092 1.847-2.526 1.291-6.805-.94-7.228-.964-.183-3.131 1.045-4.816 2.73m71.496 4.835c-2.112 20.562-4.627 38.756-5.611 40.594-.633 1.183-1.317 1.654-1.519 1.047-.457-1.37 3.316-33.809 4.842-41.641.617-3.163 1.517-5.75 2-5.75s.613 2.587.288 5.75m-66.98-1.665a1.116 1.116 0 0 1-1.532.362 1.116 1.116 0 0 1-.362-1.532 1.116 1.116 0 0 1 1.532-.362c.521.322.684 1.011.362 1.532m925.928 21.42c10.12 12.424 14.672 24.447 14.759 38.98.029 4.958-.271 10.815-.667 13.015s-1.883 6.475-3.304 9.5l-2.584 5.5-1.249-10.5c-1.767-14.858-4.979-29.114-8.786-39-1.801-4.675-5.693-13.225-8.649-19s-5.547-10.892-5.759-11.371c-.211-.48 2.347.983 5.685 3.25s8.087 6.598 10.554 9.626m-950.932-11.087c-2.095 1.532-3.044 1.364-1.984-.351.362-.587 1.393-1.067 2.291-1.067 1.365 0 1.315.232-.307 1.418M627 884c0 .55-.675 1-1.5 1s-1.5-.45-1.5-1 .675-1 1.5-1 1.5.45 1.5 1m-18.905 18.503 3.596.662-.433 4.667c-.469 5.044.428 7.795 4.251 13.041 1.351 1.855 2.213 3.767 1.915 4.25-.894 1.447-5.658.954-10.049-1.04-6.294-2.858-17.665-10.786-16.502-11.504.567-.351 2.023-3.718 3.235-7.483l2.205-6.845 4.093 1.795c2.252.988 5.712 2.094 7.689 2.457m645.705 2.205c-4.549 6.321-17.073 19.756-28.506 30.578-5.063 4.793-8.983 8.714-8.71 8.714 1.03 0 9.091-4.392 13.416-7.31 2.475-1.669 6.041-4.363 7.924-5.985 5.11-4.402 11.786-12.523 14.95-18.186 2.947-5.275 5.399-11.579 4.755-12.224-.209-.209-1.932 1.777-3.829 4.413m-225.8.001c-2.012.74-5 3.397-5 4.446 0 .465 1.958.845 4.351.845 5.153 0 9.729 1.446 14.992 4.739 2.114 1.322 4.476 2.161 5.25 1.864 3.665-1.407-.441-8.806-6.229-11.224-3.273-1.368-10.483-1.729-13.364-.67M671.598 921.25c-1.402 9.24-1.517 11.832-.628 14.17l.971 2.556-13.22 13.339c-7.483 7.549-14.683 13.922-16.589 14.682-3.782 1.509-5.37.904-8.445-3.215-1.678-2.247-1.768-3.039-.725-6.423 2.22-7.2 2.09-7.053 3.647-4.109 1.587 2.999 3.152 3.536 3.985 1.366.292-.762 4.216-4.007 8.719-7.212s10.037-7.31 12.298-9.122l4.111-3.295.574-5.571c.571-5.529 2.81-10.416 4.772-10.416.588 0 .813 1.381.53 3.25m-74.247 3.138c5.582 2.963 11.949 5.938 14.149 6.61 4.341 1.327 6.5 3.373 6.5 6.158 0 2.417-5.79 8.844-7.967 8.844-.968 0-4.808-2.25-8.533-5-3.967-2.928-7.832-5-9.328-5-1.991 0-6.659 4.154-21.14 18.811-10.221 10.346-21.498 20.77-25.058 23.166-3.561 2.395-8.049 5.687-9.974 7.316s-5.347 6.145-7.606 10.036-4.664 7.261-5.347 7.489c-.949.316-.984-.067-.148-1.63.602-1.124.804-2.799.449-3.722-.479-1.249-1.439-1.546-3.746-1.158-1.706.287-3.968.863-5.026 1.281-1.619.638-1.794.454-1.105-1.165.45-1.058.849-2.698.888-3.645.045-1.119 1.98-2.496 5.537-3.94 3.006-1.22 6.993-3.558 8.858-5.196s6.143-6.389 9.506-10.56 9.97-11.633 14.68-16.583c4.765-5.007 12.478-14.875 17.386-22.242 4.853-7.283 9.577-13.682 10.498-14.22.922-.537 2.734-.991 4.027-1.008 1.294-.016 6.919 2.395 12.5 5.358m83.42-3.2c-.218.653-.931 1.365-1.584 1.583-.731.244-.954-.214-.581-1.187.698-1.818 2.765-2.196 2.165-.396m-.677 8.118c-.792.792-1.094.532-1.094-.939 0-2.644 1.398-4.047 1.844-1.85.189.932-.149 2.188-.75 2.789m-48.856 4.529c.978.424-.045 2.165-1.271 2.165-1.026 0-3.967-5.253-3.967-7.085 0-.652 1.004.113 2.232 1.7 1.227 1.587 2.58 3.036 3.006 3.22M678.5 931c-.34.55-1.379.993-2.309.985-1.457-.014-1.484-.15-.191-.985 1.958-1.266 3.282-1.266 2.5 0m-154.866 2.057c2.639 1.132 5.394 2.551 6.12 3.154 1.046.868.68 1.407-1.752 2.585-5.458 2.643-3.064 3.725 7.591 3.43l9.907-.274-2.5 1.766c-4.397 3.106-11.504 10.111-10.885 10.73.328.329 4.478-1.264 9.221-3.54 7.902-3.792 11.664-4.45 11.664-2.04 0 .512-2.5 3.216-5.554 6.008-3.36 3.07-7.144 5.504-9.576 6.159-5.444 1.466-7.445.953-7.057-1.81.172-1.224.037-2.225-.3-2.225s-1.908.67-3.492 1.489c-3.42 1.769-8.197 1.079-10.553-1.524l-1.634-1.806 2.083-1.115c1.146-.613 2.083-1.748 2.083-2.522 0-1.094-1.563-1.364-7.031-1.214-5.31.145-7.268-.175-8-1.308-.74-1.144.08-2.504 3.458-5.736 2.435-2.33 4.01-4.494 3.5-4.809-1.765-1.091-.908-2.353 3.323-4.889 2.337-1.401 4.325-2.551 4.417-2.557s2.327.917 4.967 2.048M457.607 940c-1.237 10.736-2.656 15.905-5.192 18.919-2.868 3.408-8.251 5.724-15.566 6.698l-5.349.711 7 1.413c10.161 2.05 13.45 3.887 15.558 8.687 1.432 3.261 3.445 13.674 4.039 20.894.053.648.719-2.823 1.479-7.714.761-4.89 2.339-10.866 3.507-13.28 2.506-5.175 6.023-6.987 15.847-8.163l6.57-.786-6-1.27c-3.3-.699-7.885-2.162-10.19-3.25-5.45-2.574-7.79-7.424-9.584-19.859l-1.37-9.5zm219.393.059c0 1.132-.45 1.781-1 1.441s-1-1.266-1-2.059.45-1.441 1-1.441 1 .927 1 2.059m-116.226.12c-.654 1.962-3.388 3.184-5.388 2.408l-1.886-.732 2.5-1.392c3.089-1.72 5.296-1.852 4.774-.284m312.135 10.894c3.075.629 7.806 2.291 10.514 3.692s6.758 3.151 9 3.887l4.077 1.338-11-.314c-9.568-.273-11.73-.669-16.604-3.043-5.343-2.602-16.896-11.899-16.896-13.597 0-.442 3.447.928 7.659 3.044 4.213 2.116 10.175 4.363 13.25 4.993m425.901-2.047c3.543 2.16 6.192 7.167 6.186 11.692-.008 5.991-6.409 12.282-12.496 12.282-3.539 0-7.86-2.375-9.852-5.414-.971-1.482-1.648-4.552-1.648-7.474 0-3.914.562-5.627 2.668-8.13 4.484-5.328 9.61-6.329 15.142-2.956m-301.054 1.543c-6.701 3.636-8.764 16.043-4.395 26.431 1.272 3.025 4.115 8.139 6.318 11.364l4.005 5.864-1.939 9.538c-2.47 12.158-1.826 18.402 2.576 24.948 1.749 2.6 5.218 5.982 7.709 7.515 2.492 1.533 7.892 3.496 12 4.362 12.892 2.719 25.26-.01 35.025-7.729 5.726-4.526 11.766-12.399 21.302-27.765 3.617-5.828 7.491-11.163 8.61-11.855 3.941-2.44 1.532-7.224-3.651-7.252-.999-.005-4.1-1.073-6.893-2.373-3.455-1.61-8.723-6.007-16.5-13.776-8.624-8.616-13.155-12.313-18.492-15.086-3.887-2.02-8.837-3.948-11-4.284-2.63-.408-6.024.048-10.257 1.378l-6.326 1.989-5.174-2.409c-2.846-1.325-6.299-2.396-7.674-2.379s-3.735.7-5.244 1.519m-275.053 15.647c-1.344 16.51-3.759 23.023-9.926 26.773-1.783 1.084-5.724 2.478-8.759 3.098s-6.193 1.364-7.018 1.653 1.425 1.069 5 1.732c3.575.664 7.665 1.69 9.089 2.281 3.685 1.53 7.671 6.641 8.985 11.522.62 2.302 1.661 9.144 2.313 15.205l1.185 11.02.746-8.348c.995-11.143 2.482-17.892 4.91-22.284 1.104-1.998 3.692-4.579 5.75-5.735s7.219-2.691 11.469-3.409l7.727-1.305-7.337-1.244c-4.035-.685-9.268-2.115-11.628-3.179-3.512-1.584-4.729-2.895-6.698-7.216-1.658-3.639-2.825-9.01-3.752-17.28l-1.346-12zm312.856-6.644 1.941 1.571-3.375-.571c-1.856-.315-4.331-.579-5.5-.587-1.739-.013-1.852-.192-.625-.985 2.229-1.44 5.367-1.203 7.559.572M622.662 971.25c-.277.688-.504.125-.504-1.25s.227-1.937.504-1.25c.278.688.278 1.813 0 2.5m-1.715 8.913-1.213 7.337 3.217 10.749c3.333 11.141 3.736 16.424.666 8.751-2.453-6.131-5.628-10.389-6.841-9.176-1.636 1.636 1.729 42.539 4.309 52.389.535 2.043 1.945 4.395 3.133 5.227 1.189.833 1.865 1.81 1.504 2.172-.362.361-1.989.106-3.616-.568s-4.004-.909-5.282-.522c-1.898.574-2.095.462-1.074-.61 2.645-2.776.932-41.06-2.36-52.765-.828-2.945-2.584-6.432-3.903-7.75-1.318-1.319-3.553-2.397-4.966-2.397-1.883 0-2.851.735-3.62 2.75-.576 1.513-1.411 4.683-1.854 7.046-1.149 6.124-2.097 6.418-1.387.431.328-2.774.297-6.641-.069-8.593-.557-2.969-1.495-4.001-5.732-6.307-2.787-1.517-4.579-2.92-3.984-3.119.596-.198 4.779.574 9.295 1.716 9.255 2.34 18.088 2.713 19.56.826.536-.687 1.8-4.503 2.809-8.479s2.012-7.053 2.228-6.837-.153 3.694-.82 7.729m422.694-2.521c2.948 2.03 5.359 3.963 5.359 4.296 0 .98-12.484 3.062-18.36 3.062-3.976 0-6.824-.738-10.739-2.783-2.979-1.556-6.097-4.1-7.072-5.77l-1.744-2.987 13.599.246 13.599.245zm-624.939 11.961c-.343 3.316-1.317 6.419-2.388 7.603-2.462 2.72-6.686 4.794-9.764 4.794-1.403 0-2.55.45-2.55 1s1.245 1 2.766 1 4.333.841 6.25 1.868c2.512 1.348 3.811 2.951 4.657 5.75.645 2.135 1.253 5.682 1.351 7.882l.177 4 1.372-6.265c.755-3.446 1.871-7.197 2.481-8.335 1.337-2.5 6.676-4.875 11.164-4.968 2.742-.056 2.953-.209 1.282-.928-1.1-.474-3.295-1.141-4.878-1.484-4.675-1.011-8.254-5.43-9.583-11.833-.65-3.128-1.311-5.687-1.47-5.687s-.549 2.521-.867 5.603m419.157 25.828c18.825 19.455 23.889 24.235 30.005 28.319 3.5 2.338 6.04 4.25 5.644 4.25s-3.484-.714-6.864-1.586-9.628-3.396-13.885-5.607c-5.23-2.716-9.474-5.892-13.081-9.788-5.671-6.125-9.11-12.366-11.307-20.519-1.655-6.144-1.76-8.834-.232-6 .593 1.1 4.967 6.019 9.72 10.931m235.581-10.365c-1.028 1.136-4.886 4.071-8.573 6.522s-8.849 6.229-11.47 8.396c-2.621 2.166-6.121 4.236-7.778 4.6-2.492.547-3.376.205-5.12-1.983-1.822-2.284-3.227-2.772-10.324-3.581-12.069-1.377-14.881-2.035-16.517-3.869-1.541-1.728-1.965-3.758-1.773-8.479l.115-2.828 4.059 3.474c2.232 1.911 6.031 3.971 8.442 4.578s7.115 1.104 10.452 1.104c7.661 0 21.457-3.045 31.106-6.866 4.092-1.621 7.848-2.989 8.346-3.041.498-.051.064.837-.965 1.973m392.278 6.138c-7.051 9.815-14.745 16.288-26.218 22.061l-7 3.522 5.707.716c3.99.501 7.959.216 13.188-.948 4.115-.915 9.624-2.749 12.244-4.075s4.891-2.284 5.047-2.127c.156.156-1.86 2.953-4.481 6.215-5.585 6.954-15.674 14.822-25.454 19.854l-6.956 3.578 3.352.093c11.15.308 19.562-1.392 27.969-5.652 2.796-1.416 5.283-2.376 5.527-2.131.244.244-1.674 2.308-4.262 4.586-6.342 5.583-18.627 11.577-27.997 13.662-5.762 1.282-10.346 1.577-18.287 1.179-8.001-.402-12.377-1.183-17.864-3.188-3.997-1.46-10.297-4.456-14-6.657l-6.733-4.003 4 .586c9.427 1.383 24.525.578 24.486-1.304-.007-.369-2.595-1.487-5.75-2.485s-8.999-3.842-12.986-6.321-7.25-4.623-7.25-4.765 4.612-.222 10.25-.178c6.171.047 11.742-.45 14-1.25 4.05-1.433 4.997-3.172 1.728-3.172-3.033 0-13.982-5.235-20.615-9.857-6.128-4.27-10.363-7.686-10.363-8.36 0-.217 4.162.699 9.25 2.037 7.707 2.028 11.585 2.431 23.25 2.417 11.796-.014 15.575-.425 24-2.61 11.356-2.946 21.283-7.626 29.944-14.117 3.269-2.451 6.136-4.263 6.371-4.029.234.235-1.609 3.26-4.097 6.723m-924.677 15.854c3.077 4.321 1.801 4.734-1.452.469-1.48-1.94-2.249-3.527-1.708-3.527s1.963 1.376 3.16 3.058m28.142-.841c-.717.717-1.183.776-1.183.15 0-1.335 1.183-2.518 1.85-1.85.284.284-.016 1.049-.667 1.7m952.91 1.627c2.466 1.564 6.167 4.81 8.224 7.213 4.867 5.686 9.253 14.555 10.743 21.724.663 3.188.956 9.038.662 13.219-.558 7.946-2.789 14.723-6.44 19.561l-2.219 2.939-.031-9.59c-.039-11.632-2.439-21.779-7.579-32.046-2.028-4.05-5.814-10.289-8.414-13.864s-5.027-7.026-5.393-7.669c-.841-1.481 1.942-4.331 4.23-4.331.953 0 3.75 1.28 6.217 2.844m-958.145 7.244-4.23 7.244 1.141 3.155c.628 1.735 1.141 3.518 1.141 3.961s-2.015-1.051-4.478-3.321-5.05-4.145-5.75-4.166c-.699-.022.108-.64 1.796-1.375s5.51-4.057 8.496-7.382 5.583-5.89 5.772-5.702c.188.189-1.561 3.603-3.888 7.586M765.581 1037c-.401 4.125-1.419 10.045-2.261 13.156-2.022 7.471-5.946 11.256-13.78 13.294-3.278.852-7.328 1.603-9 1.667-1.875.072-.398.642 3.855 1.487 3.792.753 8.511 2.163 10.487 3.133 6.438 3.16 8.381 7.897 10.77 26.263l.715 5.5 1.353-10.452c1.449-11.192 3.797-16.905 8.323-20.25 1.399-1.034 6.349-2.638 11-3.566l8.457-1.685-6-.752c-9.317-1.168-14.228-3.426-17.193-7.907-1.995-3.015-2.973-6.582-4.291-15.647l-1.706-11.741zm-174.113 5.901-1.758 10.008 1.725 2.632c.949 1.448 1.576 2.75 1.395 2.893s-2.622-.958-5.422-2.445c-4.438-2.357-4.867-2.846-3.342-3.798 1.778-1.111 7.934-15.717 7.934-18.825 0-.935.276-1.423.613-1.086s-.178 5.117-1.145 10.621m54.772.451c-.957.507-2.825 1.872-4.15 3.035l-2.41 2.113.788-2c.434-1.1.998-2.958 1.254-4.128.415-1.903.771-2.012 3.362-1.034 2.523.952 2.672 1.212 1.156 2.014m294.76-.817c0 1.068-3.431 6.042-6.43 9.323l-3.07 3.358 3.5-.722c1.925-.397 4.962-1.323 6.75-2.057s3.25-1.124 3.25-.866-1.157 2.302-2.572 4.543-2.404 4.243-2.198 4.449c.326.326 8.393-1.956 14.27-4.037 1.294-.458.764.407-1.5 2.448-5.736 5.173-11.882 8.82-18.891 11.211-5.315 1.813-8.763 2.249-17.609 2.225-6.336-.017-12.908-.608-15.5-1.393l-4.5-1.364 4.561-.716c2.508-.395 7.458-2.205 11-4.023l6.439-3.307-6-1.128c-3.3-.621-9.15-2.211-13-3.532l-7-2.403 9.032-.659c4.968-.362 11.718-1.347 15-2.189 7.85-2.015 16.241-5.215 19.968-7.617 3.093-1.993 4.5-2.475 4.5-1.544m-364.531 18.058c4.173.379 7.832 1.085 8.132 1.571.301.486-2.351 6.385-5.893 13.11s-7.011 14.026-7.71 16.226c-1.971 6.203-5.683 13.137-12.649 23.628-3.516 5.295-8.216 13.833-10.445 18.972s-4.792 10.594-5.694 12.122c-1.622 2.745-3.617 3.313-7.742 2.205l-2.031-.546 3.176-6.541c4.093-8.429 5.67-13.546 9.808-31.84 1.866-8.25 4-16.35 4.741-18s3-5.925 5.018-9.5c2.019-3.575 4.394-9.322 5.278-12.772.884-3.449 2.03-7.381 2.545-8.736.808-2.124 1.279-2.335 3.409-1.526 1.359.517 5.885 1.249 10.057 1.627m39.018 21.893c-1.269 12.101-1.599 22.101-1.289 39.134.325 17.859.759 23.662 1.979 26.441.86 1.959 3.759 5.443 6.443 7.744l4.88 4.182-2.78.007c-1.529.003-5.453-1.119-8.72-2.494s-6.628-2.5-7.47-2.5c-1.128 0-1.539-1.117-1.565-4.25-.041-5.061-1.763-14.595-5.823-32.25l-2.99-13 .573-19.649.573-19.65 6.531-.699c3.592-.385 7.463-1.05 8.601-1.478 1.474-.554 2.17-.348 2.416.714.19.821-.422 8.807-1.359 17.748m858.709-13.76c-2.634 6.934-8.542 15.521-14.044 20.414-5.905 5.251-16.714 10.449-25.681 12.349-8.567 1.814-19.764 1.865-28.733.129-3.719-.72-6.942-1.491-7.163-1.714-.22-.222 4.623-.454 10.763-.515 12.017-.119 21.995-2.012 28.933-5.49 4.633-2.321 9.713-6.662 9.758-8.336.015-.585 3.404-3.073 7.53-5.529 4.125-2.457 10.3-7.237 13.721-10.623 3.421-3.387 6.352-6.045 6.513-5.908s-.558 2.488-1.597 5.223m31.375 7.877c2.556 7.153 2.254 18.321-.7 25.897l-2.34 6-.628-8.5c-.345-4.675-1.095-10.3-1.665-12.5s-1.305-8.725-1.631-14.5l-.594-10.5 2.904 4.603c1.597 2.532 3.692 6.807 4.654 9.5m-912.252 2.016c.1 6.535-.125 15.031-.499 18.881l-.681 7-9.126-.14c-5.02-.077-9.339-.352-9.598-.612-.26-.259.725-3.796 2.188-7.86 3.475-9.653 15.425-31.26 16.625-30.06.501.501.992 6.257 1.091 12.791m-186.819-6.315c3.85 1.326 9.7 3.779 13 5.451 7.376 3.737 20.505 12.33 37.282 24.401 6.995 5.032 16.267 10.83 20.605 12.883s18.4 7.043 31.25 11.089c16.929 5.331 23.361 7.772 23.355 8.864-.022 3.972-13.124 21.869-16.077 21.959-2.19.068-22.517-6.423-33.415-10.669-4.95-1.929-15.075-6.332-22.5-9.786s-17.1-7.495-21.5-8.981c-4.559-1.54-14.236-6.394-22.5-11.287-7.975-4.722-17.809-10.277-21.853-12.346-6.685-3.418-14.971-5.829-25.587-7.444-3.312-.504-5.424-2.098-13.25-10.001-5.121-5.171-9.31-10.028-9.31-10.794 0-3.251 16.147-3.615 25.282-.57 3.42 1.14 9.593 3.897 13.718 6.127 10.6 5.731 28.16 17.675 44.475 30.253 7.686 5.925 16.461 12.374 19.5 14.331 9.702 6.246 21.77 10.576 58.018 20.817 4.671 1.319 9.563 2.399 10.872 2.399h2.379l-1.464-2.204c-2.097-3.159-11.62-7.605-32.78-15.307-10.175-3.703-20.75-7.857-23.5-9.231q-9.176-4.584-33.015-22.837c-6.608-5.06-18.308-13.268-26-18.24-7.692-4.973-14.885-9.773-15.985-10.668l-2-1.627 7 .503c3.85.277 10.15 1.589 14 2.915m-22.351 37.085c6.586 2.325 22.64 11.371 28.275 15.933l2.923 2.367-4.36.697c-5.462.873-10.648 3.288-11.428 5.322-1.131 2.946 4.633 10.441 20.658 26.861 8.841 9.059 15.805 16.742 15.474 17.073-.834.835-8.802-3.874-17.5-10.343-4.02-2.99-15.953-13.843-26.517-24.117s-22.723-21.983-27.021-26.018c-4.297-4.035-7.649-7.502-7.447-7.704 1.416-1.416 6.39-2.339 12.794-2.376 5.4-.03 9.362.615 14.149 2.305m212.125 13.859 2.534 9.752h-4.654c-4.772 0-36.247-3.759-36.894-4.407-.198-.197 1.786-3.541 4.409-7.429 3.858-5.721 5.346-7.15 7.799-7.487 1.668-.23 7.811-.364 13.652-.299l10.62.118zM537.567 1116l-1.134 4c-.312 1.1-.987 2-1.5 2-1.22 0-4.933-3.727-4.933-4.95 0-1.367 3.115-2.984 5.817-3.02 1.846-.024 2.202.377 1.75 1.97m116.727.477c12.611 2.437 47.298 12.483 64.706 18.741 21.309 7.659 34.588 17.229 42.715 30.782 2.623 4.374 7.285 15.823 7.285 17.891 0 .922-2.321-.723-5.75-4.078-10.847-10.609-26.96-19.123-42.606-22.512-14.383-3.115-35.146-1.428-62.871 5.11l-9.73 2.294-1.771-1.972c-.975-1.085-5.372-3.714-9.772-5.842s-9.486-5.12-11.303-6.648c-2.119-1.782-3.634-4.205-4.226-6.76-.508-2.191-.934-8.991-.947-15.112l-.024-11.128 2.75-1.066c1.513-.585 3.65-1.293 4.75-1.572 3.222-.816 18.351.241 26.794 1.872m697.206 1.04c3.85 1.457 10.375 3.241 14.5 3.966 9.066 1.592 21.78 2.838 28.25 2.768 2.612-.028 4.75.096 4.75.277 0 .797-13.738 6.718-16.707 7.199-1.811.294-3.293.844-3.293 1.221 0 1.188 10.488 4.052 14.838 4.052 2.289 0 4.161.338 4.161.75-.002 1.05-10.58 5.25-13.222 5.25-3.825 0-.575 1.701 6.639 3.476 3.804.935 10.554 1.729 15 1.764l8.084.063-4.313 1.914c-6.82 3.026-16.855 4.748-27.687 4.751-5.5.001-12.817-.662-16.26-1.474s-8.867-2.791-12.052-4.399c-6.04-3.049-16.693-10.924-15.879-11.738.258-.258 3.172.231 6.475 1.087s7.965 1.546 10.36 1.533l4.356-.023-3-1.522c-1.65-.837-4.8-3.059-7-4.939l-4-3.416 7.5.584 7.5.585-6-4.223c-6.669-4.693-13.5-10.938-13.5-12.343 0-1.043.858-.811 10.5 2.837m-53.247 29.589c2.829 2.236 7.665 5.338 10.747 6.894 5.842 2.949 14.358 5.671 19.5 6.232 2.574.281 2.248.501-2.299 1.548-7.269 1.674-14.015 1.529-20.082-.431-2.811-.907-6.855-3.143-8.987-4.968-2.251-1.927-5.607-6.644-8.004-11.252-2.27-4.364-4.117-8.541-4.103-9.282s1.838.575 4.055 2.923c2.216 2.349 6.344 6.1 9.173 8.336m-722.753-7.114c4.95.535 12.448.98 16.662.99l7.662.018.677 4.007c.373 2.204.139 7.197-.518 11.094-.658 3.898-.934 8.395-.614 9.993l.581 2.906h-3.297c-1.814 0-10.915-1.124-20.225-2.498s-20.651-2.499-25.201-2.5l-8.273-.002 1.445-2.25c.794-1.237 2.206-4.95 3.136-8.25s2.62-8.195 3.756-10.877l2.065-4.877 6.572.637c3.615.35 10.622 1.074 15.572 1.609m407.75 8.861c.962 2.091 1.75 4.268 1.75 4.838s-2.769 2.279-6.154 3.797c-4.594 2.062-7.733 2.762-12.385 2.762-4.918 0-7.304-.584-11.324-2.772-2.801-1.525-5.812-3.566-6.691-4.537l-1.597-1.766 6.825-.692c7.597-.77 19.233-2.898 23.826-4.358 1.65-.524 3.225-.98 3.5-1.013s1.288 1.65 2.25 3.741m-452.473 10.704c1.223.856 2.223 2.352 2.223 3.325 0 2.769-4.444 6.286-8.164 6.461l-3.336.157-.299-3.053c-.342-3.504 2.963-8.447 5.649-8.447.938 0 2.705.701 3.927 1.557m456.149 94.357c5.784 6.678 18.68 18.549 30.566 28.138 4.395 3.546 11.37 9.528 15.5 13.293 4.129 3.765 9.452 7.989 11.829 9.387 2.775 1.632 6.62 2.779 10.75 3.206 5.6.58 6.429.451 6.429-1.001 0-3.029-4.004-6.83-11.147-10.584-5.511-2.896-8.225-5.18-12.455-10.481-2.974-3.728-6.868-7.885-8.653-9.239-3.33-2.525-46.611-28.633-47.467-28.633-.262 0 1.83 2.662 4.648 5.914M489 1270.331c0 5.736-2.992 19.895-5.167 24.452-1.401 2.938-3.258 4.903-5.908 6.255-4.99 2.546-14.308 4.962-19.135 4.962-2.085 0-3.79.45-3.79 1s1.462 1.016 3.25 1.035c4.68.051 14.75 2.37 18.25 4.203 3.888 2.037 7.076 5.503 8.517 9.262 1.562 4.072 3.983 16.892 3.983 21.088 0 6.578 1.57 3.324 2.816-5.838.692-5.088 1.794-11.05 2.451-13.25.658-2.206 2.996-5.803 5.213-8.02 4.406-4.406 9.578-6.4 18.77-7.235 3.163-.288 5.75-.848 5.75-1.246 0-.397-2.895-1.019-6.434-1.382s-8.375-1.344-10.746-2.181c-5.18-1.827-10.411-6.65-11.783-10.864-1.397-4.289-4.037-18.521-4.037-21.763 0-1.48-.45-2.969-1-3.309-.593-.366-1 .786-1 2.831m799.5 8.785c-11.55 2.164-36.3 6.375-55 9.357s-37.067 6.137-40.816 7.011c-17.631 4.113-32.6 10.138-44.89 18.069-7.482 4.828-23.105 17.47-22.427 18.147.904.905 14.256-5.006 20.645-9.139 3.842-2.486 8.698-5.392 10.79-6.46s8.73-2.65 14.751-3.516 19.047-2.73 28.947-4.141 23.885-3.871 31.077-5.468c15.729-3.491 40.215-10.506 53.923-15.449 11.802-4.255 28.865-12.362 26-12.353-1.1.003-11.45 1.777-23 3.942m171 120.43c4.95.773 11.025 2.016 13.5 2.761l4.5 1.355-19.5.584c-21.347.64-37.943 2.883-57.244 7.737-21.832 5.49-41.86 14.763-42.567 19.709-.56 3.922 2.866 4.654 25.361 5.422 11.578.395 24.853 1.244 29.5 1.887 4.648.644 13.4 2.369 19.45 3.834l11 2.665-6.5.234c-13.888.499-36.899 2.455-55.772 4.74-15.378 1.862-66.317 8.86-95.228 13.081-4.024.588 5.924-3.389 25-9.995 6.875-2.38 14.198-5.144 16.274-6.141 3.045-1.462 3.469-1.983 2.197-2.695-.868-.486-9.064-1.307-18.213-1.826-9.15-.518-16.81-1.117-17.024-1.33-.761-.762 11.431-8.383 21.266-13.293 12.373-6.178 31.473-13.924 46-18.655 11.359-3.7 26.792-7.511 39-9.631 17.474-3.035 41.265-3.213 59-.443m-369 38.565c-17.899 6.705-37.48 17.451-50.5 27.715-5.818 4.587-19.319 17.643-23.059 22.3l-2.912 3.625 4.736-.424c10.466-.936 10.725-1.071 23.413-12.16 13.391-11.703 31.703-25.928 47.072-36.567 5.362-3.712 9.75-6.941 9.75-7.175 0-.542.754-.781-8.5 2.686m-517.473 79.139c-.799 1.237-8.28 15.708-16.623 32.156-10.755 21.204-15.343 29.352-15.766 28-.327-1.048-2.591-11.806-5.031-23.906-5.52-27.372-6.474-31.145-8.25-32.619-1.966-1.631-6.422-.176-20.253 6.612-8.991 4.412-11.133 5.863-10.718 7.261 4.686 15.792 21.223 73.97 22.012 77.443.37 1.626-.797 8.573-2.941 17.5-5.328 22.193-9.457 42.001-9.457 45.369 0 1.849.625 3.237 1.631 3.623 1.822.699 32.041-2.028 32.99-2.977.611-.611 3.248-13.762 8.288-41.341l2.765-15.128 9.828-16.872c10.674-18.325 24.657-41.884 36.188-60.972 4.02-6.655 7.31-12.812 7.31-13.681 0-1.769-3.341-4.364-9.881-7.675-5.867-2.969-12.843-5.019-17.128-5.032-2.55-.008-3.908.604-4.964 2.239m122.391 3.232c-7.049 1.534-18.583 7.098-25.856 12.474-8.265 6.109-20.671 20.042-26.306 29.545-5.679 9.578-10.261 20.591-13.509 32.468-1.654 6.045-2.078 10.689-2.152 23.531-.075 13.03.256 17.114 1.783 22 5.896 18.865 16.093 29.126 30.058 30.247 8.719.7 15.994-1.639 24.038-7.727 3.589-2.717 6.526-4.611 6.526-4.21 0 .402-.9 3.978-2 7.947-1.1 3.97-2 7.725-2 8.346 0 .786 1.741.919 5.75.438 10.472-1.257 19.219-3.614 20.199-5.445.512-.957 2.265-6.882 3.897-13.168 3.33-12.828 13.727-59.135 14.747-65.678l.663-4.25-2.378.009c-4.334.016-48.23 6.942-48.954 7.724-1.228 1.326-2.924 11.131-2.924 16.906v5.541l8.75-.669c4.813-.367 9.538-.888 10.5-1.157s1.75-.221 1.75.107-1.363 3.297-3.029 6.597-4.704 7.858-6.75 10.129c-3.953 4.384-12.073 8.789-16.221 8.799-3.849.01-8.959-3.644-10.605-7.583-2.235-5.348-2.83-15.407-1.427-24.106 4.572-28.338 27.754-65.071 38.471-60.959.795.305 2.258 1.796 3.253 3.313 1.427 2.177 1.808 4.781 1.808 12.368v9.61l11.356-2.306c6.246-1.269 13.073-2.821 15.171-3.449l3.816-1.144.688-8.254c.378-4.54.365-10.667-.028-13.615-1.68-12.602-8.535-21.203-19.306-24.226-6.856-1.923-11.476-1.959-19.779-.153m772.138 28.48c-23.827 23.879-28.648 28.286-28.089 25.682 2.283-10.647 9.238-48.204 8.981-48.492-.436-.488-30.696 2.82-34.083 3.726l-2.779.743-3.279 21.439c-3.196 20.897-5.999 38.412-14.287 89.265-2.225 13.653-3.788 25.241-3.474 25.75.315.509 2.304.925 4.421.925 3.338 0 28.23-2.908 28.708-3.354.096-.089 2.043-11.405 4.325-25.146s4.229-25.053 4.325-25.137c.096-.085 7.6 13.811 16.675 30.88 9.075 17.07 16.95 31.637 17.5 32.372.782 1.045 4.048-.953 14.968-9.158 7.683-5.771 14.381-10.906 14.885-11.41.554-.554-6.046-12.562-16.719-30.421-9.699-16.228-17.596-29.87-17.549-30.316s7.908-8.01 17.468-16.81 21.492-19.825 26.514-24.5l9.131-8.5-7.612-10.859c-4.187-5.973-8.435-11.905-9.44-13.183l-1.827-2.322zM398.064 1524.79l-14.435 3.71-1.392 6.5c-2.279 10.641-12.858 58.045-17.63 79-8.477 37.222-12.735 58.051-12.422 60.768l.315 2.732 13-.198c7.15-.109 14.349-.591 15.999-1.072l2.999-.873 2.709-14.429c7.346-39.115 12.946-67.611 13.612-69.268.409-1.016 1.546 8.828 2.54 22 1.898 25.127 3.038 34.759 4.745 40.071.836 2.601 1.816 3.44 5.034 4.306 2.197.592 5.636.938 7.642.769l3.647-.306 7.643-16.5c16.997-36.696 23.924-50.515 23.927-47.733.002 1.521-1.32 15.921-2.937 32-1.618 16.078-3.254 33.611-3.636 38.962l-.695 9.73 1.808.694c1.826.7 17.845-1.683 27-4.017l4.963-1.265 1.688-29.436c1.97-34.342 3.598-52.471 8.011-89.192l3.215-26.758-1.74-1.742c-1.418-1.421-3.967-1.805-13.784-2.079-10.474-.291-12.302-.101-14.025 1.458-1.09.987-4.141 5.413-6.779 9.836-4.97 8.332-20.783 38.117-27.585 51.958-2.14 4.354-4.006 7.504-4.148 7s-1.42-15.316-2.842-32.916c-1.421-17.6-3.073-33.237-3.669-34.75-.911-2.309-1.667-2.744-4.713-2.71-1.996.022-10.125 1.71-18.065 3.75m649.436-2.253c-8.793 1.959-13.956 3.992-19.068 7.51-2.5 1.72-5.914 5.001-7.585 7.29-4.617 6.322-13.323 24.088-37.57 76.663-15.349 33.281-21.424 47.186-20.862 47.748.659.659 27.417 8.252 29.082 8.252.67 0 4.283-7.312 8.028-16.25s6.956-16.434 7.135-16.659c.462-.582 28.71-5.054 29.15-4.615.2.2.723 7.937 1.162 17.194.44 9.256 1.139 17.656 1.553 18.665.616 1.499 1.417 1.712 4.365 1.164 5.643-1.05 26.532-6.701 27.296-7.385.378-.338-.152-14.114-1.176-30.614s-2.373-39-2.996-50c-1.891-33.398-3.788-54.91-5.095-57.777-.98-2.152-1.888-2.702-4.33-2.623-1.699.056-5.789.702-9.089 1.437m-197.343 5.151c-3.334 6.605-23.596 57.262-31.309 78.275-2.718 7.405-5.198 13.705-5.511 14-.314.295-.294-.813.044-2.463.785-3.829 3.338-42.417 4.103-62 .322-8.25.83-18.487 1.127-22.75s.274-7.75-.052-7.75c-.327 0-4.523 2.206-9.326 4.903s-12.22 6.62-16.483 8.719l-7.75 3.817.073 21.03c.04 11.567.401 39.601.802 62.298.632 35.744.943 41.479 2.32 42.857l1.591 1.59 17.216-4.857 17.216-4.857 2.339-6c16.151-41.424 30.061-76.638 32.985-83.5 6.268-14.715 17.458-42.334 17.458-43.091 0-1.21-12.128-4.931-18.168-5.574l-5.668-.603zm81.343-4.089c-1.1.18-9.875 1.262-19.5 2.405s-20.091 2.568-23.258 3.168l-5.757 1.091-3.573 5.881c-1.965 3.235-4.396 8.238-5.403 11.119-1.008 2.88-3.465 14.912-5.461 26.737s-4.727 27.125-6.068 34-4.067 22.119-6.056 33.875l-3.618 21.375 2.134 2.125c1.86 1.852 3.19 2.105 10.347 1.97 8.449-.159 60.666-7.089 61.907-8.215.851-.773 3.242-27.027 2.527-27.742-.282-.282-9.334.556-20.117 1.863-10.945 1.326-19.604 1.967-19.604 1.451 0-1.053 5.108-29.116 5.345-29.364.085-.089 5.461-.895 11.946-1.79 6.485-.896 12.922-2.059 14.304-2.584 1.552-.59 3.245-2.608 4.423-5.273 2.692-6.084 5.005-15.468 4.279-17.359-.529-1.378-1.99-1.506-10.705-.933-5.55.365-12.185.926-14.744 1.248l-4.652.585 1.379-6.866c.758-3.776 1.9-9.454 2.538-12.616.659-3.267 1.693-5.75 2.394-5.75 2.004 0 30.66-2.967 34.743-3.597l3.75-.579V1523l-5.75.136c-3.163.075-6.65.283-7.75.463m256 .523c-20.671 2.222-57.081 7.128-57.77 7.784-.887.845-4.73 19.982-4.73 23.554 0 2.126.386 2.354 3.5 2.064 2.164-.201 3.497.114 3.492.826-.013 1.771-11.762 69.381-16.437 94.585-1.827 9.849-2.201 13.787-1.401 14.75.6.723 2.742 1.315 4.76 1.315 3.941 0 27.329-2.909 27.889-3.469.478-.478 9.197-48.446 9.197-50.597 0-1.141.981-1.964 2.75-2.305 1.513-.291 9.275-1.054 17.25-1.695s14.77-1.593 15.099-2.115 1.358-5.195 2.285-10.385c1.269-7.109 1.413-9.945.582-11.498l-1.104-2.061-7.931.562-15.931 1.132c-4.4.313-8 .267-8-.101s1.152-7.026 2.559-14.796 3.016-14.409 3.574-14.754 7.843-1.161 16.19-1.813c8.348-.653 17.258-1.428 19.802-1.722l4.624-.536.626-4.563c.791-5.778.788-20.072-.005-23.034l-.603-2.25-6.134.131c-3.373.072-9.733.518-14.133.991m-424.491 3.538c-5.771.782-10.828 1.759-11.239 2.17s-4.129 17.38-8.263 37.708c-4.134 20.329-9.98 48.887-12.992 63.462s-5.485 27.779-5.496 29.342l-.019 2.841 15.038-.341c11.464-.261 15.241-.672 15.894-1.73.471-.763 1.144-3.238 1.494-5.5 1.108-7.141 10.367-54.787 17.61-90.612 3.836-18.975 6.972-35.513 6.969-36.75-.004-1.998-.481-2.237-4.255-2.132-2.337.065-8.971.759-14.741 1.542m597.991-.184c-2.475.714-6.3 2.071-8.5 3.016-12.999 5.584-29.31 20.942-38.244 36.009-5.507 9.288-10.343 20.757-12.781 30.313-.798 3.127-1.872 9.784-2.387 14.792-.946 9.191-.209 19.47 1.987 27.721 1.998 7.509 7.967 17.511 13.429 22.503 8.376 7.655 19.127 9.975 31.26 6.745 12.372-3.293 26.461-14.713 36.954-29.95 2.32-3.369 4.232-6.405 4.25-6.747.037-.718-20.166-9.878-21.789-9.878-.596 0-2.41 1.912-4.031 4.25-4.056 5.847-7.95 9.352-12.502 11.254-4.579 1.913-8.596 1.276-11.382-1.806-2.921-3.231-4.265-8.156-4.256-15.597.011-9.924 1.673-18.289 5.749-28.938 4.024-10.514 13.037-25.129 18.148-29.43 3.547-2.984 7.236-4.277 9.608-3.366 2.166.831 3.485 4.951 3.502 10.948.009 2.852.404 5.797.878 6.546.899 1.419 1.53 1.388 19.786-.984 5.965-.776 8.348-1.506 8.805-2.697.345-.898.891-5.965 1.214-11.26.493-8.095.247-10.741-1.544-16.641-3.848-12.667-12.184-18.372-26.582-18.19-3.89.05-9.097.674-11.572 1.387m-87.349 3.52c-.33 1.649-2.64 15.036-5.133 29.75-2.494 14.715-6.069 34.357-7.946 43.649-2.581 12.783-4.291 18.675-7.024 24.205-4.864 9.842-10.664 13.837-16.55 11.399-1.905-.789-3.403-2.554-4.506-5.309-1.273-3.184-1.497-5.736-.977-11.159.857-8.935 6.771-38.205 13.935-68.968 3.561-15.287 5.229-24.284 4.616-24.897s-5.044-.352-12.263.722c-6.217.925-13.619 2.139-16.45 2.697l-5.146 1.014-2.673 14.2a8623 8623 0 0 1-5.57 29.253c-4.136 21.49-5.782 32.312-6.945 45.665-1.2 13.772-.136 23.663 3.369 31.32 3.16 6.902 8.758 12.132 14.957 13.973 6.333 1.88 18.532 1.898 25.524.037 9.775-2.601 16.232-6.525 24.664-14.986 5.841-5.861 9.158-10.244 12.156-16.061 5.134-9.963 9.415-23.717 13.227-42.5 4.61-22.709 11.211-65.539 10.251-66.5-.275-.275-7.344-.5-15.709-.5h-15.208zM1036 1584.363v22.363l-7.75 1.201c-4.263.661-8.522 1.423-9.465 1.693-1.472.423-1.29-.684 1.283-7.814 4.523-12.536 15.205-39.806 15.592-39.806.187 0 .34 10.063.34 22.363m-115.743 115.801c-2.243 3.718-8.332 16.678-23.164 49.306-5.493 12.084-10.179 21.309-10.414 20.5-.234-.808-2.096-8.895-4.138-17.97-6.098-27.109-9.542-41.331-10.743-44.363l-1.134-2.863-4.426.607c-6.587.903-16.404 6.004-22.795 11.845l-5.66 5.173.616 4.494c.339 2.471 6.246 22.464 13.127 44.428l12.512 39.934-4.473 26.576c-3.254 19.332-4.179 26.929-3.396 27.872.665.802 3.416 1.301 7.203 1.308 9.991.019 30.793-2.271 31.208-3.435.724-2.03 6.42-41.814 6.42-44.84 0-1.763 2.364-7.451 5.664-13.631 10.552-19.757 44.28-79.937 49.077-87.565 1.715-2.727 2.892-5.325 2.616-5.772-1.316-2.129-26.618-13.164-32.876-14.337-2.854-.536-3.436-.231-5.224 2.733m371.743-1.757c-4.675.716-12.825 2.29-18.112 3.498l-9.612 2.196-1.154 6.99c-.635 3.845-1.443 10.408-1.796 14.585l-.642 7.594 5.752-.719 5.752-.718-.58 1.833c-.747 2.367-7.129 40.852-14.627 88.209-4.284 27.053-5.642 37.889-4.921 39.238.549 1.025 2.222 2.206 3.719 2.625 6.459 1.809 24.179-.204 39.221-4.455 9.348-2.642 27.132-10.624 34.972-15.696 15.802-10.223 26.526-20.682 35.755-34.869 5.705-8.77 8.511-15.216 11.912-27.358 2.401-8.572 2.767-11.689 2.798-23.86.028-10.777-.384-15.381-1.789-20-2.912-9.57-7.467-17.102-14.081-23.281-3.366-3.146-8.812-7.15-12.101-8.898-3.289-1.749-9.352-4.163-13.473-5.366-5.934-1.732-10.718-2.256-22.993-2.518-9.444-.202-18.821.177-24 .97m-654.245 1.572c-11.566 3.083-19.61 6.277-23.141 9.188-1.869 1.54-5.098 5.362-7.177 8.493-3.959 5.965-19.849 39.524-35.2 74.34-24.43 55.406-27.237 62.05-27.237 64.454 0 1.489 2.361 2.489 20 8.472 8.67 2.94 11.769 3.614 12.593 2.737.601-.64 4.371-9.488 8.377-19.663s7.565-18.808 7.907-19.185c.582-.64 28.521-4.815 32.22-4.815 1.498 0 1.766 2.192 2.42 19.75.404 10.862 1.117 20.763 1.584 22s1.547 2.25 2.399 2.25c1.767 0 32.476-8.865 34-9.815.55-.343 2.04-.489 3.312-.324 4.097.529 32.331-3.147 33.554-4.369.65-.651 2.217-7.665 3.483-15.587 2.08-13.022 9.459-56.429 17.238-101.405 1.618-9.35 3.224-20.037 3.571-23.75l.629-6.75-5.393.043c-6.459.052-27.264 2.449-28.641 3.301-.536.331-1.265 2.751-1.622 5.379-1.165 8.583-18.126 102.397-22.83 126.277l-2.265 11.5-.728-8.5c-.401-4.675-2.583-30.998-4.849-58.496-5.41-65.63-7.317-84.025-8.909-85.944-1.67-2.012-6.695-1.874-15.295.419m393.583-.945c-9.639 1.204-24.603 4.428-31.338 6.752l-5.5 1.898-1.735 12.908c-.955 7.099-1.63 14.098-1.5 15.553l.235 2.645 5.75-1.787c4.159-1.292 5.75-1.454 5.75-.583 0 2.251-18.171 115.216-19.454 120.94-.668 2.981 3.614 6.39 9.078 7.227 6.014.921 21.249-1.502 32.162-5.116 12.029-3.982 28.88-12.718 38.306-19.859 4.726-3.58 12.234-10.356 16.685-15.058 13.181-13.924 23.62-31.282 27.697-46.054 2.256-8.174 3.124-27.75 1.585-35.72-.667-3.454-2.786-9.575-4.708-13.602-4.793-10.04-12.624-17.737-23.505-23.1-4.59-2.263-11.45-4.755-15.243-5.539-9.183-1.897-25.414-2.61-34.265-1.505M540 1701.582c-18.501 2.258-39.106 5.206-52.647 7.532l-6.148 1.056-1.048 7.665c-1.814 13.272-2.258 21.6-1.232 23.149.623.942 2.462 1.446 5.029 1.378 2.225-.058 4.046.328 4.046.858s-2.045 14.534-4.545 31.122c-13.07 86.713-13.48 89.742-12.426 91.713.594 1.108 2.088 1.945 3.474 1.945 4.108 0 32.952-4.161 33.709-4.863.391-.363 1.869-10.555 3.285-22.649 1.416-12.093 3.12-25.813 3.788-30.488l1.215-8.5 19.706-2c10.838-1.1 20.168-2.465 20.734-3.034 1.236-1.243 4.246-25.818 3.424-27.96-.318-.828-1.014-1.506-1.548-1.506-.533 0-8.847.713-18.475 1.584s-17.741 1.35-18.028 1.063.538-7.188 1.833-15.335l2.354-14.812 23.5-2.179c12.925-1.199 24.288-2.211 25.25-2.25 1.501-.061 1.747-1.102 1.731-7.321-.021-7.592-2.278-25.803-3.429-27.667-1.013-1.637-11.82-1.155-33.552 1.499m697.5-.394c-6.301.866-49.49 7.124-58.723 8.51-2.214.332-3.921 1.216-4.21 2.18-.268.892-1.611 8.221-2.985 16.287a2778 2778 0 0 1-5.513 31c-6.119 33.152-14.179 82.574-14.756 90.47l-.594 8.135 2.69 1.763c2.36 1.546 4.313 1.688 15.891 1.153 7.26-.335 23.441-2.181 35.959-4.104 12.517-1.922 24.289-3.782 26.16-4.133l3.401-.638.675-10.655c.371-5.861.749-12.681.84-15.156l.165-4.5-3-.245c-1.65-.134-11.775 1.003-22.5 2.528-17.061 2.426-19.535 2.582-19.783 1.245-.266-1.434 5.428-34.108 6.013-34.504.148-.101 8.7-1.077 19.003-2.17s18.917-2.181 19.143-2.42c.831-.877 3.86-25.031 3.22-25.671-.364-.364-8.409.046-17.879.911-9.469.865-17.402 1.408-17.629 1.205-.226-.203.626-6.18 1.895-13.282l2.306-12.913 4.105-.541c2.258-.298 10.631-1.057 18.606-1.686 7.975-.63 16.3-1.454 18.5-1.831l4-.686.281-12.212c.154-6.716-.097-13.678-.558-15.47-.732-2.842-1.278-3.275-4.281-3.395-1.893-.075-6.592.296-10.442.825m-456.731 2.39c-9.541 1.725-27.402 7.481-34.769 11.205l-5.5 2.78-1.182 5.968c-1.005 5.076-7.906 47.383-17.858 109.469-1.367 8.525-2.92 18.165-3.453 21.421-.687 4.208-.643 6.313.154 7.273.88 1.06 4.818 1.293 18.231 1.079l17.108-.273 2.152-15c1.184-8.25 2.935-20.125 3.892-26.388l1.739-11.389 1.859 2.389c1.022 1.313 9.11 13.188 17.974 26.388 8.863 13.2 16.869 24.794 17.791 25.764l1.676 1.763 15.807-10.69c8.695-5.88 16.028-11.261 16.295-11.959.53-1.38-5.743-9.917-21.585-29.378l-10.175-12.5 3.287-2.441c1.809-1.342 7.129-6.292 11.824-11 5.981-5.996 9.664-10.728 12.301-15.802 4.299-8.272 6.627-17.84 6.631-27.257.003-7.653-2.124-17.425-5.035-23.131-2.977-5.836-9.626-12.682-14.893-15.334-9.145-4.605-19.988-5.54-34.271-2.957m360.317 1.997c-6.828.745-12.755 1.707-13.172 2.139s-2.132 8.211-3.812 17.286c-1.681 9.075-5.71 30.225-8.955 47-11.548 59.709-14.589 76.558-14.618 81l-.029 4.5 8 .314c4.4.173 12.366-.213 17.701-.856l9.701-1.171 1.028-5.144c.565-2.828 3.054-17.293 5.53-32.143 5.183-31.078 8.324-48.446 15.463-85.492 2.808-14.57 4.888-27.058 4.623-27.75-.592-1.542-4.994-1.477-21.46.317m185.97 27.923c2.506.857 6.178 2.895 8.16 4.529 5.057 4.168 7.83 10.463 8.455 19.193 1.111 15.518-5.54 32.994-17.451 45.86-7.693 8.309-16.05 14.479-26.197 19.342-4.065 1.948-7.507 3.427-7.648 3.286-.25-.25 11.063-68.543 14.263-86.094l1.62-8.886 7.121.607c3.916.333 9.171 1.307 11.677 2.163m-275.521.593c7.058 1.305 12.028 3.715 15.601 7.567 4.846 5.224 6.226 9.191 6.207 17.842-.013 6.016-.657 9.812-2.599 15.306-1.42 4.018-4.502 10.537-6.848 14.486-5.919 9.963-20.441 24.71-30.319 30.789-4.368 2.688-8.033 4.782-8.144 4.653-.244-.283 14.503-88.707 15.091-90.484.508-1.537 3.337-1.578 11.011-.159m-257.952 5.034c2.62.66 5.286 2.164 6.443 3.635 2.638 3.353 2.564 10.006-.175 15.833-4.196 8.926-16.128 19.519-29.681 26.347l-4.329 2.182.694-5.555c.382-3.056 2.33-13.771 4.33-23.811l3.635-18.256 3.5-.618c5.793-1.024 10.866-.944 15.583.243m-166.701 42.471.118 12.096-9.707 1.614c-5.338.888-9.886 1.434-10.106 1.215-.364-.364 10.411-32.228 15.991-47.289l2.322-6.268.632 13.268c.347 7.297.685 18.711.75 25.364"/></svg>