<svg xmlns="http://www.w3.org/2000/svg" viewBox="0 0 2048 2048"><path fill-rule="evenodd" d="m559 208.943-14.5.57-13.838 5.338c-37.946 14.635-103.457 41.922-146.636 61.076-6.311 2.8-11.795 4.974-12.186 4.832-.656-.239 23.2-13.12 56.142-30.315 26.144-13.647 50.649-26.716 63.362-33.794l12.843-7.15-19.241-.272-19.241-.272-10.102 5.686c-34.147 19.22-119.472 72.334-136.986 85.271-6.373 4.709-36.934 19.34-115.117 55.116a8633 8633 0 0 0-39.5 18.234c-11.825 5.498-31.4 14.381-43.5 19.739-12.1 5.357-23.668 10.548-25.708 11.534l-3.707 1.794-.293 17.836c-.16 9.81-.063 17.836.217 17.835.279 0 6.579-3.18 14-7.066 14.805-7.752 79.629-39.927 106.43-52.824 9.316-4.484 17.337-8.019 17.825-7.856.487.162-6.01 4.545-14.439 9.74-19.481 12.006-43.987 28.273-73.825 49.004a118163 118163 0 0 1-37.25 25.873L90 468.417v11.292c0 6.21.338 11.28.75 11.266s3.45-2.304 6.75-5.088c7.733-6.525 45.385-37.143 52.109-42.374l17.525-13.625c31.692-24.634 77.626-57.189 98.106-69.531 12.764-7.692 47.926-22.333 76.76-31.96 19.077-6.37 69.645-22.099 97.5-30.328 37.391-11.045 95.968-29.123 149.5-46.137 15.675-4.982 40.425-12.589 55-16.904a27339 27339 0 0 0 54-16.065c15.125-4.521 28.519-8.44 29.765-8.711 6.289-1.364.781-1.73-22.609-1.503l-51.656.5-26 .251-35 11.342c-115.956 37.576-142.477 46.244-164.825 53.87-13.653 4.66-25.004 8.292-25.224 8.072s3.976-2.263 9.324-4.54c36.653-15.602 48.256-20.529 68.225-28.969 27.179-11.487 40.24-16.969 71-29.8 22.073-9.208 27.442-11.738 23.95-11.288-.797.102-7.975.443-15.95.756m285.473.006-15.026.551-24.8 19.341c-13.639 10.637-24.949 19.187-25.133 19s4.012-4.882 9.326-10.433c5.313-5.55 13.421-14.213 18.018-19.25l8.358-9.158-12.858.037-12.858.037-14 16.134c-7.7 8.873-22.063 24.944-31.918 35.713-9.854 10.768-26.717 29.479-37.473 41.579-21.835 24.564-61.848 64.986-96.609 97.596-57.387 53.836-88.015 82.063-105.395 97.129-16.669 14.452-77.217 64.87-92.2 76.775-3.115 2.475-16.405 13.274-29.534 23.998-26.615 21.739-34.679 28.286-47.424 38.502-11.269 9.033-32.829 27.181-60.446 50.879-19.673 16.881-66.921 60.535-66.247 61.208.145.146 16.91-8.079 37.255-18.277 40.389-20.245 60.879-31.594 98.991-54.826 54.127-32.995 69.03-41.709 100.5-58.76 27.181-14.728 59.969-31.36 107-54.278a22412 22412 0 0 0 87-42.673C675.029 501.98 735.431 473 736.487 473c.391 0 44.799-21.277 71.63-34.32 32.315-15.709 61.173-27.787 100.383-42.012 9.9-3.591 18.833-6.852 19.851-7.245l1.851-.715-1.743 3.371c-4.178 8.08-21.491 32.871-34.863 49.921-32.609 41.58-39.974 51.418-53.472 71.421-7.764 11.506-13.936 21.1-13.716 21.32s4.155-1.934 8.746-4.787c13.515-8.4 41.242-23.159 56.846-30.259 38.992-17.742 85.61-33.236 120.5-40.05 7.15-1.396 16.375-3.037 20.5-3.647 9.096-1.344 31-2.541 31-1.695 0 .335-1.402 2.991-3.116 5.903-3.521 5.983-12.859 18.582-19.858 26.794-6.411 7.523-11.026 14.043-11.026 15.579 0 1.43-.919 1.67 34-8.873 11.825-3.57 32.3-9.507 45.5-13.194 13.2-3.686 34.991-9.806 48.424-13.6 13.433-3.793 24.583-6.738 24.777-6.544.402.401-15.555 21.525-29.184 38.632a27622 27622 0 0 0-27.012 34c-9.818 12.375-21.93 27.45-26.915 33.5-24.27 29.457-55.432 63.177-101.654 110-15.202 15.4-36.557 37.45-47.454 49-24.265 25.717-52.782 57.533-52.141 58.174.486.487 1.718-.01 39.659-16.002 12.375-5.215 25.2-10.601 28.5-11.969s14.325-6.168 24.5-10.669c32.584-14.415 90.328-37.883 118.331-48.092 11.776-4.294 30.695-12.249 30.232-12.712-1.457-1.457-55.457 12.733-95.693 25.147-21.4 6.602-68.644 22.257-79.863 26.464-.82.307 1.296-2.568 4.703-6.391s10.83-12.606 16.493-19.519 13.666-16.588 17.783-21.5c9.188-10.961 39.753-45.848 48.843-55.749 3.669-3.996 17.021-18.712 29.671-32.701s32-35.122 43-46.962c19.588-21.085 48.066-53.049 60.661-68.089 3.486-4.163 9.54-11.363 13.452-16 12.441-14.744 28.609-36.356 27.48-36.732-1.952-.651-30.818 7.724-58.508 16.975-30.484 10.184-77.125 27.097-104.052 37.731-9.881 3.903-18.308 7.096-18.725 7.096s2.827-4.764 7.211-10.586c9.102-12.091 16.542-26.071 15.545-29.212-.355-1.119-2.09-2.555-3.855-3.191s-8.384-1.409-14.709-1.718c-28.006-1.37-76.152 6.272-114.383 18.157-18.882 5.869-30.037 9.716-41.893 14.447-4.277 1.707-8.031 3.103-8.343 3.103s1.205-2.138 3.372-4.75c6.941-8.37 31.93-42.766 37.33-51.382 5.946-9.487 10.242-19.294 11.849-27.049 1.217-5.869 1.871-17.34 1.037-18.179-.595-.6-6.955 1.211-37.969 10.813-50.14 15.525-64.842 20.278-89 28.775-52.842 18.588-100.427 37.967-131.849 53.696-29.338 14.686-45.854 21.971-125.651 55.418-28.273 11.85-87.012 37.003-98.826 42.318-4.305 1.936-8.026 3.322-8.269 3.078s7.844-8.497 17.974-18.341c10.129-9.843 36.064-36.122 57.634-58.397 21.569-22.275 44.677-45.829 51.352-52.342s28.335-26.296 48.135-43.963c19.8-17.666 40.74-36.413 46.533-41.658 40.957-37.085 51.466-46.389 59.067-52.291 8.609-6.685 43.671-32.72 55.9-41.508 5.601-4.025 50.84-37.823 72.695-54.31 3.957-2.985 7.219-5.766 7.25-6.178s-.733-.661-1.695-.551-8.512.447-16.777.75m924.324.138c.387.324 9.928 6.683 21.203 14.132 22.579 14.918 39.483 26.505 45.25 31.016 2.063 1.613 3.75 2.701 3.75 2.417 0-.976-22.164-30.005-29.607-38.778l-7.452-8.783-16.923-.296c-9.308-.162-16.607-.031-16.221.292m68.203.478c0 .311 6.448 8.523 14.329 18.25 19.293 23.812 27.556 34.895 40.483 54.298 19.359 29.058 38.956 63.033 61.075 105.887l11.613 22.5.261-40.352.262-40.352-4.08-9.549c-6.427-15.043-20.975-43.614-28.894-56.747-6.898-11.437-28.083-42.791-34.292-50.75l-2.925-3.75h-28.916c-15.904 0-28.916.254-28.916.565m109.403 20.685c5.646 11.688 12.028 25.431 14.181 30.541l3.916 9.291.269-23.721.268-23.722-2.606-6.819-2.606-6.82h-23.688zm-1223.914 7.378c-3.844 2.545-8.509 6.033-10.368 7.75-9.062 8.374-21.606 27.243-25.559 38.446l-1.483 4.204 1.89-1.011c2.238-1.198 21.196-21.702 29.743-32.169 5.779-7.078 12.733-17.239 13.927-20.351.316-.823.185-1.497-.293-1.497-.477 0-4.013 2.082-7.857 4.628M777.5 250c-.995 1.1-2.26 2-2.81 2s-.185-.9.81-2 2.26-2 2.81-2 .185.9-.81 2m785.511 39.75-3.021 2.75 1.373 4.5c.754 2.475 2.14 11.925 3.078 21 4.239 40.986 10.819 79.053 18.495 107 5.68 20.68 15.143 48.066 21.336 61.751 2.925 6.462 8.313 17.037 11.974 23.499l6.657 11.75h-5.9c-7.922 0-27.533 2.609-38.003 5.056-29.007 6.779-57.4 20.256-78.5 37.262-4.4 3.546-12.386 10.974-17.746 16.506l-9.745 10.059-14.755-4.857c-28.045-9.233-57.692-15.397-89.254-18.558-9.239-.925-30.431-1.89-48.157-2.192-31.967-.545-62.744.462-99.843 3.268-39.941 3.022-77.18 8.034-81.702 10.997-1.688 1.105-2.298 2.454-2.298 5.079 0 3.053.984 4.597 6.75 10.589 12.388 12.875 33.803 28.997 58.33 43.914 15.01 9.13 39.946 21.66 54.947 27.612 18.858 7.482 47.4 15.707 63.473 18.291 13.825 2.223 33.213 3.935 44.793 3.954 14.424.024 36.463-2.313 51.207-5.431 6.05-1.28 11.098-2.241 11.218-2.136s-.683 3.092-1.785 6.639c-1.101 3.546-2.885 12.298-3.963 19.448-2.207 14.635-2.564 34.191-.899 49.289.588 5.341 2.613 17.721 4.5 27.511 2.593 13.461 3.429 20.429 3.429 28.584 0 5.93-.24 11.023-.534 11.316-.76.761-27.368-9.503-34.766-13.411-3.592-1.897-9.986-6.9-15.2-11.893-4.95-4.739-9.983-9.13-11.184-9.757-5.307-2.768-9.814-.362-14.311 7.638-1.305 2.322-2.853 4.215-3.439 4.205-.586-.011-4.777-.675-9.312-1.477-9.541-1.688-12.731-.972-14.371 3.227-.666 1.705-.844 6.039-.464 11.286l.618 8.519-6.769 1.259c-3.722.693-7.893 2.079-9.268 3.079s-3.163 2.987-3.973 4.414c-1.234 2.174-1.272 3.347-.234 7.226.681 2.546 2.836 7.128 4.79 10.182l3.552 5.553-2.445 2.625c-1.345 1.444-2.951 3.608-3.568 4.809-1.73 3.369-1.335 7.775.959 10.692 1.944 2.471 13.978 8.871 21.919 11.656 3.013 1.057 3.987 2.287 7 8.843 4.601 10.013 13.084 22.865 21.339 32.33l6.658 7.634-4.661.994c-2.567.547-5.628.626-6.813.176s-6.173-1.633-11.088-2.628c-6.878-1.393-13.654-1.812-29.435-1.822-12.021-.007-23.809.522-28.5 1.279-19.732 3.186-41.702 9.738-54.938 16.386-9.935 4.991-21.822 12.337-29.874 18.463-3.404 2.589-9.626 8.023-13.827 12.076l-7.639 7.368-6.861-4.97c-15.024-10.881-36.997-23.204-57.283-32.124-21.504-9.455-54.059-18.874-72.74-21.046-7.565-.88-11.946-.895-17.316-.062-3.953.613-8.88 1.978-10.949 3.034-2.07 1.056-5.125 3.471-6.79 5.368-2.281 2.598-4.337 3.729-8.332 4.586-5.925 1.271-11.194 4.165-13.452 7.388-2.06 2.941-1.884 8.929.348 11.81 1.016 1.312 2.119 4.114 2.452 6.228s1.793 5.4 3.245 7.304 5.636 5.939 9.298 8.969c7.557 6.252 15.435 11.611 39.596 26.932 20.721 13.141 34.811 23.49 57.29 42.081 9.475 7.836 20.735 16.917 25.021 20.18 9.12 6.942 22.015 15.476 26.153 17.308 2.076.919 3.246 2.436 4.113 5.334 2.592 8.664 9.924 23.578 17.229 35.049 9.362 14.699 16.168 23.315 27.535 34.854 21.436 21.762 43.579 33.939 69.305 38.111 5.179.84 14.446 1.529 20.594 1.531 11.402.004 24.568-1.334 29.651-3.012l2.828-.935 8.672 6.591c4.769 3.625 8.832 6.738 9.029 6.917s-10.828 5.771-24.5 12.426c-29.071 14.151-46.402 23.401-49.877 26.622-1.749 1.621-2.481 3.353-2.481 5.87 0 2.791.897 4.543 4.115 8.034 2.264 2.456 9.694 9.041 16.511 14.634 6.818 5.593 12.233 10.332 12.034 10.53-.424.424-26.644-1.608-66.66-5.166-33.351-2.965-91.799-6.989-124.5-8.57-12.65-.612-26.327-.803-30.394-.426-5.869.545-7.881 1.173-9.75 3.042-1.387 1.387-2.356 3.544-2.356 5.245 0 4.277 2.892 11.963 11.788 31.328 15.446 33.623 18.2 39.804 22.075 49.545 7.697 19.347 14.092 38.304 18.664 55.322 2.555 9.512 4.92 18.018 5.253 18.901q.61 1.609-2.999-1.128c-8.332-6.318-30.319-21.191-44.375-30.018-49.126-30.853-108.259-61.127-152.406-78.027-20.371-7.798-35.261-12.847-59.5-20.177-42.229-12.77-83.441-23.643-90.541-23.887-5.523-.191-9.391 2.084-11.67 6.863l-1.632 3.422 1.685 15.779c4.572 42.832 6.668 76.114 6.641 105.443-.017 18.155-1.327 54.941-2.576 72.36l-.648 9.025-9.746-10.025c-5.361-5.513-11.194-11.599-12.963-13.524-2.355-2.562-3.082-2.964-2.713-1.5.542 2.153 8.914 25.363 16.337 45.29 2.518 6.76 4.314 12.556 3.99 12.879s-2.743-.78-5.376-2.453-14.463-8.42-26.288-14.994-25.775-14.543-31-17.71c-18.04-10.933-36.182-23.903-57.944-41.427-42.508-34.23-70.737-56.873-85.441-68.536-25.512-20.236-42.337-35.148-64.855-57.484l-21.74-21.565 9.301-15.5c5.115-8.525 13.185-21.447 17.933-28.714 17.204-26.337 42.19-58.938 66.129-86.286 14.369-16.415 41.62-43.989 59.173-59.874 14.336-12.975 20.279-17.944 47.944-40.088 45.121-36.117 43.579-34.796 88.216-75.538 27.013-24.656 31.304-28.5 31.817-28.5.222 0 .195.562-.061 1.25s-3.137 15.875-6.403 33.75c-9.08 49.704-10.519 55.921-31.952 138.055-8.188 31.378-12.117 48.504-12.117 52.815 0 2.601.389 3.13 2.304 3.13 1.267 0 37.83-17.753 81.25-39.45 102.584-51.263 138.683-70.079 166.446-86.754 12.38-7.437 26-16.545 26-17.388 0-.24-5.288 2.338-11.75 5.729-37.365 19.606-92.382 46.582-109.25 53.566-19.872 8.228-51.159 19.987-74.442 27.977-7.118 2.443-21.81 8.014-32.648 12.381-10.838 4.366-20.028 7.939-20.421 7.939s-.453-1.912-.131-4.25c10.673-77.588 12.963-90.33 31.128-173.25 3.495-15.95 6.87-31.925 7.501-35.5s1.397-7.625 1.703-9c.472-2.12-.337-1.647-5.317 3.105-15.37 14.667-51.154 43.852-81.373 66.367-10.175 7.58-43.025 30.068-73 49.971-52.322 34.742-64.317 42.995-97.5 67.082-8.25 5.988-24.675 17.84-36.5 26.337s-27.185 19.654-34.134 24.794c-6.949 5.139-12.863 9.344-13.144 9.344-.575 0-.711.608 6.723-30.195 6.473-26.823 18.94-72.511 35.351-129.555 6.528-22.688 11.447-41.25 10.933-41.25-.515 0-9.102 2.674-19.083 5.942s-38.621 12.453-63.646 20.413c-25.025 7.959-64.175 20.544-87 27.968-37.863 12.314-76.556 24.591-97.755 31.016l-8.255 2.502-14.245-6.306A6024 6024 0 0 0 197 1061.652c-5.775-2.518-10.275-4.596-10-4.619 2.47-.202 54.1-13.704 63-16.474 17.012-5.297 35-11.857 35-12.764 0-.437-1.72-.795-3.822-.795-4.241 0-28.787-4.016-39.678-6.492-15.387-3.498-29.289-8.964-36.206-14.235-4.493-3.424-12.478-13.421-23.784-29.773l-9.679-14 9.335-1.185c25.066-3.183 41.834-6.142 41.834-7.381 0-1.41-20.535-6.978-44.334-12.021C158.074 937.55 121.854 930 121.514 930c-.16 0-4.03-5.287-8.6-11.75-6.881-9.732-12.466-17.29-21.414-28.98-.673-.879-.972 8.709-.914 29.302.092 32.574.054 32.323 4.914 32.45 1.1.029 8.675 1.279 16.833 2.778l14.832 2.726 11.828 18.487c6.506 10.168 14.096 21.268 16.868 24.666 2.772 3.399 7.78 8.04 11.128 10.314 6.269 4.257 19.467 10.712 26.516 12.969 2.197.704 4.37 1.623 4.829 2.042 1.282 1.174-54.243 2.354-77.834 1.654-11.55-.343-23.138-.917-25.75-1.276l-4.75-.654v3.636c0 2 .189 3.636.419 3.636.231 0 5.968 1.094 12.75 2.432 16.015 3.158 39.277 6.551 45.461 6.631l4.87.062-10 4.846c-13.053 6.326-18.467 9.736-16.5 10.392 15.818 5.274 86.089 32.639 94.12 36.652 5.648 2.823 31.992 29.427 58.941 59.523 11.308 12.629 20.942 23.597 21.408 24.372.72 1.199-1.292 1.319-13.391.802l-14.237-.609 1.329 1.62c.732.891 6.696 6.51 13.254 12.487 12.232 11.147 19.531 16.059 39.576 26.637l11.5 6.068 10.1 11.792c19.036 22.227 31.623 35.822 55.747 60.21 51.374 51.937 84.772 81.613 144.153 128.09 6.6 5.165 15.6 12.366 20 16s14.525 12.007 22.5 18.604c21.854 18.078 41.509 33.324 55.727 43.224 16.048 11.174 37.445 23.988 61.273 36.694 19.686 10.497 41.379 22.897 54.5 31.153 28.25 17.774 35.768 22.383 36.049 22.103.174-.174.616-43.735.982-96.801l.666-96.484-2.102-34c-2.337-37.817-3.037-45.654-4.019-45.047-.903.558-.599 246.446.315 254.047l.721 6-4.467-12.5c-2.456-6.875-6.134-17.19-8.172-22.923l-3.706-10.423 2.609-18.577c1.435-10.217 3.157-24.427 3.827-31.577.738-7.873 1.225-30.354 1.236-57 .019-46.345-.537-55.58-5.796-96.323l-2.236-17.323 3.185.597c8.546 1.604 47.813 12.649 71.879 20.219 29.342 9.23 58.076 19.693 80.029 29.143 35.694 15.364 96.714 46.86 135 69.681 20.923 12.472 61.033 37.529 86.617 54.11 9.472 6.139 21.775 12.837 22.411 12.202.178-.179-2.497-3.274-5.945-6.878l-6.269-6.553-8.543-25.938c-9.245-28.067-18.835-55.634-26.244-75.437-5.002-13.37-25.81-65.839-27.761-70a949 949 0 0 0-1.528-3.25c-.196-.412 3.402-.75 7.995-.75h8.35l3.861 10.75c9.911 27.591 23.772 64.307 34.26 90.75 6.327 15.95 13.743 35.3 16.481 43 9.376 26.371 22.772 66.652 22.043 66.283-9.028-4.577-29.65-14.057-57.228-26.308-18.975-8.43-42.6-18.997-52.5-23.484-28.389-12.866-53.021-23.781-61.865-27.413-4.474-1.837-15.335-6.374-24.135-10.082-21.246-8.951-62.229-24.947-87-33.956-20.427-7.429-56.528-19.54-58.246-19.54-.56 0-.776 3.202-.523 7.75.384 6.905 9.477 113.158 12.431 145.25.632 6.875 1.56 12.95 2.061 13.5.549.603.68-3.761.33-11-2.133-44.109-2.875-56.201-5.091-83-2.375-28.714-4.828-54.173-6.096-63.25q-.592-4.249.531-4.25c2.227 0 47.464 17.123 86.633 32.793 48.956 19.584 79.378 32.553 146.47 62.437 64.916 28.916 106.556 46.77 109.076 46.77.626 0 .923-.563.661-1.25-.263-.687-2.373-7.55-4.69-15.25-5.558-18.468-21.973-67.374-26.852-80-2.125-5.5-13.366-33.625-24.978-62.5s-21.421-53.775-21.795-55.334l-.681-2.834 12.379.61c6.809.336 25.655 1.272 41.88 2.08 54.385 2.71 133.277 5.334 163.25 5.43 10.744.035 14.75-.274 14.75-1.139 0-.653-13.725-14.842-30.5-31.532s-30.5-30.561-30.5-30.825c0-.594 8.554-6.006 16.224-10.265l5.723-3.178-.63 3.151-.63 3.151 2.406-.682c10.705-3.032 10.477-1.153-.61 5.021-4.685 2.608-8.397 5.083-8.25 5.5s9.303 10.114 20.348 21.551c19.178 19.86 40.028 42.319 50.533 54.432l4.888 5.637-52.251.507c-59.515.578-150.453 4.088-152.242 5.876-.578.578 6.107 21.758 20.467 64.843 17.47 52.419 21.418 62.896 54.456 144.5 6.903 17.05 12.555 31.684 12.559 32.52.007 1.158-10.767-2.082-45.241-13.603-24.888-8.317-48.175-16.129-51.75-17.36-16.072-5.531-43.388-16.15-73.663-28.636-50.002-20.622-85.053-34.65-103.837-41.559-9.35-3.44-25.775-8.812-36.5-11.939l-19.5-5.685-.307 41.631c-.168 22.897.188 52.656.793 66.131.604 13.475 2.404 40.925 3.999 61 5.473 68.89 6.166 79.556 6.851 105.5.676 25.647-.019 73.016-1.087 74.085-1.407 1.406-40.481-12.85-71.996-26.268-25.311-10.777-65.257-30.862-90.253-45.379-27.411-15.921-50.577-30.695-97-61.865-51.716-34.723-101.61-67.846-113.111-75.092-9.614-6.057-16.729-10.005-14.889-8.262 1.905 1.805 64.618 46.32 79.5 56.43 5.225 3.55 14.45 10.048 20.5 14.439 19.813 14.381 52.014 36.613 76.5 52.815 20.814 13.772 31.917 20.782 48 30.303 33.052 19.567 61.103 33.323 99.5 48.791 21.754 8.764 55.762 20.527 63.574 21.99l3.574.67 1.265-12.329c.697-6.78 1.513-26.07 1.815-42.866.683-38.027-.471-60.569-7.702-150.462-1.637-20.35-3.699-49.825-4.582-65.5-1.517-26.937-3.355-81.056-2.78-81.881.398-.572 25.847 7.5 42.336 13.428 20.551 7.388 38.953 14.871 83.274 33.864 21.325 9.139 47.875 20.261 59 24.715 23.658 9.472 57.932 21.617 81.537 28.892 9.179 2.829 20.739 6.439 25.689 8.023 18.371 5.877 39.817 11.975 40.326 11.466.674-.673-3.977-16.255-8.508-28.507-1.932-5.225-10.48-26.981-18.995-48.347-15.791-39.623-28.426-73.792-44.431-120.153-4.937-14.3-10.724-31.017-12.86-37.15l-3.884-11.149 14.176-.582c7.797-.321 41.851-1.055 75.676-1.633 63.784-1.089 114.666-2.662 116.169-3.59 1.324-.819-4.048-8.031-18.546-24.896-8.018-9.328-15.933-17.517-40.037-41.425-9.663-9.584-17.46-17.507-17.327-17.606.132-.098 4.179-2.486 8.991-5.306l8.75-5.127v4.239l5.605-.658c3.083-.363 6.458-1.116 7.5-1.673 2.382-1.275 2.513.183.318 3.533l-1.577 2.406 6.228.705 6.228.704-2.988 1.604c-4.841 2.599-8.314 5.769-8.314 7.591 0 .934 7.088 8.514 15.75 16.845s30.048 29.326 47.524 46.657l31.773 31.511-35.773.669c-38.605.721-67.886 2.081-94.774 4.4-31.584 2.725-62.872 6.486-70.565 8.483-1.961.509-4.579 2.005-5.819 3.324l-2.254 2.399 1.142 4.363c2.006 7.665 9.554 28.775 17.471 48.862 16.544 41.977 22.739 58.564 29.92 80.107 7.852 23.558 15.594 48.988 21.277 69.893 5.694 20.942 16.328 61.886 16.328 62.867 0 .508-9.112-3.353-20.25-8.58-25.92-12.164-63.346-28.295-95.75-41.27-14.025-5.615-39.225-15.849-56-22.741-37.039-15.217-63.541-24.656-98.802-35.188-28.827-8.61-38.038-11.072-52.763-14.101-7.538-1.551-9.904-1.711-11.412-.769-4.062 2.537-4.214 4.478-1.543 19.782 8.438 48.346 11.308 66.782 14.487 93.054 2.939 24.283 6.581 67.523 9.01 106.946 1.295 21.026 4.023 81.482 4.023 89.158V1838h34.874l-.414-3.25c-.227-1.787-.885-11.575-1.461-21.75-2.175-38.432-5.493-76.054-9.568-108.5-1.978-15.746-11.411-72.193-15.876-95a6622 6622 0 0 0-7.994-39.962c-2.458-12.08-4.378-22.035-4.265-22.124.661-.522 40.146 13.668 66.204 23.792 43.083 16.737 108.152 43.007 147 59.346l64 26.92c31.712 13.341 43.274 17.592 49.5 18.2l5.5.538 2.5-2.692c2.176-2.343 2.474-3.504 2.298-8.961-.262-8.138-3.416-26.536-8.411-49.057-5.46-24.616-8.976-38.45-15.902-62.553-11.37-39.568-24.099-75.316-40.14-112.73-17.811-41.542-20.974-49.519-19.896-50.185 2.059-1.273 62.248-6.288 96.551-8.045 12.1-.62 41.741-1.675 65.869-2.345l43.869-1.217 1.881-2.323c1.034-1.278 1.881-3.786 1.881-5.573 0-1.855-1.128-4.919-2.628-7.139-5.335-7.898-20.452-24.47-41.872-45.903-12.1-12.107-28.673-28.031-36.829-35.385-12.142-10.95-14.588-13.601-13.5-14.632.731-.693 9.858-5.999 20.282-11.791l18.952-10.531 6.548 6.35c13.35 12.949 27.575 23.043 42.227 29.966 18.114 8.558 32.983 12.321 52.32 13.24 19.768.94 40.152-2.175 60.5-9.246 10.394-3.612 26.064-10.974 34.259-16.095 8.443-5.276 20.466-15.303 28.271-23.578 9.996-10.599 18.048-21.797 24.534-34.116 3.31-6.289 6.771-11.222 10.083-14.372 6.733-6.406 21.15-23.835 28.184-34.072 3.127-4.552 9.432-14.677 14.011-22.5 17.433-29.788 29.158-54.151 37.422-77.759 3.805-10.868 8.775-29.497 11.23-42.096l1.098-5.629 3.704-.599c4.757-.769 16.332-6.335 25.51-12.267 8.208-5.305 20.199-16.561 28.793-27.03 8.976-10.933 23.865-33.645 30.074-45.875 5.91-11.639 9.964-22.955 11.909-33.241.721-3.809.991-11.072.69-18.5-.393-9.663-1.051-13.86-3.136-20.003-3.717-10.954-10.042-23.367-15.874-31.154-2.74-3.659-7.772-9.384-11.183-12.723l-6.201-6.07 1.451-8.139c.933-5.238 1.476-15.45 1.523-28.64.062-17.34-.274-22.308-2.181-32.231-7.802-40.603-27.203-89.965-47.776-121.553-4.216-6.475-5.395-9.147-5.395-12.232 0-5.604-4.593-38.774-7.002-50.563-3.845-18.818-10.922-41.448-18.271-58.421-9.792-22.618-20.097-41.742-36.53-67.791-15.689-24.87-34.454-48.841-55.468-70.86-18.292-19.166-30.329-30.247-49.729-45.779-23.443-18.769-31.583-24.57-34.475-24.57-1.371 0-3.853 1.238-5.514 2.75m306.049 7.333c1.404 1.879 6.125 8.367 10.492 14.417 19.473 26.98 48.845 66.436 49.195 66.087.478-.479-7.611-19.354-12.42-28.979-2.521-5.046-7.867-13.206-11.986-18.297-7.51-9.281-31.752-33.39-35.697-35.501l-2.136-1.144zm31.124 115.186c12.566 27.1 22.418 51.469 30.009 74.231 7.223 21.656 18.323 63.657 23.786 90 3.942 19.004 8.985 48.41 9.138 53.277.103 3.286.23 3.077 1.078-1.777.541-3.091.755-17.108.489-32l-.472-26.5-4.48-15c-7.732-25.892-23.347-74.239-30.175-93.426-3.606-10.134-6.557-18.751-6.557-19.15 0-.951 21.298 20.883 32.613 33.435l8.887 9.858.285-10.695.284-10.695-7.186-8.464c-3.952-4.656-14.43-15.623-23.284-24.371-15.195-15.014-27.596-25.765-37.877-32.839l-4.528-3.116zm-245.33-13.16c4.045 1.024 11.47 3.816 16.5 6.203 9.778 4.64 11.341 6.134 21.12 20.188 14.532 20.885 34.193 57.877 43.317 81.5 11.158 28.89 18.921 67.805 22.739 114 .887 10.725 1.872 21.075 2.19 23l.578 3.5 2.301-7c1.265-3.85 2.323-7.788 2.351-8.75.027-.962.388-1.732.8-1.709.938.051 7.928 11.234 13.154 21.044 5.789 10.865 14.295 30.832 18.496 43.415 4.689 14.045 11.13 40.247 12.905 52.5.757 5.225 1.259 9.651 1.116 9.837-.144.185-2.546-1.47-5.339-3.678-2.793-2.207-7.666-5.006-10.83-6.219-7.138-2.737-19.161-3.605-27.508-1.987-10.29 1.995-18.261 6.541-27.244 15.536-4.4 4.406-9.494 10.56-11.321 13.676-7.66 13.07-10.838 29.706-8.221 43.043 3.268 16.657 13.476 31.716 27.868 41.115l5.325 3.477-14.663 7.274c-21.777 10.802-41.322 23.997-59.813 40.379-7.184 6.365-25.933 26.622-25.261 27.294.721.721 12.954-7.231 25.086-16.307 20.558-15.38 28.57-20.909 42-28.985 7.15-4.299 18.762-10.593 25.803-13.986l12.804-6.17 6.696 6.601 6.697 6.6-2.177 1.522c-3.64 2.545-6.323 6.638-6.316 9.636.007 3.312 2.425 7.321 6.212 10.3 4.507 3.545 13.485 7.156 19.278 7.754 3.44.355 5.503.186 5.503-.45 0-1.101-8.287-7.623-14.066-11.07-1.961-1.17-4.395-3.044-5.408-4.164-1.492-1.648-1.637-2.489-.761-4.411.595-1.306 3.422-3.891 6.283-5.745l5.202-3.371-6.514-6c-6.479-5.97-11.736-12.683-11.736-14.988 0-.722 4.231-2.137 10.5-3.513 5.775-1.267 10.5-2.487 10.5-2.711s-1.749-4.093-3.886-8.598c-3.466-7.306-6.729-17.41-5.892-18.246.172-.172 5.03.318 10.795 1.089 5.766.772 12.901 1.417 15.855 1.434 4.59.027 5.197-.18 4.166-1.423-.664-.8-3.192-2.617-5.617-4.039-2.426-1.421-5.045-3.813-5.822-5.315-1.456-2.815-3.901-14.222-3.199-14.924.217-.218 3.569 1.203 7.447 3.156 8.049 4.053 18.13 13.016 25.393 22.577 2.716 3.575 6.899 10.55 9.295 15.5 5.688 11.751 7.938 22.752 7.151 34.965-.32 4.969-1.538 12.41-2.705 16.535-4.275 15.101-14.348 33.1-30.504 54.502-16.741 22.178-33.891 37.98-48.977 45.128-6.674 3.162-19.217 6.986-20.081 6.123-.224-.225 2.844-2.623 6.819-5.33 11.712-7.979 27.762-21.641 27.762-23.631 0-1.86-2.521-.437-8.804 4.967-7.89 6.785-19.868 15.273-29.81 21.122-5.923 3.484-8.435 4.334-14.999 5.07-4.337.486-7.99.78-8.117.652-.128-.127 3.922-2.881 8.999-6.119 8.724-5.564 20.63-14.114 28.981-20.811 3.6-2.887 4.707-4.673 2.896-4.673-.469 0-5.532 3.404-11.25 7.565-10.918 7.944-35.197 23.435-36.73 23.435-.493 0-2.089.938-3.547 2.085s-4.331 2.564-6.385 3.15l-3.734 1.065 7.5 1.279c4.125.703 8.794 1.423 10.374 1.6 2.41.269 3.186 1.116 4.799 5.238 1.059 2.704 2.604 8.104 3.433 12 1.902 8.929 4.365 30.344 4.323 37.583-.019 3.322-.959 7.876-2.373 11.5-1.365 3.499-2.55 5.375-2.843 4.5-.276-.825-1.02-7.575-1.652-15-1.085-12.733-3.802-28.873-6.272-37.25-1.365-4.631-3.308-5.042-2.363-.5 3.915 18.828 7.866 48.75 6.436 48.75-.4 0-.993-.836-1.317-1.858s-2.551-3.847-4.948-6.279c-3.832-3.886-4.569-5.387-6.086-12.392-.95-4.384-1.956-8.984-2.236-10.221-.279-1.237-1.131-2.25-1.892-2.25s-1.383.113-1.383.25c0 .138.667 3.401 1.483 7.25.815 3.85 1.49 7.618 1.5 8.372.014 1.117-.267 1.137-1.507.108-.838-.696-1.718-1.072-1.954-.835-.236.236-.001 9.638.523 20.892.524 11.255.687 25.863.361 32.463-.506 10.258-.947 12.617-3.041 16.25-1.347 2.338-2.543 4.249-2.657 4.248s-.211-9.563-.215-21.25c-.007-21.542-1.067-33.281-4.584-50.748-2.553-12.678-7.042-27.267-8.074-26.235-.457.457.715 7.45 2.603 15.54 5.596 23.977 6.982 36.856 6.933 64.444l-.043 24.249-4.829 7.003c-2.655 3.852-4.936 6.89-5.068 6.751s.219-6.303.781-13.698c.715-9.407.693-18.729-.074-31.032-.604-9.673-1.805-21.397-2.67-26.055-2.211-11.897-5.523-23.967-6.578-23.967-.489 0-.888.563-.885 1.25s1.097 6.425 2.432 12.75 2.907 15.87 3.495 21.211c1.332 12.105 1.36 44.19.049 56.631l-.984 9.342-4.641 5.432c-2.552 2.988-4.746 5.309-4.874 5.158s.372-3.649 1.113-7.774c2.012-11.216 2.811-32.249 1.594-42.019-1.382-11.106-4.105-22.981-5.269-22.981-.506 0-.92 4.902-.92 10.894 0 13.951-1.479 28.999-4.071 41.417-2.5 11.977-8.758 30.407-13.597 40.041-12.87 25.624-34.625 48.287-60.832 63.369-13.499 7.769-30.175 13.898-46 16.908-5.995 1.14-13.841 1.699-23.5 1.674-10.768-.028-16.945-.567-24-2.093-17.683-3.826-32.993-10.489-50-21.764-10.762-7.134-25.28-19.617-32.079-27.582-11.458-13.423-18.275-24.623-23.653-38.864-1.35-3.575-3.741-11.391-5.314-17.369s-3.083-11.094-3.358-11.368c-.869-.87-2.033 5.04-2.065 10.484-.019 3.119-.476 5.248-1.127 5.25-.604.002-8.929-3.767-18.5-8.374s-18.417-8.687-19.654-9.067c-1.355-.416-2.25-.268-2.25.372 0 .585 9.41 5.772 20.912 11.528l20.912 10.465.663 3.289c.364 1.81.884 4.077 1.155 5.04.292 1.037-.044 1.738-.825 1.721-.724-.016-11.652-5.408-24.285-11.982-12.727-6.624-23.349-11.572-23.823-11.098s.626 1.755 2.468 2.873c5.716 3.471 27.864 15.662 38.573 21.233 5.638 2.932 10.253 5.82 10.256 6.417s.652 2.323 1.441 3.836l1.434 2.75-1.69-.045c-2.4-.063-18.155-7.594-44.213-21.134-25.572-13.287-31.694-16.089-32.457-14.855-.295.478 6.329 4.569 14.721 9.09a4374 4374 0 0 1 27.258 14.82c11.998 6.599 35.838 18.124 37.491 18.124.481 0 2.437 2.942 4.346 6.537l3.472 6.537-2.155-.622c-3.393-.98-27.094-12.775-38.688-19.255-18.904-10.565-39.313-24.583-49.254-33.83-5.242-4.877-11.035-9.746-12.872-10.82l-3.34-1.953 3.75 4.383c2.063 2.411 3.75 4.772 3.75 5.248 0 1.423-6.715-.144-20.895-4.878-23.344-7.792-40.187-17.576-55.253-32.098-13.573-13.082-23.318-26.741-30.225-42.363l-2.482-5.614 2.649-3.722c1.632-2.294 2.805-3.21 3.057-2.386 1.168 3.82 5.807 12.589 10.33 19.524 12.852 19.706 39.66 40.982 65.561 52.033 6.467 2.759 14.908 5.993 18.758 7.188s14.061 4.404 22.692 7.132 16.167 4.959 16.75 4.959 1.058-.39 1.058-.866c0-1.084-10.358-4.805-28.5-10.239-7.7-2.307-15.35-4.759-17-5.449a9742 9742 0 0 0-9.5-3.967c-21.293-8.885-37.92-19.716-52.388-34.126-10.097-10.057-17.343-19.759-22.144-29.649-1.815-3.738-3.748-7.338-4.296-8-.681-.823-.242-3.417 1.39-8.204 1.313-3.85 2.393-7.9 2.401-9 .011-1.516-1.154-.68-4.811 3.452l-4.827 5.452-9.412-7.014c-13.756-10.251-36.868-26.978-48.913-35.4-5.775-4.037-16.35-11.433-23.5-16.433-14.301-10.002-36.707-24.557-37.804-24.557-2.591 0 1.31 3.223 15.554 12.848 33.433 22.594 47.971 32.826 73.384 51.652a3534 3534 0 0 0 20.355 14.966l8.206 5.966-2.847 2.285c-1.567 1.257-3.386 2.083-4.043 1.837s-6.732-4.684-13.5-9.859c-27.277-20.86-54.757-40.436-95.859-68.287-3.785-2.565-4.946-2.929-4.946-1.55 0 .473 2.588 2.566 5.75 4.652 24.019 15.844 105.137 75.797 105.218 77.765.043 1.053-5.033 2.914-6.458 2.367-.63-.242-8.315-5.947-17.078-12.678-22.971-17.647-59.607-43.528-84.432-59.647-22.025-14.301-38.858-24.317-40.869-24.317-2.746 0-.481 1.996 8.569 7.548 17.329 10.632 43.449 27.768 59.3 38.902 35.507 24.943 70.526 51.561 67.808 51.54-4.651-.035-23.088-12.276-44.005-29.216-24.725-20.025-47.278-35.88-80.803-56.806-9.075-5.664-19.65-12.458-23.5-15.097-7.319-5.018-12.989-9.742-12.365-10.302.201-.181 11.165 4.594 24.365 10.61 31.708 14.453 32.97 14.951 34.367 13.554.623-.623 1.127-1.606 1.12-2.183-.007-.578-3.495-3.257-7.75-5.955A3617 3617 0 0 1 1038 974.16c-17.061-10.95-24.01-14.952-24.522-14.124-.525.849 1.629 2.406 14.366 10.386 2.39 1.497 4.143 2.924 3.897 3.17s-6.476-2.841-13.844-6.862c-7.368-4.02-15.984-8.562-19.147-10.093s-5.75-3.146-5.75-3.589c0-1.084 4.598-2.79 9.5-3.527 3.325-.5 7.028.507 21.933 5.962 9.863 3.61 22.122 8.353 27.241 10.54s9.537 3.977 9.817 3.977.509-.635.509-1.41c0-2.123-11.583-9.018-29.745-17.707-8.94-4.277-16.255-8.239-16.255-8.804 0-1.859 5.947-4.149 12.278-4.729 8.175-.749 26.081 2.366 43.986 7.652 15.656 4.622 37.964 13.085 48.836 18.525 16.107 8.06 35.383 19.531 55.65 33.118 11.688 7.835 21.25 14.028 21.25 13.761 0-1.124-4.42-9.161-6.736-12.248l-2.507-3.343 4.872-5.002c11.631-11.942 28.277-23.651 43.871-30.857 10.642-4.919 30.429-11.276 44-14.137 9.399-1.981 13.912-2.319 31-2.319 22.208 0 26.195.596 51.316 7.669 7.875 2.217 14.597 3.751 14.94 3.408s-1.492-2.771-4.078-5.396l-4.701-4.773 9.761-1.804c11.858-2.19 30.926-8.413 40.62-13.256 3.928-1.962 14.567-7.54 23.642-12.396 9.075-4.855 20.436-10.44 25.247-12.412 13.077-5.359 31.436-10.339 44.36-12.033 16.844-2.208 37.011-1.762 49.076 1.086 1.994.471 2.524.349 1.816-.415-1.766-1.906-13.978-6.014-23.124-7.78-11.293-2.181-32.551-2.18-44.875.002-4.95.877-9.225 1.596-9.5 1.599s-.358-3.96-.184-8.806c.399-11.122-1.612-20.136-6.848-30.693-2.182-4.4-6.785-11.297-10.229-15.326-6.577-7.695-14.714-13.729-23.328-17.299l-5.139-2.13-.638-7.549c-.351-4.153-1.998-16.316-3.661-27.031-4.312-27.795-5.236-41.359-4-58.757.975-13.722 3.48-30.453 6.575-43.908 1.339-5.819 6.561-23.95 8.065-28 .409-1.1-1.249.111-3.685 2.692l-4.428 4.692-14.646 1.058c-18.399 1.329-36.366 1.34-54.354.032-18.849-1.369-33.158-3.37-53.757-7.515-21.997-4.427-39.632-9.301-57.07-15.774l-13.827-5.132-2.062-4.527c-4.139-9.082-5.912-15.711-6.488-24.249-.461-6.825-.225-9.675 1.085-13.104l1.673-4.382 27.723-1.142c45.768-1.886 48.831-1.93 72.723-1.059 33.246 1.213 60.368 4.534 82 10.043 9.983 2.542 34.735 10.213 39.754 12.321l3.753 1.576-4.141 8.235c-4.881 9.705-9.301 21.063-8.008 20.577.5-.188 4.569-5.067 9.042-10.842 17.126-22.114 29.636-34.635 48.1-48.14 9.819-7.182 18.002-12.059 28.196-16.806 18.745-8.728 41.46-15.136 61.886-17.457 7.38-.839 17.632-1.604 22.783-1.701l9.365-.176 2.578 3.39c8.972 11.795 31.46 34.322 41.429 41.5 4.313 3.105 8.051 5.435 8.308 5.178s-2.13-3.576-5.303-7.377c-18.712-22.414-33.902-42.555-43.972-58.304-8.501-13.296-20.319-36.237-26.644-51.721-7.262-17.779-11.626-31.278-11.626-35.962 0-2.41.985-7.383 2.189-11.05 1.639-4.994 3.503-8.087 7.421-12.319 5.969-6.448 13.361-10.862 20.191-12.058 6.259-1.096 18.006-.179 27.053 2.112m-381.611 228.12c.205.616 2.822 1.958 5.815 2.983 9.437 3.231 33.174 8.913 34.733 8.315.823-.316 1.259-.811.969-1.1s-5.641-1.829-11.893-3.423a2080 2080 0 0 1-20.682-5.396c-5.671-1.521-9.169-2.061-8.942-1.379m-4.795 10.473c24.65 8.393 54.302 15.06 83.792 18.842 15.108 1.937 57.23 2.92 72.76 1.698 6.325-.498 11.673-.77 11.885-.605s-.32 1.378-1.182 2.694c-1.915 2.922-5.426 3.484-29.203 4.677-16.976.851-39.844.048-58.5-2.054-25.684-2.894-54.689-9.085-77.76-16.599l-14.259-4.643-3.491-4.858c-1.919-2.672-3.49-5.131-3.49-5.463 0-.333.787-.27 1.75.138s8.927 3.187 17.698 6.173m144.228-.923c-10.354.208-13.717.585-13.401 1.5.31.893 3.872 1.158 13.259.986 7.06-.129 13.285-.684 13.834-1.233s.804-1.119.565-1.265c-.238-.147-6.654-.142-14.257.012M1331 640.893c0 .491.692 1.158 1.537 1.483 2.693 1.033 28.482 4.509 42.463 5.723 8.191.711 22.544.964 36.5.644 12.65-.29 23.787-.849 24.75-1.242s1.75-1.088 1.75-1.545-10.463-.567-23.25-.246c-25.261.633-47.444-.58-69.23-3.785-7.161-1.054-13.358-1.918-13.77-1.92s-.75.397-.75.888m-53 11.587c15.548 4.487 31.424 7.963 50 10.948 25.05 4.024 38.884 5.064 67.397 5.068 23.494.004 26.214.159 21.5 1.228-2.968.674-10.572 1.967-16.897 2.875-13.665 1.96-40.709 2.178-56 .451-34.26-3.871-68.607-13.733-78.5-22.54-2.208-1.966-2.472-2.496-1-2.01 1.1.363 7.175 2.154 13.5 3.98m407.191 20.261c-2.92 1.95-9.84 8.543-15.377 14.652s-18.448 19.574-28.69 29.922l-18.624 18.814 3.569-.642 3.568-.642 1.17 3.905c1.682 5.614 8.155 15.196 13.281 19.658 2.427 2.112 7.337 5.247 10.912 6.966l6.5 3.126 11-.005 11-.005 6.738-3.177c7.525-3.548 16.195-11.179 20.656-18.181 1.623-2.548 3.93-7.557 5.128-11.132 1.803-5.383 2.114-8.218 1.81-16.5l-.368-10-3.593-7.5c-1.977-4.125-5.431-9.565-7.676-12.089s-6.628-6.343-9.739-8.486l-5.656-3.895.505-3.765c.277-2.071.21-3.946-.15-4.167s-3.044 1.193-5.964 3.143m-19.28 38.575c1.149 2.373 2.089 5.763 2.089 7.532 0 7.257-5.441 14.152-11.167 14.152-3.829 0-8.861-2.194-11.296-4.926l-1.963-2.202 9.463-9.249c5.205-5.087 9.76-9.333 10.124-9.436.363-.103 1.601 1.755 2.75 4.129m-208.302 26.865c-1.547 5.359-2.826 13.682-3.277 21.319-.682 11.566 1.337 21.383 6.583 32 2.173 4.4 5.854 9.915 8.18 12.255s6.742 5.49 9.816 6.999c4.355 2.138 6.957 2.728 11.784 2.673 5.045-.058 7.084-.621 10.985-3.032 3.599-2.226 5.521-4.391 7.732-8.715 2.502-4.893 2.943-6.908 2.949-13.467.005-6.689-1.613-15.613-3.893-21.463-.563-1.443-.123-1.75 2.508-1.75 2.081 0 3.048-.428 2.78-1.231-.225-.676-6.9-4.166-14.833-7.754s-19.373-9.049-25.423-12.136c-13.107-6.688-15.37-7.5-15.891-5.698m34.626 23.124 5.736 2.195.014 3.027c.021 4.259-2.503 7.473-5.867 7.473-4.676 0-9.118-6.418-9.118-13.172 0-2.483.322-2.92 1.75-2.38.963.364 4.331 1.649 7.485 2.857m-118.023 48.099c4.242 3.8 7.478 7.289 7.191 7.753-.286.463-1.447.843-2.58.843-1.132 0-3.762 1.704-5.845 3.786-4.425 4.425-6.464 10.655-5.585 17.065.33 2.405 1.839 6.684 3.353 9.51l2.754 5.139-4.25 4.079c-3.77 3.617-4.245 4.578-4.205 8.5.025 2.431.625 5.771 1.334 7.421l1.288 3 .531-4.639c.292-2.552 1.38-6.371 2.417-8.487 1.905-3.888 7.891-8.798 9.508-7.798.482.298.877.345.877.104s-1.226-3.08-2.725-6.309c-2.048-4.41-2.714-7.371-2.68-11.901.035-4.654.804-7.676 3.373-13.25 1.83-3.971 3.607-7.22 3.948-7.22s2.358 1.181 4.483 2.625c4.664 3.169 16.37 8.615 30.681 14.273l10.58 4.182 1.779 5.644c2.649 8.403 7.858 19.352 12.34 25.938 4.827 7.093 12.672 15.176 18.862 19.435l4.591 3.159-17.866 9.196c-9.826 5.058-19.561 10.224-21.632 11.48l-3.766 2.284-5.481-4.138c-3.015-2.276-6.158-4.398-6.984-4.715-3.089-1.186-1.336 1.659 3.576 5.801l5.079 4.282-3.028 1.435-3.029 1.434-3.8-2.842c-2.091-1.563-7.253-5.924-11.471-9.692-4.219-3.767-7.923-6.44-8.232-5.94-.541.876 10.99 12.762 16.652 17.165 1.513 1.177 2.75 2.463 2.75 2.86s-1.463 1.162-3.25 1.701l-3.25.982-6-4.95c-3.3-2.722-11.287-10.151-17.75-16.508-6.916-6.804-11.75-10.881-11.75-9.91 0 1.999 16.022 19.214 24.921 26.778l6.423 5.458-3.265 1.332-3.264 1.332-6.473-5.683c-6.825-5.991-17.657-17.818-28.105-30.685-5.603-6.901-8.282-9.172-8.214-6.963.038 1.226 11.152 15.735 18.816 24.565 3.92 4.515 9.841 10.599 13.159 13.519 3.317 2.921 5.773 5.727 5.458 6.238-.316.51-1.612.928-2.881.928-3.469 0-22.745-20.394-30.767-32.551-3.61-5.472-6.992-11.299-7.515-12.949s-1.815-3.461-2.872-4.024-6.979-3.637-13.161-6.83l-11.239-5.806 4.491-5.514c2.47-3.032 4.336-5.808 4.147-6.169s-2.725-4.643-5.635-9.516c-4.093-6.855-4.987-9.046-3.95-9.687.737-.455 5.297-1.628 10.133-2.605l8.793-1.778.103-3.035c.057-1.67.017-6.567-.09-10.882l-.193-7.846 1.84.543c1.988.587 16.914 3.649 17.785 3.649.292 0 2.134-3.186 4.095-7.079 4.089-8.12 2.544-8.381 14.672 2.483m179.162-6.263c-2.269.51-4.903 1.786-5.853 2.836l-1.727 1.908 2.558 2.558c3.561 3.561 8.408 3.461 11.961-.248 2.998-3.129 3.513-6.664 1.105-7.588-1.889-.725-2.672-.673-8.044.534m78.57 10.417c-1.88 1.94-5.9 4.746-8.932 6.235l-5.512 2.707H1593c-21.753 0-24.892.204-28 1.822-1.925 1.001-7.437 5.939-12.25 10.972s-8.75 9.316-8.75 9.518c0 .203 1.983.215 4.407.028l4.408-.34 7.465 10.532c4.105 5.792 10.954 13.79 15.218 17.773 5.847 5.46 10.305 8.509 18.122 12.395l10.368 5.154 7.756.05c6.177.041 8.737-.427 12.572-2.298 3.047-1.485 5.802-3.838 7.5-6.404 2.212-3.342 2.746-5.428 3.039-11.858.407-8.957-1.328-17.917-6.371-32.892l-3.372-10.012 4.315-4.315c2.374-2.373 4.868-5.99 5.544-8.037s1.04-3.91.81-4.14-1.956 1.169-3.837 3.11m-12.538 20.12c.877 2.573 1.594 5.048 1.594 5.5s-1.241.822-2.758.822c-3.581 0-20.315 5.678-22.182 7.527-1.942 1.922-.862 2.763 2.061 1.605 3.958-1.569 18.177-5.947 21.391-6.587l3.012-.599 2.249 8.277c4.948 18.205 4.808 22.934-.838 28.334l-3.077 2.943-7.377-.06c-6.564-.054-8.289-.514-15.678-4.176-8.996-4.459-16.594-9.555-17.408-11.676-.645-1.683 8.074-16.526 13.939-23.725 2.445-3.001 6.039-6.673 7.987-8.159 2.106-1.606 5.697-3.059 8.86-3.585 2.925-.487 5.614-.938 5.975-1.002s1.373 1.988 2.25 4.561m286.27 55.072c-1.138 45.545-6.347 119.327-11.242 159.25-3.912 31.894-4.755 37.083-18.044 111-7.726 42.979-9.45 53.273-8.997 53.726.26.261 7.759-5.984 16.663-13.876 8.904-7.893 21.084-18.534 27.067-23.647l10.877-9.298-.002 18.298c-.005 32.032-2.984 59.575-9.606 88.791-1.931 8.522-6.441 25.847-10.021 38.5-11.886 42.011-25.925 81.387-39.343 110.354-7.436 16.052-18.585 36.206-26.083 47.152-6.352 9.272-16.016 21.188-24.608 30.343-3.016 3.214-5.262 6.065-4.992 6.335.271.271 5.584-2.53 11.807-6.224 22.318-13.248 40.872-26.518 59.753-42.735 13.974-12.003 43.423-39.138 67.845-62.516l18.25-17.469v-25.902l-3.75 3.04c-27.666 22.428-55.812 44.842-56.046 44.633-.163-.145 2.419-11.006 5.738-24.135 8.985-35.538 12.894-58.154 25.113-145.318 5.505-39.269 7.261-60.164 6.627-78.887-.285-8.434-.738-15.554-1.006-15.822-.809-.809-20.071 13.408-35.037 25.86-7.736 6.437-14.196 11.573-14.355 11.415s.378-7.001 1.194-15.204c1.51-15.19 6.903-78.983 7.982-94.414l2.52-36c2.183-31.182 3.642-58.706 4.595-86.728.718-21.103-.394-76.272-1.538-76.272-.394 0-1.007 11.587-1.361 25.75m-76.055 19c-1.873 3.712-6.665 11.7-10.649 17.75-7.423 11.271-15.687 21.728-26.722 33.813-3.437 3.765-6.25 7.233-6.25 7.707s.406 1.113.902 1.42c.996.615 12.448-11.282 20.638-21.44 7.79-9.661 17.959-25.043 22.333-33.782 4.617-9.224 5.648-12.218 4.207-12.218-.58 0-2.587 3.038-4.459 6.75m-17.216 8c-8.056 12.294-19.932 26.612-34.858 42.028-7.604 7.852-13.564 14.538-13.244 14.858 1.685 1.685 24.608-21.829 39.696-40.72 7.72-9.666 15.001-20.731 15.001-22.797 0-2.511-1.773-.728-6.595 6.631m-51.603 22.298c-8.084 8.194-14.359 15.108-13.944 15.364 1.251.773 16.182-12.602 23.392-20.954 6.357-7.365 7.76-9.559 6-9.383-.412.041-7.364 6.779-15.448 14.973m21.98-4.322c-9.541 11.29-26.6 27.516-39.617 37.683-10.884 8.502-31.203 22.521-45.415 31.333-3.713 2.302-6.75 4.691-6.75 5.309 0 .617 3.487-.757 7.75-3.055 19.721-10.632 49.453-32.538 66.807-49.222 14.194-13.644 26.103-27.514 24.77-28.847-.632-.632-3.281 1.755-7.545 6.799M1041 968.2c0 1.37.435 1.694 10.732 7.989 6.245 3.819 8.268 4.544 8.268 2.966 0-.642-11.593-8.175-18.25-11.858-.412-.228-.75.178-.75.903m462 12.344c-10.444 1.9-24.094 5.98-33.196 9.923-10.064 4.359-23.226 12.359-32.151 19.54-9.369 7.539-21.644 20.427-29.389 30.858-7.217 9.721-16.044 26.458-19.706 37.368-2.614 7.787-3.305 13.196-1.61 12.6.521-.183 3.37-5.062 6.33-10.843 6.822-13.32 16.684-28.326 25.051-38.116 13.289-15.548 34.354-32.017 50.654-39.603 10.808-5.03 26.105-9.911 36.848-11.757 12.073-2.075 33.116-2.085 43.896-.021 10.033 1.921 20.999 5.433 29.445 9.431 9.199 4.354 26.179 15.682 34.849 23.25 8.905 7.772 20.699 21.996 28.049 33.828 4.556 7.335 10.627 19.383 14.802 29.377.662 1.584 1.379 2.703 1.595 2.488.767-.768-2.401-14.942-4.869-21.784-9.521-26.395-29.159-50.842-53.476-66.573-10.052-6.503-24.168-13.037-34.592-16.012-4.934-1.409-13.034-3.22-18-4.025-11.161-1.811-34.392-1.773-44.53.071m195.5 7.554c-7.974 5.254-11.001 7.902-9.034 7.902 2.562 0 20.693-11.933 19.953-13.132-.296-.477-.848-.83-1.228-.784s-4.741 2.753-9.691 6.014m-603.5 1.83c0 .51 7.088 5.845 15.75 11.854 20.325 14.102 20.96 14.496 21.629 13.413.311-.503-2.91-3.409-7.157-6.458-9.547-6.854-28.91-19.737-29.665-19.737-.306 0-.557.417-.557.928m634.803 31.822c.615 2.063 1.854 8.022 2.753 13.244s2.078 10.322 2.62 11.335.794 2.034.56 2.269c-.235.234-2.568-2.794-5.185-6.73-2.822-4.244-5.503-9.843-6.589-13.762-1.008-3.633-2.134-7.394-2.504-8.356-.57-1.485-.073-1.75 3.277-1.75h3.948zm12.049 2.5c-.944 7.228-4.019 19.917-4.669 19.267-.242-.243-1.237-4.621-2.209-9.729-.972-5.109-2.095-10.75-2.496-12.538l-.728-3.25h10.919zm-600.622-3.059c.646 1.938 7.695 7.219 8.515 6.38.415-.424-1.007-2.301-3.162-4.171-4.009-3.48-6.058-4.326-5.353-2.209m-656.458 11.059c-.243.688-1.713 6.275-3.267 12.417l-2.825 11.168-8.09 3.75c-13.908 6.447-54.624 26.877-68.663 34.453-16.651 8.985-35.6 20.075-60.927 35.657-10.725 6.599-20.412 12.479-21.527 13.067-1.812.956-3.187-.258-13-11.474-6.035-6.899-11.8-13.614-12.812-14.923l-1.838-2.379 10.838-5.087a1102 1102 0 0 1 21.839-9.9c6.05-2.647 17.525-7.821 25.5-11.499 22.293-10.281 59.156-26.322 83.502-36.336 36.993-15.216 48.939-19.979 50.355-20.073.746-.05 1.158.472.915 1.159m669.464 0c.401 1.244 24.83 20.165 29.945 23.194 1.475.873 2.934 1.179 3.243.679s-5.397-5.368-12.681-10.818c-20.014-14.974-21.413-15.865-20.507-13.055m508.302 2.689c-.81 1.31 5.339 20.061 6.578 20.061.486 0 .884-.676.884-1.502 0-1.501-5.654-18.486-6.403-19.235-.218-.218-.695.086-1.059.676m-1193.25 53.311c-1.904 6.188-6.322 20.025-9.818 30.75s-7.455 23.1-8.8 27.5-6.942 21.95-12.437 39c-10.123 31.406-13.406 42.535-17.484 59.274l-2.26 9.274-19.494-11.82c-30.705-18.617-41.995-25.963-62.745-40.822-4.189-3-6.706-5.401-5.961-5.687.709-.272 5.546-1.075 10.75-1.785s9.599-1.386 9.768-1.503c.439-.304-5.645-9.681-13.278-20.466l-6.552-9.256 11.762-8.716c17.098-12.672 47.55-32.943 63.722-42.42 7.721-4.524 19.214-10.973 25.539-14.33 13.919-7.388 39.259-20.147 40.126-20.203.344-.022-.933 5.023-2.838 11.21M90 1083.963v4.964l9.75 7.361c5.362 4.049 18.75 13.902 29.75 21.895 62.89 45.701 121.196 91.082 203 158 20.608 16.858 46.059 37.29 61.99 49.767 16.33 12.788 56.174 42.071 69.337 50.958 15.767 10.645 2.894-.951-29.327-26.417l-24.5-19.36c-16.198-12.796-45.682-36.911-64.333-52.615-9.807-8.259-21.108-17.716-25.112-21.016s-17.805-14.797-30.668-25.55c-59.53-49.762-123.543-99.263-191.647-148.2-3.635-2.612-6.977-4.75-7.425-4.75s-.815 2.234-.815 4.963m1105.643 24.638c7.803 11.63 23.147 27.55 34.028 35.304 4.856 3.461 13.779 8.716 19.829 11.679 11.457 5.61 34.684 13.704 42.555 14.829 3.917.56 5.063 1.31 8.182 5.354 1.995 2.586 3.545 4.767 3.445 4.846-.466.366-17.029-2.841-24.182-4.684-24.408-6.286-43.849-15.599-61.076-29.256-15.87-12.582-31.854-33.759-40.874-54.157l-2.396-5.417 3.119-1.975 3.119-1.975 4.197 8.361c2.308 4.599 6.832 12.29 10.054 17.091m-8.28 8.091c10.536 15.704 24.904 30.012 40.637 40.468 9.908 6.584 27.323 15.055 38.5 18.726 11.307 3.714 30.966 8.114 36.255 8.114 3.206 0 4.354.517 5.695 2.564l1.68 2.564-12.315-.62c-16.189-.816-31.429-3.111-41.315-6.222-10.733-3.377-24.294-10.227-33.82-17.082-11.131-8.009-27.822-25.66-36.281-38.368-3.904-5.865-9.911-16.357-13.35-23.316s-6.093-12.734-5.9-12.835 1.251-.685 2.351-1.297l2-1.112 5.539 10.643c3.047 5.853 7.693 13.851 10.324 17.773m37.238-14.29c.581 1.514 7.792 7.848 15.734 13.819 2.722 2.047 5.418 3.432 5.991 3.077.594-.367-.421-1.751-2.362-3.221-1.872-1.417-6.884-5.389-11.139-8.827s-7.967-6.25-8.249-6.25-.271.631.025 1.402m155.874 14.848c-2.045 8.797-3.132 24.226-1.766 25.07.583.36 1.662-5.08 2.699-13.61.95-7.815 1.971-15.223 2.268-16.46s.078-2.25-.487-2.25c-.566 0-1.787 3.263-2.714 7.25m100.004-1.497c-5.011 1.781-9.959 4.768-14.246 8.601-1.476 1.32-3.977 2.129-7.166 2.319-8.092.482-15.173 3.773-22.435 10.427-4.908 4.497-7.535 7.949-10.283 13.508-3.855 7.8-5.179 15.154-3.929 21.816.766 4.086 4.603 9.019 8.635 11.105 1.55.801 7.684 2.138 13.631 2.972 6.888.965 12.629 2.405 15.814 3.967 5.995 2.94 16.065 11.171 35.321 28.869 7.876 7.24 17.662 15.244 21.746 17.786 9.51 5.922 20.009 9.405 27.999 9.289 4.696-.067 7.278-.745 11.428-3 3.558-1.933 6.342-4.425 8.279-7.412l2.919-4.5-.554-11.5c-.516-10.716-2.637-21.264-4.712-23.433-1.844-1.929-1.988.455-.515 8.57 1.349 7.439 2.052 16.595 1.601 20.863-.087.825-1.23-2.405-2.541-7.178-4.561-16.617-11.321-29.5-20.484-39.041-5.91-6.154-8.987-8.191-8.987-5.948 0 .458 1.795 2.275 3.988 4.037 7.427 5.968 16.65 21.89 21.394 36.932 1.44 4.566 2.618 9.03 2.618 9.921s.698 2.391 1.552 3.335l1.552 1.715-2.689 2.115-2.69 2.116-2.439-7.252c-2.843-8.452-10.804-24.713-15.429-31.517-1.771-2.604-5.551-7.435-8.4-10.735-7.811-9.049-9.611-13.269-4.892-11.475 6.054 2.301 5.929.438-.236-3.525-2.567-1.65-9.616-5.719-15.665-9.042-6.05-3.323-11.46-6.772-12.022-7.664-2.598-4.119 7.643-17.146 16.858-21.443 6.097-2.843 13.408-3.03 19.006-.487 7.708 3.502 19.021 17.174 26.405 31.913 5.213 10.404 8.901 22.979 10.63 36.242.895 6.865 1.839 13.559 2.098 14.876 1.277 6.488 5.328-7.107 5.332-17.895.008-20.771-11.598-48.321-26.971-64.022-5.134-5.243-9.522-8.657-13.91-10.819-5.231-2.578-7.622-3.159-13.006-3.159-3.629 0-8.009.405-9.734.9-2.552.731-4.136.405-8.489-1.75-4.201-2.081-7.071-2.707-13.356-2.916-5.705-.19-9.448.247-13.026 1.519M90.041 1127.691l.041 4.809 6.243 4.611c5.016 3.705 89.064 63.19 124.175 87.885 30.103 21.173 72.767 52.472 146.353 107.367 36.682 27.365 55.41 40.749 51.647 36.91-4.78-4.877-65.768-53.548-103.092-82.273-52.662-40.529-105.531-79.487-173.908-128.149-18.982-13.509-47.888-33.76-50.25-35.205-.935-.571-1.24.45-1.209 4.045m1411.718-2.265c.268.268-1.314 2.533-3.515 5.034-3.933 4.468-8.097 12.025-9.995 18.14-.715 2.306-.584 3.843.513 6 .812 1.595 2.631 4.137 4.044 5.65s2.081 2.75 1.487 2.75c-.595 0-5.569-1.8-11.052-4-5.484-2.2-10.706-4-11.606-4-2.872 0-1.757 1.734 2.115 3.288 10.737 4.311 18.773 8.947 28.309 16.334 5.808 4.499 12.973 10.812 15.922 14.029 6.086 6.637 14.221 18.751 19.036 28.345 3.004 5.985 6.983 16.285 6.983 18.074 0 .416-1.237.429-2.75.027-2.193-.582-3.839-2.74-8.133-10.663-8.617-15.903-17.958-29.342-26.072-37.508-8.048-8.099-22.026-17.806-37.834-26.273-8.68-4.648-9.673-5.463-9.357-7.671.589-4.107 3.772-9.411 9.232-15.386 8.393-9.183 18.33-13.958 27.3-13.116 2.687.252 5.105.677 5.373.946m-241.244 2.599c1.223 1.978 15.197 8.339 37.485 17.062 13.885 5.435 22.857 8.45 23.433 7.876.514-.511.739-1.106.5-1.321-.238-.216-11.233-4.685-24.433-9.933s-26.6-10.704-29.779-12.125c-6.176-2.762-8.223-3.205-7.206-1.559m192.9 14.349c-3.531 6.317-3.747 12.96-.566 17.42l2.35 3.294-2.35-.536c-12.024-2.746-13.77-2.852-12.476-.758.82 1.328 12.283 4.394 15.065 4.03 1.379-.181 5.483 1.491 9.986 4.067 4.204 2.406 7.48 4.538 7.279 4.739s-3.606-.736-7.566-2.083c-6.92-2.354-19.079-4.547-25.209-4.547-3.443 0-3.932 1.753-.678 2.431 1.237.257 8.1 1.883 15.25 3.613 14.242 3.445 25.585 7.126 29.142 9.457 1.258.824 2.586 1.499 2.95 1.499s.446-2.25.182-5-.074-5 .422-5c1.793 0 7.398 3.386 11.933 7.208 5.988 5.046 17.396 19.226 23.235 28.881 5.391 8.912 11.095 20.785 10.346 21.534-.661.662-5.896-2.005-11.61-5.915-2.421-1.656-10.521-8.865-18-16.02-22.386-21.414-30.422-28.269-35.174-30.006-2.435-.889-9.376-2.085-15.426-2.657-6.05-.571-12.692-1.508-14.759-2.082-4.911-1.361-7.187-4.809-6.395-9.688.963-5.935 6.331-15.739 11.299-20.637 2.525-2.489 6.426-5.434 8.668-6.543 2.243-1.11 4.221-1.874 4.397-1.698.176.175-.857 2.424-2.295 4.997M1321 1138.891c0 .84 19.597 9.31 30.481 13.174 4.718 1.675 7.683 1.637 5.856-.076-1.01-.946-33.981-13.989-35.364-13.989-.535 0-.973.401-.973.891m208 7.779c0 .705 13.016 14.609 14.171 15.137.37.169.415-.676.1-1.878-.647-2.474-11.475-13.929-13.167-13.929-.607 0-1.104.301-1.104.67m120.2 2.79c-.618 1.358-.74 2.707-.269 2.997s1.151-.646 1.511-2.082.482-2.785.269-2.997c-.212-.213-.892.724-1.511 2.082m-1075.2.882c0 .188-10.913 10.482-24.25 22.875s-31.681 30.139-40.764 39.434c-16.639 17.028-40.601 44.731-55.874 64.599-4.545 5.912-8.568 10.744-8.938 10.737s-2.84-2.482-5.487-5.5c-3.216-3.667-4.284-5.487-3.221-5.487.875 0 17.666-15.862 37.314-35.25 39.759-39.234 54.139-52.767 74.72-70.321 7.7-6.567 16.475-14.056 19.5-16.641 4.887-4.176 7-5.518 7-4.446m944.25 3.878c-1.237.597-2.25 1.467-2.25 1.933 0 1.24 2.77 1.036 3.194-.236.429-1.286 10.855 6.294 15.752 11.453 1.896 1.996 3.785 3.63 4.198 3.63s.278-1.358-.3-3.018c-1.086-3.114-6.188-7.757-13.574-12.351-2.327-1.447-4.352-2.601-4.5-2.563-.149.037-1.283.556-2.52 1.152m122.389 14.03c-3.023 6.188-8.228 15.438-11.567 20.557-6.053 9.277-7.557 12.67-4.488 10.123 3.745-3.108 14.848-21.628 20.197-33.689 1.77-3.992 3.219-7.48 3.219-7.75s-.42-.491-.933-.491-3.406 5.063-6.428 11.25m-1119.628 6.5c-21.162 20.434-39.561 40.04-55.61 59.261-13.668 16.369-22.443 28.005-27.922 37.024l-3.741 6.158-2.226-2.347c-10.321-10.875-17.544-19.148-17.103-19.588.291-.291 1.616.184 2.946 1.055l2.418 1.584 5.863-5.294c3.225-2.912 12.883-11.326 21.461-18.699 8.579-7.372 20.954-18.145 27.5-23.939 10.507-9.299 23.078-19.85 53.403-44.823 4.675-3.85 8.918-7.032 9.429-7.071.51-.039-6.878 7.466-16.418 16.679m1026.025-14.719c-.053 2.237 6.967 13.085 8.039 12.423 1.086-.672-1.96-6.757-5.484-10.954-1.655-1.97-2.531-2.475-2.555-1.469M1395 1162.205c0 .882 1.703 5.81 3.784 10.95 5.325 13.154 15.033 29.351 16.636 27.756.325-.324-2.079-5.212-5.344-10.861-3.264-5.65-7.589-14.16-9.612-18.912-3.852-9.047-5.464-11.684-5.464-8.933m108.834 5.905c2.513 1.593 7.025 3.816 10.027 4.939 3.003 1.124 6.8 3.171 8.439 4.55 5.165 4.346 16.486 20.487 22.124 31.543 2.985 5.854 6.393 13.884 7.572 17.846s2 7.349 1.823 7.527-1.447.603-2.821.945l-2.498.623-2.365-6.291c-2.886-7.674-10.089-21.358-15.158-28.792-8.732-12.806-22.208-25.735-32.873-31.54-4.326-2.355-4.823-2.938-3.839-4.512 1.254-2.008 1.595-1.895 9.569 3.162m37.166-1.43c0 .607 2.684 5.007 10.87 17.82 1.948 3.05 2.642 3.578 2.921 2.222.583-2.829-10.215-20.648-12.541-20.696-.687-.014-1.25.28-1.25.654M90 1179.757v5.002l17.25 11.951c22.509 15.594 74.044 49.615 105.719 69.79 65.997 42.036 137.334 90.696 191.031 130.306 20.27 14.952 48.092 34.435 48.538 33.989.434-.434-1.526-2.113-18.538-15.88-17.807-14.411-72.272-55.721-97-73.571-19.601-14.149-58.403-40.982-72-49.79-5.825-3.773-171.05-113.95-173.097-115.426L90 1174.756zm1531.682.263c-5.927 10.552-26.37 33.469-37.009 41.488-3.643 2.746-6.634 5.33-6.648 5.742-.06 1.809 2.821.379 9.406-4.669 10.284-7.883 28.85-28.587 35.86-39.988 3.284-5.342 3.848-7.595 1.9-7.592-.38.001-1.959 2.259-3.509 5.019m-63.908-1.461c-.826.826 3.204 12.441 4.318 12.441 1.356 0 1.104-2.453-.742-7.23-1.865-4.824-2.718-6.068-3.576-5.211M1393 1184.857c0 3.578 8.248 18.685 15.365 28.143 7.356 9.775 19.798 22.004 30.635 30.11 8.954 6.698 23.024 14.821 32 18.475 12.998 5.291 34 9.334 34 6.544 0-.479-2.177-1.16-4.838-1.513-14.744-1.956-36.478-11.033-53.992-22.55-10.899-7.166-25.717-21.111-34.896-32.838-3.56-4.549-9.129-12.867-12.374-18.484-3.914-6.774-5.9-9.429-5.9-7.887m207.101 6.148c-3.519 4.392-8.829 10.285-11.799 13.094s-5.254 5.544-5.076 6.078c.479 1.438 9.082-6.469 17.438-16.027 6.593-7.541 8.737-11.167 6.586-11.141-.412.005-3.629 3.604-7.149 7.996m37.788.745c-2.885 4.813-7.746 12.125-10.802 16.25-8.257 11.146-24.068 27-33.906 34.001-11.025 7.845-30.064 17.239-41.681 20.565-8.549 2.447-27.659 5.336-35.75 5.403-2.122.017-3.75.526-3.75 1.171 0 .826 3.788.981 13.75.563 16.087-.675 27.745-3.314 42.14-9.538 29.877-12.918 54.118-35.3 72.126-66.595 2.741-4.764 4.984-9.091 4.984-9.616 0-2.699-2.391-.078-7.111 7.796M1490 1185.11c0 .61 2.323 3.648 5.162 6.75s6.759 7.778 8.713 10.39 4.147 4.75 4.874 4.75c1.05 0 1.081-.463.154-2.25-2.602-5.015-16.339-20.75-18.115-20.75-.434 0-.788.499-.788 1.11m-45 18.269c0 2.028 12.792 13.745 21.202 19.42 15.068 10.168 28.981 15.579 43.298 16.84 5.741.505 6.779.381 5.77-.691-.676-.719-6.076-2.293-12-3.498-11.973-2.436-24.261-7.63-35.08-14.827-3.68-2.448-10.186-7.639-14.46-11.537-4.273-3.897-7.985-7.086-8.25-7.086s-.48.62-.48 1.379m-28.386.436c-.276.448 2.546 4.385 6.272 8.75 7.105 8.321 16.193 16.69 24.614 22.668 6.717 4.767 23.331 14.767 24.535 14.767 2.606 0 .175-2.141-7.785-6.856-4.812-2.851-11.856-7.512-15.651-10.357-8.84-6.626-23.447-20.518-27.067-25.741-2.788-4.022-3.955-4.789-4.918-3.231m45.386 1.135c0 .562 2.484 2.97 5.519 5.353 5.091 3.995 13.768 8.83 22.087 12.306 2.982 1.246 3.394 1.236 3.394-.086 0-.895-3.743-3.381-9.25-6.143-5.088-2.552-11.05-5.865-13.25-7.362-5.891-4.009-8.5-5.257-8.5-4.068m141.793 13.586c-8.159 7.919-16.401 14.774-23.026 19.149-9.627 6.358-12.723 9.245-9.115 8.501 1.985-.409 13.74-7.593 18.848-11.518 5.187-3.986 23.115-21.382 25.608-24.848 1.061-1.474 1.583-2.891 1.16-3.149-.422-.258-6.486 5.082-13.475 11.865M1434 1208.281c0 .705 2.588 3.79 5.75 6.855 13.901 13.475 25.992 21.56 41.834 27.975 13.347 5.405 22.864 7.299 36.916 7.347 11.97.042 21.501-.964 21.499-2.269 0-.379-7.538-.709-16.75-.732-17.055-.045-23.384-.88-35.249-4.652-6.794-2.16-18.327-7.986-26-13.135-5.688-3.817-14.986-11.445-21.666-17.775-2.841-2.692-5.429-4.895-5.75-4.895s-.584.577-.584 1.281M90 1227.912v4.913l31.75 20.264A76534 76534 0 0 0 170 1283.86c36.584 23.298 83.643 54.908 135.5 91.015 42.944 29.902 58.979 40.832 116.5 79.417 30.621 20.541 56.292 37.43 75.5 49.673 15.615 9.954 14.945 9.565 14.096 8.19-1.475-2.386-32.26-24.753-92.596-67.276-16.775-11.822-44.45-31.344-61.5-43.381s-35.5-25.024-41-28.86c-11.277-7.864-20.082-14.056-49.5-34.807-29.6-20.88-61.732-42.772-83.13-56.638-29.776-19.295-92.207-58.193-93.4-58.193-.259 0-.47 2.211-.47 4.912m1461 24.159c-12.846 4.154-22.89 5.929-33.551 5.929-10.198 0-24.737-2.487-34.817-5.955-5.571-1.916-7.632-1.945-7.632-.108 0 1.334 10.798 4.973 21 7.077 12.628 2.605 27.236 2.587 40.168-.048 12.95-2.639 25.799-7.724 23.682-9.372-.192-.149-4.175.965-8.85 2.477m-214 .051c-3.772 1.501-12 6.965-12 7.969 0 .485 1.514 2.351 3.364 4.146s10.937 11.363 20.193 21.263c14.503 15.511 36.091 37.856 56.612 58.598 3.118 3.152 5.442 5.957 5.165 6.235s-8.004.548-17.17.602c-19.127.111-49.139 1.464-80.164 3.612-33.456 2.317-100.082 6.434-104.276 6.444l-3.775.009 1.532 2.963c1.975 3.819 9.201 24.317 27.136 76.975 13.735 40.325 22.9 68.677 37.841 117.062 5.837 18.904 18.702 57.056 21.048 62.424.646 1.476.51 1.775-.582 1.286-3.327-1.491-41.67-16.912-55.924-22.493-8.525-3.337-25.4-10.179-37.5-15.203-80.484-33.417-110.178-44.521-171.41-64.096-26.948-8.615-67.357-20.918-68.704-20.918-.234 0-.18 4.162.121 9.25.302 5.088 1.426 24.325 2.498 42.75s2.219 38 2.547 43.5c.66 11.044 3.355 42.673 6.39 75 5.033 53.586 7.443 103.182 6.914 142.251l-.356 26.25h2.6l2.601-.001.649-9.154c.987-13.907.777-63.233-.376-88.161-1.254-27.122-3.372-56.627-5.97-83.185-3.934-40.214-6.014-62.755-9.042-98-1.702-19.8-3.68-40.5-4.397-46s-1.195-10.13-1.062-10.288c.314-.377 76.31 24.914 96.997 32.279 22.906 8.156 71.333 26.8 97.54 37.553 39.941 16.389 66.863 26.928 95.96 37.565 15.675 5.73 32.016 11.763 36.314 13.405s8.181 2.986 8.63 2.986-1.554-7.537-4.452-16.75-8.051-25.975-11.45-37.25c-25.198-83.574-46.281-146.685-64.561-193.261-3.186-8.118-5.61-14.925-5.387-15.127s15.031-.893 32.906-1.536c33.119-1.192 57.037-2.577 106-6.139 15.125-1.1 35.686-2.281 45.692-2.624s18.777-.985 19.493-1.427c.972-.601.402-1.763-2.255-4.595-1.955-2.085-11.627-12.566-21.493-23.291-19.077-20.74-49.319-51.511-58.437-59.46l-5.5-4.796 2.182-1.449c6.312-4.191 11.693-8.287 10.815-8.232-.548.035-2.122.512-3.497 1.059m-10.675 41.441 21.175 20.592-27.5-.622c-15.125-.342-32.9-1.046-39.5-1.566-30.327-2.386-146.523-6.394-168.175-5.801l-12.174.334-2.215-4.5c-1.218-2.475-2.417-3.928-2.665-3.23-.248.699 6.757 20.499 15.567 44 27.721 73.948 49.686 135.039 48.852 135.874-.429.428-6.141-4.4-15.428-13.039-3.455-3.214-5.262-5.699-5.262-7.235 0-3.379-5.648-30.871-9.066-44.125-3.836-14.88-10.899-36.468-17.434-53.287-5.813-14.962-16.833-39.679-24.519-54.996-2.74-5.459-4.981-10.611-4.981-11.449 0-1.302 1.484-1.44 10.25-.947 14.943.839 73.495 5.187 93.25 6.925 54.282 4.776 85.814 7.016 113.632 8.073 18.834.715 23.963-.005 25.906-3.635 2.298-4.294-4.938-12.345-30.288-33.699-7.562-6.37-13.74-11.84-13.728-12.156s1.474-1.281 3.25-2.145l3.228-1.572 8.325 8.807c4.579 4.844 17.854 18.073 29.5 29.399M90 1279.51v4.562l15.75 10.269c8.662 5.648 23.4 15.107 32.75 21.02 45.262 28.626 104.537 68.134 174.314 116.187 76.015 52.349 90.929 62.254 128.186 85.137 19.05 11.7 36.077 21.58 36.457 21.155.168-.187-17.979-12.617-40.326-27.623-43.967-29.522-59.955-40.533-96.131-66.199-91.701-65.061-106.607-75.448-151.464-105.547-32.675-21.924-88.913-58.029-96.496-61.951l-3.04-1.571zm1065.68 43.169-7.82.408.688 3.206c.378 1.764 3.606 11.982 7.172 22.707 6.772 20.361 18.795 50.977 29.06 74 17.258 38.705 31.379 74.546 42.748 108.498 4.66 13.914 8.472 25.789 8.472 26.388 0 .614-2.508-.031-5.75-1.477-3.162-1.411-14.075-6.179-24.25-10.595-63.14-27.405-87.53-36.893-155-60.296-38.631-13.4-55.409-19.453-99-35.715-22.075-8.236-46.223-16.803-47.36-16.803-1.576 0-.249 31.031 3.829 89.5 4.732 67.863 5.031 74.923 4.991 118-.042 43.816-2.151 112.382-3.526 114.606-.567.918-3.755.141-12.597-3.072-17.459-6.345-30.289-11.964-54.837-24.016-23.786-11.677-39.126-19.955-69.544-37.523-27.945-16.14-87.47-52.344-108.456-65.963a4766 4766 0 0 0-20.288-13.085c-5.109-3.271-22.478-14.557-38.597-25.08-29.782-19.442-33.615-21.829-33.615-20.935 0 1.05 52.812 38.103 83 58.234 48.814 32.552 92.574 59.972 131 82.084 28.411 16.35 72.127 38.077 94.5 46.969 17.161 6.82 33.056 12.062 33.923 11.188.789-.795 2.54-30.876 3.669-63.033 1.45-41.29.677-116.919-1.49-145.874-1.989-26.568-9.408-111.497-10.068-115.25-.266-1.513-.037-2.75.509-2.75 1.024 0 19.413 7.006 66.957 25.511 27.787 10.815 50.949 19.24 92 33.467 46.51 16.118 64.729 22.835 94.68 34.906 19.142 7.715 26.318 10.694 62.716 26.036 9.292 3.917 17.008 7 17.145 6.851s-1.698-7.167-4.076-15.596c-10.711-37.954-24.339-74.273-46.903-124.997-15.754-35.412-26.489-61.644-32.61-79.678-2.613-7.7-5.096-14.857-5.518-15.905l-.767-1.905 34.417.602c32.007.56 42.944 1.15 97.916 5.284 11.275.847 33.048 1.809 48.385 2.137 23.69.507 27.815.386 27.419-.808-.355-1.073-3.874-1.578-14.885-2.136-13.269-.673-36.517-2.293-91.419-6.37-20.15-1.496-80.523-2.569-96.82-1.72M90.012 1328.25c.011 3.8.408 4.508 3.75 6.693 14.97 9.783 70.228 44.044 116.238 72.07 60.334 36.75 91.629 56.718 145 92.514 94.4 63.316 97 65.031 97 64.018 0-.537-20.49-15.824-44.5-33.2-34.478-24.952-70.195-49.855-99.5-69.378-38.175-25.431-49.658-32.827-90-57.969a15163 15163 0 0 1-41.5-26.017C128.999 1347.097 91.484 1324 90.448 1324c-.246 0-.442 1.912-.436 4.25m724.675 22c-.655 17.066.352 105.865 2.409 212.508.671 34.793.948 63.532.614 63.865-.924.924-11.634-5.215-53.71-30.79-26.55-16.137-64.028-39.324-80.5-49.804-7.15-4.549-15.925-10.127-19.5-12.396s-22.157-14.625-41.293-27.457c-36.973-24.793-59.745-39.472-60.328-38.888-.68.68 50.694 38.405 80.621 59.202C697.923 1564.659 812.807 1635 820.221 1635c1.342 0 1.658-3.254 2.303-23.75 1.101-34.994-.794-173.38-3.349-244.565l-.675-18.816 3.327.625c8.263 1.553 60.539 19.719 89.337 31.045 25.623 10.077 46.81 19.197 81.836 35.224 60.382 27.63 66.948 30.603 86.945 39.374 28.008 12.285 35.075 15.177 35.659 14.592.275-.275-1.495-1.615-3.933-2.978-5.813-3.248-39.819-19.959-71.171-34.973-61.796-29.593-100.919-46.757-137-60.103-17.408-6.439-65.499-22.086-76-24.727-4.95-1.245-9.331-2.755-9.735-3.356s-.741-2.779-.75-4.842c-.008-2.062-.395-3.75-.86-3.75s-1.125 7.313-1.468 16.25M90 1386.452v4.452l4.25 2.877c2.338 1.582 18.65 11.364 36.25 21.736 52.348 30.851 100.739 60.205 158.5 96.145 46.884 29.173 92.485 56.207 122.812 72.807 6.772 3.707 12.513 6.539 12.758 6.295.245-.245-3.946-3.23-9.312-6.633a2522 2522 0 0 1-21.758-14.01c-6.6-4.303-25.725-16.502-42.5-27.109s-39.725-25.23-51-32.496c-51.804-33.382-97.088-61.675-146.5-91.528C126.463 1402.653 91.265 1382 90.463 1382c-.255 0-.463 2.003-.463 4.452m1873.78 5.048c-.395 1.1-2.513 8.75-4.705 17-8.527 32.095-33.608 102.27-45.16 126.354-11.473 23.923-26.129 48.657-53.707 90.646-40.603 61.819-81.833 113.437-151.961 190.25l-20.314 22.25h76.89l6.199-6.75c11.02-11.998 41.222-48.255 55.913-67.12 39.762-51.064 61.444-84.288 83.336-127.702 14.883-29.517 26.15-55.385 46.699-107.223l8.046-20.295-.258-59.705c-.142-32.838-.582-58.805-.978-57.705m-1124.77 51.05c.014 39.153 1.943 85.406 6.526 156.45 1.675 25.966 4.348 56.218 5.027 56.897.241.24.576.249.745.02.625-.844-1.307-54.521-3.289-91.417-2.465-45.874-4.57-88.024-6.144-123-.644-14.3-1.554-26.428-2.023-26.95-.472-.526-.848 11.965-.842 28M90 1441.669v4.86l16.25 8.642c8.938 4.753 34.475 18.068 56.75 29.588 41.351 21.385 75.127 39.106 80.5 42.235 1.65.961 6.375 3.561 10.5 5.778 19.549 10.505 38.914 21.271 71.5 39.752 18.929 10.736 38.285 21.391 42.5 23.397l2.5 1.189-2-1.614c-2.042-1.649-39.746-25.701-56-35.723-19.952-12.303-63.789-37.331-99-56.522-12.1-6.595-42.467-22.905-67.483-36.244s-47.853-25.591-50.75-27.225L90 1436.809zm793.614 70.581c1.069 82.326.906 128.208-.568 160.25-1.182 25.707-1.743 31.5-3.052 31.5-.457 0-7.28-2.987-15.163-6.638-15.111-6.999-40.586-20.581-59.831-31.901-6.325-3.72-15.1-8.878-19.5-11.463a960 960 0 0 1-16.5-9.973 2173 2173 0 0 0-16-9.821c-23.595-14.304-45.745-28.259-80.576-50.764-42.283-27.321-52.476-33.721-52.951-33.246-.981.981 52.096 38.334 90.027 63.357 49.859 32.89 101.097 63.3 136.476 80.998 15.966 7.986 32.502 15.197 36.844 16.065l2.791.558 1.204-14.053c2.422-28.288 3.437-66.6 2.823-106.619-.337-22-1.266-55.525-2.064-74.5s-1.764-42.937-2.146-53.25c-.422-11.405-1.087-18.75-1.697-18.75-.669 0-.708 22.707-.117 68.25M90 1500.337v15.365l29.25 14.77c28.22 14.25 49.344 25.145 58.75 30.302 2.475 1.357 12.6 6.744 22.5 11.97s19.35 10.298 21 11.269c1.65.97 15.15 7.942 30 15.492 26.512 13.48 46.113 23.622 58 30.013 3.3 1.774 20.625 11.094 38.5 20.712 39.108 21.041 72.701 38.959 91 48.536 41.94 21.949 49.564 25.879 60.5 31.181 10.694 5.184 16.556 7.814 28.5 12.782 1.925.801 3.05 1.031 2.5.512-1.645-1.554-14.634-10.016-39.507-25.739A14362 14362 0 0 1 443 1687.001c-96.037-61.354-161.916-101.111-217.5-131.259-24.123-13.084-107.61-56.771-129.25-67.634l-6.25-3.137zm0 88.488v15.824l40.25 12.08c22.137 6.644 48.575 15.091 58.75 18.77s36.95 14.034 59.5 23.012c47.606 18.953 69.442 27.489 70.321 27.489 1.244 0-3.572-2.872-16.321-9.732-35.647-19.181-101.777-51.852-160.5-79.293-16.225-7.582-34.356-16.078-40.291-18.88-5.936-2.802-10.998-5.095-11.25-5.095s-.459 7.121-.459 15.825m1645-11.767c-4.125 1.072-10.31 3.324-13.744 5.005-8.323 4.074-20.617 13.304-26.645 20.003-5.806 6.453-18.492 25.218-24.631 36.434-4.789 8.748-13.518 22.87-21.223 34.331-2.71 4.033-4.658 7.602-4.328 7.931 1.174 1.175 11.259 2.093 23.77 2.165 25.249.145 50.408-5.075 69.301-14.378 6.117-3.012 14.397-8.134 18.652-11.539 17.323-13.859 29.063-34.765 31.97-56.931l1.125-8.579 12.877-6.203c7.082-3.412 12.876-6.674 12.876-7.25 0-1.949-9.584-1.066-19.913 1.834l-10.262 2.881-4.185-2.34c-2.303-1.287-7.101-3.026-10.663-3.866-9.195-2.167-25.608-1.931-34.977.502m33.767 10.777c.831.527-2.15 2.442-8.679 5.573l-9.945 4.77-13.489.161c-12.557.15-15.951.697-14.336 2.312.358.359 5.158.869 10.667 1.134s9.997.76 9.975 1.099-3.609 2.913-7.97 5.72l-7.931 5.104-7.887.657c-8.347.696-17.679 3.028-18.694 4.67-.393.637 3.009.747 9.64.312l10.247-.672-10.781 10.385c-10.276 9.897-24.25 25.619-23.457 26.391.205.199 7.348-5.249 15.873-12.107 8.525-6.859 17.412-13.813 19.75-15.455l4.25-2.985-.019 2.298c-.011 1.264-.672 6.798-1.469 12.298-1.748 12.067-1.731 11.753-.606 11.058 1.251-.773 3.783-8.135 7.039-20.468l2.748-10.409 6.904-4.283c3.797-2.356 7.308-4.309 7.803-4.341.84-.053.339 12.199-.908 22.203l-.528 4.24 2.119-4.5c1.166-2.475 3.354-9.45 4.863-15.5l2.744-11 10.3-5.272c5.664-2.9 10.505-5.066 10.757-4.815.759.76-2.805 10.642-6.523 18.087-1.922 3.85-5.183 9.475-7.245 12.5-4.285 6.285-15.299 17.138-22.082 21.758-7.777 5.298-22.177 12.042-31.511 14.757-10.243 2.98-27.153 6.016-39.282 7.052l-8.395.717 3.013-4.392c1.657-2.416 7.185-11.817 12.286-20.892 5.1-9.075 11.778-19.875 14.841-24 6.398-8.617 17.126-19.511 23.604-23.967 5.69-3.915 12.234-6.735 21.047-9.069 4.81-1.274 10.598-1.866 18.5-1.894 6.325-.021 12.07.322 12.767.765M1961.615 1602c-9.579 24.902-22.195 53.818-34.902 80-15.039 30.986-26.013 50.316-47.973 84.5-14.362 22.358-35.605 53.213-45.916 66.691-1.553 2.031-2.824 3.951-2.824 4.267s11.588.456 25.75.309l25.75-.267 7.764-11.5c4.27-6.325 10.521-16.124 13.89-21.777 3.369-5.652 6.303-10.099 6.52-9.883s-4.122 9.954-9.64 21.638-10.034 21.419-10.034 21.633 8.806.389 19.568.389h19.569l4.544-9.75c2.499-5.362 10.571-22.089 17.937-37.169l13.393-27.419-.255-84.581-.256-84.581zm-1511.102 33.021c.338.546 2.048 1.719 3.8 2.607 9.192 4.653 117.242 68.595 169.687 100.416 29.499 17.899 56.798 34.147 114.5 68.15 6.05 3.565 16.625 9.865 23.5 13.999a4103 4103 0 0 0 21.224 12.676l8.723 5.158 33.777-.264 33.776-.263-191.5-95.644c-105.325-52.604-192.175-95.875-193-96.156s-6.81-3.023-13.3-6.092-11.524-5.133-11.187-4.587m111.987 12.74c1.962 1.973 34.489 23.956 64 43.254 27.498 17.981 59.44 38.339 86.755 55.293 5.916 3.671 15.366 9.539 21 13.039 17.781 11.045 77.64 46.021 92.745 54.191 7.975 4.313 21.7 11.579 30.5 16.147l16 8.304 11-.056 11-.055-5-2.446c-2.75-1.345-13.325-6.417-23.5-11.271-24.091-11.494-53.32-27.204-97-52.14-19.384-11.065-119.118-70.814-136.5-81.774-10.965-6.914-50.211-30.93-59.994-36.713-9.759-5.768-12.355-7.13-11.006-5.773M90 1689.873v4.086l4.096 2.09c3.781 1.929 55.223 24.53 78.404 34.447 15.87 6.789 61.463 27.139 92.5 41.288 35.147 16.022 70.382 32.581 109 51.227l29.5 14.243 7 .371 7 .371-17.5-8.754c-30.558-15.285-88.819-43.762-108.5-53.033L248 1755.72c-27.233-12.825-72.04-33.194-93.5-42.504-10.923-4.739-56.713-24.224-63.25-26.915-.88-.363-1.25.695-1.25 3.572m101 8.625c0 .666 86.762 44.039 114.5 57.24 12.1 5.758 29.65 13.976 39 18.262s20.15 9.243 24 11.017c12.827 5.91 52.817 24.119 67 30.508 7.7 3.468 22.066 9.944 31.924 14.391l17.924 8.084 11.076-.04 11.076-.04-2.621-1.424c-1.441-.783-12.691-5.665-25-10.848-44.481-18.73-70.44-30.131-132.879-58.359-9.075-4.103-23.025-10.298-31-13.767s-27.1-12.026-42.5-19.016c-30.188-13.701-81.482-36.506-82.113-36.506-.213 0-.387.224-.387.498m84.101 5.937c.859.858 43.969 23.508 72.899 38.299 29.176 14.918 66.659 33.136 87 42.286l31 13.945c33.465 15.055 76.536 33.722 87.544 37.94 1.846.708 7.354 1.054 14 .881l10.956-.286-14-5.39c-39.042-15.033-88.164-35.68-133.5-56.113l-26-11.722c-12.543-5.656-86.148-40.003-118.265-55.186-9.823-4.644-12.824-5.844-11.634-4.654M90 1732.815c0 3.421.387 4 3.75 5.615 2.063.991 18.375 8.549 36.25 16.797s46 21.307 62.5 29.02 31.8 14.808 34 15.768 21.1 9.743 42 19.517l38 17.772 8.5.339 8.5.339-4.5-2.128c-2.475-1.17-14.175-6.522-26-11.892-20.092-9.126-79.049-36.92-115.5-54.45C158.574 1760.41 91.074 1729 90.44 1729c-.242 0-.44 1.717-.44 3.815m346.5 14.726c2.792 2.168 61.282 31.091 89 44.01 27.376 12.759 54.878 25.054 77.5 34.646 9.075 3.848 18.75 7.986 21.5 9.196 4.101 1.804 7.158 2.241 17 2.429 8.769.168 11.538-.055 10.283-.827-.944-.582-6.119-2.648-11.5-4.592-9.886-3.571-39.1-14.904-64.751-25.119-21.351-8.502-54.099-22.725-102.532-44.531-27.644-12.447-32.45-14.563-36-15.855l-2.5-.91zm1275 19.093c-16.998 13.703-41.862 32-69.5 51.142-6.875 4.762-16.067 11.26-20.427 14.441l-7.927 5.783h30.931l9.448-8.236c14.485-12.626 43.966-41.832 56.289-55.764 6.081-6.875 12.182-13.737 13.558-15.25s2.08-2.715 1.565-2.673-6.787 4.793-13.937 10.557M569 1779.349c0 1.167 51.407 27.327 73.5 37.403 6.6 3.01 19.65 8.934 29 13.164l17 7.69 10 .284c5.5.156 9.775.07 9.5-.191s-9.95-4.31-21.5-8.999c-24.331-9.876-44.733-18.557-84.5-35.952-28.586-12.505-33-14.297-33-13.399M90 1814v24h40.167c22.091 0 39.979-.169 39.75-.376-.787-.709-79.122-47.624-79.52-47.624-.218 0-.397 10.8-.397 24m1871.314 19.024-2.187 4.976h2.34c2.095 0 2.376-.523 2.686-5.001.191-2.75.122-4.989-.153-4.976s-1.484 2.264-2.686 5.001"/></svg>