<svg xmlns="http://www.w3.org/2000/svg" viewBox="0 0 2048 2048"><path fill-rule="evenodd" d="M1116.3 292.56c-5.946 3.05-13.048 11.797-18.303 22.545-2.748 5.62-4.997 10.784-4.997 11.475 0 1.666-9.055 3.619-10.648 2.297-.649-.539-3.869-1.294-7.155-1.678l-5.974-.699 2.163-4.5c4.901-10.195 7.523-17.075 7.012-18.404-.633-1.65-8.336-5.133-13.462-6.086-2.438-.453-3.901-.244-4.629.664-.586.729-2.525 4.701-4.308 8.826-1.784 4.125-4.525 10.266-6.092 13.646l-2.848 6.145-7.045.708c-5.551.557-7.36 1.157-8.529 2.827-.817 1.165-1.485 2.893-1.485 3.84 0 2.424 3.85 4.834 7.723 4.834 1.802 0 3.277.261 3.277.58s-1.861 6.957-4.135 14.75c-3.325 11.393-4.992 15.383-8.507 20.358-2.404 3.404-6.307 7.775-8.672 9.713-7.997 6.553-17.85 9.516-20.606 6.196-2.377-2.865-3.103-7.954-2.008-14.09 1.98-11.1 11.522-27.401 13.842-23.647.444.719.365 3.381-.175 5.916l-.983 4.608 2.233 1.808c1.228.994 2.901 1.808 3.717 1.808 2.821 0 7.267-3.424 8.892-6.848 2.002-4.219 1.447-10.862-1.212-14.486-1.037-1.414-3.236-3.155-4.886-3.868-4.642-2.008-12.371-1.523-17.83 1.12-6.192 2.997-13.568 10.533-17.441 17.819-1.685 3.17-3.885 8.859-4.89 12.642-1.55 5.839-2.508 7.486-6.333 10.886-4.919 4.372-13.225 8.71-16.709 8.725-1.212.006-3.299-.49-4.64-1.1-2.368-1.079-4.657-4.656-4.657-7.278 0-.764 2.353-1.803 5.75-2.537 7.823-1.691 15.14-6.67 19.276-13.116 2.547-3.969 3.468-6.634 3.779-10.943.495-6.834-1.395-11.186-6.104-14.056-4.552-2.776-12.793-2.601-19.201.406-6.028 2.83-14.329 11.389-17.923 18.482-1.444 2.85-3.343 7.981-4.22 11.402-1.977 7.72-1.244 16.399 1.851 21.906 1.219 2.168 3.808 4.933 5.754 6.143 2.962 1.843 5.003 2.201 12.538 2.201 7.749 0 9.824-.386 14.93-2.777 3.262-1.528 7.899-4.39 10.305-6.362s4.496-3.422 4.644-3.223 1.286 1.835 2.529 3.635c2.533 3.667 7.694 6.612 13.407 7.649 5.041.916 13.998-.987 20.119-4.273 2.714-1.457 7.551-5.136 10.75-8.176 5.146-4.89 5.816-5.26 5.816-3.218 0 3.776 2.513 8.657 5.941 11.542 2.632 2.214 4.198 2.703 8.668 2.703 3 0 7.032-.659 8.96-1.464 5.725-2.392 12.224-7.568 18.002-14.337 2.986-3.497 5.429-5.953 5.429-5.457s-.645 2.894-1.433 5.33-2.869 9.153-4.624 14.928-3.772 11.625-4.482 13c-2.295 4.443-5.399 7-8.5 7-2.583 0-2.961.361-2.961 2.826 0 3.161 2.981 6.465 7.315 8.107 4.035 1.529 10.304 1.315 13.754-.469 3.955-2.045 8.128-7.983 11.782-16.764 3.802-9.136 10.618-31.695 17.118-56.652 2.787-10.699 5.578-19.768 6.203-20.154.624-.386 3.654-1.002 6.732-1.368 11.515-1.371 15.188-3.517 13.508-7.894-.834-2.173-4.517-3.119-12.173-3.126-4.217-.004-6.12-.373-5.83-1.128.237-.618 1.36-4.218 2.497-8 2.164-7.203 5.401-13.378 7.012-13.378 1.68 0 2.252 3.901 1.542 10.529l-.693 6.471h3.666c7.847 0 13.556-5.843 13.563-13.882.005-5.238-2.602-9.878-7.004-12.47-1.73-1.018-5.698-2.049-8.819-2.291-4.009-.31-6.611.042-8.873 1.203m-402.8 4.151c-1.65.226-7.381 1.478-12.735 2.782-10.609 2.585-23.844 7.9-33.265 13.361-8.976 5.202-19.83 13.611-25.112 19.454-8.815 9.751-12.502 22.336-8.693 29.667.993 1.91 3.756 4.835 6.141 6.5 3.804 2.653 5.181 3.025 11.214 3.025 5.096 0 7.312-.433 8.551-1.672 2.079-2.08 1.16-4.828-1.615-4.828-1.142 0-3.181-1.105-4.531-2.455-1.671-1.67-2.455-3.571-2.455-5.952 0-4.526 1.477-7.896 6.256-14.275 4.714-6.293 11.933-11.877 21.729-16.811 14.754-7.429 30.43-11.096 44.007-10.291 9.036.535 15.807 3.288 18.952 7.705 3.296 4.628 3.62 9.554 1.075 16.326-2.576 6.852-9.685 15.009-17.742 20.357-5.646 3.748-19.908 9.357-23.856 9.383l-2.078.013 2.691-10.25c1.481-5.637 4.118-14.687 5.86-20.11 2.383-7.414 2.893-10.192 2.057-11.199-3.21-3.868-15.468-4.368-19.059-.777-2.243 2.242-10.189 23.699-16.353 44.156-4.436 14.722-11.405 41.709-13.527 52.382-1.306 6.565-.365 9.42 3.417 10.37 2.528.634 11.674-1.42 17.754-3.988 4.178-1.764 6.817-4.97 6.817-8.281 0-2.989 6.945-39.584 7.642-40.269.849-.834 6.508 6.162 18.149 22.439 5.89 8.235 13.687 18.021 17.326 21.747 8.357 8.556 13.803 11.155 23.46 11.195 5.983.025 8.087-.468 13.605-3.184 7.771-3.825 16.119-12.101 15.634-15.498-.174-1.217-1.12-2.366-2.103-2.553-.982-.188-4.197.659-7.144 1.88l-5.358 2.221-4.549-2.203c-2.502-1.211-7.612-5.212-11.356-8.89-8.664-8.514-30.661-32.213-30.174-32.51.202-.123 2.618-1.019 5.368-1.989 8.992-3.174 19.78-10.024 27.192-17.267 5.552-5.425 8.126-8.927 11.025-15l3.783-7.922-.014-8c-.01-5.71-.516-8.927-1.769-11.237-2.943-5.428-7.79-10.267-12.86-12.836-8.147-4.128-15.19-5.441-28.317-5.277-6.622.082-13.39.335-15.04.561m502.132 10.564c-3.373 3.451-8.735 10.163-11.917 14.914-11.428 17.066-21.793 41.111-23.319 54.096l-.667 5.682-5.305 5.016c-2.917 2.759-6.231 5.017-7.364 5.017-3.37 0-3.155-2.135 2.083-20.634 2.2-7.774 3.856-15.635 3.679-17.468-.239-2.479-1.185-3.914-3.684-5.592-4.042-2.714-9.868-3.966-12.051-2.589-.873.55-2.16 3.651-2.86 6.892-2.813 13.022-6.635 25.078-9 28.391-3.594 5.034-8.374 8.942-10.977 8.973-1.796.022-2.25-.53-2.25-2.73 0-1.516 1.8-9.894 4-18.619s4-16.63 4-17.569c0-3.629-7.764-8.055-14.13-8.055-2.269 0-2.958.546-3.464 2.75-.348 1.512-1.677 6.575-2.953 11.25-5.188 19.009-8.453 33.078-8.453 36.426 0 2.477.852 4.496 2.832 6.712 2.387 2.671 3.709 3.242 8.407 3.632 4.556.378 6.641-.026 11.415-2.212 3.212-1.47 6.852-3.624 8.089-4.786s2.381-1.924 2.543-1.693c.162.232.732 1.757 1.267 3.39 1.278 3.9 6.759 7.534 11.345 7.521 4.257-.011 12.795-3.787 18.143-8.022l3.809-3.017.691 2.275c1.327 4.366 5.416 8.592 10.013 10.348 3.922 1.497 5.461 1.59 10.586.637 5.334-.992 14.046-5.154 20.61-9.846l2.25-1.609v1.736c0 3.059 4.318 9.541 7.781 11.682 2.857 1.766 4.503 2.006 11.038 1.614 5.766-.346 9.052-1.153 13.181-3.236 3.025-1.527 6.963-3.873 8.75-5.215l3.25-2.439v2.948c0 2.119.988 3.815 3.518 6.036 1.935 1.699 4.667 3.377 6.071 3.73 4.228 1.061 11.358-.433 17.22-3.608 3.043-1.648 5.757-2.772 6.031-2.497.275.274-.524 2.684-1.775 5.355l-2.275 4.856-8.341.588c-10.427.736-24.984 5.432-32.287 10.416-2.936 2.003-6.423 5.24-7.75 7.192-2.974 4.377-3.164 10.34-.471 14.757 2.836 4.651 9.909 8.414 17.028 9.06 7.58.687 17.162-1.166 23.35-4.516 5.493-2.973 14.718-12.418 20.211-20.695l3.732-5.621 3.119.621c1.715.342 5.819 1.317 9.119 2.167 10.647 2.741 10.5 2.733 10.5.604 0-1.068-1.013-2.891-2.25-4.051-2.376-2.225-12.379-7.214-14.5-7.23-.687-.006-1.25-.26-1.25-.566s1.997-5.143 4.437-10.75c6.724-15.448 13.318-32.743 14.101-36.984.539-2.921.294-4.238-1.071-5.747-2.008-2.218-11.542-5.532-13.621-4.734-.754.289-3.536 5.51-6.183 11.602s-6.297 12.953-8.113 15.247c-6.161 7.786-15.256 13.616-17.593 11.279-1.327-1.327 1.029-9.18 6.93-23.101 4.208-9.929 4.988-12.622 4.122-14.24-1.411-2.636-5.961-4.911-11.281-5.64-3.008-.412-4.643-.181-5.424.767-.615.746-3.268 6.757-5.895 13.357-4.215 10.587-5.446 12.659-10.459 17.594-5.808 5.718-14.619 10.906-18.524 10.906-1.2 0-2.762-.7-3.473-1.556-1.323-1.595-1.561-9.401-.441-14.501.411-1.868 2.884-4.679 7.304-8.302 7.275-5.961 19.191-19.208 24.889-27.67 5.417-8.042 11.067-19.892 12.999-27.26l1.726-6.578-1.816-2.007c-2.289-2.529-9.478-5.023-16.614-5.763l-5.5-.571-7.612 7.854c-4.186 4.32-9.967 11.454-12.845 15.854-5.751 8.792-14.971 27.162-17.566 35-.911 2.75-2.266 7.925-3.011 11.5-1.202 5.761-1.918 7.021-6.299 11.083-4.966 4.605-9.326 7.119-14.402 8.307-2.039.478-3.281.094-4.884-1.509-1.925-1.925-2.087-2.88-1.56-9.165l.588-7.016 3.795-3.015c6.117-4.859 18.003-17.555 24.487-26.157 7.275-9.65 13.077-20.912 15.758-30.585 2.245-8.103 1.8-9.987-2.94-12.438-2.339-1.21-15.281-4.505-17.693-4.505-.304 0-3.312 2.824-6.684 6.275m11.481 17.897c-1.041 3.025-3.781 8.836-6.089 12.914-4.58 8.091-15.112 23.159-15.746 22.526-.599-.6 8.112-18.84 12.365-25.892 4.205-6.97 10.581-15.83 11.053-15.357.17.17-.542 2.784-1.583 5.809m41.99 11.262c-2.813 5.536-8.356 14.434-12.318 19.774-3.961 5.339-7.343 9.567-7.514 9.396-.452-.452 6.502-14.947 11.085-23.104 2.163-3.85 6.002-9.91 8.531-13.467 3.502-4.925 4.686-6.014 4.964-4.566.202 1.046-1.935 6.431-4.748 11.967M1084.329 340c2.019 0 3.671.274 3.671.609s-.996 4.405-2.212 9.044c-1.977 7.537-3.015 9.463-9.75 18.094-10.959 14.043-21.639 22.072-24.13 18.138-.483-.762-.884-2.52-.893-3.908-.031-5.148 6.696-28.299 11.398-39.227l1.614-3.75 4.736-.07c2.606-.039 5.637-.435 6.737-.881 1.297-.525 2.555-.325 3.579.57.868.76 3.231 1.381 5.25 1.381m-202.047 2.326c-1.77.646-3.852 1.849-4.628 2.674-2.061 2.191-9.254 26.992-19.687 67.886-3.282 12.863-5.967 24.831-5.967 26.595 0 1.86.783 3.918 1.862 4.894 2.112 1.911 12.332 3.865 15.741 3.01 1.968-.494 2.342-1.421 2.921-7.226.566-5.676 5.421-32.757 7.166-39.976l.56-2.317 2.625 2.503c1.444 1.377 3.892 2.982 5.44 3.567 7.846 2.965 18.267-.504 25.682-8.548 5.285-5.734 10.837-17.37 12.265-25.706.851-4.972.811-7.78-.177-12.194-1.608-7.186-5.914-12.209-11.585-13.515-5.325-1.227-13.341 1.071-17.996 5.157-1.927 1.693-3.504 2.69-3.504 2.217s.397-2.245.883-3.938c1.274-4.444-.191-6.425-4.683-6.333-2.035.042-5.148.604-6.918 1.25m-35.043 1.327c-4.338 2.138-8.285 6.779-12.789 15.039-11.332 20.78-15.2 27.167-18.859 31.136-7.479 8.113-17.221 12.046-22.646 9.142-1.903-1.018-4.945-5.891-4.945-7.92 0-.578 1.12-1.05 2.489-1.05 4.102 0 12.331-3.612 17.061-7.487 2.441-2.001 5.532-5.522 6.868-7.825s2.644-6.322 2.906-8.929c.358-3.572-.055-5.774-1.674-8.926-1.278-2.488-3.57-4.952-5.65-6.077-2.647-1.43-4.791-1.769-8.797-1.391-3.152.298-7.106 1.56-9.763 3.117-6.24 3.657-12.988 10.978-16.416 17.81-3.75 7.472-6.454 19.555-5.665 25.31.747 5.448 3.778 11.34 7.008 13.622 4.027 2.845 10.57 3.836 17.722 2.684 7.219-1.162 12.367-3.267 18.868-7.713l4.457-3.048 1.292 1.844c3.487 4.979 14.361 8.6 22.471 7.485 2.575-.355 6.472-1.805 8.66-3.224 2.189-1.419 5.029-4.418 6.312-6.666 1.943-3.401 2.333-5.511 2.331-12.586-.002-4.675-.402-13.535-.888-19.689-.954-12.055-.291-15.549 3.82-20.146l2.088-2.335-2.361-1.915c-2.921-2.37-9.377-2.492-13.9-.262m113.876 10.597c.455 4.935-2.601 11.214-7.591 15.595-1.976 1.735-4.233 3.155-5.014 3.155-1.22 0-1.227-.551-.05-3.886 2.072-5.874 4.101-9.433 7.376-12.939 3.102-3.321 5.084-4.043 5.279-1.925m-54.966 7.214c.924 3.455-.636 12.173-3.282 18.347-1.105 2.578-3.126 6.15-4.49 7.939-2.547 3.339-7.107 6.25-9.792 6.25-4.077 0-4.999-11.146-1.66-20.069 2.655-7.098 7.206-13.26 11.23-15.209 4.012-1.943 7.016-.913 7.994 2.742m-104.744 8.193c-2.793 5.428-9.716 12.365-11.029 11.052-1.027-1.026 6.076-14.958 9.199-18.045l2.869-2.836.933 2.092c.712 1.595.245 3.431-1.972 7.737M840.415 390c-.679 5.354-2.792 9-5.216 9-2.567 0-5.99-2.694-7.752-6.102l-1.542-2.982 6.298-11.408L838.5 367.1l1.243 9.2c.684 5.06.987 11.225.672 13.7m504.952 9.918c-1.724 1.051-3.861 2.949-4.75 4.219-.889 1.269-1.617 4.154-1.617 6.411 0 3.039.623 4.689 2.402 6.36 3.269 3.071 9.178 3.68 13.527 1.394 4.871-2.56 7.526-6.6 7.526-11.451 0-3.204-.589-4.569-2.783-6.457-1.982-1.705-3.991-2.393-6.978-2.39-2.363.002-5.562.838-7.327 1.914m-57.526 32.332c-7.271 10.295-19.145 18.17-26.487 17.567-3.312-.272-3.897-.684-4.157-2.927-.435-3.752 4.149-8.71 10.768-11.644 5.17-2.292 17.887-6.067 20.853-6.191.876-.037.548 1.036-.977 3.195m-394.645 18.896c-3.596 7.601-11.363 31.445-14.775 45.354-1.349 5.5-2.73 13.182-3.069 17.071-.476 5.472-.242 7.858 1.033 10.544 2.428 5.118 6.812 7.3 14.615 7.274 6.765-.023 10.469-1.382 16.718-6.132 4.637-3.524 9.054-10.697 11.454-18.599 1.549-5.099 1.947-8.414 1.543-12.87-.429-4.728-1.123-6.604-3.27-8.846-1.5-1.565-4.013-3.127-5.586-3.473-4.046-.889-8.421.291-11.883 3.205-1.637 1.377-2.976 2.101-2.976 1.608 0-1.483 7.538-20.172 11.969-29.675 2.991-6.416 3.842-9.196 3.056-9.982-.599-.599-4.405-1.257-8.456-1.461l-7.367-.372zm398.01 7.357c-12.632 14.351-25.131 40.471-28.237 59.012-1.759 10.499.657 18.13 6.638 20.969 1.757.834 4.533 1.516 6.168 1.516 3.911 0 10.807-2.472 15.454-5.539 2.05-1.354 3.963-2.461 4.25-2.461s.521.72.521 1.6c0 2.737 6.357 8.15 11.06 9.418 2.442.659 6.619.94 9.282.626 5.056-.597 17.843-5.957 19.781-8.292 1.521-1.833 2.953-1.713 2.224.186-.836 2.18 2.469 10.293 4.674 11.473 1.016.544 3.839.989 6.274.989 3.104 0 5.588-.777 8.315-2.602 2.14-1.431 5.164-3.793 6.72-5.25 6.704-6.273 17.779-23.537 21.054-32.819 1.211-3.434 1.239-4.462.162-5.936-1.152-1.574-1.773-1.641-5.332-.575-5.432 1.627-9.737 6.731-11.121 13.183-1.794 8.368-5.074 14.827-9.415 18.543-2.221 1.901-4.407 3.456-4.858 3.456-1.485 0-.866-4.024 2.863-18.619 2.922-11.437 3.428-14.67 2.448-15.648-.7-.699-3.654-1.209-6.816-1.178-4.493.045-5.927.482-7.352 2.243-.974 1.202-2.806 6.103-4.07 10.891-2.68 10.142-5.485 13.932-13.134 17.744-5.874 2.927-12.211 3.339-15.536 1.01-1.223-.856-2.223-2.594-2.223-3.862 0-2.053.61-2.377 5.574-2.961 3.066-.36 7.297-1.534 9.403-2.608 5.06-2.582 9.745-8.406 10.538-13.101.805-4.767-1.462-9.858-5.435-12.205-4.056-2.396-12.159-2.216-17.252.382-5.813 2.965-11.539 9.296-15.749 17.412-2.788 5.372-4.756 7.756-8.468 10.25-2.661 1.788-5.922 3.25-7.249 3.25-3.231 0-4.559-3.622-3.469-9.459.718-3.842 2.038-5.654 9.289-12.759 4.649-4.555 10.58-11.317 13.182-15.027 2.601-3.709 6.389-10.234 8.416-14.5 2.847-5.989 3.691-9.008 3.703-13.255l.017-5.5-3.723-1.819c-2.048-1.001-6.124-2.068-9.059-2.371l-5.336-.55zm-500.92 4.747c-.528.688-2.23 5.63-3.784 10.984-1.833 6.318-3.381 9.889-4.413 10.177-.874.243-3.529.745-5.901 1.114-3.382.527-4.521 1.22-5.279 3.213-.745 1.961-.581 2.966.718 4.402.925 1.023 2.963 1.86 4.528 1.86s2.845.36 2.845.801c0 .44-.893 4.828-1.985 9.75s-2.248 12.549-2.569 16.949c-.481 6.575-.261 8.623 1.235 11.5 1.314 2.528 2.968 3.897 5.954 4.93 3.717 1.285 4.608 1.249 8.807-.355 2.68-1.023 6.805-3.917 9.674-6.787 2.752-2.751 5.14-4.842 5.308-4.645.168.196.808 1.326 1.424 2.51 1.527 2.939 8.922 6.347 13.771 6.347 5.898 0 13.84-4.374 18.387-10.126 5.358-6.779 7.994-14.347 7.994-22.951 0-12.101-4.816-17.959-14.718-17.901-5.181.03-11.317 3.013-16.159 7.855-4.609 4.609-8.133 11.072-10.479 19.221-1.26 4.375-2.698 6.614-6.585 10.25-2.735 2.559-5.619 4.652-6.409 4.652s-1.714-.723-2.053-1.607c-.825-2.15 1.841-18.364 4.362-26.524l2.022-6.546 5.602-1.254c3.081-.69 6.471-2.123 7.532-3.184 1.554-1.554 1.717-2.331.835-3.979-.905-1.691-1.911-1.998-5.773-1.76-2.647.162-4.578-.132-4.448-.679.125-.532 1.138-3.962 2.25-7.622 1.111-3.661 2.021-7.329 2.021-8.152 0-3.047-12.641-5.145-14.714-2.443m-188.55 16.5c.556 12.055-1.217 26.396-5.211 42.151-5.301 20.912-13.666 37.984-17.462 35.638-1.54-.952-1.315-15.051.472-29.569.844-6.858 2.919-19.382 4.61-27.831 3.365-16.811 3.168-19.342-1.602-20.539-3.382-.849-9.763.881-11.879 3.219-1.015 1.121-2.988 8.587-5.104 19.309-3.658 18.532-9.084 36.46-14.819 48.962-3.278 7.146-6.909 11.91-9.077 11.91-1.351 0-.171-13.361 2.871-32.5 4.985-31.367 5.3-37.378 2.307-43.948-2.545-5.585-10.747-7.1-19.806-3.658-10.228 3.887-25.474 17.164-30.083 26.198-1.074 2.106-1.953 5.818-1.953 8.25 0 3.636.557 4.965 3.137 7.488 1.948 1.904 4.88 3.438 7.737 4.048 2.53.539 4.758.824 4.949.632.192-.192.426-2.973.519-6.179.123-4.221 1.048-7.688 3.349-12.554 4.574-9.675 15.344-20.605 15.298-15.527-.007.688-1.607 11.375-3.558 23.75s-3.805 28.374-4.123 35.552l-.577 13.053 2.067 4.671c2.591 5.858 7.21 9.01 12.299 8.392 1.978-.24 5.422-1.645 7.653-3.121 4.497-2.976 10.998-11.645 14.66-19.55l2.388-5.154.671 4.329c1.166 7.52 2.553 10.64 6.127 13.778 2.775 2.437 4.381 3.05 7.988 3.05 2.484 0 5.73-.637 7.216-1.415 5.598-2.933 12.261-11.751 18.954-25.085 7.354-14.652 13.946-36.31 16.247-53.382 1.635-12.127-.103-19.975-5.218-23.557-1.245-.872-4.283-1.561-6.885-1.561h-4.658zm696.945-2.365c-2.79 6.095-12.6 21.03-13.332 20.298-.612-.613 4.529-10.904 10.513-21.042 5.07-8.591 6.875-8.114 2.819.744m-568.512-5.635c-1.047 2.031-3.584 9.905-5.134 15.933l-1.076 4.184-5.507 1.143c-3.817.792-5.965 1.843-7.002 3.426-.822 1.255-1.211 3.024-.862 3.932.736 1.919 4.54 3.093 7.507 2.317 1.447-.378 1.91-.141 1.551.794-.281.734-1.265 5.539-2.186 10.677-.97 5.412-2.7 11.135-4.113 13.6-3.192 5.572-9.588 12.244-11.737 12.244-1.415 0-1.591-.631-1.048-3.75.36-2.062 1.73-7.663 3.046-12.446S706 513.609 706 511.777c0-1.833-.665-4.281-1.477-5.44-4.524-6.459-14.718-1.894-23.829 10.672-1.41 1.945-1.663 2.052-1.152.491.36-1.1.894-3.679 1.186-5.732.408-2.868.151-3.877-1.111-4.361-2.634-1.011-10.604.58-12.524 2.5-1.073 1.073-2.631 6.034-3.983 12.678-1.221 6.003-2.983 12.701-3.915 14.885-2.071 4.851-5.884 9.53-7.765 9.53-.765 0-1.644-1.013-1.953-2.25-.599-2.399 1.785-15.362 3.695-20.092.921-2.283.87-3.028-.262-3.783-1.799-1.2-12.015-.095-13.646 1.477-.679.655-2.308 6.058-3.62 12.007s-3.279 12.015-4.372 13.479-2.839 2.662-3.88 2.662c-1.569 0-1.943-.868-2.189-5.088-.196-3.364.423-7.011 1.828-10.765 2.382-6.366 5.914-11.057 9.838-13.066 1.447-.74 4.996-1.667 7.887-2.058 5.885-.798 10.433-3.678 8.66-5.486-.596-.608-5.644-1.331-11.217-1.608-8.757-.435-10.66-.234-14.013 1.476-5.734 2.925-13.675 12.137-16.248 18.848-1.284 3.349-2.415 9.051-2.709 13.663-.405 6.352-.156 8.564 1.262 11.197 2.031 3.771 6.813 6.389 11.66 6.383 3.402-.004 8.564-2.566 12.546-6.225l2.197-2.02 1.623 1.623c.893.893 2.652 1.881 3.911 2.197 3.026.76 9.321-1.945 13.149-5.65l3.076-2.977 1.152 2.528c1 2.194 1.783 2.526 5.924 2.513 2.624-.009 5.363-.391 6.087-.85s2.19-4.84 3.258-9.735 3.045-11.15 4.393-13.9c2.601-5.308 9.214-13.563 8.011-10-.371 1.1-1.518 6.048-2.549 10.996-1.436 6.893-1.64 9.865-.873 12.713.551 2.045 1.989 4.409 3.195 5.254 2.868 2.009 10.052 1.962 14.385-.095 1.892-.897 5.895-4.385 8.897-7.75 4.632-5.192 5.459-5.766 5.463-3.791.002 1.28 1.319 3.642 2.927 5.25 2.171 2.17 3.87 2.923 6.599 2.923 2.022 0 5.263-.753 7.203-1.674s5.724-3.871 8.41-6.556c5.137-5.137 13.865-18.985 13.865-21.999 0-3.401-3.497-1.772-6.893 3.211-4.604 6.755-11.909 14.018-14.099 14.018-.987 0-2.06-.693-2.385-1.541-.783-2.039 1.031-14.785 3.447-24.233 1.064-4.16 2.046-7.652 2.182-7.76s2.605-.966 5.485-1.907c5.548-1.813 9.546-5.659 8.557-8.234-.466-1.215-1.755-1.452-5.988-1.1-3.949.327-5.27.123-4.93-.762.255-.664 1.444-4.501 2.643-8.526l2.179-7.319-1.79-1.309c-.985-.72-4.163-1.309-7.064-1.309-4.012 0-5.489.419-6.175 1.75m722.287 6.395c-6.234 6.8-13.092 16.072-17.791 24.051-4.934 8.379-10.957 22.056-12.852 29.183-.94 3.537-2.37 5.798-5.196 8.217-4.828 4.133-12.533 6.83-17.076 5.978-3.806-.714-5.387-2.23-5.773-5.535-.239-2.049.223-2.345 4.232-2.711 2.475-.226 5.89-.853 7.589-1.393 7.623-2.427 14.397-10.443 14.406-17.05.006-4.131-2.732-8.18-7.034-10.405-3.92-2.027-10.614-1.821-15.693.485-5.804 2.635-13.014 10.332-16.425 17.535-2.155 4.551-2.842 7.473-2.842 12.102-.001 4.672.529 6.899 2.262 9.5 3.176 4.769 8.309 7.023 15.991 7.023 6.777 0 15.714-2.739 20.039-6.141l2.459-1.934.641 4.008c.404 2.525 1.87 5.349 3.959 7.629 2.885 3.148 4.046 3.681 8.89 4.083 4.466.37 6.644-.029 10.977-2.013 5.829-2.668 18.015-13.375 20.339-17.869 1.449-2.803 1.047-5.888-.768-5.888-.548 0-3.312 2.096-6.143 4.657-10.773 9.749-18.29 12.747-20.694 8.256-.692-1.293-.855-3.99-.429-7.087.54-3.929 1.361-5.557 3.832-7.605 1.729-1.433 7.324-6.863 12.433-12.067 9.699-9.88 18.373-22.011 22.051-30.839 1.188-2.852 2.16-7.04 2.16-9.307v-4.12l-4.75-2.118c-2.612-1.165-7.012-2.312-9.776-2.549l-5.025-.431zm-443.197.457c-6.057 2.226-12.831 9.26-16.53 17.164-2.646 5.654-3.15 7.931-3.186 14.394-.035 6.237.344 8.198 2.019 10.447 1.134 1.523 3.294 3.69 4.801 4.815 2.018 1.506 4.24 2.041 8.438 2.029 4.389-.011 6.918-.683 11.001-2.92 6.225-3.411 11.466-10.017 14.265-17.981 2.355-6.701 2.486-15.127.319-20.543-.887-2.218-2.896-4.946-4.464-6.063-3.8-2.705-11.306-3.31-16.663-1.342m486.299.933c-6.022 1.652-12.254 5.89-15.293 10.4-1.246 1.848-2.265 4.594-2.265 6.102s.787 3.708 1.75 4.89c2.061 2.53 8.708 5.027 11.464 4.307 1.063-.278 3.023-2.233 4.356-4.344s3.568-4.59 4.967-5.506c6.216-4.073 18.187-3.436 22.542 1.2 3.283 3.494 3.11 8.566-.418 12.248-1.506 1.572-7.977 5.74-14.38 9.263-12.728 7.002-20.389 13.674-22.279 19.398-.989 2.998-.919 3.985.431 6.045 1.353 2.065 2.408 2.462 6.545 2.462h4.931l.656-3.493c.404-2.157 1.919-4.603 3.961-6.396 1.818-1.596 7.056-4.187 11.64-5.757s11.934-4.654 16.334-6.854c6.526-3.263 8.599-4.896 11.25-8.863 2.73-4.085 3.25-5.787 3.25-10.637 0-4.852-.519-6.549-3.25-10.626-1.787-2.669-5.725-6.534-8.75-8.589s-8.182-4.422-11.46-5.26c-7.207-1.844-19.243-1.839-25.982.01M943 480.29c-2.043.634-6.055 3.669-9.639 7.293-7.676 7.761-10.702 14.746-10.796 24.917-.054 5.793.337 7.563 2.264 10.265 3.609 5.06 7.31 6.501 15.568 6.059 9.103-.488 15.127-3.462 21.958-10.842 5.973-6.452 10.258-13.942 9.343-16.327-.35-.91-1.027-1.655-1.506-1.655s-2.885 2.587-5.347 5.75-6.349 7.042-8.638 8.62c-2.483 1.713-6.003 3.078-8.726 3.385-3.814.43-4.97.135-7.023-1.795-1.352-1.27-2.458-2.844-2.458-3.498s2.028-1.468 4.508-1.808c7.041-.965 14.131-6.152 17.584-12.864 3.451-6.709 2.114-13.475-3.317-16.786-3.56-2.17-8.29-2.416-13.775-.714m103.323.406c-1.198.233-2.608.96-3.134 1.614-2.924 3.637-11.185 32.779-11.188 39.465-.001 2.595.531 3.477 2.564 4.25 1.411.536 4.283.975 6.382.975h3.817l2.597-8.25c1.428-4.538 3.843-10.086 5.368-12.329 4.007-5.899 9.138-11.888 9.701-11.324.267.266-.84 4.291-2.459 8.944-1.619 4.652-2.95 10.169-2.958 12.259-.017 4.856 2.266 9.274 5.197 10.059 9.004 2.412 17.889-1.744 26.047-12.183 2.439-3.122 5.517-7.596 6.839-9.943 2.006-3.56 2.169-4.416.984-5.164-1.054-.666-3.643 1.398-10.057 8.017-5.584 5.762-9.396 8.914-10.783 8.914h-2.144l1.315-4.25c.723-2.337 2.951-8.162 4.952-12.943 2-4.782 3.637-9.865 3.637-11.296 0-3.553-4.158-7.511-7.889-7.511-4.84 0-8.284 1.797-14.003 7.306-3.115 3-5.078 4.349-4.648 3.194 2.665-7.161 2.733-7.563 1.523-9.021-1.18-1.422-6.533-1.781-11.66-.783m78.265 1.859c-2.383 2.383-4.132 7.039-7.999 21.29-4.893 18.037-5.086 19.658-2.627 22.117 1.484 1.484 3.341 2.038 6.832 2.038h4.794l2.818-8.75c1.55-4.812 3.743-10.325 4.874-12.25 2.438-4.153 8.805-12.248 9.269-11.785.178.179-1.243 5.041-3.159 10.805-4.315 12.984-5.044 17.816-3.085 20.431 1.118 1.491 2.71 1.963 6.76 2l5.299.049 2.646-8.5c1.456-4.675 3.455-10.075 4.443-12 1.93-3.761 8.553-12.327 9.105-11.775.184.183-1.213 4.821-3.103 10.304s-3.441 11.598-3.446 13.586c-.018 7.309 6.809 11.455 14.88 9.037 2.032-.609 5.476-2.437 7.653-4.063l3.958-2.955 1.509 3.182c1.058 2.232 2.657 3.557 5.357 4.442 5.041 1.651 10.079.312 16.094-4.279 2.497-1.906 4.54-3.136 4.54-2.733s-.768 2.59-1.706 4.859l-1.707 4.125-6.525 1.203c-9.031 1.664-20.185 6.51-25.071 10.892-7.165 6.426-8.225 14.878-2.493 19.891 5.702 4.986 17.438 5.377 26.32.876 5.472-2.773 13.292-10.786 18.143-18.592a732 732 0 0 0 3.54-5.728c.131-.245 8.892 1.166 14.249 2.294 2.553.537 3.25.355 3.25-.852 0-2.199-4.925-6.039-9.813-7.652-2.303-.76-4.187-1.851-4.187-2.424 0-.574 1.761-6.464 3.914-13.09 6.43-19.792 8.227-26.528 7.602-28.496-.668-2.108-2.334-2.971-7.819-4.053-2.663-.525-4.197-.356-5.117.564-.722.722-2.547 4.856-4.054 9.187s-4.273 9.984-6.145 12.564c-3.817 5.26-11.304 11.163-12.562 9.905-.904-.904 1.703-11.624 5.596-23.008 1.371-4.009 2.252-7.915 1.958-8.68-.671-1.749-5.667-3.531-9.9-3.531-1.775 0-3.774.657-4.44 1.461-.667.803-3.085 7.205-5.373 14.227l-4.16 12.768-4.328 3.272c-2.38 1.8-5.003 3.272-5.829 3.272-1.171 0-1.348-.716-.803-3.25.384-1.788 2.247-7.405 4.14-12.483 4.104-11.008 4.144-15.584.16-18.546-3.942-2.93-8.557-1.68-14.922 4.042l-5.228 4.701.682-3.634c.504-2.684.265-4.051-.915-5.23-2.765-2.765-6.099-2.952-10.932-.612-2.49 1.205-5.92 3.839-7.622 5.852-2.644 3.127-2.978 3.296-2.295 1.16.439-1.375.82-3.85.846-5.5l.046-3-6.134-.295c-4.647-.223-6.532.104-7.778 1.35m-107.195 6.027c.334.87.607 2.895.607 4.5s.45 2.918 1 2.918c2.822 0-.79 11.413-5.612 17.735-1.358 1.781-3.408 3.741-4.556 4.355-1.612.863-2.281.809-2.944-.237-1.48-2.335-.967-10.387 1.082-16.998 1.805-5.822 7.021-13.855 8.996-13.855.451 0 1.093.712 1.427 1.582M950 490.268c0 1.247-1.134 3.936-2.519 5.975-2.448 3.602-6.152 6.42-7.14 5.431-1.159-1.158 6.814-13.674 8.71-13.674.522 0 .949 1.021.949 2.268m511.583 2.259c-.349 1.39-2.069 4.877-3.823 7.75-5.136 8.415-14.911 21.905-15.469 21.347-1.213-1.213 17.389-31.624 19.343-31.624.321 0 .297 1.137-.051 2.527M905.08 495.15c2.564 4.79-1.689 18.14-7.605 23.875-2.967 2.875-3.601 3.115-5.05 1.913-1.356-1.126-1.575-2.742-1.207-8.907.301-5.024 1.167-8.924 2.603-11.715 2.305-4.481 5.547-7.316 8.366-7.316.959 0 2.26.967 2.893 2.15m-71.661 4.07c.371 2.321 1.195 4.542 1.831 4.935 2.725 1.684-5.621 19.211-10.6 22.262-1.4.858-2.085.667-3.296-.917-1.138-1.489-1.385-3.442-.968-7.641.308-3.103 1.508-8.172 2.665-11.266 2.246-6.002 6.302-11.593 8.41-11.593.735 0 1.572 1.803 1.958 4.22m491.476 8.565c-1.287 3.399-4.578 6.98-8.095 8.81-1.486.773-2.944 1.405-3.241 1.405s.841-2.246 2.53-4.99c3.236-5.26 7.57-9.339 8.99-8.461.465.287.382 1.743-.184 3.236m83.481 9.014c.271.439-.499 2.567-1.712 4.729-1.241 2.212-3.932 4.9-6.155 6.147-2.173 1.219-4.151 2.016-4.396 1.771s1.268-2.934 3.363-5.976c4.466-6.484 7.575-8.815 8.9-6.671m-205.771 27.998c-2.306 4.459-9.797 11.535-14.418 13.619-2.244 1.012-4.789 1.567-5.656 1.234-4.225-1.621-2.396-7.387 3.603-11.357 3.543-2.345 16.959-7.534 17.661-6.831.194.194-.342 1.694-1.19 3.335m280.937 8.932c-5.983 1.52-10.122 7.368-9.093 12.849.875 4.666 4.728 7.422 10.374 7.422 7.4 0 13.177-5.091 13.177-11.613 0-3.585-1.612-6.135-4.98-7.877-2.902-1.5-5.728-1.733-9.478-.781M959 556.703c-8.363.658-21.448 3.371-31.5 6.531-5.5 1.729-15.85 6.12-23 9.757-11.571 5.887-34.589 19.892-53.708 32.678-3.689 2.468-9.429 7.395-12.754 10.949-6.34 6.778-9.584 12.288-12.528 21.277-1.376 4.2-1.651 7.413-1.244 14.5.466 8.102 2.338 15.584 6.216 24.855.644 1.539.087 1.751-4.625 1.76-6.775.012-14.224 3.366-18.635 8.391-4.208 4.791-13.574 23.543-15.202 30.432-2.186 9.256.293 21.536 6.597 32.667 1.557 2.75 5.844 7.925 9.526 11.501l6.695 6.5-1.531 2c-.842 1.099-2.681 4.474-4.086 7.499-1.983 4.269-2.574 7.179-2.638 13-.072 6.487.293 8.139 2.698 12.232 1.53 2.602 3.668 5.205 4.75 5.785L816 810.07l.017-3.785.017-3.785 2.059 3.216c1.806 2.819 7.491 7.284 9.275 7.284.348 0 .632-1.209.632-2.687v-2.687l2.935 2.811 2.934 2.812 1.566-3.747c.861-2.06 1.565-4.054 1.565-4.43 0-1.395 5.126-7.57 7.275-8.765 1.224-.68 2.507-1.252 2.852-1.272.345-.019.411 1.882.147 4.225-.69 6.121 1.359 12.573 5.217 16.431 1.822 1.822 2.929 3.55 2.46 3.839s-2.52.59-4.557.666c-2.963.112-4.25-.47-6.425-2.905-1.496-1.674-2.939-3.662-3.208-4.417-.86-2.423-2.036-.063-2.53 5.073l-.479 4.99-1.962-1.049c-1.079-.578-2.174-.837-2.434-.577-.377.377 1.777 5.984 3.364 8.758.412.72-10.621-.618-12.97-1.572-1.393-.566-1.75-.195-1.75 1.819 0 1.392 1.225 3.986 2.722 5.766l2.722 3.235-5.472-.698c-7.15-.912-15.033-4.786-19.052-9.363-7.248-8.255-10.737-21.757-8.853-34.256.538-3.575 2.242-9.087 3.786-12.25 1.543-3.163 2.51-5.75 2.148-5.75-1.773 0-10.445 6.705-13.51 10.446-4.957 6.049-6.787 11.674-6.852 21.054-.042 6.209.442 9.098 2.165 12.905 1.221 2.697 2.044 5.081 1.828 5.297-.846.845-7.494-9.466-9.018-13.987-2.527-7.491-1.996-14.163 1.926-24.215l.78-2-2.559 2.33c-1.408 1.281-3.828 5.106-5.38 8.5-2.403 5.258-2.815 7.426-2.784 14.67.025 6.081.633 10.13 2.136 14.229 1.155 3.151 3.023 7.023 4.149 8.605l2.048 2.877-4.543 3.263c-10.958 7.869-19.208 23.676-20.108 38.526-.561 9.254 1.271 18.535 5.391 27.312 3.582 7.628 14.899 18.908 22.845 22.767l6.014 2.921 1.726 6.97c.949 3.833 2.907 9.385 4.352 12.338 3.396 6.942 12.888 17.055 19.264 20.525 2.756 1.5 8.236 3.546 12.18 4.548 4.063 1.032 6.506 2.075 5.638 2.408-2.468.947-15.603 18.59-19.288 25.908-4.681 9.294-8.396 22.691-9.098 32.803-.414 5.955-1.153 9.304-2.469 11.186-3.513 5.023-7.866 15.468-9.335 22.402-.805 3.801-1.472 11.76-1.482 17.684l-.017 10.773-6.474 12.829c-3.561 7.056-7.18 15.483-8.043 18.728-.863 3.244-2.012 11.182-2.552 17.64-1.03 12.315-1.568 14.363-9.928 37.758-2.85 7.975-6.279 19.225-7.621 25-1.438 6.191-2.691 15.449-3.053 22.559-.658 12.901.418 23.436 3.738 36.608 1.063 4.216 1.933 8.063 1.933 8.549s-5.489 3.336-12.199 6.333c-6.709 2.998-18.508 8.39-26.22 11.981l-14.021 6.53-5.988 8.47c-3.294 4.659-12.243 16.993-19.887 27.411-7.645 10.417-14.478 20.317-15.186 22s-2.881 11.384-4.829 21.559-5.146 23.599-7.106 29.832c-3.522 11.196-4.692 21.168-2.485 21.168 2.256 0 14.563-5.361 17.729-7.723 1.82-1.357 5.641-5.674 8.492-9.594l5.183-7.127.734 4.972c.404 2.735 1.21 11.947 1.791 20.472 1.011 14.833 2.09 21.422 4.137 25.263.773 1.452 1.328 1.564 3.147.636 1.214-.62 4.748-3.602 7.853-6.628l5.646-5.501.661 3.011c.364 1.656 1.541 3.808 2.617 4.781l1.956 1.77 4.609-4.81c4.86-5.073 8.769-12.488 9.916-18.812l.688-3.79 2.376 5.129c3.147 6.792 6.184 10.951 7.997 10.951.876 0 3.37-3.92 6.141-9.65 3.953-8.177 4.672-10.582 4.707-15.75.022-3.355-.292-9.7-.7-14.1l-.74-8 8.24-6.661a1347 1347 0 0 0 16.667-13.744c8.179-6.876 17.266-11.572 21.074-10.893 1.442.257.597 4.048-6.195 27.798-12.025 42.043-16.429 60.104-18.656 76.5-2.729 20.084-3.477 29.5-2.346 29.5 1.343 0 12.569-27.119 18.241-44.066 2.681-8.012 7.788-26.068 11.349-40.125 7.137-28.177 10.072-37.618 15.037-48.365 4.867-10.532 10.855-18.916 19.98-27.974 8.587-8.524 18.938-15.219 28.52-18.446 3.077-1.037 10.765-2.644 17.083-3.571 12.604-1.849 22.699-1.526 36.487 1.17 9.673 1.892 17.793 5.018 28.759 11.07 11.341 6.261 23.407 14.431 42.241 28.604 18.974 14.279 29.34 22.981 51.5 43.232 9.075 8.293 17.168 15.484 17.985 15.979 1.937 1.175-4.856-8.241-11.909-16.508-18.023-21.123-39.018-41.518-55.315-53.734-4.829-3.619-8.628-6.733-8.442-6.918.447-.447 43.834 15.462 59.681 21.884 30.41 12.324 67.581 30.338 111 53.792 40.376 21.811 57.567 31.572 67.374 38.253 10.595 7.219 29.242 25.584 38.126 37.551l6 8.082 7.809.045 7.808.045-6.308-9.122c-3.47-5.017-10.379-13.676-15.353-19.242-9.32-10.43-23.791-23.636-28.799-26.282-1.564-.826-2.618-1.726-2.343-2.001.764-.764 5.339 1.837 19.765 11.236 17.572 11.449 29.152 20.109 42.39 31.702 6.032 5.283 11.161 9.413 11.396 9.177.714-.714-4.763-8.503-12.053-17.141-7.853-9.305-18.891-19.278-29.5-26.654-3.997-2.778-7.075-5.243-6.841-5.478.511-.51 19.004 9.274 29.529 15.624 8.181 4.935 19.868 13.538 29.912 22.019 7.478 6.314 20.734 15.162 22.716 15.162.889 0 1.372-1.177 1.372-3.345 0-4.48-5.93-13.459-14.093-21.34-7.304-7.051-10.156-9.354-14.407-11.629-1.65-.883-2.481-1.624-1.847-1.646 1.96-.068 21.299 6.888 32.347 11.636 5.775 2.481 16.425 7.619 23.666 11.418s13.45 6.906 13.798 6.906c1.471 0-5.792-9.089-11.449-14.326-3.371-3.121-5.737-5.674-5.259-5.674 1.35 0 12.916 7.169 24.365 15.102 11.996 8.312 21.422 13.684 22.364 12.745 1.049-1.046-3.051-8.222-8.3-14.526-2.666-3.202-6.731-7.125-9.034-8.72-2.303-1.594-4.005-3.08-3.783-3.302.222-.223 4.618 1.241 9.768 3.253 9.705 3.79 36.342 16.817 45.741 22.369 7.936 4.688 9.155 3.617 3.326-2.921-2.697-3.025-5.634-6.919-6.528-8.653l-1.626-3.152 1.558-.598c.856-.328 3.32-.597 5.475-.597s3.914-.338 3.909-.75c-.015-1.331-11.207-8.005-21.991-13.114-5.775-2.736-16.8-7.067-24.5-9.625-14.113-4.689-37.802-11.171-53.5-14.64l-8.5-1.878 16.5.565c20.138.688 36.367-.684 41.988-3.552 2.207-1.126 4.012-2.652 4.012-3.391 0-2.453-3.906-6.36-7.994-7.996-6.171-2.469-20.251-4.617-30.387-4.636l-9.119-.016 7.25-3.528c3.987-1.94 7.25-4.13 7.25-4.867 0-3.343-11.58-3.4-24.122-.119l-11.878 3.109c-1.587.416-.491-.725 3-3.124 7.35-5.051 18.792-16.594 23.488-23.697l3.807-5.758 4.602 2.679c8.45 4.92 20.23 13.33 30.467 21.751 11.069 9.106 32.576 30.033 45.054 43.839 4.351 4.814 8.091 8.573 8.311 8.353.551-.552-5.905-13.223-10.876-21.346-6.926-11.314-14.772-21.288-25.291-32.146-5.534-5.713-13.744-13.363-18.245-17-4.5-3.637-13.541-9.945-20.091-14.018l-11.909-7.405-1.688-4.553c-.928-2.504-4.642-8.95-8.254-14.323l-6.566-9.769 1.607-11.273c3.292-23.084 3.714-30.248 4.263-72.326.387-29.676.912-43.507 1.691-44.512.622-.802 6.789-6.25 13.705-12.105s13.288-11.734 14.158-13.062c1.297-1.979 1.577-5.645 1.556-20.341-.022-15.333.353-19.862 2.593-31.31 1.44-7.361 2.618-13.963 2.618-14.671s-2.025-4.308-4.5-7.999-4.5-6.901-4.5-7.135 2.052-5.135 4.56-10.894c5.318-12.215 7.848-22.878 7.063-29.769-.304-2.669-1.704-6.817-3.111-9.219-2.374-4.05-9.984-10.429-12.442-10.429-.706 0-1.071-4.509-1.074-13.25-.008-27.408-6.233-49.693-19.063-68.253-6.175-8.932-16.364-18.792-24.574-23.779-8.011-4.866-21.797-9.349-33.261-10.816l-9.402-1.203 3.402-1.748c5.146-2.645 12.303-9.342 15.787-14.771 3.724-5.805 7.129-18.353 7.078-26.09-.02-3.074-.72-8.74-1.555-12.59s-1.533-7.675-1.55-8.5.939-4.875 2.126-9c1.749-6.075 2.079-9.353 1.74-17.25-.377-8.768-.789-10.497-4.088-17.171-2.497-5.053-5.324-8.911-8.857-12.088-2.854-2.566-7.338-5.754-9.965-7.085-5.333-2.703-15.555-5.369-20.671-5.391-2.813-.013-3.236-.299-2.609-1.765 3.715-8.697 4.604-25.011 1.871-34.318-3.857-13.13-12.745-24.519-24.522-31.421-3.197-1.874-11.544-5.551-18.548-8.171s-14.553-6.151-16.776-7.846-5.272-4.914-6.774-7.151c-1.503-2.237-5.832-13.467-9.62-24.956s-8.754-24.658-11.036-29.267c-10.99-22.201-26.927-40.007-47.965-53.592-4.036-2.605-11.48-6.699-16.544-9.098-9.117-4.319-23.283-8.409-29.17-8.423-2.333-.005-4.369-1.284-8.652-5.432-3.081-2.984-7.333-6.513-9.45-7.842-5.829-3.661-16.65-7.696-24.84-9.263-4.034-.772-15.811-1.878-26.171-2.458-10.361-.581-23.112-1.484-28.337-2.007-9.358-.937-14.131-.999-23-.302m42.874 11.93c12.817 2.262 23.142 5.895 29.316 10.317 3.055 2.187 7 6.229 8.766 8.981 1.766 2.753 4.578 8.281 6.249 12.287 1.67 4.005 3.202 7.464 3.403 7.686s1.098-1.35 1.994-3.493c1.131-2.708 1.462-5.506 1.083-9.172l-.544-5.275 2.834 2.018c1.558 1.11 3.363 2.018 4.009 2.018 1.857 0 .168-5.918-3.069-10.75-1.566-2.337-2.436-4.25-1.933-4.25 1.413 0 12.829 9.778 14.025 12.013.863 1.613 2.14 1.999 6.778 2.053l5.715.066-5.303 1.427c-2.916.785-6.291 1.985-7.5 2.668l-2.197 1.241 4 .539 4 .538-5.057 1.744c-2.782.959-6.607 3.09-8.5 4.735l-3.443 2.992 6.5-.578 6.5-.577-7 3.512c-3.85 1.931-8.575 4.918-10.5 6.638s-2.95 2.851-2.278 2.516c.672-.336 5.172-1.061 10-1.612 13.259-1.512 28.01.246 42.278 5.039 6.325 2.124 12.34 4.197 13.366 4.606 1.598.636 1.718.469.833-1.158-.568-1.046-2.533-3.436-4.366-5.311l-3.333-3.408 3 .74c1.65.407 5.233 1.808 7.961 3.114s5.128 2.207 5.331 2.004c.624-.624-1.896-4.891-4.601-7.791-3.845-4.122-.818-3.44 7.18 1.618 6.337 4.007 19.629 16.026 19.629 17.749 0 .408-3.369-1.557-7.487-4.367s-7.758-4.838-8.09-4.507 1.172 3.225 3.34 6.43c4.186 6.188 13.237 21.834 13.237 22.882 0 .343-2.227-1.554-4.95-4.216-5.039-4.927-17.05-12.3-17.05-10.466 0 .555.433 1.277.963 1.604 1.073.664 11.743 18.512 12.713 21.267.369 1.046-.957.303-3.279-1.837-2.143-1.976-5.313-4.561-7.044-5.745l-3.147-2.151 5.79 11.244c8.585 16.673 8.595 17.475.129 9.495-3.94-3.712-7.579-6.75-8.088-6.75-.935 0 5.949 16.382 8.824 21 3.685 5.917 10.515 13.948 13.927 16.376 2.029 1.443 3.168 2.624 2.533 2.624s-3.281-.911-5.88-2.025-4.904-1.845-5.124-1.626c-.92.921 5.579 7.274 11.073 10.825 3.256 2.104 5.181 3.826 4.277 3.826-3.154 0-20.396-6.018-28.279-9.87-4.37-2.136-11.308-6.561-15.417-9.833-7.246-5.771-10.881-9.297-9.584-9.297.348 0 4.377 2.025 8.955 4.5 4.577 2.475 8.653 4.5 9.058 4.5s-2.7-4.05-6.9-9-7.435-9-7.19-9 2.061.675 4.036 1.5 3.828 1.5 4.12 1.5c1.366 0-7.225-10.481-13.079-15.957-5.597-5.236-6.134-6.02-3.715-5.424 1.555.383 4.75 1.513 7.099 2.512l4.271 1.816-.983-1.836c-1.396-2.609-7.187-7.516-12.646-10.715-7.298-4.277-16.592-6.478-27.413-6.494q-15.985-.023-25.381 5.61l-4.119 2.469 4.701.01c2.585.005 7.085.51 10 1.122 5.17 1.086 18.303 6.982 20.299 9.114.693.74.467.88-.738.456-.956-.336-4.106-.921-7-1.299l-5.262-.688 6.237 5.228c3.431 2.875 10.9 10.706 16.598 17.402 5.699 6.696 12.231 13.862 14.516 15.924 2.285 2.063 3.695 3.75 3.132 3.75-2.172 0-9.792-5.614-16.733-12.326-3.987-3.857-7.25-6.439-7.25-5.739s1.661 4.434 3.692 8.298c4.209 8.011 12.897 17.185 19.415 20.503 2.416 1.23 3.58 2.242 2.587 2.25-2.049.016-12.422-4.944-16.678-7.975-1.554-1.106-3.102-2.011-3.441-2.011s.272 1.74 1.357 3.867 5.811 7.636 10.502 12.243c5.629 5.528 9.226 9.997 10.58 13.145 1.39 3.23 2.496 9.409 3.427 19.151.757 7.911 1.925 15.443 2.596 16.739 2.217 4.28 4.22 5.855 7.449 5.855 1.746 0 5.389-1.123 8.095-2.496 2.705-1.373 5.504-2.498 6.219-2.5.714-.002 2.598.668 4.186 1.489 2.786 1.441 6.014 1.16 6.014-.523 0-.449-1.179-2.218-2.621-3.931l-2.62-3.115 1.868-2.064c2.48-2.741 6.707-4.86 9.692-4.86 2.019 0 2.522.621 3.039 3.75 1.166 7.052.643 16.927-1.298 24.515-3.749 14.66-11.279 29.867-16.474 33.271-3.261 2.136-8.92 2.13-12.192-.014-1.409-.923-3.266-3.33-4.129-5.35l-1.567-3.672-1.77 4c-.974 2.2-2.974 9.4-4.444 16-3.173 14.241-7.897 26.979-13.511 36.43-9.7 16.326-40.572 44.847-58.973 54.482-3.575 1.872-9.425 4.366-13 5.544-7.297 2.402-20.361 3.667-27.238 2.636l-4.555-.684-5.161-6.94c-5.142-6.915-14.916-15.967-22.217-20.576-2.113-1.334-7.013-4.061-10.888-6.06-4.526-2.335-7.561-4.631-8.485-6.418-.792-1.53-2.842-9.9-4.555-18.598-1.714-8.699-3.967-18.089-5.006-20.867s-3.354-6.431-5.143-8.116c-3.402-3.206-8.372-5.333-12.46-5.333-1.404 0-5.711-2.513-10.318-6.02-6.371-4.85-8.099-6.744-8.894-9.75-.958-3.617-3.08-22.064-3.08-26.766v-2.324l3.243.93c1.783.511 4.657.664 6.385.34 1.824-.342 3.426-.132 3.816.5.381.617-.035 1.09-.958 1.09-3.125 0-1.019 3.483 3.476 5.75 3.239 1.633 6.214 2.25 10.856 2.25 6.002 0 17.833-2.336 19.38-3.827.384-.37-4.116-.674-10-.675-8.619-.001-11.378-.371-14.198-1.903-3.335-1.813-5.899-4.297-5.968-5.782-.058-1.239 12.37-6.754 16.718-7.419l4.25-.65v2.678c0 4.047 2.549 8.149 5.936 9.552 1.876.777 4.466.987 6.797.552 2.654-.496 5.087-2.081 8.235-5.365 5.226-5.452 8.925-7.743 9.489-5.875.202.668.842 2.703 1.423 4.523s1.341 7.22 1.689 12c.531 7.321.221 10.452-1.969 19.869-1.43 6.148-2.598 12.448-2.596 14 .005 4.038 3.313 8.958 6.423 9.553 1.441.275 2.885.073 3.209-.45.343-.556 3.035-.667 6.476-.268 3.238.376 5.888.409 5.888.073s-2.417-2.157-5.372-4.047c-7.088-4.534-11.634-9.182-11.604-11.866.012-1.195.912-5.518 2-9.605 2.176-8.183 2.569-19.667.964-28.131-1.247-6.575-7.212-18.881-10.698-22.071l-2.586-2.366.741 2.5a64 64 0 0 1 1.241 5.107c.77 4.021-2.15 4.482-6.534 1.032-2.009-1.58-5.677-3.941-8.152-5.247-3.863-2.039-5.915-2.376-14.5-2.383l-10-.009-4.812 3c-2.646 1.65-6.124 3.675-7.728 4.5s-2.926 2.261-2.938 3.191c-.031 2.4-1.633 3.087-4.109 1.763-1.539-.824-2.43-.837-3.22-.047-.791.791-.761 1.425.107 2.293 1.956 1.956 1.371 2.835-1.128 1.696-1.826-.832-3.028-3.287-5.574-11.384l-3.247-10.324 1.489-2.844c2.234-4.267 7.859-9.254 11.67-10.347 4.26-1.222 9.079.015 18.458 4.739C928.341 763.212 936.584 766 941.9 766c5.876 0 7.849-1.694 6.041-5.186-2.8-5.408-6.542-7.798-14.441-9.221-2.2-.396-8.275-2.087-13.5-3.758-10.808-3.457-19.819-4.014-24.633-1.525-1.66.858-4.706 3.43-6.77 5.714s-3.889 4.001-4.056 3.815.801-3.939 2.151-8.339c3.796-12.37 4.12-25.75.817-33.75-.568-1.374-.217-1.754 1.634-1.766 3.741-.027 9.981-4.169 12.003-7.968 1.02-1.917 1.854-5.333 1.854-7.591 0-3.64-1.459-9.814-3.437-14.545-.587-1.404.227-1.609 6.13-1.54 7.844.092 18.307-1.157 18.307-2.185 0-.385-1.578-1.55-3.506-2.588s-3.332-2.063-3.119-2.275c.213-.213 5.036.813 10.717 2.28 13.856 3.578 19.979 3.117 30.906-2.331 4.401-2.194 8.002-3.733 8.002-3.42s-1.183 1.805-2.63 3.314l-2.629 2.745 5.379-1.272c8.623-2.038 15.852-6.362 23.63-14.136 3.987-3.985 7.25-7.05 7.25-6.809s-.708 1.806-1.574 3.48c-.865 1.673-1.357 3.26-1.091 3.525.81.81 8.463-4.711 10.196-7.355.896-1.368 1.851-2.264 2.123-1.993.271.272-.215 1.864-1.08 3.537-.866 1.674-1.574 3.319-1.574 3.656 0 1.475 10.901-5.48 16.07-10.253 7.462-6.889 10.135-12.951 10.698-24.26.348-6.978.038-9.525-1.733-14.221-2.624-6.959-8.826-13.626-16.108-17.316-5.301-2.686-12.927-5.662-12.927-5.044 0 .181 1.517 1.985 3.37 4.009 7.65 8.352 12.329 21.606 11.255 31.882-.335 3.213-1.05 6.595-1.587 7.515-.71 1.217-.988-.103-1.017-4.825-.052-8.403-3.061-14.95-9.717-21.143-4.985-4.639-8.615-6.927-13.278-8.369l-2.475-.765 2.58 3.388c4.051 5.32 6.581 10.933 7.85 17.414.643 3.286 1.023 8 .844 10.475l-.325 4.5-1.759-5.684c-.967-3.126-3.239-7.624-5.048-9.996s-5.706-6.001-8.66-8.065-5.489-3.632-5.636-3.486c-.146.147 1.115 3.144 2.803 6.662 2.565 5.342 3.135 7.89 3.464 15.482l.394 9.087-2.031-5c-1.117-2.75-3.583-6.8-5.48-9l-3.449-4 .578 5.149c.642 5.712-.429 18.351-1.555 18.351-.395 0-1.261-1.498-1.923-3.328-.662-1.831-2.367-4.418-3.789-5.75l-2.586-2.422.7 3.75c.385 2.063.309 3.75-.168 3.75s-1.432-1.278-2.124-2.84c-1.493-3.372-11.065-10.766-9.842-7.602.903 2.336 1.334 5.015 2.082 12.942l.565 6-1.861-3.016c-2.233-3.619-7.07-8.561-11.389-11.636l-3.152-2.245.823 1.948c3.381 8.002 5.543 15.096 5.543 18.191v3.651l-2.473-4.947c-1.36-2.72-4.504-7.261-6.985-10.09-5.409-6.167-15.778-14.005-24.119-18.23-9.765-4.947-17.385-6.573-30.923-6.598-10.015-.019-13.12.364-18.773 2.314-3.725 1.285-8.975 4.077-11.666 6.204-3.48 2.751-5.856 5.822-8.227 10.634-2.951 5.989-3.373 7.874-3.674 16.424-.302 8.567-.014 10.605 2.55 18.043 2.939 8.525 11.325 22.853 13.377 22.853.62 0 .89-.617.6-1.372-.289-.755-.849-3.567-1.243-6.25l-.716-4.878 5.386 7.216c2.962 3.969 5.729 7.232 6.148 7.25.419.019.496-1.879.172-4.216-.503-3.62.187-2.618 4.649 6.75 4.403 9.245 5.313 12.136 5.701 18.119.273 4.206.015 7.888-.631 9-.952 1.639-1.096 1.459-1.123-1.401-.035-3.835-2.138-9.269-4.99-12.894-1.418-1.803-2.14-2.155-2.443-1.191-.236.752-1.255 3.617-2.263 6.367l-1.834 5-.281-3c-.323-3.435-3.172-10.5-4.235-10.5-.392 0-1.456 1.948-2.366 4.33-.909 2.381-2.702 5.751-3.984 7.488-2.492 3.378-9.322 9.182-10.805 9.182-.493 0 .676-1.572 2.597-3.492C846 716.933 849 709.292 849 703.761c0-4.991-2.143-11.879-7.636-24.547-7.26-16.741-8.732-22.762-7.991-32.669.438-5.846 1.329-9.412 3.362-13.449 5.584-11.095 17.36-19.977 32.06-24.18 4.827-1.381 9.863-1.916 18.024-1.916 8.932 0 14.289.649 25.348 3.072 7.713 1.689 14.236 2.858 14.497 2.598s-1.647-2.093-4.239-4.072L917.712 605l2.894.035c1.592.019 7.957 1.767 14.144 3.885s11.248 3.565 11.246 3.215c-.008-1.476-4.412-7.805-6.852-9.849l-2.644-2.214 2.5-.028c1.375-.016 6.1.893 10.5 2.019s9.091 2.316 10.425 2.643l2.425.594-2.214-3.11c-1.218-1.71-3.884-4.499-5.925-6.197-4.54-3.777-14.378-8.584-19.508-9.532-2.088-.386-3.588-.909-3.333-1.164s4.888.085 10.296.755c5.409.669 15.615 2.988 22.681 5.152s13.016 3.766 13.223 3.56c.716-.717-5.929-8.012-9.988-10.964l-4.082-2.968 3.5.54c1.925.297 5.75.81 8.5 1.141s5.896.865 6.992 1.188l1.992.587-1.492-1.802c-.821-.992-4.192-3.081-7.492-4.644l-6-2.84 3.195-.001c3.075-.001 27.629 3.353 33.805 4.618l3 .614-2.5-2.715c-3.278-3.561-10.101-6.972-18.071-9.033-3.536-.915-6.631-1.863-6.878-2.106-.678-.67 10.382.588 19.823 2.254m17.532 15.462c2.678 2.973 5.846 6.98 7.04 8.905 3.343 5.389 6.405 13.201 8.112 20.694a780 780 0 0 0 2.269 9.72l.72 2.913 2.653-3.153c3.119-3.706 5.289-12.755 4.31-17.971-1.023-5.453-5.113-12.806-9.645-17.338-4.372-4.372-9.979-7.267-16.347-8.441l-3.982-.734zm38.328 40.993c-5.159 1.216-10.96 4.296-15.385 8.168-3.74 3.274-12.349 14.273-12.349 15.777 0 .448 1.237.206 2.75-.536 4.859-2.385 17.893-4.497 27.75-4.497 13.57 0 29.8 3.658 40.847 9.207 2.116 1.063 4.066 1.713 4.334 1.446.954-.955-6.481-11.326-10.723-14.957-2.375-2.033-3.674-3.688-2.888-3.679.787.01 4.788.889 8.892 1.955s7.613 1.786 7.798 1.602c.185-.185-1.796-2.159-4.401-4.386-5.765-4.927-13.077-8.581-20.158-10.072-6.16-1.297-21.013-1.313-26.467-.028M888.5 643c-.34.55-1.068 1-1.618 1s-.722-.45-.382-1 1.068-1 1.618-1 .722.45.382 1m-3.724 2.75c-2.317 2.642-4.776 7.894-4.776 10.2 0 1.128.268 2.05.597 2.05s2.641-1.8 5.14-4c2.5-2.2 4.905-4 5.346-4s-.292 1.913-1.629 4.25c-2.874 5.028-3.338 8.443-.682 5.028 2.038-2.62 8.188-7.278 9.609-7.278.546 0-.165 1.237-1.58 2.75-4.6 4.917-6.138 9.179-6.222 17.25-.044 4.125.284 9.075.728 11l.807 3.5-3.024-4.694c-1.663-2.581-3.323-5.887-3.689-7.345-.49-1.953-.89-2.297-1.518-1.306-.469.74-.859 2.898-.868 4.795-.009 2.012-.376 3.054-.882 2.5-1.495-1.638-4.133-10.656-4.133-14.128 0-1.827-.45-3.322-1-3.322s-1.002.112-1.005.25-1.147 2.95-2.544 6.25l-2.54 6 .323-7c.217-4.723 1.065-8.527 2.607-11.695 2.302-4.733 9.509-12.805 11.432-12.805.57 0 .346.788-.497 1.75m-55.047 38.214c2.442 1.108 5.082 3.318 6.247 5.228 4.737 7.77.424 17.73-7.703 17.786-2.351.016-3.67-.655-4.86-2.471-1.049-1.601-1.401-3.419-.983-5.084.887-3.536-.789-2.294-2.896 2.146-1.074 2.264-1.464 4.59-1.05 6.266.508 2.059.386 2.398-.537 1.491-.658-.646-1.477-3.786-1.821-6.978l-.626-5.803-1.753 3.978c-1.993 4.522-2.558 11.116-1.455 16.977l.753 4-1.632-2c-3.122-3.827-5.369-10.031-5.391-14.884-.03-6.705 1.738-12.013 5.394-16.193 2.827-3.233 8.905-6.303 12.584-6.357.825-.012 3.403.842 5.729 1.898m208.005 31.082c-5.959 1.47-11.457 4.614-22.777 13.023-10.261 7.622-19.719 12.901-23.148 12.921-.93.006-1.89.347-2.133.76-.938 1.594 1.402 5.327 4.539 7.24 1.807 1.101 4.905 2.004 6.886 2.006 5.982.006 12.72-4.425 23.399-15.387 11.834-12.148 15.827-14.22 25.685-13.326 4.404.399 8.483 1.708 14.233 4.566 4.434 2.203 8.229 3.837 8.435 3.631s-2.039-2.711-4.989-5.566-7.614-6.221-10.364-7.478c-5.841-2.671-14.421-3.708-19.766-2.39m174.375 16.493c8.303 2.938 17.572 6.831 20.598 8.651 3.025 1.821 7.891 5.882 10.812 9.025 7.018 7.552 9.751 14.589 9.82 25.285.029 4.4-.472 8.9-1.113 10-.994 1.706-1.17 1.224-1.196-3.282-.037-6.568-3.234-16.282-7.153-21.74-1.636-2.278-5.09-5.745-7.676-7.706-4.472-3.393-11.215-6.772-13.51-6.772-.586 0 .096 1.237 1.516 2.75 3.987 4.248 8.442 12.19 10.2 18.182 2.117 7.218 2.025 9.287-.249 5.568-1.008-1.65-2.596-3.629-3.528-4.399l-1.694-1.399 1.032 2.714c.568 1.493 1.032 5.818 1.032 9.612 0 7.48-2.492 15.634-6.105 19.972-1.706 2.05-1.959 2.14-1.406.5 1.18-3.492 1.798-12.219 1.072-15.115l-.701-2.792-2.275 5.595c-3.048 7.5-11.608 17.895-11.579 14.062.003-.413.475-2.444 1.05-4.513s.765-4.218.422-4.773-4.486 2.606-9.208 7.023c-4.721 4.418-8.751 7.865-8.955 7.661s.092-1.587.657-3.074c1.413-3.716 1.212-14.43-.338-18.065l-1.275-2.992-1.234 4.902c-2.065 8.199-6.002 16.498-13.232 27.888-3.791 5.974-6.893 10.998-6.893 11.165 0 .168 2.588-.759 5.75-2.06 6.486-2.667 8.68-2.986 7.994-1.162-1.448 3.853-1.781 5.75-1.011 5.75.477 0 1.295-.39 1.817-.867.991-.905 10.138-4.133 11.71-4.133.497 0 .004 1.462-1.094 3.25-2.013 3.274-3.93 10.75-2.757 10.75.347 0 2.464-1.157 4.705-2.572s4.27-2.377 4.508-2.139c.239.239-.029 1.65-.594 3.137s-1.028 3.569-1.028 4.627c0 1.699.647 1.508 5.583-1.649 3.071-1.964 5.807-3.347 6.081-3.073s.012 1.407-.583 2.518-1.081 2.993-1.081 4.183v2.164l3.25-2.174c3.909-2.614 15.254-8.022 16.832-8.022.619 0-.331 1.658-2.11 3.685-1.779 2.026-4.296 5.964-5.594 8.75-1.686 3.622-2.361 6.86-2.368 11.365-.01 6.553 1.487 10.767 5.357 15.074l2.133 2.374-2.5-.74c-3.197-.946-8.628-5.007-10.465-7.825-2.26-3.465-3.528-10.78-2.59-14.939.464-2.059.52-3.744.124-3.744-1.191 0-4.718 4.269-6.61 8-.976 1.925-1.816 5.412-1.867 7.75s-.158 4.25-.238 4.25-1.542-2.177-3.25-4.838-3.104-5.585-3.104-6.5c0-2.932-1.807-1.777-3.034 1.941-.659 1.996-.917 5.452-.58 7.75l.61 4.147-2.494-4c-3.768-6.042-5.808-13.092-5.242-18.112.272-2.413.136-4.388-.301-4.388-1.346 0-4.876 6.462-5.785 10.589l-.862 3.911-1.283-4.5c-1.076-3.773-1.413-4.177-2.086-2.5-.441 1.1-.855 4.025-.92 6.5l-.117 4.5L1173 857c-2.458-4.652-2.913-6.685-2.953-13.185-.026-4.227.416-8.902.981-10.389s.828-2.903.583-3.148c-.92-.92-8.639 7.844-10.984 12.471-5.419 10.695-5.992 26.679-1.287 35.903 2.888 5.66 6.408 9.209 12.66 12.765 2.475 1.407 3.825 2.56 3 2.561-3 .005-11.593-4.807-15.35-8.596-4.431-4.469-8.168-11.298-9.204-16.82-.601-3.204-.879-3.539-1.709-2.057-1.514 2.706-.199 12.909 2.34 18.154 1.248 2.578 3.991 6.409 6.096 8.514s3.529 3.827 3.165 3.827c-.365 0-2.82-1.384-5.457-3.076-5.443-3.493-10.009-9.784-12.463-17.17-1.272-3.831-1.558-7.284-1.188-14.356.438-8.38.897-10.141 4.587-17.605l4.1-8.293-.587 5.25c-.323 2.888-.348 5.25-.056 5.25s3.092-4.291 6.222-9.537c3.13-5.245 9.926-15.462 15.102-22.705s10.359-15.664 11.516-18.713 2.338-8.311 2.624-11.692c.39-4.621-.026-7.942-1.676-13.376-1.208-3.976-3.343-9.085-4.744-11.353-3.747-6.065-10.032-12.359-16.723-16.75-3.248-2.131-5.346-3.874-4.663-3.874.684 0 4.224 1.667 7.868 3.705 7.676 4.293 19.976 15.575 24.837 22.782l3.363 4.986v-3.611c0-1.986-.68-5.537-1.511-7.892s-1.329-4.464-1.107-4.686c.762-.761 9.118 9.665 12.264 15.302l3.146 5.638.665-3.028c.791-3.603-.167-9.595-2.164-13.539-.792-1.564-1.256-3.027-1.032-3.252.225-.225 2.804 1.924 5.731 4.775l5.322 5.184-.708-4.426c-.389-2.434-1.778-6.341-3.086-8.682-1.309-2.341-2.159-4.256-1.89-4.256.27 0 2.591 1.604 5.158 3.565s4.831 3.079 5.028 2.487c.655-1.965-4.546-9.509-10.044-14.566-2.981-2.742-9.099-8.049-13.596-11.793s-8.176-7.231-8.176-7.749 2.253.678 5.006 2.656c3.158 2.269 10.582 5.57 20.103 8.939M820 733.911c5.924 2.01 14.099 2.307 19.999.726 3.024-.81 5.677-1.295 5.895-1.076.639.639-10.201 5.415-12.394 5.461l-2 .042 1.941 1.468c1.232.932 4.336 1.483 8.5 1.508l6.559.04-2.975 1.61c-1.636.885-5.911 1.806-9.5 2.047-7.543.506-11.959-.984-17.606-5.943-3.252-2.854-8.419-9.806-8.419-11.325 0-.314 1.462.515 3.25 1.842s4.825 2.947 6.75 3.6m-2.512 21.521c4.904 2.047 11.512 3.591 11.512 2.689 0-.366-1.541-1.496-3.425-2.511-3.159-1.701-9.673-7.61-8.389-7.61.308 0 2.754.975 5.437 2.167 3.596 1.598 7.504 2.281 14.877 2.602 7.401.321 11.159.03 14.461-1.123 2.453-.857 4.643-1.375 4.865-1.153.223.223-1.625 1.665-4.107 3.206-8.949 5.556-8.762 5.178-2.595 5.242 3.094.033 7.594-.634 10-1.481 2.407-.846 6.093-2.917 8.192-4.6s4.017-2.861 4.261-2.616c.245.245-2.034 2.789-5.063 5.655s-8.097 6.422-11.261 7.905c-5.106 2.393-6.937 2.696-16.274 2.696h-10.521l-6.585-3.242C816.66 760.2 806 751.103 806 748.861c0-.566 1.688.306 3.75 1.939 2.063 1.632 5.545 3.717 7.738 4.632m245.012-3.247c-2.2 1.538-5.575 3.094-7.5 3.457l-3.5.66 2.484-2.05 2.484-2.049-4.484-1.209c-2.641-.711-8.183-1.034-13.484-.784-7.156.337-10.024.951-14 2.999-2.75 1.416-5.857 3.523-6.905 4.683s-1.665 2.108-1.371 2.108 3.037-1.146 6.095-2.546c6.565-3.005 16.019-4.727 20.043-3.65 2.362.632 2.614.971 1.445 1.941-.778.646-5.399 2.53-10.268 4.186s-10.556 4.138-12.638 5.516c-4.089 2.706-15.183 16.824-13.681 17.409.503.196 4.597-2.168 9.097-5.251 4.501-3.084 10.505-6.454 13.344-7.488l5.161-1.879.663 3.531c.364 1.943 1.998 4.868 3.632 6.502l2.97 2.969 5.572-.462 5.573-.462-2.366 1.839c-1.301 1.012-4.166 2.343-6.366 2.96-9.051 2.536-9.221 2.725-2.5 2.784 7.501.066 12.942-1.994 17.619-6.672 3.338-3.338 6.075-8.867 4.947-9.994-.386-.387-1.562.415-2.612 1.782-1.264 1.645-1.912 1.978-1.916.985-.012-2.474 1.283-3.651 4.758-4.327 6.517-1.268 13.204-8.686 13.204-14.647v-2.171l-2.635 2.072c-1.449 1.14-3.898 2.073-5.442 2.073h-2.808l-.308-3.806-.307-3.807zm76.5 7.315c-.685.825-1.695 1.5-2.245 1.5-.558 0-.449-.663.245-1.5.685-.825 1.695-1.5 2.245-1.5.558 0 .449.663-.245 1.5m-96 12c0 2.809-1.16 3.217-2.964 1.044-1.39-1.675-.587-3.544 1.523-3.544.87 0 1.441.99 1.441 2.5m85-1.5c0 .55-.477 1-1.059 1s-.781-.45-.441-1 .816-1 1.059-1 .441.45.441 1m-2 1.515c0 1.176-6.689 4.474-9 4.437-2.042-.032-1.79-.293 1.375-1.421 2.132-.76 4.359-1.865 4.95-2.456 1.122-1.122 2.675-1.447 2.675-.56m-183.671 5.825c2.655 1.56 4.591 3.074 4.301 3.364s-1.968.025-3.728-.588c-4.627-1.613-20.692-1.387-26.493.373-2.7.819-5.091 1.494-5.314 1.5s.452-.953 1.5-2.13 3.705-2.991 5.905-4.03c3.047-1.438 5.787-1.821 11.5-1.607 6.123.229 8.387.802 12.329 3.118m75.671 6.614c.825.559 2.362 1.022 3.417 1.031 2.558.02 1.76-.552-1.917-1.375-2.191-.49-2.595-.397-1.5.344m-216.907 2.915c-1.124 1.579-2.549 4.166-3.168 5.75-1.538 3.937-1.286 17.582.397 21.6 2.023 4.826 6.392 9.595 10.901 11.895 2.184 1.114 4.134 1.862 4.334 1.662s-.967-2.369-2.593-4.82-3.851-7.156-4.943-10.456c-2.778-8.391-4.216-19.675-3.127-24.524.491-2.187.747-3.976.568-3.976s-1.245 1.291-2.369 2.869m338.907-.588c0 .77-1.392 4.186-3.094 7.592-2.956 5.915-3.264 9.746-.716 8.897.653-.218 2.077-1.587 3.163-3.042 2.281-3.054 3.525-13.067 1.76-14.158-.615-.38-1.113-.062-1.113.711m-13 2.248c0 1.39-1.388 5.278-3.084 8.638-2.238 4.432-2.757 6.313-1.89 6.849 3.601 2.225 8.974-3.215 8.974-9.086 0-4.422-1.502-8.93-2.975-8.93-.564 0-1.025 1.138-1.025 2.529m-188.336 2.038c.331.862.092 2.077-.531 2.7-.844.844-1.422.844-2.266 0-1.28-1.28-.487-4.267 1.133-4.267.585 0 1.333.705 1.664 1.567m333.277 16.136c8.084 3.863 15.761 10.833 19.064 17.307 1.072 2.1 2.418 5.914 2.992 8.476 1.074 4.792.307 17.82-1.001 17.012-.403-.249-1.038-2.758-1.412-5.574-.892-6.723-3.101-12.19-7.647-18.924-5.801-8.593-12.405-14.624-19.954-18.224-3.779-1.802-6.896-3.664-6.927-4.137-.103-1.574 7.344.459 14.885 4.064m-399.417 15.372c.362 1.142.505 2.182.317 2.313-.876.608-8.279 2.507-8.585 2.201-.501-.501 5.738-6.589 6.754-6.589.47 0 1.152.934 1.514 2.075m391.482.428c1.599.827 4.505 3.596 6.457 6.153 5.723 7.494 7.642 16.634 5.636 26.844l-.786 4-1.275-4.75c-.702-2.612-1.613-4.75-2.025-4.75s-.994 1.821-1.292 4.047c-.799 5.95-6.943 18.154-11.787 23.409-2.325 2.522-4.388 4.424-4.585 4.227s.41-1.894 1.348-3.771c2.023-4.046 3.011-14.604 1.508-16.107-.728-.728-1.711.501-3.235 4.043-3.573 8.305-4.464 8.07-4.515-1.187-.037-6.671-.533-9.22-2.718-13.961-1.47-3.19-3.636-7.154-4.814-8.808s-1.962-3.186-1.743-3.405 2.631.878 5.359 2.437c3.759 2.149 5.857 4.353 8.658 9.093l3.696 6.257.682-2.718c1.193-4.751-.136-15.783-2.445-20.306-1.194-2.337-1.776-4.25-1.294-4.25s2.939 1.575 5.46 3.5 4.895 3.5 5.275 3.5c1.438 0-.595-7.438-3.045-11.14-1.405-2.123-2.301-3.86-1.991-3.86s1.872.676 3.471 1.503m-376.224 8.136 3.718 1.638-7.5 1.153c-4.125.634-8.926 1.914-10.668 2.845-5.157 2.754-7.828 9.83-12.354 32.725-4.241 21.454-5.367 32.977-3.296 33.706.651.228 1.616-.399 2.146-1.395s2.387-9.461 4.126-18.811c3.949-21.228 6.574-31.968 8.918-36.486 1.003-1.933 3.289-4.371 5.081-5.418 2.489-1.454 5.299-1.919 11.903-1.97 6.654-.051 9.45.368 12.144 1.818l3.5 1.883-5.776 1.161c-3.177.638-7.002 2.059-8.5 3.158-2.928 2.146-5.115 7.782-12.363 31.854-4.727 15.703-5.513 19.979-3.857 21.003.681.42 1.613.144 2.111-.625.49-.758 3.832-10.32 7.426-21.25 3.593-10.93 7.201-21.163 8.017-22.741 2.492-4.818 5.453-6.021 16.287-6.618 5.452-.301 11.079-.254 12.504.104 3.819.958 7.448 5.418 9.137 11.228 1.245 4.283 5.491 27.152 5.509 29.669.003.424-1.769-.134-3.937-1.24-2.168-1.107-5.162-3.611-6.653-5.566-2.228-2.921-2.796-4.882-3.19-11.009-.263-4.1-.814-7.455-1.224-7.455s-1.306.675-1.991 1.5-1.979 1.5-2.876 1.5-2.923-1.369-4.502-3.042-3.07-2.844-3.312-2.601c-.243.243.072 2.347.699 4.676s.854 5.413.505 6.851c-.35 1.439-1.733 4.294-3.075 6.345-1.341 2.05-2.439 3.889-2.439 4.086s1.913.319 4.25.271l4.25-.086-.271 2.433c-.148 1.337-1.409 3.925-2.8 5.75L906.898 895h5.999c6.958 0 18.653 3.423 30.681 8.98 20.372 9.412 35.059 22.352 42.421 37.375 2.195 4.48 4.733 11.07 5.639 14.645 2.16 8.517 2.117 24.429-.09 33-.921 3.575-6.79 22.036-13.044 41.024-6.253 18.988-14.133 43.963-17.51 55.5-24.491 83.661-35.386 118.395-41.815 133.307-2.075 4.812-5.443 11.737-7.486 15.389-3.736 6.683-12.399 17.017-15.78 18.826-1.256.673-5.782.309-14.616-1.174-16.903-2.838-37.465-3.061-49.273-.534-12.465 2.668-24.943 6.882-45.244 15.28-9.945 4.114-18.414 7.121-18.821 6.681-1.354-1.464-4.938-18.884-5.985-29.089-1.528-14.886.464-25.187 7.193-37.202 4.767-8.511 15.584-23.716 22.771-32.008 3.575-4.125 13.264-14.867 21.531-23.872C835.057 1127.613 840 1122 851.447 1108c13.232-16.184 23.222-29.487 33.796-45 22.883-33.572 35.828-57.258 42.315-77.428l4.205-13.072 7.618-4.457c4.191-2.451 7.615-4.701 7.61-5s-3.601-.604-7.992-.678c-6.878-.117-8.989-.614-15.241-3.592-3.992-1.901-13.333-7.2-20.758-11.775-17.968-11.073-35.067-21.014-43.805-25.467-3.922-1.999-8.046-4.797-9.163-6.218-1.508-1.917-2.032-4.067-2.032-8.341 0-6.8 4.004-37.084 7.028-53.154 2.149-11.418 4.002-16.768 6.539-18.873 3.021-2.508 13.166-5.899 17.715-5.921 2.63-.013 6.455.713 8.5 1.615M992 836.689c-2.389.911-5 3.502-4.441 4.407.282.456 1.603.332 2.936-.276 1.922-.875 2.942-.764 4.929.538 1.378.903 2.923 1.642 3.434 1.642 1.561 0 2.075-2.714.823-4.348-1.348-1.761-5.459-2.811-7.681-1.963m-215.378 7.561c-3.962 4.889-6.249 9.652-7.528 15.684-1.283 6.052-.693 14.798 1.547 22.923.813 2.947 1.265 5.57 1.006 5.829-.685.686-5.33-7.535-7.115-12.594-.842-2.389-1.532-7.356-1.532-11.038 0-5.323.564-7.807 2.75-12.118 1.676-3.304 4.44-6.694 7.078-8.679 2.38-1.791 4.8-3.257 5.378-3.257s-.135 1.462-1.584 3.25m73.157 8c-3.049 16.217-2.947 15.943-3.983 10.75-1.264-6.34-.252-13.707 2.424-17.637 1.254-1.842 2.551-3.352 2.883-3.356s-.264 4.605-1.324 10.243m264.221 7.3c.587 5.473 1.749 16.25 2.583 23.95 2.153 19.866 6.01 41.434 9.005 50.358 4.051 12.065 8.996 20.541 15.497 26.56 7.316 6.773 13.198 8.913 23.224 8.449l7.191-.333 7.706 3.863c6 3.008 9.227 3.973 14.575 4.355 4.792.343 8.651-.026 12.764-1.222 13.347-3.88 20.303-9.655 26.261-21.801 2.22-4.526 4.283-9.017 4.584-9.979.475-1.518 1.911-1.75 10.815-1.75h10.268l-4.986 3.379c-7.727 5.235-14.315 11.435-20.731 19.509-8.896 11.194-17.709 29.86-24.34 51.55-4.502 14.723-9.698 38.317-12.898 58.562-1.434 9.075-3.243 20.325-4.021 25l-1.413 8.5-7.302 7.039c-4.016 3.871-19.897 17.132-35.292 29.469-15.394 12.336-34.284 27.844-41.976 34.461-14.538 12.506-40.145 37.379-49.815 48.387l-5.583 6.357.518-9.357c1.05-18.956 5.639-35.426 15.48-55.567 3.282-6.717 9.822-17.967 14.534-25 4.711-7.034 8.824-13.438 9.139-14.231.316-.793-1.607.107-4.273 2-5.925 4.208-16.463 16.447-25.429 29.535-3.684 5.378-7.123 9.899-7.642 10.047s-3.781-4.134-7.25-9.515c-6.468-10.033-20.431-26.14-21.65-24.973-.374.359 1.851 5.309 4.944 11 6.848 12.599 11.793 23.511 13.979 30.848.901 3.025 1.9 9.341 2.22 14.036.476 6.971.09 10.914-2.1 21.5-1.476 7.13-2.933 13.804-3.239 14.831-.419 1.406-1.541.049-4.546-5.5-9.774-18.045-27.395-39.658-47.301-58.014-15.618-14.402-23.986-23.198-25.463-26.764l-1.358-3.277 3.309-13.156c1.82-7.236 8.011-29.581 13.758-49.656s10.91-38.187 11.473-40.25c.563-2.062 1.355-3.75 1.759-3.75s2.712 1.501 5.128 3.335c10.599 8.046 22.713 15.665 24.907 15.665.637 0-.401-2.138-2.305-4.75s-4.642-7.098-6.085-9.967c-1.865-3.709-2.623-6.78-2.623-10.627 0-3.662.5-5.826 1.546-6.694 1.281-1.063 2.001-.944 4.195.694 1.457 1.088 5.698 6.447 9.426 11.911 9.523 13.957 21.851 27.748 23.411 26.188.261-.26-3.85-9.177-9.134-19.816-10.439-21.017-16.276-34.408-18.838-43.222-.902-3.104-1.881-6.271-2.176-7.038-.353-.92 2.787-3.749 9.194-8.288 11.237-7.958 23.274-19.45 32.356-30.891 8.695-10.954 18.54-26.04 26.917-41.25 7.022-12.75 18.605-37.266 23.13-48.953 1.32-3.411 2.515-6.089 2.654-5.949.139.139.733 4.73 1.319 10.202m-118.259 2.818c-2.068.772-4.396 1.931-5.173 2.576-.949.787-3.359.953-7.327.504-8.686-.983-10.166-.039-20.991 13.387-1.788 2.217-3.25 4.286-3.25 4.598s.727.567 1.616.567 4.268 2.455 7.509 5.455c3.422 3.169 7.461 5.891 9.634 6.495 9.336 2.593 30.034-.294 38.756-5.406 2.229-1.306 6.207-4.776 8.838-7.71s5.93-6.595 7.33-8.136c1.4-1.542 2.382-2.904 2.181-3.028-.388-.24-7.553-3.306-17.347-7.423-7.231-3.039-16.519-3.841-21.776-1.879m-201.805 16.029c2.573 4.162 10.736 11.603 12.73 11.603 1.149 0 1.124-.505-.14-2.95-.839-1.623-1.526-5.02-1.526-7.55 0-4.657 2.24-10.5 4.026-10.5.536 0 .974.69.974 1.533 0 2.71 5.008 11.52 9.027 15.881 2.146 2.328 5.493 5.09 7.438 6.137s3.535 2.251 3.535 2.676c0 1.115-12.398.952-15.435-.202-1.829-.696-2.565-.646-2.565.171 0 .631.747 1.972 1.661 2.981.913 1.01 1.443 2.053 1.177 2.319-.266.265-2.925-.15-5.909-.925-2.985-.774-5.619-1.214-5.855-.979-.867.868 5.548 6.719 9.426 8.597l4 1.938-6.643-.44c-11.736-.777-21.697-7.468-26.767-17.979-1.647-3.414-3.257-8.458-3.578-11.208l-.584-5 2.429 4.5c1.336 2.475 3.293 5.281 4.349 6.236l1.92 1.735-.416-5.746c-.229-3.161.136-7.767.81-10.236l1.225-4.489 1.25 4.176c.688 2.297 2.236 5.771 3.441 7.721m217.902-.366c-.913.533-4.513 1.907-8 3.053-4.329 1.424-9.825 2.214-17.338 2.493l-11 .409 3.043-1.411c1.673-.776 7.523-2.17 13-3.097 5.476-.927 10.145-1.864 10.374-2.082s2.929-.382 6-.366c4.092.023 5.139.29 3.921 1.001m280.687 14.687c-1.197 6.379-11.703 15.256-18.025 15.23l-2-.009 2-1.103c2.515-1.388 7.5-5.979 7.5-6.908 0-.384-3.037-.517-6.75-.295-5.5.327-6.287.2-4.25-.688 9.477-4.13 15.379-7.625 18.217-10.787l3.283-3.658.332 2.408c.182 1.324.044 3.939-.307 5.81M776.433 916.75c3.727 2.888 6.261 5.25 5.632 5.25-2.313 0-9.672-4.314-13.401-7.856-3.585-3.405-8.664-11.71-8.664-14.167 0-.6 2.173 1.748 4.828 5.216s7.878 8.669 11.605 11.557m434.133-12.25c-.383 2.043-.253 3.5.312 3.5.533 0 2.372-1.181 4.088-2.624 1.715-1.444 3.294-2.45 3.508-2.235.214.214-1.385 4.165-3.554 8.779s-3.755 8.578-3.525 8.809c.824.823 6.318-2.666 11.418-7.25 2.853-2.566 5.187-4.125 5.187-3.467 0 2.129-5.072 11.37-8.61 15.688-4.429 5.404-14.113 10.241-22.564 11.27-3.492.425-9.239.338-12.826-.194-7.011-1.041-10.388-2.768-5.45-2.788 1.622-.006 5.65-1.513 8.95-3.348 6.877-3.824 12.275-10.478 13.219-16.293l.61-3.764-3.892 3.208c-2.141 1.765-4.219 3.209-4.618 3.209s1.024-2.633 3.161-5.851c2.641-3.976 4.95-6.249 7.203-7.093 1.825-.684 4.217-1.62 5.317-2.082s2.163-.869 2.361-.906.066 1.507-.295 3.432m-73.298 32.255c4.039 6.544 13.278 15.48 23.36 22.595l6.872 4.85-5.5-.661c-3.025-.363-7.421-1.782-9.769-3.153s-6.125-4.831-8.395-7.689c-5.451-6.866-12.614-21.697-10.478-21.697.197 0 1.956 2.59 3.91 5.755M803 941.239c5.18 2.49 13.412 4.806 22.5 6.329 3.308.555 3.654.811 2 1.481-1.1.446-3.913.842-6.25.881-2.337.038-4.25.487-4.25.997 0 1.508 4.861 4.883 8.035 5.581 1.618.355 3.241 1.13 3.607 1.722 1.124 1.818-11.155.184-15.909-2.117-5.519-2.672-12.157-9.063-14.806-14.256-1.143-2.241-1.707-3.891-1.253-3.668a1730 1730 0 0 0 6.326 3.05m490.792 3.309c4.239.851 11.455 3.322 16.035 5.491 5.823 2.757 10.293 5.825 14.862 10.202 3.594 3.442 7.833 8.138 9.42 10.435 4.946 7.158 10.652 19.579 13.04 28.38 1.97 7.264 2.295 10.89 2.321 25.944.016 9.625-.316 18.737-.739 20.25-.576 2.061-1.395 2.75-3.267 2.75-4.644 0-25.324 4.927-38.182 9.097-16.481 5.344-39.832 15.349-53.782 23.043-11.322 6.245-30.178 18.438-34.367 22.222l-2.366 2.138.706-3.5c1.405-6.96 7.428-23.734 12.423-34.6 2.807-6.106 5.104-11.618 5.104-12.25 0-.633-.382-1.15-.85-1.15-2.125 0-9.577 6.575-13.515 11.924-4.86 6.601-12.951 21.77-15.732 29.493l-1.831 5.083-.025-7.5c-.035-10.223 2.488-33.254 5.038-46 4.2-20.989 10.896-42.658 17.47-56.536 10.132-21.389 26.893-38.834 42.718-44.46 6.502-2.311 15.482-2.472 25.519-.456M871.583 976.47c1.935.809 7.962 5.045 13.394 9.414 9.339 7.512 20.793 14.116 24.483 14.116 1.273 0 1.51.539.989 2.25-1.257 4.121-11.721 22.112-19.194 33-4.058 5.912-7.694 10.75-8.08 10.75s-3.055-1.585-5.931-3.522c-9.721-6.546-15.476-9.57-23.124-12.15-5.558-1.875-10.461-2.699-18.12-3.045-5.775-.262-12.413-.03-14.75.514l-4.25.99v-3.499c0-5.414 2.842-15.174 6.334-21.749 4.19-7.891 12.419-16.637 19.966-21.221 6.439-3.912 15.971-7.127 21.482-7.247 1.805-.039 4.866.591 6.801 1.399m306.917 18.392c-14.54 7.092-50.643 26.832-57.36 31.363-6.518 4.396-13.346 10.658-12.942 11.868.848 2.544 58.853-29.573 75.802-41.971 6.71-4.908 9.144-7.122 7.827-7.117-.73.002-6.727 2.638-13.327 5.857m-93.952 28.889c-2.006 6.462-6.03 19.062-8.943 27.999-2.912 8.938-5.07 16.25-4.795 16.25s1.996-1.14 3.823-2.534c6.654-5.075 11.368-16.287 13.836-32.91 1.727-11.636 1.964-19.17.629-19.996-.497-.306-2.544 4.73-4.55 11.191m-243.779 22.757c6.038 1.423 16.87 6.187 16.014 7.042-.228.229-1.958-.027-3.843-.567-5.311-1.523-14.576-1.131-24.363 1.033-4.907 1.085-9.093 1.801-9.302 1.592s.783-1.295 2.206-2.414c1.422-1.119 2.148-2.305 1.613-2.636s-2.8-.309-5.033.048-4.061.379-4.061.047c0-.88 6.021-3.871 9.5-4.718 4.887-1.19 10.598-1 17.269.573M1352 1066.861c0 .474-3.713 1.888-8.25 3.144-9.877 2.733-20.316 7.423-21.107 9.482-.364.948.413 2.007 2.143 2.923l2.714 1.436-2 .664c-1.1.365-5.898 2.245-10.662 4.177-13.839 5.613-21.558 11.72-19.344 15.304.35.565 4.884 1.012 10.315 1.017 12.005.009 21.166 1.439 26.562 4.146 4.824 2.42 8.629 5.686 8.629 7.405 0 .755-3.105 1.652-8.25 2.383-19.699 2.799-36.639 8.347-46.04 15.079l-5.556 3.979-8.327.024c-4.58.014-10.299.48-12.709 1.035-2.41.556-4.585.807-4.834.558-.693-.693 26.873-13.893 38.954-18.653 11.352-4.472 14.212-6.434 11.698-8.025-2.232-1.412-15.753-1.1-25.431.588-10.288 1.794-31.221 8.417-38.004 12.024-2.616 1.39-4.942 2.342-5.17 2.114-.558-.559 11.164-9.145 21.908-16.048 4.806-3.088 15.081-9.008 22.832-13.155 20.407-10.919 25.654-14.479 24.379-16.543-1.049-1.698-11.889-.94-20.457 1.431-8.964 2.48-21.784 6.932-25.157 8.738-1.104.591-2.24.841-2.525.556-.907-.906 14.715-8.228 28.835-13.516 15.503-5.804 33.09-10.583 43.959-11.944 9.796-1.227 20.895-1.398 20.895-.323M845.5 1075c1.767.759 1.676.868-.775.93-4.593.116-13.167 3.599-22.011 8.941-8.163 4.93-17.663 9.513-18.332 8.844-.185-.185 1.904-2.542 4.641-5.238s4.977-5.292 4.977-5.769-1.462-.569-3.25-.204l-3.25.663 4-2.808c6.482-4.55 12.91-6.298 23-6.256 4.95.021 9.9.424 11 .897m-12.98 35.033c.63 1.019-8.879 11.902-27.5 31.474-10.955 11.515-30.33 33.511-32.689 37.111-.881 1.344-1.758 2.289-1.948 2.098-.573-.573 7.131-23.569 11.128-33.216 5.919-14.288 9.313-20.398 14.283-25.711 2.55-2.726 6.464-6.028 8.696-7.336s6.523-3.041 9.534-3.85c6.395-1.718 17.574-2.063 18.496-.57m369.013 28.304c-.907 7.79-2.244 17.088-2.971 20.663-1.027 5.044-1.346 5.716-1.425 3-.254-8.709 4.822-44.113 5.686-39.663.197 1.011-.384 8.211-1.29 16m98.867 18.686c11.652 2.252 20.783 5.319 28.754 9.657l4.944 2.691-.632 5.564c-2.43 21.395-10.174 55.033-17.857 77.565-6.497 19.054-12.617 35.379-18.508 49.37-6.48 15.39-22.138 46.973-28.57 57.63-9.183 15.215-17.987 27.034-26.492 35.568-6.317 6.338-9.61 8.875-12.655 9.75-5.724 1.644-16.832 1.476-23.924-.364-3.278-.85-14.923-4.701-25.877-8.559-19.214-6.767-39.507-12.42-41.815-11.651-1.525.508 10.242 8.197 24.732 16.159 6.6 3.627 11.248 6.595 10.33 6.595-2.2.002-23.08-6.032-33.83-9.777-11.466-3.993-17.699-6.679-43.754-18.851-24.26-11.334-50.856-22.385-72.746-30.228-30.948-11.087-80.75-28.575-93-32.658-23.657-7.884-36.477-9.476-60.368-7.496-13.918 1.154-16.509 1.115-23.632-.35-4.4-.905-9.064-1.935-10.363-2.288-2.081-.566-2.243-.416-1.348 1.254.559 1.043 2.228 3.204 3.71 4.802 2.085 2.249 2.39 3.08 1.348 3.674-.741.423-6.522 4.656-12.847 9.408-15.561 11.691-22.063 14.654-48.21 21.973-6.99 1.957-13.878 4.002-15.306 4.545s-4.951 3.214-7.828 5.935-6.407 5.394-7.845 5.941c-1.772.674-3.003 2.223-3.819 4.806-.663 2.097-3.471 8.087-6.241 13.312l-5.037 9.5 1.216 7c.669 3.85 1.447 12.4 1.73 19l.513 12-2.674-3.27c-1.471-1.798-3.875-3.89-5.341-4.648-2.166-1.12-3.265-3.227-5.857-11.231-1.755-5.418-3.904-12.67-4.777-16.115l-1.586-6.264 3.568-11.236c4.43-13.953 6.23-23.771 4.903-26.745-.804-1.802-2.123 1.389-7.716 18.667l-6.746 20.842 2.072 10.5c1.446 7.323 2.082 14.495 2.102 23.704.016 7.263-.391 13.956-.905 14.874-.786 1.405-1.111 1.162-2.049-1.529-.613-1.759-2.393-4.402-3.956-5.873l-2.84-2.676-3.686-19.562c-2.027-10.759-3.685-20.51-3.685-21.669 0-1.16 1.984-8.107 4.408-15.439 6.948-21.01 9.317-32.224 7.675-36.33-.689-1.724-.907-1.516-1.571 1.5-.424 1.925-3.348 10.25-6.497 18.5s-6.972 18.693-8.495 23.206l-2.77 8.206 3.085 18.794c4.143 25.24 4.476 28.431 3.602 34.544l-.75 5.25-.841-3.129c-.462-1.72-2.148-4.42-3.746-6l-2.906-2.871-1.647-16.5c-.906-9.075-2.072-19.2-2.59-22.5s-.945-7.781-.949-9.958c-.005-2.193 1.763-8.657 3.964-14.5 7.518-19.952 12.382-38.042 10.23-38.042-.536 0-1.679 1.486-2.542 3.303-4.5 9.483-8.314 18.344-12.353 28.697-3.446 8.832-4.687 13.588-5.348 20.5-1.194 12.492-7.033 27.549-13.758 35.482l-2.952 3.482.501-5.216c.372-3.869.064-5.884-1.194-7.803l-1.696-2.589 2.492-10.678c1.37-5.873 3.473-15.104 4.671-20.513 1.78-8.029 2.998-11.03 6.635-16.343 6.776-9.897 23.063-30.102 25.176-31.233 1.03-.551 3.481-4.059 5.447-7.796 1.965-3.736 4.844-8.001 6.396-9.477 2.628-2.498 17.303-9.252 48.823-22.469 46.402-19.457 68.229-27.5 79.5-29.296 14.165-2.257 29.175-.978 62.5 5.326 22.065 4.175 55.184 8.5 82 10.709 7.15.589 43.6 1.443 81 1.898 59.869.729 69.734 1.07 82.5 2.852 24.642 3.44 42.077 8.892 67.252 21.032 7.621 3.676 13.751 6.099 13.75 5.437-.003-2.068-9.505-10.648-16.136-14.571-3.501-2.071-10.772-5.671-16.157-8-7.811-3.378-9.915-4.727-10.405-6.671-.936-3.713 1.288-18.028 5.171-33.279 1.92-7.544 6.48-23.519 10.131-35.5 3.652-11.981 7.372-24.591 8.267-28.023 1.387-5.317 2.201-6.628 5.514-8.879 10.442-7.093 30.344-14.07 46.689-16.368 9.571-1.346 29.977-.377 42.324 2.009m-144.756 22.749c-7.069 11.204-7.465 12.228-4.726 12.228 1.173 0 4.676-.894 7.786-1.987s5.802-1.84 5.982-1.66c.632.632-5.977 9.203-11.554 14.986-3.098 3.211-8.107 7.757-11.132 10.103-11.426 8.857-28.756 17.21-33.987 16.381l-2.033-.323 4.353-5.532c5.956-7.568 12.667-17.493 12.667-18.733 0-1.745-7.895.569-16.794 4.923-9.088 4.446-16.126 8.958-23.514 15.077-8.456 7.003-6.108 3.307 3.513-5.531 15.225-13.987 29.561-25.583 40.757-32.969 15.164-10.004 33.04-18.761 33.873-16.594.185.479-2.151 4.813-5.191 9.631m-162.77 23.056c3.644 4.03 9.776 11.527 13.626 16.659 7.122 9.494 15.897 23.39 17.058 27.013.353 1.1-1.065-.025-3.149-2.5s-5.981-6.664-8.657-9.308c-5.134-5.073-13.252-10.692-15.448-10.692-2.007 0-1.537 3.958 1.16 9.75 1.344 2.888 2.006 5.25 1.47 5.25s-4.329-3.301-8.43-7.336c-5.325-5.24-8.304-9.168-10.425-13.75-1.634-3.528-3.287-7.725-3.674-9.328-.604-2.501-.457-2.82 1.038-2.246.959.368 2.826.94 4.15 1.273 3.01.755 3.067-.383.407-8.113-1.1-3.197-2-6.218-2-6.713 0-2.025 6.66 3.169 12.874 10.041m334.149 84.902c-2.876 35.028-4.777 51.196-7.204 61.27-2.189 9.087-5.521 16.945-8.904 21l-2.085 2.5.656-2.5c.361-1.375.879-6.775 1.152-12 .343-6.585.049-11.153-.961-14.889l-1.456-5.389 2.924-8.611c3.297-9.707 13.904-51.671 15.953-63.111.739-4.125 1.5-6.721 1.692-5.77s-.603 13.327-1.767 27.5m7.141 79.02c1.966 2.612 4.135 5.828 4.819 7.146.723 1.392 1.035 4.254.745 6.826-1.031 9.15-12.919 21.666-29.946 31.528-4.51 2.612-8.633 4.75-9.161 4.75s1.776-2.477 5.122-5.505c3.581-3.241 7.147-7.641 8.67-10.697 2.57-5.156 3.478-11.798 1.613-11.798-.536 0-4.473 1.747-8.75 3.881-8.642 4.314-25.569 11.135-27.519 11.09-.691-.016 2.355-1.929 6.77-4.25 4.415-2.322 11.165-6.445 15-9.164 8.883-6.298 18.993-15.98 24.037-23.02 2.165-3.021 4.181-5.504 4.481-5.515s2.153 2.116 4.119 4.728m-92.738 2.85c-4.363 6.533-10.105 19.054-9.168 19.992 1.088 1.088 5.699-2.811 8.723-7.377 3.503-5.289 5.269-10.973 4.827-15.537l-.308-3.178zm-309.059 61.9c-1.687 3.3-3.613 8.223-4.279 10.939-.667 2.717-1.111 7.739-.987 11.162.198 5.448-.103 6.612-2.419 9.366-6.861 8.152-15.642 28.574-15.669 36.438l-.013 3.905 2.047-1.852c1.125-1.019 5.716-7.276 10.202-13.905s10.431-14.336 13.212-17.127c3.267-3.278 6.822-5.699 10.047-6.842 6.51-2.306 21.421-3.15 29.816-1.688 10.424 1.815 22.798 5.705 31.892 10.026 10.91 5.183 26.439 15.634 37.637 25.328l8.952 7.75h15.097l-10.936-10.443c-17.273-16.496-32.949-27.805-49.499-35.711-5.661-2.704-14.719-6.075-20.13-7.491-7.78-2.036-12.45-2.603-22.337-2.714-6.875-.078-15.254.212-18.62.644l-6.119.785-1.72-3.626c-.947-1.993-2.032-7.522-2.413-12.284l-.692-8.66zM608 1543.644c-4.963.922-15.624 4.697-21.5 7.614-3.3 1.638-8.7 4.893-12 7.234-7.843 5.564-19.967 18.326-26.232 27.612-9.185 13.616-14.334 25.818-18.32 43.417-1.665 7.351-2.261 13.139-2.264 21.979-.004 14.241 1.87 23.816 6.501 33.225 4.503 9.146 11.899 16.465 20.993 20.775 4.027 1.908 9.746 3.926 12.708 4.485 6.903 1.301 17.86 1.284 26.015-.039 12.79-2.075 27.372-8.553 37.754-16.774 7.499-5.938 16.511-15.175 20.095-20.597 1.788-2.705 3.25-6.121 3.25-7.591 0-3.055-2.748-5.993-5.579-5.965-1.056.01-5.688 3.169-10.292 7.019-9.671 8.087-18.684 13.396-27.455 16.175-4.546 1.44-8.052 1.843-13.294 1.53-5.862-.351-7.836-.939-11.181-3.334-2.234-1.6-5.201-4.662-6.594-6.804s-3.288-7.288-4.211-11.437c-3.26-14.654-.154-36.522 8.127-57.221 5.728-14.316 11.917-24.24 21.399-34.313 5.007-5.319 12.856-9.609 17.607-9.624 1.666-.006 4.015.681 5.222 1.527 2.742 1.92 4.534 8.31 3.71 13.228-.93 5.552-3.433 13.131-6.09 18.437-1.294 2.586-4.382 7.192-6.861 10.236-2.48 3.043-4.508 5.893-4.508 6.332s1.462 1.683 3.25 2.764c2.488 1.505 5.009 1.956 10.75 1.924 5.875-.033 8.702-.596 13.047-2.602 3.051-1.408 7.239-4.314 9.307-6.458 7.91-8.2 12.455-21.823 11.091-33.239-.372-3.113-1.573-7.78-2.668-10.373-1.109-2.623-4.137-6.72-6.829-9.238-2.66-2.488-7.449-5.734-10.642-7.213l-5.806-2.689-13-.233c-7.15-.128-14.125-.024-15.5.231m342.5 7.534c-9.601 1.014-22.681 3.603-23.787 4.709-1.045 1.045-16.158 63.652-21.15 87.613l-3.333 16-6.117 5.626c-6.522 5.999-11.596 9.01-13.775 8.173-2.687-1.031-1.373-9.103 4.315-26.504 4.215-12.894 5.774-19.249 6.125-24.976.403-6.57.168-8.171-1.629-11.078-1.155-1.869-3.257-3.925-4.671-4.569-4.335-1.975-12.441-1.403-18.215 1.286-6.515 3.033-14.568 10.461-18.476 17.042-1.7 2.863-2.697 3.931-2.331 2.5.35-1.375.87-4.975 1.154-8 .416-4.431.115-6.136-1.547-8.775-1.135-1.801-3.301-3.753-4.813-4.337-3.51-1.355-10.197-.467-15.003 1.992-5.618 2.875-13.637 9.742-17.251 14.774-1.764 2.457-3.384 4.292-3.599 4.076-.215-.215 1.182-4.022 3.106-8.461 1.923-4.438 3.497-8.984 3.497-10.102 0-1.131-.858-2.305-1.935-2.646-2.464-.782-25.56 1.179-29.654 2.517l-3.088 1.011-5.641 24.581-5.641 24.582-3.271 3.718c-4.813 5.474-12.827 11.206-15.187 10.865-1.173-.169-2.449-1.455-2.997-3.018-.724-2.069-.275-5.433 1.869-14 1.553-6.203 5.728-19.577 9.279-29.721l6.455-18.444-1.785-1.306c-.983-.718-3.388-1.292-5.345-1.275-6.101.054-27.311 2.819-28.108 3.665-1.272 1.351-11.239 39.373-12.466 47.554-.528 3.52-1.599 5.414-4.832 8.541-8.907 8.616-16.23 11.452-19.261 7.459-1.874-2.469-1.666-10.32.537-20.25 1.627-7.331 14.056-45.221 28.006-85.37 2.296-6.611 3.859-12.703 3.527-13.75-.506-1.594-1.615-1.879-7.279-1.876-5.756.003-19.446 1.728-28.382 3.575-3.204.662-2.391-1.84-14.192 43.684-11.108 42.851-14.612 59.974-14.599 71.351.008 7.241.449 9.83 2.384 13.985 2.42 5.197 5.526 8.022 11.388 10.361 4.362 1.74 14.106.87 21.448-1.915 3.151-1.196 8.889-4.614 12.75-7.598 4.8-3.708 7.02-4.922 7.02-3.836 0 3.332 3.47 8.671 7.269 11.185 3.344 2.213 5.024 2.609 10.86 2.555 5.84-.053 8.029-.619 14.208-3.673 4.017-1.985 9.499-5.538 12.181-7.894 3.234-2.841 4.608-3.61 4.078-2.284-.44 1.1-1.043 4.837-1.339 8.305l-.54 6.304 2.392-.507c1.315-.279 8.123-.799 15.129-1.155l12.739-.647.866-3.65c6.001-25.285 7.562-30.396 12.108-39.65 2.703-5.5 6.327-11.687 8.054-13.75 3.107-3.709 6.003-4.919 5.986-2.5-.005.688-1.149 6.2-2.542 12.25-3.936 17.096-7.206 33.464-7.891 39.5-.343 3.025-.21 6.12.297 6.877.725 1.085 3.488 1.286 13.003.947 6.645-.237 12.382-.73 12.747-1.096s1.697-5.967 2.958-12.446c1.261-6.48 3.214-14.408 4.34-17.617 4.744-13.518 16.512-31.532 19.017-29.11.784.759-.171 5.398-3.398 16.5-2.468 8.495-4.878 18.308-5.355 21.808-1.003 7.361.05 14.541 2.661 18.137.998 1.375 3.357 3.316 5.243 4.312 2.665 1.409 5.027 1.722 10.602 1.405 5.206-.295 8.726-1.167 12.838-3.179 3.116-1.524 8.306-4.969 11.534-7.655 3.227-2.686 6.112-4.883 6.411-4.883s.546.787.548 1.75c.008 3.883 3.886 8.071 10.481 11.317 5.866 2.888 7.815 3.316 16.825 3.693 19.249.806 33.181-4.116 44.69-15.786 10.437-10.584 16.952-23.294 19.684-38.404 1.655-9.149 1.193-18.535-1.192-24.245-1.847-4.42-5.815-8.889-9.692-10.914-1.615-.844-5.672-1.411-10.091-1.411-6.22 0-8.346.478-13.429 3.018-3.321 1.66-8.118 4.848-10.659 7.085s-4.621 3.9-4.621 3.695 2.751-8.231 6.113-17.835c15.769-45.047 16.165-46.298 15.173-47.872-1.374-2.177-5.655-2.771-13.786-1.913m136.5.91c-3.025.493-8.731 1.598-12.679 2.456l-7.179 1.561-2.137 9.197c-1.176 5.059-4.55 18.873-7.5 30.698-9.444 37.865-14.505 65.247-14.505 78.477 0 4.141.626 8.039 1.63 10.156 1.97 4.15 7.685 7.694 15.83 9.815 7.466 1.944 17.132 1.979 26.966.097 18.109-3.464 32.399-15.33 41.219-34.226 4.892-10.48 6.619-19.008 6.139-30.319-.304-7.175-.924-10.502-2.534-13.595-2.48-4.763-8.199-10.103-11.783-11.003-1.373-.344-5.527-.451-9.231-.236-8.078.468-13.661 2.965-20.986 9.387-2.888 2.531-5.25 4.148-5.25 3.594 0-.555 3.41-10.827 7.577-22.828 13.997-40.306 13.972-40.224 12.796-42.097-.802-1.278-2.6-1.762-6.977-1.876-3.243-.085-8.371.249-11.396.742m285.53-.022c-2.734.457-8.193 1.548-12.133 2.425l-7.163 1.593-3.203 12.208c-1.761 6.714-6.286 23.008-10.054 36.208s-8.486 30.3-10.482 38l-3.631 14-4.182 4.324c-5.371 5.554-11.898 10.363-18.71 13.784-3.879 1.948-7.014 2.737-11.096 2.793-4.222.057-6.22-.403-7.745-1.783-3.235-2.927-4.466-8.131-3.794-16.035.655-7.686 3.804-17.983 8.081-26.423 2.938-5.796 10.076-14.16 12.085-14.16.883 0 .554 1.915-1.127 6.545-1.307 3.601-2.376 8.121-2.376 10.046 0 4.53 3.688 8.409 7.994 8.409 4.701 0 10.694-3.571 13.755-8.196 2.358-3.563 2.751-5.18 2.751-11.312 0-6.244-.365-7.682-2.862-11.288-1.715-2.478-4.679-5.014-7.4-6.331-3.419-1.655-6.3-2.185-11.678-2.151-5.375.035-8.86.73-14.1 2.811-3.828 1.521-8.824 4.036-11.103 5.59-6.82 4.651-14.966 14.502-19.223 23.246-3.902 8.013-7.134 18.808-7.134 23.824 0 1.816-1.274 3.61-4.355 6.135-10.317 8.454-15.915 9.717-18.554 4.188-1.185-2.482-1.226-4.355-.244-11.143.976-6.752 8.078-31.319 11.992-41.482 1.101-2.86 4.227-3.891 11.801-3.891 3.879 0 4.62-.378 6.371-3.25 1.09-1.787 1.983-4.694 1.985-6.458l.004-3.208-7.412-.292-7.413-.292 5.505-15.289c3.027-8.408 5.252-15.946 4.944-16.75-.356-.925-1.948-1.461-4.343-1.461-4.871 0-28.549 3.853-29.422 4.788-.564.603-2.45 5.739-10.073 27.418l-.951 2.706-6.648.294-6.648.294-1.297 5.864c-1.619 7.314-.642 8.98 4.952 8.446 2.093-.2 3.806-.062 3.806.306s-1.323 6.23-2.94 13.026c-1.617 6.797-3.478 15.508-4.135 19.358l-1.194 7-7.118 7.026c-7.186 7.093-12.309 10.188-15.095 9.119-1.059-.406-1.518-2.002-1.518-5.282 0-7.665 4.987-24.763 15.857-54.363 2.861-7.793 2.26-8.174-10.857-6.877-5.775.57-13.16 1.564-16.411 2.207l-5.911 1.17-1.875 5.5c-3.748 10.995-9.67 33.94-11.344 43.957-2 11.956-1.566 21.288 1.241 26.697 1.066 2.053 3.066 4.576 4.446 5.606 3.884 2.9 9.596 3.863 15.666 2.641 2.922-.588 7.293-1.945 9.714-3.016 5.058-2.237 12.143-7.361 18.103-13.093l4.129-3.971 1.247 5.198c1.368 5.704 5.466 11.116 10.393 13.726 4.023 2.131 15.539 2.043 21.554-.165 5.355-1.965 15.34-7.614 19.736-11.166l3.189-2.575 2.052 4.022c2.42 4.742 7.037 8.51 13.015 10.619 5.661 1.998 18.677 1.951 26.992-.096 7.838-1.929 20.247-8.137 25.846-12.929 2.22-1.9 4.261-3.455 4.537-3.455s-.118 2.588-.874 5.75c-.755 3.162-1.39 7.056-1.409 8.653l-.036 2.903 11.25-.649c6.188-.356 13.117-.65 15.4-.652l4.149-.005 1.701-7.75c2.773-12.639 8.212-28.243 12.581-36.09 2.248-4.037 6.216-9.55 8.819-12.25 4.989-5.176 8.527-6.289 9.568-3.01.332 1.045-1.006 8.132-2.974 15.75-2.144 8.305-3.798 17.454-4.131 22.85l-.554 9 2.42 4.5c1.476 2.743 3.954 5.397 6.346 6.796 3.442 2.013 4.988 2.253 12.552 1.948 7.231-.292 9.657-.857 15-3.492 3.505-1.729 8.922-5.42 12.037-8.201 6.511-5.814 16.417-18.551 18.033-23.187.904-2.591.777-3.756-.706-6.51-.993-1.845-2.145-3.354-2.56-3.354s-3.557 3.332-6.983 7.405c-7.084 8.424-13.109 13.75-18.414 16.28-3.175 1.514-3.782 1.551-4.645.278-1.909-2.813-.031-12.597 5.651-29.44 6.696-19.851 7.73-27.211 4.533-32.282-1.13-1.793-3.521-4.183-5.314-5.313-2.716-1.712-4.461-1.985-10.479-1.643-5.505.313-8.711 1.149-13.5 3.522-7.063 3.499-16.427 10.935-20.39 16.193-1.658 2.199-2.44 2.757-2.105 1.5 1.062-3.981 10.667-31.428 17.613-50.329 3.906-10.631 7.102-20.104 7.102-21.05s-.54-2.261-1.2-2.921c-1.344-1.344-9.649-1.408-17.27-.134m-622.142 11.26c-4.56 1.72-9.515 5.414-12.592 9.387-3.335 4.306-4.519 10.996-2.644 14.943.743 1.564 2.925 3.631 4.849 4.592 11.295 5.645 30.103-3.752 32.919-16.447 1.113-5.017-.509-9.58-4.208-11.835-2.299-1.402-4.917-1.938-9.212-1.886-3.3.04-7.401.6-9.112 1.246m426.325.052c-8.262 2.298-15.948 10.027-17.338 17.436-.921 4.91 1.954 10.114 6.93 12.544 2.946 1.44 4.985 1.711 9.042 1.204 10.25-1.28 20.678-9.849 22.262-18.291.848-4.522-1.561-9.678-5.466-11.697-4.356-2.253-10.044-2.693-15.43-1.196m-74.963 66.414c2.045 2.601 1.465 12.425-1.239 20.985-2.84 8.989-8.412 18.195-13.945 23.04-4.055 3.55-8.177 5.542-9.623 4.648-.489-.302-1.391-2.413-2.004-4.691-.823-3.059-.818-6.252.021-12.208 1.578-11.197 4.397-19.208 8.794-24.993 2.06-2.71 5.739-5.978 8.174-7.261 4.664-2.459 7.626-2.314 9.822.48m-141.95-.592c.692.692 1.2 4.01 1.2 7.843 0 10.01-4.012 20.449-11.888 30.93-3.933 5.235-11.099 11.027-13.641 11.027-.676 0-1.798-1.375-2.494-3.056-1.572-3.794-.755-18.228 1.44-25.444 3.698-12.163 13.099-22.5 20.461-22.5 2.047 0 4.262.54 4.922 1.2m492.464 37.358c-5.467 3.276-9.265 9.647-9.26 15.53.004 5.263 2.91 10.549 6.562 11.937 4.179 1.589 10.504 1.119 15.138-1.124 4.687-2.269 9.936-8.852 10.9-13.67.315-1.574.074-4.714-.536-6.978-1.487-5.525-5.857-8.256-13.186-8.244-3.972.007-6.492.675-9.618 2.549"/></svg>