<svg xmlns="http://www.w3.org/2000/svg" viewBox="0 0 2048 2048"><path fill-rule="evenodd" d="M383.432 619.443c-4.987 1.289-11.962 3.803-15.5 5.586-9.37 4.723-22.094 13.323-31.874 21.543-11.724 9.854-26.468 25.262-34.441 35.99-7.831 10.539-15.709 25.938-18.64 36.438-4.149 14.861-3.63 34.662 1.26 48 3.592 9.799 10.903 20.965 19.263 29.424 11.837 11.977 19.667 17.489 87.242 61.418 5.633 3.662 10.133 6.959 10 7.328-.453 1.254-14.07 16.83-14.713 16.83-.352 0-8.04-4.336-17.085-9.635-22.091-12.942-48.517-30.466-60.599-40.185-17.511-14.086-29.055-27.871-36.29-43.336-5.193-11.099-7.502-22.692-6.734-33.809.324-4.694 1.521-11.833 2.66-15.864 2-7.08 6.908-18.02 11.206-24.973l2.076-3.36-4.881.66c-9.063 1.227-16.823 4.375-22.963 9.316-3.255 2.62-8.098 7.671-10.761 11.225s-7.051 10.972-9.75 16.484c-11.632 23.755-14.013 52.026-6.225 73.882 1.391 3.902 3.914 9.57 5.607 12.595 4.816 8.606 13.726 19.715 23.369 29.139 14.125 13.803 30.945 25.365 57.341 39.412 64.903 34.539 90.944 51.261 110.4 70.89 16.169 16.313 26.841 35.454 31.202 55.966.829 3.901 1.775 11.685 2.101 17.298 1.565 26.928-7.967 56.634-25.604 79.795-5.423 7.121-17.568 19.5-19.131 19.5-.606 0 .438-1.912 2.319-4.25 10.368-12.88 21.872-34.009 27.087-49.75 4.695-14.172 6.1-23.381 6.099-40 0-13.69-.322-16.742-2.762-26.14-1.519-5.853-3.855-13.332-5.192-16.621-2.971-7.313-7.91-15.839-13.766-23.769-10.685-14.467-20.928-23.436-44.253-38.745-15.551-10.207-29.137-17.883-60.509-34.185-40.518-21.056-52.561-29.119-71.009-47.54-13.254-13.236-21.666-24.672-27.51-37.398-4.475-9.747-6.392-15.723-8.053-25.102-2.835-16.015-1.211-31.869 4.734-46.191 5.336-12.856 18.034-28.789 29.736-37.31 3.323-2.42 5.857-4.586 5.63-4.813-.64-.64-14.52 3.776-19.007 6.047-2.207 1.117-7.303 4.297-11.326 7.068-12.219 8.415-23.416 22.882-29.066 37.555-4.86 12.62-6.38 21.859-6.441 39.144-.03 8.525.504 18.425 1.187 22 1.857 9.726 5.907 22.585 9.727 30.882 5.475 11.892 14.131 23.853 25.413 35.118 16.396 16.37 28.329 24.124 66.494 43.211 11 5.501 23.825 12.038 28.5 14.527 11.594 6.171 30.861 17.688 34.409 20.567l2.909 2.36-8.862 8.569-8.863 8.568-7.046-5.775c-3.876-3.176-9.032-7.009-11.459-8.516-8.462-5.256-19.943-10.478-28.476-12.951-16.417-4.757-39.383-5.543-57.249-1.958-14.946 2.999-28.217 8.495-41.019 16.989-19.249 12.771-34.038 32.044-40.242 52.443-2.899 9.533-4.102 17.323-4.102 26.562 0 15.884 4.715 32.133 12.99 44.768 5.841 8.917 16.253 18.72 24.081 22.672 9.106 4.597 17.04 6.298 26.598 5.703 6.401-.398 9.702-1.214 15.251-3.772 3.895-1.795 7.556-3.835 8.136-4.534.81-.976-.039-.942-3.66.148-6.209 1.869-21.477 1.809-28.854-.112-8.619-2.245-17.044-7.125-22.257-12.892-2.525-2.792-5.692-7.465-7.037-10.384-1.346-2.919-2.934-8.151-3.53-11.627-.875-5.11-.771-7.898.542-14.565.894-4.535 2.852-10.778 4.353-13.873 3.558-7.341 15.912-19.665 23.887-23.827 3.3-1.723 8.925-3.904 12.5-4.847 8.569-2.261 24.378-2.292 33-.065 8.617 2.225 17.805 6.593 25.893 12.309 8.471 5.986 21.361 18.396 30.764 29.616l7.386 8.814-12.698 10.186c-21.641 17.36-39.62 33.056-44.961 39.251-6.259 7.262-11.768 15.79-15.408 23.857-1.509 3.343-3.75 10.114-4.979 15.046-1.827 7.33-2.156 10.904-1.8 19.561.381 9.243.834 11.44 3.555 17.255 1.715 3.664 5.244 8.936 7.842 11.714 5.559 5.942 15.187 11.006 26.906 14.15 6.209 1.666 11.023 2.163 21.5 2.222 14.794.082 20.454-1.003 33.445-6.412 6.81-2.835 23.901-12.939 43.055-25.454 8.968-5.86 25.518-15.299 42-23.953 24.358-12.79 40.552-23.894 53.624-36.771 9.82-9.673 15.313-16.298 23.274-28.068 7.457-11.026 14.141-23.89 17.703-34.071 1.748-4.997 3.027-7.101 4.714-7.75 8.92-3.434 32.537 3.046 57.333 15.729 6.061 3.1 15.966 8.964 22.01 13.031 8.754 5.888 10.827 6.931 10.184 5.121-.444-1.25-.783-3.692-.753-5.428.11-6.511 6.191-14.127 31.046-38.882 14.827-14.767 25.709-26.474 28.217-30.354 2.245-3.474 5.084-8.857 6.308-11.962 1.807-4.582 2.237-7.723 2.283-16.669.051-9.875-.206-11.543-2.47-16-1.911-3.763-3.609-5.526-6.962-7.227-2.439-1.238-5.75-2.25-7.358-2.25h-2.923l2.613 2.055c2.91 2.289 5.657 10.096 5.657 16.077 0 6.027-2.014 13.882-5.29 20.63-3.34 6.881-12.324 17.47-16.774 19.771-1.626.841-5.526 1.46-9.136 1.452-12.599-.031-34.549-7.64-37.251-12.914-1.031-2.011-1.202-8.062-.79-27.797l.528-25.226 10.107-8.254c18.368-15.002 56.988-49.328 63.989-56.874 6.598-7.112 18.617-22.194 18.617-23.361 0-.307-.581-.559-1.292-.559-.71 0-3.131-1.913-5.38-4.25-6.417-6.671-28.022-34.316-34.582-44.25-6.021-9.117-14.493-25.685-16.876-33-.716-2.2-1.425-4.182-1.574-4.405-.687-1.022-27 17.525-64.003 45.112C531.579 857.396 527.591 860 524.51 860h-3.577l3.516 3.516c1.934 1.934 4.269 4.971 5.189 6.75 4.161 8.042 4.611 12.186 5.092 46.889.257 18.51-.031 49.56-.64 69-1.247 39.845-2.531 49.265-8.156 59.817-1.919 3.602-5.853 8.53-9.627 12.059-3.509 3.283-6.862 5.969-7.452 5.969-.603 0-.838-.984-.538-2.25.294-1.237 1.075-6.651 1.736-12.029.732-5.958 1.004-16.313.695-26.5-.38-12.562-1.175-20.057-3.195-30.134-1.479-7.378-3.824-17.053-5.211-21.5-3.271-10.486-11.761-28.067-18.2-37.688-6.558-9.798-22.419-24.994-34.303-32.865-8.799-5.827-40.2-22.034-42.691-22.034-.631 0-1.148-.47-1.148-1.043 0-1.8 33.083-34.171 42.088-41.183 4.723-3.678 14.398-10.589 21.5-15.359 16.844-11.314 28.865-21.011 39.67-32.005 10.91-11.1 19.455-22.517 24.631-32.91 6.63-13.312 7.616-17.411 7.574-31.5l-.037-12.5-2.725-5.806c-1.499-3.193-4.813-8.037-7.364-10.765s-4.815-4.785-5.029-4.57.537 1.959 1.669 3.877c1.132 1.919 2.587 7.12 3.234 11.558.984 6.75.915 9.541-.422 17.083-1.005 5.672-2.939 11.804-5.214 16.535-5.998 12.469-18.074 23.84-33.571 31.608-9.144 4.585-16.115 6.823-26.504 8.51-10.582 1.719-18.598 1.845-27.324.429-11.445-1.858-25.276-8.488-38.152-18.29-12.525-9.535-26.041-23.926-31.691-33.742-3.317-5.763-6.046-13.983-6.782-20.427-.883-7.727 1.307-18.434 5.519-26.99 1.74-3.535 5.609-9.129 8.596-12.43 7.158-7.911 15.951-12.38 25.407-12.914 13.284-.751 24.768 3.683 34.501 13.32 6.952 6.884 12.594 16.329 14.946 25.018.936 3.456 1.621 9.809 1.619 14.996-.005 10.158-2.022 17.337-7.268 25.868-3.996 6.497-13.848 18.593-17.97 22.062-1.734 1.459-2.983 2.794-2.777 2.967.207.174 2.626 1.133 5.376 2.132 2.75.998 5.522 2.21 6.161 2.691 1.575 1.19 11.19-8.754 17.025-17.609 6.179-9.376 11.756-21.397 14.689-31.657 4.882-17.083 5.708-38.282 2.054-52.734-.796-3.146-3.126-9.095-5.179-13.22-7.325-14.718-22.782-26.313-41.19-30.898-11.88-2.959-27.382-2.825-39.628.341m733.835 12.983c-17.478 3.328-36.705 11.608-53.267 22.939-4.125 2.822-12.92 10.532-19.545 17.133-17.188 17.128-27.882 33.698-35.282 54.668-3.704 10.499-5.693 19.885-7.186 33.909-.837 7.857-.835 13.254.008 21 1.222 11.241 5.108 24.364 9.553 32.264 4.097 7.283 12.658 15.959 19.171 19.43 3.191 1.701 8.839 3.653 12.552 4.337 5.142.947 8.182.977 12.769.124 3.311-.616 8.144-2.157 10.74-3.425 6.372-3.112 15.065-11.99 18.903-19.305 1.732-3.3 3.862-8.765 4.733-12.144.871-3.38 1.584-10 1.584-14.713 0-11.484-2.383-17.857-8.989-24.036-2.709-2.534-5.227-4.607-5.596-4.607s1.127 1.949 3.323 4.331c5.581 6.056 8.262 13.757 8.262 23.738 0 9.319-2.396 17.519-7.407 25.352-6.347 9.923-14.818 14.89-25.593 15.008-5.178.057-7.651-.494-12.161-2.709-3.113-1.529-7.326-4.623-9.361-6.876-5.065-5.606-9.224-14.93-11.132-24.953-1.179-6.191-1.441-11.407-1-19.891 1.674-32.206 10.792-56.738 30.065-80.887 6.598-8.267 18.225-19.679 26.089-25.609 7.828-5.901 24.263-13.937 32.596-15.937 19.352-4.645 39.209-4.654 62.904-.029 8.229 1.607 33.011 9.388 32.982 10.356-.01.333-2.147 2.013-4.75 3.732-12.205 8.063-27.082 22.998-37.804 37.951-18.956 26.438-38.823 68.041-77.084 161.423-18.053 44.063-31.036 73.203-44.774 100.5-6.643 13.2-16.351 31.124-21.574 39.831-10.406 17.348-25.024 37.498-36.192 49.886-8.13 9.019-22.935 21.709-33.282 28.527-9.858 6.497-23.973 12.961-33.64 15.405-6.74 1.705-10.29 2.002-19.32 1.617-7.338-.313-12.577-1.076-15.562-2.267-2.475-.987-7.783-3.948-11.796-6.579-6.238-4.09-7.205-4.467-6.67-2.602 1.472 5.13 6.104 13.418 9.649 17.264 2.187 2.373 6.495 5.372 10.07 7.011l6.247 2.864 13.259.37c15.141.422 23.348-.965 37.241-6.296 10.008-3.841 26.164-11.685 35.134-17.059 16.645-9.973 36.942-26.341 49.999-40.321 11.329-12.129 23.197-27.404 34.305-44.151 14.258-21.496 24.147-39.633 36.541-67.014 10.435-23.052 16.648-39.32 40.669-106.486 6.295-17.6 14.104-39.425 17.354-48.5 7.332-20.472 15.29-39.677 14.505-35-.324 1.925-2.113 12.05-3.977 22.5-6.085 34.123-9.942 70.784-14.042 133.5-2.98 45.573-5.544 64.628-11.616 86.322-4.805 17.17-13.941 37.872-22.142 50.178-2.2 3.3-5.832 7.912-8.073 10.25-2.24 2.338-3.726 4.25-3.302 4.25 1.969 0 11.961-5.644 17.016-9.611 6.615-5.192 12.789-12.796 18.514-22.803 2.275-3.977 9.468-19.573 15.985-34.658s14.213-32.828 17.104-39.428c8.94-20.408 35.326-73.082 46.087-92 13.886-24.414 37.703-62.439 50.642-80.852 10.865-15.46 26.273-35.005 27.013-34.265.226.225-1.378 3.967-3.563 8.314s-5.878 12.381-8.204 17.853-7.568 17.773-11.649 27.335c-18.962 44.429-38.193 96.711-48.78 132.615-6.772 22.966-14.161 53.784-16.706 69.677-1.891 11.813-2.286 18.091-2.251 35.823.036 18.334.368 23.007 2.255 31.734 5.481 25.344 15.785 45.126 33.91 65.101 14.006 15.437 31.378 26.207 49.807 30.88l10.965 2.781 23-.069c23.393-.07 36.157-1.193 62.5-5.502 6.875-1.124 14.43-2.525 16.788-3.113s4.524-.833 4.811-.546c.789.789-38.279 26.514-53.099 34.964-19.737 11.253-24.428 13.763-45 24.076-23.409 11.735-49.648 23.007-67.5 28.997-31.728 10.645-70.649 18.108-113.5 21.764-16.901 1.442-55.218 1.432-73-.02-14.614-1.192-14.914-1.303-18.112-6.678-.933-1.569-1.035-1.348-.636 1.381.261 1.787.209 3.25-.115 3.25-1.821 0-37.172-7.351-45.867-9.538-12.479-3.138-40.169-10.599-40.532-10.921-.634-.561 5.209-18.766 8.358-26.041 4.276-9.879 12.451-23.693 20.236-34.192 11.224-15.138 30.389-32.41 47.168-42.509 15.495-9.326 27.385-14.348 44.949-18.987 10.24-2.705 13.197-3.058 26.051-3.114 16.228-.07 22.655 1.185 33.915 6.622 8.851 4.274 19.647 14.988 23.893 23.711 1.732 3.558 3.833 9.151 4.67 12.429 1.921 7.523 1.938 20.386.037 27.54-4.582 17.24-20.21 37.298-40.282 51.702-3.447 2.474-9.658 6.253-13.804 8.398-4.145 2.145-6.867 3.9-6.048 3.9 2.799 0 15.563-2.96 21.745-5.043 9.726-3.276 23.736-10.523 31.374-16.228 18.998-14.191 31.058-31.769 34.417-50.163 1.548-8.481 1.337-22.171-.448-29.024-2.094-8.04-6.951-16.812-12.95-23.39-2.761-3.027-8.263-7.625-12.229-10.218-8.881-5.807-19.412-10.264-30.983-13.113-7.306-1.798-11.875-2.18-26.807-2.236-15.578-.059-19.208.238-26.975 2.208-4.937 1.252-11.992 3.364-15.678 4.694-8.527 3.076-20.98 9.333-31.246 15.7-26.568 16.478-53.05 43.562-69.528 71.108-5.997 10.025-11.518 22.347-15.549 34.705-1.525 4.675-3.093 8.854-3.484 9.286s-4.498-.388-9.126-1.823c-11.038-3.421-30.887-10.814-30.902-11.51-.007-.3 6.625-6.322 14.738-13.381 19.175-16.684 37.476-33.664 43.729-40.572 3.184-3.517 3.724-4.387 1.5-2.412-4.375 3.884-48.974 40.045-58.831 47.701-4.044 3.141-7.7 5.711-8.125 5.711-2.032 0-33.022-15.223-83.8-41.163l-18.276-9.337 7.078-3.243c16.041-7.35 29.783-10.257 48.478-10.257 9.624 0 14.262.513 21.697 2.399 5.201 1.319 12.233 3.801 15.628 5.514s6.172 2.957 6.172 2.762-3.487-2.85-7.75-5.901c-9.575-6.853-17.233-10.726-28.25-14.286-7.013-2.265-10.893-2.833-22.176-3.243-8.254-.3-16.969-.015-21.981.718-10.728 1.568-24.233 5.099-34.471 9.012l-8.128 3.107-17.372-7.174c-29.418-12.148-57.926-20.828-81.671-24.868-19.13-3.255-35.217-4.349-54.201-3.687-24.199.845-41.089 3.53-61.5 9.778-10.3 3.153-24.752 8.971-34.62 13.938-9.893 4.979-26.12 16.479-35.039 24.832-4.763 4.46-10.906 11.145-13.652 14.854-7.082 9.569-13.715 23.396-16.66 34.731-2.007 7.722-2.528 12.138-2.522 21.373.008 13.231 2.311 24.872 6.609 33.397 6.841 13.574 15.657 24.355 26.782 32.755 7.928 5.986 21.521 11.925 32.472 14.188 7.443 1.538 12.129 1.884 20.63 1.526 25.408-1.071 52.077-10.026 80.5-27.031 7.965-4.765 22-14.452 22-15.184 0-.181-4.162 2.184-9.25 5.256-5.087 3.071-12.968 7.329-17.513 9.463-11.62 5.455-30.603 11.498-42.034 13.381-12.521 2.062-28.845 1.361-38.703-1.661-17.303-5.305-30.198-15.462-36.887-29.054-2.001-4.067-4.3-10.545-5.109-14.395-1.722-8.204-1.912-20.393-.457-29.361 2.032-12.519 8.155-26.818 16.905-39.476 2.768-4.004 9.199-11.336 14.29-16.293 13.724-13.361 25.401-21.157 42.924-28.655 22.461-9.612 52.769-14.01 81.373-11.808 23.321 1.794 42.056 5.723 66.53 13.951 13.684 4.6 35.931 13.343 35.931 14.12 0 .305-2.449 2.02-5.443 3.81-14.783 8.842-32.851 24.572-45.042 39.212-7.392 8.877-17.414 23.908-22.003 33-1.804 3.575-4.984 11.45-7.066 17.5-3.25 9.445-3.847 12.555-4.222 22-.241 6.05.061 13.7.67 17 1.365 7.401 5.768 16.578 10.742 22.388 10.454 12.213 30.666 18.687 50.357 16.13 10.743-1.395 25.562-5.271 33.434-8.745 9.465-4.177 27.188-14.037 36.909-20.535 11.558-7.725 33.454-24.298 46.767-35.398 5.832-4.862 19.043-16.185 29.358-25.163 10.315-8.977 19.3-16.532 19.966-16.787.666-.256 7.93 2.421 16.142 5.948s18.336 7.827 22.498 9.555l7.567 3.141-.908 7.233c-.499 3.978-.675 12.633-.389 19.233 1.089 25.21 10.019 48.57 26.765 70.016 7.539 9.654 20.562 21.482 32.266 29.306 19.841 13.262 42.028 22.311 64.61 26.351 8.497 1.521 15.986 2.079 28.522 2.128 17.309.066 28.901-1.235 47.56-5.338 21.066-4.634 45.523-13.423 68.94-24.777 23.758-11.518 48.371-26.91 75.458-47.186 30.107-22.537 45.658-35.777 88.086-75 27.171-25.119 29.3-27.036 53.864-48.5 16.683-14.579 23.457-19.914 24.99-19.684 4.915.738 22.174 5.36 22.965 6.149.484.483-2.593 4.541-7 9.232-10.052 10.7-18.14 21.315-23.775 31.204-4.245 7.448-6.555 12.549-11.827 26.113-2.879 7.405-16.095 24.801-27.761 36.538-19.139 19.258-74.276 70.482-85 78.969-20.134 15.935-47.946 33.455-67.531 42.541-12.275 5.695-27.685 11.265-40.41 14.607-9.256 2.431-14.349 3.14-25.559 3.559-11.041.413-15.374.175-20.5-1.124-3.575-.906-8.638-2.694-11.25-3.973s-4.75-2.006-4.75-1.615c0 1.133 9.149 9.333 13.149 11.785 7.034 4.313 14.824 6.355 26.403 6.92 8.2.401 13.199.105 19.375-1.146 10.437-2.115 22.386-5.866 30.399-9.543 3.396-1.559 9.239-4.213 12.986-5.898 8.596-3.867 22.633-12.223 38.688-23.028 24.354-16.391 36.453-26.524 66-55.274 29.033-28.249 49.832-50.47 59.858-63.952 4.753-6.391 9.111-12.418 9.683-13.393.742-1.263.932 2.794.662 14.12-.318 13.266-.042 17.463 1.669 25.393 1.51 6.997 3.66 12.689 8.16 21.603 3.361 6.656 8.308 14.817 10.993 18.136 5.519 6.821 14.266 13.091 22.739 16.3 3.155 1.195 9.561 2.851 14.236 3.681 10.003 1.774 24.453 1.301 36.5-1.196 10.409-2.158 24.215-6.875 33-11.276 11.299-5.659 25.67-15.624 34.46-23.893 4.5-4.233 11.639-12.3 15.864-17.927 12.367-16.472 23.752-40.288 28.808-60.269l1.858-7.341 3.005.546c30.697 5.578 46.37 7.147 62.005 6.211 13.292-.797 21.71-2.094 30.956-4.769 10.22-2.958 16.299-5.892 27.466-13.255 7.366-4.857 11.781-8.689 16.769-14.558 3.724-4.381 9.092-11.79 11.929-16.463 5.693-9.377 10.675-23.549 12.491-35.53 1.47-9.697.632-23.292-2.096-34-3.86-15.155-13.399-31.434-25.488-43.497-18.94-18.9-46.262-32.333-78.027-38.361-15.15-2.876-29.177-4.142-45.856-4.141-24.515.001-44.298 2.491-69.144 8.702-20.575 5.143-48.206 15.366-69.37 25.666l-7.17 3.489-14.23-3.937c-29.067-8.042-52.859-11.315-82.23-11.311-30.821.005-55.733 3.85-73.877 11.403-4.251 1.77-10.046 4.959-12.878 7.086-6.127 4.604-10.745 11.09-10.745 15.091 0 6.808 7.546 15.51 17.122 19.746 2.455 1.086 6.469 2.248 8.92 2.582 2.452.334 5.508.823 6.792 1.085 1.458.298 2.092.087 1.691-.563-.354-.572-1.531-1.04-2.617-1.04-3.118 0-11.71-4.768-13.492-7.487-2.6-3.97-3.597-10.128-2.373-14.671.595-2.213 2.903-5.998 5.128-8.412s6.36-5.506 9.187-6.871c7.874-3.801 21.312-7.314 36.96-9.662 10.923-1.639 19.008-2.136 35.182-2.162 11.55-.019 25.725.508 31.5 1.171 13.313 1.527 27.378 4.308 41.909 8.286l11.409 3.124-19.909 9.854c-10.95 5.42-26.884 13.063-35.409 16.983-35.029 16.109-65.555 25.89-89.974 28.828-12.227 1.471-33.338 1.236-41.341-.46-8.807-1.866-19.626-7.133-27.185-13.236-7.342-5.928-15.421-16.375-20.09-25.981-1.924-3.958-4.693-11.608-6.154-17l-2.657-9.804-.038-26.5c-.042-28.571.563-34.508 6.567-64.5 6.39-31.923 15.577-65.321 30.535-111 11.449-34.963 23.264-67.274 32.496-88.866 12.486-29.202 26.206-55.083 37.561-70.854 6.297-8.746 15.708-18.7 23.508-24.866 12.382-9.788 28.278-14.967 45.993-14.987 12.222-.013 21.73 1.238 35.279 4.643 15.436 3.88 28.445 8.56 61 21.948 16.5 6.785 35.543 14.397 42.317 16.917 13.53 5.031 36.107 12.211 66.328 21.093l19.646 5.773-4.929 10.1c-2.712 5.554-5.591 10.245-6.399 10.423-3.715.819-25.511-5.806-69.463-21.114-11.825-4.118-26.675-8.863-33-10.545-25.215-6.702-49.805-9.788-69.589-8.731-14.422.769-31.614 4.141-43.721 8.573-9.192 3.366-20.042 9.862-21.107 12.638-.341.888.826 4.819 2.594 8.735s3.347 7.304 3.511 7.529c.163.225 2.915-2.088 6.115-5.14s8.49-6.894 11.757-8.539c7.427-3.739 22.587-8.586 32.44-10.371s46.54-1.816 58-.048c13.655 2.107 31.713 6.599 60.654 15.088 25.659 7.526 44.234 12.176 54.431 13.626 2.521.359 5.104.974 5.74 1.367.8.494-1.319 6.397-6.878 19.161a30567 30567 0 0 0-13.24 30.447l-5.207 12-.561-6.5c-.696-8.065-4.37-16.342-9.931-22.375-2.294-2.489-6.268-5.541-8.831-6.781-3.428-1.66-6.378-2.242-11.168-2.204-8.286.065-16.386 2.944-25.509 9.066-3.85 2.584-11.95 9.693-18 15.799-15.932 16.078-24.518 28.577-37.936 55.228-8.869 17.614-11.727 24.706-20.048 49.754-3.474 10.457-7.2 21.038-8.28 23.513-3.415 7.825-17.185 31.125-24.329 41.166-7.221 10.149-10.956 13.834-14.019 13.834-1.013 0-2.59-1.142-3.504-2.537l-1.663-2.538 1.772-9.212c2.346-12.195 11.659-41.726 21.98-69.697 19.169-51.951 31.222-79.152 39.986-90.235 2.487-3.146 6.889-7.582 9.781-9.859s5.403-4.52 5.578-4.984c.643-1.709-3.708-9.82-6.112-11.395-3.663-2.4-17.03-4.871-22.176-4.1-3.077.462-5.68 1.817-8.853 4.61-5.466 4.811-12.798 14.633-19.185 25.697-2.619 4.538-4.814 8.25-4.877 8.25s-.126-4.388-.139-9.75c-.033-13.367-2.045-18.979-9.467-26.401-4.321-4.321-6.945-6.049-11.022-7.26-6.676-1.983-11.95-2.01-19.284-.1-13.463 3.507-27.519 13.323-44.79 31.281-21.949 22.823-39.201 50.477-52.365 83.942-11.247 28.592-17.636 57.418-17.663 79.692-.016 12.788 1.837 23.018 5.613 31.001 3.162 6.683 11.163 15.732 15.896 17.978 4.596 2.181 13.277 2.079 17.763-.208 6.342-3.233 12.592-9.126 20.164-19.013 7.857-10.258 29.811-43.591 43.716-66.375 4.603-7.543 8.524-13.559 8.714-13.37.189.189-1.248 5.91-3.194 12.714-4.308 15.065-7.098 28.282-8.608 40.787-1.198 9.923-.682 17.754 1.598 24.214 3.383 9.589 12.758 18.563 20.475 19.598 7.059.947 10.58-.426 17.364-6.772 3.495-3.27 8.604-9.211 11.352-13.202 5.556-8.07 16.876-26.518 22.861-37.256l3.901-7 .632 9.5c.348 5.225 1.181 11.517 1.852 13.983 2.46 9.046 9.003 19.472 16.487 26.268 4.316 3.919 10.554 6.749 14.877 6.749 2.044 0 5.305-.664 7.247-1.475 7.35-3.071 18.296-17.093 37.879-48.525 4.283-6.875 9.236-14.75 11.005-17.5s5.379-8.719 8.021-13.265 4.967-8.102 5.166-7.902-.727 5.044-2.061 10.765c-3.584 15.377-4.966 27.663-4.347 38.67.395 7.023 1.27 11.644 3.143 16.598 1.428 3.777 3.91 8.652 5.514 10.834s4.856 5.392 7.224 7.133c3.338 2.456 5.323 3.167 8.833 3.167 6.302 0 12.803-4.076 19.627-12.307 5.506-6.64 17.996-25.965 25.168-38.939l3.733-6.754.645 12c.378 7.028 1.353 14.071 2.353 17 4.787 14.022 14.171 26.281 24.367 31.83 6.589 3.586 18.937 6.67 26.707 6.67 13.707 0 32.424-5.403 51.928-14.989 14.307-7.033 30.663-17.059 42.945-26.326 9.905-7.473 22.225-18.879 30.392-28.136 10.977-12.442 26.886-35.149 32.792-46.804 7.089-13.989 9.898-26.961 8.292-38.297-.988-6.977-5.328-16.707-8.887-19.921l-2.184-1.973.668 2.973c.367 1.635.859 3.691 1.093 4.568.848 3.179-1.682 16.155-4.651 23.852-3.437 8.914-11.597 22.365-20.46 33.73-7.229 9.269-30.12 32.319-43.383 43.684-19.906 17.058-37.408 28.763-59.117 39.537-8.525 4.231-18.748 8.737-22.717 10.012l-7.218 2.32-3.782-1.956c-2.776-1.435-4.582-3.509-6.783-7.79l-3-5.835-.346-14.451c-.191-7.949.174-18.107.81-22.575 1.557-10.929 4.974-25.467 6.158-26.199.528-.326 5.588-1.638 11.246-2.917 12.909-2.917 30.005-8.684 39.132-13.199 3.85-1.905 11.96-6.757 18.023-10.782 7.796-5.176 13.944-10.351 21-17.678 5.487-5.698 12.046-13.507 14.576-17.354 5.824-8.858 11.282-20.271 13.385-27.994.899-3.3 1.892-10.97 2.206-17.045.439-8.489.203-12.313-1.021-16.52-3.232-11.12-11.072-19.423-22.669-24.006-3.879-1.533-8.551-2.325-15.855-2.687-11.384-.565-18.36.558-26.888 4.325-12.344 5.454-27.125 17.638-40.779 33.614-25.691 30.06-44.438 67.154-53.48 105.819-2.648 11.321-10.887 29.122-21.525 46.5-4.04 6.6-9.859 15.038-12.931 18.75-4.11 4.967-6.231 6.75-8.029 6.75-4.467 0-6.008-6.567-4.462-19.016 1.944-15.642 8.354-37.556 19.328-66.075 18.223-47.355 51.554-124.884 66.461-154.59l5.003-9.97 7.328 1.381c10.588 1.996 43.923 2.802 55.158 1.335 11.867-1.55 38.899-8.142 54.171-13.21 6.6-2.19 17.067-6.461 23.26-9.49 9.239-4.521 12.753-6.923 19.586-13.391 9.078-8.593 13.564-15.693 16.123-25.516 1.95-7.488 1.957-18.362.016-25.998-.833-3.278-3.152-9.335-5.153-13.46-4.925-10.155-14.955-20.08-25.477-25.213-12.379-6.038-20.406-7.889-36.855-8.496-11.466-.424-16.279-.172-23 1.201-11.242 2.297-20.684 5.725-30.779 11.175-11.289 6.094-22.872 14.986-34.297 26.327-15.553 15.439-29.141 33.451-44.25 58.66l-6.686 11.154-8.244-2.276c-25.539-7.047-68.991-21.662-91.932-30.919a96860 96860 0 0 1-41.812-16.89c-48.59-19.642-79.862-27.733-107.128-27.717-11.732.007-26.822 2.034-37.551 5.044-16.077 4.511-33.957 13.561-48.918 24.759-4.897 3.664-14.693 12.294-21.77 19.177-18.592 18.082-35.735 39.17-57.324 70.514-12.79 18.569-33.67 53.12-47.884 79.236-5.459 10.03-10.07 17.571-10.247 16.757-.596-2.74 3.93-38.806 7.906-62.993 7.682-46.726 15.27-80.683 23.13-103.5 4.952-14.378 12.257-28.688 18.632-36.5 2.693-3.3 7.344-7.575 10.335-9.5l5.439-3.5-2.81-7.314c-1.546-4.022-2.81-7.96-2.81-8.75s-.845-1.436-1.877-1.436-6.273 1.353-11.645 3.007c-7.63 2.349-10.448 2.811-12.873 2.111-1.708-.493-9.855-3.434-18.105-6.537s-21.975-7.477-30.5-9.722l-15.5-4.083-17-.363c-11.679-.25-19.264.067-24.233 1.013M887 654.498c-8.792 1.773-21.577 6.562-30.848 11.555-4.208 2.267-11.235 6.67-15.615 9.785-4.38 3.114-16.98 14.461-28 25.215-20.148 19.66-25.069 23.348-32.848 24.61l-3.475.564 2.333 3.437c1.283 1.89 2.783 5.777 3.334 8.637.551 2.859 1.304 19.712 1.672 37.449l.669 32.25h-2.143c-3.004 0-8.266-2.369-10.244-4.612-.915-1.038-2.072-3.463-2.57-5.388l-.904-3.5-4.138 10.565c-4.941 12.617-9.615 29.118-11.703 41.316-.836 4.885-1.52 12.448-1.52 16.807 0 8.033 1.582 16.812 3.029 16.812.436 0 3.277-3.937 6.314-8.75 3.038-4.812 6.79-9.946 8.34-11.407 3.045-2.871 8.796-4.829 14.217-4.837l3.4-.006-.7 64.25c-.704 64.536-1.678 91.646-3.728 103.735-.608 3.583-2.453 10.046-4.099 14.363-2.03 5.321-4.326 9.231-7.133 12.146l-4.14 4.299 7.391 7.853c13.541 14.388 28.178 33.747 38.617 51.078l3.373 5.599.655-2.912c4.438-19.737 10.861-34.709 22.45-52.325 5.941-9.032 16.626-20.754 24.014-26.344l3.5-2.648-5.56-.047c-4.433-.037-7.055.689-12.934 3.586l-7.373 3.632-1.816-2.243-1.817-2.244.001-49.639.001-49.639 10.749-.03c9.558-.027 11.401-.332 16.631-2.753 8.048-3.727 21.128-16.899 25.446-25.627 1.745-3.525 3.172-7.014 3.172-7.753s-1.615.445-3.589 2.63c-1.975 2.186-6.135 5.218-9.245 6.74-4.691 2.295-6.934 2.759-13.16 2.722-8.659-.052-16.29-2.119-23.756-6.434L838 903.96V853h14.744l.659 4.25c.919 5.933 4.863 13.646 9.054 17.709l3.543 3.433v-4.581c0-2.52.774-6.996 1.719-9.946 1.297-4.049 3.198-6.838 7.75-11.371 3.317-3.303 9.309-8.663 13.316-11.91 8.085-6.551 15.254-15.379 18.912-23.288 3.448-7.453 4.828-15.923 3.658-22.444l-.961-5.352-1.728 3.946c-3.051 6.968-6.624 10.638-13.557 13.923L888.5 810.5l-25.25.338-25.25.339.004-39.839c.004-42.964.799-52.685 5.046-61.72 3.1-6.596 8.242-10.149 16.766-11.587 4.969-.838 8.589-.848 13.717-.039 3.832.605 8.767 2.016 10.967 3.137s6.143 4.125 8.762 6.678c5.639 5.496 8.738 12.818 8.738 20.641 0 10.932-5.933 23.174-14.83 30.603l-3.67 3.063 3-.723c8.89-2.142 29.407-12.388 40.185-20.067 3.402-2.424 9.518-7.949 13.59-12.278 14.818-15.752 18.238-30.437 10.668-45.813-1.782-3.619-5.974-9.408-9.586-13.238-4.601-4.877-8.607-7.934-14.138-10.789-4.246-2.192-10.104-4.484-13.018-5.095-6.871-1.44-18.992-1.268-27.201.387m941.32-.003c16.524 4.304 25.284 13.903 26.371 28.895.641 8.842-1.505 18.582-5.951 27.007-8.273 15.679-37.378 37.372-57.321 42.723-6.517 1.749-11.726 2.211-29.419 2.611-16.03.362-25.189.07-36-1.146-7.975-.898-16.881-2.108-19.792-2.688l-5.291-1.056 3.693-6.671c10.736-19.393 24.999-39.093 39.398-54.418 10.282-10.943 25.801-23.134 35.821-28.139 5.942-2.968 16.1-6.686 21.671-7.933 1.1-.247 6.293-.5 11.54-.564 5.623-.068 11.897.498 15.28 1.379M742.894 673.961c-4.619 1.399-13.166 6.058-19.81 10.798-3.561 2.542-9.962 8.141-14.225 12.444-12.562 12.681-23.467 30.809-27.229 45.261-1.394 5.355-1.396 6.137-.022 7.656.842.93 2.261 3.871 3.154 6.535 1.388 4.145 1.683 12.212 2.037 55.845.403 49.522-1.025 144.357-2.814 187-.602 14.334-1.405 22.746-2.529 26.5-2.49 8.317-7.39 16.841-12.956 22.539l-5 5.118 10.645 5.834c14.885 8.158 27.932 17.598 37.676 27.259 4.577 4.537 8.515 8.25 8.75 8.25.236 0 .429-1.07.429-2.378s.727-4.12 1.616-6.25c3.418-8.193 10.64-17.385 24.172-30.769 11.835-11.705 14.539-14.954 17.14-20.598 1.801-3.906 3.445-9.579 3.943-13.603.809-6.525.161-15.471-1.694-23.402-.644-2.755-.945-1.052-1.411 8-.646 12.539-2.385 19.014-6.885 25.627-3.288 4.833-9.549 7.846-14.409 6.934-1.717-.322-4.286-1.818-5.71-3.323-1.424-1.506-3.166-4.763-3.872-7.238-1.023-3.585-1.263-36.642-1.181-162.545.078-119.354.397-159.135 1.302-162.495 1.436-5.335 4.367-11.264 7.79-15.76 2.707-3.555 8.991-7.567 13.486-8.61 3.564-.827 9.691.818 13.135 3.527 1.476 1.161 2.872 1.922 3.103 1.691s-.902-2.023-2.518-3.983c-4.195-5.09-8.525-6.841-16.658-6.739-3.767.047-8.022.441-9.455.875m214.619 130.257c1.937 4.844 1.891 13.047-.112 19.85-2.238 7.602-9.935 23.531-25.127 51.999-7.171 13.438-13.993 26.55-15.16 29.137-5.294 11.736-9.212 22.598-11.734 32.531-2.19 8.622-2.749 13.153-2.807 22.765-.046 7.504.455 13.873 1.335 17 3.234 11.481 9.116 19.153 16.491 21.508 6.02 1.923 14.899.598 23.101-3.446 15.224-7.508 37.312-28.183 53.482-50.062 11.445-15.485 17.472-26.59 22.072-40.665 3.852-11.787 4.77-23.1 2.571-31.666-.894-3.482-2.355-7.307-3.248-8.5-1.457-1.947-1.542-1.964-.834-.169.433 1.1.985 5.46 1.226 9.688.521 9.169-1.636 20.937-5.832 31.82-3.687 9.561-12.93 24.619-23.081 37.601-8.99 11.497-28.266 30.774-37.722 37.722-3.502 2.573-8.452 5.62-11 6.772-2.549 1.151-7.433 2.335-10.854 2.63-4.85.418-6.796.159-8.834-1.176-1.437-.942-3.301-3.36-4.142-5.373-1.19-2.847-1.425-6.325-1.06-15.672.422-10.788.906-13.322 4.75-24.871 2.959-8.891 9.207-22.778 20.247-45 10.305-20.745 17.394-36.396 19.994-44.141 3.394-10.113 4.107-13.684 4.536-22.706.438-9.234.201-11.661-1.724-17.649-1.228-3.819-3.535-8.451-5.127-10.294l-2.893-3.351zm825.6 18.032c3.062 7.345.02 26.138-6.505 40.183-11.328 24.384-31.846 47.767-55.128 62.826-6.334 4.097-26.555 13.93-27.272 13.262-.631-.587 8.251-21.716 14.301-34.021 13.555-27.568 29.651-50.758 47.937-69.067 7.458-7.467 12.826-11.94 16.5-13.75 2.996-1.476 6.204-2.683 7.129-2.683.953 0 2.27 1.408 3.038 3.25m-344.441 5.156c3.131 3.639 3.781 11.238 1.934 22.594-1.638 10.067-5.465 22.28-10.342 33-3.202 7.04-17.522 32.853-28.016 50.5-17.677 29.729-33.506 52.835-45.929 67.044-7.78 8.9-15.285 14.809-18.098 14.25-1.496-.298-1.711-1.644-1.646-10.318.091-12.001 2.828-26.437 9.474-49.977 10.247-36.29 22.762-64.765 39.659-90.237 7.837-11.812 23.598-29.312 30.967-34.382 2.392-1.646 6.032-3.634 8.088-4.417 5.281-2.012 11.222-1.182 13.909 1.943m164.289.573c1.006.538 2.326 2.405 2.934 4.149 1.877 5.384 1.271 18.335-1.486 31.757-3.942 19.193-10.044 33.614-25.447 60.138-10.114 17.417-38.82 61.621-46.266 71.246-8.266 10.683-8.835 11.312-11.446 12.649-1.609.824-2.814.851-4.227.094-1.087-.582-2.437-1.918-3-2.969-1.818-3.397-1.144-16.548 1.399-27.301 5.37-22.709 13.724-45.109 26.57-71.242 9.556-19.442 21.009-38.417 32.291-53.5 9.02-12.059 16.017-19.537 21.663-23.153 2.445-1.566 4.612-2.847 4.816-2.847s1.193.441 2.199.979M600.1 878c9.015 11.932 15.207 23.779 16.923 32.383.647 3.244.884 8.205.528 11.057-.805 6.443-4.246 14.003-8.669 19.046-1.86 2.121-7.882 7.627-13.382 12.237l-10 8.38-.308-38.801c-.169-21.341-.006-43.975.364-50.297l.672-11.495 2.969 3.495c1.633 1.922 6.539 8.22 10.903 13.995M371.442 983.422c9.124 6.51 25.726 22.672 32.43 31.569 9.872 13.101 16.335 26.209 19.229 39 .558 2.471 1.444 7.907 1.967 12.082 1.142 9.107-.141 23.457-3.153 35.268-2.265 8.882-5.709 17.659-6.93 17.659-.422 0-1.074-1.237-1.447-2.75-1.433-5.811-10.81-28.36-17.388-41.815-12.959-26.509-25.512-46.576-41.812-66.844l-8.773-10.909 9.325-8.841c5.129-4.862 9.557-8.841 9.84-8.841.284 0 3.304 1.99 6.712 4.422m1315.394 100.053c21.654 3.622 41.021 10.6 54.135 19.505 16.222 11.016 28.563 24.868 35.937 40.336 5.839 12.247 7.551 20.058 7.49 34.184-.044 10.217-.447 13.2-2.714 20.078-4.447 13.494-13.427 25.569-25.33 34.063-3.395 2.423-9.477 5.922-13.514 7.775-14.734 6.762-36.653 10.249-57.34 9.121-13.086-.714-37.72-3.956-43.846-5.772l-3.847-1.139.717-6.563c1.189-10.876.722-31.04-.897-38.791-1.776-8.499-7.697-21.599-14.148-31.303-2.526-3.8-8.634-10.931-13.573-15.846l-8.979-8.937 8.786-.843c13.248-1.271 33.628-.774 44.287 1.08 18.399 3.2 31.108 8.075 43.645 16.742 4.123 2.851 9.04 6.986 10.926 9.189s3.429 3.762 3.429 3.464-1.344-2.234-2.987-4.301c-5.023-6.322-14.295-13.005-26.18-18.873-11.791-5.82-24.436-9.648-38.2-11.562-8.942-1.244-29.3-1.322-41.467-.16l-8.333.796-9.167-5.533c-8.847-5.341-20.383-11.077-31.493-15.663l-5.327-2.198 12.068-6.198c14.4-7.396 30.327-13.914 43.977-17.997 8.853-2.649 22.863-5.287 34.609-6.517 8.057-.844 38.26.344 47.336 1.863m-1367.134 11.293c1.761 2.603 6.179 9.007 9.818 14.232 13.809 19.825 23.169 36.426 27.066 48 2.514 7.469 2.584 22.58.137 29.589-2.446 7.005-6.002 10.132-13.153 11.568-4.481.9-8.225.894-16.138-.025-5.666-.659-13.144-2.124-16.617-3.256-14.212-4.633-25.825-13.094-30.564-22.268-2.222-4.301-2.706-6.741-3.061-15.436-.309-7.544.038-12.223 1.286-17.358 3.156-12.984 12.954-30.971 21.265-39.04 3.333-3.235 14.731-10.803 16.2-10.756.308.01 2 2.147 3.761 4.75m1239.622 31.08c7.582 3.438 22.858 12.303 22.249 12.912-.218.218-6.848 2.558-14.734 5.201-28.479 9.542-53.081 22.209-73.929 38.064l-7.589 5.771-13.411-3.341a5119 5119 0 0 0-13.677-3.398c-.313-.067 19.167-17.797 29.293-26.663 9.119-7.985 29.736-23.326 41.575-30.936l9.399-6.041 7.037 2.685c3.87 1.476 10.075 4.062 13.787 5.746m36.773 23.53c4.072 3.508 9.036 8.121 11.033 10.25 9.419 10.047 16.248 21.86 19.972 34.551 1.702 5.798 2.245 10.858 2.609 24.321.253 9.35.084 17.97-.375 19.156l-.836 2.156-9.248-2.4c-11.613-3.013-39.7-12.997-56.752-20.172-7.15-3.009-14.125-5.907-15.5-6.44l-2.5-.969 4-2.083c2.661-1.386 6.579-2.237 11.704-2.541 6.543-.39 8.239-.143 11.25 1.633 1.95 1.151 3.546 1.904 3.546 1.673s-.488-1.491-1.085-2.801-2.51-3.227-4.25-4.261c-2.315-1.375-5.045-1.869-10.165-1.838-5.076.031-9.43.871-15.84 3.055l-8.84 3.013-12.144-4.85c-6.679-2.668-16.315-6.275-21.413-8.015l-9.269-3.165 3.253-2.811c5.93-5.124 25.11-17.663 34.753-22.719 5.225-2.74 14.562-7.049 20.749-9.576 10.681-4.362 32.922-11.397 36.348-11.498.879-.026 4.929 2.823 9 6.331m-950.747 35.607c-22.196 5.818-39.282 17.357-50.792 34.301-3.181 4.684-6.494 11.048-7.599 14.598-2.581 8.292-2.568 18.412.031 25.361 1.216 3.248 3.65 6.922 6.25 9.435 4.033 3.897 13.284 9.32 15.898 9.32.663 0-.961-1.434-3.608-3.188-2.646-1.753-6.078-5.184-7.626-7.625s-3.34-6.968-3.983-10.062c-1.6-7.694-.632-19.278 2.318-27.762 1.352-3.887 4.207-9.702 6.345-12.923 5.032-7.582 13.78-15.971 21.568-20.682 8.243-4.988 20.068-9.454 29.582-11.174 6.657-1.204 7.123-1.409 3.266-1.439-2.475-.019-7.718.809-11.65 1.84m154.15 7.048c16.753 7.378 37.298 16.606 60.5 27.175 10.175 4.635 21.08 9.521 24.233 10.859s5.741 2.708 5.75 3.044c.009.337-4.146 3.947-9.233 8.024a3064 3064 0 0 0-19.611 15.889c-30.343 24.824-40.908 32.986-53.639 41.445-15.398 10.231-27.77 16.761-40 21.115-7.067 2.516-9.4 2.852-20 2.882l-12 .034-5.063-2.672c-8.989-4.744-14.825-13.083-17.329-24.76-1.51-7.04-1.365-20.194.31-28.092 3.265-15.401 12.394-33.199 24.334-47.447 8.782-10.478 22.035-21.749 33.659-28.624 7.754-4.587 10.474-5.725 12.5-5.229 1.424.348 8.439 3.209 15.589 6.357m702.013 11.48c7.157 2.857 14.733 6.078 16.835 7.157l3.823 1.961-9.335 5.915c-14.103 8.935-35.272 25.079-45.112 34.404-10.554 10.002-19.44 21.54-24.802 32.205-2.178 4.332-4.848 11.581-5.934 16.11-1.087 4.535-2.016 12.054-2.067 16.735-.07 6.43-.303 7.799-.955 5.619-.475-1.584-1.355-6.998-1.955-12.031-.761-6.368-.788-12.367-.091-19.729 1.361-14.355 8.024-34.709 16.145-49.312 7.804-14.032 18.343-28.208 28.038-37.713 6.358-6.233 8.248-7.559 10.109-7.092 1.258.316 8.144 2.913 15.301 5.771m46.597 20.592c7.365 3.358 18.115 8.047 23.89 10.421 13.061 5.368 34.133 12.617 45.156 15.532 4.589 1.214 8.64 2.485 9.002 2.825.85.796-2.44 13.623-5.8 22.617-4.655 12.459-14.194 29.743-22.486 40.744-14.677 19.472-31.386 33.204-49.659 40.811-4.091 1.703-10.425 3.73-14.075 4.503-3.651.774-11.381 1.415-17.178 1.425-15.344.025-25.227-2.983-34.503-10.501-2.223-1.802-5.289-5.076-6.814-7.275-3.93-5.672-7.436-16.464-8.533-26.268-1.041-9.304-.083-21.857 2.399-31.439 4.756-18.362 17.329-35.437 37.675-51.164 6.657-5.145 25.903-18.221 26.926-18.293.336-.024 6.636 2.704 14 6.062m-213.641 9.01c-13.461 13.79-62.114 59.31-74.002 69.237-20.809 17.377-49.809 38.588-67.534 49.398-12.329 7.518-30.466 17.043-41.12 21.593-12.707 5.428-26.675 9.85-40.313 12.764-7.721 1.649-14.801 2.25-31.068 2.634-16.278.384-23.325.139-31-1.079-14.619-2.32-26.434-6.069-38.348-12.168-18.821-9.637-33.433-23.346-44.732-41.968-5.822-9.595-10.556-21.8-13.585-35.026-1.547-6.757-2.081-12.661-2.141-23.689-.044-8.08.213-14.983.572-15.342s7.774 1.623 16.477 4.404c8.704 2.782 21.675 6.642 28.825 8.578 11.259 3.048 34.061 7.895 47.068 10.004 2.987.484 4.501 1.392 5.697 3.416 3.219 5.45 18.707 20.844 25.674 25.518 9.322 6.255 23.588 12.805 33.561 15.41 13.816 3.609 23.465 4.497 42.854 3.945 14.556-.414 20.619-1.05 30.646-3.214 18.261-3.941 39.903-11.401 56.59-19.506 8.058-3.914 14.417-7.35 14.132-7.636-.286-.285-3.153.8-6.371 2.412-17.832 8.933-47.966 18.092-70.104 21.308-12.373 1.798-17.484 2.05-31.747 1.566-9.35-.317-19.925-1.249-23.5-2.071-17.303-3.978-33.895-11.37-46-20.493-6.966-5.25-18.574-16.869-17.714-17.73.287-.286 7.593.183 16.235 1.044 8.642.86 25.223 1.844 36.846 2.187 15.696.463 26.407.192 41.633-1.052 23.84-1.949 45.082-5.33 63.754-10.149 18.739-4.836 30-8.557 51.746-17.099 22.167-8.707 33.063-13.645 55-24.927 8.8-4.525 16.436-8.263 16.969-8.306.532-.043-1.718 2.674-5 6.037m204.055 74.04c5.439 4.776 7.48 9.582 7.454 17.555-.023 7.02-1.739 12.23-6.132 18.613l-2.187 3.177 3.363-3c1.849-1.65 4.161-3.9 5.137-5 2.906-3.275 5.841-10.241 5.841-13.863 0-4.536-2.558-11.533-5.284-14.456-2.261-2.424-8.771-6.181-10.711-6.181-.591 0 .543 1.42 2.519 3.155"/></svg>