<svg xmlns="http://www.w3.org/2000/svg" viewBox="0 0 2048 2048"><path fill-rule="evenodd" d="M1123.772 214.617c-1.495 5.839-3.519 12.248-4.496 14.241-1.057 2.157-3.377 4.513-5.73 5.819-2.175 1.208-8.925 3.436-15 4.954l-11.046 2.758 3.5.894c10.265 2.625 20.861 6.125 23.59 7.794 1.7 1.039 3.881 3.641 4.847 5.783s3 8.787 4.521 14.767l2.765 10.873 1.771-8c2.338-10.556 5.104-17.869 8.113-21.445 2.61-3.102 7.324-4.985 21.393-8.547l8.5-2.152-7.5-1.765c-13.879-3.267-19.803-5.568-22.458-8.724-2.261-2.686-5.579-11.857-8.547-23.617-.59-2.338-1.169-4.25-1.288-4.25-.118 0-1.439 4.778-2.935 10.617M911.5 247.946c-11.973 1.391-23.564 4.121-35 8.244-26.589 9.587-30.433 10.835-38 12.332-4.891.967-18.105 1.944-34 2.512-32.534 1.163-47.465 2.446-64.053 5.501-57.365 10.564-94.36 34.622-113.43 73.761l-5.803 11.908-7.357 2.46c-11.217 3.75-27.219 11.705-38.048 18.914-5.361 3.569-13.612 10.148-18.337 14.62-8.793 8.323-20.065 22.423-26.822 33.552-2.087 3.438-3.913 6.25-4.058 6.25s-5.529-5.288-11.965-11.75l-11.701-11.75-2.423 2.966c-3.753 4.595-12.999 23.157-15.912 31.945-1.443 4.351-3.121 11.101-3.729 15-1.357 8.693-.528 27.446 1.485 33.589 2.145 6.549 4.463 11.739 7.127 15.959l2.346 3.716-3.147 8.412-3.147 8.413-6.629 3.246c-7.629 3.735-16.484 11.204-23.197 19.564-2.567 3.196-6.31 9.271-8.319 13.5-3.467 7.297-9.804 29.659-10.539 37.19l-.342 3.5 14.25.277 14.25.278-.01 5.722c-.019 10.582-2.057 29.164-4.054 36.975-2.26 8.836-6.333 18.035-11.06 24.978-1.786 2.623-7.121 9.959-11.855 16.302-11.163 14.956-17.375 24.996-21.463 34.69-5.416 12.842-7.7 23.269-8.273 37.778-.384 9.691-.094 15.233 1.137 21.775 4.212 22.374 15.76 44.915 33.615 65.608l5.724 6.634-1.432 6.491c-2.056 9.325-1.996 28.696.12 38.492 2.445 11.323 6.733 21.846 12.447 30.551 6.752 10.284 19.574 22.301 30.112 28.218 9.491 5.331 21.701 9.597 29.988 10.477l5.496.585 4.358 4.848c11.332 12.603 31.892 25.369 47.843 29.706 10.219 2.779 24.928 4.438 34.761 3.922l8.432-.442.662 4.067c.364 2.238 1.819 6.22 3.234 8.85l2.571 4.782-1.927 1.36c-1.059.747-4.818 3.675-8.352 6.506-10.182 8.157-36.077 25.069-54.39 35.523-27.681 15.801-50.332 26.555-101.184 48.037-57.131 24.136-85.027 37.723-106.067 51.663-10.238 6.783-16.635 11.956-24.444 19.767-12.081 12.085-20.468 24.043-28.658 40.858-6.351 13.041-14.94 38.48-18.823 55.751-7.67 34.116-12.6 72.487-15.48 120.471-3.883 64.716-3.078 144.481 2.03 201 4.896 54.186 14.898 147.981 17.515 164.25l.603 3.75h7.412c5.267 0 7.41-.362 7.404-1.25-.005-.687-1.583-13.625-3.507-28.75-4.352-34.21-8.148-71.422-9.029-88.5l-.67-13 4.357-1.362c19.656-6.143 48.521-11.54 78.202-14.622 24.624-2.557 58.699-3.545 84.572-2.452 23.774 1.004 49.95 3.802 60.031 6.417 3.479.903 6.392 2.41 7.802 4.036l2.25 2.595v32.233l-6.75 6.591c-3.712 3.626-20.81 19.314-37.993 34.863-29.186 26.409-44.526 41.907-56.37 56.951l-4.921 6.25h12.409l16.062-15.79c15.946-15.676 28.42-27.117 65.016-59.634 38.377-34.099 68.821-64.673 97.674-98.089 20.916-24.224 50.186-60.802 74.408-92.987 13.66-18.15 27.307-36.15 30.327-40 6.808-8.677 17.247-20.408 31.844-35.78 6.163-6.491 13.939-15.428 17.28-19.861 3.34-4.433 9.27-13.527 13.178-20.21 3.908-6.682 8.957-15.068 11.22-18.637 6.139-9.676 22.185-28.741 52.389-62.241 22.576-25.042 27.647-29.77 40.239-37.523 15.347-9.449 30.21-20.058 42.988-30.682 5.775-4.802 12.075-9.533 14-10.513s7.55-2.809 12.5-4.065c10.455-2.654 23.807-8.529 29.809-13.118 2.305-1.762 6.926-5.851 10.268-9.086l6.076-5.883 1.833 6.3c1.008 3.464 1.873 6.663 1.923 7.107.05.445-3.567 2.3-8.038 4.124-15.199 6.198-28.824 16.671-38.201 29.361-6.756 9.144-10.853 16.181-15.151 26.027l-3.632 8.321-11.944 4.773c-26.428 10.563-51.533 22.889-48.606 23.865.65.217 6.69-1.013 13.423-2.733 10.928-2.792 24.74-7.347 92.74-30.585 22.5-7.688 37.578-10.954 46.952-10.168 3.646.305 8.531 1.316 10.855 2.246 9.155 3.664 16.108 16.084 14.868 26.56-.896 7.561-3.989 12.484-10.465 16.653-3.14 2.022-16.51 8.689-29.71 14.814-21.084 9.784-34.751 16.735-42.25 21.489-6.482 4.109 1.854 3.48 16.75-1.264 18.875-6.01 48.162-18.69 63.201-27.363l4.702-2.711 3.244 1.344c4.646 1.924 9.645 6.612 12.023 11.272 1.128 2.212 2.289 6.639 2.579 9.838.728 8.021-1.53 13.547-7.856 19.235-2.73 2.454-15.185 10.64-27.678 18.192-28.834 17.428-45.382 28.569-44.195 29.755 1.37 1.371 27.432-10.288 54.759-24.497l17.278-8.984 3.418 2.112c2.237 1.383 4.472 4.223 6.471 8.224 2.391 4.785 3.054 7.419 3.054 12.136 0 7.89-2.661 13.308-9.53 19.405-2.944 2.613-9.317 7.204-14.161 10.201-14.633 9.054-36.556 23.793-40.809 27.437-2.2 1.885-3.68 3.751-3.289 4.148 1.14 1.155 15.713-5.101 37.789-16.221l20.5-10.327 1.328 1.756c.731.967 2.295 3.557 3.476 5.757 1.622 3.021 2.144 5.726 2.133 11.052-.012 5.818-.481 7.848-2.68 11.6-3.281 5.599-12.579 14.321-22.096 20.728-9.242 6.222-29.057 17.005-40.88 22.247-18.699 8.289-37.033 14.136-60.725 19.366-14.11 3.114-28.344 5.533-55.556 9.439-11.55 1.658-23.475 3.745-26.5 4.638-8.168 2.41-17.977 7.874-24.379 13.58-3.121 2.782-8.532 8.724-12.024 13.204-11.225 14.403-21.623 31.343-49.805 81.146-4.669 8.25-13.217 23.325-18.996 33.5-11.2 19.719-28.464 50.565-44.076 78.75l-9.554 17.25h425.602l2.266-5.75c1.246-3.163 5.22-11.825 8.831-19.25 4.511-9.275 12.731-22.767 26.266-43.109l19.701-29.608 7.238-5.265c4.723-3.435 6.983-4.614 6.503-3.391-1.466 3.735-10.823 29.167-15.222 41.373-5.124 14.22-14.604 45.08-14.026 45.658.623.623 17.128-29.377 29.795-54.158 17.585-34.402 31.022-64.634 40.891-92 1.785-4.95 3.366-9.478 3.514-10.062.165-.656 8.063-1.521 20.622-2.26 22.389-1.319 40.99-3.823 56.424-7.598 12.945-3.165 22.124-6.645 29.798-11.295 7.322-4.437 18.511-15.39 24.553-24.035 2.402-3.437 4.548-6.25 4.768-6.25s.148 1.462-.161 3.25c-.808 4.67-5.189 47.188-6.982 67.75-.839 9.625-3.766 46.3-6.504 81.5-2.739 35.2-5.186 66.362-5.439 69.25l-.459 5.25H1384l-.003-2.25c-.002-1.237 1.556-22.95 3.461-48.25s4.626-62.425 6.045-82.5c2.894-40.914 6.859-85.975 9.011-102.406.786-5.998 2.15-13.076 3.031-15.729 3.445-10.372 18.337-19.49 62.955-38.544 12.1-5.168 24.409-10.842 27.354-12.608 2.944-1.767 7.774-5.818 10.733-9.002 4.425-4.761 5.749-7.067 7.465-13 4.061-14.037 4.522-14.836 13.088-22.662 10.094-9.223 12.922-14.619 12.95-24.716.034-12.119.574-13.76 6.779-20.608 8.886-9.805 10.41-12.826 10.921-21.653.384-6.642.038-8.785-2.674-16.563-1.714-4.913-3.116-10.584-3.116-12.602s1.082-6.543 2.404-10.055c3.305-8.782 4.007-14.553 2.597-21.348-.968-4.663-3.402-9.046-13.033-23.469-7.297-10.93-13.824-19.519-17.008-22.381-2.841-2.554-9.274-6.701-14.295-9.214s-9.271-4.712-9.444-4.886c-.173-.173 1.464-3.856 3.639-8.184 2.175-4.329 4.945-11.148 6.155-15.154 1.645-5.446 2.108-9.114 1.834-14.544-.463-9.155-3.592-15.62-9.697-20.03l-4.349-3.142h-17.362l-6.72 4.214-6.721 4.214-.027-5.714c-.054-11.332-1.766-23.888-3.802-27.879-2.435-4.773-7.214-9.584-12.734-12.819-11.182-6.553-34.831-13.476-61.218-17.92-19.351-3.259-54.566-7.165-77.219-8.565-30.352-1.876-81.637-2.388-111-1.11-39.923 1.738-65.842 4.184-97.123 9.164l-12.623 2.01-11.877-4.1c-6.532-2.256-24.927-7.875-40.877-12.488-31.204-9.025-44.824-13.528-58.994-19.504-17.118-7.22-24.506-11.022-24.506-12.613 0-1.889-11.309-13.389-13.17-13.393-.969-.002-1.349-1.85-1.402-6.816-.052-4.921-.7-8.111-2.334-11.486-2.627-5.428-9.765-12.101-14.678-13.723l-3.416-1.127v-6.276c0-3.452.28-8.929.622-12.172l.623-5.897 10.127-.215c17.578-.373 35.716-6.377 49.067-16.24 2.785-2.058 7.603-6.483 10.705-9.834 4.762-5.143 6.553-6.353 11.498-7.765 3.222-.919 9.008-3.304 12.858-5.299 12.37-6.409 23.747-19.973 27.545-32.842 1.035-3.505 2.185-4.78 6.985-7.742 7.647-4.72 18.835-15.933 23.406-23.458 5.298-8.721 9.34-20.602 10.636-31.262.84-6.901.829-12.936-.041-23.859l-1.164-14.62 7.03-9.432c8.493-11.397 15.96-25.45 19.622-36.932 2.099-6.581 2.825-11.21 3.213-20.5.813-19.46-2.643-33.558-13.409-54.708-5.245-10.303-14.127-23.738-32.58-49.282-8.917-12.342-17.593-26.688-19.751-32.657l-1.227-3.39 3.275-3.482c3.752-3.99 9.117-11.157 8.679-11.596-.163-.162-2.078.34-4.257 1.116s-5.023 1.431-6.319 1.455c-1.754.033-2.201-.364-1.746-1.549.336-.876.876-2.645 1.198-3.93.51-2.033.294-2.261-1.657-1.75l-2.244.586.604-16.406c.333-9.024 1.07-19.12 1.64-22.437.569-3.316 2.675-11.866 4.681-19 2.005-7.133 4.712-16.795 6.015-21.47 3.633-13.035 5.361-24.509 5.345-35.5-.015-10.756-1.545-19.683-4.902-28.6-1.16-3.08-6.302-12.587-11.428-21.126-5.126-8.538-9.956-17.718-10.734-20.399-.845-2.911-1.373-8.904-1.311-14.875l.104-10 4.627-14.262c5.311-16.37 7.213-28.87 6.188-40.653-1.391-15.973-6.323-29.663-16.097-44.683-2.65-4.071-9.792-12.367-15.872-18.436-10.976-10.956-23.979-20.637-35.483-26.417-8.292-4.166-18.86-7.742-28.009-9.478-9.983-1.893-30.128-2.721-39.562-1.625m-494.406 27.745c-2.516 10.32-10.445 34.062-13.192 39.504-1.591 3.151-3.682 6.151-4.647 6.665-3.509 1.871-23.037 7.947-34.437 10.715-6.425 1.56-11.492 3.143-11.261 3.517s2.024.982 3.984 1.35c6.34 1.189 36.445 10.51 40.304 12.479 2.504 1.277 4.609 3.513 6.35 6.745 3.088 5.734 7.908 20.299 10.864 32.834 1.168 4.95 2.34 9.675 2.605 10.5s2.02-4.442 3.9-11.705c5.301-20.474 11.29-34.864 15.694-37.707 2.35-1.517 26.901-9.35 38.216-12.192 3.629-.911 6.451-1.805 6.271-1.985s-7.284-2.327-15.786-4.772c-8.503-2.445-18.834-5.776-22.959-7.403l-7.5-2.958-2.702-4.889c-3.23-5.845-7.74-19.135-11.665-34.377l-2.866-11.13zm802.9-1.757c-8.44 2.568-15.118 9.246-17.526 17.527-1.347 4.634-1.558 10.01-1.29 32.791l.322 27.248 2.814 5.73c1.547 3.151 4.472 7.101 6.5 8.778 6.941 5.741 19.15 7.586 28.69 4.336 6.33-2.157 12.683-8.51 14.84-14.84 1.384-4.063 1.656-9.396 1.656-32.501 0-30.786-.572-34.637-6.15-41.382-1.765-2.133-5.49-4.942-8.279-6.24-3.892-1.813-6.698-2.344-12.071-2.285-3.85.042-8.128.419-9.506.838m140.931.615c-5.573 1.717-11.463 7.224-14.311 13.381l-2.114 4.57v60l2.775 5.65c4.868 9.914 13.539 14.45 26.068 13.637 3.936-.256 8.572-1.199 10.301-2.097 4.298-2.231 8.686-6.789 10.946-11.37 1.373-2.782 1.981-6.605 2.239-14.07l.353-10.25h-16.989l-.346 9.588-.347 9.588-2.806 2.412c-1.565 1.345-4.083 2.412-5.694 2.412s-4.13-1.067-5.694-2.412l-2.806-2.412-.306-27.338c-.168-15.036-.025-28.851.317-30.7.827-4.475 4.603-8.138 8.388-8.138 1.718 0 4.183 1.026 5.795 2.412l2.806 2.412.347 9.588.346 9.588h18.106l-.647-9.128c-.357-5.02-1.199-10.983-1.872-13.25-1.61-5.418-8.981-12.791-14.396-14.4-5.369-1.594-14.708-1.445-20.459.327m63.702-.081c-5.658 2.017-10.722 6.53-13.599 12.119l-2.528 4.913v62l2.936 5.301c1.616 2.915 4.717 6.61 6.893 8.21s6.308 3.436 9.183 4.079c6.665 1.492 15.906.803 20.808-1.551 5.125-2.46 9.558-7.053 12.092-12.528l2.088-4.511v-60l-2.304-5c-1.267-2.75-3.487-6.236-4.934-7.747-3.847-4.017-12.047-6.761-20.05-6.709-3.691.024-8.455.665-10.585 1.424m199.367-.534c-6.786 2.064-12.278 6.616-15.361 12.73-.877 1.74-1.882 5.604-2.233 8.586-.444 3.78-.122 7.215 1.063 11.337l1.7 5.913 14.363 14c7.9 7.7 14.838 15.267 15.419 16.815 1.702 4.541 1.282 9.458-1.002 11.742-1.478 1.478-3.069 1.971-5.651 1.75-4.669-.399-7.137-3.706-7.962-10.666l-.631-5.331-2.709.542c-1.49.298-5.033.85-7.872 1.227-2.84.376-5.336.965-5.548 1.308-.675 1.092 1.539 11.419 3.124 14.575 2.662 5.299 8.392 10.406 13.627 12.145 7.222 2.398 16.404 1.469 22.456-2.273 2.8-1.731 5.872-4.83 7.67-7.74 2.643-4.274 3.002-5.762 3.012-12.473.018-11.867-1.889-15.048-18.998-31.682L1624 302.378v-4.554c0-6.018 2.866-9.824 7.398-9.824 4.444 0 7.42 3.39 8.242 9.39l.655 4.777 3.602-.662c1.982-.364 5.773-1.12 8.424-1.681l4.822-1.02-.671-4.152c-.969-5.999-3.689-11.715-7.284-15.31-1.725-1.725-5.253-3.858-7.84-4.739-4.897-1.669-13.037-1.982-17.354-.669M1270 323v48h18v-43h16v-13h-16v-28h21v-12h-39zm206.213-8.75c.279 34.384.529 39.7 2.016 42.879 2.507 5.362 6.495 9.686 11.147 12.088 2.862 1.477 6.611 2.265 12.249 2.574 5.022.276 9.573-.031 11.916-.804 5.086-1.679 12.289-8.457 14.864-13.987l2.095-4.5.304-38.75.304-38.75h-18.04l-.284 38.583-.284 38.583-3.387 3.025c-2.848 2.544-3.954 2.934-6.941 2.45-1.954-.318-4.479-1.504-5.612-2.636l-2.06-2.059-.654-16.723c-.359-9.198-.697-26.735-.75-38.973L1493 275h-17.107zM1545 323v48h18v-43h3.025c3.497 0 3.864.699 6.957 13.246 1.119 4.54 3.439 13.091 5.156 19.004l3.121 10.75h8.978c6.765 0 8.861-.308 8.508-1.25-.258-.687-2.585-8.45-5.17-17.25s-5.58-18.697-6.655-21.994c-1.124-3.45-1.543-6.132-.987-6.317 2.582-.861 5.925-4.513 8.558-9.347 2.536-4.66 2.903-6.364 2.874-13.342-.027-6.229-.542-9.058-2.324-12.779-1.259-2.629-3.921-6.129-5.915-7.779-5.754-4.76-11.485-5.942-28.808-5.942H1545zm123 0v48h41v-13h-22v-31h16v-12h-16v-28.129l10.502.315 10.502.314-.002-6.25L1708 275h-40zm-732.22-45.546c3.802.799 9.123 2.325 11.826 3.391 8.513 3.355 17.692 9.303 23.543 15.254 7.531 7.66 10.183 14.354 10.263 25.901.044 6.365-.541 10.341-2.327 15.828-1.312 4.03-4.129 10.025-6.261 13.323-2.131 3.297-7.115 9.159-11.075 13.026-8.41 8.212-20.857 16.661-35.823 24.316-10.162 5.198-25.945 11.822-26.602 11.164-.17-.17 5.399-4.55 12.376-9.733s17.926-14.599 24.333-20.924c8.441-8.333 12.939-13.703 16.338-19.5 6.493-11.076 7.94-16.584 7.458-28.387-.333-8.166-.854-10.591-3.463-16.113-5.193-10.99-13.324-19.295-25.416-25.96-2.998-1.652-4.692-3.012-3.765-3.022.926-.01 4.794.636 8.595 1.436m-48.804 7.9c1.216 7.472-.28 16.324-4.006 23.705-3.854 7.635-13.58 17.942-22.804 24.166-4.051 2.734-16.897 9.607-28.545 15.273-28.065 13.653-38.395 21.375-47.487 35.502l-2.253 3.5.684-3.5c1.3-6.648 7.543-17.306 14.139-24.139 3.546-3.673 13.151-11.531 21.345-17.463 8.194-5.931 14.797-10.865 14.674-10.963-.548-.439-16.136 1.829-25.223 3.669-13.569 2.748-23.557 6.195-32.456 11.202-4.101 2.307-10.282 6.948-13.737 10.313-7.986 7.78-13.289 18.292-14.058 27.867-.458 5.701.75 15.577 2.491 20.365 1.145 3.152-3.593-1.895-6.26-6.666-3.925-7.021-5.831-14.84-5.777-23.685.082-13.288 5.366-25.515 16.312-37.75l5.145-5.75-3.33.015c-6.101.027-16.014 2.979-24.064 7.167-13.834 7.198-23.921 19.282-28.171 33.75-1.831 6.236-2.114 20.66-.517 26.412.587 2.114.85 4.061.584 4.328-.996.995-5.789-7.402-7.804-13.672-2.843-8.845-2.827-22.058.037-31 1.145-3.575 3.324-8.621 4.843-11.213 4.688-8 11.912-15.429 20.519-21.101 8.859-5.839 17.706-9.718 27.872-12.222 8.328-2.051 32.724-2.892 50.371-1.736 16.463 1.079 30.899.15 41.946-2.698 10.041-2.588 22.369-8.589 29.846-14.526 3.186-2.53 7.672-7.029 9.97-9.999 2.298-2.969 4.317-5.259 4.488-5.088.171.17.723 2.842 1.226 5.937m346.079 2.676c1.059.566 2.604 2.344 3.435 3.95 1.244 2.406 1.51 7.97 1.51 31.547v28.627l-2.923 2.923c-3.506 3.506-7.66 3.825-11.408.878-1.43-1.126-3.063-3.713-3.629-5.75-1.107-3.985-1.455-49.881-.418-55.066.342-1.711 1.754-4.242 3.137-5.625 2.671-2.672 6.931-3.286 10.296-1.484m207 0c1.059.566 2.604 2.344 3.435 3.95 1.24 2.398 1.51 7.861 1.51 30.536 0 18.369-.374 28.347-1.117 29.8-3.019 5.904-9.757 7.416-14.577 3.272l-2.806-2.412-.295-28.773c-.31-30.268.01-33.04 4.155-35.943 2.43-1.701 6.946-1.902 9.695-.43m136.412 2.939c2.795 2.626 4.133 9.018 3.072 14.675-.377 2.011-1.968 4.939-3.536 6.506-2.384 2.385-3.678 2.85-7.926 2.85H1563v-27.248l5.508.457c3.94.327 6.205 1.112 7.959 2.76m-828.48 3.923c-9.486 3.527-24.316 10.873-30.636 15.174-10.566 7.191-23.59 18.411-29.302 25.242-3.307 3.956-7.572 10.137-9.478 13.737s-4.43 10.065-5.61 14.366c-1.67 6.085-2.07 9.906-1.804 17.206.189 5.162.24 9.384.113 9.384-.126-.001-1.14-1.787-2.254-3.97-2.815-5.518-4.984-15.374-5.001-22.732-.052-21.64 12.594-41.214 34.597-53.553 8.95-5.02 19.023-9.265 27.888-11.754 9.044-2.539 23.99-5.776 27-5.847 1.1-.026-1.381 1.21-5.513 2.747m269.379 56.893c-2.291 7.284-10.424 18.459-17.866 24.547-3.3 2.7-10.5 7.085-16 9.744-5.561 2.689-15.77 6.427-23 8.424-7.15 1.974-15.587 4.391-18.75 5.372s-5.75 1.467-5.75 1.081c0-1.457 16.114-11.101 32.133-19.23 9.148-4.643 20.016-10.78 24.153-13.64 10.465-7.235 18.023-15.479 22.221-24.238 1.921-4.009 3.581-8.201 3.689-9.317s.355 1.073.549 4.862c.237 4.627-.216 8.699-1.379 12.395m-399.76 38.524c-1.042.655-7.117 4.942-13.5 9.526C592.967 407.834 590 410.434 590 412.191c0 1.234 6.822.937 13.25-.575 3.163-.745 5.75-1.118 5.75-.831s-1.886 2.263-4.191 4.392l-4.192 3.869 1.625 1.624c1.246 1.247 4.837 1.819 15.441 2.459 7.599.458 20.679.549 29.067.201s15.25-.4 15.25-.115c0 .284-2.812 1.536-6.25 2.781-8.178 2.962-19.023 8.423-20.67 10.408-1.099 1.324-1.011 1.693.557 2.334 3.216 1.315 24.222.693 40.363-1.196 12.562-1.47 19.422-1.691 36.192-1.163 17.798.56 21.259.424 24.75-.972 2.232-.893 4.058-2.153 4.058-2.8s-1.237-1.913-2.75-2.814c-3.382-2.015-11.472-8.904-11.005-9.371.187-.188 3.804.759 8.037 2.103s10.258 2.846 13.39 3.337l5.695.893 6.654-2.832c3.66-1.557 10.665-3.586 15.567-4.508 6.156-1.158 9.46-2.297 10.682-3.682l1.771-2.005 7.729.822c4.252.452 9.755.851 12.23.886 3.928.056 4.541-.222 4.82-2.186.175-1.238.884-2.25 1.573-2.25.69 0 5.013 1.125 9.607 2.5s8.772 2.5 9.286 2.5.744-1.614.514-3.587l-.419-3.587 3.06.584c1.682.321 7.145 2.61 12.14 5.087 4.994 2.477 9.832 4.503 10.75 4.503 1.241 0 1.669-.898 1.669-3.5 0-1.925.261-3.5.579-3.5 2.098 0 15.151 6.134 24.609 11.564 6.615 3.798 12.381 6.436 14.067 6.436 1.572 0 8.065-2.267 14.43-5.038s14.938-5.962 19.052-7.091c5.767-1.582 9.686-1.974 17.121-1.711 8.167.288 10.56.783 15.642 3.236 4.249 2.05 8.627 5.566 15 12.046 6.479 6.587 10.758 12.123 15.274 19.76 3.451 5.835 8.293 14.93 10.761 20.211 8.174 17.491 15.35 42.198 18.972 65.321l.663 4.233-5.835-2.684c-4.986-2.295-7.071-2.668-14.335-2.564-15.836.226-38.36 7.962-47.374 16.272-7.712 7.108-12.016 18.781-8.118 22.016.93.772 3.159 1.065 5.814.766 2.368-.267 11.927-3.773 21.242-7.792s19.564-8.133 22.775-9.144c6.929-2.18 16.419-2.383 21.044-.45 3.928 1.641 6.956 5.588 8.527 11.113 1.853 6.513 2.418 22.289 1.164 32.463-.642 5.205-1.362 9.658-1.6 9.896s-2.501-1.473-5.028-3.802c-2.528-2.33-6.925-5.301-9.771-6.602s-8.473-2.876-12.503-3.499c-5.502-.852-8.99-.846-14 .024-3.67.636-8.585 2.001-10.922 3.032s-4.251 2.013-4.251 2.182c-.001.168 4.9.155 10.891-.03 7.729-.238 12.74.136 17.252 1.288 6.678 1.704 16.858 7.187 16.858 9.08 0 .767-1.622.878-5.25.362-2.888-.412-9.886-.781-15.553-.821-21.128-.15-38.439 6.701-48.229 19.087-2.183 2.761-3.968 5.429-3.968 5.93 0 1.598 2.994.995 12.362-2.488 5.026-1.87 12.688-4.179 17.028-5.132 5.959-1.309 10.731-1.615 19.5-1.25 10.391.432 12.971.945 24.575 4.882l12.966 4.398 3.863 11c4.908 13.971 10.216 33.212 12.389 44.909 1.105 5.951 1.689 14.272 1.69 24.091.001 12.523-.451 17.146-2.738 28-3.295 15.634-12.587 43.773-23.446 71-12.73 31.919-34.806 83.863-41.65 98-3.462 7.15-8.397 15.793-10.968 19.206-8.117 10.777-19.434 18.317-32.571 21.699-3.575.921-11.795 2.191-18.266 2.822-26.944 2.629-67.519-3.782-109.234-17.258-23.153-7.48-49.445-18.098-69.5-28.067-9.625-4.784-17.617-8.59-17.76-8.457-.571.531 25.835 26.781 34.26 34.056 10.727 9.264 38.668 30.264 56.125 42.182 19.712 13.458 49.02 30.486 71.614 41.608l20.74 10.209-.74 14c-1.016 19.254-.477 48.087 1.113 59.416l1.321 9.417-2.521 4.51c-1.662 2.974-2.713 6.749-3.086 11.084l-.566 6.573-5.751.618c-3.72.4-7.139 1.536-9.68 3.218-4.029 2.666-10.069 10.421-10.069 12.928 0 .771-.28 1.682-.622 2.024s-2.929-.56-5.75-2.006c-3.933-2.016-6.642-2.64-11.628-2.676-7.588-.056-11.427 1.612-17.75 7.711-2.691 2.596-4.25 3.539-4.25 2.571 0-2.359-6.793-9.743-10.857-11.803-5.317-2.693-11.46-3.448-17.084-2.099-2.686.644-6.355 2.257-8.153 3.584l-3.27 2.412-1.242-3.614c-1.745-5.075-6.273-10.361-11.844-13.825-4.071-2.532-5.714-2.949-11.419-2.897-4.122.038-7.879.689-9.848 1.708-1.751.905-3.431 1.646-3.733 1.646s-.55-.96-.55-2.134c0-4.829-2.664-10.561-6.981-15.019-3.47-3.584-5.884-5.062-10.395-6.365-5.395-1.558-10.696-1.543-14.829.043-1.027.394-1.673-1.184-2.53-6.185-1.411-8.237-4.965-13.642-11.718-17.816-4.192-2.593-5.865-3.024-11.719-3.024H695l-.006-4c-.013-9.409-4.482-17.943-11.571-22.098-2.32-1.36-6.524-2.745-9.343-3.079-4.602-.545-5.058-.816-4.473-2.661.359-1.131.632-4.383.606-7.227-.058-6.458-3.7-14.022-8.689-18.044l-3.585-2.891 3.531-8.737c6.921-17.124 11.045-35.182 13.62-59.641 1.493-14.183.622-54.117-1.516-69.513-1.857-13.376-6.434-38.111-7.638-41.278-1.221-3.21.275-2.934 2.266.419 1.881 3.168 23.604 26.25 24.704 26.25.704 0-24.905-51.143-27.917-55.75-.808-1.237-2.179-2.25-3.046-2.25-1.299 0-1.585-1.403-1.627-7.97-.043-6.545-.53-8.947-2.728-13.44-3.539-7.233-11.731-14.686-18.57-16.895-6.611-2.135-16.258-2.173-22.375-.089-5.458 1.86-14.793 9.927-16.636 14.377-.687 1.659-1.451 3.017-1.698 3.017-1.005 0-10.093-6.692-14.116-10.396-10.839-9.977-19.958-25.058-22.336-36.942l-1.169-5.838 2.906-2.386c4.08-3.35 12.35-6.316 18.549-6.653l5.257-.285.735 4.174c.404 2.295 1.41 5.479 2.235 7.075 1.905 3.684 8.419 9.593 13.335 12.097 4.538 2.312 13.808 5.154 16.809 5.154h2.15l-3.332-6.62c-3.452-6.859-4.465-14.08-2.082-14.843.688-.22 3.725-1.089 6.75-1.932 8.468-2.359 15.893-7.326 20.219-13.526 2.079-2.981 3.781-5.849 3.781-6.372s-1.013-.208-2.25.7c-3.7 2.715-12.107 6.576-14.25 6.543-1.594-.024-1.391-.349 1-1.602 4.766-2.498 12.449-10.427 15.082-15.565 1.33-2.594 2.418-5.211 2.418-5.816s-2.587.907-5.75 3.36-6.875 4.794-8.25 5.204c-2.156.643-1.867.066 2.105-4.195 2.532-2.717 5.758-6.716 7.169-8.888 2.624-4.039 7.168-17.34 6.24-18.267-.282-.283-.652-.327-.821-.098-3.981 5.401-7.057 8.917-7.803 8.917-.518 0-.255-1.328.584-2.95 3.32-6.419 4.496-15.207 4.511-33.69.026-32.192 3.962-44.779 24.031-76.86 4.817-7.7 10.365-17.213 12.329-21.141 5.16-10.321 7.687-20.838 10.132-42.177l.61-5.317-4.544 2.662c-2.498 1.465-4.543 2.364-4.543 1.998s1.357-2.637 3.015-5.047c2.937-4.268 6.985-12.712 6.985-14.569 0-.508-2.721.933-6.047 3.203s-6.248 3.926-6.495 3.68c-.246-.247 1.935-3.438 4.847-7.092 8.056-10.11 17.096-23.633 16.318-24.41-.381-.382-4.165 1.076-8.408 3.239s-8.165 4.109-8.715 4.324c-1.852.727 7.943-8.945 14.5-14.317 3.575-2.93 9.784-7.583 13.799-10.342s6.916-5.252 6.449-5.541-3.947-1.065-7.733-1.724c-8.542-1.487-22.442-.62-33.153 2.07-17.619 4.423-33.578 15.678-38.988 27.496-2.115 4.619-2.406 6.14-1.537 8.047.707 1.551 2.254 2.572 4.552 3.003 1.915.359 3.96.357 4.546-.005 1.833-1.133 1.161 1.063-.895 2.924-1.078.975-3.836 4.757-6.13 8.405-10.318 16.405-19.183 28.986-23.007 32.651-2.284 2.189-3.966 3.53-3.738 2.98s2.298-4.825 4.599-9.5 4.881-11.2 5.733-14.5c.882-3.418 1.962-14.392 2.508-25.5.528-10.725.967-21.413.977-23.75.035-8.319-6.52-10.54-16.877-5.719-2.968 1.381-5.544 2.363-5.726 2.182-.181-.182.13-3.185.692-6.675.709-4.399.7-6.667-.027-7.394-.733-.733-3.07-.393-7.741 1.126-3.68 1.196-6.812 2.054-6.96 1.906-.149-.148.398-2.488 1.214-5.199 1.54-5.117 1.334-7.477-.654-7.477-.638 0-3.802 1.803-7.032 4.008s-5.866 3.666-5.86 3.25c.006-.417.687-2.986 1.513-5.709 1.235-4.074 1.27-5.183.196-6.258-1.074-1.074-2.16-.764-6.124 1.75-5.978 3.792-14.441 11.726-19.296 18.092-2.022 2.653-3.846 4.655-4.051 4.449-.9-.899 9.45-19.741 14.484-26.369 6.136-8.078 18.275-18.34 27.529-23.272 6.518-3.474 21.61-9.864 23.238-9.839.55.009.148.552-.894 1.207m398.593 3.902c-3.932 5.714-8.757 10.404-13.721 13.336-3.854 2.277-17.23 6.035-18.161 5.103-.695-.695 5.307-4.931 15.183-10.714 4.95-2.899 11.239-6.968 13.977-9.043s5.143-3.607 5.346-3.403c.203.203-.977 2.328-2.624 4.721m779.127 14.833c-5.358 1.06-9.146 3.061-12.523 6.617-4.15 4.369-6.136 10.009-6.115 17.364.014 4.502.699 8.068 2.211 11.5 2.406 5.461 8.933 12.591 19.398 21.192 8.31 6.83 11.703 12.218 11.703 18.582 0 3.499-.544 5.13-2.238 6.708-1.57 1.463-3.278 1.997-5.718 1.789-2.639-.224-4.009-1.084-5.669-3.557-1.205-1.793-2.499-5.506-2.876-8.25-.418-3.038-1.189-4.989-1.97-4.989-.706 0-4.421.709-8.256 1.575l-6.973 1.574.927 5.1c1.915 10.535 6.587 16.924 15.273 20.884 8.318 3.792 21.496 1.537 27.787-4.754 5.287-5.286 7.081-10.741 6.502-19.764-.722-11.255-3.826-15.658-24.987-35.442-3.267-3.055-6.189-6.816-6.849-8.816-1.416-4.291-.543-9.514 1.973-11.79 2.721-2.463 7.908-1.697 10.298 1.52 1.058 1.422 2.177 4.482 2.487 6.799l.566 4.212 2.611-.5c1.437-.274 5.213-1.006 8.393-1.626l5.781-1.127-.635-3.672c-.35-2.02-1.674-6.004-2.944-8.854-2.797-6.276-8.447-10.717-15.583-12.247-5.592-1.199-6.636-1.202-12.574-.028M1214 411.084c-5.607 2.542-8.591 5.285-11.33 10.416-1.663 3.115-2.139 5.77-2.153 12-.015 7.014.348 8.659 2.944 13.346 2.027 3.66 6.362 8.353 13.739 14.876 5.928 5.241 12.17 11.61 13.87 14.154 2.619 3.915 3.019 5.308 2.61 9.085-.551 5.1-3.335 8.039-7.616 8.039-4.173 0-7.223-4.009-8.555-11.245-.809-4.394-1.577-6.201-2.58-6.073-4.16.528-12.591 2.473-13.68 3.154-.976.611-1.011 2.086-.157 6.704.602 3.256 1.714 7.118 2.472 8.584 2.088 4.038 7.421 8.964 11.914 11.005 2.655 1.206 6.419 1.835 11.076 1.849 5.573.017 8.12-.509 12.137-2.511 5.429-2.706 9.68-7.788 11.332-13.547.537-1.874.977-5.925.977-9.004 0-4.25-.741-7.08-3.08-11.76-2.394-4.791-5.728-8.659-14.978-17.376-12.129-11.431-14.942-15.543-14.942-21.846 0-3.677 3.906-7.934 7.28-7.934 1.304 0 3.307 1.012 4.451 2.25s2.653 4.275 3.354 6.75 1.375 4.643 1.496 4.817 3.882-.244 8.359-.929l8.14-1.246-.625-3.071c-1.497-7.347-2.996-10.844-6.31-14.714-1.943-2.271-5.358-4.958-7.589-5.971-5.703-2.59-16.617-2.495-22.556.198M1262 458v48h18v-96h-18zm31-41.5v6.5h24.214l-.673 1.75c-.371.962-4.893 13-10.049 26.75-5.157 13.75-10.977 29.146-12.934 34.212-2.54 6.577-3.558 10.797-3.558 14.75V506h45v-13h-13c-7.15 0-13-.379-13-.841 0-1.358 14.488-40.214 21.007-56.338 4.8-11.873 5.993-15.918 5.993-20.322V410h-43zm53 41.5v48h41.095l-.297-6.25-.298-6.25-11.25-.283-11.25-.283V463h16v-12h-16v-28h23v-13h-41zm79 0v48h15.187l-.344-32.417c-.188-17.83-.274-32.343-.19-32.25.209.229 10.108 52.185 10.892 57.167 1.212 7.702 1.001 7.5 7.831 7.5h6.242l5.27-28.75c2.899-15.812 5.637-30.55 6.084-32.75.491-2.411.856 9.014.921 28.75L1477 506h6.941c3.818 0 7.204-.425 7.525-.945s.275-22.135-.103-48.033l-.687-47.088-10.086.283-10.085.283-6.003 31.744c-3.301 17.459-6.34 31.746-6.752 31.75-.412.003-.727-.782-.698-1.744.028-.962-2.334-15.361-5.25-31.998l-5.302-30.247-10.75-.003L1425 410zm85.537-1.25c-5.409 25.712-10.048 47.331-10.308 48.041-.37 1.006 1.471 1.226 8.337 1l8.812-.291.714-3c.393-1.65 1.468-6.507 2.389-10.792l1.674-7.792 7.145.292 7.145.292 1.233 7.5c.678 4.125 1.498 8.962 1.823 10.75l.59 3.25h17.165l-.669-4.181c-.593-3.708-14.825-73.072-17.763-86.569l-1.142-5.25h-17.311zM1556 417v7h15v82h18v-82h15v-14h-48zm52 0v7h15l.009 35.75c.004 19.663.292 38.113.639 41l.631 5.25H1641v-82h15v-14h-48zm57 41v48h41v-13h-23v-30h17v-13h-17v-27h23v-13h-41zm50-.115V506h18v-41.773l3.093-.454c2.196-.322 3.278.007 3.732 1.137.352.874 2.898 10.365 5.658 21.09l5.017 19.5 9.372.289 9.372.289-.7-1.789c-.385-.984-2.5-8.314-4.7-16.289s-4.977-17.411-6.172-20.968l-2.172-6.469 5.069-5.036c3.731-3.705 5.382-6.274 6.25-9.724.65-2.579 1.181-6.668 1.181-9.087 0-5.883-2.256-13.051-5.407-17.183-1.417-1.858-5.16-4.642-8.317-6.186l-5.74-2.809-16.768-.384-16.768-.385zm30.258-32.747c1.051.563 2.548 2.547 3.327 4.41 2.03 4.86 1.77 11.357-.611 15.262-2.201 3.61-7.178 6.19-11.942 6.19H1733v-28.258l5.173.687c2.845.377 6.033 1.146 7.085 1.709M522.972 451.554c10.507 16.095 13.261 34.891 8.465 57.772-1.883 8.983-4.584 17.674-5.494 17.674-.841 0-6.36-19.597-11.876-42.171-2.24-9.169-4.533-17.719-5.095-19-1.698-3.87-.342 16.222 2.074 30.741 1.184 7.112 3.403 17.88 4.932 23.93s2.621 11.175 2.428 11.389c-.193.215-1.963-.839-3.933-2.342-5.628-4.293-13.681-14.695-17.757-22.939-5.47-11.063-7.029-18.864-6.417-32.108.593-12.823 2.668-20.448 9.487-34.86l4.665-9.861 6.826 7.158c3.754 3.937 9.016 10.514 11.695 14.617m510.588.863c3.502 4.354 7.928 10.886 9.835 14.516 4.924 9.369 7.605 19.858 7.605 29.748 0 7.232-1.635 19.017-2.516 18.136-.176-.176-.822-4.145-1.434-8.819-.613-4.674-2.026-11.648-3.141-15.498s-6.669-16.225-12.343-27.5-10.649-21.625-11.056-23l-.74-2.5 3.712 3.5c2.041 1.925 6.577 7.062 10.078 11.417m499.234 9.343c1.019 5.642 1.633 10.48 1.363 10.75s-2.665.49-5.324.49c-3.936 0-4.833-.325-4.833-1.75 0-.962.891-7.15 1.98-13.75s1.988-13.387 1.999-15.083c.041-5.995 1.531-4.502 2.241 2.244.396 3.762 1.554 11.456 2.574 17.099m-934.19-6.01c-.314 2.063-1.047 8.326-1.629 13.919-1.839 17.684-6.427 30.397-14.782 40.967-4.378 5.539-14.115 13.277-21.267 16.901-5.644 2.861-16.975 6.747-17.663 6.059-.277-.277 1.508-3.337 3.967-6.8 15.628-22.004 29.633-44.266 28.537-45.362-.571-.571-18.118 19.367-30.239 34.358-4.935 6.103-9.076 10.993-9.203 10.866s1.733-8.245 4.132-18.041c2.59-10.571 5.686-20.514 7.617-24.463 3.729-7.628 12.569-16.796 21.148-21.935 5.973-3.578 23.867-10.193 27.616-10.209l2.338-.01zM330.678 465c-.298.825-1.735 5.775-3.195 11s-3.553 11.599-4.654 14.164c-1.671 3.894-2.78 4.999-6.718 6.693-2.594 1.116-9.546 3.239-15.448 4.718s-10.604 2.809-10.448 2.956c.157.147 5.184 1.444 11.172 2.882 5.987 1.438 12.867 3.491 15.289 4.562 3.455 1.528 4.806 2.869 6.282 6.236 1.035 2.359 3.368 9.387 5.185 15.617 3.624 12.422 3.38 12.456 6.376-.909.935-4.169 2.888-10.019 4.341-13 2.127-4.367 3.532-5.862 7.235-7.701 2.528-1.254 9.717-3.572 15.977-5.15l11.382-2.869-4.477-1.161c-2.462-.639-8.077-2.1-12.477-3.246s-9.563-2.805-11.474-3.688c-2.841-1.312-3.982-2.829-6.27-8.335-1.538-3.702-3.863-10.677-5.167-15.5s-2.613-8.094-2.911-7.269M647 544.198c-14.531 12.902-28.759 21.371-39.799 23.689-7.219 1.516-20.333 1.371-28.201-.312-7.31-1.563-18.003-5.365-17.994-6.397.004-.373 6.642-.721 14.75-.774 15.967-.104 24.511-1.197 39.244-5.016 8.736-2.265 28.763-11.046 33.498-14.688 1.1-.845 2.225-1.303 2.5-1.017.276.286-1.523 2.318-3.998 4.515m-131-3.826c0 .204-6.187 5.794-13.75 12.421-15.297 13.406-28.935 26.855-28.09 27.7.732.733 15.55-9.1 29.84-19.8 6.325-4.737 13.036-9.756 14.914-11.155s3.63-2.328 3.893-2.064c.694.694-3.538 11.973-7.328 19.526-7.468 14.884-18.139 25.475-30.254 30.026-8.132 3.055-19.1 4.974-28.424 4.974h-8.024l.683-3.75c1.383-7.593 6.757-21.945 10.766-28.75 2.267-3.85 6.73-9.524 9.916-12.609s8.942-7.264 12.791-9.287c8.405-4.416 19.469-7.474 27.317-7.549 3.163-.03 5.75.112 5.75.317m253.5 1.211c-3.85.86-8.954 2.423-11.342 3.475-12.685 5.584-29.566 20.48-40.458 35.7-5.632 7.87-11.645 17.926-11.682 19.535-.01.436 4.37-3.126 9.732-7.916 13.074-11.677 23.148-19.061 33-24.186 4.497-2.34 11.64-5.14 15.873-6.223 4.233-1.082 10.817-1.968 14.63-1.968 9.54 0 23.343 2.988 43.333 9.379 9.303 2.974 19.428 5.922 22.501 6.551 5.952 1.219 9.456.531 11.822-2.32 1.744-2.102 1.602-8.732-.263-12.286-1.895-3.612-8.24-9.648-12.274-11.677-4.436-2.23-16.342-5.429-26.872-7.221-4.95-.842-16.2-1.727-25-1.968-12.164-.332-17.678-.063-23 1.125M542.43 553.5c1.817 2.75 4.537 8.375 6.045 12.5 2.152 5.888 2.848 9.865 3.238 18.5.363 8.036.068 12.818-1.093 17.746-1.717 7.287-6.616 18.287-11.673 26.209l-3.163 4.956-2.957-3.456c-6.198-7.243-14.725-21.147-16.666-27.175-3.829-11.895-3.82-12.037 1.207-19.895 2.494-3.897 5.768-10.232 7.277-14.077 3.087-7.868 3.633-7.501 4.75 3.192 1.062 10.154 3.709 25.414 4.566 26.318 1.242 1.31 2.273-25.799 1.558-40.947l-.655-13.871 2.132 2.5c1.172 1.375 3.618 4.75 5.434 7.5m122.312.704c-9.988 13.974-28.458 32.201-43.964 43.385-17.185 12.395-31.817 19.761-46.646 23.482-6.967 1.749-20.302 3.984-20.866 3.497-.128-.111 1.094-3.322 2.716-7.135 2.51-5.901 3.921-11.074 6.563-24.065.373-1.834 1.382-2.231 7.195-2.832 10.91-1.129 29.8-5.406 39.697-8.988 20.502-7.421 39.66-18.028 53.303-29.509 3.168-2.666 5.927-4.686 6.131-4.489.203.197-1.655 3.191-4.129 6.654m581.901 8.771c-1.572.5-3.756 1.722-4.853 2.715-4.32 3.91-4.79 6.365-4.788 25.01.001 14.943.282 18.362 1.75 21.3 2.075 4.154 8.944 8.011 14.21 7.978 1.946-.012 5.47-.899 7.831-1.97 3.4-1.543 4.721-2.915 6.347-6.592l2.054-4.642-.347-17.315-.347-17.315-2.062-2.76c-1.134-1.518-3.238-3.639-4.675-4.712-2.958-2.208-10.76-3.084-15.12-1.697m54.857.182c-1.65.607-3.834 1.832-4.852 2.721-4.159 3.63-4.648 6.276-4.648 25.122 0 19.564.499 21.887 5.55 25.861 3.324 2.615 9.997 3.607 15.069 2.242 2.187-.589 5.305-2.457 6.929-4.15l2.952-3.079.28-19.187c.245-16.787.057-19.621-1.5-22.653-.979-1.906-3.169-4.267-4.867-5.247-3.94-2.273-11.052-3.05-14.913-1.63m-78.513.631-2.513.299.225 14.707c.261 17.018.567 17.117-7.819-2.544l-5.224-12.25H1200v55h9l.022-15.75.022-15.75 2.065 4.5c1.135 2.475 3.387 7.875 5.004 12s3.671 9.188 4.565 11.25l1.626 3.75H1230v-54.767l-2.25-.372c-1.237-.205-3.381-.237-4.763-.073M1331 591.203V619h8.949l.276-15.75.275-15.75 6.171 15.5 6.171 15.5 4.137.31 4.136.311-.307-27.811-.308-27.81-4.843-.309-4.843-.308.343 15.01c.189 8.256.073 14.695-.257 14.309-.329-.386-1.317-2.502-2.194-4.702-.878-2.2-3.567-8.497-5.976-13.994l-4.381-9.994-3.674-.053-3.675-.053zm37-.235V619h24v-7h-13v-18h9v-3.5c0-2.959-.348-3.502-2.25-3.514-1.237-.007-3.263-.285-4.5-.616l-2.25-.603V570h12.5l-.094-3.25-.095-3.25-11.655-.282-11.656-.281zm43.561-23.718c.405 2.337 2.362 14.825 4.348 27.75l3.612 23.5 4.184.305 4.184.305.585-3.305c.322-1.818.989-6.455 1.481-10.305 1.386-10.84 3.192-22.974 3.459-23.244.133-.135.796 3.465 1.473 8 .678 4.534 1.937 12.856 2.798 18.494l1.566 10.25h8.658l.54-3.25c.659-3.967 7.572-48.653 7.851-50.75.152-1.141-.877-1.5-4.295-1.5h-4.495l-2.005 16.168c-1.103 8.893-2.343 16.505-2.755 16.917s-.78-1.464-.817-4.168-.824-10.317-1.75-16.917l-1.683-12-4.168-.303-4.168-.304-1.025 5.304c-1.038 5.376-2.472 14.8-3.774 24.803l-.715 5.5-.692-4c-.381-2.2-1.481-10.187-2.445-17.75L1419.76 563h-8.936zm57.559-.553c-.542 2.092-3.042 13.703-5.556 25.803-2.513 12.1-4.846 23.013-5.183 24.25l-.614 2.25h10.091l1.182-5.75c.65-3.163 1.341-6.019 1.536-6.348s2.03-.326 4.077.007c3.898.633 3.727.356 5.762 9.341l.623 2.75h4.981c2.74 0 4.987-.337 4.995-.75.014-.694-1.109-5.999-8.837-41.75l-2.81-13-4.631-.303-4.631-.302zm26.88 21.185c0 13.677.281 26.274.625 27.993l.625 3.125h7.699l.309-15.75c.176-8.94.647-14.885 1.09-13.75.43 1.1 3.348 8.075 6.485 15.5l5.704 13.5 3.731.31 3.732.311v-20.41c0-11.225-.291-23.852-.647-28.06l-.646-7.651h-7.845l.319 16.001c.176 8.801.03 16.001-.323 16-.352 0-.946-1.238-1.319-2.751s-3.188-8.641-6.257-15.842l-5.579-13.092-3.852-.151-3.851-.151zm34.874-23.632c-.622 6.147-.573 6.228 4.126 6.75l4.5.5.268 23.75.268 23.75H1550v-48h3.883c3.182 0 3.993-.406 4.487-2.25.331-1.237.609-3.038.616-4L1559 563h-14c-10.466 0-14.032.316-14.126 1.25m37.527.589c-1.795 1.129-3.793 3.683-4.75 6.075-.908 2.269-1.648 4.68-1.645 5.356s.489 2.972 1.08 5.101c.782 2.815 3.351 6.089 9.417 12 8.406 8.191 10.774 12.377 8.787 15.534-.552.877-1.777 1.747-2.722 1.933-2.384.468-5.568-2.673-5.568-5.493V603h-10v2.766c0 4.014 3.239 9.448 6.921 11.61 3.677 2.159 10.809 2.357 14.778.41 1.442-.707 3.562-2.557 4.711-4.111 2.992-4.044 2.716-11.093-.656-16.78-1.433-2.417-5.564-7.307-9.18-10.866-5.343-5.26-6.574-7.062-6.574-9.628 0-1.736.65-3.696 1.445-4.355s2.482-1.052 3.75-.873c1.739.247 2.538 1.271 3.255 4.173l.95 3.846 4.012-.642c2.207-.353 4.196-.825 4.42-1.049s.105-2.024-.266-3.999c-.37-1.975-1.94-5.008-3.488-6.74-2.503-2.803-3.519-3.19-9.196-3.51-5.033-.284-7.037.051-9.481 1.587m53.263 3.592c-.606 4.428-9.241 45.51-10.26 48.819-.463 1.504.159 1.75 4.422 1.75 3.281 0 5.138-.464 5.487-1.372.289-.755.838-3.455 1.22-6 .493-3.29 1.167-4.648 2.331-4.697.9-.038 2.832-.228 4.293-.422l2.657-.353 1.276 6.422 1.277 6.422h4.884c4.169 0 4.813-.256 4.399-1.75-.267-.962-2.877-13.337-5.801-27.5l-5.316-25.75h-10.261zm-365.069 3.676c1.714 1.896 1.905 3.791 1.905 18.896s-.191 16.999-1.905 18.893c-1.048 1.157-2.703 2.104-3.679 2.104-3.993 0-4.657-2.305-5.388-18.705-.493-11.071-.359-16.686.447-18.775 1.927-4.992 5.408-5.966 8.62-2.413m55.155.685c.887 1.128 1.25 6.452 1.25 18.327v16.736l-2.635 2.072c-1.449 1.14-3.024 2.073-3.5 2.073s-1.765-.9-2.865-2l-2-2v-34l2.051-2.051c1.414-1.414 2.734-1.849 4.25-1.399 1.21.358 2.762 1.368 3.449 2.242m165.189 23.958c.054 2.861-.255 3.25-2.577 3.25h-2.638l.666-6.75c.366-3.712.965-8.325 1.331-10.25l.665-3.5 1.245 7c.686 3.85 1.274 8.462 1.308 10.25m153.502-.5.509 2.75h-2.975c-2.164 0-2.977-.477-2.982-1.75-.003-.962.548-5.35 1.225-9.75l1.23-8 1.242 7c.683 3.85 1.47 8.237 1.751 9.75m-690.969.198c-3.765 4.936-7.348 15.308-8.062 23.337-.73 8.209 1.18 17.968 5.59 28.561 3.18 7.637 8.522 16.476 19.398 32.09l5.897 8.468-1.12 5.579c-1.559 7.764-4.925 15.699-11.662 27.493-3.173 5.556-5.515 10.355-5.206 10.665.88.88 10.648-2.576 16.364-5.79 2.845-1.599 6.535-4.46 8.201-6.358s3.326-5.033 3.689-6.968c.435-2.316-.074-6.236-1.488-11.48-2.699-10.002-5.235-15.806-10.505-24.045-10.33-16.147-16.933-30.917-20.154-45.08-1.286-5.654-1.551-10.027-1.113-18.417.316-6.052 1.261-13.232 2.1-15.956s1.363-5.117 1.163-5.316-1.591 1.248-3.092 3.217M786.5 600.484c-3.85.716-9.25 2.079-12 3.028-6.506 2.245-15.466 6.781-22.12 11.199-3.985 2.646-6.068 3.415-8.345 3.081-1.669-.245-3.035-.059-3.035.414s1.133 3.096 2.517 5.827l2.517 4.967h-1.928c-1.06 0-4.761-.882-8.224-1.96s-6.438-1.817-6.612-1.643.792 2.268 2.146 4.653c1.355 2.385 2.248 4.685 1.985 5.11s-1.699.586-3.19.356c-1.491-.231-5.636-.65-9.211-.932l-6.5-.514 3.938 3.483c5.2 4.601 12.964 8.315 19.557 9.357 6.835 1.081 13.775-.39 29.67-6.287 6.69-2.483 15.852-5.213 20.36-6.068S800.465 633 805.653 633c9.942 0 19.368 1.586 33.251 5.597 4.623 1.335 8.571 2.261 8.775 2.057.634-.633-12.335-12.777-16.873-15.8-6.2-4.131-13.409-6.594-23.06-7.878-10.091-1.343-18.351-.405-35.386 4.018-6.367 1.653-12.427 3.006-13.468 3.006s-1.892-.418-1.892-.929c0-1.444 14.296-10.004 21.776-13.039 11.323-4.593 16.689-5.525 31.224-5.42l13.5.098-5.288-1.807c-5.205-1.779-18.272-3.989-22.534-3.813-1.198.05-5.328.677-9.178 1.394m-175.449 39.619c-9.962 9.005-25.943 15.369-41.428 16.496-8.842.645-20.116-.512-31.715-3.254l-7.408-1.752 8.5-.741c34.162-2.981 49.562-5.63 65-11.182 5.225-1.879 9.95-3.455 10.5-3.502s-1.002 1.724-3.449 3.935m599.449 4.609c-4.721.945-7.618 2.742-9.607 5.962-1.698 2.747-2.042 4.585-1.712 9.148.493 6.814 2.654 10.129 10.933 16.769 3.167 2.54 6.525 6.237 7.464 8.215 1.504 3.17 1.538 3.897.28 6.138-.785 1.398-2.171 2.685-3.081 2.86-2.536.489-5.777-3.388-5.777-6.911 0-2.422-.349-2.973-1.582-2.5-.87.334-3.12.607-5 .607-2.991 0-3.418.316-3.418 2.532 0 1.393.62 4.017 1.379 5.832 3.84 9.191 16.937 11.527 24.144 4.307 3.793-3.799 4.994-8.995 3.444-14.906-.89-3.392-2.944-6.029-10.043-12.887-7.339-7.092-8.924-9.157-8.924-11.628 0-1.653.65-3.545 1.445-4.204.795-.66 2.482-1.052 3.75-.873 1.609.228 2.594 1.308 3.262 3.577l.957 3.25H1227v-3.05c0-4.193-2.495-8.645-5.767-10.29-3.271-1.645-7.979-2.499-10.733-1.948m402.5.257c-5.107.964-7.754 2.679-9.74 6.311-1.507 2.757-1.76 5.976-1.76 22.397v19.176l2.071 2.824c1.139 1.553 3.614 3.635 5.5 4.628 4.428 2.332 12.891 1.845 16.72-.962 3.938-2.886 6.206-8.034 6.207-14.093L1632 680h-10v3.351c0 1.843-.488 4.749-1.084 6.459-1.8 5.164-7.259 5.371-8.675.33-.407-1.452-.719-9.785-.692-18.518l.05-15.879 2.311-1.871c1.271-1.03 2.626-1.872 3.01-1.872s1.538.615 2.565 1.366c1.365.997 1.988 3.018 2.312 7.5l.443 6.134h9.76v-5.766c0-3.711-.664-7.007-1.863-9.25-3.027-5.661-9.742-8.41-17.137-7.015m35.352.072c-4.069 1.245-9.077 6.978-9.893 11.324-.351 1.874-.481 10.546-.288 19.271.286 12.935.684 16.479 2.156 19.193 2.19 4.037 8.423 7.118 14.463 7.149 2.364.012 6.058-.88 8.229-1.988 2.167-1.105 4.737-3.468 5.71-5.25 1.509-2.76 1.771-5.904 1.771-21.24v-18l-2.035-3.465c-1.12-1.905-3.409-4.266-5.087-5.246-3.777-2.206-10.843-3.028-15.026-1.748M1235 673v28h7.955l.272-18.121.273-18.121 3.591 17.871 3.591 17.871 3.532.303c2.251.193 3.717-.18 4.042-1.029.282-.732 1.801-8.969 3.378-18.303l2.866-16.971.632 13.5c.347 7.425.685 15.638.75 18.25L1266 701h8.317l-.659-19.661c-.362-10.813-.658-23.413-.658-28V645h-6c-3.3 0-6 .401-6 .892 0 2.018-6.124 37.566-6.544 37.986-.251.25-.456.004-.456-.549 0-1.433-4.823-27.914-6.115-33.579l-1.084-4.75H1235zm55.623-26.301c-.3.99-2.858 13.276-5.684 27.301s-5.346 25.837-5.599 26.25c-.252.413 1.77.75 4.493.75h4.951l1.399-5.75 1.398-5.75 4.156-.305 4.156-.305.978 3.805c.537 2.093 1.128 4.705 1.312 5.805.279 1.66 1.242 2.052 5.661 2.305 4.73.271 5.269.103 4.817-1.5-.509-1.807-7.099-30.758-10.426-45.805l-1.769-8-4.649-.301c-3.77-.245-4.753.039-5.194 1.5m26.717 15.551c.359 9.487.655 22.087.657 28L1318 701h23v-7h-13v-49h-11.315zm29.076-16.333c-.229.229-.416 12.716-.416 27.75V701h23v-7h-12v-47.807l-5.084-.346c-2.796-.191-5.271-.159-5.5.07m50.004.912c-1.694 1.064-3.832 3.519-4.75 5.454-1.358 2.862-1.666 6.668-1.648 20.368.019 14.535.29 17.439 1.97 21.142 1.547 3.409 2.913 4.72 6.628 6.363 3.358 1.486 5.941 1.928 9.144 1.567 8.523-.961 13.232-7.006 13.234-16.991l.002-5.769-5 .177-5 .177v5.342c0 4.008-.499 5.84-2 7.341-1.1 1.1-2.589 2-3.309 2s-2.182-.638-3.25-1.417l-1.941-1.418-.271-16.332c-.3-18.091.39-21.108 4.947-21.64 3.627-.424 5.824 2.983 5.824 9.03V667h10l-.022-4.75c-.025-5.355-2.604-11.778-5.91-14.721-1.623-1.445-3.999-2.061-8.891-2.304-5.276-.262-7.323.075-9.757 1.604m31.582 20.921c.001 19.683.237 23.212 1.75 26.179.961 1.886 2.952 4.311 4.424 5.39 1.471 1.078 4.929 2.177 7.684 2.442 6.821.655 13.241-2.415 15.797-7.555 1.558-3.134 1.894-6.706 2.172-23.13.18-10.683.063-20.84-.262-22.572l-.591-3.148-4.988-.227-4.988-.228v22.327c0 18.589-.261 22.699-1.557 24.549-1.822 2.602-4.653 2.87-6.872.652-1.285-1.286-1.572-4.245-1.577-16.25-.003-8.074-.295-18.391-.648-22.929l-.642-8.25H1428zm39.635-22.053c-.351.35-.637 12.936-.637 27.97V701h11v-23.877l4.75-.692c7.209-1.048 10.166-2.987 12.457-8.167 1.544-3.49 1.891-5.787 1.445-9.555-.668-5.638-2.481-8.895-6.37-11.445-2.024-1.327-5.083-1.818-12.35-1.984-5.312-.121-9.945.067-10.295.417m56.662 1.263c-1.761 1.073-4.011 3.434-5 5.246-1.538 2.816-1.799 5.835-1.799 20.794 0 15.702.206 17.849 2 20.895 1.1 1.868 3.27 4.343 4.823 5.5 2.177 1.623 4.28 2.105 9.177 2.105s7-.482 9.177-2.105c1.553-1.157 3.723-3.632 4.823-5.5 1.788-3.036 2-5.193 2-20.395v-17l-2.344-4.09c-1.29-2.25-3.609-4.837-5.155-5.75-4.014-2.372-13.587-2.21-17.702.3M1557 673v28h10v-25h10v-8h-10v-15h13v-8h-23zm121 0v28h10v-25h10v-8h-10v-15h13v-8h-23zm28.667-27.333c-.367.366-.667 12.966-.667 28V701h11v-25h10v-6.812l-5-.688-5-.688V653h13v-8h-11.333c-6.234 0-11.634.3-12 .667M1735 672.968V701h24v-7h-12.829l-.701-7.478c-.386-4.113-.438-8.163-.117-9 .404-1.053 1.981-1.522 5.116-1.522H1755v-6.877l-4.5-.675-4.5-.675V653h13.121l-.311-3.75-.31-3.75-11.75-.282-11.75-.281zm29 .032v28h24v-7h-13v-18h9v-6.877l-4.5-.675-4.5-.675.001-7.637.001-7.636 5.999.034 5.999.034V645h-23zM623.15 655.79c-3.563 5.003-14.506 14.554-21.075 18.392-3.465 2.026-11.538 5.555-17.938 7.843-23.064 8.245-30.331 11.369-37.921 16.302-4.244 2.758-10.979 8.34-14.966 12.406-3.987 4.065-7.25 6.999-7.25 6.52s1.601-3.544 3.558-6.812c4.746-7.926 13.326-16.614 22.215-22.493 7.283-4.817 15.284-8.208 37.727-15.992 13.703-4.751 24.759-10.228 32-15.85 2.75-2.135 5.162-3.733 5.359-3.552s-.572 1.638-1.709 3.236m1035.56-.781c.856 1.691 1.265 7.637 1.275 18.518.012 13.077-.279 16.448-1.582 18.308-2.12 3.027-6.392 2.587-8.115-.835-1.587-3.152-1.751-30.372-.211-34.792 1.653-4.741 6.501-5.414 8.633-1.199m-174.151-.59c1.477 1.081 1.941 2.625 1.941 6.465 0 5.585-1.518 7.884-5.504 8.334l-2.496.282-.29-8.25-.291-8.25h2.349c1.293 0 3.223.639 4.291 1.419m52.884.804c1.254 1.79 1.557 5.386 1.557 18.5V690l-2 2c-1.1 1.1-2.752 2-3.671 2s-2.494-.745-3.5-1.655c-1.635-1.479-1.829-3.453-1.829-18.566 0-9.744.439-17.73 1.035-18.845 1.463-2.734 6.41-2.564 8.408.289m-240.382 14.028c.4 2.887 1.049 6.937 1.444 8.999l.718 3.75h-6.759l1.459-9.476c.802-5.211 1.673-9.261 1.935-8.999.263.262.804 2.839 1.203 5.726m-813.006 5.433c-3.328 6.347-9.393 15.117-17.161 24.816-6.608 8.25-13.563 17.534-15.454 20.631-1.892 3.096-4.63 8.721-6.084 12.5-2.103 5.463-2.742 9.151-3.122 18.021-.35 8.17-.038 13.129 1.166 18.544.904 4.065 2.915 10.071 4.468 13.347 3.383 7.14 10.105 17.818 10.786 17.137.267-.268-.501-3.568-1.707-7.333-1.483-4.629-2.35-10.41-2.677-17.847-.391-8.9-.086-12.665 1.598-19.721 3.359-14.077 11.168-27.831 23.601-41.568 2.632-2.909 4.972-5.103 5.2-4.875s-2.513 5.794-6.091 12.37c-3.577 6.577-7.983 16.196-9.791 21.376L465.5 751.5l.027 15c.023 13.073.323 15.835 2.332 21.5 3.18 8.967 7.292 17.319 12.306 25 4.801 7.352 21.162 24.231 27.605 28.478 2.349 1.548 4.101 2.984 3.894 3.191-.737.737-18.305-5.972-26.769-10.222-4.733-2.377-12.192-7.024-16.575-10.327-8.561-6.451-19.208-17.183-24.058-24.251-4.939-7.196-10.111-18.298-12.381-26.57-1.81-6.598-2.055-9.538-1.608-19.292.401-8.729 1.165-13.413 3.165-19.403 2.963-8.871 7.442-16.989 14.348-26.001 2.572-3.357 11.985-13.638 20.919-22.849s16.991-17.886 17.904-19.281 1.871-2.326 2.127-2.071c.255.256-1.851 4.883-4.681 10.282m143.981-1.734c-3.16 4.437-9.85 9.819-15.499 12.468-5.896 2.765-14.976 4.937-18.537 4.435-1.888-.267.435-1.649 9.5-5.65 6.6-2.913 14.925-7.267 18.5-9.675s6.868-4.412 7.318-4.453-.127 1.252-1.282 2.875m276.348 41.963c-4.296 1.951-9.384 7.596-9.384 10.412 0 3.036 4.417 2.97 11.814-.178 3.885-1.653 9.229-3.32 11.875-3.703 8.015-1.16 9.69-4.087 3.91-6.83-4.553-2.16-13.109-2.02-18.215.299m181.973 7.763c4.771 6.665 9.98 17.977 12.615 27.391 2.592 9.26 2.802 23.146.487 32.113-2.15 8.325-8.219 19.838-14.487 27.478-6.108 7.446-19.871 19.377-29.651 25.703-3.944 2.552-7.491 4.639-7.883 4.639-.391 0 1.313-2.164 3.787-4.809 11.422-12.211 20.088-27.116 23.369-40.191 1.378-5.493 1.846-10.711 1.749-19.5-.109-9.8-.675-14.063-3.089-23.25-1.626-6.187-2.686-11.246-2.355-11.241.82.012 7.334 10.354 10.412 16.534 2.833 5.686 5.521 14.343 6.61 21.288l.732 4.669 2.316-7.398c2.017-6.444 2.24-8.7 1.729-17.5-.631-10.866-3.642-22.881-8.734-34.846-4.273-10.041-4.082-10.128 2.393-1.08M829 744.704c-4.815 5.845-15.384 15.095-28.781 25.192-4.555 3.433-9.5 8.083-10.989 10.333-2.18 3.294-2.779 5.514-3.076 11.397-.278 5.492.179 9.112 1.838 14.575 1.215 3.997 3.176 9.172 4.358 11.5l2.15 4.231v-13.716c0-12.234.239-14.162 2.208-17.844 1.215-2.271 6.924-9.35 12.687-15.732s12.478-14.424 14.922-17.872c4.303-6.069 10.146-16.677 9.5-17.246-.174-.154-2.342 2.178-4.817 5.182m160-4.335c0 .212 2.438 5.503 5.417 11.758s5.962 13.9 6.629 16.987c.686 3.182 1.023 9.557.777 14.712-.351 7.325-.185 8.89.848 8.032.706-.586 2.511-3.575 4.012-6.642 2.143-4.381 2.723-6.987 2.703-12.147-.03-7.668-2.045-12.285-9.413-21.569-4.222-5.319-10.973-12.167-10.973-11.131m-495.662 21.379c2.949 6.219 10.764 14.505 17.973 19.058 3.47 2.192 11.008 6.334 16.749 9.204 5.742 2.871 13.193 7.173 16.558 9.561 7.16 5.081 14.684 13.144 17.615 18.877 3.132 6.126 4.742 13.275 4.755 21.12.013 7.651-1.86 15.264-5.546 22.542-3.123 6.169-11.742 15.46-18.144 19.559-2.861 1.832-5.486 3.331-5.834 3.331s.868-1.837 2.702-4.082c8.429-10.319 12.387-18.904 13.754-29.835.453-3.621.429-9.508-.053-13.083-2.013-14.931-11.561-26.645-31.413-38.543-6.384-3.826-14.386-9.27-17.781-12.096-6.105-5.083-11.913-13.223-13.578-19.031-.473-1.649-1.138-5.885-1.478-9.414-.514-5.328-.421-5.992.544-3.916.639 1.375 2.069 4.412 3.177 6.748m454.162-1.282c-2.75.712-6.748 1.939-8.885 2.725l-3.885 1.431-8.115-2.394c-7.267-2.143-9.473-2.342-21.115-1.906-9.978.373-15.79 1.191-25 3.52-20.138 5.091-48.124 15.43-65.784 24.304-9.963 5.005-10.798 6.614-7.714 14.86 3.166 8.466 13.316 25.937 20.622 35.494 13.192 17.259 33.351 33.556 50.166 40.556 12.79 5.325 21.381 7.088 37.21 7.636 11.021.382 16.294.121 21.976-1.088 15.671-3.334 24.657-10.276 31.1-24.025 2.43-5.186 6.978-19.404 12.059-37.702 11.471-41.306 11.316-40.595 9.965-45.555-.689-2.53-2.807-5.893-5.369-8.526-8.959-9.205-23.575-12.869-37.231-9.33m-308.878 25.361c4.466 2.3 9.487 7.333 11.648 11.673 2.585 5.192 3.032 10.949 1.31 16.872-1.235 4.251-2.657 6.411-6.48 9.848-2.693 2.421-6.682 4.937-8.864 5.591-9.914 2.971-21.008-.075-27.077-7.432-3.575-4.333-5.145-8.889-5.153-14.951-.007-4.739 2.332-12.046 4.785-14.953 2.843-3.37 8.502-7.243 12.209-8.358 4.857-1.461 13.001-.671 17.622 1.71m326.681-.437c3.742.724 7.313 1.826 7.936 2.449.844.844.687 3.025-.615 8.548-.961 4.078-2.527 8.12-3.479 8.982-3.07 2.778-13.221 4.547-32.145 5.6-23.415 1.303-93.3 1.31-102.294.009-7.632-1.103-13.804-3.852-16.14-7.187-3.194-4.561-2.292-5.362 8.68-7.698 12.766-2.718 41.98-7.535 55.254-9.111 24.532-2.911 71.334-3.811 82.803-1.592m255.766 42.415c-2.745 11.574-8.549 30.062-11.257 35.85-1.555 3.325-2.938 4.583-6.927 6.299-6.152 2.647-38.907 12.046-41.978 12.046-1.232 0-1.998.242-1.702.539.297.296 6.334 2.068 13.417 3.938 15.71 4.146 29.956 9.095 33.564 11.659 3.525 2.506 7.709 13.427 13.052 34.072l4.157 16.061 1.853-6.884c5.973-22.185 8.293-29.622 11.245-36.042 1.81-3.936 4.185-7.636 5.279-8.221 4.27-2.285 40.378-13.122 43.723-13.122.828 0 1.505-.45 1.505-1s-.72-1-1.601-1c-.88 0-6.393-1.373-12.25-3.052-19.041-5.457-31.885-9.998-33.582-11.874-.914-1.01-3.21-6.168-5.102-11.462-3.616-10.116-9.465-31.536-9.465-34.661 0-1.008-.367-2.06-.816-2.337s-1.851 3.858-3.115 9.191M596.5 865.5v11l-3 5.937c-3.611 7.145-10.247 14.165-16.876 17.852-2.682 1.491-5.08 2.711-5.33 2.711s1.859-2.587 4.685-5.75c2.827-3.163 6.694-8.9 8.594-12.75 4.775-9.675 6.78-19.826 6.023-30.5-.332-4.675-.83-9.85-1.107-11.5-.325-1.93.836-.325 3.253 4.5l3.758 7.5zm475.667 10.79c-.016 4.085-.748 9.902-1.628 12.927-1.859 6.396-7.293 15.845-11.854 20.613-5.228 5.466-12.165 10.099-18.261 12.196-3.761 1.294-8.353 1.971-13.331 1.964-5.94-.007-8.736-.542-12.843-2.454-2.888-1.344-5.25-2.586-5.25-2.759s3.324-.148 7.388.057c8.186.414 15.654-1.309 24.069-5.553 2.774-1.399 8.2-5.747 12.057-9.662 4.726-4.797 8.375-9.737 11.183-15.143 2.293-4.413 4.948-10.826 5.9-14.252.953-3.425 1.927-6.033 2.166-5.795s.42 3.776.404 7.861m-585.651 16.46c5.352 8.102 17.506 20.328 25.618 25.771 9.349 6.272 20.072 11.079 30.048 13.471 10.291 2.467 27.647 2.705 36.358.498 3.278-.83 9.609-3.296 14.068-5.478 6.225-3.046 9.612-5.563 14.581-10.829 3.559-3.773 7.673-9.271 9.141-12.218 1.469-2.947 2.67-4.697 2.67-3.89 0 3.783-4.011 15.267-6.91 19.785-4.808 7.493-15.841 17.405-23.29 20.925-7.849 3.708-12.298 4.947-22.345 6.221-14.948 1.895-34.187-2.042-47.455-9.712-3.706-2.143-10.379-7.635-15.522-12.776-6.411-6.408-10.107-11.097-12.77-16.203-3.195-6.123-8.708-19.316-8.708-20.838 0-1.218.994-.058 4.516 5.273M351.059 993.744c-.695 3.166-2.816 10.599-4.715 16.518-2.427 7.568-4.104 11.176-5.648 12.153-1.841 1.166-16.886 6.234-30.696 10.34-2.297.683-2.785 1.076-1.419 1.143 2.973.146 27.615 7.635 31.17 9.473 3.661 1.893 6.133 7.632 10.18 23.629 1.6 6.325 3.116 10.825 3.368 10 .253-.825 2.117-7.35 4.143-14.5s4.464-14.344 5.419-15.987c2.083-3.584 6.752-5.54 23.984-10.048 6.79-1.776 11.965-3.454 11.5-3.73s-2.42-.821-4.345-1.213c-6.87-1.399-21.578-5.721-26.144-7.682l-4.645-1.995-2.047-5.673c-1.126-3.119-3.401-10.562-5.055-16.538s-3.183-11.041-3.397-11.256c-.215-.215-.959 2.2-1.653 5.366m301.282 6.833c1.631.626 1.858-.537-3.456 17.673l-1.97 6.75h-2.892c-1.591 0-4.157.481-5.702 1.068-2.523.959-3.091.754-5.565-2.016-2.203-2.464-2.756-4.055-2.756-7.918 0-3.736.652-5.734 2.87-8.796 1.579-2.18 4.391-4.712 6.25-5.628 3.348-1.649 10.319-2.246 13.221-1.133m2.498 33.156c1.837.869 4.48 3.304 5.875 5.411 2.156 3.258 2.467 4.66 2.077 9.366-.363 4.379-1.068 6.174-3.375 8.601-1.604 1.687-4.232 3.754-5.839 4.594-3.964 2.069-11.67 1.944-15.383-.25-6.579-3.886-9.173-14.296-5.343-21.438 2.25-4.196 5.764-6.944 10.272-8.034 3.894-.942 7.006-.477 11.716 1.75m274.886 15.484c1.223 1.147 2.946 3.974 3.829 6.284 1.29 3.379 1.391 4.989.518 8.233-.598 2.218-1.646 4.473-2.329 5.012s-2.593 1.287-4.243 1.664-3.788.919-4.75 1.205l-1.75.52.014-11.318c.007-6.224.277-12.301.6-13.504.511-1.907.926-2.059 3.236-1.184 1.458.553 3.651 1.942 4.875 3.088m-303.712 9.31c1.206 2.49 3.72 5.693 5.587 7.117 4.113 3.138 9.756 5.253 14.169 5.312l3.269.044-.769 2.75c-.423 1.513-.731 5-.685 7.75.151 8.9 6.517 17.815 15.068 21.101 2.602 1 6.24 1.466 9.751 1.247l5.6-.348.02 5.5c.024 6.244 2.662 12.987 6.786 17.342 4.554 4.808 9.943 7.034 17.191 7.099 3.575.033 7.513-.309 8.75-.758l2.25-.818v4.442c0 5.793 2.396 12.438 5.789 16.055 1.491 1.59 4.961 3.955 7.711 5.255 5.818 2.75 13.792 3.091 20 .854 2.2-.792 4.054-1.448 4.12-1.456s.345 1.984.62 4.426c.276 2.443 1.696 6.481 3.157 8.974 2.946 5.027 9.149 9.246 15.787 10.738 5.295 1.189 13.52-.463 18.237-3.664 1.937-1.315 3.707-2.075 3.933-1.69s.736 2.214 1.133 4.063c.396 1.85 2.331 5.145 4.299 7.323 9.735 10.776 24.719 11.504 35.32 1.717 2.453-2.264 4.523-3.515 4.74-2.864.821 2.464 6.632 8.158 10.844 10.626 3.425 2.007 5.818 2.601 10.665 2.647 8.309.078 14.629-2.949 19.19-9.191 1.856-2.541 3.654-5.857 3.994-7.37s.752-2.75.915-2.75c.162 0 2.337 1.142 4.833 2.537 5.5 3.074 12.746 4.074 18.421 2.544 6.312-1.703 12.377-6.787 15.614-13.088 2.324-4.524 2.757-6.467 2.453-11.015l-.37-5.522 3.631-.096c5.659-.148 10.862-2.274 15.251-6.231 2.214-1.996 4.845-5.429 5.847-7.629 1.114-2.445 1.831-6.372 1.844-10.101.016-4.518-.589-7.25-2.333-10.531l-2.356-4.43 4.136-3.597c2.274-1.979 5.021-5.447 6.105-7.708 1.083-2.26 2.325-4.115 2.76-4.122s2.568.896 4.74 2.005c5.798 2.957 24.607 10.6 39.384 16.003l12.914 4.722-.203 7.379c-.483 17.562-5.257 32.224-15.428 47.38-6.546 9.753-11.641 15.459-13.252 14.841-.893-.343-5.793 3.09-12.699 8.899-18.868 15.866-25.752 20.735-37.228 26.332-16.104 7.855-40.342 14.354-65.018 17.434-15.356 1.917-41.259 2.735-58.5 1.847-16.43-.846-39.822-3.52-56-6.401-24.606-4.382-58.759-13.272-82.5-21.474-25.914-8.954-62.585-24.674-84.5-36.222-23.637-12.457-41.851-23.315-62-36.964-12.647-8.566-29.946-21.862-29.979-23.042-.012-.412.698-.75 1.576-.75 2.316 0 57.533-27.457 73.403-36.501 12.983-7.398 47.495-29.874 48.588-31.642.292-.471.688-.857.882-.857.193 0 1.338 2.037 2.543 4.527m53.467 7.76c2.231 1.264 4.969 4.002 6.233 6.233 4.052 7.155 2.442 14.734-4.313 20.301-6.972 5.748-15.329 5.485-21.491-.676-2.029-2.03-4.146-5.344-4.704-7.366-1.147-4.151-.085-10.506 2.384-14.274 2.134-3.258 9.1-6.507 13.911-6.488 2.281.009 5.711.985 7.98 2.27m264.622 12.983c8.494 5.674 9.217 18.565 1.444 25.73-2.341 2.158-3.625 2.494-9.379 2.457-8.059-.051-12.257-2.02-14.532-6.814-.899-1.895-1.633-5.627-1.631-8.294.007-9.175 6.272-15.338 15.598-15.345 3.644-.003 6.073.645 8.5 2.266M708.5 1094.881c2.2 1.01 4.77 2.704 5.712 3.764.941 1.061 2.447 3.688 3.346 5.84 2.07 4.955 1.251 10.765-2.145 15.218-4.522 5.929-10.959 7.918-18.436 5.697-8.046-2.389-12.829-10.233-11.529-18.905.36-2.395 1.608-5.567 2.774-7.05 2.539-3.228 9.122-6.401 13.278-6.401 1.65 0 4.8.826 7 1.837m223.652 20.144c4.113 1.143 10.441 7.506 11.446 11.509 1.061 4.227-.173 11.06-2.616 14.491-2.527 3.549-8.96 6.919-13.272 6.953-3.407.027-9.443-2.959-12.393-6.131-2.689-2.89-4.317-7.021-4.317-10.952 0-3.481 2.917-9.608 5.827-12.24 1.898-1.716 8.391-4.518 10.673-4.606.55-.021 2.643.419 4.652.976m-189.611 5.855c7.579 3.442 11.456 10.586 10.142 18.685-.815 5.026-4.37 9.409-9.454 11.658-6.028 2.666-12.027 1.771-16.92-2.525-4.176-3.666-6.309-8.135-6.309-13.216 0-4.134 1.806-8.045 5.162-11.178 2.751-2.569 8.481-5.218 11.338-5.243 1.1-.009 3.819.809 6.041 1.819m566.959 13.169c65.298 3.543 121.661 14.01 135.587 25.178.872.7 2.142 2.316 2.821 3.59 1.017 1.91.955 2.743-.352 4.737-1.869 2.853-6.603 5.373-15.556 8.282-7.481 2.431-23.268 6.181-26.385 6.268-1.163.032-6.39-1.097-11.615-2.509-21.531-5.818-51.593-10.427-82-12.571-7.975-.563-28.9-1.305-46.5-1.649-45.414-.89-89.592 1.329-121.5 6.102-20.967 3.137-45.102 8.131-50.662 10.485-1.559.66-5.764-.018-15.06-2.427-7.093-1.838-15.866-4.689-19.496-6.334-7.03-3.188-10.363-6.797-9.317-10.089 1.032-3.252 8.795-7.625 20.261-11.412 30.461-10.061 81.758-16.427 153.774-19.081 14.03-.517 66.063.348 86 1.43m-525.737 9.61c6.948 5.151 9.354 15.935 4.987 22.351-3.62 5.319-7.09 7.316-13.487 7.764-4.819.337-6.332.016-9.239-1.959-1.912-1.3-4.5-3.881-5.75-5.737-1.605-2.381-2.274-4.831-2.274-8.325 0-7.724 3.04-12.583 10-15.986.825-.404 4.094-.6 7.263-.436 3.861.2 6.667.969 8.5 2.328m124.884 3.412c5.715 2.767 8.782 7.806 8.782 14.429 0 6.332-2.838 11.237-8.266 14.288-5.354 3.009-12.72 2.993-17.173-.038-4.811-3.274-7.142-6.916-7.722-12.067-.717-6.357 2.52-12.843 8.069-16.169 5.145-3.084 10.551-3.231 16.31-.443m-84.691 9.906c2.131 1.088 4.885 3.395 6.119 5.128 1.261 1.771 2.441 5.206 2.694 7.846.333 3.46-.098 5.773-1.636 8.788-2.862 5.61-7.27 8.525-13.699 9.058-4.182.347-6.09-.038-9.391-1.893-5.757-3.236-8.473-7.981-8.512-14.876-.024-4.222.52-6.3 2.299-8.795 1.282-1.797 3.982-4.14 6-5.206 2.019-1.066 5.6-1.958 7.96-1.983 2.382-.024 6.013.835 8.166 1.933m44.744 4.181c3.473 2.109 6.66 6.715 7.7 11.129 1.43 6.068-3.212 15.013-9.469 18.249-4.169 2.156-10.774 1.803-15.411-.823-4.704-2.664-8.489-8.784-8.482-13.713.008-4.945 3.166-11.297 6.96-13.999 6.048-4.306 12.517-4.597 18.702-.843m187.156 23.694c17.273 6.589 45.04 12.267 78.692 16.094 34.501 3.922 56.693 5.205 99.638 5.759 66.38.856 111.262-2.04 160.314-10.342 29.477-4.989 43.393-9.236 62.75-19.146.412-.211.75 12.959.75 29.267v29.651l-2.045-.649c-3.688-1.171-22.329-.865-25.455.417-3.779 1.55-7.254 4.759-9.195 8.491-.834 1.604-1.505 5.478-1.505 8.691 0 4.303.723 7.296 2.802 11.607 1.541 3.194 2.946 6.063 3.122 6.374s-3.854-.095-8.955-.901c-10.718-1.695-17.108-1.07-21.946 2.143-1.828 1.215-4.336 4.212-5.573 6.662-2.682 5.309-2.959 12.765-.71 19.154.846 2.407 3.482 6.882 5.857 9.944l4.318 5.568-3.776 3.17c-2.077 1.744-4.311 4.792-4.965 6.773-.654 1.982-1.016 6.6-.804 10.262.276 4.762 1.264 8.529 3.468 13.223 3.304 7.036 12.483 17.669 19.374 22.444l4.083 2.83-2.848 1.802c-1.565.992-3.949 3.728-5.297 6.081-2.024 3.535-2.44 5.582-2.391 11.779.033 4.223.749 9.365 1.64 11.769 2.573 6.95 7.85 14.894 15.191 22.869l6.89 7.484-3.254 10.689c-5.583 18.345-14.88 42.039-23.028 58.689-11.862 24.239-29.832 51.282-42.081 63.327-6.728 6.615-17.815 12.142-31.417 15.661-13.108 3.391-23.467 5.158-40.795 6.957-22.839 2.372-40.933 2.879-58.705 1.647-39.763-2.758-75.43-10.542-89.456-19.524-2.774-1.776-7.294-5.7-10.044-8.718-5.06-5.553-19.88-26.071-21.068-29.168-.492-1.282-.085-1.684 1.711-1.692 1.296-.005 4.608-1.058 7.36-2.339 6.202-2.889 10.07-8.192 11.627-15.943.862-4.295.862-7.132-.003-11.458-1.725-8.629-5.544-15.516-11.745-21.183-3.896-3.561-7.124-5.518-10.931-6.624l-5.403-1.571-6.105 1.564c-5.844 1.497-10.943 2.032-10.943 1.147 0-.229.901-2.518 2.001-5.086 2.683-6.258 3.438-13.74 2.109-20.891-.602-3.242-2.739-9.175-4.747-13.184l-3.652-7.29 2.692-3.2c3.95-4.694 6.545-10.282 7.716-16.619 2.01-10.871-2.675-25.613-10.57-33.266l-3.307-3.205 3.292-4.892c1.81-2.691 3.834-6.536 4.498-8.546.727-2.203 1.027-6.881.756-11.779-.361-6.526-1.052-9.309-3.515-14.141-3.3-6.476-10.795-14.22-15.985-16.517-2.769-1.225-3.114-1.77-2.5-3.944.392-1.388.712-7.023.712-12.523 0-8.95-.289-10.56-2.75-15.332-1.513-2.933-2.75-5.464-2.75-5.625s1.88.638 4.177 1.775c9.014 4.459 18.985 1.494 25.942-7.715 5.434-7.194 7.138-13.619 6.725-25.355-.292-8.279-.774-10.625-3.201-15.566-1.978-4.029-4.28-6.85-7.487-9.178-7.089-5.145-13.471-6.61-31.475-7.229l-15.819-.543.597-12.616c.329-6.939.846-15.855 1.15-19.814l.552-7.198 4.026 2.916c2.214 1.604 7.465 4.229 11.669 5.832m443.059 11.934c4.616 3.446 6.436 6.92 6.886 13.14.303 4.195-.182 7.964-1.643 12.763-1.918 6.297-7.566 17.064-10.546 20.103-1.034 1.054-3.185.755-11.689-1.623l-10.423-2.915-.273-16.378-.273-16.379 5.001-3.998c2.75-2.2 6.923-4.783 9.273-5.741 4.965-2.025 10.116-1.639 13.687 1.028m-430.415 31.337c3.3.555 7.633 2.074 9.629 3.377 5.122 3.342 7.871 9.514 7.871 17.667 0 3.594-.52 8.064-1.155 9.934-1.692 4.979-5.908 10.578-9.395 12.477l-3.051 1.662-7.449-4.647c-4.098-2.556-9.669-5.31-12.382-6.12s-8.234-1.473-12.271-1.473c-5.619 0-12.436 1.298-29.069 5.535-22.49 5.728-35.682 9.552-50.156 14.538-4.636 1.597-8.661 2.671-8.945 2.387-.681-.681 4.071-10.302 8.534-17.279 4.67-7.3 13.383-16.375 20.839-21.704 14.216-10.16 30.576-15.749 50.924-17.397 12.019-.974 26.578-.553 36.076 1.043m399.5 18.324c12.983 3.319 28.866 8.909 38.645 13.601 4.561 2.188 10.569 6.123 13.652 8.941 5.323 4.864 20.998 26.804 25.73 36.011 1.454 2.83 2.292 6.17 2.258 9-.031 2.493-1.256 7.399-2.748 11-1.481 3.575-2.935 8.981-3.232 12.014-.452 4.62.047 7.202 3.078 15.925 1.989 5.726 3.607 11.795 3.595 13.486-.032 4.521-3.099 10.355-8.714 16.575-2.73 3.025-5.78 7.075-6.777 9-1.242 2.398-2.012 6.842-2.445 14.113-.466 7.821-1.12 11.372-2.488 13.5-1.021 1.588-5.539 6.487-10.04 10.887-7.208 7.047-8.39 8.715-9.917 14-3.19 11.046-4.858 14.783-8.291 18.583-1.876 2.077-5.525 5.119-8.109 6.76s-10.322 5.314-17.197 8.16c-23.427 9.701-39.488 16.998-48.342 21.963-4.864 2.727-8.603 4.413-8.309 3.746 4.888-11.101 10.528-25.773 15.651-40.712 3.488-10.175 6.452-18.648 6.585-18.83.332-.454 4.492 2.271 13.836 9.063 4.357 3.167 8.132 5.548 8.389 5.29.257-.257-1.057-3.05-2.921-6.207-2.12-3.589-10.159-12.496-21.463-23.778-13.845-13.816-18.69-19.325-20.704-23.538-1.446-3.025-2.949-6.85-3.339-8.5l-.71-3 4.276 3.849c5.296 4.767 11.367 7.6 16.346 7.629 5.067.029 8.705-3.495 8.705-8.433 0-1.95.197-3.545.438-3.545.242 0 3.054 1.421 6.25 3.158 8.307 4.514 27.216 17.422 38.312 26.152 5.225 4.111 9.65 7.335 9.834 7.165s-1.205-2.709-3.085-5.642c-8.462-13.198-22.88-25.582-52.88-45.418-20.634-13.644-32.265-22.587-36.678-28.202-3.2-4.073-6.191-9.49-6.191-11.214 0-.606 1.463-.003 3.25 1.338 1.787 1.342 5.598 3.615 8.467 5.051 3.684 1.845 6.769 2.605 10.5 2.59 5.583-.024 8.602-1.627 10.666-5.662.614-1.202 1.117-3.789 1.117-5.75s.112-3.566.25-3.565 2.519.863 5.293 1.917c8.106 3.081 31.793 14.554 41.764 20.229 9.579 5.452 24.277 14.909 30.232 19.451 1.904 1.452 3.461 2.33 3.461 1.951 0-1.695-6.325-9.573-12.138-15.118-6.401-6.106-16.577-13.367-26.974-19.246-3.087-1.746-16.544-8.348-29.905-14.673s-27.533-13.518-31.493-15.986c-6.846-4.266-15.49-12.344-15.49-14.474 0-.545 1.641.122 3.647 1.483 7.668 5.204 20.82 7.074 26.433 3.759 3.966-2.343 6.284-7.516 5.439-12.141-.367-2.009-1.319-4.666-2.116-5.903s-1.053-2.25-.568-2.25c1.449 0 31.944 10.512 42.165 14.535 11.922 4.693 30.881 14.133 40.866 20.349 11.212 6.98 10.478 6.627 9.331 4.487-1.913-3.571-13.743-14.005-22.297-19.665-10.032-6.639-23.098-13-39.419-19.192-12.862-4.88-18.006-7.629-23.981-12.817-3.648-3.168-8.969-10.533-6.882-9.526.485.234 3.582 1.739 6.882 3.345 4.427 2.155 7.849 3.02 13.055 3.302l7.055.381 3.161-2.66c5.782-4.865 5.261-13.002-1.156-18.061-1.713-1.351-2.665-2.457-2.115-2.458s5.275 1.091 10.5 2.427M538.406 1422c5.227 23.784 8.664 43.801 11.505 67 4.79 39.123 7.479 84.178 6.927 116.081l-.338 19.58-2.868 3.758c-2.753 3.606-13.312 11.234-14.252 10.295-.249-.25.034-19.75.631-43.334s.811-53.905.477-67.38c-.894-35.987-3.254-80.647-5.496-104-1.89-19.687-2.262-25.651-1.463-23.5.205.55 2.399 10.225 4.877 21.5m570.204 64.606c2.14 1.433 4.886 3.796 6.103 5.25 3.401 4.062 5.593 11.606 5.042 17.346-.375 3.898-1.168 5.672-3.642 8.141l-3.163 3.157-13.225-.063c-14.038-.066-24.427-1.74-36.521-5.885-7.743-2.653-16.204-6.639-16.204-7.634 0-.376 3.023-2.648 6.718-5.051 3.696-2.402 10.276-7.166 14.624-10.586 6.372-5.013 8.256-6.031 9.716-5.25 2.608 1.396 11.626 1.158 17.442-.461 2.75-.765 5.95-1.431 7.11-1.481 1.161-.049 3.861 1.084 6 2.517"/></svg>