<svg xmlns="http://www.w3.org/2000/svg" viewBox="0 0 2048 2048"><path fill-rule="evenodd" d="M931.36 247.25c.321 1.787 1.5 9.55 2.62 17.25 6.042 41.539 9.58 65.179 17.111 114.309L959.397 433h35.289l3.158-17.75c1.738-9.762 3.158-18.511 3.158-19.441-.001-.93.361-1.915.805-2.19s2.336 8.474 4.203 19.441l3.396 19.94h35.386l1.667-9.25c.917-5.087 2.748-14.875 4.069-21.75s5.147-28.25 8.503-47.5 7.607-43.55 9.448-54c1.84-10.45 4.532-25.975 5.98-34.5s2.835-16.464 3.08-17.643c.437-2.105.133-2.156-17.09-2.873-9.645-.402-17.686-.563-17.87-.357s-4.281 23.998-9.103 52.873-9.081 54.075-9.463 56c-.658 3.311-.731 3.365-1.358 1-.528-1.991-12.655-73.575-12.655-74.699 0-.166-2.613-.301-5.806-.301-5.806 0-5.806 0-7.544 9.25-.955 5.087-3.494 18.475-5.642 29.75-2.147 11.275-4.673 24.775-5.614 30s-1.856 9.05-2.034 8.5-1.661-10.225-3.295-21.5a14610 14610 0 0 0-7.068-48c-2.254-15.125-4.607-31.212-5.23-35.75l-1.131-8.25h-17.929c-17.93 0-17.93 0-17.347 3.25m182.264 8.949c-1.019 3.693-16.754 67.354-25.655 103.801-4.5 18.425-10.546 43.052-13.435 54.727-4.575 18.49-5.045 21.285-3.643 21.676 12.605 3.508 72.362 17.677 72.782 17.257.847-.846 7.613-33.707 7.056-34.264-.263-.264-8.86-2.554-19.104-5.091-14.459-3.58-18.626-4.969-18.628-6.208-.005-2.313 8.121-35.46 8.905-36.328.363-.402 5.518.201 11.455 1.341s10.973 1.893 11.192 1.675c.413-.414 7.451-32.027 7.45-33.467 0-.45-4.725-1.902-10.5-3.226-5.774-1.324-10.499-2.627-10.499-2.895s2.064-8.971 4.586-19.339c4.325-17.778 4.71-18.826 6.75-18.386 1.19.257 9.99 2.317 19.555 4.578 11.02 2.605 17.62 3.741 18.015 3.101 1.508-2.439 8.26-32.379 7.468-33.113-.72-.668-59.43-15.349-69.994-17.504-2.673-.545-3.211-.306-3.756 1.665m115.936 37.578c-3.583 8.192-30.517 66.866-37.055 80.723-2.595 5.5-7.196 15.4-10.226 22-3.029 6.6-10.857 22.986-17.396 36.413-6.54 13.428-11.776 24.517-11.636 24.642.139.126 7.903 3.701 17.253 7.943a5318 5318 0 0 1 35.33 16.228c10.341 4.803 18.705 8.135 19.189 7.644 1.274-1.291 14.77-30.774 14.395-31.449-.176-.319-8.662-4.369-18.856-9s-18.539-8.871-18.542-9.421 1.952-5.275 4.345-10.5 10.213-22.325 17.377-38c13.964-30.553 16.474-35.997 23.739-51.5 7.178-15.315 16.523-36.23 16.523-36.978 0-.541-30.336-15.588-31.239-15.495-.144.015-1.584 3.052-3.201 6.75m-487.043 5.749c-13.19 5.714-24.473 11.061-25.072 11.88s-2.807 5.738-4.905 10.93c-3.815 9.44-3.815 9.44 6.738 34.302a37076 37076 0 0 1 20.268 47.862c13.98 33.094 36.584 85.955 36.888 86.263.143.145 4.716-1.819 10.163-4.363 5.446-2.545 11.83-5.466 14.185-6.491 4.281-1.865 4.281-1.865 2.363-5.637-1.055-2.075-4.037-8.921-6.628-15.215-4.419-10.737-4.6-11.523-2.933-12.742 2.082-1.523 20.38-8.731 20.778-8.186.253.345 7.646 17.719 11.085 26.047 1.636 3.961.758 4.205 26.78-7.454 2.726-1.222 2.726-1.222-3.273-15.222-6.302-14.708-16.251-38.346-33.673-80-17.645-42.188-26.538-62.946-27.493-64.178-.785-1.012-13.188-5.916-19.288-7.626-1.271-.356-10.736 3.224-25.983 9.83m32.707 47.014a6957 6957 0 0 1 17.278 40.737c9.52 22.698 10.17 19.556-5.314 25.7-4.783 1.898-8.673 2.921-9.162 2.411-.811-.848-6.291-13.674-15.548-36.388-2.353-5.775-7.474-18.062-11.379-27.304S744 334.502 744 334.024c0-.968 19.997-9.11 21.371-8.702.479.142 4.913 9.691 9.853 21.218m536.618 41.643c-17.761 23.824-41.925 56.142-53.699 71.817a24596 24596 0 0 0-23.737 31.633c-2.329 3.133-2.329 3.133 8.882 10.915 6.167 4.281 19.762 14.182 30.212 22.004 21.243 15.901 17.814 14.852 37.374 11.426 6.626-1.16 6.626-1.16 23.626-24.159 9.35-12.649 22.74-30.721 29.755-40.159 46.8-62.966 42.985-56.445 41.128-70.302-1.605-11.981-1.795-12.567-4.777-14.763-24.392-17.962-54.366-40.082-55.289-40.804-.84-.656-10.557 11.649-33.475 42.392m45.656 10.612c4.354 3.298 5.112 4.413 5.888 8.659.586 3.21.53 5.451-.165 6.563-.58.93-14.364 19.531-30.631 41.336C1303.015 495 1303.015 495 1298.266 495c-3.823 0-5.774-.706-10.007-3.622-2.893-1.992-5.259-3.92-5.259-4.285 0-.55 20.743-28.483 61.521-82.843 3.816-5.087 7.173-9.248 7.459-9.245s2.769 1.708 5.518 3.79m-779.166 8.511c-.458.781-5.444 6.297-11.082 12.257-5.638 5.959-10.25 11.171-10.25 11.581s3.109 5.384 6.909 11.051c17.201 25.657 47.023 70.809 48.117 72.854 1.21 2.26 1.21 2.26-2.158.232-5.609-3.377-18.789-11.086-53.043-31.027l-32.676-19.021-7.884 8.633c-17.423 19.08-18.877 13.57 11.029 41.783 14.489 13.668 44.708 42.176 67.152 63.351s41.155 38.5 41.579 38.5c.881 0 23.91-25.647 23.949-26.671.014-.37-4.362-4.61-9.724-9.422s-12.846-11.646-16.63-15.184c-6.88-6.433-6.88-6.433 14.295 4.399l21.176 10.832 6.291-6.94 6.291-6.941-6.004-10.536c-3.302-5.796-8.417-14.782-11.367-19.97-6.169-10.849-6.571-11.088 13.129 7.8l13.942 13.368 5.063-5.391c16.216-17.262 18.664-20.038 18.379-20.842-.173-.487-15.648-15.199-34.388-32.694A17409 17409 0 0 1 614.097 437c-17.742-16.775-32.86-30.638-33.595-30.808-.736-.169-1.713.332-2.17 1.114m864.511 33.946c-4.589 4.046-19.143 16.789-32.343 28.318-78.715 68.747-96.5 84.72-96.5 86.668 0 .435 5.98 7.422 13.289 15.527 7.31 8.104 18.338 20.47 24.507 27.479s11.552 12.775 11.961 12.812c1.162.107 25.243-22.11 25.243-23.289 0-1.146-5.432-7.809-16.521-20.267-3.917-4.4-7.429-8.524-7.806-9.164-.415-.706 3.937-5.295 11.071-11.673 18.857-16.859 15.847-16.061 24.949-6.619l7.807 8.1 7.5-6.822c4.125-3.752 9.873-9.072 12.773-11.822l5.273-5-6.971-8.159-6.972-8.159 9.699-8.881c5.334-4.885 11.777-10.557 14.318-12.605 4.621-3.725 4.621-3.725 17.945 9.795 7.328 7.436 13.651 14.05 14.052 14.698.839 1.358 4.858-1.778 17.869-13.946 8.485-7.936 8.485-7.936 5.701-11.586-3.571-4.682-46.657-52.058-47.709-52.459-.436-.167-4.547 3.008-9.135 7.054M1043 516.048c-17.219 2.13-33.087 8.485-45.563 18.247-8.089 6.329-13.171 12.659-19.837 24.705-2.586 4.675-6.686 11.2-9.111 14.5-5.359 7.296-9.196 16.938-20.664 51.924-9.711 29.628-9.748 29.867-7.325 47.576 2.168 15.844 2.176 15.787-2.25 16.59-2.062.374-5.385 1.502-7.383 2.506s-10.098 2.991-18 4.415c-19.728 3.557-24.096 4.785-37.083 10.432-6.206 2.698-14.201 5.654-17.767 6.569-6.118 1.57-6.816 1.563-12.38-.122-5.897-1.785-5.897-1.785-13.517 1.057-4.191 1.563-14.576 4.489-23.077 6.502-14.552 3.445-15.733 3.905-20.159 7.855-4.624 4.128-4.821 4.196-12.113 4.196-7.413 0-7.413 0-20.342 9.638-20.347 15.167-33.244 26.331-47.227 40.879-16.096 16.746-19.684 21.852-21.773 30.983-5.318 23.25-18.557 48.728-34.286 65.983-5.265 5.775-7.244 8.729-7.645 11.405-2.09 13.953-3.968 20.34-9 30.612-6.857 13.998-11.414 19.915-19.515 25.344-3.566 2.389-6.999 5.314-7.63 6.5-1.712 3.218-12.087 40.098-13.547 48.156-.736 4.063-1.276 15.183-1.287 26.5-.019 19.084.038 19.622 2.663 25.222 5.742 12.246 14.054 21.829 29.794 34.348 7.926 6.305 12.273 10.664 16.444 16.489 3.118 4.355 6.586 8.409 7.707 9.009 1.369.732 9.658.962 25.206.698 25.216-.428 25.587-.497 40.667-7.595 5.071-2.387 6.57-2.748 6.818-1.641.175.78-1.508 7.842-3.74 15.694-5.941 20.9-7.82 30.571-9.088 46.776-.623 7.975-1.439 18.02-1.812 22.323l-.678 7.824-24.271-.106-24.271-.106.271 20.283.271 20.282 329.25.254 329.25.255v-14.037c0-14.913-1.083-19.876-4.769-21.848-1.066-.571-7.677-2.475-14.691-4.231-9.235-2.313-12.308-3.443-11.14-4.097 2.264-1.267 42.175-16.306 47.409-17.865 8.864-2.639 12.034-11.241 6.268-17.008-1.9-1.9-3.948-2.923-5.852-2.923-1.611 0-14.583 1.572-28.827 3.492-14.244 1.921-27.363 3.496-29.154 3.5-3.257.008-3.257.008-.302-4.071 3.938-5.435 4.77-8.548 5.514-20.624.836-13.563 2.187-18.261 9.966-34.672 3.618-7.631 6.578-14.044 6.578-14.25s-.675-.375-1.5-.375-1.5-.404-1.5-.898c0-.9 19.731-36.597 24.959-45.157 5.407-8.851 5.691-13.928 1.02-18.195-3.395-3.101-7.391-3.55-10.737-1.207-1.211.848-5.473 6.286-9.471 12.084l-7.268 10.542-1.788-7.834c-5.199-22.78-5.929-34.45-2.726-43.565 1.953-5.555 1.956-5.77.146-11.584-1.844-5.923-1.844-5.923.961-14.308 3.301-9.868 3.206-10.57-3.444-25.61-6.478-14.648-9.545-27.74-10.723-45.768-1.208-18.475-2.838-26.348-7.343-35.463-4.712-9.534-9.476-15.492-28.716-35.909-9.003-9.554-19.369-21.319-23.035-26.143-6.665-8.771-6.665-8.771-4.403-12.128 6.279-9.319 15.27-25.13 17.791-31.284 8.64-21.097 9.775-112.322 2.227-179.073-2.997-26.504-5.134-29.359-29.256-39.101-19.625-7.926-46.729-14.884-67.893-17.428-5.059-.609-17.209-1.502-27-1.986-9.79-.483-21.401-1.551-25.801-2.373-10.359-1.933-31.941-2.747-41.5-1.564m-577.738 27.281c-3.982 7.165-7.132 13.12-7 13.232.384.33 33.005 21.038 48.205 30.6 13.967 8.787 13.967 8.787 16.838 4.175s2.871-4.612-4.353-20.809-7.224-16.197-18.838-23.213c-6.388-3.859-15.214-9.266-19.614-12.015l-8-4.998zM1145 534.936c22.506 3.809 50.305 12.193 65.554 19.771 7.6 3.778 7.995 4.143 9.061 8.388.613 2.441 1.853 11.856 2.755 20.922 5.572 55.992 6.048 121.307 1.147 157.291-1.719 12.624-4.633 18.417-23.755 47.234-29.647 44.68-86.667 126.325-93.031 133.208-2.063 2.232-2.304 2.25-30.155 2.219-15.442-.018-35.276-.452-44.076-.965-16-.933-16-.933-21.184-6.718-8.816-9.839-9.087-7.366 3.403-30.984 30.311-57.317 58.78-118.066 63.875-136.302 2.134-7.637 2.923-31.306 1.505-45.122-3.602-35.089-12.959-82.818-27.626-140.909-3.56-14.102-6.473-25.911-6.473-26.243 0-.847 6.339-1.704 24.126-3.264 22.458-1.969 58.754-1.254 74.874 1.474m382.5-1.011c-2.712 1.59-10.236 5.707-39.5 21.613a64921 64921 0 0 0-42.5 23.149 19573 19573 0 0 1-54.782 29.746c-21.782 11.759-21.782 11.759-19.443 15.913 1.287 2.285 5.182 9.217 8.657 15.404 3.474 6.188 6.403 11.25 6.507 11.25s5.561-2.874 12.126-6.386l27.935-14.946 16-8.56 4.812 9.551c2.647 5.252 4.663 9.699 4.481 9.881-.475.475-41.412 23.203-46.793 25.979-9.129 4.71-9.095 3.247-.453 19.517 4.226 7.955 8.036 14.846 8.468 15.314s5.892-1.941 12.135-5.352a7533 7533 0 0 1 28.963-15.698c17.613-9.498 17.613-9.498 20.864-19.23 3.25-9.732 3.25-9.732 7.957-7.222s4.706 2.51 16.636-3.837a1534 1534 0 0 0 23.43-12.78c6.325-3.538 17.125-9.387 24-12.998s12.586-6.613 12.69-6.672c.881-.5 5.398-24.057 4.947-25.799-.322-1.244-5.323-10.587-11.113-20.762a8367 8367 0 0 1-16.276-28.72c-3.162-5.621-5.973-10.197-6.248-10.167s-1.85.844-3.5 1.812m-489.409 23.236c18.529 72.222 30.9 139.853 30.885 168.839-.009 15.679-2.085 22.121-19.174 59.5-17.471 38.217-53.584 109.214-54.818 107.773-1.869-2.18-17.569-42.518-20.368-52.329-.855-2.994-2.004-8.369-2.555-11.944C968.051 802.983 951 664.134 951 657.499c0-1.853 1.912-8.686 4.25-15.184 3.27-9.091 4.325-11.156 4.577-8.959.179 1.572-.427 6.245-1.349 10.386-1.822 8.192-1.663 11.312 1.517 29.758 8.051 46.703 10.33 63.783 12.007 90 2.583 40.369 5.583 62.029 11.36 82 4.236 14.643 9.561 29.5 10.575 29.5 1.988 0 23.496-43.003 34.244-68.469 8.757-20.748 20.835-51.946 26.86-69.383 5.304-15.352 5.304-15.352 3.568-29C1051.435 651.739 1032.85 562 1028.342 562c-.334 0-5.938 2.971-12.454 6.603-14.586 8.13-22.25 11.342-27.138 11.373-4.958.032-6.659 1.886-12.617 13.756-5.081 10.121-8.518 15.208-9.57 14.162-.915-.911 5.189-17.618 8.73-23.894 4.91-8.703 13.002-16.017 21.31-19.262 8.982-3.508 22.033-11.292 30.397-18.128 3.575-2.922 6.647-5.194 6.828-5.05.18.144 2.098 7.164 4.263 15.601M1068 545.296c0 .713 2.221 13.426 4.935 28.25 8.053 43.987 14.231 87.522 17.959 126.551 1.029 10.778 2.388 20.561 3.018 21.739 2.259 4.221 6.169 5.141 30.339 7.138 43.967 3.632 69.093 5.237 75.549 4.826 9.236-.588 10.461-2.257 12.028-16.383 4.675-42.15 4.706-124.183.052-141.917-2.122-8.09-10.091-13.48-27.88-18.857-19.11-5.777-45.185-9.579-79.711-11.624-24.336-1.441-36.289-1.35-36.289.277m454.434 42.573c3.459 6.869 3.459 6.869-9.237 13.869-6.983 3.85-16.972 9.283-22.197 12.073l-9.5 5.073-3.747-6.902c-3.746-6.902-3.746-6.902.5-9.299 17.888-10.099 39.05-21.542 39.984-21.621.406-.034 2.295 3.029 4.197 6.807m-1077.742-5.16C443.446 584.777 431 613.157 431 613.931c0 .486 4.613 3.236 10.25 6.111 26.474 13.501 77.866 39.941 130.843 67.317C583.42 693.211 592.992 698 593.366 698c.677 0 15.634-30.635 15.634-32.022 0-1.554-163.591-84.459-164.308-83.269m554.045 28.925c5.019 3.13 8.971 16.483 7.769 26.249-1.298 10.551-7.281 20.117-12.583 20.117-2.368 0-2.375.299.202-8.185 2.787-9.175 2.317-25.337-.983-33.815-1.178-3.025-2.141-5.846-2.141-6.269-.001-1.043 4.976.181 7.736 1.903m-16.144 6.867c3.775 5.762 3.561 23.727-.373 31.307-1.517 2.923-2.5 3.692-4.72 3.692-9.001 0-10.951-29.049-2.517-37.483 2.401-2.401 4.956-1.567 7.61 2.484M929 701.963c0 1.164-3.22 9.474-6.646 17.151-2.411 5.404-2.647 5.613-6.333 5.613-4.431 0-9.113 2.928-11.708 7.321-.96 1.624-2.11 2.952-2.557 2.952s-3.465-1.339-6.706-2.975c-6.693-3.378-18.971-7.025-23.652-7.025-1.729 0-6.589 1.125-10.801 2.5s-10.007 2.506-12.878 2.514c-5.048.014-5.445.228-12.122 6.548-6.903 6.534-6.903 6.534-13.342 6.325-7.637-.247-8.607.684-6.792 6.519 4.533 14.575 19.042 48.033 27.319 62.996 11.216 20.277 25.101 37.78 54.875 69.173 12.306 12.975 16.55 16.551 17.966 15.135.431-.431-6.933-19.663-19.703-51.458-4.257-10.597-4.92-13.192-4.92-19.243 0-6.831-.138-7.209-5.929-16.251-6.114-9.547-9.218-18.011-7.307-19.922 2.043-2.043 5.429.466 12.179 9.023 3.774 4.784 7.918 9.22 9.209 9.857 1.292.638 6.326 1.334 11.189 1.547 8.565.376 8.87.313 9.75-2.003.5-1.314.909-4.625.909-7.356 0-3.587.435-5.134 1.567-5.568.862-.331 2-.169 2.529.36s3.204 16.676 5.946 35.883c6.843 47.948 10.094 66.251 12.351 69.531.609.886 5.21 6.061 10.225 11.5 5.014 5.44 13.904 15.29 19.753 21.89s11.197 12 11.883 12c1.889 0 1.305-7.908-1.209-16.347-3.332-11.191-2.197-11.56 4.255-1.382 3.189 5.03 7.913 11.032 10.499 13.338 4.454 3.972 21.955 13.078 30.701 15.975 2.2.728 4.346 1.601 4.768 1.938.683.546-.991 30.018-1.748 30.787-.168.17-3.064 1.144-6.435 2.165-6.131 1.857-6.131 1.857-8.011-1.809-4.35-8.483-11.026-10.744-19.902-6.742-4.265 1.923-4.265 1.923-10.323-4-3.332-3.258-13.826-15.148-23.321-26.423-16.531-19.63-26.135-29.301-40.462-40.744-10.659-8.514-11.477-7.425-5.475 7.296 8.386 20.569 17.552 52.624 15.424 53.939-1.185.732-17.867-20.686-24.917-31.991-3.43-5.5-8.755-15.035-11.834-21.19-4.881-9.758-6.197-11.578-10.281-14.224-2.576-1.669-8.602-6.534-13.393-10.81-15.945-14.236-17.646-15.474-19.338-14.07-2.461 2.042-.916 13.945 4.71 36.294 2.769 11 5.035 21.448 5.036 23.217.002 4.101-5.376 9.717-10.889 11.368-5.276 1.581-12.729.385-15.621-2.506-1.243-1.243-3.502-6.074-5.02-10.735-2.76-8.474-2.76-8.474 3.913-28.708 7.115-21.572 11.14-36.784 12.19-46.063.602-5.323.231-6.816-5.385-21.645-11.473-30.292-18.947-47.994-32.814-77.714-13.106-28.089-14.024-30.491-12.308-32.207.792-.792 7.729-2.602 15.416-4.021 11.142-2.058 15.543-3.38 21.71-6.522 7.734-3.941 7.734-3.941 11.314-1.829 2.921 1.723 4.497 1.99 8.575 1.449 6.938-.92 14.52-3.529 27.781-9.558 12.134-5.516 21.502-8.31 35.14-10.48 10.832-1.723 11-1.732 11-.583m20.425 48.366c3.029 21.544 7.095 50.871 9.036 65.171s4.029 27.8 4.64 30 3.793 10.669 7.071 18.82c5.959 14.82 5.959 14.82 3.336 18.259-1.443 1.892-4.31 4.299-6.37 5.351-4.048 2.065-15.733 4.808-16.636 3.906-.304-.305-2.541-13.33-4.972-28.945-4.512-28.994-13.168-80.454-18.449-109.687-2.4-13.285-2.74-16.889-1.839-19.5 1.296-3.754 11.081-22.744 14.145-27.45 2.113-3.247 2.113-3.247 3.323.829.665 2.242 3.687 21.703 6.715 43.246m-160.242-5.579c1.973 2.063 5.414 7.125 7.644 11.25 6.816 12.602 25.881 58.097 32.406 77.329 8.772 25.855 8.831 24.988-3.379 49.671-10.803 21.84-14.873 28.451-18.721 30.41-3.172 1.615-18.905 5.047-32.633 7.119-14.718 2.222-44.034 3.028-55.879 1.537-14.6-1.837-26.155-6.185-30.566-11.5-1.32-1.591-.981-1.651 5.014-.886 3.537.451 14.531.812 24.431.803 13.869-.014 21.557-.564 33.5-2.395 17.508-2.685 20-3.385 20-5.614 0-1.757-3.832-3.555-11.868-5.568-5.368-1.345-5.368-1.345-4.94-32.375.489-35.405.111-33.702 9.455-42.613 7.179-6.845 9.411-8.084 14.71-8.165 13.123-.198 28.379 19.011 35.082 44.172 2.698 10.131 3.559 11.673 5.994 10.739 3.458-1.327 1.332-31.873-3.336-47.935-7.007-24.11-21.305-51.615-31.261-60.137-4.634-3.967-11.414-6.592-17.025-6.592-5.367 0-11.236 3.032-20.913 10.806-14.691 11.801-21.763 22.607-25.978 39.694-1.22 4.95-3.103 10.8-4.183 13s-6.11 8.275-11.178 13.5-10.676 11.655-12.461 14.288c-5.628 8.301-11.396 22.514-16.037 39.521-.814 2.98-3.216 6.526-7.79 11.5-11.066 12.033-17.529 23.178-20.833 35.929-1.316 5.081-1.383 6.888-.385 10.453 1.207 4.311 1.207 4.311-11.279 16.56-7.218 7.081-14.581 15.413-17.451 19.749-5.573 8.42-14.023 22.454-17.159 28.5-1.142 2.2-2.095 3.262-2.12 2.359-.119-4.426 11.809-44.46 14.447-48.485.85-1.298 5.925-5.227 11.278-8.731 13.848-9.066 15.637-11.241 18.206-22.143 2.694-11.434 6.599-23.717 9.199-28.938 1.113-2.234 5.566-7.662 9.895-12.062 6.958-7.071 8.327-9.103 11.789-17.5 2.155-5.225 6.634-15.191 9.954-22.147s7.896-18.562 10.169-25.792c4.772-15.184 8.374-21.807 18.427-33.886 8.627-10.365 15.854-16.824 32.592-29.126 24.692-18.149 27.494-19.7 36.047-19.947 2.864-.082 4.238.62 7.136 3.648m296.102 9.369c-1.132 2.41-5.772 12.481-10.313 22.381-19.94 43.48-23.995 51.862-41.83 86.45-10.366 20.102-19.443 38.208-20.171 40.234-1.234 3.432-1.148 3.949 1.259 7.588 2.584 3.905 2.584 3.905 22.927 4.564 27.224.882 36.701.81 34.843-.263-.825-.477-9.6-2.737-19.5-5.024-18.426-4.255-22.5-5.841-22.5-8.761 0-1.697 4.827-12.29 19.613-43.038 8.295-17.25 8.295-17.25 17.091-17.213 4.838.02 23.392.647 41.232 1.393 29.128 1.219 32.569 1.54 33.75 3.155.723.988 1.314 2.7 1.314 3.803 0 1.104-3.15 8.672-7 16.82s-7 15.075-7 15.394c0 2.69 28.111-36.99 32.978-46.551 1.246-2.447 11.299-18.647 22.341-36 11.041-17.353 20.246-32.677 20.455-34.054.255-1.675-.39-3.224-1.947-4.683-2.541-2.38-6.653-2.806-70.827-7.343a13258 13258 0 0 1-36.079-2.588c-8.578-.644-8.578-.644-10.636 3.736m47.215 8.892c25.284 1.779 48.985 3.609 57 4.403 1.65.163 2.885.819 2.745 1.456s-3.603 6.215-7.695 12.394-12.799 19.786-19.347 30.236l-11.906 19-11.899-.238c-17.152-.344-62.63-2.169-71.233-2.86-6.965-.559-7.307-.701-6.776-2.815.526-2.098 24.35-54.315 28.009-61.39 1.683-3.255 1.752-3.28 7.401-2.72 3.135.311 18.301 1.451 33.701 2.534m-39.923 15.239c-2.906 6.188-8.275 17.614-11.931 25.392S1074 818.014 1074 818.294s2.66.818 5.911 1.196c5.911.686 5.911.686 16.75-6.757 16.564-11.373 43.564-29.317 46.11-30.643 1.249-.65 2.711-.91 3.25-.577 1.996 1.234.857 3.075-3.549 5.737-4.439 2.681-4.497 2.782-2.942 5.155 1.553 2.371 1.489 2.485-3.222 5.703-11.637 7.947-27.308 19.971-27.308 20.953 0 1.621 3.58.252 12.203-4.667 4.237-2.417 8.339-4.394 9.115-4.394s2.034 1.635 2.796 3.634c1.386 3.635 1.386 3.635 25.791-17.735s24.405-21.369 21-22.102c-3.459-.744-74.06-6.804-79.224-6.799-2.612.002-3.209.831-8.104 11.252m122.568 30.5c9.325 9.692 35.289 39.939 40.111 46.729 10.804 15.21 14.737 27.836 14.752 47.359.018 22.578 3.158 38.522 9.16 46.504 4.103 5.457 4.196 6.308 1.611 14.626-1.078 3.468-1.078 3.468-2.678 1.013-.881-1.35-5.233-6.961-9.673-12.468-13.279-16.473-18.852-26.195-24.787-43.246-4.885-14.034-6.4-16.667-15.137-26.304-4.221-4.655-10.102-12.101-13.07-16.546-9.809-14.693-12.898-24.182-14.051-43.155-.68-11.2-.68-11.2 3.351-15.231 2.217-2.217 4.438-4.031 4.936-4.031s2.962 2.138 5.475 4.75m-38.249 66.286c1.058 4.105 4.489 13.498 7.624 20.873 4.681 11.011 5.607 14.108 5.177 17.313-1.07 7.979-5.783 15.135-23.697 35.979-4.5 5.236-4.5 5.236-.5 2.826 2.2-1.325 5.392-3.448 7.094-4.718 4.175-3.115 5.594-2.985 4.835.441-1.187 5.362-2.726 9.801-4.767 13.75-1.716 3.32-2.083 5.954-2.161 15.5-.086 10.471-.393 12.291-3.426 20.342-3.834 10.178-9.055 16.658-13.42 16.658-1.46 0-2.655-.118-2.655-.261 0-.432 8.57-19.829 11.373-25.739 5.337-11.256 2.809-12.327-7.031-2.98-8.304 7.888-15.205 11.653-27.178 14.826-7.315 1.938-8.113 2.455-17.978 11.638-4.314 4.016-4.314 4.016-10.933-3.484-17.777-20.144-23.982-24.387-34.866-23.836-6.628.336-6.628.336-5.946-9.164 1.012-14.093.742-13.58 7.889-14.979 8.166-1.6 16.68-4.557 24.812-8.619 5.919-2.957 6.79-3.776 8-7.52 1.184-3.662 2.364-4.823 9.202-9.051 4.314-2.668 9.838-6.485 12.275-8.482s4.678-3.385 4.979-3.084c1.124 1.124-6.895 22.604-12.149 32.54-2.997 5.668-5.449 10.731-5.449 11.25s1.013.945 2.25.946c4.098.001 42.895-41.388 53.43-57.001 4.28-6.342 5.077-9.594 6.344-25.873 1.676-21.53 3.307-23.925 6.872-10.091m37.584 35.342c19.427 14.757 32.86 27.835 48.316 47.041 8.56 10.636 19.204 26.542 19.204 28.696 0 .438-1.125 2.454-2.5 4.48-1.778 2.62-2.5 5.024-2.5 8.322 0 4.312 4.152 25.831 8.948 46.372 1.129 4.834 2.036 9.559 2.016 10.5-.042 2.022.839 3.016-18.225-20.535-12.49-15.429-14.395-18.329-20.611-31.377-11.975-25.133-21.17-48.168-19.782-49.556.632-.633 8.169 4.775 18.019 12.928 3.225 2.671 6.092 4.627 6.371 4.348.941-.941-4.826-9.63-12.206-18.39-9.285-11.02-18.552-20.526-30.182-30.96-8.25-7.402-9.359-8.824-11.25-14.423-1.154-3.417-2.098-6.806-2.098-7.531 0-1.63 5.436 1.697 16.48 10.085M787.037 930.93c-2.435 4.55-9.551 7.67-24.037 10.539-4.675.926-16.825 3.716-27 6.2-17.427 4.255-19.087 4.486-28.632 3.987-17.958-.94-24.042-5.975-18.349-15.187 3.702-5.989 6.315-6.401 37.09-5.845 15.065.273 32.566.083 38.891-.421 6.325-.505 14.103-.982 17.285-1.06 5.425-.134 5.721-.023 4.752 1.787m263.582 15.979c-.644 9.463-3.667 40.488-3.965 40.7-.085.06-1.434.417-2.999.793-2.812.676-2.839.639-2.276-3.109.312-2.086 1.301-13.468 2.196-25.293 1.679-22.177 2.355-24.731 6.159-23.272 1.302.5 1.438 2.065.885 10.181m-281.273 5.341c-1.084 1.753-9.524 9.414-25.846 23.456-14.386 12.377-26.5 24.331-26.5 26.148 0 2.86 2.91 1.158 16.002-9.356C757.593 972.749 778.466 960 786.209 960c3.623 0 41.498 8.875 46.19 10.824 1.62.672.94 1.472-4.635 5.451-6.534 4.662-6.534 4.662-20.899 5.541-16.942 1.036-14.447-.005-44.296 18.488-11.715 7.258-23.385 14.422-25.934 15.921-2.561 1.506-4.635 3.469-4.635 4.388 0 1.424.778 1.571 5.429 1.024 2.986-.351 10.524-1.95 16.75-3.553 6.227-1.604 11.403-2.834 11.504-2.733.324.322-12.022 10.169-16.996 13.556-7.666 5.218-23.356 12.206-49.307 21.961-23.533 8.846-33.491 11.739-31.977 9.289.39-.631 5.971-5.368 12.403-10.528 6.432-5.159 13.607-11.253 15.944-13.542 7.007-6.861 4.877-11.118-2.606-5.21-6.528 5.155-18.523 11.893-24.076 13.526-10.804 3.177-21.472 1.394-23.929-3.998-1.597-3.504-1.421-6.42.611-10.142 1.915-3.507 37.785-40.029 53.75-54.728 14.244-13.113 20.921-18.285 25.234-19.547 4.738-1.385 31.833-4.723 39.575-4.874 4.413-.087 5.623.186 5.037 1.136M683 960.606c2.561.897 8.267 1.645 13.241 1.735 4.807.087 8.744.418 8.75.734.013.809-11.236 9.807-18.991 15.191-6.906 4.794-38.151 21.917-38.803 21.264-.426-.425 7.039-11.774 11.792-17.929 4.689-6.072 3.523-7.619-2.361-3.131-4.178 3.187-10.864 6.126-17.128 7.53-2.732.612-5.832 1.875-6.888 2.807s-7.307 7.993-13.89 15.693c-15.431 18.047-15.103 17.708-13.817 14.284 4.125-10.984 15.404-27.234 27.5-39.621 5.552-5.686 12.028-11.478 14.391-12.872 11.016-6.5 26.803-8.979 36.204-5.685m191.418 6.753c4.355 2.282 8.068 4.598 8.251 5.147.182.548-1.795 2.121-4.396 3.495-10.499 5.55-26.839 25.475-24.943 30.417 1.072 2.792 2.818 1.398 7.142-5.699 4.566-7.496 10.619-14.145 14.94-16.411 1.601-.839 6.507-2.154 10.902-2.922 4.396-.767 8.485-1.803 9.089-2.303.652-.54 2.921-.547 5.597-.017 2.475.49 13.5 2.468 24.5 4.394 12.96 2.27 23.52 4.754 30 7.057 7.679 2.729 11.343 3.507 15.785 3.353 8.716-.302 8.833 1.136.479 5.895-3.995 2.276-8.006 4.415-8.913 4.755-.908.339-3.986-.568-6.849-2.019-2.861-1.45-5.431-2.405-5.713-2.124-1.014 1.015 9.444 11.871 20.894 21.688 6.425 5.51 13.077 11.606 14.781 13.547 4.437 5.053 29.036 54.598 29.036 58.481 0 2.2-.992 4.099-3.4 6.507-3.095 3.095-3.924 3.399-9.25 3.39-7.239-.012-14.569-3.198-19.019-8.266-1.735-1.976-5.276-7.56-7.869-12.408-9.177-17.164-11.075-19.862-21.896-31.137-9.606-10.009-10.715-11.516-9.132-12.402 1.518-.849 3.587.771 13.108 10.265 10.412 10.382 11.885 12.342 18.632 24.788 4.029 7.432 8.599 15.124 10.154 17.092 4.146 5.245 10.496 9.232 14.134 8.875 4.48-.44 4.327-3.095-.492-8.558-6.552-7.428-16.882-30.435-19.291-42.969-.494-2.571-.121-3.769 1.831-5.876 2.767-2.985 2.462-4.394-.953-4.394-1.458 0-3.727 1.553-6.091 4.169-3.766 4.169-3.766 4.169-8.065 1.888-4.02-2.133-24.486-23.771-24.34-25.734.034-.453 1.943-2.19 4.244-3.861s4.34-3.86 4.534-4.865c.215-1.118-1.333-3.558-3.994-6.292-7.042-7.237-12.041-8.958-16.647-5.731-1.989 1.393-2.173 2.134-1.601 6.444.591 4.458.414 5.068-2.097 7.228-2.079 1.789-2.801 3.392-2.984 6.628-.194 3.455-1.008 5.067-4.263 8.448-5.142 5.34-8.489 10.808-10.688 17.459-1.996 6.037-5.475 10.604-9.769 12.824-1.631.844-7.09 1.959-12.131 2.479-10.076 1.039-11.943 2.255-13.124 8.552-.327 1.738-1.554 4.382-2.727 5.873-1.931 2.455-2.622 2.672-7.301 2.284-10.984-.911-17.431-8.646-20.129-24.148-1.891-10.868-2.192-11.645-4.508-11.645-1.407 0-2.61 1.388-4.114 4.75-1.702 3.804-2.129 6.741-2.146 14.75-.023 11.442 1.879 19.257 6.546 26.888 2.667 4.36 2.827 5.052 1.48 6.399-2.002 2.002-9.042 3.081-20.585 3.153-9.444.06-9.444.06-14.5-5.19-5.362-5.566-10.478-15.066-12.453-23.122-1.277-5.209-.769-7.508.766-3.469 2.487 6.54 7.178 15.759 9.883 19.422 4.393 5.948 8.254 7.422 19.398 7.405 5.142-.007 10.318-.273 11.502-.591 2.153-.577 2.153-.577-.304-5.943-1.351-2.951-3.406-9.322-4.566-14.159-1.161-4.836-2.481-9.215-2.934-9.73-.49-.558-1.762-.054-3.15 1.25-6.62 6.219-21.499-1.978-26.021-14.334-4.314-11.787-2.915-26.31 3.609-37.479 5.049-8.643 20.528-23.357 34.645-32.932 16.459-11.164 25.082-15.966 27.568-15.353 1.1.272 5.563 2.361 9.918 4.644m327.898-1.197c4.087 2.175 9.933 7.327 13.313 11.732 2.769 3.609 3.371 5.266 3.371 9.282 0 2.688.615 6.36 1.366 8.158.765 1.831 6.759 8.309 13.618 14.718 17.819 16.65 23.759 22.584 30.813 30.786 8.756 10.182 17.609 23.688 16.611 25.341-.439.727-3.94 5.725-7.781 11.108-6.983 9.787-6.983 9.787-9.164 4.5-3.286-7.965-8.479-18.156-14.924-29.287-12.087-20.877-16.412-26.644-29.996-40-13.91-13.678-17.094-18.373-20.09-29.631-1.484-5.575-1.898-13.546-.846-16.287.726-1.891.905-1.912 3.709-.42m-190.873 24.061c2.639 3.767 1.879 6.075-2.74 8.321-5.839 2.84-9.264 9.23-8.32 15.523.855 5.701 3.691 10.386 7.858 12.981 2.552 1.59 4.615 1.968 9.511 1.741 7.058-.326 7.629.416 3.809 4.956-2.531 3.008-10.356 8.852-10.917 8.154-2.595-3.231-14.175-26.313-16.091-32.075-4.233-12.729-3.618-15.19 4.932-19.715 5.302-2.806 9.944-2.762 11.958.114m62.888 5.074c3.49 2.287 61.415 67.399 60.552 68.066-.21.163-2.57 2.276-5.244 4.696-4.861 4.4-4.861 4.4-7 1.808-1.176-1.426-6.864-7.916-12.639-14.423-5.775-6.508-13.599-15.457-17.387-19.888-10.103-11.818-17.713-19.495-21.113-21.301-7.064-3.75-12.743-3.358-40.289 2.783-7.309 1.629-14.172 2.962-15.25 2.962-3.325 0-5.961-3.563-5.961-8.056 0-3.854.227-4.157 4.562-6.074 2.509-1.11 14.096-4.469 25.75-7.466 22.554-5.798 29.011-6.388 34.019-3.107m-88.871 11.192c.966 3.569 3.559 9.981 5.763 14.25 9.497 18.394 10.904 21.487 10.387 22.836-1.023 2.666-2.107 1.432-3.799-4.326-.984-3.348-3.18-7.49-5.257-9.916-2.667-3.115-16.022-14.422-22.447-19.005-1.108-.79 10.88-10.328 12.981-10.328.338 0 1.406 2.92 2.372 6.489m210.776 24.27c17.711 9.355 37.44 21.181 46.089 27.628 9.766 7.278 16.939 18.841 19.215 30.973.576 3.074.23 4.365-2.059 7.668-1.514 2.185-3.029 3.97-3.367 3.968s-2.067-2.814-3.844-6.25c-4.133-7.994-17.92-26.43-18.975-25.374-.233.233 1.224 3.694 3.237 7.691 3.959 7.862 9.395 21.708 11.37 28.963 1.233 4.527 1.233 4.527-5.013 13.739-3.435 5.066-6.4 9.057-6.589 8.868-.189-.188.105-10.126.652-22.083 1.081-23.594.606-27.11-3.988-29.57-3.698-1.979-8.951-1.447-11.567 1.17-2.239 2.242-5.825 16.658-12.401 49.85-1.793 9.052-2.284 9.742-4.498 6.328-1.009-1.555-6.421-9.128-12.027-16.828-9.503-13.054-10.223-14.375-10.647-19.552-.34-4.135-1.278-6.748-3.677-10.235-4.687-6.811-12.611-15.647-17.975-20.041-8.987-7.363-9.172-7.578-9.172-10.697 0-4.44 2.239-4.696 10.673-1.224 4.087 1.682 7.257 2.54 7.047 1.908-.211-.632-3.974-3.852-8.363-7.154-15.644-11.772-14.719-10.602-7.857-9.929 9.04.888 18.31 3.346 25 6.63 4.749 2.33 9.247 6.268 21.571 18.881 8.564 8.766 15.877 15.632 16.25 15.258 1.5-1.499.521-7.169-2.217-12.845-5.235-10.849-19.585-25.435-35.644-36.23-3.322-2.233-6.52-4.67-7.105-5.415-1.513-1.925-3.426-7.932-2.832-8.892.669-1.083 11.978 3.957 28.713 12.796m-128.436-7.348c1.485.776 3.979 2.757 5.543 4.402 2.843 2.991 2.843 2.991-2.5 4.486-7.364 2.061-14.68 3.582-18.838 3.918-3.495.283-3.495.283-3.212-3.717.48-6.79 1.272-9.361 3.023-9.823 3.88-1.025 13.46-.585 15.984.734m-133 5.789c.66.66 1.203 1.898 1.206 2.75.02 5.651 2.564 9.601 13.806 21.434 8.326 8.764 13.066 14.736 16.443 20.715 2.61 4.621 4.745 9.128 4.745 10.016 0 2.321-3.681 6.669-7.177 8.476-3.563 1.843-12.736 2.044-16.005.352-3.445-1.784-5.852-4.108-7.446-7.191-1.913-3.698-.616-3.465 4.983.897 6.509 5.071 12.85 5.732 17.494 1.825 2.414-2.032 3.179-3.419 2.955-5.358-.276-2.375-.706-2.616-4.663-2.616-3.745 0-4.778-.492-7.344-3.5-4.993-5.853-12.812-17.183-15.871-23-1.592-3.025-4.297-7.365-6.013-9.645-2.824-3.754-3.018-4.461-2.05-7.5.587-1.845 1.317-4.592 1.621-6.105.604-2.998 1.466-3.4 3.316-1.55m373.403 20.568c-25.119 44.027-62.203 111.134-62.203 112.562 0 .935 4.248-.859 16.188-6.836 5.947-2.977 10.812-5.053 10.812-4.614s-3.6 5.246-8 10.682c-7.549 9.327-9.612 13.438-6.743 13.438 1.388 0 51.431-6.193 67.243-8.322 17.664-2.378 15.386-1.091-21 11.871-29.538 10.523-42.499 15.948-43.213 18.089-.54 1.62 3.458 2.942 22.213 7.346 31.797 7.465 38.004 6.833-67.5 6.871-106.83.039-101.434 1.031-56.25-10.338 10.588-2.664 19.25-5.151 19.25-5.526s-5.513-.979-12.25-1.341c-6.737-.363-23.5-1.32-37.25-2.126-13.75-.807-30.745-1.773-37.766-2.146-7.022-.373-12.627-.818-12.457-.988s11.54-1.448 25.266-2.838c44.022-4.46 62.756-6.517 63.177-6.939.715-.715-53.333-30.192-61.47-33.525-3.349-1.371-4.62-3.645-1.5-2.684.963.297 4.675 1.414 8.25 2.484s21.35 6.475 39.5 12.012c38.002 11.592 38.929 11.819 41.062 10.049 2.39-1.984 1.175-4.94-7.965-19.378-16.193-25.577-20.597-33.009-20.597-34.756 0-2.307 4.255-5.059 7.176-4.642 2.394.342 8.032 7.314 23.324 28.847 11.439 16.107 13.866 19.279 15.049 19.668 1.153.379 1.35-.419 7.944-32.188 6.112-29.443 8.488-39.37 9.588-40.05 1.177-.727 1.158.221-.586 30.05-1.851 31.645-1.92 45.662-.213 43.347.67-.909 7.879-11.259 16.021-23 8.141-11.741 17.958-25.622 21.815-30.847s9.38-12.875 12.275-17a3558 3558 0 0 1 13.185-18.604 3109 3109 0 0 0 16.858-23.941c4.916-7.06 9.118-12.292 9.34-11.627s-3.636 8.288-8.573 16.94m-700.297-2.276c2.281 3.02 8.972 9.492 14.87 14.382s12.197 10.519 13.998 12.508c1.801 1.99 3.826 3.617 4.5 3.617 3.663-.004 19.874-3.462 32.971-7.033 8.221-2.242 15.656-3.938 16.523-3.771s-4.978 3.388-12.987 7.157c-8.01 3.768-17.2 8.604-20.422 10.746s-6.389 3.897-7.037 3.899-8.17-3.37-16.714-7.492c-14.291-6.895-15.855-7.918-19.514-12.765-4.853-6.427-9.677-16.756-10.504-22.49-.338-2.338-.437-4.25-.222-4.25s2.258 2.471 4.538 5.492m440.594-1.428c11.55 1.074 23.078 2.584 25.619 3.357 11.779 3.582 18.997 9.459 27.825 22.656 6.858 10.254 11.544 21.745 14.241 34.923 2.054 10.039 3.252 12.518 4.83 9.992.824-1.319 1.361-3.585 3.628-15.309.535-2.764.745-2.621 11.42 7.788 10.953 10.682 15.349 13.529 20.886 13.529 4.303 0 4.672 2.849 2.005 15.499-1.643 7.791-2.589 10.471-3.564 10.097-4.588-1.76-33.006-10.596-34.08-10.596-.918 0-1.31-1.614-1.31-5.393 0-6.94-1.762-7.781-6.055-2.891-3.063 3.489-3.379 3.602-9.415 3.383-5.896-.214-6.393-.051-8.887 2.914-1.454 1.727-2.643 4.231-2.643 5.564 0 5.701-8.934.518-10.609-6.154-.334-1.333-.897-2.409-1.249-2.392s-2.16 2.045-4.014 4.507c-3.632 4.821-13.582 12.79-18.561 14.867-1.687.704-5.463 1.853-8.391 2.555-2.928.701-10.461 3.922-16.741 7.157-12.954 6.675-17.003 7.323-22.524 3.602-9.307-6.272-5.309-14.458 14.089-28.847 4.125-3.06 10.85-9.008 14.945-13.218 6.129-6.301 7.995-7.654 10.554-7.654 3.397 0 11.119 4.404 16.185 9.231 3.948 3.761 5.862 3.17 7.324-2.262.928-3.445.841-4.55-.519-6.626-1.303-1.989-1.419-3.106-.573-5.532.583-1.673.814-3.439.513-3.926-.84-1.359-5.177-1.049-13.632.974-7.703 1.843-7.703 1.843-7.5-1.758.169-3.003-.155-3.652-1.953-3.908-2.476-.353-5.113 2.75-10.882 12.807-4.563 7.953-8.292 12.051-15.462 16.991-3.025 2.084-9.775 7.488-15 12.009-10.776 9.325-18.114 13.165-25.539 13.365-10.384.279-13.559-6.166-7.595-15.419 3.27-5.074 8.815-10.598 9.725-9.688.337.336-1.009 3.237-2.99 6.447-5.502 8.915-4.637 12.295 3.149 12.295 5.602 0 8.317-1.468 18.981-10.266 4.823-3.979 10.457-8.495 12.519-10.035 2.063-1.541 3.75-3.137 3.75-3.549s-1.544-1.307-3.431-1.989c-4.002-1.447-9.569-7.366-9.569-10.174 0-1.069 2.418-4.362 5.374-7.317 5.65-5.651 8.116-10.878 7.408-15.705-.365-2.482-.039-2.969 2.332-3.49 1.515-.333 4.472-.128 6.571.454 5.655 1.571 7.137 1.34 10.04-1.563 2.635-2.635 2.635-2.635 6.205 1.515 3.898 4.532 6.191 5.046 13.475 3.024 3.905-1.085 3.905-1.085-3.151-7.745-8.318-7.851-11.254-13.086-11.254-20.063 0-5.847 1.436-7.268 9.824-9.724 2.928-.857 5.164-1.719 4.967-1.915-.948-.949-22.726-3.558-25.791-3.09-2.24.342-4.199.011-5.441-.917-2.709-2.025-8.885-1.853-10.834.301-.872.963-2.047 2.965-2.611 4.448-1.055 2.776-3.961 5.099-7.812 6.247-1.757.523-2.509.053-3.75-2.346-.854-1.651-1.552-3.183-1.552-3.405 0-.807 13.709-9.493 15.539-9.846 2.225-.428 3.625-.328 30.961 2.214M924.937 1064c1.276 4.125 4.771 12.397 7.766 18.383 6.405 12.798 6.407 14.757.012 17.66-6.231 2.828-8.883 2.473-14.463-1.938-7.402-5.851-18.252-16.476-18.252-17.874 0-2.785 3.32-.783 12.057 7.268 9.739 8.976 14.027 11.104 19.46 9.659 4.161-1.106 4.343-4.124.402-6.658-2.07-1.331-5.577-6.306-10.477-14.864-7.366-12.865-7.366-12.865-5.431-16.658 3.619-7.093 5.507-6.031 8.926 5.022m101.898 2.3c1.835 1.76 4.002 4.472 4.815 6.026 1.317 2.515 1.307 3.091-.094 5.229-1.86 2.839-5.782 5.027-10.591 5.909-3.465.636-3.465.636-8.458-8.838-2.746-5.21-4.681-9.785-4.301-10.166 1.351-1.351 7.352-2.334 11.294-1.851 2.7.331 5.084 1.531 7.335 3.691m-238.363 6.67c3.045 3.179 2.917 3.36-3.12 4.398-1.731.298-7.131 2.334-12 4.526-10.064 4.531-15.728 6.046-22.724 6.082-4.182.021-4.699-.185-3.649-1.45 1.55-1.869 16.631-10.97 23.392-14.118 3.263-1.52 6.97-2.392 10.192-2.398 4.315-.009 5.483.428 7.909 2.96m362.452-.875c3.576 2.18 14.076 12.595 14.076 13.962 0 .433-1.537 1.295-3.416 1.915-4.627 1.527-12.212 8.378-14.721 13.297-2.054 4.026-2.054 4.026-5.972-.371-6.879-7.721-10.192-13.017-10.103-16.148.175-6.143 8.615-14.579 14.712-14.702 1.1-.022 3.541.899 5.424 2.047m-256.868 8.419c4.874 3.557 18.712 18.18 19.473 20.577.629 1.982-.952 4.909-2.651 4.909-.483 0-.878-1.093-.878-2.429 0-3.466-2.339-5.349-7.626-6.142-5.771-.866-10.175-4.598-13.302-11.275-3.685-7.867-1.483-10.359 4.984-5.64m-172.556 8.142c-7.86 7.177-16.094 13.023-20.96 14.882-3.744 1.43-6.952 1.63-19.755 1.23-8.407-.262-16.603-1.011-18.214-1.665-2.889-1.173-2.903-1.215-1-3.087 1.52-1.495 4.477-2.129 13.948-2.988 16.787-1.522 28.411-4.11 39.481-8.79 5.225-2.209 9.95-4.046 10.5-4.082.55-.037-1.25 1.988-4 4.5m152.105 3.384c1.524.579 6.255 4.382 10.513 8.451 7.808 7.459 14.086 11.509 17.842 11.509 2.58 0 2.637 1.61.106 2.965-4.746 2.54-7.15 1.367-16.239-7.923-4.82-4.927-10.015-9.598-11.545-10.38s-6.586-2.377-11.235-3.545c-9.063-2.277-10.631-3.153-9.751-5.447.478-1.245 1.832-1.107 9.05.926 4.669 1.315 9.735 2.864 11.259 3.444m-.969 12.461c6.851 4.333 12.508 9.457 11.766 10.657-.85 1.376-12.651.957-18.029-.64-2.745-.815-5.946-2.502-7.114-3.75-2.432-2.597-6.259-11.031-6.259-13.794 0-1.719.523-1.645 6.886.979 3.787 1.562 9.524 4.508 12.75 6.548m300.12-6.751c.271.824-.673 1.25-2.772 1.25-7.292 0-12.984 5.239-12.984 11.95 0 3.288-1.062 3.886-2.921 1.646-2.628-3.167 1.73-11.372 7.751-14.594 3.979-2.13 10.262-2.274 10.926-.252m-213.263 5.5c-8.675 10.501-21.858 23.75-23.632 23.75-7.062 0-14.535-10.073-10.807-14.565 1.115-1.343 1.46-1.119 2.658 1.731 1.957 4.656 4.216 6.834 7.086 6.834 2.537 0 6.102-3.228 16.842-15.25 3.852-4.313 5.811-5.75 7.837-5.75 2.701 0 2.701 0 .016 3.25m-200.296 15c.315 14.835-.636 34.899-1.956 41.251-.765 3.684-.765 3.684-4.212-3.442-4.082-8.437-5.752-8.75-8.296-1.555-1.981 5.6-1.811 11.812.683 24.996.833 4.4 1.531 10.475 1.551 13.5.036 5.5.036 5.5-13.604 5.194s-13.64-.306-12.973-7.484c.976-10.502 4.228-25.515 7.684-35.481 1.665-4.801 4.325-13.123 5.91-18.493 5.178-17.54 9.494-25.181 16.865-29.855 7.937-5.033 8.002-4.945 8.348 11.369M991 1110.607c0 1.414-13.821 20.332-18.44 25.239-6.776 7.199-12.177 10.218-19.46 10.879-8.836.801-12.795-.234-14.655-3.831-1.272-2.46-1.348-3.659-.411-6.497 1.121-3.396 11.306-15.397 13.067-15.397.487 0-1.136 2.953-3.608 6.563-2.471 3.61-4.493 7.2-4.493 7.977 0 3.668 9.426 6.465 15.279 4.533 3.99-1.317 12.502-9.674 22.227-21.823 4.196-5.242 7.313-8.25 8.549-8.25 1.07 0 1.945.273 1.945.607m-134.376 4.293c2.814 2.478 6.61 4.553 10.403 5.689 6.116 1.832 6.413 2.1 5.366 4.829-.775 2.019-3.794 2.005-9.807-.043-6.187-2.109-11.586-7.425-11.586-11.408 0-1.632.268-2.967.597-2.967s2.59 1.755 5.027 3.9m-5.474 10.44c3.075 3.066 12.903 7.66 16.388 7.66 1.644 0 1.71.189.855 2.418-1.498 3.904-14.617-.33-19.684-6.352-2.697-3.205-3.311-5.13-2.042-6.399.931-.931.774-1.025 4.483 2.673m3.002 15.151c2.941 1.369 6.585 2.494 8.098 2.499 2.787.01 3.441 1.372 1.858 3.869-1.984 3.131-16.333-2.493-20.382-7.989-1.273-1.728-1.704-3.365-1.256-4.775.662-2.088.756-2.064 3.507.88 1.554 1.664 5.233 4.146 8.175 5.516m174.778-2.82c-7.668 6.355-14.035 12.73-15.508 15.529-3.605 6.848.216 11.897 7.588 10.025 3.697-.938 24.422-12.496 25.481-14.211.258-.417-1.548-1.528-4.013-2.469-5.272-2.014-7.478-4.747-7.478-9.268 0-1.802-.369-3.277-.82-3.277s-2.814 1.652-5.25 3.671M851 1151.43c3.025 1.403 6.513 2.555 7.75 2.56 1.58.007 2.25.605 2.25 2.01 0 4.665-15.264.78-20.872-5.312-1.81-1.966-2.212-3.217-1.695-5.276.677-2.698.677-2.698 3.872.384 1.757 1.696 5.67 4.231 8.695 5.634m245.985-.476c1.367 1.05 2.267 2.113 2 2.362-.937.876-24.134 9.764-26.954 10.328-3.039.608-10.031-1.234-10.031-2.642 0-.464 2.937-1.157 6.527-1.542 6.299-.674 17.174-5.04 21.973-8.821 2.588-2.039 3.478-1.995 6.485.315m-257.325 7.052c2.102 1.846 6.301 3.853 10.882 5.2 4.102 1.207 7.444 2.667 7.426 3.244s-.669 1.892-1.449 2.921c-1.187 1.568-2.194 1.76-6.218 1.182-5.53-.795-12.272-3.759-14.733-6.478-1.265-1.398-1.525-2.789-1.021-5.475.372-1.98.904-3.6 1.182-3.6.279 0 2.048 1.353 3.931 3.006m4.837 17.709c2.198.795 4.053 1.522 4.122 1.615.069.094-.63 4.895-1.554 10.67-1.679 10.5-1.679 10.5-6.372 10.541-4.693.04-4.693.04-4.684-7.5.004-4.148.295-9.927.645-12.842.524-4.359.922-5.179 2.241-4.616.883.378 3.404 1.337 5.602 2.132m-294.858 86.902c-.84 6.126-.83 165.385.011 177.229l.649 9.154h35.711l-.255-95.25-.255-95.25-17.611-.273c-17.611-.272-17.611-.272-18.25 4.39m127.597 3.646-8.22 8.263-.066 78.034-.065 78.034 8.918 9.203 8.919 9.203h57.176l8.526-8.75 8.527-8.75.024-28.25L761 1375h-36v36.683l-10 .197-10 .197.005-58.789.005-58.788 5.745-.227c3.16-.124 7.658.016 9.995.312 4.25.538 4.25.538 4.259 13.726.004 7.254.292 15.551.639 18.439.631 5.25.631 5.25 10.84 5.25 5.616 0 13.681-.293 17.923-.652l7.713-.652-.165-27.598-.165-27.598-8.626-8.75-8.626-8.75h-59.086zm103.934.066-8.17 8.213V1449h30.953l.273-17.25.274-17.25 12.25-.281 12.25-.281.014 15.281c.007 8.405.285 16.294.616 17.531.591 2.205.899 2.25 15.45 2.25h14.847l.286-87.25.287-87.25-8-8.275-8-8.275-27.58.083-27.579.083zM872 1353.5v95.5h17.969c13.939 0 17.871-.28 17.535-1.25-.239-.687-.112-12.198.281-25.579l.715-24.33 6.899 20.33c3.795 11.181 7.764 22.691 8.822 25.579 1.923 5.25 1.923 5.25 19.356 5.25h17.433l-.255-95.25-.255-95.25-16.926-.275c-12.871-.209-17.119.03-17.734 1-.445.701-.816 18.113-.825 38.692-.008 20.579-.2 37.229-.425 37-.226-.229-2.949-11.892-6.053-25.917s-7.006-31.237-8.673-38.25l-3.03-12.75H872zm102.238-58.25c.262 37.25.262 37.25 5.762 37.521s5.5.271 15.25-15.131 9.75-15.402 9.75-37.521V1258h-31.024zm44.381-34.958c-.781 2.914-.792 31.095-.012 33.126.512 1.334 2.71 1.582 14 1.582H1046v154h36v-154h28v-17.872c0-17.872 0-17.872-4.05-18.52-2.228-.356-22.655-.62-45.395-.586-41.344.061-41.344.061-41.936 2.27M1192 1353.533V1449h36v-77h22v-37h-22v-40h41.045l-.272-18.25-.273-18.25-38.25-.217-38.25-.217zm89.689-94.889c-.379.379-.689 43.364-.689 95.523V1449h36.01l-.255-95.25-.255-95.25-17.061-.273c-9.383-.15-17.37.038-17.75.417m55.463 13.606c5.693 16.091 23.97 68.377 26.825 76.738 1.03 3.018 1.521 5.943 1.09 6.5-.796 1.027-4.719 11.737-21.068 57.512-5.01 14.025-9.977 27.862-11.04 30.75-1.931 5.25-1.931 5.25 16.406 5.25h18.337l7.899-22.494c4.345-12.372 8.124-22.496 8.399-22.497s3.144 7.758 6.375 17.244c10.669 31.321 7.15 27.747 27.313 27.747 16.24 0 17.507-.13 17.028-1.75-.93-3.15-18.443-54.294-25.507-74.489l-6.904-19.74 11.897-33.26c6.544-18.294 13.855-38.886 16.247-45.761s4.668-13.287 5.057-14.25c.659-1.628-.551-1.75-17.399-1.75-9.959 0-18.107.132-18.107.294 0 .261-14.145 39.918-15.589 43.706-.517 1.355-2.924-4.872-13.432-34.75l-3.253-9.25h-35.616zM829 1336v46h-25v-92h25zm-297.755 145.267-14.256 14.233.006 67.848.005 67.847 17.25 17.861 17.25 17.862 31.25.041L614 1667v63h-35v-41h-63.096l.573 36.75.572 36.75 14.904 15.25 14.903 15.25h100.905l8.37-8.744a1884 1884 0 0 1 14.619-15.097l6.25-6.353V1636.83l-17.75-18.394-17.75-18.395-31.25-.02L579 1600v-71h35l.005 10.75c.003 5.912.296 15.144.652 20.514l.647 9.764 30.555-.264 30.555-.264.043-37 .043-37-13.903-14.25-13.903-14.25-51.597.017-51.597.017zM694 1497.5v30.5h48v265h61.993l.253-132.25.254-132.25h47.495l.002-30.75L852 1467H694zm181.042 117.25.042 147.75 14.851 15.25 14.851 15.25 49.857.004 49.857.005 14.641-14.997 14.641-14.996.449-141.258c.246-77.692.243-144.295-.008-148.008l-.456-6.75H972l-.001 131.75-.001 131.75-17.499.342-17.499.342V1467h-62zM1053 1630v163h62v-113h60.476l14.762-14.737 14.762-14.738V1496.77l-14.68-14.885-14.679-14.885H1053zm174 0v163h30.907c30.908 0 30.908 0 31.353-5.75.245-3.162.519-76.513.61-163l.165-157.25H1227zm82 0v163l65.25-.146 65.25-.145 14.142-14.605 14.143-14.604.598-133.497.598-133.498-14.728-14.752-14.728-14.753H1309zm-166.183-79.5c.175 12.1.012 32.013-.361 44.25l-.679 22.25H1115v-43.927c0-40.982.117-43.959 1.75-44.415.963-.269 7.15-.414 13.75-.323l12 .165zm257.829-16.485 6.146 5.977.145 89.49.145 89.491-6.291 5.979c-6.291 5.978-6.291 5.978-17.434 6.013-9.148.029-11.249-.242-11.736-1.51-.786-2.047-.745-187.163.043-195.205.612-6.25.612-6.25 11.724-6.231s11.112.019 17.258 5.996"/></svg>