<svg xmlns="http://www.w3.org/2000/svg" viewBox="0 0 2048 2048"><path fill-rule="evenodd" d="M1400 96.513c-5.573 1.086-8.733 1.208-12.299.475-6.879-1.416-21.096-1.188-28.887.464-8.113 1.719-16.932 5.198-24.574 9.693-7.117 4.187-21.297 18.087-24.144 23.668-1.175 2.303-2.48 4.187-2.901 4.187s-1.621-1.463-2.668-3.25c-4.987-8.508-19.846-21.234-29.934-25.636-12.892-5.625-31.193-7.112-44.093-3.583-3.3.903-8.075 1.584-10.612 1.513-17.669-.491-35.808 9.922-43.106 24.747-2.848 5.785-3.258 7.604-3.203 14.208.054 6.403.514 8.401 2.979 12.93 4.709 8.653 13.729 12.966 20.942 10.013 3-1.228 3-1.228-.486-2.007-4.328-.967-8.693-5.706-9.572-10.391-1.44-7.675 1.87-14.71 9.413-20.007 4.022-2.824 4.94-3.037 13.114-3.037 8.519 0 8.956.115 14.161 3.725 8.223 5.703 12.145 12.698 13.462 24.008 1.955 16.791-8.706 35.286-24.947 43.277-11.034 5.429-17.891 6.45-43.645 6.494-18.667.033-24.033.378-31.5 2.027-13.374 2.954-22.507 7.675-29.999 15.506-7.956 8.316-11.608 15.686-16.088 32.463-5.242 19.635-9.82 28.583-19.532 38.178-6.329 6.252-9.671 8.636-17.122 12.211-15.391 7.384-19.651 8.016-54.759 8.125-19.754.062-32.79.533-37 1.337-21.243 4.06-39.07 14.058-51.084 28.649-8.714 10.583-16.56 28.585-18.39 42.196-.691 5.138-.793 5.265-9.167 11.349-4.658 3.384-10.312 8.471-12.565 11.304-5.006 6.295-9.791 16.208-10.548 21.852-.341 2.541-1.843 5.874-3.807 8.447-5.363 7.026-6.939 13.142-6.939 26.927 0 12.076 0 12.076 4.262 20.678 4.829 9.744 12.324 17.439 21.515 22.09 5.323 2.693 5.323 2.693 6.459 9.323 1.551 9.06 6.534 18.772 12.741 24.834 5.619 5.489 14.754 10.453 20.704 11.251 2.1.282 3.819.742 3.819 1.023s-2.025 2.881-4.5 5.778c-6.797 7.956-6.117 11.743 3.201 17.831 4.867 3.18 6.601 6.715 4.384 8.932-1.604 1.604-1.318 4.77.623 6.915 1.131 1.25 1.614 3.195 1.429 5.759-.234 3.236.15 4.153 2.343 5.59 3.778 2.475 5.52 6.533 5.52 12.856 0 4.679.443 6.029 2.868 8.743 2.555 2.86 3.57 3.255 9.298 3.62 4.13.263 10.201-.354 16.971-1.725 5.798-1.173 11.215-1.875 12.038-1.559 2.823 1.083 5.057 7.733 5.58 16.609.453 7.688.238 9.211-1.978 14.052-4.757 10.391-14.847 14.298-45.913 17.775-22.454 2.514-30.253 4.315-37.521 8.667-11.012 6.593-18.357 15.343-35.011 41.709-3.048 4.826-3.048 4.826-7.501-1.5-5.215-7.41-20.882-33.402-30.031-49.826-13.591-24.397-24.053-48.001-32.576-73.5-19.806-59.249-22.474-116.56-8.157-175.203 23.219-95.104 90.045-166.351 151.91-161.959 18.457 1.31 33.486 9.267 40.917 21.662 2.099 3.5 2.099 3.5 2.102-1.721.011-15.602-16.516-31.37-37.496-35.775-9.149-1.92-26.964-1.901-38.108.043-55.591 9.694-110.237 60.48-137.719 127.99-38.302 94.089-25.3 198.748 38.381 308.963 9.947 17.216 25.514 41.69 35.281 55.468 3.692 5.207 6.476 10.081 6.188 10.832-2.174 5.665-26.981 37.319-42.745 54.544-6.285 6.867-7.779 9.042-6.686 9.734.775.49 1.914.898 2.532.907.619.008 3.631 1.872 6.694 4.141 9.888 7.326 17.514 20.742 21.195 37.287 2.088 9.385 1.472 10.955-.918 2.339-.954-3.439-4.042-10.669-6.863-16.068-3.964-7.587-6.643-11.245-11.796-16.105-3.666-3.459-8.077-6.781-9.801-7.382-3.593-1.253-3.884-.547-1.598 3.875 4.791 9.265 8.106 39.233 5.633 50.928-.943 4.464-.952 4.442-1.06-2.699-.15-9.846-2.776-29.392-5.028-37.424-4.039-14.412-6.19-17.673-18.897-28.664-16.782-14.515-32.033-28.056-44.858-39.827-12.233-11.228-17.057-14.441-18.405-12.259-.447.723-.982 1.103-1.188.844s-4.633-5.421-9.837-11.471c-12.001-13.951-14.748-17.985-20.523-30.133-5.841-12.288-12.317-18.971-27.885-28.776-6.033-3.799-15.722-10.379-21.53-14.621-12.501-9.129-15.838-10.97-19.89-10.97-4.043 0-4.933 3.396-2.567 9.793 1.302 3.522 4.122 7.016 11.199 13.875 7.356 7.129 9.386 9.678 9.129 11.459-.438 3.037-3.039 3.655-15.83 3.76-15.008.123-14.599.341-15.393-8.218-1.21-13.025-4.298-19.669-9.144-19.669-3.015 0-4.459 2.638-4.478 8.184-.027 7.44-1.466 7.33-3.435-.261-2.497-9.628-7.605-19.95-11.49-23.219-6.13-5.158-8.559-2.58-6.988 7.416.552 3.509 1.275 7.28 1.605 8.38.332 1.102-1.54-.376-4.168-3.292-2.623-2.91-6.038-5.947-7.589-6.75-3.738-1.933-7.556-1.85-8.335.181-1.077 2.807 16.456 38.197 24.048 48.541 1.889 2.574 7.357 7.555 12.151 11.069 4.794 3.513 12.316 9.46 16.716 13.216s9.567 7.487 11.481 8.292c1.915.804 10.872 2.297 19.904 3.316 31.198 3.519 32.3 4.111 46.427 24.927 16.347 24.087 15.178 19.725 10.586 39.5-3.302 14.22-7.527 35.728-12.869 65.5-1.814 10.111-5.91 44.331-7.101 59.32-1.723 21.696-.759 52.897 1.953 63.18 1.634 6.192 2.826 8.651 5.278 10.882 3.167 2.881 3.167 2.881 12.995 2.205 18.101-1.247 32.68-4.511 58.404-13.076 26.567-8.846 54.378-22.51 68.563-33.687 15.98-12.591 29.39-31.247 61.332-85.324 23.764-40.231 28.77-48.52 29.621-49.046.442-.273-1.67-6.45-4.694-13.725-4.577-11.012-9.505-25.634-9.338-27.709.023-.286 2.357 4.205 5.188 9.98 5.146 10.5 5.146 10.5 5.884-2.5.406-7.15 1.459-16.375 2.34-20.5 1.793-8.397 6.493-24.397 7.006-23.853.184.194-.735 5.753-2.04 12.353-4.668 23.598-5.249 41.118-1.865 56.197.766 3.408 4.273 13.533 7.796 22.5 18.409 46.865 24.656 75.838 20.112 93.285-1.932 7.418-3.923 10.696-13.657 22.487-10.045 12.168-19.963 26.052-29.936 41.907-8.138 12.938-28.61 52.652-32.947 63.916-2.421 6.286-2.426 6.291-5.923 5.762-52.23-7.899-74.578-12.065-108-20.132-113.291-27.344-204.916-71.832-262.408-127.411-35.98-34.783-58.275-71.859-66.754-111.011-1.922-8.874-2.278-13.52-2.297-30-.025-20.777.951-27.848 6.104-44.234 10.011-31.837 35.008-62.1 61.855-74.887 8.002-3.812 23.833-8.865 27.862-8.894 4.978-.036 4.587-1.713-.542-2.329-29.251-3.513-58.542 8.76-84.735 35.503-21.215 21.662-35.739 49.157-42.091 79.683-7.97 38.302-3.02 81.29 13.619 118.273 15.23 33.85 41.759 65.365 77.887 92.524 49.215 36.998 122.944 67.364 206 84.844 38.777 8.162 60.701 12.098 154 27.653 7.15 1.192 13.159 2.296 13.354 2.453s-1.698 6.501-4.206 14.098c-7.92 23.989-10.705 34.413-18.186 68.063-.422 1.899-1.159 2.25-4.731 2.253-8.163.005-50.714 5.338-68.731 8.614-55.898 10.163-100.551 24.622-141.5 45.821-34.874 18.053-59.587 35.678-83.518 59.562-47.417 47.325-71.148 104.357-68.654 165 2.306 56.103 24.874 106.874 61.696 138.8 32.297 28.002 71.621 42.978 120.297 45.813 11.344.661 11.8.773 11.313 2.788-1.214 5.022-5.714 36.593-7.568 53.099-3.179 28.299-4.034 45.494-4.051 81.511-.015 33.51-.015 33.51 4.404 40.098 6.258 9.327 19.406 22.879 29.481 30.385 22.265 16.586 46.192 24.511 73.981 24.502 28.614-.009 48.239-5.919 95.619-28.796 38.954-18.808 52.936-23.138 70.767-21.915 16.005 1.097 25.087 5.879 44.249 23.294 39.713 36.093 69.127 57.872 96.484 71.438 29.643 14.7 54.237 22.73 84.5 27.591 13.553 2.177 47.334 2.44 61.5.48 22.957-3.178 46.821-10.605 69.5-21.629 29.619-14.398 51.871-30.389 87.011-62.529 16.012-14.644 16.012-14.644 20.5-13.296 26.727 8.026 64.204 9.593 92.489 3.866 28.592-5.789 51.167-17.372 69.872-35.85 21.735-21.472 34.329-48.447 38.575-82.624 1.311-10.55 1.322-37.394.02-50.026-2.489-24.149-2.475-25.211.414-31.521 3.639-7.948 10.121-15.553 33.653-39.479 25.016-25.435 35.248-38.71 45.447-58.963 12.357-24.536 18.456-53.394 16.512-78.127-.637-8.104-1.19-10.581-2.592-11.606-.981-.717-2.26-1.31-2.842-1.318-2.648-.036-60.854-9.124-61.428-9.591-.204-.165 1.424-3.141 3.616-6.612 12.902-20.429 18.253-39.246 18.253-64.187 0-32.118-9.884-59.29-31.862-87.596-8.965-11.546-12.666-15.489-26.661-28.404-49.519-45.698-130.653-82.798-241.898-110.612-18.18-4.546-22.523-5.941-21-6.745 1.057-.557 7.996-3.49 15.421-6.516 47.065-19.183 90.034-44.362 120-70.316 19.493-16.884 35.837-35.302 45.864-51.685 15.487-25.302 22.024-47.598 20.847-71.1-1.013-20.226-7.066-35.055-19.242-47.144-11.926-11.841-25.393-17.433-42.059-17.463-14.741-.027-29.516 5.331-40.321 14.623-4.407 3.79-13.089 14.748-13.089 16.52 0 .516 2.038-.464 4.528-2.178 16.143-11.106 39.541-14.159 53.992-7.045 24.297 11.962 24.581 43.27.726 80.065-35.972 55.486-119.267 103.997-223.746 130.31-9.9 2.493-20.7 5.049-24 5.68s-6.728 1.353-7.618 1.605c-1.221.344-2.182-1.085-3.911-5.819-26.47-72.473-42.737-104.454-75.164-147.769-17.639-23.561-18.305-25.147-18.268-43.507.023-11.006.496-15.861 2.215-22.704 2.66-10.588 10.974-33.623 18.625-51.603 6.82-16.026 10.364-27.798 11.8-39.193 1.271-10.092.439-31.766-1.575-41-2.629-12.057-2.643-12.515-.194-6.411 4.157 10.363 5.86 20.653 5.943 35.911.042 7.7-.249 15.35-.647 17-.722 3-.722 3 2.195-.353 1.604-1.845 4.296-5.895 5.981-9 1.686-3.106 3.077-4.851 3.091-3.877.045 2.962-4.699 13.623-9.466 21.27-2.479 3.978-4.507 7.455-4.507 7.728s6.341 11.686 14.092 25.364c45.917 81.033 61.163 103.138 79.908 115.857 15.353 10.418 67.07 31.693 93.509 38.468 20.713 5.307 37.763 6.61 40.915 3.127 9.625-10.635 10.076-70.177 1.031-136.084-3.321-24.195-5.668-38.125-10.571-62.722-4.693-23.539-6.11-18.173 11.535-43.685 6.824-9.867 12.262-16.675 14.5-18.152 4.946-3.264 13.966-5.085 31.633-6.385 17.133-1.261 20.929-2.086 24.448-5.315 9.43-8.651 18.844-16.233 26.394-21.257 10.276-6.837 12.177-9.102 17.672-21.051 2.26-4.913 6.544-14.116 9.521-20.452 2.977-6.335 5.413-12.762 5.413-14.281 0-5.84-6.475-4.643-13.339 2.467-4.839 5.011-4.839 5.011-4.146-1.462.874-8.164.132-10.705-3.128-10.705-3.18 0-6.932 3.773-9.341 9.393-1.491 3.479-6.046 21.627-6.046 24.09 0 .284-.338.518-.75.519s-.606-3.76-.431-8.359c.257-6.717-.003-8.684-1.321-10.002-2.297-2.297-3.286-2.079-6.583 1.45-3.078 3.295-4.431 7.242-6.296 18.37-1.404 8.372-1.249 8.296-17.304 8.439-12.633.113-16.315-.791-16.315-4.007 0-2.34 5.989-8.472 13.112-13.425 2.398-1.668 5.372-4.818 6.608-7 3.757-6.635 2.604-14.468-2.13-14.468-1.288 0-8.576 4.171-16.215 9.28-7.631 5.105-19.123 12.535-25.536 16.513-14.837 9.202-20.2 14.969-27.539 29.615-6.766 13.502-9.143 17.017-20.645 30.528-4.947 5.81-9.132 10.741-9.301 10.957-.168.215-.959-.15-1.758-.813-1.965-1.631-5.852.451-11.096 5.946-2.2 2.305-7.03 6.631-10.734 9.612-3.703 2.982-13.603 11.777-22 19.546-14.408 13.332-27.106 23.816-28.845 23.816-1.298 0-8.846 14.437-11.46 21.918-4.169 11.934-5.765 23.855-5.768 43.082-.001 13.931-.212 16.684-1.032 13.5-.566-2.2-1.059-12.775-1.095-23.5-.059-17.504.17-20.319 2.241-27.5 1.269-4.4 3.632-10.661 5.252-13.914s2.696-6.165 2.39-6.47c-1.009-1.009-9.7 4.261-14.969 9.076-6.643 6.072-14.931 18.075-19.147 27.731-3.946 9.038-4.257 8.068-.838-2.621 6.542-20.459 21.293-37.333 34.832-39.844 3.827-.709 3.827-.709 0-2.448-5.205-2.363-23.138-21.034-33.13-34.492-7.8-10.505-19.481-29.443-31.52-51.105-12.236-22.014-22.776-35.242-33.209-41.676-7.088-4.372-17.835-7.554-36.134-10.699-20.511-3.525-28.446-5.887-34.494-10.269-5.251-3.804-7.046-5.832-10.859-12.269-3.786-6.39-3.748-7.323.162-4.034 3.714 3.126 10.768 6.813 16.357 8.552 2.368.736 13.995 1.554 28.5 2.005 28.249.878 34.728 1.912 56.5 9.013 21.201 6.915 26.278 7.932 39.662 7.949 23.571.03 40.915-5.981 57.799-20.032 14.86-12.367 26.063-33.188 29.125-54.129 1.313-8.981.761-24.39-1.165-32.497-1.194-5.027-1.142-5.308 1.851-10 1.694-2.655 4.43-8.243 6.081-12.419 5.242-13.263 6.341-20.956 7.129-49.908.692-25.444.833-26.833 3.536-34.852 6.484-19.24 19.418-32.031 37.024-36.617 16.929-4.409 32.883 1.918 40.262 15.969 2.142 4.078 2.633 6.383 2.661 12.5.043 9.302-2.768 15.758-8.748 20.09-3.452 2.501-4.928 2.91-10.499 2.91-6.137 0-6.661-.19-9.85-3.571-3.766-3.994-4.242-2.951-1.455 3.187 6.435 14.17 28.752 15.168 42.383 1.895 8.482-8.259 12.718-18.859 12.68-31.729-.03-10.087-1.158-15.283-5.122-23.587-3.445-7.219-12.87-17.122-18.969-19.93-2.109-.971-3.837-1.99-3.841-2.265s3.316-1.552 7.378-2.837c12.271-3.883 22.95-10.535 33.163-20.658 7.733-7.664 9.776-10.419 13.722-18.505 5.714-11.708 7.844-21.685 7.793-36.5-.06-16.94-3.793-29.314-13.579-45-2.402-3.85-5.751-8.322-7.444-9.937s-3.077-3.899-3.077-5.074c0-6.075-3.65-22.214-7.122-31.487-2.161-5.774-7.243-16.349-11.292-23.5-15.255-26.941-18.152-34.947-17.343-47.923.686-10.994 3.999-17.964 12.681-26.682 7.218-7.247 12.05-10.134 20.756-12.402 12.154-3.166 22.701-1.136 28.721 5.527 6.701 7.418 6.789 16.527.227 23.687-2.698 2.944-4.111 3.631-8.294 4.033-2.859.275-5.972-.013-7.188-.664-2.876-1.539-2.732.073.334 3.716 3.493 4.151 7.467 5.523 14.523 5.012 11.069-.8 19.726-9.661 22.007-22.525 3.621-20.421-10.642-41.371-32.913-48.344-8.762-2.743-25.872-3.418-36.097-1.424m-17.083 3.898c-.229.226-3.426 1.978-7.104 3.893-14.652 7.63-25.437 18.186-31.87 31.196-7.637 15.445-7.984 27.5-1.517 52.731 2.435 9.498 4.969 21.035 5.633 25.638 4.438 30.799-12.044 62.338-39.559 75.697-14.177 6.883-22.092 8.311-48.5 8.752-24.795.414-29.038 1.139-41.5 7.086-8.215 3.92-19.826 13.738-25.785 21.8-2.318 3.138-7.08 10.563-10.581 16.5-18.346 31.112-30.578 44.574-49.412 54.377-16.702 8.695-31.673 12.374-66.722 16.4-31.474 3.616-46.853 8.307-63.839 19.473-14.624 9.614-26.928 21.908-39.978 39.946-3.933 5.437-4.087 3.57-.552-6.732 7.175-20.914 21.883-42.615 36.532-53.904 2.936-2.261 9.162-6.164 13.837-8.671 9.414-5.05 9.454-5.628.169-2.493-18.258 6.166-37.407 25.433-48.702 49.002-1.95 4.069-3.336 6.498-3.081 5.398.256-1.1.76-3.575 1.12-5.5 2.282-12.182 11.644-30.45 20.885-40.75 9.302-10.37 16.224-15.879 26.109-20.778 11.118-5.51 16.441-6.899 38.176-9.96 25.701-3.619 37.404-7.156 48.512-14.66 7.886-5.327 8.005-6.255.276-2.151-14.405 7.649-26.196 10.665-51.964 13.291-22.765 2.319-33.487 5.743-47.642 15.211-23.389 15.644-39.006 43.264-41.443 73.29-.744 9.173-1.487 9.752-3.218 2.507-1.974-8.261-2.475-21.168-1.203-31.001 4.003-30.948 16.951-51.803 41.006-66.048 12.928-7.655 25.864-10.762 53.696-12.898 23.74-1.821 39.727-6.643 52.995-15.984 13.234-9.317 18.659-16.644 30.727-41.51 6.994-14.409 8.427-16.628 14.91-23.092 12.137-12.102 21.84-15.515 49.672-17.469 24.128-1.694 37.428-5.212 51.908-13.729 24.334-14.314 42.372-44.916 41.956-71.179-.075-4.724-.302-7.465-.503-6.09l-1.449 9.823c-4.1 27.767-23.366 54.408-48.412 66.944-12.418 6.216-23.005 8.533-46.519 10.18-26.193 1.834-38.795 6.761-51.304 20.058-4.658 4.952-8.471 10.205-10.607 14.613-13.056 26.942-15.521 30.804-25.77 40.375-13.489 12.598-29.82 18.922-54.3 21.028-31.845 2.74-47.957 6.487-60.546 14.08-24.973 15.061-39.313 38.522-42.461 69.467-1.198 11.776.011 27.804 2.557 33.897 1.935 4.632 1.831 5.189-.565 3.021-3.096-2.801-12.566-23.008-15.454-32.975-8.167-28.183-1.079-56.13 18.777-74.039 8.157-7.358 23.193-14.797 35.196-17.416 4.948-1.079 17.634-2.867 28.191-3.974 37.294-3.908 52.245-9.728 69.305-26.977 11.063-11.186 15.97-19.183 22.979-37.45 6.509-16.964 11.555-26.13 18.01-32.712 14.591-14.878 30.41-18.665 67.172-16.079 24.785 1.744 38.357-.788 51.962-9.696 11.982-7.844 19.751-17.931 24.526-31.84 2.196-6.4 2.768-10.141 3.135-20.508.678-19.187-2.53-30.947-11.788-43.21-4.881-6.464-8.314-9.222-18.062-14.512-7.222-3.918-7.222-3.918-1.435-4.641 28.439-3.553 56.195 14.382 67.459 43.591 11.689 30.31 5.739 65.261-14.844 87.185-15.816 16.849-31.408 23.697-64.2 28.2-25.697 3.529-39.044 9.377-51.083 22.384-6.712 7.253-10.671 14.672-16.312 30.574-5.242 14.777-7.286 19.031-13.027 27.109-9.003 12.669-22.306 23.206-39.891 31.597-5.556 2.651-9.821 4.838-9.479 4.861 2.061.138 17.48-5.69 23.926-9.044 19.428-10.107 33.013-26.419 41.988-50.414 6.865-18.354 9.649-23.198 18.453-32.108 9.049-9.159 15.816-12.944 29.011-16.229 12.636-3.146 20.45-3.496 37.019-1.657 15.966 1.771 24.864 1.46 33.765-1.182 21.333-6.334 38.199-25.411 41.781-47.262 1.197-7.304.495-7.501-1.558-.438-3.546 12.199-12.634 26.268-21.489 33.268-11.808 9.333-27.048 13.816-42.764 12.578-9.388-.739-11.33-1.914-4.673-2.826 5.829-.799 21.925-7.52 27.972-11.68 12.61-8.676 25.109-23.601 30.088-35.927 9.007-22.299 8.948-49.951-.156-73.14-1.808-4.604-1.808-4.604 2.07-11 9.986-16.473 28.19-28.705 48.064-32.294 7.248-1.309 22.269-2.15 21.298-1.192m54.228 2.775c17.254 6.465 27.889 20.878 27.833 37.721-.047 14.095-8.704 24.159-20.688 24.049-4.79-.044-4.79-.044-1.049-1.379 2.057-.734 4.907-2.099 6.331-3.032 2.839-1.86 7.403-10.691 7.418-14.352.024-5.533-2.393-11.425-6.609-16.115-6.869-7.639-15.602-10.129-28.503-8.127-20.07 3.114-36.727 18.068-41.409 37.177-2.529 10.319-1.617 32.918 2.054 50.872 3.461 16.929 3.914 35.739 1.109 46-6.455 23.607-23.926 41.935-45.276 47.496-7.523 1.959-8.08 2.784-1.338 1.982 12.417-1.477 23.864-7.143 33.044-16.358 7.204-7.232 10.771-12.716 14.95-22.986 5.928-14.566 6.424-32.253 1.588-56.634-3.79-19.112-3.871-19.869-1.557-14.692 1.058 2.37 5.607 10.695 10.109 18.5 9.822 17.034 12.98 23.806 16.508 35.408 2.394 7.872 2.68 10.445 2.756 24.784.114 21.645-2.632 31.709-13.043 47.803-11.076 17.122-26.627 27.432-47.188 31.284-11.129 2.086-18.068 1.346-40.685-4.334-21.857-5.49-34.316-6.485-47.579-3.797-16.881 3.42-29.511 10.005-43.217 22.531-6.279 5.739-6.379 5.286-1.141-5.175 7.491-14.96 19.971-24.612 35.937-27.795 4-.798 4-.798-1.282-.907-9.835-.204-24.817 6.871-31.587 14.917-5.23 6.215-10.532 16.705-14.612 28.906-4.895 14.641-5.396 15.679-13.547 28.079-10.12 15.396-26.666 29.762-42.187 36.625-17.665 7.813-36.199 10-68.785 8.117-46.945-2.713-59.709.014-91.913 19.638-11.59 7.062-22.031 10.945-28.034 10.424-3.652-.316-3.652-.316 5.381-10.642 15.521-17.744 27.308-27.314 43.789-35.555 20.181-10.091 36.98-12.46 61.907-8.732 32.268 4.826 53.202 1.228 70.87-12.181 7.242-5.496 16.72-16.891 18.451-22.181.99-3.025.99-3.025-1.657.475-1.456 1.925-6.14 6.923-10.409 11.106-16.193 15.87-35.669 22.204-60.83 19.783-12.632-1.216-17.867-2.794-9.555-2.88 10.46-.109 35.882-7.216 48.5-13.559 14.619-7.348 29.548-20.205 38.948-33.543 2.871-4.074 8.992-13.771 13.602-21.548 17.096-28.845 27.938-38.658 49.133-44.473 6.616-1.815 9.553-2.061 19.31-1.615 14.092.644 19.917 2.368 41.507 12.284 8.8 4.042 18.7 8.055 22 8.917 14.428 3.77 33.157 2.587 44.577-2.815 8.391-3.97 18.02-12.524 23.763-21.11 6.399-9.567 9.205-18.632 9.737-31.456.398-9.591.398-9.591-1.468-.091-3.329 16.949-8.765 27.525-19.366 37.672-11.835 11.33-20.807 14.749-38.743 14.765-13.262.012-14.56-.34-38.5-10.418-8.8-3.704-16.9-7.11-18-7.567-1.749-.728-1.624-.871 1-1.138 35.555-3.618 62.42-25.359 71.696-58.023 1.808-6.365 2.203-10.261 2.16-21.291-.05-12.913-.276-14.37-5.203-33.5-4.191-16.277-5.15-21.556-5.151-28.356-.004-16.047 5.042-28.218 16.468-39.723 15.529-15.638 34.129-22.64 58.53-22.035 10.374.257 13.63.733 19.145 2.8m-210.912 6.334c7.312.923 18.43 6.983 24.916 13.579 7.615 7.745 13.128 18.828 14.84 29.832 5.218 33.539-11.932 62.479-42.489 71.7-5.079 1.533-8.609 1.744-23 1.377-9.35-.239-23.975-.414-32.5-.39-13.985.039-16.282.301-23.5 2.678-19.256 6.341-29.887 17.621-39.542 41.96-7.458 18.799-12.996 29.129-20.221 37.722-7.785 9.257-13.67 13.823-25.237 19.58-11.826 5.887-24.754 9.019-47.425 11.49-32.297 3.521-48.276 8.757-62.371 20.44-24.955 20.682-32.325 54.358-19.395 88.618 2.676 7.091 9.306 19.354 13.324 24.644 1.358 1.787 2.201 3.25 1.873 3.25s-4.063-2.333-8.301-5.186c-26.505-17.838-39.712-43.772-37.847-74.314 2.026-33.16 21.103-58.613 51.744-69.035 12.87-4.377 25.706-5.633 50.344-4.927 19.252.552 23.451.386 33.054-1.309 25.636-4.523 45.127-18.247 55.005-38.729 1.856-3.85 4.973-13.075 6.925-20.5s4.983-16.425 6.735-20c4.181-8.533 13.307-17.658 21.835-21.832 10.893-5.331 17.661-6.343 45.5-6.799 20.964-.344 26.178-.731 32.299-2.4 10.88-2.966 18.84-7.412 25.678-14.342 18.271-18.517 19.361-47.798 2.35-63.093-6.128-5.509-10.695-7.621-17.893-8.274-15.765-1.429-28.386 8.154-29.618 22.49-.416 4.851-.091 6.497 2.082 10.528 2.157 4.001 2.281 4.621.766 3.81-2.748-1.471-6.869-8.05-8.19-13.078-4.497-17.109 12.065-36.848 33.526-39.957 2.75-.398 6.125-.591 7.5-.428 1.375.164 4.63.566 7.233.895m182.519 4.011c-8.794 1.749-15.941 5.658-22.791 12.465-9.539 9.477-14.008 22.976-11.889 35.909.504 3.077.919 5.959.922 6.404s.398.567.877.271 1.073-5.385 1.321-11.309c.401-9.585.809-11.52 3.705-17.573 5.829-12.181 19.83-23.511 31.325-25.35 2.102-.336 4.064-1.002 4.359-1.479.639-1.034.73-1.041-7.829.662M939.455 216.455c-5.98 5.979.054 14.973 8 11.924.891-.342 2.313-1.963 3.161-3.603 2.633-5.091-1.18-10.776-7.227-10.776-.814 0-2.584 1.105-3.934 2.455m79.977 15.613c-4.386 10.116-2.287 9.279-18.432 7.35-4.5-.537-4.5-.537-2 1.632 12.807 11.115 12.331 9.986 8.049 19.097-3.875 8.243-4.289 10.088-1.823 8.122.701-.559 4.369-2.673 8.151-4.698 7.767-4.157 6.266-4.603 16.373 4.864 2.338 2.19 4.249 3.775 4.249 3.523-.001-.252-.676-4.283-1.499-8.958s-1.498-8.795-1.499-9.155c0-.36 3.712-2.835 8.249-5.5 8.15-4.786 8.207-4.848 4.75-5.091-16.854-1.187-15.678-.482-18.068-10.828-1.198-5.184-2.266-9.426-2.373-9.426s-1.965 4.081-4.127 9.068m-305.064-2.034c-2.272 3.556-5.771 9.08-7.775 12.275-2.693 4.293-4.094 5.672-5.369 5.281-6.257-1.918-26.504-7.587-27.054-7.575-.368.009-.199.346.377.75C676.48 242.121 692 261.866 692 262.969c0 .599-3.6 6.463-8 13.031-7.882 11.765-9.213 14.185-6.75 12.276 1.121-.869 20.249-8.171 25.25-9.638 1.645-.483 3.51 1.442 10.5 10.841 4.675 6.285 8.725 11.449 9 11.475s.5-6.59.5-14.703c0-14.751 0-14.751 13.723-19.641 7.547-2.689 13.52-5.216 13.274-5.615s-2.065-.988-4.041-1.308c-1.975-.321-8.511-2.029-14.524-3.796-10.932-3.213-10.932-3.213-11.041-11.802-.059-4.724-.397-11.274-.75-14.555-.641-5.967-.641-5.967-4.773.5m350.084 21.399c-3.622 5.528 4.452 11.646 8.893 6.738 2.171-2.399 2.1-5.458-.174-7.516-2.722-2.464-6.836-2.097-8.719.778M662.985 267.37c-35.247 15.604-72.196 47.469-95.81 82.63-30.047 44.737-38.529 100.51-24.102 158.477 1.639 6.587 3.469 12.437 4.066 13 .77.725.901.409.451-1.084-.348-1.159-1.792-9.259-3.208-18-3.125-19.295-4.325-52.279-2.473-67.98 3.424-29.04 11.472-52.331 26.641-77.107 10.205-16.669 27.357-36.796 42.671-50.073 12.556-10.885 14.189-11.558 5.26-2.167-33.262 34.982-52.21 74.601-57.585 120.407-1.386 11.811-.671 35.141 1.464 47.738 1.66 9.8 7.627 32.135 8.383 31.379.271-.27-.446-5.577-1.593-11.791-3.474-18.818-4.309-27.512-4.301-44.78.011-24.978 2.725-40.885 11.189-65.579 14.602-42.596 44.318-79.607 89.462-111.423 13.87-9.775 13.838-10.001-.515-3.647m830.081 5.88c-.658 3.438-2.089 10.128-3.183 14.867-1.987 8.616-1.987 8.616-10.685 9.268-4.784.358-11.741.927-15.459 1.264-6.761.612-6.761.612 0 4.577 3.718 2.181 9.388 5.338 12.599 7.016 3.211 1.679 6.049 3.604 6.308 4.278.259.675-.906 7.222-2.588 14.55S1477 342.797 1477 343.289s4.912-3.672 10.915-9.254c10.914-10.15 10.914-10.15 17.033-7.061 3.366 1.699 9.079 4.9 12.696 7.114s6.751 3.85 6.966 3.636c.214-.215-2.142-6.155-5.236-13.201-6.369-14.505-7.485-11.453 9.394-25.691 3.997-3.371 7.098-6.299 6.892-6.505-.206-.207-6.771.172-14.589.842-12.225 1.047-14.342 1.015-15.128-.226-.503-.794-3.234-6.955-6.068-13.693-2.835-6.738-5.258-12.25-5.384-12.25s-.768 2.813-1.425 6.25m-875.993 10.822c-23.198 13.952-39.395 26.753-53.163 42.015-35.248 39.073-51.395 81.302-51.203 133.913.061 16.51 2.786 40.404 5.247 46 1.047 2.38 1.076 2.347.607-.703-1.505-9.793-2.73-36.5-2.183-47.573 3.423-69.185 31.668-119.905 91.622-164.531 21.637-16.105 23.054-17.529 9.073-9.121m806.784 3.178c2.414 8.142 2.871 21.092 1.059 29.951-.597 2.914-3.131 9.574-5.633 14.799-3.846 8.033-5.88 10.829-13.166 18.103-7.156 7.143-10.228 9.392-18.117 13.26-15.149 7.426-22.355 8.94-43 9.036-9.625.045-24.925-.307-34-.781-19.315-1.009-30.417.416-42.538 5.462-21.277 8.858-35.109 24.222-51.693 57.417-11.455 22.929-15.738 29.402-25.635 38.738-12.416 11.712-30.991 18.617-50.634 18.822-10.73.112-6.912 1.778 4.292 1.873 14.146.12 29.483-3.953 40.208-10.676 7.817-4.901 17.419-14.519 23.217-23.254 2.737-4.125 8.12-14.011 11.96-21.97 11.655-24.149 22.603-38.777 36.382-48.61 17.689-12.622 33.087-15.205 73.441-12.316 18.795 1.345 33.54-.214 48.158-5.09 36.783-12.27 57.452-46.05 50.183-82.014-1.011-4.998 4.828 6.442 7.797 15.277 3.931 11.701 4.953 26.091 2.405 33.88-5.706 17.448-22.345 34.589-42.022 43.291-7.096 3.138-6.811 4.124.559 1.936 10.746-3.19 21.462-9.516 30.67-18.107 2.888-2.694 5.25-4.591 5.25-4.216 0 1.902-10.309 16.018-14.592 19.981-15.082 13.954-31.301 20.441-55.097 22.037-9.775.655-16.858 1.724-22.766 3.436-4.716 1.367-10.481 2.488-12.81 2.493-17.694.031-33.293 7.744-45.09 22.294-7.504 9.255-10.765 18.546-14.634 41.698-4.506 26.96-9.667 39.695-20.734 51.159-6.695 6.934-15.102 12.078-24.973 15.28-12.351 4.007-31.143 3.675-44.438-.784-3.777-1.266-6.866-2.201-6.866-2.077 0 .86 8.547 4.955 14.542 6.968 13.738 4.612 31.808 4.219 44.654-.969 3.192-1.29 5.804-2.189 5.804-1.998 0 .694-11.633 8.211-16.571 10.709-10.792 5.458-27.744 7.906-39.998 5.776-14.744-2.563-25.459-8.541-40.811-22.766-15.611-14.466-28.331-20.828-46.597-23.306-9.296-1.261-15.28-.909-37.023 2.173-22.925 3.25-39.399 1.707-53-4.967-4.995-2.45-21-17.047-21-19.151 0-.864 10.797 1.355 15.5 3.186 1.65.642 6.189 3.122 10.086 5.511 14.346 8.794 30.557 12.201 49.069 10.312 5.965-.609 12.645-1.569 14.845-2.133s11.2-1.283 20-1.597c15.104-.539 17.064-.383 35 2.795 16.745 2.967 21.077 3.368 36.5 3.373 15.303.005 18.497-.283 25.443-2.294 12.499-3.619 22.433-9.332 31.404-18.06 9.835-9.569 15.631-18.219 27.705-41.344 14.956-28.646 24.078-39.054 41.948-47.862 12.49-6.156 18.961-7.825 33.5-8.641 9.686-.543 10.948-.793 8-1.58-5.823-1.555-25.569-.208-33.5 2.284-12.422 3.904-20.216 8.684-30.133 18.481-10.226 10.102-15.062 17.099-24.899 36.024-9.12 17.547-14.484 25.669-22.348 33.841-12.057 12.53-23.616 19.076-39.298 22.253-11.105 2.25-33.731 1.481-50.322-1.711-17.126-3.296-45.403-3.31-60-.031-22.436 5.039-41.227 3.455-58.088-4.897-4.626-2.292-8.412-4.57-8.412-5.062s2.362-.899 5.25-.904c5.246-.009 17.836-2.664 35.75-7.537 7.149-1.945 12.957-2.729 23.467-3.167 17.263-.72 15.23-2.439-2.967-2.51-10.768-.042-13.848.394-30 4.247-15.886 3.79-19.351 4.291-29.5 4.264-11.397-.031-29.475-2.629-30.565-4.393-.304-.492.285-.895 1.309-.895 2.44 0 15.82-6.501 25.6-12.437 11.104-6.741 20.896-11.139 30.656-13.771 8.026-2.164 9.867-2.268 33-1.87 13.475.233 33.95.426 45.5.431 19.7.007 21.605-.159 30.774-2.676 21.419-5.88 42.785-20.19 55.506-37.177 2.247-3 2.247-3 .204 2.5-12.48 33.593-34.41 53.46-65.615 59.441-7.869 1.509-7.869 1.509.631 1.09 20.846-1.027 40.605-11.915 54.082-29.801 7.496-9.947 10.678-16.218 17.583-34.656 10.867-29.018 21.403-43.53 39.257-54.074 11.626-6.866 20.59-9.291 36.078-9.761 14.33-.435 18.595.222 41 6.311 25.534 6.941 49.093 2.995 68.12-11.409 11.178-8.461 21.356-22.197 26.422-35.656 2.999-7.969 5.458-19.028 5.458-24.55 0-5.991 1.475-4.724 3.857 3.315m-783.415 5.663c-18.577 15.916-37.707 46.148-47.291 74.739-10.035 29.937-12.358 58.462-7.205 88.487 1.072 6.249 2.905 14.444 4.073 18.213 2.088 6.734 8.477 21.648 9.274 21.648.224 0-.603-3.488-1.837-7.75-7.176-24.781-10.026-45.677-9.103-66.75 2.076-47.425 20.138-89.992 53.782-126.75 4.405-4.812 7.639-8.748 7.187-8.745-.452.002-4.448 3.111-8.88 6.908M1532 318.218c0 .734 3.328 8.131 7.396 16.438s9.192 20.22 11.385 26.474c11.775 33.569 11.613 77.8-.41 112.111-7.719 22.026-21.996 46.791-36.757 63.759-16.424 18.879-15.55 17.747-11.614 15.045 6.132-4.209 20.472-19.321 28.11-29.624 19.368-26.127 30.731-55.965 34.012-89.32 1.795-18.246-.961-45.973-6.452-64.921-3.041-10.494-1.831-9.405 2.756 2.482 4.947 12.82 9.237 28.168 10.995 39.338 9.732 61.817-10.388 116.7-62.289 169.914-6.123 6.277-11.132 11.595-11.132 11.816 0 .96 13.137-9.901 20.84-17.23 29.232-27.811 50.365-66.06 57.737-104.5 2.208-11.509 2.523-40.714.589-54.5-3.837-27.351-15.268-58.129-29.076-78.289-7.025-10.257-16.09-20.957-16.09-18.993m7.416 22.782c.233 1.375 1.341 6.744 2.463 11.931 8.137 37.632 3.144 79.222-13.757 114.603-10.835 22.682-25.243 40.667-53.622 66.935-4 3.703-4 3.703.5 1.164 20.075-11.324 45.753-40.771 58.542-67.133 5.224-10.77 10.558-26.921 13.676-41.411 1.992-9.261 2.277-13.411 2.267-33.089-.01-20.838-.206-23.313-2.647-33.5-2.325-9.706-8.524-25.99-7.422-19.5m-748.978 20.281c-10.53 20.394-19.011 43.392-26.554 72.008-2.955 11.211-2.955 11.211-2.365 2.211 1.452-22.178 8.432-44.437 20.605-65.714C786.722 361.749 795.47 349 796.388 349c.215 0-2.462 5.527-5.95 12.281m783.274 8.98c3.016 6.732 7.044 16.883 8.951 22.559 6.949 20.687 11.09 48.955 9.914 67.68-3.212 51.16-25.594 97.662-68.067 141.419-14.761 15.207-15.396 16.314-4.01 6.986 26.658-21.838 51.113-55.14 63.829-86.925 17.606-44.005 17.716-93.554.301-134.819-3.578-8.477-14.001-27.654-15.552-28.613-.468-.289 1.617 4.982 4.634 11.713m-747.833 21.634c-22.72 23.404-35.418 50.374-40.778 86.605-2.644 17.873-3.298 31.731-2.201 46.631.946 12.834 4.983 38.872 6.028 38.866.314-.002.608-11.14.651-24.75.086-26.895 1.155-37.209 6.549-63.181 6.45-31.059 18.381-60.243 34.706-84.896 3.34-5.044 5.756-9.174 5.369-9.178s-5.033 4.451-10.324 9.903m72.09 38.675c5.845 17.99 18.485 33.453 36.314 44.425 8.133 5.005 8.133 5.005 3.675 4.99-18.994-.063-40.506-13.198-48.671-29.718-3.303-6.684-3.749-8.513-4.115-16.88-.46-10.525.64-16.324 4.603-24.269 2.685-5.381 2.685-5.381 4.314 4.57.895 5.473 2.641 13.07 3.88 16.882m-13.999-19.226c-5.327 15.157-4.74 28.851 1.797 41.918 4.128 8.25 12.891 17.412 21.678 22.664 5.723 3.42 19.653 8.074 24.168 8.074 2.927 0 2.931.15.137 5.044-2.25 3.941-2.25 3.941-12.818 3.948-17.091.013-28.589-4.594-38.852-15.566-14.844-15.868-18.334-39.191-8.401-56.141 2.62-4.471 13.262-16.678 13.944-15.995.194.193-.55 2.917-1.653 6.054m487.07-1.336c11.918 2.26 23.75 10.678 29.274 20.827 6.321 11.614 7.287 27.804 2.309 38.678-5.962 13.021-12.859 18.278-27.373 20.859-4.1.729-4.318-.908-.23-1.726 4.75-.95 12.579-8.959 14.948-15.291 6.817-18.22-3.371-38.68-22.638-45.459-4.866-1.712-7.603-1.985-16.554-1.65-10.187.381-11.143.609-19.089 4.546-15.112 7.489-26.297 21.221-31.519 38.695-2.143 7.174-2.474 10.789-3.158 34.513-.629 21.822-1.124 27.838-2.802 34.079-5.496 20.434-15.187 36.035-31.36 50.485-8.623 7.705-13.192 10.729-24.074 15.938-19.127 9.156-38.687 12.659-58.774 10.527-28.168-2.99-42.992-9.685-74.893-33.821-14.544-11.005-25.671-17.326-36.607-20.798-5.997-1.904-7-2.552-7-4.525 0-1.811.747-2.476 3.5-3.111 6.141-1.418 24.074-1.038 30.257.641 6.285 1.707 16.507 6.526 21.243 10.016 5.833 4.298 5.932 3.66.276-1.785-6.919-6.662-17.475-12.081-27.776-14.261-8.583-1.817-21.56-1.406-34.338 1.086-19.789 3.86-31.134.424-39.699-12.025-2.919-4.242-9.134-17.608-8.489-18.254.174-.173 3.439 1.965 7.257 4.75 12.834 9.364 23.578 12.051 48.243 12.065 22.516.013 36.141 5.041 55.627 20.528 31.928 25.375 50.944 33.676 77.399 33.784 15.286.062 26.532-2.413 37.952-8.355 21.632-11.254 39.474-34.767 44.471-58.607 1.523-7.266.417-7.77-1.367-.624-1.937 7.757-9.789 22.483-16.544 31.025-12.36 15.631-26.736 25.178-44.217 29.364-7.532 1.804-10.734 2.027-22.295 1.55-25.091-1.034-36.74-5.993-66-28.098-30.4-22.966-37.462-25.574-69.248-25.574-20.311 0-25.652-.902-35.86-6.055-3.352-1.692-5.91-3.26-5.685-3.486.226-.225 3.309.071 6.852.659 7.811 1.297 20.207.544 36.941-2.241 9.754-1.624 15.465-1.989 26-1.661 21.462.668 30.509 4.834 52.255 24.063 15.77 13.943 23.041 18.093 37.239 21.252 16.296 3.625 36.741.346 51.472-8.255 13.852-8.089 30.581-27.627 37.016-43.233 3.813-9.247 6.57-20.656 8.975-37.149 2.428-16.645 5.801-27.665 10.857-35.472 4.339-6.701 13.583-15.564 19.245-18.452 4.143-2.114 18.842-6.402 19.542-5.702.24.239-1.328 1.657-3.484 3.151-6.337 4.391-16.625 15.676-19.545 21.439-3.397 6.703-2.727 7.681 1.276 1.863 5.888-8.558 17.332-18.093 28.371-23.638 14.734-7.401 28.142-9.67 41.821-7.075m-659.825 35.734c-5.037 18.587-5.69 24.461-5.64 50.758.04 20.823.411 27.185 2.221 38.081 8.221 49.498 30.733 100.249 64.062 144.419 14.493 19.208 35.757 43.718 36.92 42.555.26-.26-1.785-3.528-4.543-7.264-16.173-21.896-35.568-54.502-49.826-83.762-23.32-47.86-35.574-86.852-40.974-130.382-1.667-13.441-1.867-39.729-.4-52.537.56-4.889.853-9.055.651-9.258-.203-.202-1.314 3.124-2.471 7.39m155.401 21.069c9.193 18.913 30.865 31.149 53.101 29.982 6.513-.342 8.253-.156 7.87.84-.27.703-1.054 4.006-1.742 7.339-1.22 5.908-1.354 6.088-5.298 7.154-2.364.639-8.831.907-15.547.644-9.943-.389-12.583-.88-19.5-3.623-18.826-7.468-28.913-20.587-30.234-39.322-.554-7.847.339-13.289 3.336-20.354 1.685-3.971 1.685-3.971 3.073 3.029.763 3.85 2.987 10.29 4.941 14.311m605.039-5.982c-2.427 2.681-2.129 7.725.568 9.614 2.981 2.089 4.994 1.961 8.142-.516 2.982-2.345 3.365-5.439 1.078-8.704-1.962-2.802-7.41-3.022-9.788-.394m-508.113 23.792c8.745 2.197 11.725 4.393 19.322 14.239 3.529 4.573 8.7 10.12 11.49 12.326 4.586 3.625 5.517 5.095 9.668 15.266 4.77 11.69 9.736 19.533 14.665 23.166 5.324 3.922 11.404 6.482 15.875 6.683 3.307.148 4.311.551 3.924 1.576-.286.757.003 2.008.644 2.779.914 1.102.677 1.921-1.11 3.822-4.712 5.016.731 7.512 7.068 3.242 3.869-2.608 5.876-6 5.897-9.97.009-1.7.556-2.75 1.433-2.75.78 0 2.13-.273 3-.607 2.272-.872 2.066 4.943-.364 10.297-4.254 9.37-13.739 16.31-22.291 16.31-1.585 0-2.634.399-2.333.887.892 1.444 6.851 2.18 10.102 1.247 3.017-.865 3.017-.865 2.631 12.365-.458 15.666.792 26.201 5.285 44.546 3.792 15.485 7.751 24.115 14.25 31.063 4.718 5.045 13.981 10.366 20.012 11.497 3.269.614 3.45.847 2.874 3.723-1.488 7.442-3.118 8.144-30.437 13.111-14.259 2.592-22.077 5.647-26.202 10.239-2.445 2.721-2.445 2.721.055 1.177 5.316-3.281 16.03-6.795 28.5-9.347 7.15-1.463 15.362-3.456 18.25-4.429s5.25-1.57 5.25-1.328c0 .911-4.58 6.967-9.903 13.097-12.996 14.963-32.611 24.126-51.687 24.145-13.918.014-32.82-6.924-44.608-16.373C969.42 712.306 956 697.555 956 695.954c0-.408 3.487.367 7.75 1.722s12.25 3.366 17.75 4.469c12.774 2.562 21.144 5.376 25.25 8.491 1.788 1.356 3.25 2.046 3.25 1.534 0-1.245-5.506-5.375-10.674-8.007-2.296-1.17-9.946-3.274-17-4.676s-14.513-2.985-16.576-3.518c-2.062-.533-5.551-1.437-7.753-2.008-3.395-.882-4.382-1.788-6.5-5.967-1.373-2.71-2.497-5.11-2.497-5.333s1.813-.695 4.029-1.05c8.777-1.403 17.088-4.911 21.911-9.247 8.328-7.488 10.732-16.891 8.712-34.079-.848-7.216-.848-7.216 3.911-10 18.561-10.86 29.35-20.421 34.361-30.449 1.692-3.385 3.055-6.871 3.029-7.746-.025-.874-1.19.609-2.588 3.296-5.202 10.001-17.919 19.977-32.619 25.591-16.161 6.171-41.438 12.658-45.04 11.558-.663-.202-2.431-.636-3.927-.963-3.531-.773-5.061-3.677-5.83-11.072-.343-3.3-.97-6.788-1.394-7.75-.529-1.204-.328-1.75.644-1.75 1.789 0 15.801-9.816 15.801-11.068 0-.513-1.004-.932-2.23-.932-1.227 0-4.858-1.622-8.07-3.605s-7.599-3.84-9.749-4.128-3.652-.942-3.336-1.453c1.371-2.219-.877-5.678-5.597-8.612-2.764-1.718-5.537-4.247-6.162-5.619-1.037-2.276-.691-2.983 3.954-8.065 2.8-3.064 6.488-8.409 8.196-11.879 3.537-7.185 3.881-11.351 2.569-31.139-1.143-17.224 1.66-28.004 9.648-37.101 3.21-3.656 3.21-3.656 10.484-3.041 4.001.338 10.227 1.357 13.835 2.263M1321 485c-4.456 4.456-.59 13 5.882 13 3.578 0 7.118-3.959 7.118-7.961 0-5.974-8.694-9.345-13-5.039m-372.084 31.773c-10.597 2.865-13.439 5.513-10.935 10.191.921 1.722 1.48 1.612 9.25-1.811 7.776-3.425 8.865-3.638 18.269-3.568 7.742.058 11.228.559 15.44 2.221 2.993 1.181 5.621 1.966 5.842 1.745s-1.381-1.581-3.56-3.023c-10.026-6.634-23.003-8.812-34.306-5.755m-52.563 10.031c6.763 6.359 14.344 10.028 23.716 11.478 3.898.604 6.931 1.573 6.931 2.214 0 .628-.692 3.473-1.539 6.322-1.538 5.179-1.541 5.182-5.75 5.181-13.702-.002-30.053-16.656-32.397-32.999-.502-3.5-.502-3.5 1.447-.5 1.072 1.65 4.488 5.387 7.592 8.304m28.454-5.051c.169 3.161.698 7.496 1.175 9.635.867 3.887.867 3.887-5.339 3.308-8.635-.807-14.786-3.737-21.71-10.341-3.263-3.113-5.933-5.984-5.933-6.382s3.938-.519 8.75-.271c4.813.248 11.225.019 14.25-.509 8.956-1.562 8.466-1.815 8.807 4.56m-353.692 8.338c-2.959 7.125-5.693 13.148-6.075 13.384s-6.51-.22-13.617-1.013c-17.585-1.962-17.085-2.034-12.676 1.81 20.901 18.22 19.539 15.603 14.561 27.989-2.484 6.182-5.156 12.476-5.938 13.989s-1.23 2.75-.996 2.75c.235 0 6.112-3.634 13.061-8.076 12.635-8.075 12.635-8.075 23.85 1.907 6.168 5.49 11.347 9.626 11.509 9.192s-1.075-6.215-2.75-12.847c-1.674-6.633-3.044-12.887-3.044-13.899 0-1.719 3.092-3.772 22.311-14.817 3.81-2.19 3.81-2.19-3-2.806-3.746-.34-10.748-.912-15.559-1.273-10.018-.751-8.689 1.052-12.745-17.286-1.144-5.172-2.402-9.979-2.796-10.682-.428-.765-2.872 3.916-6.096 11.678m838.958-3.456c-1.14 1.449-2.073 3.249-2.073 4 0 2.169 3.78 5.365 6.345 5.365 5.217 0 7.674-7.473 3.432-10.443-3.186-2.232-5.338-1.931-7.704 1.078m-463.096 10.169c-1.362 2.576-3.922 5.586-5.688 6.69-1.767 1.103-3.229 2.299-3.25 2.658-.022.358 2.705.97 6.058 1.359 6.028.7 6.093.741 5.674 3.598-.521 3.545-.106 3.587 3.292.331 1.502-1.439 5.237-3.23 8.527-4.09 5.795-1.513 11.929-4.164 11.237-4.856-.197-.197-3.951.091-8.343.641s-9.832.727-12.09.393c-4.107-.607-4.107-.607-3.186-5.67.506-2.785.768-5.215.583-5.4s-1.452 1.77-2.814 4.346m503.669.817c-.314 1.583-1.331 8.12-2.26 14.526-1.69 11.646-1.69 11.646-16.788 14.087s-15.098 2.441-2.098 8.718c7.15 3.453 13.164 6.427 13.365 6.611.315.288-1.843 16.897-3.566 27.437-.543 3.325-.035 2.938 10.134-7.724 10.705-11.223 10.705-11.223 21.771-5.674 17.61 8.832 16.845 9.305 9.093-5.628-6.745-12.992-6.745-12.992 4.212-23.983 6.026-6.045 10.74-10.989 10.474-10.986s-7.076 1.274-15.135 2.823c-14.651 2.818-14.651 2.818-18.693-4.755-10.293-19.285-9.873-18.667-10.509-15.452m-778.554 7.629c-2.255 6.75-2.255 6.75-9.392 6.75s-7.137 0-1.419 3.577c6.205 3.881 6.452 4.533 4.66 12.305-.556 2.41-.829 4.563-.608 4.784s2.7-1.415 5.509-3.636c5.108-4.037 5.108-4.037 10.585-.534 3.012 1.927 5.657 3.504 5.877 3.504.221 0-.528-2.652-1.663-5.892-2.356-6.724-2.15-7.256 4.759-12.275 3.9-2.833 3.9-2.833-3.75-2.833-5.421 0-7.668-.364-7.711-1.25-.034-.687-1.081-3.5-2.327-6.25-2.266-5-2.266-5-4.52 1.75M1347 544.239c0 .682-.787 3.156-1.75 5.497-1.75 4.257-1.75 4.257-9.25 4.307s-7.5.051-4.071 2.754c8.211 6.474 7.571 5.176 5.565 11.275-.982 2.985-2.016 6.05-2.298 6.811-.281.761 1.916-.252 4.883-2.25s5.884-3.633 6.482-3.633 3.281 1.56 5.963 3.467c2.682 1.906 5.053 3.29 5.268 3.074.216-.216-.324-2.858-1.199-5.871-.876-3.013-1.593-5.691-1.593-5.952s2.536-2.217 5.635-4.346c5.635-3.872 5.635-3.872-1.704-4.372s-7.339-.5-8.833-6.25c-1.341-5.166-3.098-7.724-3.098-4.511m-523.685 10.768c-4.737 1.909-5.739 8.66-1.86 12.538 6.221 6.222 16.12-.672 12.924-9-.671-1.749-5.467-4.585-7.579-4.482-.715.035-2.283.46-3.485.944M1049 558.911c0 3.353-4.831 8.089-8.251 8.089-2.06 0-2.056-.045.263-2.513 1.822-1.939 2.09-2.785 1.175-3.7-2.711-2.711-1.402-3.802 5.563-4.637.748-.09 1.25 1.019 1.25 2.761m23 8.858c3.575 1.41 8.75 3.932 11.5 5.604 11.21 6.817 41.122 29.328 52 39.133 19.103 17.218 34.515 25.998 52.017 29.631 24.673 5.122 52.215-1.339 70.695-16.582 12.539-10.343 22.582-27.115 23.564-39.355.82-10.219 2.192-5.047 2.202 8.3.013 18.754-3.295 30.31-13.01 45.455-7.516 11.717-19.499 22.637-31.148 28.386-12.046 5.944-18.824 7.696-32.32 8.35-25.122 1.22-41.706-5.053-68.281-25.826-11.959-9.348-18.854-13.269-35.874-20.405-23.677-9.925-35.584-22.926-44.725-48.832-3.234-9.167-3.234-9.167-1.177-13.369 1.879-3.838 2.317-4.152 5.057-3.628 1.65.316 5.925 1.728 9.5 3.138M1059.283 593c5.54 14.301 15.022 26.363 26.613 33.854 3.107 2.009 11.264 6.086 18.127 9.062s16.077 7.739 20.477 10.586c10.136 6.557 23.973 18.104 20.5 17.106-6.963-1.999-23.152-3.572-37-3.594-8.525-.014-18.149-.459-21.387-.99-13.425-2.198-25.798-10.967-31.42-22.268-4.718-9.481-6.367-19.562-6.282-38.402.074-16.576.334-18.436 3.025-21.611 1.467-1.732 1.677-1.455 3.39 4.455 1.005 3.466 2.785 8.777 3.957 11.802m-131.418-13.461c4.293 1.864 6.204 1.828 3.694-.071-1.068-.807-3.093-1.45-4.5-1.429-2.395.037-2.344.133.806 1.5M637 580.944c0 .702-1.6 6.402-3.556 12.666C629.889 605 629.889 605 616.247 605s-13.642 0-3.081 6.874c5.808 3.781 10.799 7.269 11.091 7.75.292.482-1.171 6.389-3.251 13.126S617.422 645 617.665 645s3.455-2.37 7.138-5.266c3.684-2.896 8.29-6.446 10.237-7.89 4.086-3.03 2.759-3.604 17.397 7.534 5.029 3.826 7.642 5.321 7.132 4.08-1.142-2.78-7.533-22.812-7.552-23.677-.01-.395 4.82-4.129 10.733-8.299 10.75-7.58 10.75-7.58-3.199-7.424s-13.949.156-17.667-11.534c-3.565-11.209-4.884-14.338-4.884-11.58m641.372 6.599c-5.748 22.139-24.895 40.91-48.957 47.995-20.88 6.149-43.255 4.004-63.448-6.082-6.213-3.103-23.551-15.212-22.815-15.935.191-.187 3.615.726 7.608 2.03 12.024 3.926 21.064 5.518 34.837 6.134 33.534 1.502 64.682-10.422 86.903-33.266 3.85-3.959 7.094-7.115 7.209-7.015.115.099-.487 2.862-1.337 6.139m118.561 8.133c-.56 1.472-2.129 6.085-3.488 10.25-1.359 4.166-2.853 8.175-3.319 8.909-.653 1.027-3.745 1.257-13.44 1-6.925-.184-12.275-.053-11.889.291 1.503 1.339 17.449 12.912 18.941 13.748 1.391.778 1.133 2.235-2.171 12.255-2.063 6.254-4.006 12.036-4.318 12.849-.665 1.732-1.103 2.024 12.318-8.205 7.589-5.785 9.043-6.541 10.379-5.395 5.287 4.534 17.358 13.651 17.666 13.343.203-.202-1.137-5.717-2.977-12.255-3.346-11.887-3.346-11.887 7.14-18.927s10.486-7.039-2.519-7.317c-14.695-.314-13.085 1.09-18.313-15.972-1.222-3.987-2.395-7.25-2.607-7.25s-.843 1.204-1.403 2.676M441.75 606.08c-2.91 1.695-4.997 6.788-4.301 10.498 2.073 11.05 18.606 9.297 18.519-1.964-.017-2.263-.58-4.828-1.25-5.701-2.791-3.634-9.191-5.033-12.968-2.833m591.778 15.17c-1.531 10.043-5.82 32.936-7.694 41.068-1.118 4.849-1.819 9.03-1.558 9.291.692.693 6.499-20.797 8.138-30.118 1.659-9.44 3.075-24.491 2.303-24.491-.298 0-.833 1.913-1.189 4.25m-159.904 2.268c-2.512 2.513-2.068 7.145.869 9.069 3.148 2.063 6.941 1.206 9.074-2.05 1.369-2.088 1.405-2.826.256-5.234-1.045-2.19-2.128-2.869-4.956-3.106-2.338-.196-4.193.272-5.243 1.321m668.55 19.796c-4.523 4.815-1.695 11.686 4.81 11.686 3.017 0 4.341-.597 6-2.707 5.565-7.074-4.638-15.548-10.81-8.979m-1125.539.759c-3.541 2.784-3.541 7.07 0 9.854 3.46 2.722 5.912 2.617 8.91-.382 3.105-3.104 3.106-5.551.003-8.899-2.952-3.185-5.393-3.342-8.913-.573m155.195 27.722c3.305 9.241 10.17 32.288 10.17 34.141 0 1.895 7.355 17.128 11.545 23.913 2.686 4.349 2.686 4.349.087 2.646-3.531-2.314-13.376-14.076-17.509-20.92-1.858-3.076-4.42-8.465-5.695-11.977-2.73-7.521-8.715-38.324-7.75-39.886 1.109-1.794 6.946 5.913 9.152 12.083m898.783-5.045c-.3 1.513-1.244 7.925-2.097 14.25-3.673 27.229-5.704 32.014-19.798 46.647-5.506 5.717-10.208 10.196-10.449 9.955s2.299-4.469 5.646-9.397c6.951-10.234 8.548-13.693 9.559-20.692.396-2.743 1.345-6.196 2.11-7.675.764-1.478 2.577-7.784 4.028-14.013 2.789-11.973 4.337-15.919 7.679-19.575 2.762-3.02 3.984-2.836 3.322.5m-917.157 4.575c6.3 6.301 8.767 10.811 11.51 21.047 2.852 10.643 4.779 15.272 9.105 21.869 2.528 3.856 3.169 5.422 1.949 4.77-3.024-1.619-9.981-10.104-14.193-17.312-4.979-8.519-16.825-32.773-16.826-34.449-.002-2.648 3.344-1.036 8.455 4.075m62.062-2.679c2.19 1.455 8.707 6.124 14.482 10.376s14.775 10.346 20 13.543c13.445 8.226 19.776 15.005 25.844 27.674 5.545 11.578 9.352 16.961 24.521 34.673 6.576 7.678 11.011 13.781 11.627 16 1.835 6.607.694 41.978-1.579 48.967-.604 1.854-10.501-11.404-26.634-35.678-23.49-35.343-22.383-34.618-59.038-38.664-15.747-1.737-19.484-2.987-22.969-7.681-3.508-4.724-13.178-22.478-15.172-27.856-2.102-5.667-1.967-32.048.167-32.757 2.132-.708 5.167 7.96 6.165 17.606.516 4.992 1.685 10.649 2.597 12.572 2.115 4.456 12.842 16.202 16.545 18.117 4.864 2.516 5.452 1.604 1.272-1.974C609.503 720.275 598 706.892 598 705.71c0-.312 5.371-.549 11.935-.525 9.672.034 12.658-.311 15.75-1.821 7.147-3.492 5.111-10.758-5.137-18.328-5.885-4.348-10.006-9.659-11.478-14.792-1.462-5.097.463-5.574 6.448-1.598M1425 672.05c0 5.739-3.688 10.417-13.326 16.903-2.654 1.786-5.689 4.664-6.746 6.397-2.003 3.285-2.612 10.109-.991 11.111 2.5 1.545 17.527 2.537 24.785 1.636 4.261-.529 7.92-.788 8.132-.576.604.604-12.641 17.216-15.099 18.938-3.075 2.154-6.536 1.938-17.62-1.1-11.287-3.094-24.544-3.718-30.135-1.42-3.884 1.596-10 5.894-10 7.027 0 .4 2.358-.441 5.241-1.869 7.597-3.765 21.734-4.051 38.484-.778 14.694 2.871 14.753 2.85 23.958-8.462 8.759-10.764 9.067-11.412 10.733-22.59 1.488-9.978 4.531-18.267 6.705-18.267.748 0 .949 5.153.651 16.75-.489 19.091-.395 18.776-9.956 33.433-3.474 5.326-7.06 11.024-7.97 12.664-3.012 5.428-5.273 6.147-24.146 7.678-32.583 2.644-33.291 3.039-51.117 28.58-15.142 21.695-34.038 47.789-34.647 47.844-1.158.105-3.165-26.847-2.789-37.449.362-10.197.623-11.402 3.58-16.5 1.755-3.025 7.302-10.225 12.327-16 11.527-13.247 15.569-19.158 22.624-33.088 6.839-13.506 12.052-19.142 25.322-27.38 5.225-3.243 13.171-8.516 17.658-11.716 9.12-6.506 22.327-14.816 23.546-14.816.438 0 .796 1.372.796 3.05m63.825-1.3c-.188.413-1.956 3.9-3.93 7.75s-5.986 12.748-8.916 19.773c-5.315 12.746-9.208 18.617-15.145 22.845-3.042 2.166-3.057 2.167-1.944.088.616-1.152 1.624-2.406 2.24-2.786 1.882-1.164 6.539-12.496 8.391-20.42 2.492-10.663 6.659-18.989 11.939-23.857 3.882-3.578 8.397-5.658 7.365-3.393m-544.818 23.669c5.887 10.626 18.419 25.33 26.993 31.67 7.492 5.541 22.017 12.451 30.5 14.51 8.197 1.99 7.919 1.839 6.842 3.721-.733 1.279-1.817 1.223-8.342-.433-20.997-5.326-41.422-20.18-53.632-39.003-5.457-8.413-10.057-19.884-7.974-19.884.217 0 2.743 4.239 5.613 9.419m153.011-3.967c-8.365 22.003-27.271 41.824-47.801 50.116-12.445 5.027-24.884 7.011-24.884 3.968 0-.975 1.531-1.686 4.584-2.131 7.869-1.146 17.237-4.41 26.537-9.248 6.823-3.548 11.011-6.68 17.593-13.157 9.276-9.127 12.62-13.571 18.375-24.421 4.758-8.969 4.571-8.701 5.609-8.06.522.323.517 1.539-.013 2.933m-162.507 8.298c7.147 13.517 13.199 21.704 23.153 31.318 9.156 8.843 13.825 12.158 25.086 17.812 7.72 3.876 10.205 6.12 6.779 6.12-2.485 0-12.108-4.63-19.247-9.261-17.725-11.497-31.999-29.459-39.725-49.989-1.397-3.712-2.358-6.75-2.135-6.75s2.963 4.837 6.089 10.75m170.46-1.608c-2.751 8.238-7.65 16.982-14.915 26.621-17.685 23.462-47.232 37.77-74.056 35.861-8.729-.622-16-2.176-16-3.421 0-.387 7.762-.703 17.25-.703 15.32 0 18.089-.263 24.75-2.353 27.014-8.474 49.681-29.751 61.618-57.835 3.413-8.032 4.263-6.884 1.353 1.83m-196.56 11.935c2.828 3.361 3.216 5.877 1.426 9.239-1.767 3.316-3.975 4.617-7.898 4.652-6.383.057-10.398-6.032-7.921-12.011 1.546-3.733 3.455-4.888 8.143-4.927 2.881-.024 4.213.625 6.25 3.047m229.516 4.558c2.44 3.101 2.634 6.38.61 10.293-1.574 3.045-3.35 4.072-7.037 4.072s-5.463-1.027-7.037-4.072c-2.112-4.085-1.806-7.265.989-10.282 3.452-3.725 9.55-3.73 12.475-.011m-501.858 6.453c-5.999 1.177-17.319 4.995-16.686 5.628.281.281 4.472-.187 9.314-1.04 19.641-3.461 27.237-2.982 37.116 2.338 2.921 1.574 5.144 2.327 4.938 1.674-.58-1.844-9.479-7.518-13.574-8.655-4.328-1.203-14.836-1.175-21.108.055m523.271 19.078c.755 1.204.68 2.105-.27 3.25-1.833 2.208-4.79 1.976-6.104-.48-2.23-4.167 3.844-6.806 6.374-2.77m-676.166 4.584c-2.165 7.103-4.485 9.691-10.531 11.746-3.104 1.055-5.643 2.192-5.643 2.527s2.771 1.93 6.158 3.543c5.394 2.57 6.446 3.554 8.49 7.934 1.283 2.75 2.337 5.563 2.342 6.25.023 2.946 1.734.842 3.471-4.267 2.155-6.339 2.333-6.522 10.674-10.979 6.228-3.327 6.228-3.327 1.322-4.063-6.087-.913-9.56-4.148-12.086-11.258-1.012-2.851-2.114-5.183-2.447-5.183s-1.122 1.688-1.75 3.75M1246.4 755.4c-4.317 4.317-4.609 9.01-.84 13.489 6.277 7.46 17.409 3.369 17.386-6.389-.01-4.295-1.027-6.114-4.919-8.796-3.945-2.719-7.77-2.161-11.627 1.696m-304.67 2.372c1.227.951 2.515 3.161 2.862 4.912 1.404 7.077-8.987 11.443-13.519 5.681-2.75-3.495-2.618-6.911.382-9.91 2.888-2.889 7.069-3.167 10.275-.683m160.751 5.618c2.413 2.413 2.506 5.48.252 8.36-1.359 1.737-7.225 1.567-8.736-.253-1.978-2.384-1.49-6.68.989-8.687 2.977-2.41 4.633-2.282 7.495.58m-382.48 7.553c.543 1.956.99 10.344.993 18.639.006 15.851-2.334 37.848-8.076 75.918-1.659 11-4.352 29-5.983 40-6.654 44.864-14.998 82.518-21.025 94.879-3.444 7.064-6.824 10.621-10.092 10.621-1.687 0-1.556-.443 1.105-3.755 3.773-4.695 7.242-13.16 11.065-27 5.932-21.472 18.001-94.472 26.164-158.245 2.749-21.474 3.009-48.42.529-54.876-2.239-5.828-2.169-5.966 1.325-2.618 1.654 1.584 3.451 4.481 3.995 6.437M862.8 767.2c3.187 3.187-.763 7.961-4.8 5.8-3.406-1.823-1.927-7 2-7 .88 0 2.14.54 2.8 1.2m454.762 7.153c-1.986 9.613-2.035 30.952-.119 51.647 2.304 24.89 13.632 110.994 17.628 134 4.678 26.925 10.916 46.766 16.725 53.196 3.821 4.229 3.635 5.693-.537 4.226-5.221-1.836-10.89-13.627-15.735-32.729-6.555-25.841-19.567-119.378-23.605-169.693-1.715-21.366.145-39.858 4.712-46.837 2.381-3.638 2.625-2.012.931 6.19m-251.169.897c1.413 2.254-.255 5.125-3.235 5.568-2.887.43-5.083-3.998-3.143-6.337 1.626-1.958 4.917-1.561 6.378.769m-330.274 18.387c3.744 31.726-5.221 125.277-16.181 168.863-5.103 20.292-12.723 38.459-17.991 42.891-4.69 3.946-5.177 3.152-1.459-2.373 6.339-9.42 13.248-30.601 18.434-56.518 3.712-18.553 5.344-29.769 8.508-58.5 4.876-44.276 5.744-57.654 5.399-83.279-.263-19.538-.082-24.104.898-22.702.675.965 1.751 6.193 2.392 11.618M1183.5 785.5c0 2.482-.446 3.052-2.586 3.301-3.174.369-5.314-1.965-4.411-4.81.525-1.656 1.343-2.039 3.832-1.798 2.782.27 3.165.67 3.165 3.307m116.037 35.25c.04 40.191 1.106 57.293 6.06 97.25 5.437 43.853 11.105 67.599 20.942 87.733 2.222 4.547 3.689 8.267 3.26 8.267-1.775 0-7.989-10.141-11.768-19.204-7.682-18.426-13.869-46.33-17.473-78.796-6.517-58.723-7.428-106.485-2.446-128.25.598-2.612 1.155-4.75 1.238-4.75s.167 16.987.187 37.75m-311.194-30.5c-2.664 5.07-3.057 19.315-.713 25.88 2.505 7.017 9.858 14.958 16.6 17.929 7.337 3.233 18.344 3.243 25.006.023 14.682-7.096 22.232-24.996 17.019-40.353-1.886-5.556-1.889-5.708-.086-4.076C1052.407 795.298 1058 809 1058 818.637c0 6.148-2.895 15.653-6.514 21.385-13.509 21.4-44.093 25.286-62.86 7.987-16.987-15.658-18.019-39.825-2.457-57.549 3.791-4.317 4.362-4.373 2.174-.21m-34.79 20.809c2.45 2.707.862 5.441-3.162 5.441-2.305 0-2.961-.495-3.236-2.444-.212-1.502.343-2.947 1.441-3.75 2.363-1.728 2.768-1.666 4.957.753m-125.124 9.087c2.952 2.598 5.729 6.484 7.984 11.169 4.839 10.055 5.46 13.621.902 5.185-2.34-4.332-6.675-9.911-11.375-14.638-5.931-5.965-6.986-7.425-4.816-6.669 1.528.533 4.815 2.761 7.305 4.953m382.023-1.764c-2.762 1.859-8.493 7.072-12.737 11.583-7.783 8.274-9.121 9.218-6.021 4.25 4.173-6.686 10.511-13.034 15.968-15.995 7.675-4.163 9.09-4.081 2.79.162m-112.059 2.868c2.455 3.917-4.345 7.904-7.087 4.154-1.686-2.306-1.646-2.921.319-4.886 1.986-1.987 5.287-1.63 6.768.732m-608.01 6.775c-4.159 1.285-10.971 8.828-12.302 13.62-3.907 14.073 1.625 34.164 14.765 53.622 21.268 31.492 62.76 64.041 104.236 81.768 5.102 2.181 9.513 3.965 9.803 3.965.289 0-5.304-3.949-12.43-8.775-37.428-25.352-59.873-44.697-78.368-67.545-18.136-22.405-28.789-48.621-23.731-58.402 5.58-10.791 28.281-2.646 47.592 17.075 3.546 3.622 6.617 6.416 6.823 6.209.899-.898-5.483-12.383-10.783-19.406-10.59-14.031-23.369-22.15-35.837-22.766-3.658-.181-8.054.105-9.768.635m438.801 16.607c5.967 6.345 14.528 10.995 22.088 11.998 2.625.349 5.058 1.095 5.407 1.66 1.069 1.729-13.158.034-18.114-2.158-9.559-4.229-18.075-15.361-19.992-26.132-.504-2.836-.061-2.316 2.336 2.74 1.627 3.432 5.351 8.783 8.275 11.892m524.045-3.963c-2.109.849-4.318 6.128-3.66 8.749 1.334 5.316 8.848 7.971 12.942 4.573 3.94-3.27 3.622-10.779-.55-13.012-1.911-1.023-6.551-1.187-8.732-.31M401.425 864c4.125 10.756 16.549 30.188 29.089 45.5 19.696 24.05 53.363 51.474 87.736 71.466 5.913 3.439 10.75 6.382 10.75 6.54 0 .45-18.818-7.855-25.707-11.346-41.873-21.22-76.485-53.758-93.776-88.16-2.967-5.902-9.21-21.771-11.017-28-1.161-4.003.977-1.079 2.925 4m673.951-1.769c.839 1.332.708 2.113-.565 3.387-2.996 2.996-7.466-.919-4.765-4.174 1.555-1.873 3.87-1.531 5.33.787M962 868.5c.993 1.197.993 1.803 0 3-.685.825-1.81 1.5-2.5 1.5-1.873 0-3.806-2.76-3.143-4.487.746-1.944 4.034-1.951 5.643-.013m-111.459 10.589c-2.622 15.001-8.852 29.274-16.549 37.911-4.01 4.5-4.01 4.5 2.38-8.5 6.224-12.662 11.33-25.533 13.626-34.351 1.825-7.007 2.136-4.177.543 4.94m175.257 14.277c2.036.337 5.897.617 8.579.623 4.878.011 4.878.011-1.5 5.102-3.507 2.801-6.541 5.252-6.741 5.447s.613 3.568 1.805 7.494c1.193 3.927 2.031 7.517 1.864 7.979s-3.23-1.32-6.805-3.96c-6.5-4.8-6.5-4.8-12.5-.598-3.3 2.311-6.508 4.497-7.129 4.859-.641.373-.089-2.901 1.279-7.578 2.72-9.299 3.357-7.706-6.186-15.45-4.34-3.522-5.08-3.241 9.786-3.713 1.835-.058 2.758-1.36 5-7.055 1.513-3.841 2.774-7.666 2.803-8.5s1.401 2.141 3.048 6.611c2.903 7.876 3.11 8.146 6.697 8.739m256.285 30.134c1.107 9.9 2.226 19.35 2.486 21 .464 2.938.451 2.948-.631.5-4.57-10.343-7.62-35.329-6.333-51.874.826-10.626.826-10.626 1.645.874.451 6.325 1.725 19.6 2.833 29.5m-200.654-26.929c3.249 3.25.778 8.429-4.022 8.429-3.3 0-5.199-3.967-3.589-7.5 1.326-2.91 5.161-3.378 7.611-.929m-125.363 5.464c2.54 1.36 2.47 4.608-.13 5.999-3.689 1.974-6.755-2.815-3.736-5.834 1.455-1.455 1.455-1.455 3.866-.165M752.993 933.46c-1.584 10.834-5.481 22.849-9.655 29.767-1.9 3.15-3.81 5.947-4.244 6.215s.778-3.659 2.694-8.727c4.23-11.191 8.765-26.62 10.459-35.584 1.068-5.653 1.302-6.117 1.584-3.147.182 1.916-.195 7.081-.838 11.476m22.982-.96c-3.138 17.969-11.184 34.952-22.336 47.142-6.418 7.015-12.645 11.55-6.949 5.06 12.261-13.971 26.371-43.816 29.085-61.523.698-4.552.727-4.584 1.07-1.179.193 1.925-.198 6.65-.87 10.5m629.525-5.036c-3 1.374-3 1.374.3 1.455 5.387.132 8.83 2.545 10.729 7.518 7.08 18.54-21.454 60.127-65.529 95.504-22.905 18.385-52.372 36.831-83.478 52.257-8.787 4.358-16.137 8.084-16.334 8.28s2.944-.665 6.978-1.913c18.113-5.606 32.772-11.484 51.334-20.586 34.27-16.803 57.235-32.685 79.5-54.98 23.999-24.031 37.242-46.339 39.534-66.598.918-8.111-.796-13.898-5.512-18.615-3.461-3.46-4.249-3.782-9.154-3.741-2.953.025-6.718.663-8.368 1.419m-609.839 8.315c-1.785 9.459-6.998 20.301-12.127 25.221-3.641 3.492-3.635 3.471 2.728-9 3.508-6.875 7.217-15.305 8.242-18.733s2.042-6.054 2.26-5.836-.279 3.974-1.103 8.348m268.701-7.279c.944 2.462-.415 4.5-3 4.5-1.334 0-2.684-.675-3-1.5-.945-2.462.414-4.5 3-4.5 1.333 0 2.683.675 3 1.5m-81.402 7.952c2.087 2.514.845 5.048-2.474 5.048-2.386 0-3.054-.479-3.323-2.387-.521-3.679 3.442-5.498 5.797-2.661m-27.823 8.11c13.308 8.329 31.343 23.81 41.862 35.933 11.149 12.85 10.605 13.301-1.608 1.33-13.146-12.885-22.614-20.784-40.141-33.487-7.288-5.282-13.25-9.752-13.25-9.935 0-.666 8.891 3.502 13.137 6.159m133.701-1.491c-3.405 1.905-24.629 17.466-31.82 23.329-4.114 3.355-11.877 10.318-17.25 15.473s-9.768 8.885-9.768 8.29c0-2.017 27.449-28.661 35.729-34.68 8.743-6.357 23.371-14.717 24.236-13.851.285.285-.222.932-1.127 1.439m-67.395 3.152c4.878 6.964-3.484 14.736-9.443 8.777-4.146-4.146-1.342-11 4.5-11 2.366 0 3.856.67 4.943 2.223M1247.09 970.5c8.171 9.525 7.864 9.006 4.212 7.138-6.693-3.423-14.225-14.725-17.706-26.57-2.575-8.761-1.913-8.16 3.805 3.458 2.97 6.036 7.331 13.224 9.689 15.974m24.355 5.248c3.428 6.482 3.957 7.974 2.04 5.752-5.996-6.951-11.583-19.311-12.883-28.5-.513-3.627.028-2.705 2.789 4.748 1.884 5.086 5.508 13.186 8.054 18m-329.093-15.176c16.376 9.586 39.942 28.731 59.925 48.683 13.777 13.755 13.777 13.755 24.5 2.973 16.905-16.998 42.401-36.585 62.006-47.636 4.556-2.568 8.726-4.396 9.266-4.061.541.334.773.948.515 1.365-.257.417-7.577 5.528-16.266 11.358-19.632 13.174-35.391 25.738-52.885 42.163-13.525 12.699-13.525 12.699-27.67-.99-16.821-16.28-30.53-27.858-52.436-44.288-8.906-6.68-16.47-12.594-16.809-13.142-1.324-2.143 2.386-.796 9.854 3.575m220.571 13.351c-1.608 1.608-2.923 3.612-2.923 4.453 0 4.562 4.283 8.624 9.093 8.624 3.083 0 6.907-4.429 6.907-8 0-3.855-3.902-8-7.531-8-1.566 0-3.801 1.179-5.546 2.923m-743.979 4.013c14.949 17.256 44.375 41.458 67.556 55.565 24.579 14.957 54.857 28.636 87.5 39.53 63.1 21.059 132.532 30.505 204.857 27.872 13.946-.507 26.01-1.289 26.81-1.736.84-.471-6.273-1.329-16.857-2.035-50.085-3.339-87.226-8.031-128.31-16.208-91.794-18.272-167.381-49.083-223.846-91.247-7.235-5.402-14.971-11.59-17.192-13.75-6.055-5.889-6.354-4.728-.518 2.009m520.356 4.34c-.44.702-4.161 5.764-8.269 11.25-11.331 15.133-24.959 35.683-31.981 48.224-3.465 6.188-6.464 11.25-6.666 11.25-.599 0 2.581-7.849 7.216-17.812 7.414-15.938 20.02-33.76 34.259-48.438 5.577-5.749 6.944-6.873 5.441-4.474M1107.076 1012c12.952 17.623 21.136 34.157 28.535 57.651 3.902 12.39 4.114 16.345.329 6.132-4.374-11.801-10.984-26.175-17.122-37.234-6.534-11.773-23.626-37.736-29.362-44.601-1.901-2.276-3.443-4.432-3.427-4.793.061-1.379 15.794 15.696 21.047 22.845m367.92-5.609c-13.166 33.676-40.49 62.939-76.169 81.576-6.505 3.398-11.827 5.986-11.827 5.752s3.037-2.454 6.75-4.933c18.518-12.367 42.346-33.713 57.201-51.243 8.46-9.983 18.385-24.606 23.571-34.73 2.166-4.227 4.09-7.534 4.276-7.348s-1.525 5.103-3.802 10.926m-536.233 6.218c-3.46 6.54-7.373 14.252-8.696 17.138s-2.601 5.053-2.838 4.815c-.653-.653 2.718-10.405 5.553-16.062 3.058-6.104 11.306-18.746 11.865-18.187.223.223-2.425 5.757-5.884 12.296m136.776 14.592c14.48 28.543 24.098 60.628 28.867 96.299 2.021 15.112 3.928 38.661 3.324 41.04-.298 1.174-.544.543-.614-1.575-.144-4.394-4.307-30.143-7.674-47.465-5.908-30.397-17.858-69.565-27.991-91.749-3.078-6.738-5.823-12.926-6.1-13.751-1.119-3.33 5.094 7.159 10.188 17.201m-267.741-12.153c-2.719 2.719-2.993 3.532-2.541 7.54.877 7.781 7.272 11.889 14.079 9.045 4.971-2.077 7.058-5.658 6.355-10.903-.774-5.766-4.279-8.73-10.324-8.73-3.706 0-5.07.55-7.569 3.048m157.767 15.502c-3.761 11.106-10.168 39.351-13.967 61.573-3.81 22.284-8.339 68.582-9.966 101.877-.202 4.125-.24-7.8-.086-26.5.416-50.177 4.271-79.627 15.123-115.5 3.636-12.021 11.269-32.395 11.9-31.765.201.201-1.151 4.843-3.004 10.315m79.408 14.086c2.043 7.796 4.068 22.091 3.948 27.864-.034 1.65-2.032-6.45-4.438-18-2.407-11.55-4.364-21.675-4.348-22.5.047-2.507 2.655 4.303 4.838 12.636m-45.859-4.987c-.56 2.118-2.19 11.951-3.622 21.851-1.433 9.9-2.808 18.45-3.055 19s-.233-3.95.032-10c.471-10.754 1.939-19.512 5.086-30.337 1.757-6.044 3.141-6.5 1.559-.514m-84.335 47.238c2.322 1.185 4.22 2.257 4.22 2.383-.001.127-2.899.238-6.44.248-5.52.016-7.047.446-10.701 3.014-7.492 5.266-10.628 13.59-8.651 22.968 1.889 8.962 12.5 16.745 20.693 15.179 2.436-.466 2.466-.42.612.936-3.136 2.293-9.647 3.644-14.694 3.048-17.549-2.071-27.768-21.081-19.765-36.768 2.47-4.841 10.109-11.457 14.735-12.761 5.572-1.571 15.116-.734 19.991 1.753m541.1 31.929c-5.308 4.744-4.128 13.452 2.272 16.762 6.994 3.617 14.849-1.304 14.849-9.301 0-9.335-10.098-13.735-17.121-7.461m-311.425-.066c.324.963 1.835 3.249 3.359 5.082 2.77 3.332 2.77 3.332 8.403 1.352s5.634-1.98 2.209 2.787c-1.884 2.623-3.425 5.11-3.425 5.529s1.622 3.018 3.604 5.777c2.643 3.679 3.109 4.826 1.75 4.302-1.02-.393-3.825-1.243-6.235-1.889-4.381-1.175-4.381-1.175-8.75 3.79s-4.369 4.965-4.369-1.595 0-6.56-5.5-8.43c-3.025-1.028-5.5-2.17-5.5-2.537 0-.368 2.7-1.267 6-1.999 6-1.332 6-1.332 6.158-6.375.086-2.774.136-5.606.111-6.294-.07-1.869 1.51-1.507 2.185.5m-152.388 5.285c2.999 1.605 2.598 6.705-.644 8.182-3.255 1.483-5.802.075-6.226-3.442-.298-2.466 1.961-5.775 3.941-5.775.547 0 1.865.466 2.929 1.035m-226.854 15.094c-3.611 1.041-7.202 5.867-7.208 9.687-.01 5.79 4.612 10.13 10.823 10.162 11.474.059 14.245-15.125 3.574-19.584-1.835-.767-3.464-1.353-3.619-1.304-.155.05-1.762.517-3.57 1.039m311.777 8.358c1.991 2.399.429 6.513-2.473 6.513-3.363 0-4.877-3.04-2.912-5.845 1.764-2.519 3.654-2.753 5.385-.668m-434.766 6.07c-3.196 2.238-3.07 7.842.224 10 5.619 3.682 11.573-4.563 6.968-9.651-2.093-2.313-4.24-2.417-7.192-.349M863.5 1156.5c0 2.664-.335 3-2.986 3-2.086 0-3.092-.545-3.335-1.808-.625-3.244.642-4.845 3.565-4.509 2.325.267 2.756.786 2.756 3.317m177.516 27.5c13.988 96.646 44.252 194.72 85.933 278.476 6.563 13.187 11.816 24.092 11.675 24.233-.594.594-21.226-37.637-29.526-54.709-40.292-82.882-59.408-150.272-69.561-245.22-2.445-22.858-2.807-27.428-2.006-25.28.205.55 1.773 10.675 3.485 22.5m241.744-10.509c26.09 5.25 36.198 7.733 61.24 15.042 111.061 32.418 183.414 75.178 219.183 129.535 10.294 15.645 16.106 28.891 20.571 46.888 3.595 14.489 3.779 35.984.425 49.544-2.545 10.287-9.874 25.909-13.932 29.694-2.747 2.563-2.747 2.563-22.411-3.133-10.816-3.132-27.063-8.332-36.104-11.554-16.44-5.858-16.44-5.858-11.075-13.737 7.051-10.355 9.599-15.526 12.7-25.777 9.108-30.097 3.547-60.86-16.214-89.703-16.025-23.389-41.888-44.752-75.388-62.271-7.56-3.954-14.212-7.033-14.782-6.843s3.366 3.462 8.745 7.271c22.422 15.875 39.347 31.284 54.432 49.553 11.493 13.92 20.358 30.755 23.991 45.56 3.321 13.537 3.089 31.787-.558 43.903-3.354 11.144-8.049 20.115-14.934 28.537-4.446 5.439-5.789 6.48-8.231 6.378-6.193-.26-50.104-21.863-74.234-36.52-55.081-33.46-105.978-80.431-141.687-130.758-11.63-16.392-25.217-38.577-32.399-52.905-5.445-10.862-5.938-12.319-4.368-12.923 6.296-2.419 35.478-10.06 38.77-10.151 2.2-.06 14.017 1.906 26.26 4.37m-375.33 13.713c3.138 4.479-3.171 8.95-6.867 4.866-1.713-1.894-1.724-2.175-.172-4.544 2.039-3.112 4.99-3.247 7.039-.322m267.37-.004c.66.66 1.2 2.145 1.2 3.3s-.54 2.64-1.2 3.3-2.145 1.2-3.3 1.2-2.64-.54-3.3-1.2-1.2-2.145-1.2-3.3.54-2.64 1.2-3.3 2.145-1.2 3.3-1.2 2.64.54 3.3 1.2m-180.106 14.387c5.763 4.586 8.52 10.631 8.057 17.668-.728 11.043-9.263 18.761-20.713 18.73-7.116-.02-9.701-1.463-4.197-2.344 4.484-.717 9.489-4.444 11.695-8.71 3.377-6.532.425-17.155-5.826-20.966-3.534-2.155-10.775-2.608-15.395-.963-2.815 1.003-2.815 1.003.185-1.583 5.056-4.359 8.444-5.472 15.694-5.154 5.704.251 7.256.741 10.5 3.322m96.01 17.09c1.299 1.96 1.234 2.385-.654 4.273-1.614 1.614-2.524 1.867-3.955 1.101-2.783-1.49-3.378-4.081-1.431-6.233 2.094-2.313 4.129-2.024 6.04.859m-282.595 14.072a2366 2366 0 0 0-6.068 28.306c-10.059 48.655-22.699 79.257-61.52 148.945-7.812 14.025-17.495 31.688-21.516 39.25s-7.58 13.745-7.908 13.739-2.713-1.693-5.3-3.75c-10.592-8.422-22.614-27.386-26.694-42.109-7.667-27.668-2.984-59.091 12.804-85.92 18.387-31.244 46.288-57.115 87.093-80.759 13.723-7.952 18.757-11.038 16.5-10.118-.55.225-5.5 1.668-11 3.207-10.712 2.998-29.229 10.283-40.24 15.831-10.523 5.302-29.866 18.556-39.562 27.108-25.737 22.699-42.775 50.91-49.422 81.829-2.42 11.262-2.374 35.982.089 47.46 3.7 17.243 10.579 33.615 19.426 46.232 2.507 3.575 9.034 11.081 14.505 16.681 9.948 10.181 9.948 10.181 3.693 24.5-3.441 7.875-9.524 23.094-13.52 33.819-5.671 15.225-7.68 19.564-9.165 19.793-2.523.389-18.043-5.137-26.804-9.544-32.069-16.133-53.458-35.853-68.809-63.44-8.072-14.507-15.013-38.204-16.379-55.922-.868-11.248-2.209-7.908-2.935 7.306-1.937 40.627 18.806 81.363 53.691 105.436 15.152 10.456 36.785 19.699 52.715 22.525 3.694.655 6.859 1.293 7.032 1.417.173.123-1.555 6.458-3.838 14.077s-4.3 14.35-4.479 14.959c-.41 1.394-14.152-.443-30.498-4.075-56.345-12.52-96.896-44.399-113.91-89.55-6.637-17.613-8.49-28.484-8.52-49.982-.021-15.277.367-20.456 2.228-29.728 6.08-30.289 20.465-58.752 43.859-86.782 29.145-34.92 68.571-62.965 118.681-84.421 20.223-8.659 49.948-17.561 76.711-22.973 25.039-5.064 60.996-9.633 61.784-7.85.183.414-1.043 6.94-2.724 14.503m41.836.203c3.095 6.218 3.704 6.877 6 6.492 11.034-1.848 13.055-2.127 13.055-1.807 0 .199-.788 1.183-1.75 2.185-5.203 5.418-8.247 9.267-8.227 10.401.012.703 1.538 4.09 3.391 7.527s2.952 6.25 2.444 6.25-3.047-1.067-5.641-2.37c-8.879-4.463-8.803-4.472-15.409 2.016-5.96 5.854-5.96 5.854-5.296.854.365-2.75 1.062-6.55 1.549-8.444s.784-3.513.662-3.598c-.123-.085-3.491-1.642-7.486-3.46s-7.06-3.509-6.811-3.757 3.966-1.192 8.262-2.098c7.812-1.648 7.812-1.648 9.294-9.395.815-4.262 1.715-7.741 2-7.732s2.068 3.13 3.963 6.936m443.69-4.879c-2.033 1.598-2.635 2.954-2.635 5.927 0 6.461 6.594 10.074 11.77 6.449 3.558-2.493 4.509-5.073 3.262-8.851-1.801-5.458-7.779-7.158-12.397-3.525m-157.258 14.917c.618-.005 3.453-1.094 6.3-2.42 5.177-2.41 5.177-2.41 2.25 2.554-3.046 5.166-3.572 7.359-2 8.331.51.315 2.336 2.352 4.059 4.527 3.132 3.955 3.132 3.955.323 3.069-1.545-.487-4.609-1.129-6.809-1.426-3.949-.533-4.043-.469-7.393 4.942-1.866 3.014-3.511 5.358-3.657 5.207s-.441-2.974-.657-6.274c-.392-6-.392-6-6.093-7.455-3.135-.801-5.693-1.701-5.685-2 .008-.3 2.343-1.67 5.189-3.045 5.176-2.5 5.176-2.5 4.913-8.807s-.263-6.307 3.937-1.75c2.311 2.506 4.706 4.553 5.323 4.547m404.956-5.701c3.208 1.766 11.217 6.697 17.798 10.957 34.246 22.169 58.029 47.851 72.47 78.254 8.106 17.065 12.876 40.524 12.215 60.071-.341 10.065.099 10.591 2.599 3.107 5.44-16.29 5.662-35.24.645-55.107-11.139-44.105-47.448-79.964-98.215-96.996-13.095-4.393-15.113-4.47-7.512-.286m-899.883 1.538c-.522.455-5.9 3.677-11.95 7.161-42.994 24.753-79.897 56.096-104.217 88.512-9.407 12.539-10.433 13.512-6.332 6 9.564-17.517 21.982-33.317 39.691-50.5 19.321-18.748 43.839-34.898 70.858-46.673 12.655-5.515 13.466-5.82 11.95-4.5m565.616 3.208c2.274 1.217 2.556 5.204.489 6.919-.795.66-2.482 1.052-3.75.873-3.022-.429-3.845-5.593-1.2-7.528 2.137-1.562 2.045-1.557 4.461-.264m-694.595 31.385c-30.307 11.674-64.148 38.867-82.594 66.371-14.988 22.347-22.443 44.102-23.566 68.774-.962 21.132 2.923 40.873 11.631 59.105 6.401 13.399 12.316 22.262 21.223 31.799 10.564 11.313 11.623 11.007 4.191-1.211-8.767-14.411-12.518-22.013-16.166-32.758-6.476-19.077-9.067-39.574-7.27-57.52 3.136-31.314 14.862-57.159 38.58-85.034 12.324-14.485 39.773-37.972 57-48.773 5.924-3.714 5.155-3.905-3.029-.753m393.455 2.506c2.411 2.411 1.679 5.841-1.561 7.317-1.895.864-2.749.719-4.361-.739-2.47-2.236-2.601-6.057-.254-7.424 2.579-1.502 4.026-1.304 6.176.846m665.133 17.844c9.263 9.918 14.704 17.644 20.234 28.73 5.282 10.586 9.012 21.966 10.743 32.773 1.493 9.317.734 31.821-1.323 39.227-1.356 4.884-1.403 4.582-1.999-13-.88-25.972-4.098-38.457-15.873-61.578-6.596-12.951-19.023-31.079-27.67-40.364-3.071-3.299-2.656-3.083 2.546 1.32 3.419 2.894 9.423 8.696 13.342 12.892m-331.666-1.52c1.608 2.566-.437 5.25-4.002 5.25-2.257 0-2.963-.505-3.218-2.305-.67-4.731 4.721-6.931 7.22-2.945m151.107 8.117c-2.826 5.728-3.363 6.228-9.245 8.607-3.434 1.389-6.247 2.808-6.25 3.152s2.91 1.461 6.473 2.481c6.916 1.981 7.019 2.11 11.009 13.893.55 1.623 1.219.816 3.544-4.272 2.587-5.662 3.381-6.512 8.167-8.74 2.916-1.358 5.865-2.473 6.552-2.478 2.531-.02 1.142-1.646-2.5-2.927-7.103-2.499-9.66-4.697-11.752-10.104-1.099-2.84-2.223-5.284-2.498-5.429s-1.85 2.472-3.5 5.817m-505.399 35.302c-4.54 30.342-8.294 66.384-10.242 98.331-1.547 25.387-1.544 87.109.007 107.5 2.769 36.409 7.942 80.524 12.194 104 4.357 24.052 13.29 64.769 19.527 89 2.548 9.9 4.844 18.9 5.103 20 .278 1.18 3.818 4.035 8.64 6.967 8.233 5.005 30.225 21.241 51.906 38.319 55.738 43.905 104.323 68.417 153.045 77.215 66.266 11.967 125.725-4.995 175.592-50.09 5.115-4.626 13.064-12.681 17.664-17.899 8.363-9.489 8.363-9.489-14.874-33-27.548-27.874-43.562-45.902-65.297-73.512-26.08-33.128-55.885-78.562-79.182-120.704-9.387-16.98-29.479-56.834-28.929-57.384.204-.204 4.125 6.707 8.713 15.358 34.262 64.609 67.389 114.623 109.441 165.23 21.922 26.382 61.889 70.174 82.259 90.133 9.832 9.633 9.832 9.633 22.832 11.5 9.599 1.379 18.363 1.842 33.5 1.771 17.781-.083 22.306-.445 34.116-2.731 20.213-3.911 31.328-8.074 47.551-17.807 27.513-16.506 47.705-49.274 53.956-87.557 1.932-11.834 2.531-43.491 1.05-55.533-.827-6.725-.827-6.725-10.5-12.466-62.74-37.24-117.857-84.583-175.106-150.41-30.211-34.737-54.136-66.579-77.888-103.66-10.592-16.536-10.413-16.24-9.833-16.24.255 0 3.729 4.838 7.719 10.75 38.435 56.947 65.316 89.755 110.871 135.32 47.278 47.288 86.317 79.646 137.233 113.746 7.669 5.136 7.669 5.136 10.264.707 3.559-6.072 11.801-16.298 27.359-33.945 28.754-32.615 40.969-54.092 47.604-83.698 2.235-9.975 2.604-13.977 2.604-28.25 0-13.885.24-16.63 1.455-16.63 2.317 0 3.049 6.11 2.994 25-.069 23.634-3.07 36.305-13.568 57.27-8.948 17.872-18.609 30.788-41.238 55.131-7.621 8.199-16.367 18.325-19.435 22.503-3.069 4.178-5.966 7.86-6.44 8.183-.783.535 25.562 17.151 39.482 24.902 3.162 1.761 5.75 3.358 5.75 3.549 0 .508-18.776-7.901-28.013-12.545-4.368-2.196-8.166-3.993-8.44-3.993s-.074 1.114.443 2.475c1.98 5.206 3.27 25.038 2.695 41.411-.896 25.539-4.549 41.043-14.367 60.989-16.114 32.736-43.908 54.495-80.682 63.164-25.878 6.101-59.935 6.638-87.636 1.382-3.203-.608-2.013.801 14 16.582 9.625 9.485 16.6 16.593 15.5 15.795-9.252-6.707-40.806-33.83-44.372-38.139-.755-.913-1.683-1.659-2.062-1.659s-4.844 4.897-9.922 10.883c-24.123 28.437-52.887 49.388-84.62 61.635-47.148 18.197-103.868 16.67-157.443-4.236-36.102-14.088-66.932-33.247-113.081-70.272-26.071-20.916-49.136-38.01-51.288-38.01-.303 0 .059 1.688.804 3.75 2.808 7.775 15.591 52.428 15.278 53.369-.181.541-3.215-6.723-6.744-16.141-6.294-16.798-6.493-17.164-10.483-19.22-3.127-1.611-6.504-2.2-14.612-2.547-15.946-.682-22.93 1.466-68.596 21.102-32.719 14.069-50.876 18.269-75.289 17.414-22.172-.775-37.32-5.769-56.903-18.757-18.049-11.969-39.267-34.807-49.74-53.534-3.439-6.15-6.022-13.174-5.161-14.036.227-.226 4.049 5.103 8.493 11.844 41.472 62.898 89.605 81.754 153.734 60.226 10.62-3.564 19.898-7.285 33.631-13.486 6.257-2.825 18.124-7.421 26.371-10.213 13.862-4.694 15.864-5.109 26.5-5.494 8.195-.296 13.087.012 17.004 1.071 3.024.819 5.617 1.369 5.763 1.224s-.905-3.37-2.333-7.164c-3.253-8.643-14.222-46.723-19.56-67.908-7.285-28.91-13.962-64.335-17.811-94.5-4.826-37.817-5.507-50.309-5.533-101.5-.025-48.38.287-55.533 4.055-93 2.689-26.741 12.976-94.277 14.177-93.076.227.227-.518 6.637-1.656 14.245m142.1-12.127c.992 2.178.852 2.85-.979 4.68-1.83 1.831-2.502 1.971-4.68.979-4.488-2.045-2.853-8.201 2.179-8.201 1.517 0 2.724.882 3.48 2.542m-88.836.531c3.543 2.786 3.748 9.54.385 12.679-6.344 5.921-14.649 2.43-14.718-6.188-.063-7.723 8.08-11.41 14.333-6.491m-322.306 5.142c-.081 2.354-5.868 8.76-8.997 9.959-2.562.981-2.562.981.559 2.301 3.125 1.322 8.379 7.197 8.379 9.369 0 2.254 1.535 1.035 4.172-3.312 1.575-2.596 4.223-5.2 6.453-6.344 3.781-1.94 3.781-1.94.62-2.634-2.895-.636-6.941-4.361-9.936-9.15-1.058-1.691-1.198-1.712-1.25-.189m592.495 8.347c-1.321 4.916-2.649 9.613-2.951 10.438-.374 1.022 1.435 2.847 5.674 5.724 3.423 2.323 7.573 5.344 9.223 6.714 3 2.49 3 2.49-3.5 2.614-3.575.068-8.689.421-11.364.786-4.863.662-4.863.662-8.052 10.881-3.06 9.806-4.593 13.222-4.576 10.198.005-.78-1.43-5.791-3.188-11.136-3.196-9.719-3.196-9.719-14.124-10s-10.928-.281-2.422-7.019 8.507-6.738 5.209-17.244-3.298-10.506 5.949-4.192 9.247 6.314 17.658-.377c4.625-3.68 8.513-6.608 8.638-6.508.126.1-.853 4.205-2.174 9.121m89.446.938c-.526 3.232-.854 5.951-.728 6.042.125.091 2.401 1.42 5.058 2.953 5.443 3.142 5.03 3.993-2.434 5.019-4.7.647-4.7.647-5.984 7.316-1.283 6.67-1.283 6.67-3.823.92s-2.54-5.75-8.736-5.75-6.196 0-2.13-3.985c4.066-3.986 4.066-3.986 1.9-9.646-1.191-3.112-1.963-5.862-1.715-6.111s2.558.999 5.134 2.771c4.682 3.221 4.682 3.221 9.272-1.369 2.524-2.524 4.714-4.465 4.866-4.313s-.154 2.921-.68 6.153m-164.5 9c0 3.78-.178 4.017-3.243 4.313-2.626.253-3.454-.151-4.353-2.124-1.735-3.808.358-6.89 4.412-6.497 2.997.29 3.184.544 3.184 4.308m-309.206 17.539c8.195 1.918 8.321 2.354 1.491 5.175-6.285 2.595-6.285 2.595-6.177 8.893s.109 6.298-3.331 2.345-3.44-3.952-2.851 20.548c.324 13.475.642 32.037.707 41.25.091 13.033.406 16.75 1.419 16.75 2.073 0 5.448 5.005 5.448 8.079 0 3.975-3.964 8.264-7.592 8.215-1.599-.022-3.415-.209-4.036-.417-1.189-.398-57.372 53.684-57.372 55.226 0 .493.788.909 1.75.924 1.294.02.875.753-1.611 2.815-3.361 2.787-3.361 2.787-.764 7.911s2.597 5.124-2.849 2.716-5.445-2.408-8.655 2.061c-1.766 2.459-3.4 4.47-3.633 4.47s-.269-2.567-.08-5.704c.342-5.703.342-5.703-6.071-7.913s-6.412-2.211 0-4.175c6.413-1.964 6.413-1.964 6.935-7.024.287-2.784.755-5.295 1.04-5.58s1.619 1.262 2.965 3.439 2.676 3.956 2.959 3.954 1.241-2.815 2.13-6.25c5.105-19.738 25.236-94.763 27.321-101.822 1.234-4.179 1.195-4.674-.449-5.7-.99-.618-2.306-2.657-2.924-4.531-2.242-6.792 2.629-12.401 9.921-11.423 3.791.509 4.127.311 8.717-5.121 8.446-9.996 14.551-16.15 16.022-16.15.789 0-3.282 5.287-9.047 11.749-8.285 9.287-10.292 12.102-9.579 13.434 2.856 5.338-1.139 13.817-6.51 13.817-2.043 0-2.703.695-3.564 3.75-2.114 7.5-16.231 61.059-19.137 72.602-2.709 10.759-8.746 31.548-10.425 35.898-1.581 4.095 2.43.898 16.937-13.5a8009 8009 0 0 1 28.971-28.588c11.558-11.33 13.458-13.616 12.618-15.184-2.358-4.407.822-11.978 5.032-11.978 1.813 0 1.856-1.397 1.291-42.25-.322-23.237-.7-42.389-.84-42.559s-2.813.434-5.938 1.342c-5.246 1.525-8.309 1.343-6.004-.358.534-.394 2.471-2.342 4.304-4.329 3.332-3.612 3.332-3.612-.25-8.598-1.971-2.743-3.583-5.227-3.583-5.52s2.097.099 4.659.87c6.755 2.033 7.479 1.821 11.341-3.311 3.5-4.652 3.5-4.652 3.794 1.941.293 6.593.293 6.593 5.5 7.811m169.483-8.482c2.697 1.889 2.995 6.933.568 9.614-2.378 2.628-7.826 2.408-9.788-.394-2.12-3.026-1.955-5.973.482-8.588 2.396-2.572 5.634-2.806 8.738-.632m358.199 25.419c3.778 3.778-1.417 9.393-5.531 5.978-1.991-1.652-1.814-5.639.305-6.874 2.457-1.431 2.991-1.339 5.226.896m-388.365 7.609c.86 3.427-1.545 5.899-4.916 5.053-5.113-1.283-4.014-7.638 1.321-7.638 2.334 0 3.081.537 3.595 2.585m65.163 11.952c4.001 5.755 7.826 10.458 8.5 10.453s6.38-1.565 12.679-3.464 11.551-3.355 11.671-3.235c.217.216-7.354 10.82-12.713 17.806-2.759 3.597-2.759 3.597 3.958 14 3.695 5.722 7.007 10.876 7.361 11.454.353.579-5.035-.892-11.974-3.269-6.94-2.376-12.924-3.975-13.299-3.551s-4.006 5.235-8.069 10.693c-7.388 9.924-7.388 9.924-7.665-3.56s-.277-13.484-12.951-18.038-12.675-4.555.527-8.912c13.201-4.356 13.201-4.356 13.201-17.635 0-7.304.337-13.262.75-13.242.413.021 4.023 4.746 8.024 10.5m341.286 18.523c2.463 2.799 3.05 2.949 15.5 3.961 7.117.578 18.192 1.485 24.612 2.015 17.434 1.44 19.921 1.324 20.517-.954.695-2.659 5.287-4.422 8.418-3.231 3.928 1.493 5.224 3.72 4.557 7.83-.565 3.486-.194 4.104 7.651 12.741 4.535 4.993 13.632 15.343 20.215 22.999 6.584 7.657 14.53 16.748 17.658 20.202 5.189 5.729 5.716 6.07 6 3.876.272-2.095 1.339-1.187 8.288 7.048 4.387 5.199 8.022 9.453 8.078 9.453s2.991-1.175 6.524-2.611c17.471-7.104 16.362-7.496 10.309 3.641-2.963 5.452-5.387 10.178-5.387 10.502s3.15 4.229 7 8.677 7 8.377 7 8.731-5.246-.392-11.658-1.657-11.75-2.184-11.863-2.042-2.851 4.923-6.084 10.622c-5.878 10.364-5.878 10.364-7.518-1.367-.901-6.452-2.167-12.057-2.812-12.456-.646-.399-5.696-1.555-11.224-2.569-11.67-2.141-11.701-2.028 2.433-8.708 8.775-4.147 8.775-4.147 8.092-11.705-.438-4.85-1.211-7.946-2.157-8.642-.812-.596-10.078-5.512-20.592-10.925-19.373-9.972-32.81-17.161-78.449-41.968-22.83-12.41-25.575-13.659-27.797-12.646-3.575 1.629-5.76 1.392-8.736-.95-1.867-1.468-2.635-3.006-2.635-5.277 0-8.35 8.352-11.076 14.06-4.59m-179.374.114c4.193 3.94 2.341 11.849-3.093 13.213-8.053 2.021-13.458-9.124-6.857-14.137 2.557-1.941 7.376-1.494 9.95.924m180.744 6.712c.301.487 6.965 4.381 14.809 8.652 46.119 25.112 72.207 39.17 87.191 46.985 16.93 8.829 16.93 8.829 10.5 1.334-20.409-23.79-31.138-36.058-36.762-42.04-5.625-5.982-6.653-6.67-9.21-6.159-2.321.465-3.489-.035-6.038-2.584-3.16-3.16-3.16-3.16-28.79-5.11-29.005-2.206-32.47-2.323-31.7-1.078m-115.428 21.626c3.025-1.106 6.063-2.376 6.75-2.821 1.826-1.184 1.577-.285-1.752 6.309-1.65 3.269-3 6.489-3 7.157s1.8 3.349 4 5.958 4 4.923 4 5.141c0 .219-1.463.2-3.25-.042-2.913-.394-.714 2.11 21.173 24.116 21.068 21.181 24.681 24.417 26.3 23.551 3.407-1.824 7.036-.626 9.159 3.021 1.882 3.234 1.896 3.548.295 6.339-.927 1.615-1.383 3.459-1.013 4.098.927 1.6 12.473 20.32 18.977 30.769 2.948 4.735 5.359 8.897 5.359 9.25 0 3.578-6.689-5.793-21.292-29.826-5.739-9.447-5.826-9.532-9.726-9.532-4.932 0-7.524-3.229-6.62-8.246.556-3.08-.109-3.975-12.451-16.754-41.417-42.886-40.382-42.131-44.911-32.735-1.375 2.853-3.18 5.878-4.01 6.721-.831.844-3.472 8.055-5.869 16.024s-6.841 22.365-9.874 31.99-5.751 18.611-6.039 19.969c-.521 2.45-.506 2.456 2.098.75 3.582-2.347 3.977-2.173 2.34 1.031-2.816 5.51-2.915 8.648-.351 11.058 1.991 1.87 4.877 2.539 18.284 4.242 8.757 1.112 25.821 3.564 37.921 5.449s28.3 4.362 36 5.503c18.397 2.728 19.621 2.994 18.935 4.104-.676 1.094-2.877.851-33.935-3.747-79.653-11.79-71.876-10.776-70.93-9.246.494.8-1.039.913-5.443.402-6.131-.712-6.131-.712-8.924 5.542s-2.792 6.253-4.644.139c-1.851-6.114-1.851-6.114-8.826-6.405s-6.975-.291-2.167-3.791a692 692 0 0 1 5.562-4.022c.414-.288-.12-3.17-1.187-6.406s-1.941-6.305-1.941-6.821 2.251.679 5.002 2.655c2.752 1.977 5.609 3.594 6.351 3.594 1.432 0 8.178-19.835 18.026-53 4.104-13.822 5.578-20.465 5.828-26.273.334-7.773.334-7.773-3.686-8.767-11.067-2.735-10.842-2.274-2.963-6.064 7.058-3.396 7.058-3.396 6.694-11.396-.365-8-.365-8 4.942-2.488 5.306 5.513 5.306 5.513 10.808 3.5M978 1443c1.1 1.1 2 2.9 2 4s-.9 2.9-2 4-2.9 2-4 2-2.9-.9-4-2-2-2.9-2-4 .9-2.9 2-4 2.9-2 4-2 2.9.9 4 2m-481.008 81.787c10.249 21.235 23.536 39.744 39.649 55.234 17.267 16.6 32.954 26.704 56.859 36.623 10.861 4.507 8.016 4.205-6.767-.717-50.339-16.762-86.69-56.477-99.664-108.887-3.346-13.516-3.139-15.762.464-5.04 1.94 5.775 6.197 16.029 9.459 22.787m1067.835-12.867c.707 4.738-4.893 6.874-8.262 3.152-2.156-2.382-1.281-5.855 1.773-7.042 2.744-1.066 6.045.912 6.489 3.89m-120.402.998c3.515 3.884.363 8.998-4.755 7.714-3.469-.871-4.602-4.945-2.134-7.672 2.245-2.48 4.67-2.495 6.889-.042m-521.982 11.305c2.124 3.031 1.955 6.379-.443 8.777-5.929 5.929-15.097-2.816-9.47-9.033 2.5-2.762 7.897-2.623 9.913.256m-95.516 4.412c4.441 5.646.807 13.365-6.293 13.365-4.764 0-9.083-4.956-8.22-9.432 1.284-6.657 10.423-9.134 14.513-3.933m256.873 2.565c.66.66 1.2 2.145 1.2 3.3 0 2.83-1.856 4.5-5 4.5s-5-1.67-5-4.5 1.856-4.5 5-4.5c1.43 0 3.14.54 3.8 1.2m-86.933 15.973c-.448 5.321-.94 10.161-1.091 10.758s4.298 3.215 9.887 5.821c5.688 2.651 9.665 5.045 9.032 5.436-.622.385-3.958 1.002-7.413 1.372s-6.273.958-6.261 1.306c.021.635 4.644 3.27 34.479 19.651 8.8 4.832 31.2 17.496 49.779 28.141 32.104 18.397 33.975 19.325 37.75 18.721 2.685-.429 3.995-1.16 4.045-2.257.041-.892.866-3.416 1.833-5.608 1.758-3.986 1.758-3.986 3.563 1.75 1.804 5.736 1.804 5.736 7.917 5.774s6.113.039 1.433 4.25-4.681 4.212-2.767 8.962c1.052 2.612 1.687 4.75 1.41 4.75-.276 0-2.377-1.183-4.667-2.629-3.253-2.054-4.507-2.385-5.73-1.516-.861.612-3.591 2.305-6.066 3.761-30.3 17.828-27.714 15.973-27.197 19.498.291 1.981-.207 4.481-1.297 6.504-1.769 3.285-1.769 3.285 7.531 16.584a6577 6577 0 0 1 15.18 21.798c20.68 29.893 23.967 34.528 24.662 34.775.729.26-2.183-23.718-8.411-69.275-3.307-24.191-4.115-34.423-2.603-32.984 1.095 1.042 3.988 20.531 11.132 74.984 4.067 31 4.067 31 11.003 37.959s6.936 6.959 12.218 5.085c2.905-1.032 8.545-3.35 12.532-5.153s7.25-3.062 7.25-2.8c0 .263-2.997 5.697-6.66 12.077-4.543 7.912-6.371 12.006-5.75 12.877.5.703 4.425 5.415 8.721 10.472 4.295 5.058 7.67 9.336 7.498 9.507s-5.859-1.036-12.639-2.683-12.918-2.768-13.641-2.491c-.723.278-4.4 5.6-8.171 11.827-6.858 11.323-6.858 11.323-8.162-1.177-.718-6.875-1.663-13.169-2.101-13.986-.484-.905-5.844-2.674-13.695-4.521-12.9-3.035-12.9-3.035-3.9-6.89 4.95-2.12 10.659-4.567 12.687-5.437 3.686-1.583 3.686-1.583 3.167-10.124-.286-4.698-.871-9.667-1.301-11.042s-5.019-8.575-10.197-16-16.488-23.872-25.133-36.55c-15.717-23.049-15.717-23.049-19.163-22.647-5.063.591-8.56-3.167-8.56-9.199 0-2.467.453-4.766 1.008-5.109s-1.821-3.406-5.277-6.809-13.974-14.736-23.373-25.186-21.538-23.95-26.977-30a3648 3648 0 0 1-20.236-22.75c-5.691-6.463-10.482-11.75-10.646-11.75s-1.036 3.487-1.938 7.75a5202 5202 0 0 1-2.147 10.11c-.411 1.913-1.384.54-5.142-7.25-5.147-10.671-4.586-10.346-14.838-8.599-3.264.556-7.204 1.227-8.755 1.489-2.585.438-2.207-.202 4.497-7.627 7.319-8.106 7.319-8.106 2.526-17.11-2.636-4.953-4.66-9.128-4.498-9.278.163-.151 4.623 1.74 9.912 4.202 9.616 4.476 9.616 4.476 14.664-.86 2.776-2.936 6.037-6.596 7.247-8.135 1.211-1.538 2.304-2.661 2.429-2.495.125.167-.14 4.656-.589 9.976m353.963 21.468c.451 3.158 1.208 4.903 2.181 5.031.819.107 3.267.487 5.44.844 3.951.65 3.951.65-.822 3.275-4.595 2.527-4.75 2.757-4.148 6.167.344 1.948.883 4.412 1.198 5.476.462 1.56-.203 1.319-3.447-1.25-4.669-3.698-5.501-3.822-9.078-1.348-4.861 3.362-4.982 3.342-3.574-.604 2.013-5.638 1.744-6.819-2.308-10.159-3.728-3.073-3.728-3.073 1.25-3.088 5.987-.019 6.477-.315 9.48-5.724 1.295-2.331 2.53-4.063 2.745-3.848.215.216.702 2.568 1.083 5.228m-515.659 7.014c2.381 2.155 2.319 4.591-.175 6.849-2.948 2.667-6.996.681-6.996-3.433 0-4.517 3.901-6.376 7.171-3.416m163.957 1.095c1.376 1.513 7.648 8.595 13.937 15.739 14.559 16.537 55.564 62.002 63.438 70.338 5.692 6.025 6.139 6.293 8.628 5.159 2.155-.982 3.261-.894 6.181.492 3.556 1.687 3.556 1.687 17.044-6.573 12.323-7.547 13.544-8.558 14.133-11.697.795-4.24-1.412-6.902-9.467-11.418-3.037-1.704-11.372-6.548-18.522-10.766-29.103-17.17-95.461-54.024-97.272-54.024-.331 0 .524 1.237 1.9 2.75M444 1605.05c0 2.528-2.553 7.705-5.261 10.667-1.114 1.22-4.284 2.968-7.044 3.884-5.018 1.667-5.018 1.667-.2 3.496 6.415 2.435 10.097 6.159 12.124 12.263 1.673 5.036 1.673 5.036 3.205.237 1.94-6.077 5.797-9.943 12.368-12.394 5.17-1.929 5.17-1.929 1.239-3.19-6.138-1.968-10.439-5.788-13.125-11.656-2.662-5.815-3.306-6.459-3.306-3.307m851.066 3.985c2.955 1.582 2.601 6.704-.562 8.145-4.649 2.118-8.586-3.955-4.933-7.609 1.843-1.842 2.867-1.942 5.495-.536m-500.849 10.95c26.108 8.064 41.876 36.714 34.875 63.368-5.102 19.425-18.951 33.121-38.552 38.125-15.904 4.061-33.585-.521-46.369-12.014-2.887-2.596-5.114-4.854-4.949-5.019s2.77.553 5.789 1.595c23.552 8.129 51.004-9.659 52.766-34.191 1.271-17.705-10.459-34.101-28.255-39.496-6.206-1.881-17.345-2.412-23.522-1.122-3.5.732-3.5.732-1.037-1.332 12.816-10.741 33.257-14.855 49.254-9.914m156.218 5.99c4.066 1.546 3.363 7.039-1.08 8.424-4.248 1.325-7.079-4.532-3.784-7.828 1.857-1.856 1.624-1.827 4.864-.596m449.704 20.185c7.025 1.16 7.025 1.16-.307 3.277-15.766 4.552-26.231 16.321-28.742 32.323-4.15 26.447 19.295 48.556 45.933 43.315 8.844-1.74 14.334-4.394 19.944-9.641 4.949-4.63 4.949-4.63 3.996-1.306-1.986 6.925-6.65 14.584-12.48 20.493-9.777 9.909-20.817 14.387-35.415 14.367-10.208-.014-16.619-1.571-25.187-6.116-18.785-9.967-30.295-33.113-26.922-54.142 2.759-17.204 12.487-31.217 26.399-38.029 11.19-5.479 19.842-6.678 32.781-4.541m67.638 9.397c2.979 2.086 2.877 5.969-.21 7.991-5.058 3.314-10.307-3.91-5.607-7.717 2.747-2.224 3.016-2.237 5.817-.274m-753.217 1.894c1.973 3.011 1.116 6.284-2.02 7.713-4.98 2.269-9.675-4.147-6.004-8.204 2.451-2.708 6.073-2.486 8.024.491m568.063 6.095c1.149 1.741 1.12 2.376-.193 4.25-3.617 5.165-11.427.804-8.466-4.728 1.494-2.792 6.691-2.505 8.659.478m-279.05 42.33c3.26-1.498 6.24-2.757 6.623-2.799.382-.043-.855 2.666-2.75 6.019s-3.446 6.458-3.446 6.901 1.994 3.205 4.431 6.14c2.436 2.934 4.341 5.424 4.233 5.533s-3.458-.518-7.442-1.392-7.398-1.407-7.587-1.184-2.209 3.308-4.489 6.855c-4.146 6.449-4.146 6.449-4.146-1.682s0-8.131-7.601-9.822c-7.602-1.691-7.602-1.691-.55-4.818 7.051-3.127 7.051-3.127 6.444-10.627s-.608-7.5 4.873-1.951 5.481 5.549 11.407 2.827m-306.02 6.183c1.427 1.576 1.614 2.454.798 3.75-1.366 2.168-4.043 2.691-5.899 1.151-1.883-1.562-1.841-3.428.119-5.389 2.053-2.052 2.745-1.984 4.982.488m145.278 31.453c3.29 4.183.026 9.53-4.87 7.976-4.432-1.407-4.851-7.785-.623-9.489 3.166-1.277 3.335-1.231 5.493 1.513m392.004 18.085c3.253 2.278 2.609 6.536-1.19 7.864-2.454.859-3.12.67-4.75-1.342-2.382-2.941-2.37-3.644.105-6.119 2.415-2.415 2.913-2.449 5.835-.403m109.231.438c3.747 2.005 1.827 7.965-2.566 7.965-4.28 0-6.31-5.847-2.75-7.92 2.238-1.304 2.952-1.31 5.316-.045m-266.521 3.42c6.18 6.179-.137 15.438-8.216 12.041-3.231-1.358-4.329-3.165-4.329-7.123 0-3.225 4.219-7.373 7.5-7.373 1.425 0 3.695 1.105 5.045 2.455"/></svg>